<svg width="104" height="38" viewBox="0 0 104 38" fill="none" xmlns="http://www.w3.org/2000/svg">
<path fill-rule="evenodd" clip-rule="evenodd" d="M25.3232 0C25.5591 2.13365 24.6976 4.27276 23.4209 5.81474C22.1424 7.35308 20.0462 8.55099 17.994 8.39078C17.716 6.299 18.753 4.12348 19.9365 2.75809C21.2553 1.21975 23.4849 0.0728208 25.3232 0ZM31.9506 12.0581C31.5791 12.287 27.9823 14.5024 28.0266 18.9751L28.0285 18.9733C28.0752 24.3865 32.7203 26.2501 32.9309 26.3345C32.9345 26.336 32.9368 26.3369 32.9378 26.3373C32.9352 26.3447 32.9303 26.3601 32.9231 26.383C32.8059 26.7541 32.0651 29.099 30.4026 31.5167C28.8772 33.7341 27.2987 35.9424 24.8056 35.9897C23.608 36.012 22.8073 35.6669 21.975 35.3082C21.1038 34.9328 20.198 34.5424 18.7659 34.5424C17.2653 34.5424 16.3173 34.9444 15.4042 35.3316C14.6133 35.6669 13.8486 35.9912 12.7738 36.0334C10.3685 36.1244 8.53577 33.6394 6.99933 31.4275C3.85511 26.909 1.45534 18.6529 4.68187 13.0821C6.2805 10.3149 9.14303 8.56539 12.2452 8.51987C13.5854 8.4951 14.8832 9.00782 16.0186 9.45637C16.8853 9.79874 17.6573 10.1037 18.2812 10.1037C18.8435 10.1037 19.5966 9.80816 20.4745 9.46364C21.8556 8.92163 23.5455 8.25845 25.2866 8.43431C26.4792 8.48346 29.8265 8.91129 31.9757 12.0426C31.9705 12.0459 31.9621 12.051 31.9506 12.0581Z" fill="white"/>
<path fill-rule="evenodd" clip-rule="evenodd" d="M86.3685 10.5936L92.988 14.4196L88.2468 19.0103L71.8618 3.1499L86.3685 10.5936ZM94.0072 15.0103L100.023 18.4855C100.375 18.6875 100.592 19.0639 100.589 19.4702C100.59 19.8753 100.374 20.2501 100.023 20.4515L93.5819 24.175L89.0591 19.7995L94.0072 15.0103ZM72.1 36.2143L86.3915 28.3321L92.5609 24.7658L88.245 20.5889L72.1 36.2143ZM70.8755 35.8221L70.892 3.79186L87.4293 19.7995L70.8755 35.8221Z" fill="white"/>
</svg>
