<svg width="164" height="270" viewBox="0 0 164 270" fill="none" xmlns="http://www.w3.org/2000/svg">
<g filter="url(#filter0_d_2818_1346)">
<rect x="4" width="156" height="262" rx="12" fill="#002E46" shape-rendering="crispEdges"/>
<rect x="4.5" y="0.5" width="155" height="261" rx="11.5" stroke="#5270FE" shape-rendering="crispEdges"/>
<path d="M19.348 24C18.916 24 18.844 23.976 18.844 23.868V16.284H16.336C16.228 16.284 16.192 16.224 16.192 15.852V15.78C16.192 15.42 16.216 15.36 16.336 15.36H22.504C22.624 15.36 22.648 15.42 22.648 15.792V15.852C22.648 16.224 22.612 16.284 22.504 16.284H19.996V23.868C19.996 23.988 19.9 24 19.456 24H19.348ZM24.3558 24C23.9118 24 23.8518 23.976 23.8518 23.868V15.492C23.8518 15.384 23.9118 15.36 24.3558 15.36H24.4758C24.9198 15.36 25.0038 15.372 25.0038 15.492V23.868C25.0038 23.988 24.9198 24 24.4758 24H24.3558ZM27.4958 24C27.0158 24 26.9558 23.988 26.9558 23.88V15.504C26.9558 15.384 27.0278 15.36 27.5198 15.36H27.7358C28.1918 15.36 28.2878 15.396 28.3358 15.504L30.0278 18.912C30.4358 19.74 30.8078 20.52 31.0838 21.18C31.3838 20.46 31.7558 19.608 32.0918 18.912L33.7598 15.504C33.8078 15.396 33.8918 15.36 34.3838 15.36H34.5398C35.0078 15.36 35.0798 15.384 35.0798 15.504V23.88C35.0798 23.988 35.0198 24 34.5758 24H34.4918C34.0238 24 33.9758 23.988 33.9758 23.88V19.896C33.9758 19.212 33.9878 17.832 33.9998 17.208C33.6998 17.952 33.2798 18.84 32.9078 19.596L31.5518 22.356C31.5038 22.452 31.4678 22.476 31.0718 22.476H31.0358C30.5918 22.476 30.5678 22.452 30.5198 22.356L29.1038 19.536C28.7198 18.768 28.3838 18.048 28.0358 17.208C28.0598 17.88 28.0598 19.14 28.0598 19.908V23.88C28.0598 23.988 28.0118 24 27.5558 24H27.4958ZM39.9753 24V15.36H42.4713C44.3553 15.36 45.5193 15.96 45.5193 17.52C45.5193 18.516 44.8713 19.128 44.1393 19.416C45.2673 19.632 46.0113 20.34 46.0113 21.552C46.0113 23.304 44.6193 24 42.6633 24H39.9753ZM41.1273 19.116H42.3993C43.5873 19.116 44.3673 18.684 44.3673 17.664C44.3673 16.548 43.6353 16.272 42.4713 16.272H41.1273V19.116ZM41.1273 23.088H42.6153C43.9713 23.088 44.8353 22.692 44.8353 21.528C44.8353 20.976 44.6433 20.592 44.2953 20.352C43.9113 20.076 43.3233 19.98 42.5793 19.98H41.1273V23.088ZM48.5185 24.012C48.1825 24.012 47.8465 23.928 47.6305 23.604C47.4745 23.376 47.4265 22.98 47.4265 22.344V18.324C47.4265 17.064 47.4145 15.504 47.3545 15.036C47.3425 14.916 47.4625 14.88 47.8705 14.88H47.9425C48.3265 14.88 48.4105 14.916 48.4345 15.036C48.4945 15.372 48.5065 16.812 48.5065 18.588V22.572C48.5065 23.016 48.5665 23.172 48.9625 23.172H49.0825C49.1425 23.172 49.1545 23.22 49.1545 23.496V23.532C49.1545 23.844 49.1545 23.892 49.0825 23.916C48.9145 23.976 48.6985 24.012 48.5185 24.012ZM52.7408 24.12C50.9888 24.12 50.1728 22.668 50.1728 20.94C50.1728 18.888 51.3488 17.544 52.9328 17.544C53.6528 17.544 54.2168 17.88 54.5528 18.312L54.6128 17.808C54.6248 17.664 54.6848 17.664 55.0448 17.664H55.0688C55.5248 17.664 55.5368 17.712 55.5368 17.808C55.5368 18.096 55.5128 18.864 55.5128 19.632V21.312C55.5128 22.416 55.5608 23.196 55.5968 23.856C55.5968 23.952 55.5368 24 55.1648 24H55.1168C54.7448 24 54.6728 23.964 54.6608 23.856L54.5888 23.304C54.2048 23.772 53.5208 24.12 52.7408 24.12ZM52.9328 23.16C53.3288 23.16 53.8088 23.04 54.1328 22.692C54.3848 22.416 54.4328 22.08 54.4328 21.036V19.332C54.1568 18.9 53.6168 18.516 53.0528 18.516C51.9488 18.516 51.3008 19.44 51.3008 20.88C51.3008 22.008 51.6968 23.16 52.9328 23.16ZM59.7294 24.12C57.8934 24.12 56.9814 22.716 56.9814 20.928C56.9814 18.732 58.2654 17.544 59.9334 17.544C60.6894 17.544 61.3614 17.808 61.8654 18.168C61.9614 18.24 61.9614 18.324 61.7934 18.72C61.6134 19.128 61.4934 19.092 61.4094 19.032C60.9654 18.732 60.4734 18.528 59.9934 18.528C58.8774 18.528 58.1094 19.368 58.1094 20.856C58.1094 22.008 58.5774 23.136 59.8734 23.136C60.3774 23.136 60.9294 22.992 61.3974 22.764C61.4934 22.716 61.6134 22.752 61.7094 23.004L61.7694 23.16C61.8894 23.448 61.8534 23.532 61.7694 23.58C61.1694 23.916 60.4734 24.12 59.7294 24.12ZM63.7171 24C63.2371 24 63.2011 23.952 63.2011 23.856V15.024C63.2011 14.928 63.2371 14.88 63.7171 14.88H63.7891C64.2691 14.88 64.2811 14.94 64.2811 15.024V20.256L65.0131 19.572C65.6611 18.96 66.0211 18.552 66.5971 17.796C66.6691 17.7 66.7291 17.664 67.1731 17.664C67.6051 17.664 67.7491 17.736 67.6891 17.844C67.4491 18.288 66.6691 19.248 65.6971 20.184L67.9411 23.832C67.9891 23.916 67.9291 24 67.4731 24H67.3891C66.9331 24 66.8131 23.964 66.7531 23.868L64.8931 20.856L64.2811 21.396V23.856C64.2811 23.94 64.2691 24 63.7891 24H63.7171ZM72.6833 24C72.1913 24 72.1433 23.988 72.1433 23.856V15.36H77.2673C77.3873 15.36 77.4113 15.408 77.4113 15.78V15.852C77.4113 16.224 77.3873 16.284 77.2673 16.284H73.2833V19.164H76.6673C76.7753 19.164 76.8113 19.212 76.8113 19.584V19.656C76.8113 20.028 76.7753 20.088 76.6673 20.088H73.2833V23.856C73.2833 23.976 73.2233 24 72.7673 24H72.6833ZM80.3268 24.12C78.5748 24.12 77.7588 22.668 77.7588 20.94C77.7588 18.888 78.9348 17.544 80.5188 17.544C81.2388 17.544 81.8028 17.88 82.1388 18.312L82.1988 17.808C82.2108 17.664 82.2708 17.664 82.6308 17.664H82.6548C83.1108 17.664 83.1228 17.712 83.1228 17.808C83.1228 18.096 83.0988 18.864 83.0988 19.632V21.312C83.0988 22.416 83.1468 23.196 83.1828 23.856C83.1828 23.952 83.1228 24 82.7508 24H82.7028C82.3308 24 82.2588 23.964 82.2468 23.856L82.1748 23.304C81.7908 23.772 81.1068 24.12 80.3268 24.12ZM80.5188 23.16C80.9148 23.16 81.3948 23.04 81.7188 22.692C81.9708 22.416 82.0188 22.08 82.0188 21.036V19.332C81.7428 18.9 81.2028 18.516 80.6388 18.516C79.5348 18.516 78.8868 19.44 78.8868 20.88C78.8868 22.008 79.2828 23.16 80.5188 23.16ZM85.4313 24C84.9513 24 84.9153 23.952 84.9153 23.856V19.764C84.9153 18.948 84.8913 18.108 84.8913 17.808C84.8913 17.712 84.9273 17.664 85.3833 17.664H85.4433C85.8753 17.664 85.9353 17.7 85.9353 17.808L85.9473 18.348H85.9593C86.3793 17.856 87.0753 17.544 87.8193 17.544C88.4793 17.544 89.0433 17.772 89.4393 18.18C89.5473 18.3 89.6433 18.42 89.7153 18.564C90.1953 17.904 91.0233 17.544 91.8753 17.544C92.5353 17.544 93.0993 17.772 93.4953 18.18C93.9273 18.624 94.1073 19.248 94.1073 20.22V23.856C94.1073 23.94 94.0953 24 93.6153 24H93.5433C93.0633 24 93.0273 23.952 93.0273 23.856V20.724C93.0273 19.752 92.9913 19.296 92.7033 18.96C92.4753 18.684 92.0673 18.564 91.6113 18.564C91.1913 18.564 90.6873 18.72 90.4113 18.984C90.2673 19.116 90.1353 19.32 90.0873 19.836C90.0633 20.172 90.0513 20.784 90.0513 21.48V23.856C90.0513 23.94 90.0393 24 89.5593 24H89.4873C89.0073 24 88.9713 23.952 88.9713 23.856V20.724C88.9713 19.752 88.9353 19.296 88.6473 18.96C88.4193 18.684 88.0113 18.564 87.5553 18.564C87.1353 18.564 86.6313 18.72 86.3553 18.984C86.2113 19.116 86.0793 19.32 86.0313 19.836C86.0073 20.172 85.9953 20.784 85.9953 21.48V23.856C85.9953 23.94 85.9833 24 85.5033 24H85.4313ZM96.1012 16.908C95.7172 16.908 95.6932 16.836 95.7412 16.764L96.6172 15.228C96.6652 15.144 96.8092 15.096 97.1452 15.096H97.2892C97.7332 15.096 97.8172 15.18 97.7572 15.264L96.6292 16.8C96.5932 16.86 96.4852 16.908 96.1972 16.908H96.1012ZM96.3652 24C95.8852 24 95.8492 23.952 95.8492 23.856V17.808C95.8492 17.712 95.8852 17.664 96.3652 17.664H96.4372C96.9172 17.664 96.9292 17.724 96.9292 17.808V23.856C96.9292 23.94 96.9172 24 96.4372 24H96.3652ZM99.788 24.012C99.452 24.012 99.116 23.928 98.9 23.604C98.744 23.376 98.696 22.98 98.696 22.344V18.324C98.696 17.064 98.684 15.504 98.624 15.036C98.612 14.916 98.732 14.88 99.14 14.88H99.212C99.596 14.88 99.68 14.916 99.704 15.036C99.764 15.372 99.776 16.812 99.776 18.588V22.572C99.776 23.016 99.836 23.172 100.232 23.172H100.352C100.412 23.172 100.424 23.22 100.424 23.496V23.532C100.424 23.844 100.424 23.892 100.352 23.916C100.184 23.976 99.968 24.012 99.788 24.012ZM102.342 16.476C101.922 16.476 101.586 16.14 101.586 15.72C101.586 15.3 101.922 14.964 102.342 14.964C102.762 14.964 103.098 15.3 103.098 15.72C103.098 16.14 102.762 16.476 102.342 16.476ZM102.318 24C101.838 24 101.802 23.952 101.802 23.856V17.808C101.802 17.712 101.838 17.664 102.318 17.664H102.39C102.87 17.664 102.882 17.724 102.882 17.808V23.856C102.882 23.94 102.87 24 102.39 24H102.318ZM106.893 24.12C105.141 24.12 104.325 22.668 104.325 20.94C104.325 18.888 105.501 17.544 107.085 17.544C107.805 17.544 108.369 17.88 108.705 18.312L108.765 17.808C108.777 17.664 108.837 17.664 109.197 17.664H109.221C109.677 17.664 109.689 17.712 109.689 17.808C109.689 18.096 109.665 18.864 109.665 19.632V21.312C109.665 22.416 109.713 23.196 109.749 23.856C109.749 23.952 109.689 24 109.317 24H109.269C108.897 24 108.825 23.964 108.813 23.856L108.741 23.304C108.357 23.772 107.673 24.12 106.893 24.12ZM107.085 23.16C107.481 23.16 107.961 23.04 108.285 22.692C108.537 22.416 108.585 22.08 108.585 21.036V19.332C108.309 18.9 107.769 18.516 107.205 18.516C106.101 18.516 105.453 19.44 105.453 20.88C105.453 22.008 105.849 23.16 107.085 23.16Z" fill="white"/>
<path d="M16.732 44C16.264 44 16.216 43.976 16.264 43.844L19.468 35.528C19.516 35.384 19.576 35.36 20.08 35.36H20.14C20.656 35.36 20.716 35.372 20.788 35.528L24.04 43.844C24.088 43.964 23.992 44 23.536 44H23.416C22.936 44 22.852 43.976 22.792 43.856L22.012 41.72H18.22L17.428 43.856C17.38 43.976 17.296 44 16.84 44H16.732ZM18.532 40.82H21.688L21.316 39.8C20.86 38.576 20.452 37.436 20.128 36.44C19.78 37.412 19.348 38.6 18.916 39.764L18.532 40.82ZM27.0348 44.12C26.4948 44.12 26.0988 43.976 25.8348 43.724C25.4868 43.4 25.3788 42.944 25.3788 42.14V38.516H24.3348C24.2628 38.516 24.2388 38.456 24.2388 38.24V38.168C24.2388 37.976 24.2628 37.904 24.3468 37.88C25.3908 37.58 25.5828 37.1 25.7028 35.984C25.7148 35.912 25.7748 35.888 26.0388 35.888H26.1228C26.3988 35.888 26.4588 35.924 26.4588 35.996V37.664H27.9708C28.0548 37.664 28.0788 37.724 28.0788 38.036V38.132C28.0788 38.456 28.0548 38.516 27.9708 38.516H26.4588V42.056C26.4588 42.512 26.4948 42.812 26.6508 42.98C26.7828 43.124 26.9868 43.196 27.2628 43.196C27.5388 43.196 27.8388 43.112 28.0788 43.04C28.1988 43.004 28.2348 43.052 28.2948 43.28L28.3308 43.436C28.3908 43.688 28.3908 43.76 28.2948 43.82C27.9948 44.012 27.4788 44.12 27.0348 44.12ZM31.6819 36.908C31.2979 36.908 31.2739 36.836 31.3219 36.764L32.1979 35.228C32.2459 35.144 32.3899 35.096 32.7259 35.096H32.8699C33.3139 35.096 33.3979 35.18 33.3379 35.264L32.2099 36.8C32.1739 36.86 32.0659 36.908 31.7779 36.908H31.6819ZM32.0659 44.12C30.1219 44.12 29.1259 42.908 29.1259 40.976C29.1259 38.96 30.2299 37.544 32.0059 37.544C33.0739 37.544 33.8059 38.072 34.2019 38.864C34.4779 39.416 34.5979 40.076 34.5979 40.784C34.5979 41.144 34.5739 41.216 34.4779 41.216H30.2539C30.2899 41.876 30.4819 42.392 30.8539 42.704C31.1779 42.992 31.6459 43.136 32.2699 43.136C32.7739 43.136 33.2779 43.016 33.8539 42.752C33.9619 42.704 34.0339 42.68 34.1539 42.98L34.2139 43.124C34.3459 43.436 34.3339 43.508 34.2379 43.568C33.6259 43.928 32.8699 44.12 32.0659 44.12ZM30.2899 40.328H33.4939C33.4819 39.428 33.0259 38.528 32.0179 38.528C31.1419 38.528 30.4579 39.092 30.2899 40.328Z" fill="white"/>
<path d="M17.944 68C17.752 68 17.68 67.904 17.68 67.016V66.8C17.68 65.912 17.752 65.792 17.944 65.792H20.968V53.744L17.776 55.328C17.488 55.472 17.344 55.4 16.96 54.56L16.84 54.296C16.48 53.528 16.528 53.408 16.792 53.264L21.016 51.128C21.688 50.792 21.952 50.72 22.552 50.72H23.032C23.68 50.72 23.8 50.792 23.8 51.032V65.792H26.536C26.728 65.792 26.8 65.912 26.8 66.8V67.016C26.8 67.904 26.728 68 26.536 68H17.944ZM30.1323 68C29.2923 68 29.1003 67.928 29.2203 67.664L35.5083 53.096H27.9003C27.7083 53.096 27.6363 52.976 27.6363 52.088V51.728C27.6363 50.84 27.7083 50.72 27.9003 50.72H37.5243C38.2683 50.72 38.3883 50.816 38.3883 51.128V52.04C38.3883 52.544 38.3403 52.784 38.0283 53.504L32.1723 67.664C32.0523 67.952 31.8603 68 30.7803 68H30.1323ZM45.3166 68.24C41.6446 68.24 39.4606 65.432 39.4606 59.696C39.4606 53.696 41.7406 50.48 45.7006 50.48C49.3486 50.48 51.5326 53.24 51.5326 59.024C51.5326 64.976 49.2526 68.24 45.3166 68.24ZM45.3886 65.888C47.5966 65.888 48.6286 63.488 48.6286 59.168C48.6286 54.872 47.6206 52.832 45.5806 52.832C43.4206 52.832 42.3646 55.208 42.3646 59.528C42.3646 63.824 43.3726 65.888 45.3886 65.888ZM61.7076 68.24C56.1636 68.24 53.4996 64.808 53.4996 59.408C53.4996 53.984 56.5956 50.48 61.9476 50.48C64.0116 50.48 65.7636 50.96 67.2756 51.968C67.5396 52.136 67.5396 52.28 67.1316 53L66.8436 53.504C66.4836 54.128 66.3636 54.176 66.0516 54.008C64.8276 53.288 63.5076 52.952 62.1156 52.952C58.5156 52.952 56.5236 55.208 56.5236 59.36C56.5236 63.584 58.4196 65.792 62.0196 65.792C62.9556 65.792 64.0836 65.624 64.8756 65.384V60.872H61.4916C61.2036 60.872 61.1076 60.8 61.1076 59.768V59.6C61.1076 58.568 61.1796 58.52 61.4916 58.52H66.9156C67.6596 58.52 67.7796 58.592 67.7796 58.88V66.656C67.7796 66.92 67.7076 67.04 67.4436 67.16C66.1476 67.784 63.7476 68.24 61.7076 68.24ZM72.1506 68C71.3826 68 71.2626 67.952 71.2146 67.76V50.96C71.2146 50.744 71.3826 50.72 72.1266 50.72H76.2786C80.2626 50.72 82.6386 51.992 82.6386 55.04C82.6386 56.936 81.5586 58.16 80.0466 58.808C82.2066 59.36 83.6226 60.728 83.6226 62.936C83.6226 66.656 80.7666 68 76.6386 68H72.1506ZM74.1666 58.016H76.2066C78.3906 58.016 79.7106 57.248 79.7106 55.448C79.7106 53.6 78.4626 53.024 76.3026 53.024H74.1666V58.016ZM74.1666 65.696H76.6386C79.2066 65.696 80.6226 64.976 80.6226 62.936C80.6226 60.848 79.1826 60.224 76.6866 60.224H74.1666V65.696Z" fill="#EB0028"/>
<path d="M30.016 93.14C30.184 93.404 29.944 93.5 29.272 93.5H28.624C27.784 93.5 27.616 93.476 27.448 93.212L24.448 88.292C23.392 86.564 23.032 86.444 21.328 86.444H20.2V93.236C20.2 93.476 20.032 93.5 19.144 93.5H18.904C18.016 93.5 17.896 93.452 17.896 93.236V76.22H22.288C26.8 76.22 29.344 77.54 29.344 81.044C29.344 83.708 27.832 85.316 25.288 86.084C25.72 86.42 26.104 86.948 26.704 87.884L30.016 93.14ZM22.624 84.62C25.336 84.62 26.968 83.588 26.968 81.188C26.968 78.788 25.384 78.068 22.504 78.068H20.2V84.62H22.624ZM43.2691 88.868C43.2691 91.364 41.5171 93.212 38.5891 93.644V95.804C38.5891 95.996 38.3731 96.068 37.8211 96.068H37.3651C36.7651 96.068 36.5731 95.996 36.5731 95.804V93.716C34.7251 93.596 32.9011 92.996 31.9651 92.276C31.7491 92.108 31.7011 91.964 32.0611 91.316L32.2051 91.052C32.4931 90.524 32.6371 90.452 32.8531 90.572C34.1251 91.34 35.6131 91.844 37.1011 91.844C39.5011 91.844 40.9891 90.644 40.9891 88.868C40.9891 87.356 40.0051 86.732 37.0291 85.388C33.8611 83.948 32.5891 82.7 32.5891 80.516C32.5891 78.068 34.5331 76.412 37.1011 76.052V74.084C37.1011 73.892 37.3171 73.82 37.8691 73.82H38.3251C38.9251 73.82 39.1171 73.892 39.1171 74.084V76.028C40.4371 76.148 41.5891 76.532 42.5731 77.18C42.8371 77.348 42.8371 77.444 42.5251 78.068L42.4051 78.308C42.0931 78.932 41.9971 78.956 41.7331 78.812C40.5331 78.188 39.4291 77.852 38.2531 77.852C36.3091 77.852 34.8691 78.884 34.8691 80.396C34.8691 81.812 35.8771 82.484 38.4451 83.684C41.6131 85.172 43.2691 86.324 43.2691 88.868ZM49.3748 93.74C48.0308 93.74 46.5668 93.428 45.3668 92.876C45.2468 92.828 45.1988 92.636 45.4148 92.06L45.5828 91.652C45.7748 91.172 45.9428 91.052 46.0628 91.1C47.0228 91.58 48.3188 91.844 49.3268 91.844C51.3668 91.844 52.9988 90.74 52.9988 88.604C52.9988 86.3 50.9108 85.316 48.6788 85.316H47.7428C47.5988 85.316 47.5508 85.22 47.5508 84.62V84.212C47.5508 83.612 47.5988 83.516 47.7428 83.516H48.6548C50.6948 83.516 52.3988 82.652 52.3988 80.54C52.3988 78.572 50.9588 77.804 49.3508 77.804C48.4388 77.804 47.3108 78.044 46.3988 78.548C46.2788 78.62 46.1348 78.524 45.9188 78.044L45.7508 77.684C45.5348 77.228 45.5828 77.012 45.7028 76.94C46.7828 76.364 48.1268 75.98 49.5188 75.98C52.1588 75.98 54.6548 77.396 54.6548 80.372C54.6548 82.292 53.5748 83.828 52.0868 84.308C53.6228 84.596 55.3028 85.964 55.3028 88.532C55.3028 92.012 52.4228 93.74 49.3748 93.74ZM63.6659 93.74C60.1859 93.74 58.0499 90.98 58.0499 85.22C58.0499 79.22 60.2819 75.98 64.0739 75.98C67.5299 75.98 69.6899 78.644 69.6899 84.476C69.6899 90.404 67.5059 93.74 63.6659 93.74ZM63.7619 91.844C66.1139 91.844 67.4099 89.252 67.4099 84.596C67.4099 80.18 66.2099 77.876 63.9779 77.876C61.6979 77.876 60.3539 80.348 60.3539 85.052C60.3539 89.468 61.5059 91.844 63.7619 91.844ZM79.9883 93.5C79.3163 93.5 78.9563 93.428 78.9563 93.236V89.108H72.5723C71.9483 89.108 71.7323 89.036 71.7323 88.772V87.716C71.7323 87.284 71.8523 86.804 72.0203 86.42L76.8203 76.508C76.9163 76.292 77.3243 76.22 77.9003 76.22H78.2843C78.8843 76.22 79.2923 76.34 79.1963 76.556L74.0843 87.188H78.9563V83.372C78.9563 83.18 79.3163 83.108 79.9403 83.108H80.2043C80.8763 83.108 81.2363 83.18 81.2363 83.372V87.188H83.1803C83.3483 87.188 83.3963 87.452 83.3963 87.98V88.292C83.3963 88.844 83.3483 89.108 83.1803 89.108H81.2363V93.236C81.2363 93.428 80.8763 93.5 80.2523 93.5H79.9883Z" fill="white"/>
<path d="M86.008 84.968C85.912 85.052 85.78 85.064 85.66 84.944L85.528 84.8C85.456 84.728 85.384 84.596 85.504 84.476C85.852 84.14 86.2 83.696 86.2 83.276C86.2 82.784 85.672 82.88 85.672 82.196C85.672 81.776 86.02 81.5 86.428 81.5C86.98 81.5 87.304 81.92 87.304 82.436C87.304 83.384 86.776 84.356 86.008 84.968ZM90.4865 83.12C89.7785 83.12 89.2265 82.964 88.7345 82.712C88.6505 82.664 88.6625 82.448 88.7465 82.256L88.7945 82.148C88.8785 81.956 89.0225 81.8 89.1065 81.848C89.4785 82.052 90.0425 82.172 90.4865 82.172C92.2745 82.172 92.7305 80.336 92.8265 78.764C92.3465 79.172 91.6145 79.436 90.9425 79.436C89.2625 79.436 88.5065 78.392 88.5065 76.928C88.5065 75.38 89.4665 74.24 91.2425 74.24C93.4625 74.24 94.0025 76.004 94.0025 77.984C94.0025 80.528 93.2225 83.12 90.4865 83.12ZM91.0985 78.488C91.8185 78.488 92.4305 78.176 92.8745 77.9V77.756C92.8745 76.604 92.6825 75.176 91.2065 75.176C90.0305 75.176 89.6465 76.064 89.6465 76.82C89.6465 77.66 89.9345 78.488 91.0985 78.488ZM97.1545 83.12C96.4465 83.12 95.8945 82.964 95.4025 82.712C95.3185 82.664 95.3305 82.448 95.4145 82.256L95.4625 82.148C95.5465 81.956 95.6905 81.8 95.7745 81.848C96.1465 82.052 96.7105 82.172 97.1545 82.172C98.9425 82.172 99.3985 80.336 99.4945 78.764C99.0145 79.172 98.2825 79.436 97.6105 79.436C95.9305 79.436 95.1745 78.392 95.1745 76.928C95.1745 75.38 96.1345 74.24 97.9105 74.24C100.131 74.24 100.671 76.004 100.671 77.984C100.671 80.528 99.8905 83.12 97.1545 83.12ZM97.7665 78.488C98.4865 78.488 99.0985 78.176 99.5425 77.9V77.756C99.5425 76.604 99.3505 75.176 97.8745 75.176C96.6985 75.176 96.3145 76.064 96.3145 76.82C96.3145 77.66 96.6025 78.488 97.7665 78.488Z" fill="white"/>
<path d="M85.516 95.204C85.228 95.204 85.12 95.156 85.144 95.06L87.784 86.264C87.82 86.156 87.928 86.144 88.204 86.144H88.432C88.72 86.144 88.84 86.192 88.816 86.288L86.188 95.084C86.164 95.168 86.032 95.204 85.756 95.204H85.516ZM90.3649 95C89.8849 95 89.8489 94.952 89.8489 94.856V90.764C89.8489 89.948 89.8249 89.108 89.8249 88.808C89.8249 88.712 89.8609 88.664 90.3169 88.664H90.3769C90.8089 88.664 90.8689 88.7 90.8689 88.808L90.8809 89.348H90.8929C91.3129 88.856 92.0089 88.544 92.7529 88.544C93.4129 88.544 93.9769 88.772 94.3729 89.18C94.4809 89.3 94.5769 89.42 94.6489 89.564C95.1289 88.904 95.9569 88.544 96.8089 88.544C97.4689 88.544 98.0329 88.772 98.4289 89.18C98.8609 89.624 99.0409 90.248 99.0409 91.22V94.856C99.0409 94.94 99.0289 95 98.5489 95H98.4769C97.9969 95 97.9609 94.952 97.9609 94.856V91.724C97.9609 90.752 97.9249 90.296 97.6369 89.96C97.4089 89.684 97.0009 89.564 96.5449 89.564C96.1249 89.564 95.6209 89.72 95.3449 89.984C95.2009 90.116 95.0689 90.32 95.0209 90.836C94.9969 91.172 94.9849 91.784 94.9849 92.48V94.856C94.9849 94.94 94.9729 95 94.4929 95H94.4209C93.9409 95 93.9049 94.952 93.9049 94.856V91.724C93.9049 90.752 93.8689 90.296 93.5809 89.96C93.3529 89.684 92.9449 89.564 92.4889 89.564C92.0689 89.564 91.5649 89.72 91.2889 89.984C91.1449 90.116 91.0129 90.32 90.9649 90.836C90.9409 91.172 90.9289 91.784 90.9289 92.48V94.856C90.9289 94.94 90.9169 95 90.4369 95H90.3649ZM104.575 87.872L103.255 86.72L101.911 87.86C101.863 87.908 101.743 87.86 101.623 87.728L101.539 87.632C101.395 87.476 101.359 87.38 101.419 87.308L102.511 86.144C102.595 86.048 102.727 85.988 103.039 85.988H103.495C103.831 85.988 103.963 86.072 104.035 86.156L105.103 87.284C105.175 87.356 105.127 87.476 104.983 87.632L104.887 87.74C104.779 87.872 104.635 87.932 104.575 87.872ZM103.363 95.12C101.419 95.12 100.423 93.908 100.423 91.976C100.423 89.96 101.527 88.544 103.303 88.544C104.371 88.544 105.103 89.072 105.499 89.864C105.775 90.416 105.895 91.076 105.895 91.784C105.895 92.144 105.871 92.216 105.775 92.216H101.551C101.587 92.876 101.779 93.392 102.151 93.704C102.475 93.992 102.943 94.136 103.567 94.136C104.071 94.136 104.575 94.016 105.151 93.752C105.259 93.704 105.331 93.68 105.451 93.98L105.511 94.124C105.643 94.436 105.631 94.508 105.535 94.568C104.923 94.928 104.167 95.12 103.363 95.12ZM101.587 91.328H104.791C104.779 90.428 104.323 89.528 103.315 89.528C102.439 89.528 101.755 90.092 101.587 91.328ZM108.978 95.12C108.21 95.12 107.466 94.844 107.01 94.52C106.89 94.436 106.926 94.364 107.058 94.088L107.118 93.956C107.274 93.62 107.322 93.608 107.478 93.704C107.934 93.968 108.51 94.184 109.038 94.184C109.59 94.184 110.358 93.908 110.358 93.212C110.358 92.564 109.59 92.348 108.978 92.216C108.342 92.072 107.874 91.904 107.55 91.604C107.25 91.328 107.07 90.908 107.07 90.44C107.07 89.264 108.09 88.544 109.29 88.544C110.046 88.544 110.742 88.808 111.186 89.204C111.282 89.288 111.306 89.396 111.138 89.636L111.054 89.756C110.838 90.068 110.778 90.068 110.694 89.996C110.25 89.684 109.83 89.468 109.302 89.468C108.81 89.468 108.102 89.66 108.102 90.32C108.102 90.968 108.774 91.136 109.35 91.28C110.334 91.532 111.378 91.892 111.378 93.14C111.378 94.424 110.298 95.12 108.978 95.12Z" fill="white"/>
<g clip-path="url(#clip0_2818_1346)">
<path d="M17.106 117V106.92H23.126C23.266 106.92 23.294 106.976 23.294 107.41V107.494C23.294 107.928 23.266 107.998 23.126 107.998H18.45V111.358H22.426C22.552 111.358 22.594 111.414 22.594 111.848V111.932C22.594 112.366 22.552 112.436 22.426 112.436H18.45V115.922H23.182C23.322 115.922 23.35 115.964 23.35 116.412V116.482C23.35 116.916 23.322 117 23.182 117H17.106ZM26.9257 117.14C26.0297 117.14 25.1617 116.818 24.6297 116.44C24.4897 116.342 24.5317 116.258 24.6857 115.936L24.7557 115.782C24.9377 115.39 24.9937 115.376 25.1757 115.488C25.7077 115.796 26.3797 116.048 26.9957 116.048C27.6397 116.048 28.5357 115.726 28.5357 114.914C28.5357 114.158 27.6397 113.906 26.9257 113.752C26.1837 113.584 25.6377 113.388 25.2597 113.038C24.9097 112.716 24.6997 112.226 24.6997 111.68C24.6997 110.308 25.8897 109.468 27.2897 109.468C28.1717 109.468 28.9837 109.776 29.5017 110.238C29.6137 110.336 29.6417 110.462 29.4457 110.742L29.3477 110.882C29.0957 111.246 29.0257 111.246 28.9277 111.162C28.4097 110.798 27.9197 110.546 27.3037 110.546C26.7297 110.546 25.9037 110.77 25.9037 111.54C25.9037 112.296 26.6877 112.492 27.3597 112.66C28.5077 112.954 29.7257 113.374 29.7257 114.83C29.7257 116.328 28.4657 117.14 26.9257 117.14ZM34.1778 117.14C32.0358 117.14 30.9718 115.502 30.9718 113.416C30.9718 110.854 32.4698 109.468 34.4158 109.468C35.2978 109.468 36.0818 109.776 36.6698 110.196C36.7818 110.28 36.7818 110.378 36.5858 110.84C36.3758 111.316 36.2358 111.274 36.1378 111.204C35.6198 110.854 35.0458 110.616 34.4858 110.616C33.1838 110.616 32.2878 111.596 32.2878 113.332C32.2878 114.676 32.8338 115.992 34.3458 115.992C34.9338 115.992 35.5778 115.824 36.1238 115.558C36.2358 115.502 36.3758 115.544 36.4878 115.838L36.5578 116.02C36.6978 116.356 36.6558 116.454 36.5578 116.51C35.8578 116.902 35.0458 117.14 34.1778 117.14ZM41.0001 117.14C40.1461 117.14 39.4321 116.916 38.9001 116.44C38.2001 115.824 37.7941 114.788 37.7941 113.472C37.7941 110.826 39.1801 109.468 41.2801 109.468C42.1341 109.468 42.8481 109.692 43.3801 110.168C44.0801 110.784 44.4861 111.82 44.4861 113.136C44.4861 115.782 43.1001 117.14 41.0001 117.14ZM41.0561 116.02C42.1761 116.02 43.1701 115.236 43.1701 113.234C43.1701 111.974 42.7501 110.588 41.2241 110.588C40.1041 110.588 39.1101 111.372 39.1101 113.374C39.1101 114.634 39.5301 116.02 41.0561 116.02ZM47.4031 117.014C47.0111 117.014 46.6191 116.916 46.3671 116.538C46.1851 116.272 46.1291 115.81 46.1291 115.068V110.378C46.1291 108.908 46.1151 107.088 46.0451 106.542C46.0311 106.402 46.1711 106.36 46.6471 106.36H46.7311C47.1791 106.36 47.2771 106.402 47.3051 106.542C47.3751 106.934 47.3891 108.614 47.3891 110.686V115.334C47.3891 115.852 47.4591 116.034 47.9211 116.034H48.0611C48.1311 116.034 48.1451 116.09 48.1451 116.412V116.454C48.1451 116.818 48.1451 116.874 48.0611 116.902C47.8651 116.972 47.6131 117.014 47.4031 117.014ZM50.3691 117C49.8091 117 49.7671 116.944 49.7671 116.832V106.528C49.7671 106.43 49.7811 106.36 50.3411 106.36H50.4251C50.9851 106.36 51.0271 106.416 51.0271 106.528V110.364C51.5171 109.818 52.4271 109.468 53.2671 109.468C54.0371 109.468 54.7231 109.734 55.1851 110.21C55.6891 110.728 55.8991 111.456 55.8991 112.59V116.832C55.8991 116.93 55.8851 117 55.3251 117H55.2411C54.6811 117 54.6391 116.944 54.6391 116.832V113.178C54.6391 112.044 54.5971 111.512 54.2611 111.12C53.9951 110.798 53.5471 110.658 52.9311 110.658C52.4131 110.658 51.7831 110.84 51.4471 111.162C51.2791 111.316 51.1251 111.554 51.0691 112.156C51.0411 112.548 51.0271 113.262 51.0271 114.074V116.832C51.0271 116.93 51.0131 117 50.4531 117H50.3691ZM60.5049 117.14C58.4609 117.14 57.5089 115.446 57.5089 113.43C57.5089 111.036 58.8809 109.468 60.7289 109.468C61.5689 109.468 62.2269 109.86 62.6189 110.364L62.6889 109.776C62.7029 109.608 62.7729 109.608 63.1929 109.608H63.2209C63.7529 109.608 63.7669 109.664 63.7669 109.776C63.7669 110.112 63.7389 111.008 63.7389 111.904V113.864C63.7389 115.152 63.7949 116.062 63.8369 116.832C63.8369 116.944 63.7669 117 63.3329 117H63.2769C62.8429 117 62.7589 116.958 62.7449 116.832L62.6609 116.188C62.2129 116.734 61.4149 117.14 60.5049 117.14ZM60.7289 116.02C61.1909 116.02 61.7509 115.88 62.1289 115.474C62.4229 115.152 62.4789 114.76 62.4789 113.542V111.554C62.1569 111.05 61.5269 110.602 60.8689 110.602C59.5809 110.602 58.8249 111.68 58.8249 113.36C58.8249 114.676 59.2869 116.02 60.7289 116.02ZM72.3823 117.14C70.1143 117.14 68.9523 115.726 68.9523 113.472C68.9523 111.12 70.2403 109.468 72.3123 109.468C73.5583 109.468 74.4123 110.084 74.8743 111.008C75.1963 111.652 75.3363 112.422 75.3363 113.248C75.3363 113.668 75.3083 113.752 75.1963 113.752H70.2683C70.3103 114.522 70.5343 115.124 70.9683 115.488C71.3463 115.824 71.8923 115.992 72.6203 115.992C73.2083 115.992 73.7963 115.852 74.4683 115.544C74.5943 115.488 74.6783 115.46 74.8183 115.81L74.8883 115.978C75.0423 116.342 75.0283 116.426 74.9163 116.496C74.2023 116.916 73.3203 117.14 72.3823 117.14ZM70.3103 112.716H74.0483C74.0343 111.666 73.5023 110.616 72.3263 110.616C71.3043 110.616 70.5063 111.274 70.3103 112.716ZM77.6315 117C77.0715 117 77.0295 116.944 77.0295 116.832V112.058C77.0295 111.106 77.0015 110.126 77.0015 109.776C77.0015 109.664 77.0435 109.608 77.5755 109.608H77.6455C78.1495 109.608 78.2195 109.65 78.2195 109.776L78.2335 110.406H78.2475C78.7375 109.832 79.6615 109.468 80.5295 109.468C81.2995 109.468 81.9855 109.734 82.4475 110.21C82.9515 110.728 83.1615 111.456 83.1615 112.59V116.832C83.1615 116.93 83.1475 117 82.5875 117H82.5035C81.9435 117 81.9015 116.944 81.9015 116.832V113.178C81.9015 112.044 81.8595 111.512 81.5235 111.12C81.2575 110.798 80.8095 110.658 80.1935 110.658C79.6755 110.658 79.0455 110.84 78.7095 111.162C78.5415 111.316 78.3875 111.554 78.3315 112.156C78.3035 112.548 78.2895 113.262 78.2895 114.074V116.832C78.2895 116.93 78.2755 117 77.7155 117H77.6315ZM87.3759 117.14C86.7459 117.14 86.2839 116.972 85.9759 116.678C85.5699 116.3 85.4439 115.768 85.4439 114.83V110.602H84.2259C84.1419 110.602 84.1139 110.532 84.1139 110.28V110.196C84.1139 109.972 84.1419 109.888 84.2399 109.86C85.4579 109.51 85.6819 108.95 85.8219 107.648C85.8359 107.564 85.9059 107.536 86.2139 107.536H86.3119C86.6339 107.536 86.7039 107.578 86.7039 107.662V109.608H88.4679C88.5659 109.608 88.5939 109.678 88.5939 110.042V110.154C88.5939 110.532 88.5659 110.602 88.4679 110.602H86.7039V114.732C86.7039 115.264 86.7459 115.614 86.9279 115.81C87.0819 115.978 87.3199 116.062 87.6419 116.062C87.9639 116.062 88.3139 115.964 88.5939 115.88C88.7339 115.838 88.7759 115.894 88.8459 116.16L88.8879 116.342C88.9579 116.636 88.9579 116.72 88.8459 116.79C88.4959 117.014 87.8939 117.14 87.3759 117.14ZM90.9202 117C90.3602 117 90.3182 116.944 90.3182 116.832V112.058C90.3182 111.106 90.2902 110.126 90.2902 109.776C90.2902 109.664 90.3322 109.608 90.8642 109.608H90.9342C91.4382 109.608 91.5082 109.65 91.5082 109.776L91.5362 111.218C92.0682 110.042 92.8382 109.524 93.5802 109.524C93.7062 109.524 93.8042 109.538 93.8742 109.552C94.0002 109.58 94.0142 109.622 94.0142 109.944V110.154C94.0142 110.56 94.0002 110.672 93.8602 110.672C92.8662 110.672 92.3622 111.288 91.9562 111.946C91.7602 112.268 91.6482 112.66 91.6202 113.15C91.5922 113.542 91.5782 114.41 91.5782 115.222V116.832C91.5782 116.93 91.5642 117 91.0042 117H90.9202ZM98.1127 117.14C95.8447 117.14 94.6827 115.726 94.6827 113.472C94.6827 111.12 95.9707 109.468 98.0427 109.468C99.2887 109.468 100.143 110.084 100.605 111.008C100.927 111.652 101.067 112.422 101.067 113.248C101.067 113.668 101.039 113.752 100.927 113.752H95.9987C96.0407 114.522 96.2647 115.124 96.6987 115.488C97.0767 115.824 97.6227 115.992 98.3507 115.992C98.9387 115.992 99.5267 115.852 100.199 115.544C100.325 115.488 100.409 115.46 100.549 115.81L100.619 115.978C100.773 116.342 100.759 116.426 100.647 116.496C99.9327 116.916 99.0507 117.14 98.1127 117.14ZM96.0407 112.716H99.7787C99.7647 111.666 99.2327 110.616 98.0567 110.616C97.0347 110.616 96.2367 111.274 96.0407 112.716ZM103.404 111.918C102.886 111.918 102.466 111.498 102.466 110.98C102.466 110.462 102.886 110.042 103.404 110.042C103.922 110.042 104.342 110.462 104.342 110.98C104.342 111.498 103.922 111.918 103.404 111.918ZM103.404 117.14C102.886 117.14 102.466 116.72 102.466 116.202C102.466 115.684 102.886 115.264 103.404 115.264C103.922 115.264 104.342 115.684 104.342 116.202C104.342 116.72 103.922 117.14 103.404 117.14Z" fill="white"/>
<circle cx="28" cy="137" r="12" fill="#1A98FF"/>
<g clip-path="url(#clip1_2818_1346)">
<path d="M21.6829 135.414C21.8099 135.107 22.0216 134.922 22.3602 134.905C22.7329 134.887 22.9624 135.081 23.101 135.418C23.1407 135.322 23.186 135.238 23.2502 135.166C23.4281 134.966 23.6545 134.89 23.9149 134.908C24.1139 134.922 24.2862 135 24.4241 135.148C24.5441 135.277 24.589 135.436 24.6048 135.606C24.6164 135.73 24.6122 135.854 24.6118 135.978C24.6111 136.248 24.6118 136.519 24.6118 136.79C24.6111 137.135 24.6094 137.48 24.6083 137.825C24.6083 137.902 24.5708 137.94 24.495 137.94C24.3237 137.94 24.1525 137.94 23.9815 137.94C23.9078 137.94 23.8692 137.902 23.8692 137.828C23.8692 137.3 23.8682 136.771 23.8696 136.243C23.8696 136.12 23.8752 135.997 23.857 135.876C23.8212 135.637 23.5955 135.528 23.3825 135.644C23.2593 135.71 23.2032 135.821 23.1832 135.954C23.1712 136.034 23.1653 136.114 23.1653 136.194C23.1653 136.733 23.1653 137.271 23.1653 137.81C23.1653 137.904 23.1291 137.94 23.0361 137.94C22.8705 137.94 22.7048 137.94 22.5395 137.94C22.4616 137.94 22.4234 137.902 22.4234 137.823C22.4234 137.259 22.4244 136.695 22.4244 136.131C22.4244 136.031 22.4188 135.931 22.3914 135.834C22.3486 135.683 22.2588 135.607 22.116 135.598C21.958 135.588 21.8433 135.656 21.7833 135.797C21.7278 135.926 21.7197 136.065 21.7194 136.203C21.7176 136.738 21.7187 137.274 21.7187 137.81C21.7187 137.906 21.685 137.94 21.5906 137.94C21.425 137.94 21.2593 137.94 21.094 137.94C21.0158 137.94 20.9768 137.902 20.9768 137.824C20.9768 136.909 20.9768 135.994 20.9768 135.079C20.9768 135.002 21.0161 134.963 21.0937 134.963C21.2523 134.963 21.4109 134.963 21.5692 134.963C21.6436 134.963 21.6836 135.004 21.6836 135.078C21.6836 135.19 21.6836 135.302 21.6836 135.414L21.6829 135.414Z" fill="white"/>
<path d="M27.4293 136.377C27.4293 136.593 27.4307 136.763 27.4289 136.934C27.4275 137.075 27.4686 137.202 27.55 137.317C27.5777 137.356 27.6075 137.394 27.6339 137.434C27.6763 137.498 27.6686 137.542 27.6103 137.591C27.4826 137.701 27.3552 137.811 27.2278 137.922C27.1685 137.973 27.1159 137.973 27.0555 137.922C26.9527 137.835 26.8692 137.731 26.7969 137.618C26.78 137.592 26.7709 137.591 26.7491 137.613C26.6203 137.742 26.4828 137.861 26.3059 137.918C26.0781 137.993 25.8462 138.006 25.6146 137.94C25.3756 137.872 25.2103 137.717 25.1331 137.479C25.0401 137.193 25.0531 136.91 25.2008 136.642C25.3338 136.402 25.5496 136.267 25.8055 136.19C26.0174 136.127 26.2361 136.103 26.4547 136.08C26.5161 136.074 26.5772 136.067 26.6389 136.062C26.66 136.06 26.6684 136.051 26.6688 136.03C26.6705 135.92 26.6719 135.811 26.6474 135.703C26.626 135.608 26.5698 135.542 26.4849 135.499C26.328 135.419 26.1013 135.453 25.9753 135.576C25.9227 135.627 25.8872 135.688 25.8728 135.761C25.8679 135.786 25.8613 135.811 25.8465 135.832C25.8237 135.865 25.796 135.884 25.7514 135.879C25.5872 135.86 25.4226 135.843 25.2583 135.826C25.1917 135.818 25.1555 135.768 25.1696 135.699C25.2331 135.384 25.4075 135.154 25.6977 135.017C25.9553 134.895 26.229 134.863 26.5101 134.885C26.6849 134.899 26.8527 134.94 27.0095 135.021C27.2566 135.15 27.3871 135.357 27.4152 135.632C27.4419 135.895 27.4229 136.159 27.4289 136.377L27.4293 136.377ZM26.6677 136.703C26.6677 136.631 26.6663 136.579 26.6684 136.527C26.6691 136.502 26.6625 136.493 26.6358 136.494C26.5024 136.497 26.3698 136.507 26.2413 136.546C26.0715 136.599 25.9395 136.694 25.8886 136.875C25.863 136.966 25.8592 137.059 25.8778 137.151C25.9286 137.407 26.1778 137.512 26.3975 137.37C26.493 137.309 26.5551 137.22 26.6003 137.118C26.6618 136.979 26.6691 136.832 26.6677 136.703Z" fill="white"/>
<path d="M20.3525 136.311C20.3525 136.539 20.3542 136.725 20.3521 136.912C20.3504 137.071 20.3956 137.214 20.4918 137.34C20.5164 137.373 20.5416 137.405 20.5634 137.44C20.6006 137.499 20.5925 137.542 20.5395 137.588C20.4121 137.698 20.2848 137.808 20.157 137.919C20.0928 137.975 20.0433 137.976 19.978 137.92C19.878 137.834 19.7952 137.734 19.7247 137.622C19.7071 137.595 19.6973 137.589 19.6713 137.615C19.5888 137.7 19.4993 137.777 19.3983 137.839C19.2 137.962 18.9807 137.986 18.755 137.977C18.6518 137.974 18.5518 137.953 18.4567 137.912C18.2658 137.831 18.1321 137.692 18.0633 137.496C17.9756 137.245 17.977 136.992 18.0759 136.744C18.1833 136.476 18.3897 136.312 18.655 136.216C18.8396 136.149 19.0319 136.12 19.2256 136.098C19.3369 136.084 19.4485 136.074 19.5601 136.062C19.5787 136.06 19.5948 136.059 19.5952 136.032C19.5969 135.927 19.5962 135.824 19.5769 135.72C19.5562 135.61 19.4927 135.535 19.3923 135.491C19.2214 135.414 18.9901 135.466 18.8726 135.606C18.8319 135.655 18.8076 135.71 18.7947 135.772C18.7768 135.857 18.741 135.885 18.6567 135.876C18.4978 135.86 18.3391 135.843 18.1802 135.825C18.1191 135.818 18.083 135.77 18.0945 135.708C18.1563 135.378 18.3388 135.138 18.6466 135.007C19.0407 134.84 19.445 134.827 19.8464 134.981C20.1574 135.1 20.3198 135.336 20.3448 135.669C20.3616 135.897 20.3469 136.125 20.3525 136.311V136.311ZM19.5938 136.673C19.5938 136.625 19.5923 136.577 19.5945 136.529C19.5959 136.501 19.5867 136.493 19.559 136.494C19.4481 136.497 19.3379 136.505 19.2295 136.529C19.1189 136.555 19.014 136.595 18.9315 136.676C18.8003 136.805 18.7747 136.968 18.8031 137.141C18.8463 137.405 19.1003 137.515 19.3249 137.368C19.4435 137.291 19.5109 137.176 19.5534 137.044C19.592 136.923 19.5952 136.798 19.5941 136.672L19.5938 136.673Z" fill="white"/>
<path d="M33.9308 135.468C33.9557 135.415 33.9757 135.37 33.9985 135.325C34.0775 135.172 34.1803 135.04 34.3424 134.969C34.5986 134.855 35.0075 134.879 35.231 135.138C35.3381 135.262 35.3875 135.409 35.4132 135.566C35.4384 135.721 35.4412 135.878 35.4416 136.034C35.4423 136.627 35.4419 137.221 35.4416 137.814C35.4416 137.906 35.4072 137.94 35.3138 137.94C35.1482 137.94 34.9829 137.94 34.8173 137.94C34.7362 137.94 34.6986 137.902 34.6986 137.822C34.6986 137.258 34.6986 136.694 34.6986 136.13C34.6986 136.027 34.6864 135.926 34.6597 135.825C34.5804 135.528 34.2758 135.547 34.1347 135.695C34.0491 135.785 34.0147 135.896 33.9908 136.013C33.969 136.119 33.9648 136.228 33.9648 136.336C33.9648 136.83 33.9648 137.323 33.9648 137.816C33.9648 137.904 33.9297 137.94 33.8431 137.94C33.6746 137.94 33.5065 137.94 33.3381 137.94C33.2626 137.94 33.224 137.901 33.224 137.826C33.224 136.91 33.224 135.994 33.224 135.078C33.224 135.003 33.2626 134.963 33.3374 134.963C33.4946 134.963 33.6514 134.963 33.8087 134.963C33.8894 134.963 33.9238 134.998 33.9238 135.078C33.9238 135.201 33.9238 135.326 33.9241 135.45C33.9241 135.452 33.9255 135.454 33.9297 135.468L33.9308 135.468Z" fill="white"/>
<path d="M32.8219 136.552C32.8212 136.799 32.7595 137.114 32.5924 137.401C32.418 137.7 32.1695 137.905 31.8249 137.975C31.2978 138.083 30.8174 137.848 30.5731 137.367C30.4527 137.129 30.3952 136.877 30.3776 136.612C30.358 136.317 30.3846 136.028 30.4812 135.747C30.5745 135.475 30.7244 135.243 30.9676 135.082C31.1869 134.937 31.4311 134.887 31.6894 134.91C32.2109 134.956 32.5257 135.263 32.7022 135.737C32.7903 135.973 32.8219 136.219 32.8223 136.552H32.8219ZM32.0235 136.472C32.0232 136.328 32.0207 136.185 32.0032 136.042C31.9881 135.919 31.9663 135.797 31.9197 135.681C31.8151 135.421 31.4501 135.419 31.3192 135.61C31.249 135.713 31.2122 135.827 31.1967 135.948C31.1543 136.278 31.1574 136.608 31.2048 136.937C31.2223 137.06 31.2557 137.18 31.3287 137.284C31.4452 137.45 31.6733 137.472 31.8217 137.334C31.8951 137.266 31.9344 137.177 31.9621 137.083C32.0207 136.883 32.0221 136.677 32.0235 136.472Z" fill="white"/>
<path d="M25.1949 140.16C23.9649 140.156 22.9244 139.911 21.9456 139.41C21.4259 139.144 20.9493 138.813 20.5152 138.422C20.4976 138.406 20.479 138.39 20.4681 138.368C20.4523 138.337 20.4499 138.305 20.4727 138.277C20.4948 138.249 20.5253 138.242 20.5597 138.249C20.5804 138.254 20.599 138.264 20.6173 138.274C21.4494 138.757 22.3379 139.089 23.2774 139.287C23.6631 139.369 24.0523 139.425 24.445 139.457C24.7401 139.481 25.0356 139.493 25.3314 139.487C25.6722 139.48 26.0112 139.453 26.3492 139.406C27.0289 139.313 27.6905 139.147 28.333 138.905C28.4457 138.863 28.5569 138.816 28.6685 138.771C28.7201 138.75 28.771 138.744 28.8229 138.769C28.8991 138.807 28.9205 138.892 28.8703 138.961C28.8528 138.985 28.83 139.004 28.8061 139.021C28.3544 139.351 27.8572 139.591 27.3315 139.774C26.8731 139.933 26.4029 140.042 25.9224 140.104C25.6371 140.141 25.3508 140.163 25.1949 140.16V140.16Z" fill="white"/>
<path d="M29.1024 135.557C28.8034 135.557 28.5075 135.557 28.2113 135.557C28.1145 135.557 28.0822 135.525 28.0822 135.428C28.0822 135.31 28.0822 135.191 28.0822 135.073C28.0822 134.994 28.1194 134.956 28.198 134.956C28.7802 134.956 29.3624 134.956 29.9446 134.956C30.0236 134.956 30.0601 134.993 30.0604 135.073C30.0604 135.166 30.0576 135.259 30.0615 135.352C30.0639 135.417 30.0471 135.474 30.0109 135.526C29.925 135.652 29.839 135.777 29.7523 135.902C29.5144 136.243 29.2761 136.584 29.0381 136.926C29.0304 136.937 29.0188 136.946 29.0181 136.968C29.0771 136.968 29.1353 136.966 29.1936 136.968C29.4796 136.981 29.754 137.039 30.0088 137.178C30.079 137.216 30.1138 137.274 30.1148 137.352C30.1162 137.487 30.1162 137.622 30.1148 137.757C30.1138 137.846 30.0439 137.889 29.9685 137.85C29.706 137.716 29.4273 137.645 29.1332 137.632C28.7756 137.617 28.4373 137.69 28.1194 137.855C28.058 137.888 27.9839 137.848 27.9832 137.776C27.9818 137.606 27.9744 137.435 27.9874 137.265C27.9927 137.195 28.0183 137.131 28.0583 137.073C28.3991 136.582 28.7398 136.091 29.0802 135.6C29.0887 135.587 29.1017 135.578 29.1024 135.556V135.557Z" fill="white"/>
<path d="M34.356 139.814C34.356 139.579 34.356 139.343 34.356 139.108C34.356 139.017 34.371 139.001 34.4602 139.001C34.5248 139.001 34.5893 139.001 34.6539 139.001C34.7195 139.001 34.7399 139.017 34.7585 139.082C34.7799 139.155 34.7802 139.156 34.8441 139.116C35.0199 139.007 35.207 138.94 35.4172 138.956C35.5537 138.966 35.6709 139.014 35.7495 139.133C35.7671 139.16 35.7797 139.147 35.7966 139.136C35.9204 139.057 36.051 138.994 36.1973 138.969C36.3159 138.948 36.4346 138.943 36.5511 138.981C36.7094 139.032 36.815 139.171 36.828 139.343C36.8315 139.39 36.8329 139.436 36.8332 139.483C36.8336 139.831 36.8332 140.179 36.8332 140.527C36.8332 140.544 36.8322 140.561 36.8301 140.578C36.8259 140.613 36.8055 140.631 36.7711 140.631C36.6574 140.632 36.5437 140.632 36.4304 140.631C36.3963 140.631 36.3756 140.612 36.3696 140.579C36.3672 140.563 36.3665 140.548 36.3665 140.532C36.3665 140.205 36.3665 139.878 36.3665 139.551C36.3665 139.536 36.3665 139.52 36.3658 139.505C36.3602 139.374 36.2914 139.309 36.1612 139.313C36.058 139.316 35.959 139.34 35.8636 139.38C35.8359 139.391 35.8271 139.406 35.8271 139.436C35.8281 139.802 35.8278 140.169 35.8278 140.535C35.8278 140.621 35.8166 140.631 35.7302 140.631C35.6376 140.631 35.5449 140.631 35.4523 140.631C35.3821 140.631 35.3632 140.612 35.3632 140.541C35.3632 140.272 35.3632 140.002 35.3632 139.733C35.3632 139.661 35.3635 139.589 35.3632 139.517C35.3621 139.376 35.2859 139.304 35.1456 139.312C35.047 139.318 34.9522 139.341 34.861 139.38C34.8322 139.392 34.8224 139.408 34.8227 139.44C34.8238 139.805 34.8234 140.17 34.8234 140.535C34.8234 140.616 34.8087 140.631 34.729 140.631C34.6335 140.631 34.5381 140.631 34.443 140.631C34.3781 140.631 34.3577 140.612 34.3574 140.545C34.3567 140.41 34.3574 140.275 34.3574 140.14C34.3574 140.031 34.3574 139.923 34.3574 139.814L34.356 139.814Z" fill="white"/>
<path d="M30.8033 140.523C30.7924 140.539 30.7973 140.555 30.7973 140.569C30.797 140.777 30.7973 140.984 30.7973 141.191C30.7973 141.276 30.7829 141.29 30.7005 141.29C30.605 141.29 30.5095 141.29 30.4144 141.29C30.352 141.29 30.3306 141.269 30.3306 141.206C30.3306 140.499 30.3306 139.792 30.3306 139.084C30.3306 139.024 30.3523 139.002 30.4116 139.001C30.486 139 30.5604 139.001 30.6345 139.001C30.692 139.002 30.7162 139.021 30.7313 139.076C30.738 139.1 30.7443 139.124 30.7517 139.151C30.8668 139.049 30.9963 138.986 31.144 138.963C31.4641 138.912 31.7319 139.056 31.8466 139.361C31.9656 139.677 31.9617 139.997 31.8108 140.303C31.5946 140.742 31.123 140.739 30.8408 140.549C30.8285 140.541 30.8163 140.532 30.8033 140.523V140.523ZM30.797 139.81C30.797 139.935 30.7984 140.061 30.7959 140.186C30.7952 140.222 30.8082 140.239 30.838 140.254C30.9187 140.293 31.004 140.314 31.0932 140.316C31.2732 140.32 31.3809 140.237 31.4237 140.061C31.463 139.898 31.4623 139.734 31.4269 139.571C31.3922 139.411 31.3041 139.326 31.1718 139.311C31.0514 139.298 30.9377 139.319 30.8296 139.374C30.8047 139.386 30.7959 139.401 30.7963 139.429C30.7977 139.556 30.797 139.683 30.797 139.81V139.81Z" fill="white"/>
<path d="M37.9324 138.955C38.0615 138.953 38.1864 138.973 38.3026 139.034C38.622 139.2 38.6153 139.613 38.4616 139.777C38.3802 139.863 38.2784 139.91 38.1661 139.935C37.971 139.979 37.7741 139.98 37.5779 139.941C37.5428 139.934 37.5404 139.945 37.5442 139.973C37.5734 140.197 37.7022 140.314 37.9289 140.327C38.0861 140.335 38.2391 140.313 38.39 140.272C38.4023 140.269 38.4146 140.265 38.4268 140.264C38.4665 140.258 38.4921 140.274 38.4935 140.314C38.496 140.382 38.4956 140.452 38.4932 140.521C38.4918 140.56 38.4623 140.578 38.4293 140.591C38.3321 140.629 38.2321 140.655 38.1289 140.669C37.9706 140.69 37.813 140.69 37.6572 140.649C37.3831 140.578 37.2122 140.401 37.1484 140.126C37.0894 139.872 37.0971 139.619 37.2077 139.378C37.32 139.134 37.5179 139.001 37.7815 138.964C37.8316 138.956 37.8818 138.954 37.9324 138.954V138.955ZM37.7881 139.676C37.8467 139.675 37.906 139.681 37.9636 139.666C38.0205 139.651 38.0766 139.635 38.1082 139.578C38.1745 139.457 38.1222 139.328 37.991 139.291C37.8162 139.241 37.6551 139.319 37.5874 139.487C37.5695 139.531 37.5614 139.579 37.5491 139.625C37.5428 139.65 37.5477 139.653 37.5688 139.657C37.6411 139.673 37.7148 139.675 37.7881 139.676V139.676Z" fill="white"/>
<path d="M28.8155 138.428C28.539 138.43 28.3038 138.458 28.0684 138.485C28.0547 138.486 28.0403 138.488 28.0266 138.486C27.981 138.479 27.9631 138.444 27.9834 138.402C27.9978 138.372 28.0241 138.353 28.0512 138.334C28.214 138.225 28.3937 138.156 28.5846 138.115C28.8759 138.053 29.1678 138.045 29.4609 138.102C29.5132 138.112 29.5637 138.129 29.6132 138.149C29.6718 138.173 29.6992 138.216 29.7062 138.277C29.7251 138.436 29.6988 138.589 29.6634 138.742C29.5956 139.033 29.4812 139.303 29.2987 139.542C29.2447 139.612 29.184 139.677 29.1173 139.735C29.0973 139.753 29.0759 139.768 29.0499 139.777C29.0257 139.785 29.0022 139.787 28.9829 139.769C28.9636 139.75 28.9618 139.726 28.9706 139.702C28.9836 139.667 28.9969 139.631 29.0106 139.596C29.1061 139.351 29.2008 139.105 29.2542 138.847C29.2679 138.78 29.278 138.714 29.2759 138.645C29.2731 138.542 29.2349 138.493 29.1345 138.463C29.0173 138.428 28.8966 138.43 28.8152 138.428L28.8155 138.428Z" fill="white"/>
<path d="M32.6713 139.24C32.7205 139.188 32.7675 139.144 32.8177 139.104C32.9321 139.013 33.0626 138.976 33.2069 138.986C33.2581 138.99 33.2753 139.004 33.2764 139.057C33.2785 139.152 33.2785 139.248 33.2764 139.344C33.2753 139.397 33.2556 139.415 33.2027 139.413C33.0791 139.407 32.9563 139.406 32.8352 139.438C32.8015 139.447 32.7682 139.458 32.7341 139.467C32.704 139.474 32.6966 139.492 32.6966 139.522C32.6977 139.853 32.6973 140.184 32.6973 140.515C32.6973 140.623 32.6896 140.631 32.5839 140.631C32.4941 140.631 32.4043 140.631 32.3144 140.631C32.253 140.631 32.2316 140.61 32.2309 140.547C32.2302 140.451 32.2309 140.356 32.2309 140.26C32.2309 139.875 32.2309 139.49 32.2309 139.105C32.2309 139.016 32.2449 139.003 32.3337 139.003C32.4011 139.003 32.4685 139.003 32.5359 139.003C32.5962 139.003 32.619 139.021 32.6334 139.08C32.6461 139.131 32.658 139.183 32.6717 139.24H32.6713Z" fill="white"/>
<path d="M33.9655 139.82C33.9655 140.061 33.9655 140.302 33.9655 140.543C33.9655 140.616 33.9497 140.632 33.8764 140.632C33.7795 140.632 33.6827 140.632 33.5862 140.632C33.5209 140.632 33.5016 140.613 33.5016 140.546C33.5016 140.286 33.5016 140.027 33.5016 139.768C33.5016 139.544 33.5016 139.32 33.5016 139.095C33.5016 139.019 33.5167 139.003 33.5921 139.003C33.6904 139.003 33.7887 139.003 33.8866 139.003C33.9487 139.003 33.9659 139.021 33.9659 139.084C33.9659 139.329 33.9659 139.575 33.9659 139.82L33.9655 139.82Z" fill="white"/>
<path d="M33.4674 138.502C33.4674 138.347 33.5664 138.253 33.732 138.252C33.8987 138.252 34.0008 138.347 34.0001 138.504C33.9998 138.656 33.8966 138.752 33.7324 138.752C33.5685 138.752 33.4674 138.656 33.4674 138.502V138.502Z" fill="white"/>
</g>
<rect x="44" y="125" width="24" height="24" rx="12" fill="white"/>
<path d="M50.2964 143.699H51.0057C51.1583 143.699 51.2937 143.728 51.4119 143.788C51.532 143.847 51.6255 143.93 51.6922 144.036C51.7589 144.141 51.7923 144.261 51.7923 144.397C51.7923 144.532 51.7589 144.652 51.6922 144.757C51.6255 144.862 51.532 144.944 51.4119 145.003C51.2937 145.062 51.1583 145.092 51.0057 145.092H50.7369V145.901H50.2964V143.699ZM50.9886 144.757C51.1049 144.757 51.1945 144.727 51.2575 144.666C51.3204 144.605 51.3518 144.518 51.3518 144.405C51.3518 144.293 51.3204 144.206 51.2575 144.145C51.1945 144.084 51.1049 144.054 50.9886 144.054H50.7369V144.757H50.9886Z" fill="black"/>
<path d="M51.9818 143.699H52.6883C52.837 143.699 52.9705 143.726 53.0888 143.779C53.207 143.832 53.2995 143.907 53.3662 144.002C53.4349 144.095 53.4692 144.201 53.4692 144.32C53.4692 144.468 53.4177 144.594 53.3147 144.697C53.2117 144.8 53.0735 144.866 52.9 144.894C53.1326 145.211 53.3338 145.547 53.5035 145.901H52.9972C52.8313 145.531 52.6397 145.213 52.4223 144.946V145.901H51.9818V143.699ZM52.674 144.703C52.7865 144.703 52.8742 144.674 52.9372 144.617C53.0001 144.56 53.0315 144.479 53.0315 144.374C53.0315 144.271 53.0001 144.191 52.9372 144.134C52.8742 144.076 52.7865 144.048 52.674 144.048H52.4223V144.703H52.674Z" fill="black"/>
<path d="M54.8971 143.699V144.065H54.122V144.614H54.8428V144.969H54.122V145.535H54.8971V145.901H53.6815V143.699H54.8971Z" fill="black"/>
<path d="M55.6794 143.699C55.8491 144.229 55.9883 144.719 56.097 145.169C56.2095 144.71 56.3497 144.219 56.5175 143.699H57.0724V145.901H56.6691V144.311C56.5051 144.833 56.3592 145.364 56.2315 145.901H55.9626C55.8444 145.394 55.7004 144.87 55.5307 144.328V145.901H55.1245V143.699H55.6794Z" fill="black"/>
<path d="M57.7703 143.699V145.901H57.3298V143.699H57.7703Z" fill="black"/>
<path d="M58.4584 143.699V145.158C58.4584 145.282 58.4851 145.381 58.5385 145.455C58.5938 145.528 58.6663 145.564 58.7559 145.564C58.8455 145.564 58.917 145.528 58.9704 145.455C59.0238 145.381 59.0505 145.282 59.0505 145.158V143.699H59.491V145.115C59.491 145.273 59.4595 145.414 59.3966 145.538C59.3356 145.662 59.2488 145.759 59.1363 145.83C59.0257 145.898 58.8989 145.933 58.7559 145.933C58.611 145.933 58.4823 145.898 58.3698 145.83C58.2592 145.759 58.1724 145.662 58.1095 145.538C58.0485 145.414 58.0179 145.273 58.0179 145.115V143.699H58.4584Z" fill="black"/>
<path d="M60.2923 143.699C60.462 144.229 60.6012 144.719 60.7099 145.169C60.8224 144.71 60.9626 144.219 61.1304 143.699H61.6853V145.901H61.282V144.311C61.118 144.833 60.9721 145.364 60.8444 145.901H60.5755C60.4573 145.394 60.3133 144.87 60.1436 144.328V145.901H59.7374V143.699H60.2923Z" fill="black"/>
<path d="M60.4404 128.77C60.2626 128.77 60.1024 129.169 59.9931 129.803C59.816 128.71 59.5278 128 59.2037 128C58.8178 128 58.4836 129.004 58.3258 130.463C58.1704 129.401 57.9356 128.725 57.6734 128.725C57.305 128.725 56.9917 130.055 56.8756 131.912C56.6576 130.96 56.3418 130.363 55.9918 130.363C55.6418 130.363 55.3261 130.96 55.108 131.912C54.9919 130.055 54.6787 128.725 54.3103 128.725C54.0472 128.725 53.8125 129.401 53.6579 130.463C53.4992 129.004 53.1651 128 52.7791 128C52.4542 128 52.1668 128.71 51.9898 129.803C51.8795 129.169 51.7199 128.77 51.542 128.77C51.2104 128.77 50.9414 130.153 50.9414 131.859C50.9414 133.565 51.2104 134.948 51.542 134.948C51.6782 134.948 51.8043 134.714 51.9045 134.32C52.0641 135.76 52.3957 136.75 52.7791 136.75C53.0765 136.75 53.3422 136.156 53.5209 135.218C53.6437 137.002 53.9503 138.267 54.3095 138.267C54.5359 138.267 54.7413 137.766 54.8925 136.949C55.0746 138.635 55.4981 139.816 55.991 139.816C56.4838 139.816 56.9065 138.635 57.0895 136.949C57.2415 137.766 57.447 138.267 57.6725 138.267C58.0317 138.267 58.3391 137.002 58.4611 135.218C58.6398 136.156 58.9063 136.75 59.2029 136.75C59.5863 136.75 59.9179 135.76 60.0774 134.32C60.1785 134.713 60.3038 134.948 60.44 134.948C60.7716 134.948 61.0406 133.565 61.0406 131.859C61.0406 130.153 60.7718 128.771 60.4404 128.77Z" fill="#A238FF"/>
<path d="M50.4236 132.937C50.6119 132.937 50.7645 132.318 50.7645 131.555C50.7645 130.793 50.6119 130.174 50.4236 130.174C50.2354 130.174 50.0828 130.793 50.0828 131.555C50.0828 132.318 50.2354 132.937 50.4236 132.937Z" fill="#A238FF"/>
<path d="M61.8989 131.555C61.8989 132.318 61.7462 132.937 61.558 132.937C61.3698 132.937 61.2172 132.318 61.2172 131.555C61.2172 130.793 61.3698 130.174 61.558 130.174C61.7462 130.174 61.8989 130.793 61.8989 131.555Z" fill="#A238FF"/>
<path fill-rule="evenodd" clip-rule="evenodd" d="M49.4995 141.01H50.6194C51.3127 141.01 51.803 141.471 51.803 142.127C51.803 142.783 51.3127 143.244 50.6194 143.244H49.4995V141.01ZM50.3699 142.64H50.5729C50.7905 142.64 50.9066 142.495 50.9066 142.127C50.9066 141.758 50.7905 141.613 50.5729 141.613H50.3699V142.64Z" fill="black"/>
<path d="M53.7758 143.244H51.9365V141.01H53.7758V141.613H52.804V141.872H53.7178V142.365H52.804V142.64H53.7758V143.244Z" fill="black"/>
<path d="M55.8239 143.244H53.9846V141.01H55.8239V141.613H54.8521V141.872H55.7659V142.365H54.8521V142.64H55.8239V143.244Z" fill="black"/>
<path fill-rule="evenodd" clip-rule="evenodd" d="M62.4998 143.244C62.3745 142.902 62.1991 142.538 61.9633 142.129C62.2391 142.048 62.4041 141.874 62.4041 141.608C62.4041 141.201 62.0298 141.01 61.438 141.01H60.2195V143.244H61.0898V142.32C61.2832 142.645 61.4257 142.953 61.5192 143.244H62.4998ZM61.0898 142.008V141.613H61.3915C61.5192 141.613 61.5917 141.683 61.5917 141.811C61.5917 141.938 61.5192 142.008 61.3915 142.008H61.0898Z" fill="black"/>
<path d="M60.0102 143.244H58.1709V141.01H60.0102V141.613H59.0384V141.872H59.9522V142.365H59.0384V142.64H60.0102V143.244Z" fill="black"/>
<path d="M56.033 141.613H56.9311C56.5585 141.918 56.2518 142.264 56.0156 142.64V143.244H57.9913V142.64H57.0038C57.2301 142.311 57.5463 141.983 57.9913 141.613V141.01H56.033V141.613Z" fill="black"/>
<g clip-path="url(#clip2_2818_1346)">
<path d="M84 148.625C90.4203 148.625 95.625 143.42 95.625 137C95.625 130.58 90.4203 125.375 84 125.375C77.5797 125.375 72.375 130.58 72.375 137C72.375 143.42 77.5797 148.625 84 148.625Z" fill="url(#paint0_linear_2818_1346)"/>
<path d="M78.8372 134.059C78.7957 134.103 78.738 134.124 78.6965 134.095C78.6639 134.074 78.6501 134.023 78.6928 133.975C79.1159 133.495 79.5981 133.075 80.0841 132.747C83.0514 130.723 87.3095 130.998 89.9378 133.474C90.8143 134.298 91.4183 135.311 91.7297 136.234C91.7485 136.291 91.7071 136.35 91.6468 136.35H91.3592C91.3065 136.35 91.2588 136.316 91.2412 136.264C91.0039 135.568 90.5506 134.683 89.7281 133.858C87.2241 131.335 82.9434 131.045 80.0288 133.037C79.5843 133.341 79.1938 133.675 78.8372 134.059Z" fill="white"/>
<path fill-rule="evenodd" clip-rule="evenodd" d="M77.6871 135.308C77.132 135.151 76.2442 134.943 75.2736 135.202C75.0927 135.249 74.9709 135.33 74.8843 135.48C74.8416 135.556 74.8014 135.637 74.824 135.72C74.8429 135.791 74.9433 135.816 75.0249 135.828C75.1028 135.841 75.2798 135.85 75.3276 135.793C75.3527 135.763 75.3527 135.68 75.2233 135.652C75.2079 135.649 75.1836 135.646 75.1577 135.643C75.1036 135.637 75.0418 135.63 75.035 135.616C75.035 135.616 75.04 135.601 75.1103 135.578C75.1121 135.578 75.1145 135.577 75.1176 135.576C75.1694 135.558 75.41 135.474 76.0056 135.494C76.7578 135.518 77.4146 135.695 78.1102 135.968C78.7896 136.235 79.5543 136.72 80.0026 137.296C80.1721 137.515 80.3831 137.873 80.4107 138.174C80.4773 138.907 79.7615 139.525 78.3086 139.476C78.06 139.467 77.7586 139.408 77.7586 139.408L77.7285 137.993C77.7285 137.993 78.3438 137.988 79.0231 138.212C79.0809 138.23 79.1387 138.268 79.1449 138.325C79.1487 138.367 79.1148 138.405 79.0759 138.439C79.0361 138.474 78.9878 138.497 78.9495 138.516C78.9202 138.53 78.8968 138.542 78.8875 138.553C78.8725 138.572 78.8725 138.601 78.8925 138.617C78.944 138.656 79.0696 138.684 79.1537 138.676C79.3258 138.661 79.4388 138.562 79.5254 138.433C79.6171 138.294 79.6698 137.943 79.1814 137.718C78.5497 137.428 77.7247 137.482 77.7247 137.482C77.7247 137.482 77.721 137.29 77.7122 137.162C77.6984 136.952 77.6406 136.54 77.4497 136.422C77.4146 136.401 77.3719 136.398 77.348 136.431C77.3116 136.48 77.2752 136.663 77.2664 136.711C77.209 137.054 77.2 137.369 77.1968 137.483C77.196 137.512 77.1948 137.528 77.1948 137.528L77.1926 137.531C77.1912 137.533 77.1898 137.534 77.1873 137.536C77.1873 137.536 77.1747 137.539 77.1545 137.542C77.0418 137.561 76.657 137.624 76.2832 137.786C76.1074 137.862 75.8562 137.999 75.7796 138.176C75.6817 138.405 75.8537 138.655 76.1463 138.931C76.3937 139.166 76.7578 139.412 77.0278 139.539C77.0969 139.572 77.1772 139.612 77.1772 139.612C77.1772 139.612 77.1948 139.775 77.2086 139.869C77.2588 140.209 77.5188 140.16 77.5904 140.145C77.7071 140.122 77.7285 140.044 77.7448 139.955C77.7536 139.906 77.7498 139.835 77.7498 139.835C77.7498 139.835 77.9256 139.875 78.0437 139.897C78.3865 139.961 78.7594 139.971 79.0834 139.927C80.3211 139.757 80.6728 139.191 80.7907 139.002C80.7959 138.993 80.8007 138.986 80.805 138.979C80.9846 138.696 81.3638 137.908 80.2198 136.739C79.9587 136.474 79.2027 135.737 77.6871 135.308ZM75.9793 138.495C75.9328 138.446 75.8964 138.395 75.9077 138.331C75.9177 138.269 76.0383 138.215 76.0986 138.198C76.6812 138.026 77.176 138.017 77.176 138.017C77.176 138.017 77.1709 138.227 77.1709 138.438C77.1684 138.838 77.1797 139.245 77.1797 139.245C77.1797 139.245 76.5217 139.054 75.9793 138.495Z" fill="white"/>
<path fill-rule="evenodd" clip-rule="evenodd" d="M81.9028 137.022C82.1765 136.915 82.3875 136.761 82.601 136.542C82.7253 136.415 82.8358 136.207 82.7956 136.016C82.7755 135.922 82.7328 135.857 82.6537 135.789C82.6148 135.755 82.5244 135.707 82.4515 135.693C82.4465 135.692 82.4414 135.692 82.4364 135.691C82.4203 135.688 82.4055 135.686 82.3988 135.682C82.3912 135.677 82.3843 135.668 82.377 135.659L82.3728 135.653L82.3699 135.649C82.3222 135.589 82.2268 135.53 82.1589 135.507C81.9492 135.435 81.6692 135.49 81.4783 135.57C81.2762 135.656 81.0903 135.781 80.9484 135.933C80.5767 136.331 80.74 136.646 80.7726 136.705C80.7826 136.724 80.7958 136.742 80.8091 136.761C80.8329 136.794 80.8571 136.827 80.8643 136.861C80.8683 136.881 80.8677 136.905 80.8671 136.929C80.8667 136.943 80.8664 136.956 80.8668 136.969C80.8693 137.053 80.9057 137.139 80.9685 137.195C81.0137 137.235 81.079 137.247 81.1431 137.147C81.1644 137.115 81.2008 137.047 81.2008 137.047C81.2008 137.047 81.2762 137.091 81.4595 137.104C81.5964 137.11 81.7835 137.07 81.9028 137.022ZM81.0275 136.541C81.0275 136.541 81.015 136.515 81.0062 136.494C80.9497 136.355 81.074 136.197 81.187 136.1C81.408 135.912 81.5951 135.917 81.5951 135.917C81.5951 135.917 81.5499 135.953 81.5122 135.986C81.192 136.267 81.0275 136.541 81.0275 136.541ZM81.511 136.536C81.6466 136.361 81.8965 136.145 82.0698 136.042C82.2067 135.961 82.3247 135.938 82.4126 135.977C82.4653 136 82.5068 136.047 82.5143 136.111C82.5382 136.307 82.3109 136.472 82.1602 136.56C81.8161 136.761 81.4093 136.715 81.398 136.697C81.3955 136.692 81.4796 136.577 81.511 136.536Z" fill="white"/>
<path fill-rule="evenodd" clip-rule="evenodd" d="M88.25 138.741C88.5601 138.264 89.2671 137.3 89.7053 137.604C89.8523 137.708 89.9201 137.938 89.9213 138.185C89.9213 138.401 89.8686 138.632 89.7719 138.804C89.6074 139.092 89.1428 139.693 88.525 139.551C88.3215 140.046 88.1495 140.547 88.0516 141.296C88.0516 141.296 88.029 141.441 87.9084 141.391C87.7879 141.348 87.5907 141.15 87.5505 140.874C87.5078 140.512 87.6698 139.899 87.9988 139.197C87.9034 139.042 87.8368 138.818 87.8933 138.5C87.8933 138.5 87.9762 137.91 88.5689 137.378C88.5689 137.378 88.6392 137.316 88.6807 137.335C88.7259 137.354 88.7058 137.546 88.6694 137.639C88.6317 137.732 88.368 138.189 88.368 138.189C88.368 138.189 88.2035 138.498 88.25 138.741ZM88.7535 139.024C88.9959 138.996 89.2319 138.865 89.3023 138.797C89.4178 138.695 89.6865 138.416 89.6438 138.048C89.6438 138.048 89.62 137.857 89.4341 138.067C89.2734 138.243 88.9858 138.574 88.7535 139.024Z" fill="white"/>
<path d="M87.6749 139.153C87.7051 139.04 87.6021 138.917 87.5092 138.894C87.4225 138.877 86.7595 139.001 86.6804 139.022C86.595 139.045 86.6327 138.965 86.6327 138.965L86.7357 138.618C86.7357 138.618 87.3685 138.594 87.4602 138.578C87.5456 138.563 87.5506 138.503 87.5506 138.503C87.5506 138.503 87.5619 138.403 87.5582 138.31C87.5494 138.211 87.469 138.22 87.469 138.22C87.2241 138.195 86.8876 138.224 86.8876 138.224L86.973 137.958C86.973 137.958 87.6461 137.925 87.9022 137.866C88.0341 137.835 87.9562 137.705 87.9562 137.705C87.7967 137.386 87.6122 137.404 87.6122 137.404C87.0822 137.386 86.3137 137.527 86.2296 137.568C86.1505 137.604 86.1593 137.663 86.2623 137.792C86.3728 137.927 86.5574 137.915 86.5574 137.915L86.3954 138.25C86.2623 138.259 86.217 138.3 86.217 138.3C86.1404 138.382 86.2459 138.623 86.2459 138.623C86.2459 138.623 86.0161 139.139 86.1831 139.412C86.3627 139.698 86.5737 139.684 86.5737 139.684C86.978 139.714 87.6398 139.292 87.6749 139.153Z" fill="white"/>
<path d="M85.2426 137.154C85.2664 137.06 85.3606 137.104 85.3606 137.104C85.3606 137.104 85.7222 137.286 85.8968 137.874C86.0713 138.464 85.9546 138.995 85.8855 139.156C85.8177 139.317 85.6381 139.486 85.4158 139.381C85.1961 139.275 84.8458 138.558 84.8458 138.558C84.8458 138.558 84.7126 138.292 84.6875 138.298C84.6875 138.298 84.6586 138.246 84.6411 138.538C84.6365 138.608 84.6343 138.694 84.632 138.785C84.6246 139.074 84.6158 139.417 84.5281 139.485C84.4188 139.575 84.2857 139.539 84.2166 139.435C84.1551 139.332 84.1287 139.087 84.1626 138.658C84.2028 138.226 84.302 137.768 84.4301 137.625C84.5548 137.487 84.6545 137.581 84.6968 137.621L84.7001 137.624C84.7001 137.624 84.8709 137.778 85.1521 138.233L85.2024 138.317C85.2024 138.317 85.4585 138.747 85.4849 138.745C85.4849 138.745 85.505 138.764 85.5238 138.75C85.5515 138.743 85.5402 138.605 85.5402 138.605C85.5402 138.605 85.4874 138.138 85.2539 137.345C85.2539 137.345 85.2187 137.247 85.2426 137.154Z" fill="white"/>
<path d="M81.7229 138.621C81.7141 138.425 81.6902 137.924 81.6362 137.698C81.6124 137.6 81.5734 137.512 81.4768 137.476C81.4655 137.472 81.4529 137.468 81.4441 137.467C81.3838 137.455 81.3499 137.537 81.3336 137.579C81.2859 137.7 81.252 137.99 81.2432 138.081C81.2156 138.355 81.1917 139.005 81.2394 139.337C81.2595 139.475 81.3047 139.565 81.4454 139.594C81.5019 139.605 81.6061 139.604 81.6513 139.574C81.6915 139.549 81.7191 139.501 81.7279 139.46C81.7527 139.346 81.7445 139.186 81.7382 139.063L81.7379 139.058C81.7363 139.009 81.7347 138.961 81.7332 138.912C81.7301 138.816 81.7271 138.719 81.7229 138.621Z" fill="white"/>
<path d="M82.878 137.403C83.1856 137.365 83.6842 137.365 83.9868 137.526C84.0332 137.551 84.0571 137.575 84.0445 137.62C84.0245 137.714 83.9541 137.774 83.8687 137.801C83.7801 137.829 83.5959 137.841 83.5135 137.846L83.5121 137.846C83.4262 137.851 83.336 137.854 83.2437 137.857C82.9451 137.867 82.6251 137.877 82.3594 137.95L82.3538 137.952C82.3268 137.959 82.2843 137.971 82.2702 137.988C82.2188 138.044 82.3566 138.064 82.399 138.07L82.4046 138.071C82.4456 138.078 82.7653 138.115 82.9938 138.142C83.101 138.155 83.1882 138.165 83.217 138.169C83.7743 138.24 83.8547 138.391 83.916 138.506L83.9177 138.509C84.0119 138.683 84.0207 138.93 83.9328 139.114C83.7708 139.457 83.3388 139.524 83.1894 139.541C82.9282 139.57 82.6444 139.519 82.4096 139.402C81.9061 139.152 81.9287 138.854 82.0304 138.706C82.1434 138.543 82.4159 138.501 82.613 138.509C82.7637 138.514 83.0349 138.562 83.1781 138.612L83.1805 138.613C83.2229 138.629 83.3645 138.684 83.3891 138.71C83.4066 138.729 83.4179 138.755 83.4104 138.779C83.3778 138.879 83.1354 138.932 83.0651 138.942C82.9175 138.965 82.8254 138.925 82.6884 138.866C82.6517 138.85 82.6117 138.833 82.5666 138.815C82.5138 138.794 82.4435 138.771 82.3895 138.766C82.2928 138.758 82.171 138.784 82.1572 138.891C82.1484 138.957 82.2112 138.996 82.2602 139.018C82.3744 139.068 82.4674 139.085 82.5804 139.087C82.9131 139.092 83.2873 139.038 83.5598 138.844C83.5963 138.818 83.6339 138.779 83.6339 138.73C83.6352 138.631 83.4619 138.57 83.4619 138.57C83.2844 138.496 82.9669 138.463 82.7827 138.444L82.765 138.442C82.7195 138.438 82.6606 138.433 82.5956 138.428C82.3862 138.412 82.1127 138.391 82.014 138.341C81.9412 138.303 81.891 138.25 81.8734 138.181C81.8408 138.057 81.8822 137.902 81.9513 137.803C82.1333 137.541 82.559 137.442 82.878 137.403Z" fill="white"/>
<path d="M93.0133 137.954H91.9735C91.9622 137.595 91.9258 137.24 91.8643 136.891C91.8542 136.83 91.8015 136.788 91.7412 136.788H91.4612C91.4059 136.788 91.3645 136.838 91.3758 136.892C91.4411 137.24 91.48 137.595 91.4926 137.954H90.4365C90.3888 137.954 90.3486 137.993 90.3486 138.042V138.361C90.3486 138.41 90.3876 138.449 90.4365 138.449H91.4926C91.48 138.809 91.4411 139.163 91.3758 139.511C91.3658 139.565 91.4072 139.616 91.4612 139.616H91.7412C91.8015 139.616 91.8542 139.572 91.8643 139.513C91.9258 139.163 91.961 138.809 91.9735 138.449H93.0133C93.061 138.449 93.1012 138.41 93.1012 138.361V138.042C93.1012 137.993 93.0622 137.954 93.0133 137.954Z" fill="white"/>
</g>
<g clip-path="url(#clip3_2818_1346)">
<mask id="mask0_2818_1346" style="mask-type:alpha" maskUnits="userSpaceOnUse" x="100" y="125" width="24" height="24">
<circle cx="112" cy="137" r="12" fill="#FF790F"/>
</mask>
<g mask="url(#mask0_2818_1346)">
<rect x="100" y="125" width="24" height="24" fill="#F1F2F2"/>
<path fill-rule="evenodd" clip-rule="evenodd" d="M104.625 137.337C104.154 137.337 103.623 137.173 103.09 136.862C103.049 136.84 103.019 136.799 103.005 136.753C102.994 136.706 103 136.656 103.024 136.615L103.226 136.206C103.258 136.148 103.318 136.113 103.381 136.113C103.414 136.113 103.446 136.121 103.476 136.14C103.914 136.426 104.252 136.527 104.603 136.527C105.213 136.527 105.58 136.151 105.58 135.586C105.39 135.759 105.164 135.956 104.747 135.956C103.8 135.956 103.03 135.163 103.03 134.188C103.03 133.21 103.8 132.417 104.747 132.417C105.041 132.417 105.267 132.513 105.618 132.793C105.629 132.7 105.58 132.475 105.714 132.475H106.285C106.383 132.475 106.465 132.557 106.465 132.656V134.15V134.161C106.465 134.17 106.466 134.179 106.468 134.188C106.466 134.195 106.465 134.204 106.465 134.213V134.226V134.822C106.468 135.833 106.356 136.412 105.931 136.849C105.618 137.173 105.109 137.337 104.625 137.337ZM104.747 133.274C104.29 133.274 103.914 133.683 103.914 134.188C103.914 134.69 104.29 135.102 104.747 135.102C105.197 135.102 105.569 134.701 105.58 134.21V134.163C105.569 133.672 105.197 133.274 104.747 133.274Z" fill="#E51F29"/>
<path fill-rule="evenodd" clip-rule="evenodd" d="M113.918 135.956C113.67 135.956 113.349 135.843 113.055 135.574C113.055 135.714 113.088 135.898 112.906 135.898H112.383C112.282 135.898 112.201 135.819 112.201 135.717V131.239C112.201 131.137 112.282 131.055 112.383 131.055H112.906C113.006 131.055 113.088 131.137 113.088 131.239V132.784C113.374 132.493 113.695 132.416 113.918 132.416C114.865 132.416 115.638 133.21 115.638 134.188C115.638 135.162 114.865 135.956 113.918 135.956ZM113.918 133.273C113.461 133.273 113.088 133.682 113.088 134.188C113.088 134.69 113.461 135.102 113.918 135.102C114.378 135.102 114.751 134.69 114.751 134.188C114.751 133.682 114.378 133.273 113.918 133.273Z" fill="#E51F29"/>
<path fill-rule="evenodd" clip-rule="evenodd" d="M111.759 139.495C111.759 140.473 110.988 141.266 110.041 141.266C109.815 141.266 109.494 141.189 109.208 140.898V142.444C109.208 142.546 109.127 142.628 109.026 142.628H108.503C108.403 142.628 108.321 142.546 108.321 142.444V137.966C108.321 137.867 108.403 137.785 108.503 137.785H109.026C109.208 137.785 109.176 137.969 109.176 138.109C109.472 137.84 109.791 137.727 110.041 137.727C110.988 137.727 111.759 138.52 111.759 139.495ZM110.871 139.495C110.871 138.993 110.498 138.581 110.041 138.581C109.581 138.581 109.208 138.993 109.208 139.495C109.208 140 109.581 140.412 110.041 140.412C110.498 140.412 110.871 140 110.871 139.495Z" fill="#E51F29"/>
<path fill-rule="evenodd" clip-rule="evenodd" d="M117.728 135.956C116.759 135.956 115.97 135.163 115.97 134.188C115.97 133.21 116.759 132.417 117.728 132.417C118.695 132.417 119.484 133.21 119.484 134.188C119.484 135.163 118.695 135.956 117.728 135.956ZM117.728 133.276C117.246 133.276 116.857 133.685 116.857 134.188C116.857 134.69 117.246 135.1 117.728 135.1C118.207 135.1 118.597 134.69 118.597 134.188C118.597 133.685 118.207 133.276 117.728 133.276Z" fill="#E51F29"/>
<path fill-rule="evenodd" clip-rule="evenodd" d="M110.036 135.956C109.067 135.956 108.281 135.163 108.281 134.188C108.281 133.21 109.067 132.417 110.036 132.417C111.005 132.417 111.792 133.21 111.792 134.188C111.792 135.163 111.005 135.956 110.036 135.956ZM110.036 133.276C109.554 133.276 109.165 133.685 109.165 134.188C109.165 134.69 109.554 135.1 110.036 135.1C110.515 135.1 110.907 134.69 110.907 134.188C110.907 133.685 110.515 133.276 110.036 133.276Z" fill="#E51F29"/>
<path d="M112.378 141.209C112.28 141.209 112.198 141.126 112.198 141.028V136.546C112.198 136.448 112.28 136.365 112.378 136.365H112.903C113.001 136.365 113.083 136.448 113.083 136.546V141.028C113.083 141.126 113.001 141.209 112.903 141.209H112.378Z" fill="#E51F29"/>
<path d="M118.194 142.639C117.737 142.639 117.407 142.502 117.252 142.376C117.181 142.318 117.162 142.219 117.208 142.143L117.456 141.714C117.489 141.656 117.549 141.621 117.614 141.624C117.652 141.624 117.688 141.635 117.72 141.656C117.758 141.687 117.894 141.797 118.069 141.802C118.191 141.805 118.496 141.687 118.686 141.22L117.372 138.038C117.347 137.98 117.353 137.917 117.385 137.865C117.421 137.812 117.475 137.782 117.538 137.782L118.107 137.785C118.18 137.785 118.243 137.829 118.273 137.895L119.108 139.94L119.838 137.903C119.862 137.832 119.933 137.785 120.007 137.785H120.562C120.622 137.785 120.679 137.815 120.712 137.865C120.747 137.914 120.766 137.983 120.733 138.117L119.574 141.228C119.266 141.986 118.733 142.642 118.194 142.639Z" fill="#E51F29"/>
<path fill-rule="evenodd" clip-rule="evenodd" d="M115.218 137.727C115.466 137.727 115.787 137.84 116.081 138.109C116.081 137.969 116.051 137.785 116.231 137.785H116.756C116.854 137.785 116.936 137.867 116.936 137.966V141.055C116.936 141.156 116.854 141.209 116.756 141.209H116.231C116.133 141.209 116.051 141.156 116.051 141.055V140.901C115.763 141.192 115.444 141.269 115.218 141.269C114.268 141.269 113.498 140.473 113.498 139.498C113.498 138.52 114.268 137.727 115.218 137.727ZM115.218 140.412C115.676 140.412 116.051 140.003 116.051 139.498C116.051 138.993 115.676 138.584 115.218 138.584C114.758 138.584 114.385 138.993 114.385 139.498C114.385 140.003 114.758 140.412 115.218 140.412Z" fill="#E51F29"/>
<path d="M107.201 135.956C107.092 135.956 106.975 135.877 106.975 135.657V131.297C106.975 131.019 107.143 131 107.195 131C107.233 131 107.271 131.008 107.318 131.025L107.641 131.17C107.799 131.244 107.873 131.373 107.873 131.571V135.377C107.873 135.572 107.799 135.701 107.644 135.775L107.318 135.929C107.271 135.948 107.233 135.956 107.201 135.956Z" fill="#E51F29"/>
</g>
</g>
<g clip-path="url(#clip4_2818_1346)">
<path d="M28.0002 176.667C34.4435 176.667 39.6668 171.443 39.6668 165C39.6668 158.557 34.4435 153.333 28.0002 153.333C21.5568 153.333 16.3335 158.557 16.3335 165C16.3335 171.443 21.5568 176.667 28.0002 176.667Z" fill="black"/>
<path fill-rule="evenodd" clip-rule="evenodd" d="M25.0277 159.152C24.9991 159.14 24.725 159.025 24.6857 159.008C24.6846 159.007 24.6823 159.007 24.6795 159.005C24.675 159.003 24.6767 159.004 24.6746 159.003C24.6698 159.001 24.6683 159.001 24.6666 159C24.6666 159.09 24.6665 159.222 24.6665 159.364C24.6665 159.545 24.6665 159.737 24.6665 159.833C24.6665 160.018 24.6665 160.492 24.6665 160.667C24.6665 161.006 24.6665 163.615 24.6665 163.797C24.6665 163.975 24.6665 170.802 24.6665 170.99C25.5672 170.878 26.0177 170.834 26.9339 170.791C26.9339 170.608 26.9339 168.798 26.9339 168.534C26.9339 167.01 26.9339 165.937 26.9339 165.346C26.9339 165.097 26.9339 165.005 26.9339 164.75C26.8645 164.546 26.571 163.681 26.4958 163.464C26.3554 163.048 25.5563 160.704 25.4925 160.517C25.4352 160.349 25.2757 159.881 25.225 159.731C25.1954 159.645 25.118 159.418 25.0769 159.297C25.0447 159.203 25.0476 159.21 25.0277 159.152Z" fill="url(#paint1_linear_2818_1346)"/>
<path fill-rule="evenodd" clip-rule="evenodd" d="M30.6558 170.838C30.6843 170.85 30.9584 170.966 30.9978 170.982C30.9988 170.983 31.0012 170.984 31.004 170.985C31.0085 170.987 31.0067 170.986 31.0089 170.987C31.0136 170.989 31.0152 170.989 31.0169 170.99C31.0169 170.901 31.0169 170.768 31.0169 170.626C31.017 170.445 31.0169 170.253 31.0169 170.157C31.0169 169.973 31.0169 169.498 31.0169 169.323C31.0169 168.984 31.0169 166.375 31.0169 166.193C31.0169 166.015 31.0169 159.188 31.0169 159C30.8388 159 29.0368 159 28.7495 159C28.7495 159.183 28.7495 161.192 28.7495 161.456C28.7495 162.98 28.7495 164.053 28.7495 164.644C28.7495 164.893 28.7495 164.985 28.7495 165.24C28.8189 165.444 29.1125 166.309 29.1877 166.527C29.328 166.942 30.1271 169.286 30.191 169.473C30.2483 169.642 30.4078 170.109 30.4585 170.259C30.4881 170.346 30.5655 170.572 30.6066 170.693C30.6387 170.788 30.6358 170.78 30.6558 170.838Z" fill="url(#paint2_linear_2818_1346)"/>
<path fill-rule="evenodd" clip-rule="evenodd" d="M26.9339 159H24.6665L28.6815 170.791C29.8099 170.82 31.0169 170.99 31.0169 170.99L26.9339 159Z" fill="#E50A15"/>
</g>
<circle cx="56" cy="165" r="12" fill="white"/>
<g clip-path="url(#clip5_2818_1346)">
<path d="M55.9944 169.435C55.9944 169.435 59.7494 169.435 60.6844 169.179C61.2094 169.034 61.6044 168.619 61.7394 168.104C61.9994 167.158 61.9994 165.177 61.9994 165.177C61.9994 165.177 61.9994 163.201 61.7394 162.27C61.5994 161.74 61.2044 161.335 60.6844 161.195C59.7544 160.935 55.9944 160.935 55.9944 160.935C55.9944 160.935 52.2444 160.935 51.3144 161.195C50.7994 161.335 50.3944 161.74 50.2494 162.27C49.9994 163.206 49.9994 165.177 49.9994 165.177C49.9994 165.177 49.9994 167.158 50.2494 168.104C50.3994 168.619 50.7994 169.034 51.3144 169.179C52.2394 169.435 55.9944 169.435 55.9944 169.435Z" fill="#FF0033"/>
<path d="M54.6256 166.928L57.8756 165.178L54.6256 163.428V166.928Z" fill="white"/>
</g>
<circle cx="85.0006" cy="165" r="12" fill="#0270FD"/>
<g clip-path="url(#clip6_2818_1346)">
<path d="M83.7487 165.17C83.7004 165.151 83.6212 165.064 83.753 164.821L84.0589 164.193C84.0682 164.174 84.046 164.15 84.032 164.166L83.7646 164.43C83.638 164.56 83.4233 164.925 83.3817 164.992L83.0567 165.52C83.0908 165.519 83.113 165.554 83.0962 165.584L82.7993 166.074C82.7266 166.195 82.8571 166.28 82.8748 166.252C83.3416 165.514 83.613 165.573 83.613 165.573L83.7689 165.218C83.778 165.199 83.7683 165.178 83.7489 165.17H83.7487Z" fill="white"/>
<path d="M84.8086 159C82.1398 159 79.9761 161.124 79.9761 163.744C79.9761 164.799 80.3275 165.773 80.9209 166.561C81.1236 166.475 81.2363 166.346 81.3168 166.248L82.2165 165.118C82.2355 165.094 82.2603 165.076 82.2885 165.064L82.4239 165.007L83.9035 163.164L84.118 162.999L84.5587 162.397C84.5702 162.381 84.584 162.368 84.5999 162.356L84.7922 162.219C84.8397 162.185 84.9039 162.184 84.952 162.218L85.1853 162.379C85.3091 162.464 85.4095 162.578 85.4775 162.711L86.4121 164.323C86.4331 164.358 86.4481 164.373 86.4854 164.391C86.6687 164.481 86.7806 164.497 87.0206 164.753C87.1325 164.872 87.623 165.411 88.3108 166.248C88.4055 166.374 88.528 166.48 88.6989 166.557C89.2906 165.77 89.641 164.797 89.641 163.744C89.6414 161.124 87.4777 159 84.8086 159ZM81.2795 164.005L80.9662 163.905L80.7726 164.167V163.844L80.4593 163.744L80.7726 163.644V163.321L80.9662 163.582L81.2795 163.483L81.0858 163.744L81.2795 164.006V164.005ZM81.2051 165.063L81.1033 165.371L81.0015 165.063H80.6723L80.9388 164.873L80.837 164.566L81.1035 164.756L81.37 164.566L81.2682 164.873L81.5347 165.063H81.2055H81.2051ZM81.268 162.615L81.3698 162.922L81.1033 162.732L80.8368 162.922L80.9386 162.615L80.6721 162.424H81.0013L81.1031 162.117L81.2049 162.424H81.5341L81.2676 162.615H81.268ZM81.7969 161.919L81.6033 161.657L81.29 161.757L81.4836 161.496L81.29 161.234L81.6033 161.334L81.7969 161.072V161.396L82.1102 161.495L81.7969 161.595V161.919V161.919ZM82.6204 160.787L82.5186 161.095L82.4168 160.787H82.0876L82.3541 160.597L82.2523 160.289L82.5188 160.479L82.7853 160.289L82.6835 160.597L82.95 160.787H82.6208H82.6204ZM83.6583 160.268L83.4647 160.53V160.206L83.1514 160.107L83.4647 160.007V159.683L83.6583 159.945L83.9716 159.845L83.778 160.107L83.9716 160.368L83.6583 160.268V160.268ZM84.9734 159.972L85.0751 160.279L84.8086 160.089L84.5421 160.279L84.6439 159.972L84.3774 159.782H84.7066L84.8084 159.474L84.9102 159.782H85.2394L84.9729 159.972H84.9734ZM86.1528 160.206V160.529L85.9591 160.268L85.6459 160.368L85.8395 160.106L85.6459 159.845L85.9591 159.944L86.1528 159.683V160.006L86.466 160.106L86.1528 160.206V160.206ZM88.338 163.482L88.6513 163.582L88.8449 163.32V163.644L89.1582 163.744L88.8449 163.843V164.167L88.6513 163.905L88.338 164.005L88.5316 163.743L88.338 163.482V163.482ZM87.0987 161.095L86.9969 160.787H86.6676L86.9341 160.597L86.8324 160.289L87.0989 160.479L87.3654 160.289L87.2636 160.597L87.5301 160.787H87.2009L87.0991 161.095H87.0987ZM87.8205 161.919V161.596L87.5072 161.496L87.8205 161.396V161.073L88.0141 161.334L88.3274 161.234L88.1338 161.496L88.3274 161.758L88.0141 161.658L87.8205 161.919V161.919ZM88.4124 162.424L88.5142 162.117L88.6159 162.424H88.9452L88.6787 162.615L88.7804 162.922L88.5139 162.732L88.2474 162.922L88.3492 162.615L88.0827 162.424H88.412H88.4124ZM88.6159 165.063L88.5142 165.371L88.4124 165.063H88.0831L88.3496 164.873L88.2479 164.566L88.5144 164.756L88.7809 164.566L88.6791 164.873L88.9456 165.063H88.6164H88.6159Z" fill="white"/>
<path d="M86.5602 166.486C86.5835 166.453 86.621 166.362 86.5505 166.193L86.3366 165.629C86.3075 165.557 86.3709 165.513 86.4136 165.56C86.4136 165.56 86.8178 166.018 86.9224 166.209L87.1216 166.534C87.293 166.544 87.7665 166.557 88.2219 166.557C88.1766 166.513 88.1344 166.465 88.0949 166.413C87.3176 165.467 86.8249 164.941 86.82 164.936C86.6624 164.768 86.5897 164.735 86.4694 164.682C86.4521 164.674 86.4334 164.665 86.4138 164.656V164.8C86.4138 164.819 86.3911 164.829 86.3795 164.809L85.2365 162.838L85.2333 162.832C85.1858 162.74 85.1151 162.659 85.0287 162.6L84.9172 162.523L84.3721 163.757C84.4571 163.757 84.5142 163.843 84.4804 163.919L83.9767 165.063H84.439C84.6177 165.063 84.7947 165.097 84.9601 165.164L85.0819 165.213C85.0819 165.213 84.7143 165.956 84.7143 166.347C84.7143 166.418 84.7257 166.49 84.7443 166.557H85.5918L85.5526 166.323C85.5526 166.323 86.0627 166.438 86.5604 166.486H86.5602Z" fill="white"/>
<path d="M80.0219 167.688C80.0219 166.924 79.1967 166.557 78.2165 166.557C77.168 166.557 76.2059 167.013 75.8528 167.72C75.7555 167.908 75.7051 168.117 75.7051 168.329C75.7014 168.513 75.7521 168.693 75.8528 168.845C76.0041 169.065 76.2743 169.203 76.6706 169.203C77.157 169.203 77.5427 168.941 77.5427 168.484C77.5427 168.484 77.5499 168.357 77.3985 168.357C77.276 168.357 77.2435 168.442 77.2471 168.484C77.2653 168.842 77.049 169.128 76.6635 169.128C76.231 169.128 76.0509 168.767 76.0509 168.382C76.0509 167.593 76.6564 167.07 77.2868 166.843C77.5824 166.734 77.8923 166.68 78.2092 166.684C78.9227 166.684 79.5063 166.953 79.5063 167.675C79.5063 168.276 78.991 168.789 78.3748 168.835L78.4 168.753C78.5262 168.311 78.6812 167.827 78.9332 167.469C78.9477 167.448 78.9729 167.413 79.0018 167.377L78.9658 167.335C78.9117 167.367 78.8612 167.402 78.8108 167.441C77.629 168.346 77.593 170.893 76.0181 170.893C75.9642 170.893 75.9101 170.89 75.856 170.883C75.5281 170.83 75.3551 170.614 75.3551 170.313C75.3551 170.253 75.3767 170.172 75.3767 170.126C75.3804 170.041 75.3083 169.967 75.2217 169.967H75.2038C75.0632 169.967 75.0056 170.076 75.002 170.232C74.9912 170.681 75.3299 170.943 75.8523 170.992C75.9099 170.996 75.9677 170.999 76.0289 170.999C77.2577 170.999 78.0106 170.087 78.3315 168.98C78.4936 168.962 78.6557 168.927 78.8106 168.881C79.38 168.725 80.0212 168.35 80.0212 167.689L80.0219 167.688Z" fill="white"/>
<path d="M91.7258 167.954H91.2935L91.196 168.177L91.0268 168.552H90.825L90.7637 168.679H90.9727L90.7204 169.227C90.5404 169.613 90.2592 169.991 90.0971 169.991C90.0611 169.991 90.0395 169.977 90.0395 169.942C90.0395 169.906 90.0503 169.874 90.0899 169.775C90.1404 169.659 90.2232 169.489 90.2846 169.365C90.3748 169.185 90.5188 168.905 90.5188 168.767C90.5188 168.629 90.4287 168.52 90.2521 168.52C90.0539 168.52 89.8737 168.637 89.7081 168.806L89.8163 168.552H89.409L89.0776 169.294C88.9444 169.556 88.674 169.991 88.5048 169.991C88.4687 169.991 88.4543 169.97 88.4543 169.935C88.458 169.903 88.4651 169.875 88.4795 169.843C88.494 169.811 88.6921 169.355 88.6921 169.355L89.0524 168.545H88.6128L88.2633 169.333C88.1552 169.577 87.8812 169.991 87.7046 169.991C87.6757 169.995 87.647 169.974 87.6434 169.942V169.928C87.6434 169.885 87.6757 169.808 87.7009 169.751L87.8849 169.355L88.2633 168.545H87.8273L87.7408 168.728C87.6759 168.852 87.5679 168.997 87.395 168.997C87.312 168.997 87.2725 168.966 87.2544 168.934C87.2292 168.661 87.0526 168.516 86.7932 168.516C86.4329 168.516 86.177 168.725 86.0075 168.98C85.8958 169.156 85.8094 169.344 85.7481 169.542C85.5931 169.793 85.4312 169.988 85.3014 169.988C85.2688 169.988 85.2473 169.97 85.2473 169.928C85.2473 169.885 85.2906 169.79 85.305 169.754L85.5897 169.16C85.669 168.976 85.7229 168.856 85.7229 168.736C85.7229 168.608 85.6328 168.516 85.4851 168.516C85.2796 168.516 85.0562 168.633 84.8796 168.824C84.8868 168.792 84.8868 168.764 84.8868 168.732C84.8868 168.591 84.8147 168.516 84.6668 168.516C84.4795 168.516 84.285 168.626 84.1084 168.824L84.2237 168.548H83.8272L83.4922 169.291C83.3337 169.641 83.0778 169.988 82.9335 169.988C82.9012 169.988 82.8794 169.97 82.8794 169.928C82.8794 169.861 82.9551 169.695 82.984 169.627L83.4273 168.641C83.4596 168.566 83.247 168.52 82.9769 168.52C82.7067 168.52 82.4147 168.655 82.2058 168.828C82.0581 168.948 81.9499 169.009 81.8958 169.009C81.8671 169.009 81.8561 168.994 81.8561 168.977C81.8561 168.917 82.0038 168.747 82.0038 168.616C82.0038 168.556 81.9714 168.517 81.8884 168.517C81.73 168.517 81.5426 168.665 81.4057 168.821L81.521 168.549H81.1318L80.7968 169.292C80.6381 169.642 80.375 170.006 80.231 170.006C80.1985 170.006 80.1769 169.989 80.1769 169.946C80.1769 169.879 80.2489 169.716 80.2886 169.631L80.7319 168.641C80.7642 168.566 80.5516 168.52 80.2815 168.52C79.8815 168.52 79.4923 168.786 79.2868 169.058C79.0598 169.352 78.905 169.663 78.9013 169.918C78.8979 170.123 79.0059 170.25 79.2219 170.25C79.4634 170.25 79.6579 170.063 79.7696 169.921C79.7625 169.95 79.7588 169.978 79.7552 170.006C79.7552 170.147 79.8127 170.25 79.9893 170.25C80.1441 170.25 80.3496 170.123 80.5154 169.921L80.3822 170.222H80.8037L81.2181 169.299C81.355 168.998 81.51 168.842 81.5532 168.842C81.5676 168.842 81.5749 168.85 81.5749 168.86C81.5749 168.892 81.51 168.977 81.51 169.054C81.51 169.132 81.5532 169.192 81.6687 169.192C81.7589 169.192 81.8595 169.15 81.9497 169.093C81.7371 169.376 81.5928 169.674 81.5928 169.918C81.5894 170.123 81.6974 170.25 81.9137 170.25C82.1407 170.25 82.3533 170.038 82.4684 169.896C82.4648 169.928 82.4613 169.96 82.4613 169.995C82.4613 170.133 82.5407 170.25 82.7028 170.25C82.8828 170.25 83.0271 170.14 83.2073 169.925L83.0741 170.222H83.5064L83.9027 169.341C84.0756 168.959 84.3098 168.754 84.4251 168.754C84.454 168.75 84.4792 168.772 84.4827 168.8V168.811C84.479 168.853 84.4648 168.895 84.4467 168.934L83.8775 170.226H84.3208L84.7244 169.327C84.8973 168.942 85.0884 168.754 85.2324 168.754C85.2755 168.754 85.2936 168.775 85.2936 168.821C85.29 168.871 85.2755 168.92 85.2539 168.963L84.8648 169.776C84.8288 169.854 84.8072 169.939 84.7999 170.024C84.7999 170.148 84.8682 170.258 85.0629 170.258C85.3152 170.258 85.5062 170.07 85.7223 169.791V169.851C85.7404 170.074 85.8665 170.268 86.2016 170.268C86.5979 170.268 86.9187 169.999 87.1132 169.571C87.1854 169.419 87.2357 169.26 87.2538 169.094C87.2969 169.115 87.3473 169.126 87.3943 169.122C87.4592 169.122 87.5239 169.108 87.5817 169.076L87.5131 169.221C87.4338 169.384 87.3473 169.564 87.279 169.716C87.2359 169.804 87.2106 169.903 87.2033 170.002C87.2033 170.154 87.2898 170.264 87.4664 170.264C87.6429 170.264 87.8844 170.102 88.0574 169.872H88.061C88.0502 169.918 88.0429 169.967 88.0429 170.017C88.0429 170.144 88.0826 170.264 88.2628 170.264C88.4718 170.264 88.6339 170.116 88.7924 169.928L88.6591 170.225H89.0951L89.4446 169.447C89.6428 169.009 89.8409 168.743 90.0248 168.743C90.0574 168.743 90.0824 168.764 90.0861 168.796V168.807C90.0861 168.881 89.978 169.083 89.8808 169.284C89.7907 169.468 89.7221 169.61 89.6753 169.719C89.632 169.811 89.6068 169.91 89.5996 170.013C89.5996 170.147 89.6753 170.25 89.8448 170.25C90.0971 170.25 90.3528 170.01 90.4897 169.829C90.4574 169.918 90.4429 170.006 90.4392 170.098C90.4392 170.346 90.5906 170.469 90.803 170.469C90.9436 170.469 91.0805 170.423 91.1958 170.342C91.3616 170.229 91.4949 170.059 91.6068 169.904L91.5311 169.833C91.4265 169.978 91.3112 170.116 91.1924 170.201C91.1275 170.254 91.0518 170.282 90.969 170.285C90.8789 170.285 90.8213 170.239 90.8213 170.126C90.8213 170.013 90.8754 169.861 90.9582 169.656C90.9617 169.652 91.0807 169.391 91.1924 169.139C91.286 168.927 91.3797 168.722 91.3976 168.679H91.6823L91.74 168.552H91.4589L91.7256 167.954L91.7258 167.954ZM79.435 169.995C79.3737 169.995 79.3304 169.974 79.3304 169.896C79.3341 169.687 79.5104 169.316 79.7304 169.018C79.8852 168.813 80.087 168.661 80.3032 168.661L80.0294 169.263C79.8242 169.715 79.6006 169.995 79.435 169.995V169.995ZM82.1301 169.995C82.0689 169.995 82.0258 169.974 82.0221 169.896C82.0256 169.687 82.2022 169.316 82.4221 169.018C82.5769 168.813 82.7787 168.661 82.995 168.661L82.7211 169.263C82.5122 169.726 82.2996 169.995 82.1301 169.995V169.995ZM86.9155 168.824C86.9047 169.054 86.6992 169.609 86.4579 169.942C86.3607 170.076 86.2777 170.115 86.2057 170.115C86.1048 170.115 86.0759 170.034 86.0903 169.914C86.1119 169.705 86.2885 169.217 86.5334 168.881C86.6451 168.728 86.7208 168.665 86.8074 168.665C86.8941 168.665 86.9191 168.735 86.9155 168.824V168.824Z" fill="white"/>
<path d="M93.6408 168.551L94.0375 167.652H93.5677L93.171 168.551H92.1727L92.0062 168.929H93.0047L92.608 169.828H93.0776L93.4743 168.929H94.4726L94.6391 168.551H93.6408Z" fill="white"/>
</g>
<g clip-path="url(#clip7_2818_1346)">
<path d="M112 176.625C118.42 176.625 123.625 171.42 123.625 165C123.625 158.58 118.42 153.375 112 153.375C105.58 153.375 100.375 158.58 100.375 165C100.375 171.42 105.58 176.625 112 176.625Z" fill="url(#paint3_radial_2818_1346)"/>
<path d="M115.277 167.215H116.771C117.123 166.654 117.521 166.145 117.979 165.665C118.43 166.145 118.805 166.654 119.158 167.215H120.666C120.148 166.44 119.585 165.702 118.91 164.971C119.578 164.269 120.148 163.545 120.666 162.785H119.188C118.82 163.346 118.422 163.819 117.979 164.284C117.528 163.819 117.131 163.346 116.77 162.785H115.276C115.787 163.568 116.365 164.269 117.04 164.971C116.365 165.702 115.787 166.462 115.277 167.215Z" fill="white"/>
<path d="M112.341 167.334C112.949 167.334 113.475 167.112 113.88 166.632V167.216H115.059V162.785H113.88V163.368C113.475 162.889 112.949 162.667 112.341 162.667C111.11 162.667 110.089 163.708 110.089 165C110.089 166.293 111.11 167.334 112.341 167.334ZM111.2 165C111.2 164.277 111.793 163.693 112.529 163.693C113.265 163.693 113.858 164.277 113.858 165C113.858 165.724 113.265 166.307 112.529 166.307C111.793 166.307 111.2 165.724 111.2 165ZM111.508 165C111.508 165.561 111.966 166.012 112.529 166.012C113.092 166.012 113.55 165.561 113.55 165C113.55 164.439 113.092 163.989 112.529 163.989C111.966 163.989 111.508 164.439 111.508 165Z" fill="white"/>
<path d="M103.333 167.216H104.572V164.461C105.113 164.04 105.36 163.907 105.563 163.907C105.803 163.907 105.961 164.055 105.961 164.424V167.215H107.2V164.454C107.74 164.041 107.981 163.908 108.191 163.908C108.431 163.908 108.589 164.055 108.589 164.425V167.216H109.828V163.996C109.827 162.999 109.249 162.667 108.693 162.667C108.22 162.667 107.74 162.859 107.109 163.331C106.907 162.837 106.464 162.667 106.066 162.667C105.593 162.667 105.112 162.874 104.497 163.339V162.785H103.333V167.216Z" fill="white"/>
</g>
</g>
<rect x="16.5" y="194.5" width="131" height="55" rx="11.5" stroke="white"/>
<path d="M52.2931 228.16C49.0291 228.16 47.0931 225.968 47.0931 222.368C47.0931 218.56 49.2851 216.32 52.4851 216.32C53.8451 216.32 54.9491 216.72 55.6691 217.216C55.9251 217.376 55.9251 217.456 55.6211 217.936L55.4291 218.24C55.1571 218.688 55.1091 218.704 54.9331 218.608C54.1651 218.192 53.5091 217.968 52.6451 217.968C50.3891 217.968 49.1251 219.52 49.1251 222.288C49.1251 225.072 50.3411 226.512 52.6451 226.512C53.4771 226.512 54.3091 226.272 55.0451 225.984C55.2531 225.888 55.3171 225.92 55.5091 226.336L55.6691 226.672C55.8931 227.136 55.8931 227.248 55.6851 227.344C54.7571 227.84 53.5091 228.16 52.2931 228.16ZM60.4941 228.16C58.0781 228.16 56.7181 226.608 56.7181 223.952C56.7181 221.008 58.1901 219.392 60.7821 219.392C63.1821 219.392 64.5421 220.928 64.5421 223.6C64.5421 226.544 63.0701 228.16 60.4941 228.16ZM60.5261 226.56C61.8541 226.56 62.6381 225.6 62.6381 223.712C62.6381 222.128 62.1101 220.992 60.7181 220.992C59.3901 220.992 58.6221 221.968 58.6221 223.84C58.6221 225.424 59.1501 226.56 60.5261 226.56ZM67.2195 228C66.3715 228 66.3235 227.936 66.3235 227.776V222.88C66.3235 221.808 66.2915 220.608 66.2435 219.792C66.2275 219.6 66.3075 219.552 67.0435 219.552H67.1235C67.7795 219.552 67.9235 219.584 67.9555 219.744C67.9875 219.952 68.0195 220.224 68.0355 220.496C68.5795 219.824 69.4435 219.392 70.5155 219.392C71.4915 219.392 72.2595 219.696 72.7555 220.24C73.2835 220.832 73.5235 221.616 73.5235 222.864V227.776C73.5235 227.936 73.4275 228 72.6595 228H72.5635C71.7315 228 71.6835 227.936 71.6835 227.776V223.504C71.6835 222.304 71.6195 221.856 71.2995 221.504C71.0595 221.248 70.6755 221.056 70.0355 221.056C69.4595 221.056 68.9955 221.216 68.6595 221.472C68.3555 221.712 68.2275 222.016 68.1955 222.416C68.1635 222.816 68.1635 223.488 68.1635 224.224V227.776C68.1635 227.936 68.0675 228 67.2995 228H67.2195ZM78.5629 228.16C77.7469 228.16 77.1549 227.936 76.7549 227.552C76.3229 227.12 76.1309 226.464 76.1309 225.424V221.008H74.8349C74.6909 221.008 74.6429 220.896 74.6429 220.48V220.368C74.6429 219.984 74.6749 219.872 74.8189 219.84C76.1789 219.456 76.4989 218.896 76.6589 217.408C76.6749 217.264 76.7869 217.248 77.2509 217.248H77.3789C77.8749 217.248 77.9709 217.296 77.9709 217.44V219.552H79.9869C80.1149 219.552 80.1629 219.6 80.1629 220.224V220.336C80.1629 220.96 80.1149 221.008 79.9869 221.008H77.9709V225.296C77.9709 225.856 78.0349 226.16 78.2429 226.368C78.4349 226.544 78.6909 226.624 79.0429 226.624C79.3469 226.624 79.6829 226.56 79.9869 226.448C80.1469 226.4 80.1789 226.448 80.3549 226.976L80.4029 227.12C80.5789 227.648 80.5469 227.696 80.3549 227.792C79.8429 228.032 79.1709 228.16 78.5629 228.16ZM82.8758 228C82.0278 228 81.9798 227.952 81.9798 227.792V223.024C81.9798 221.888 81.9478 220.656 81.8997 219.792C81.8838 219.616 81.9478 219.552 82.6998 219.552H82.7958C83.4678 219.552 83.5958 219.584 83.6118 219.728C83.6438 220.016 83.7238 220.8 83.7558 221.44C84.2518 220.128 85.0198 219.408 86.0118 219.408C86.1718 219.408 86.3158 219.424 86.4438 219.472C86.6038 219.536 86.6038 219.616 86.6038 220.128V220.32C86.6038 220.992 86.5398 221.056 86.3798 221.072C85.4998 221.136 84.9078 221.52 84.4758 222.128C83.9798 222.832 83.8198 223.856 83.8198 225.648V227.792C83.8198 227.952 83.7238 228 82.9557 228H82.8758ZM95.2174 226.592C95.3454 226.592 95.3934 226.624 95.3934 227.168V227.296C95.3934 227.76 95.3614 227.84 95.2334 227.888C94.9934 227.984 94.6414 228.048 94.2894 228.048C93.7614 228.048 93.3134 227.904 93.0254 227.584C92.8974 227.44 92.8014 227.264 92.7374 227.072C92.1934 227.76 91.2494 228.16 90.2254 228.16C88.4494 228.16 87.2494 227.024 87.2494 225.52C87.2494 223.792 88.7054 223.088 90.4814 223.088H92.5934V222.768C92.5934 221.568 92.0494 220.944 90.8974 220.944C90.1294 220.944 89.3294 221.168 88.5134 221.52C88.2734 221.616 88.1614 221.584 87.9374 221.056L87.8414 220.832C87.6654 220.416 87.6494 220.256 87.8574 220.144C88.7214 219.68 89.8894 219.392 90.9934 219.392C93.3294 219.392 94.4334 220.624 94.4334 222.736V225.92C94.4334 226.384 94.5294 226.592 94.9774 226.592H95.2174ZM90.6574 226.656C91.9694 226.656 92.5934 225.76 92.5934 224.56V224.432H90.5614C89.6654 224.432 89.1374 224.704 89.1374 225.408C89.1374 226.128 89.7294 226.656 90.6574 226.656ZM99.9066 228.16C99.0906 228.16 98.4986 227.936 98.0986 227.552C97.6666 227.12 97.4746 226.464 97.4746 225.424V221.008H96.1786C96.0346 221.008 95.9866 220.896 95.9866 220.48V220.368C95.9866 219.984 96.0186 219.872 96.1626 219.84C97.5226 219.456 97.8426 218.896 98.0026 217.408C98.0186 217.264 98.1306 217.248 98.5946 217.248H98.7226C99.2186 217.248 99.3146 217.296 99.3146 217.44V219.552H101.331C101.459 219.552 101.507 219.6 101.507 220.224V220.336C101.507 220.96 101.459 221.008 101.331 221.008H99.3146V225.296C99.3146 225.856 99.3786 226.16 99.5866 226.368C99.7786 226.544 100.035 226.624 100.387 226.624C100.691 226.624 101.027 226.56 101.331 226.448C101.491 226.4 101.523 226.448 101.699 226.976L101.747 227.12C101.923 227.648 101.891 227.696 101.699 227.792C101.187 228.032 100.515 228.16 99.9066 228.16ZM110.796 226.592C110.924 226.592 110.972 226.624 110.972 227.168V227.296C110.972 227.76 110.94 227.84 110.812 227.888C110.572 227.984 110.22 228.048 109.868 228.048C109.34 228.048 108.892 227.904 108.604 227.584C108.476 227.44 108.38 227.264 108.316 227.072C107.772 227.76 106.828 228.16 105.804 228.16C104.028 228.16 102.828 227.024 102.828 225.52C102.828 223.792 104.284 223.088 106.06 223.088H108.172V222.768C108.172 221.568 107.628 220.944 106.476 220.944C105.708 220.944 104.908 221.168 104.092 221.52C103.852 221.616 103.74 221.584 103.516 221.056L103.42 220.832C103.243 220.416 103.228 220.256 103.436 220.144C104.299 219.68 105.468 219.392 106.572 219.392C108.908 219.392 110.012 220.624 110.012 222.736V225.92C110.012 226.384 110.108 226.592 110.556 226.592H110.796ZM106.236 226.656C107.548 226.656 108.172 225.76 108.172 224.56V224.432H106.14C105.244 224.432 104.716 224.704 104.716 225.408C104.716 226.128 105.308 226.656 106.236 226.656ZM113.501 228C112.653 228 112.605 227.952 112.605 227.792V223.024C112.605 221.888 112.573 220.656 112.525 219.792C112.509 219.616 112.573 219.552 113.325 219.552H113.421C114.093 219.552 114.221 219.584 114.237 219.728C114.269 220.016 114.349 220.8 114.381 221.44C114.877 220.128 115.645 219.408 116.637 219.408C116.797 219.408 116.941 219.424 117.069 219.472C117.229 219.536 117.229 219.616 117.229 220.128V220.32C117.229 220.992 117.165 221.056 117.005 221.072C116.125 221.136 115.533 221.52 115.101 222.128C114.605 222.832 114.445 223.856 114.445 225.648V227.792C114.445 227.952 114.349 228 113.581 228H113.501Z" fill="white"/>
</g>
<defs>
<filter id="filter0_d_2818_1346" x="0" y="0" width="164" height="270" filterUnits="userSpaceOnUse" color-interpolation-filters="sRGB">
<feFlood flood-opacity="0" result="BackgroundImageFix"/>
<feColorMatrix in="SourceAlpha" type="matrix" values="0 0 0 0 0 0 0 0 0 0 0 0 0 0 0 0 0 0 127 0" result="hardAlpha"/>
<feOffset dy="4"/>
<feGaussianBlur stdDeviation="2"/>
<feComposite in2="hardAlpha" operator="out"/>
<feColorMatrix type="matrix" values="0 0 0 0 0 0 0 0 0 0 0 0 0 0 0 0 0 0 0.25 0"/>
<feBlend mode="normal" in2="BackgroundImageFix" result="effect1_dropShadow_2818_1346"/>
<feBlend mode="normal" in="SourceGraphic" in2="effect1_dropShadow_2818_1346" result="shape"/>
</filter>
<linearGradient id="paint0_linear_2818_1346" x1="84" y1="125.375" x2="84" y2="148.625" gradientUnits="userSpaceOnUse">
<stop offset="0.23" stop-color="#002031"/>
<stop offset="1" stop-color="#00A9B0"/>
</linearGradient>
<linearGradient id="paint1_linear_2818_1346" x1="26.5162" y1="162.672" x2="25.9476" y2="162.678" gradientUnits="userSpaceOnUse">
<stop stop-color="#80020E"/>
<stop offset="1" stop-color="#B10610"/>
</linearGradient>
<linearGradient id="paint2_linear_2818_1346" x1="29.6469" y1="162.305" x2="28.7231" y2="162.314" gradientUnits="userSpaceOnUse">
<stop stop-color="#B10610"/>
<stop offset="1" stop-color="#80020E"/>
</linearGradient>
<radialGradient id="paint3_radial_2818_1346" cx="0" cy="0" r="1" gradientUnits="userSpaceOnUse" gradientTransform="translate(112 165) rotate(90) scale(11.625)">
<stop offset="0.365" stop-color="#1F2733"/>
<stop offset="0.855" stop-color="#00030C"/>
</radialGradient>
<clipPath id="clip0_2818_1346">
<rect width="132" height="74" fill="white" transform="translate(16 103)"/>
</clipPath>
<clipPath id="clip1_2818_1346">
<rect width="20.5643" height="6.41733" fill="white" transform="translate(17.9998 134.873)"/>
</clipPath>
<clipPath id="clip2_2818_1346">
<rect width="24" height="24" fill="white" transform="translate(72 125)"/>
</clipPath>
<clipPath id="clip3_2818_1346">
<rect width="24" height="24" fill="white" transform="translate(100 125)"/>
</clipPath>
<clipPath id="clip4_2818_1346">
<rect width="24" height="24" fill="white" transform="translate(16 153)"/>
</clipPath>
<clipPath id="clip5_2818_1346">
<rect width="12" height="12" fill="white" transform="translate(49.9999 159.184)"/>
</clipPath>
<clipPath id="clip6_2818_1346">
<rect width="19.6364" height="12" fill="white" transform="translate(75 159)"/>
</clipPath>
<clipPath id="clip7_2818_1346">
<rect width="24" height="24" fill="white" transform="translate(100 153)"/>
</clipPath>
</defs>
</svg>
