<svg width="164" height="270" viewBox="0 0 164 270" fill="none" xmlns="http://www.w3.org/2000/svg">
<g filter="url(#filter0_d_2818_1534)">
<rect x="4" width="156" height="262" rx="12" fill="#002198" shape-rendering="crispEdges"/>
<rect x="4.5" y="0.5" width="155" height="261" rx="11.5" stroke="#5270FE" shape-rendering="crispEdges"/>
<path d="M19.348 24C18.916 24 18.844 23.976 18.844 23.868V16.284H16.336C16.228 16.284 16.192 16.224 16.192 15.852V15.78C16.192 15.42 16.216 15.36 16.336 15.36H22.504C22.624 15.36 22.648 15.42 22.648 15.792V15.852C22.648 16.224 22.612 16.284 22.504 16.284H19.996V23.868C19.996 23.988 19.9 24 19.456 24H19.348ZM24.3558 24C23.9118 24 23.8518 23.976 23.8518 23.868V15.492C23.8518 15.384 23.9118 15.36 24.3558 15.36H24.4758C24.9198 15.36 25.0038 15.372 25.0038 15.492V23.868C25.0038 23.988 24.9198 24 24.4758 24H24.3558ZM27.4958 24C27.0158 24 26.9558 23.988 26.9558 23.88V15.504C26.9558 15.384 27.0278 15.36 27.5198 15.36H27.7358C28.1918 15.36 28.2878 15.396 28.3358 15.504L30.0278 18.912C30.4358 19.74 30.8078 20.52 31.0838 21.18C31.3838 20.46 31.7558 19.608 32.0918 18.912L33.7598 15.504C33.8078 15.396 33.8918 15.36 34.3838 15.36H34.5398C35.0078 15.36 35.0798 15.384 35.0798 15.504V23.88C35.0798 23.988 35.0198 24 34.5758 24H34.4918C34.0238 24 33.9758 23.988 33.9758 23.88V19.896C33.9758 19.212 33.9878 17.832 33.9998 17.208C33.6998 17.952 33.2798 18.84 32.9078 19.596L31.5518 22.356C31.5038 22.452 31.4678 22.476 31.0718 22.476H31.0358C30.5918 22.476 30.5678 22.452 30.5198 22.356L29.1038 19.536C28.7198 18.768 28.3838 18.048 28.0358 17.208C28.0598 17.88 28.0598 19.14 28.0598 19.908V23.88C28.0598 23.988 28.0118 24 27.5558 24H27.4958ZM43.3353 24.12C41.0313 24.12 39.9393 23.028 39.9393 20.856V15.492C39.9393 15.384 40.0593 15.36 40.4193 15.36H40.5633C40.9593 15.36 41.0793 15.384 41.0793 15.492V20.772C41.0793 22.344 41.8233 23.16 43.3953 23.16C44.8953 23.16 45.7113 22.284 45.7113 20.784V15.492C45.7113 15.384 45.8193 15.36 46.1913 15.36H46.3353C46.7313 15.36 46.8393 15.384 46.8393 15.492V20.64C46.8393 22.944 45.6993 24.12 43.3353 24.12ZM49.7021 24.012C49.3661 24.012 49.0301 23.928 48.8141 23.604C48.6581 23.376 48.6101 22.98 48.6101 22.344V18.324C48.6101 17.064 48.5981 15.504 48.5381 15.036C48.5261 14.916 48.6461 14.88 49.0541 14.88H49.1261C49.5101 14.88 49.5941 14.916 49.6181 15.036C49.6781 15.372 49.6901 16.812 49.6901 18.588V22.572C49.6901 23.016 49.7501 23.172 50.1461 23.172H50.2661C50.3261 23.172 50.3381 23.22 50.3381 23.496V23.532C50.3381 23.844 50.3381 23.892 50.2661 23.916C50.0981 23.976 49.8821 24.012 49.7021 24.012ZM53.6364 24.12C53.0964 24.12 52.7004 23.976 52.4364 23.724C52.0884 23.4 51.9804 22.944 51.9804 22.14V18.516H50.9364C50.8644 18.516 50.8404 18.456 50.8404 18.24V18.168C50.8404 17.976 50.8644 17.904 50.9484 17.88C51.9924 17.58 52.1844 17.1 52.3044 15.984C52.3164 15.912 52.3764 15.888 52.6404 15.888H52.7244C53.0004 15.888 53.0604 15.924 53.0604 15.996V17.664H54.5724C54.6564 17.664 54.6804 17.724 54.6804 18.036V18.132C54.6804 18.456 54.6564 18.516 54.5724 18.516H53.0604V22.056C53.0604 22.512 53.0964 22.812 53.2524 22.98C53.3844 23.124 53.5884 23.196 53.8644 23.196C54.1404 23.196 54.4404 23.112 54.6804 23.04C54.8004 23.004 54.8364 23.052 54.8964 23.28L54.9324 23.436C54.9924 23.688 54.9924 23.76 54.8964 23.82C54.5964 24.012 54.0804 24.12 53.6364 24.12ZM56.6744 24C56.1944 24 56.1584 23.952 56.1584 23.856V19.764C56.1584 18.948 56.1344 18.108 56.1344 17.808C56.1344 17.712 56.1704 17.664 56.6264 17.664H56.6864C57.1184 17.664 57.1784 17.7 57.1784 17.808L57.2024 19.044C57.6584 18.036 58.3184 17.592 58.9544 17.592C59.0624 17.592 59.1464 17.604 59.2064 17.616C59.3144 17.64 59.3264 17.676 59.3264 17.952V18.132C59.3264 18.48 59.3144 18.576 59.1944 18.576C58.3424 18.576 57.9104 19.104 57.5624 19.668C57.3944 19.944 57.2984 20.28 57.2744 20.7C57.2504 21.036 57.2384 21.78 57.2384 22.476V23.856C57.2384 23.94 57.2264 24 56.7464 24H56.6744ZM62.4674 24.12C60.7154 24.12 59.8994 22.668 59.8994 20.94C59.8994 18.888 61.0754 17.544 62.6594 17.544C63.3794 17.544 63.9434 17.88 64.2794 18.312L64.3394 17.808C64.3514 17.664 64.4114 17.664 64.7714 17.664H64.7954C65.2514 17.664 65.2634 17.712 65.2634 17.808C65.2634 18.096 65.2394 18.864 65.2394 19.632V21.312C65.2394 22.416 65.2874 23.196 65.3234 23.856C65.3234 23.952 65.2634 24 64.8914 24H64.8434C64.4714 24 64.3994 23.964 64.3874 23.856L64.3154 23.304C63.9314 23.772 63.2474 24.12 62.4674 24.12ZM62.6594 23.16C63.0554 23.16 63.5354 23.04 63.8594 22.692C64.1114 22.416 64.1594 22.08 64.1594 21.036V19.332C63.8834 18.9 63.3434 18.516 62.7794 18.516C61.6754 18.516 61.0274 19.44 61.0274 20.88C61.0274 22.008 61.4234 23.16 62.6594 23.16ZM67.656 24C67.164 24 67.116 23.988 67.116 23.856V15.36H72.24C72.36 15.36 72.384 15.408 72.384 15.78V15.852C72.384 16.224 72.36 16.284 72.24 16.284H68.256V19.164H71.64C71.748 19.164 71.784 19.212 71.784 19.584V19.656C71.784 20.028 71.748 20.088 71.64 20.088H68.256V23.856C68.256 23.976 68.196 24 67.74 24H67.656ZM74.0416 16.476C73.6216 16.476 73.2856 16.14 73.2856 15.72C73.2856 15.3 73.6216 14.964 74.0416 14.964C74.4616 14.964 74.7976 15.3 74.7976 15.72C74.7976 16.14 74.4616 16.476 74.0416 16.476ZM74.0176 24C73.5376 24 73.5016 23.952 73.5016 23.856V17.808C73.5016 17.712 73.5376 17.664 74.0176 17.664H74.0896C74.5696 17.664 74.5816 17.724 74.5816 17.808V23.856C74.5816 23.94 74.5696 24 74.0896 24H74.0176ZM78.5924 24.12C77.6684 24.12 76.9604 23.952 76.4084 23.7C76.3844 23.688 76.3724 23.628 76.3724 23.58V15.024C76.3724 14.928 76.4084 14.88 76.8884 14.88H76.9604C77.4404 14.88 77.4524 14.94 77.4524 15.024V18.252C77.8004 17.844 78.5324 17.544 79.2404 17.544C80.2004 17.544 80.9204 18.048 81.3044 18.864C81.5324 19.356 81.6644 19.98 81.6644 20.664C81.6644 22.788 80.6204 24.12 78.5924 24.12ZM78.4964 23.184C79.8644 23.184 80.5364 22.188 80.5364 20.748C80.5364 19.308 80.0204 18.564 79.0004 18.564C78.5564 18.564 78.0884 18.732 77.8124 19.008C77.6684 19.152 77.5364 19.356 77.4884 19.872C77.4644 20.208 77.4524 20.796 77.4524 21.492V22.98C77.7524 23.1 78.1484 23.184 78.4964 23.184ZM83.6392 24C83.1592 24 83.1232 23.952 83.1232 23.856V19.764C83.1232 18.948 83.0992 18.108 83.0992 17.808C83.0992 17.712 83.1352 17.664 83.5912 17.664H83.6512C84.0832 17.664 84.1432 17.7 84.1432 17.808L84.1672 19.044C84.6232 18.036 85.2832 17.592 85.9192 17.592C86.0272 17.592 86.1112 17.604 86.1712 17.616C86.2792 17.64 86.2912 17.676 86.2912 17.952V18.132C86.2912 18.48 86.2792 18.576 86.1592 18.576C85.3072 18.576 84.8752 19.104 84.5272 19.668C84.3592 19.944 84.2632 20.28 84.2392 20.7C84.2152 21.036 84.2032 21.78 84.2032 22.476V23.856C84.2032 23.94 84.1912 24 83.7112 24H83.6392ZM89.4322 24.12C87.6802 24.12 86.8642 22.668 86.8642 20.94C86.8642 18.888 88.0402 17.544 89.6242 17.544C90.3442 17.544 90.9082 17.88 91.2442 18.312L91.3042 17.808C91.3162 17.664 91.3762 17.664 91.7362 17.664H91.7602C92.2162 17.664 92.2282 17.712 92.2282 17.808C92.2282 18.096 92.2042 18.864 92.2042 19.632V21.312C92.2042 22.416 92.2522 23.196 92.2882 23.856C92.2882 23.952 92.2282 24 91.8562 24H91.8082C91.4362 24 91.3642 23.964 91.3522 23.856L91.2802 23.304C90.8962 23.772 90.2122 24.12 89.4322 24.12ZM89.6242 23.16C90.0202 23.16 90.5002 23.04 90.8242 22.692C91.0762 22.416 91.1242 22.08 91.1242 21.036V19.332C90.8482 18.9 90.3082 18.516 89.7442 18.516C88.6402 18.516 87.9922 19.44 87.9922 20.88C87.9922 22.008 88.3882 23.16 89.6242 23.16Z" fill="white"/>
<path d="M22.6 55.24C18.64 55.24 16.936 52.192 16.936 47.656C16.936 41.92 19.36 37.48 23.776 37.48C25.096 37.48 26.248 37.888 26.992 38.344C27.304 38.536 27.304 38.68 26.992 39.256L26.728 39.76C26.44 40.336 26.32 40.36 26.08 40.264C25.36 39.928 24.64 39.736 23.896 39.736C21.352 39.736 20.296 42.232 19.936 45.208C20.872 44.536 22.12 44.056 23.344 44.056C26.44 44.056 28.264 46.216 28.264 49.288C28.264 52.504 26.128 55.24 22.6 55.24ZM22.696 52.96C24.352 52.96 25.456 51.52 25.456 49.456C25.456 47.584 24.64 46.288 22.696 46.288C21.736 46.288 20.608 46.72 19.816 47.248C19.84 51.112 20.704 52.96 22.696 52.96ZM36.0353 55.24C32.3633 55.24 30.1793 52.432 30.1793 46.696C30.1793 40.696 32.4593 37.48 36.4193 37.48C40.0673 37.48 42.2513 40.24 42.2513 46.024C42.2513 51.976 39.9713 55.24 36.0353 55.24ZM36.1073 52.888C38.3153 52.888 39.3473 50.488 39.3473 46.168C39.3473 41.872 38.3393 39.832 36.2993 39.832C34.1393 39.832 33.0833 42.208 33.0833 46.528C33.0833 50.824 34.0913 52.888 36.1073 52.888ZM50.0744 55.24C46.4024 55.24 44.2184 52.432 44.2184 46.696C44.2184 40.696 46.4984 37.48 50.4584 37.48C54.1064 37.48 56.2904 40.24 56.2904 46.024C56.2904 51.976 54.0104 55.24 50.0744 55.24ZM50.1464 52.888C52.3544 52.888 53.3864 50.488 53.3864 46.168C53.3864 41.872 52.3784 39.832 50.3384 39.832C48.1784 39.832 47.1224 42.208 47.1224 46.528C47.1224 50.824 48.1304 52.888 50.1464 52.888ZM66.5117 55C65.2878 55 65.1678 54.976 65.1678 54.688V38.056C65.1678 37.744 65.3838 37.72 66.5117 37.72H67.2798C68.4318 37.72 68.6238 37.792 68.7678 38.08L71.5278 43.72C72.4398 45.568 73.2558 47.536 73.7358 48.832C74.2158 47.536 75.0798 45.544 75.9438 43.72L78.6558 38.08C78.7998 37.792 78.9918 37.72 80.1438 37.72H80.7678C81.8718 37.72 82.0878 37.792 82.0878 38.056V54.688C82.0878 54.976 81.9438 55 80.7678 55H80.5758C79.3518 55 79.2558 54.976 79.2558 54.688V47.44C79.2558 46.144 79.2798 43.408 79.3518 42.304C78.7278 43.96 78.0558 45.472 77.1438 47.368L75.0558 51.712C74.9358 51.952 74.8878 52 73.7838 52H73.5438C72.4398 52 72.3438 51.952 72.2238 51.712L70.0878 47.368C69.1758 45.52 68.5278 44.032 67.8798 42.328C67.9758 43.456 67.9998 46.096 67.9998 47.464V54.688C67.9998 54.976 67.8558 55 66.6558 55H66.5117ZM86.8499 55C85.9619 55 85.7459 54.952 85.7459 54.76V37.96C85.7459 37.744 85.9859 37.72 86.8019 37.72H96.3299C96.6179 37.72 96.6659 37.792 96.6659 38.8V38.968C96.6659 39.928 96.5939 40.072 96.3299 40.072H88.6979V45.088H95.1779C95.4659 45.088 95.5139 45.16 95.5139 46.168V46.312C95.5139 47.296 95.4419 47.44 95.1779 47.44H88.6979V52.648H96.4259C96.7139 52.648 96.7619 52.72 96.7619 53.728V53.896C96.7619 54.832 96.7139 55 96.4259 55H86.8499ZM107.27 55.24C101.726 55.24 99.0621 51.808 99.0621 46.408C99.0621 40.984 102.158 37.48 107.51 37.48C109.574 37.48 111.326 37.96 112.838 38.968C113.102 39.136 113.102 39.28 112.694 40L112.406 40.504C112.046 41.128 111.926 41.176 111.614 41.008C110.39 40.288 109.07 39.952 107.678 39.952C104.078 39.952 102.086 42.208 102.086 46.36C102.086 50.584 103.982 52.792 107.582 52.792C108.518 52.792 109.646 52.624 110.438 52.384V47.872H107.054C106.766 47.872 106.67 47.8 106.67 46.768V46.6C106.67 45.568 106.742 45.52 107.054 45.52H112.478C113.222 45.52 113.342 45.592 113.342 45.88V53.656C113.342 53.92 113.27 54.04 113.006 54.16C111.71 54.784 109.31 55.24 107.27 55.24ZM116.561 55C115.313 55 115.265 54.904 115.361 54.64L121.769 38.08C121.889 37.768 121.985 37.72 123.185 37.72H123.377C124.625 37.72 124.721 37.744 124.865 38.08L131.393 54.616C131.513 54.928 131.345 55 130.145 55H129.833C128.609 55 128.393 54.904 128.297 54.64L126.761 50.536H119.801L118.313 54.64C118.169 54.952 118.025 55 116.801 55H116.561ZM120.641 48.28H125.945L125.297 46.504C124.409 44.056 123.809 42.328 123.305 40.744C122.777 42.28 122.153 44.176 121.313 46.432L120.641 48.28Z" fill="white"/>
<path d="M30.016 84.14C30.184 84.404 29.944 84.5 29.272 84.5H28.624C27.784 84.5 27.616 84.476 27.448 84.212L24.448 79.292C23.392 77.564 23.032 77.444 21.328 77.444H20.2V84.236C20.2 84.476 20.032 84.5 19.144 84.5H18.904C18.016 84.5 17.896 84.452 17.896 84.236V67.22H22.288C26.8 67.22 29.344 68.54 29.344 72.044C29.344 74.708 27.832 76.316 25.288 77.084C25.72 77.42 26.104 77.948 26.704 78.884L30.016 84.14ZM22.624 75.62C25.336 75.62 26.968 74.588 26.968 72.188C26.968 69.788 25.384 69.068 22.504 69.068H20.2V75.62H22.624ZM43.2691 79.868C43.2691 82.364 41.5171 84.212 38.5891 84.644V86.804C38.5891 86.996 38.3731 87.068 37.8211 87.068H37.3651C36.7651 87.068 36.5731 86.996 36.5731 86.804V84.716C34.7251 84.596 32.9011 83.996 31.9651 83.276C31.7491 83.108 31.7011 82.964 32.0611 82.316L32.2051 82.052C32.4931 81.524 32.6371 81.452 32.8531 81.572C34.1251 82.34 35.6131 82.844 37.1011 82.844C39.5011 82.844 40.9891 81.644 40.9891 79.868C40.9891 78.356 40.0051 77.732 37.0291 76.388C33.8611 74.948 32.5891 73.7 32.5891 71.516C32.5891 69.068 34.5331 67.412 37.1011 67.052V65.084C37.1011 64.892 37.3171 64.82 37.8691 64.82H38.3251C38.9251 64.82 39.1171 64.892 39.1171 65.084V67.028C40.4371 67.148 41.5891 67.532 42.5731 68.18C42.8371 68.348 42.8371 68.444 42.5251 69.068L42.4051 69.308C42.0931 69.932 41.9971 69.956 41.7331 69.812C40.5331 69.188 39.4291 68.852 38.2531 68.852C36.3091 68.852 34.8691 69.884 34.8691 71.396C34.8691 72.812 35.8771 73.484 38.4451 74.684C41.6131 76.172 43.2691 77.324 43.2691 79.868ZM46.9268 84.5C46.7828 84.5 46.7348 84.404 46.7348 83.804V83.42C46.7348 82.82 46.7828 82.724 46.9268 82.724H49.6148V69.836L46.2308 71.852C46.0628 71.948 45.7988 71.756 45.5588 71.324L45.3908 71.036C45.1508 70.628 45.1028 70.292 45.2468 70.196L49.6388 67.46C49.8788 67.316 50.1668 67.22 50.6228 67.22H51.0548C51.6788 67.22 51.8948 67.292 51.8948 67.484V82.724H54.3908C54.5348 82.724 54.5828 82.916 54.5828 83.396V83.804C54.5828 84.26 54.5348 84.5 54.3908 84.5H46.9268ZM58.3409 84.5C58.1969 84.5 58.1489 84.404 58.1489 83.804V83.42C58.1489 82.82 58.1969 82.724 58.3409 82.724H61.0289V69.836L57.6449 71.852C57.4769 71.948 57.2129 71.756 56.9729 71.324L56.8049 71.036C56.5649 70.628 56.5169 70.292 56.6609 70.196L61.0529 67.46C61.2929 67.316 61.5809 67.22 62.0369 67.22H62.4689C63.0929 67.22 63.3089 67.292 63.3089 67.484V82.724H65.8049C65.9489 82.724 65.9969 82.916 65.9969 83.396V83.804C65.9969 84.26 65.9489 84.5 65.8049 84.5H58.3409ZM72.3949 84.74C70.9789 84.74 69.8749 84.428 68.8909 83.924C68.7229 83.828 68.7469 83.396 68.9149 83.012L69.0109 82.796C69.1789 82.412 69.4669 82.1 69.6349 82.196C70.3789 82.604 71.5069 82.844 72.3949 82.844C75.9709 82.844 76.8829 79.172 77.0749 76.028C76.1149 76.844 74.6509 77.372 73.3069 77.372C69.9469 77.372 68.4349 75.284 68.4349 72.356C68.4349 69.26 70.3549 66.98 73.9069 66.98C78.3469 66.98 79.4269 70.508 79.4269 74.468C79.4269 79.556 77.8669 84.74 72.3949 84.74ZM73.6189 75.476C75.0589 75.476 76.2829 74.852 77.1709 74.3V74.012C77.1709 71.708 76.7869 68.852 73.8349 68.852C71.4829 68.852 70.7149 70.628 70.7149 72.14C70.7149 73.82 71.2909 75.476 73.6189 75.476Z" fill="white"/>
<path d="M82.008 75.968C81.912 76.052 81.78 76.064 81.66 75.944L81.528 75.8C81.456 75.728 81.384 75.596 81.504 75.476C81.852 75.14 82.2 74.696 82.2 74.276C82.2 73.784 81.672 73.88 81.672 73.196C81.672 72.776 82.02 72.5 82.428 72.5C82.98 72.5 83.304 72.92 83.304 73.436C83.304 74.384 82.776 75.356 82.008 75.968ZM86.4865 74.12C85.7785 74.12 85.2265 73.964 84.7345 73.712C84.6505 73.664 84.6625 73.448 84.7465 73.256L84.7945 73.148C84.8785 72.956 85.0225 72.8 85.1065 72.848C85.4785 73.052 86.0425 73.172 86.4865 73.172C88.2745 73.172 88.7305 71.336 88.8265 69.764C88.3465 70.172 87.6145 70.436 86.9425 70.436C85.2625 70.436 84.5065 69.392 84.5065 67.928C84.5065 66.38 85.4665 65.24 87.2425 65.24C89.4625 65.24 90.0025 67.004 90.0025 68.984C90.0025 71.528 89.2225 74.12 86.4865 74.12ZM87.0985 69.488C87.8185 69.488 88.4305 69.176 88.8745 68.9V68.756C88.8745 67.604 88.6825 66.176 87.2065 66.176C86.0305 66.176 85.6465 67.064 85.6465 67.82C85.6465 68.66 85.9345 69.488 87.0985 69.488ZM93.1545 74.12C92.4465 74.12 91.8945 73.964 91.4025 73.712C91.3185 73.664 91.3305 73.448 91.4145 73.256L91.4625 73.148C91.5465 72.956 91.6905 72.8 91.7745 72.848C92.1465 73.052 92.7105 73.172 93.1545 73.172C94.9425 73.172 95.3985 71.336 95.4945 69.764C95.0145 70.172 94.2825 70.436 93.6105 70.436C91.9305 70.436 91.1745 69.392 91.1745 67.928C91.1745 66.38 92.1345 65.24 93.9105 65.24C96.1305 65.24 96.6705 67.004 96.6705 68.984C96.6705 71.528 95.8905 74.12 93.1545 74.12ZM93.7665 69.488C94.4865 69.488 95.0985 69.176 95.5425 68.9V68.756C95.5425 67.604 95.3505 66.176 93.8745 66.176C92.6985 66.176 92.3145 67.064 92.3145 67.82C92.3145 68.66 92.6025 69.488 93.7665 69.488Z" fill="white"/>
<path d="M81.516 86.204C81.228 86.204 81.12 86.156 81.144 86.06L83.784 77.264C83.82 77.156 83.928 77.144 84.204 77.144H84.432C84.72 77.144 84.84 77.192 84.816 77.288L82.188 86.084C82.164 86.168 82.032 86.204 81.756 86.204H81.516ZM86.3649 86C85.8849 86 85.8489 85.952 85.8489 85.856V81.764C85.8489 80.948 85.8249 80.108 85.8249 79.808C85.8249 79.712 85.8609 79.664 86.3169 79.664H86.3769C86.8089 79.664 86.8689 79.7 86.8689 79.808L86.8809 80.348H86.8929C87.3129 79.856 88.0089 79.544 88.7529 79.544C89.4129 79.544 89.9769 79.772 90.3729 80.18C90.4809 80.3 90.5769 80.42 90.6489 80.564C91.1289 79.904 91.9569 79.544 92.8089 79.544C93.4689 79.544 94.0329 79.772 94.4289 80.18C94.8609 80.624 95.0409 81.248 95.0409 82.22V85.856C95.0409 85.94 95.0289 86 94.5489 86H94.4769C93.9969 86 93.9609 85.952 93.9609 85.856V82.724C93.9609 81.752 93.9249 81.296 93.6369 80.96C93.4089 80.684 93.0009 80.564 92.5449 80.564C92.1249 80.564 91.6209 80.72 91.3449 80.984C91.2009 81.116 91.0689 81.32 91.0209 81.836C90.9969 82.172 90.9849 82.784 90.9849 83.48V85.856C90.9849 85.94 90.9729 86 90.4929 86H90.4209C89.9409 86 89.9049 85.952 89.9049 85.856V82.724C89.9049 81.752 89.8689 81.296 89.5809 80.96C89.3529 80.684 88.9449 80.564 88.4889 80.564C88.0689 80.564 87.5649 80.72 87.2889 80.984C87.1449 81.116 87.0129 81.32 86.9649 81.836C86.9409 82.172 86.9289 82.784 86.9289 83.48V85.856C86.9289 85.94 86.9169 86 86.4369 86H86.3649ZM100.575 78.872L99.2548 77.72L97.9108 78.86C97.8628 78.908 97.7428 78.86 97.6228 78.728L97.5388 78.632C97.3948 78.476 97.3588 78.38 97.4188 78.308L98.5108 77.144C98.5948 77.048 98.7268 76.988 99.0388 76.988H99.4948C99.8308 76.988 99.9628 77.072 100.035 77.156L101.103 78.284C101.175 78.356 101.127 78.476 100.983 78.632L100.887 78.74C100.779 78.872 100.635 78.932 100.575 78.872ZM99.3628 86.12C97.4188 86.12 96.4228 84.908 96.4228 82.976C96.4228 80.96 97.5268 79.544 99.3028 79.544C100.371 79.544 101.103 80.072 101.499 80.864C101.775 81.416 101.895 82.076 101.895 82.784C101.895 83.144 101.871 83.216 101.775 83.216H97.5508C97.5868 83.876 97.7788 84.392 98.1508 84.704C98.4748 84.992 98.9428 85.136 99.5668 85.136C100.071 85.136 100.575 85.016 101.151 84.752C101.259 84.704 101.331 84.68 101.451 84.98L101.511 85.124C101.643 85.436 101.631 85.508 101.535 85.568C100.923 85.928 100.167 86.12 99.3628 86.12ZM97.5868 82.328H100.791C100.779 81.428 100.323 80.528 99.3148 80.528C98.4388 80.528 97.7548 81.092 97.5868 82.328ZM104.978 86.12C104.21 86.12 103.466 85.844 103.01 85.52C102.89 85.436 102.926 85.364 103.058 85.088L103.118 84.956C103.274 84.62 103.322 84.608 103.478 84.704C103.934 84.968 104.51 85.184 105.038 85.184C105.59 85.184 106.358 84.908 106.358 84.212C106.358 83.564 105.59 83.348 104.978 83.216C104.342 83.072 103.874 82.904 103.55 82.604C103.25 82.328 103.07 81.908 103.07 81.44C103.07 80.264 104.09 79.544 105.29 79.544C106.046 79.544 106.742 79.808 107.186 80.204C107.282 80.288 107.306 80.396 107.138 80.636L107.054 80.756C106.838 81.068 106.778 81.068 106.694 80.996C106.25 80.684 105.83 80.468 105.302 80.468C104.81 80.468 104.102 80.66 104.102 81.32C104.102 81.968 104.774 82.136 105.35 82.28C106.334 82.532 107.378 82.892 107.378 84.14C107.378 85.424 106.298 86.12 104.978 86.12Z" fill="white"/>
<path d="M17.44 110C16.984 110 16.948 109.988 16.948 109.868V101.492C16.948 101.372 16.984 101.36 17.404 101.36H17.5C18.016 101.36 18.064 101.372 18.16 101.504L21.124 105.836C21.82 106.844 22.408 107.732 22.84 108.428C22.828 107.6 22.816 106.52 22.816 105.704V101.492C22.816 101.372 22.864 101.36 23.284 101.36H23.38C23.8 101.36 23.872 101.372 23.872 101.492V109.868C23.872 109.988 23.836 110 23.404 110H23.32C22.816 110 22.756 109.988 22.672 109.856L19.708 105.524C19.072 104.612 18.484 103.736 17.98 102.956C17.992 103.844 18.004 105.092 18.004 105.884V109.868C18.004 109.988 17.956 110 17.524 110H17.44ZM28.1122 110.12C27.3802 110.12 26.7682 109.928 26.3122 109.52C25.7122 108.992 25.3642 108.104 25.3642 106.976C25.3642 104.708 26.5522 103.544 28.3522 103.544C29.0842 103.544 29.6962 103.736 30.1522 104.144C30.7522 104.672 31.1002 105.56 31.1002 106.688C31.1002 108.956 29.9122 110.12 28.1122 110.12ZM28.1602 109.16C29.1202 109.16 29.9722 108.488 29.9722 106.772C29.9722 105.692 29.6122 104.504 28.3042 104.504C27.3442 104.504 26.4922 105.176 26.4922 106.892C26.4922 107.972 26.8522 109.16 28.1602 109.16ZM37.7525 110.12C36.1685 110.12 35.1845 108.932 35.1845 106.964C35.1845 105.164 36.1205 103.544 38.1005 103.544C38.5925 103.544 39.1565 103.736 39.4565 103.94V101.036C39.4565 100.916 39.5645 100.88 39.9725 100.88H40.0445C40.4285 100.88 40.5365 100.916 40.5365 101.036V108.5C40.5365 109.1 40.6325 109.148 40.9565 109.148C41.0285 109.148 41.0645 109.22 41.0645 109.472V109.556C41.0645 109.844 41.0285 109.928 40.9565 109.952C40.7885 110.012 40.6325 110.024 40.4285 110.024C40.0685 110.024 39.7445 109.796 39.6005 109.328H39.5885C39.2885 109.736 38.6165 110.12 37.7525 110.12ZM37.9685 109.16C38.3765 109.16 38.8325 109.028 39.1085 108.752C39.3845 108.476 39.4565 108.08 39.4565 107.072V104.972C39.1565 104.72 38.6405 104.528 38.1605 104.528C37.0325 104.528 36.3125 105.476 36.3125 106.928C36.3125 108.404 37.0325 109.16 37.9685 109.16ZM44.7015 102.908C44.3175 102.908 44.2935 102.836 44.3415 102.764L45.2175 101.228C45.2655 101.144 45.4095 101.096 45.7455 101.096H45.8895C46.3335 101.096 46.4175 101.18 46.3575 101.264L45.2295 102.8C45.1935 102.86 45.0855 102.908 44.7975 102.908H44.7015ZM45.0855 110.12C43.1415 110.12 42.1455 108.908 42.1455 106.976C42.1455 104.96 43.2495 103.544 45.0255 103.544C46.0935 103.544 46.8255 104.072 47.2215 104.864C47.4975 105.416 47.6175 106.076 47.6175 106.784C47.6175 107.144 47.5935 107.216 47.4975 107.216H43.2735C43.3095 107.876 43.5015 108.392 43.8735 108.704C44.1975 108.992 44.6655 109.136 45.2895 109.136C45.7935 109.136 46.2975 109.016 46.8735 108.752C46.9815 108.704 47.0535 108.68 47.1735 108.98L47.2335 109.124C47.3655 109.436 47.3535 109.508 47.2575 109.568C46.6455 109.928 45.8895 110.12 45.0855 110.12ZM43.3095 106.328H46.5135C46.5015 105.428 46.0455 104.528 45.0375 104.528C44.1615 104.528 43.4775 105.092 43.3095 106.328ZM51.2408 110.12C50.3168 110.12 49.6088 109.952 49.0568 109.7C49.0328 109.688 49.0208 109.628 49.0208 109.58V101.024C49.0208 100.928 49.0568 100.88 49.5368 100.88H49.6088C50.0888 100.88 50.1008 100.94 50.1008 101.024V104.252C50.4488 103.844 51.1808 103.544 51.8888 103.544C52.8488 103.544 53.5688 104.048 53.9528 104.864C54.1808 105.356 54.3128 105.98 54.3128 106.664C54.3128 108.788 53.2688 110.12 51.2408 110.12ZM51.1448 109.184C52.5128 109.184 53.1848 108.188 53.1848 106.748C53.1848 105.308 52.6688 104.564 51.6488 104.564C51.2048 104.564 50.7368 104.732 50.4608 105.008C50.3168 105.152 50.1848 105.356 50.1368 105.872C50.1128 106.208 50.1008 106.796 50.1008 107.492V108.98C50.4008 109.1 50.7968 109.184 51.1448 109.184ZM56.2877 102.476C55.8677 102.476 55.5317 102.14 55.5317 101.72C55.5317 101.3 55.8677 100.964 56.2877 100.964C56.7077 100.964 57.0437 101.3 57.0437 101.72C57.0437 102.14 56.7077 102.476 56.2877 102.476ZM56.2637 110C55.7837 110 55.7477 109.952 55.7477 109.856V103.808C55.7477 103.712 55.7837 103.664 56.2637 103.664H56.3357C56.8157 103.664 56.8277 103.724 56.8277 103.808V109.856C56.8277 109.94 56.8157 110 56.3357 110H56.2637ZM60.5505 110.12C60.0105 110.12 59.6145 109.976 59.3505 109.724C59.0025 109.4 58.8945 108.944 58.8945 108.14V104.516H57.8505C57.7785 104.516 57.7545 104.456 57.7545 104.24V104.168C57.7545 103.976 57.7785 103.904 57.8625 103.88C58.9065 103.58 59.0985 103.1 59.2185 101.984C59.2305 101.912 59.2905 101.888 59.5545 101.888H59.6385C59.9145 101.888 59.9745 101.924 59.9745 101.996V103.664H61.4865C61.5705 103.664 61.5945 103.724 61.5945 104.036V104.132C61.5945 104.456 61.5705 104.516 61.4865 104.516H59.9745V108.056C59.9745 108.512 60.0105 108.812 60.1665 108.98C60.2985 109.124 60.5025 109.196 60.7785 109.196C61.0545 109.196 61.3545 109.112 61.5945 109.04C61.7145 109.004 61.7505 109.052 61.8105 109.28L61.8465 109.436C61.9065 109.688 61.9065 109.76 61.8105 109.82C61.5105 110.012 60.9945 110.12 60.5505 110.12ZM65.4364 110.12C64.7044 110.12 64.0924 109.928 63.6364 109.52C63.0364 108.992 62.6884 108.104 62.6884 106.976C62.6884 104.708 63.8764 103.544 65.6764 103.544C66.4084 103.544 67.0204 103.736 67.4764 104.144C68.0764 104.672 68.4244 105.56 68.4244 106.688C68.4244 108.956 67.2364 110.12 65.4364 110.12ZM65.4844 109.16C66.4444 109.16 67.2964 108.488 67.2964 106.772C67.2964 105.692 66.9364 104.504 65.6284 104.504C64.6684 104.504 63.8164 105.176 63.8164 106.892C63.8164 107.972 64.1764 109.16 65.4844 109.16ZM75.0768 110.12C73.3248 110.12 72.5088 108.668 72.5088 106.94C72.5088 104.888 73.6848 103.544 75.2688 103.544C75.9888 103.544 76.5528 103.88 76.8888 104.312L76.9488 103.808C76.9608 103.664 77.0208 103.664 77.3808 103.664H77.4048C77.8608 103.664 77.8728 103.712 77.8728 103.808C77.8728 104.096 77.8488 104.864 77.8488 105.632V107.312C77.8488 108.416 77.8968 109.196 77.9328 109.856C77.9328 109.952 77.8728 110 77.5008 110H77.4528C77.0808 110 77.0088 109.964 76.9968 109.856L76.9248 109.304C76.5408 109.772 75.8568 110.12 75.0768 110.12ZM75.2688 109.16C75.6648 109.16 76.1448 109.04 76.4688 108.692C76.7208 108.416 76.7688 108.08 76.7688 107.036V105.332C76.4928 104.9 75.9528 104.516 75.3888 104.516C74.2848 104.516 73.6368 105.44 73.6368 106.88C73.6368 108.008 74.0328 109.16 75.2688 109.16ZM81.7893 110.12C81.1413 110.12 80.5893 109.904 80.1933 109.484C79.7733 109.04 79.6053 108.416 79.6053 107.444V103.808C79.6053 103.724 79.6293 103.664 80.0853 103.664H80.1813C80.6373 103.664 80.6853 103.712 80.6853 103.808V106.952C80.6853 107.9 80.7213 108.392 80.9853 108.716C81.2013 108.98 81.5613 109.124 82.0533 109.124C82.5213 109.124 83.0733 108.968 83.3613 108.692C83.6133 108.452 83.7453 108.092 83.7453 106.772V103.808C83.7453 103.724 83.8173 103.664 84.2253 103.664H84.3333C84.7413 103.664 84.8253 103.712 84.8253 103.808V107.9C84.8253 108.716 84.8493 109.556 84.8493 109.856C84.8493 109.952 84.8133 110 84.3573 110H84.3093C83.8893 110 83.8173 109.952 83.8173 109.856L83.7933 109.34H83.7813C83.3373 109.832 82.6773 110.12 81.7893 110.12ZM88.57 110.12C88.03 110.12 87.634 109.976 87.37 109.724C87.022 109.4 86.914 108.944 86.914 108.14V104.516H85.87C85.798 104.516 85.774 104.456 85.774 104.24V104.168C85.774 103.976 85.798 103.904 85.882 103.88C86.926 103.58 87.118 103.1 87.238 101.984C87.25 101.912 87.31 101.888 87.574 101.888H87.658C87.934 101.888 87.994 101.924 87.994 101.996V103.664H89.506C89.59 103.664 89.614 103.724 89.614 104.036V104.132C89.614 104.456 89.59 104.516 89.506 104.516H87.994V108.056C87.994 108.512 88.03 108.812 88.186 108.98C88.318 109.124 88.522 109.196 88.798 109.196C89.074 109.196 89.374 109.112 89.614 109.04C89.734 109.004 89.77 109.052 89.83 109.28L89.866 109.436C89.926 109.688 89.926 109.76 89.83 109.82C89.53 110.012 89.014 110.12 88.57 110.12ZM93.456 110.12C92.724 110.12 92.112 109.928 91.656 109.52C91.056 108.992 90.708 108.104 90.708 106.976C90.708 104.708 91.896 103.544 93.696 103.544C94.428 103.544 95.04 103.736 95.496 104.144C96.096 104.672 96.444 105.56 96.444 106.688C96.444 108.956 95.256 110.12 93.456 110.12ZM93.504 109.16C94.464 109.16 95.316 108.488 95.316 106.772C95.316 105.692 94.956 104.504 93.648 104.504C92.688 104.504 91.836 105.176 91.836 106.892C91.836 107.972 92.196 109.16 93.504 109.16ZM98.3923 110C97.9123 110 97.8763 109.952 97.8763 109.856V105.764C97.8763 104.948 97.8523 104.108 97.8523 103.808C97.8523 103.712 97.8883 103.664 98.3443 103.664H98.4043C98.8363 103.664 98.8963 103.7 98.8963 103.808L98.9083 104.348H98.9203C99.3403 103.856 100.036 103.544 100.78 103.544C101.44 103.544 102.004 103.772 102.4 104.18C102.508 104.3 102.604 104.42 102.676 104.564C103.156 103.904 103.984 103.544 104.836 103.544C105.496 103.544 106.06 103.772 106.456 104.18C106.888 104.624 107.068 105.248 107.068 106.22V109.856C107.068 109.94 107.056 110 106.576 110H106.504C106.024 110 105.988 109.952 105.988 109.856V106.724C105.988 105.752 105.952 105.296 105.664 104.96C105.436 104.684 105.028 104.564 104.572 104.564C104.152 104.564 103.648 104.72 103.372 104.984C103.228 105.116 103.096 105.32 103.048 105.836C103.024 106.172 103.012 106.784 103.012 107.48V109.856C103.012 109.94 103 110 102.52 110H102.448C101.968 110 101.932 109.952 101.932 109.856V106.724C101.932 105.752 101.896 105.296 101.608 104.96C101.38 104.684 100.972 104.564 100.516 104.564C100.096 104.564 99.5923 104.72 99.3163 104.984C99.1723 105.116 99.0403 105.32 98.9923 105.836C98.9683 106.172 98.9563 106.784 98.9563 107.48V109.856C98.9563 109.94 98.9443 110 98.4643 110H98.3923ZM110.982 102.908C110.598 102.908 110.574 102.836 110.622 102.764L111.498 101.228C111.546 101.144 111.69 101.096 112.026 101.096H112.17C112.614 101.096 112.698 101.18 112.638 101.264L111.51 102.8C111.474 102.86 111.366 102.908 111.078 102.908H110.982ZM111.018 110.12C109.266 110.12 108.45 108.668 108.45 106.94C108.45 104.888 109.626 103.544 111.21 103.544C111.93 103.544 112.494 103.88 112.83 104.312L112.89 103.808C112.902 103.664 112.962 103.664 113.322 103.664H113.346C113.802 103.664 113.814 103.712 113.814 103.808C113.814 104.096 113.79 104.864 113.79 105.632V107.312C113.79 108.416 113.838 109.196 113.874 109.856C113.874 109.952 113.814 110 113.442 110H113.394C113.022 110 112.95 109.964 112.938 109.856L112.866 109.304C112.482 109.772 111.798 110.12 111.018 110.12ZM111.21 109.16C111.606 109.16 112.086 109.04 112.41 108.692C112.662 108.416 112.71 108.08 112.71 107.036V105.332C112.434 104.9 111.894 104.516 111.33 104.516C110.226 104.516 109.578 105.44 109.578 106.88C109.578 108.008 109.974 109.16 111.21 109.16ZM117.539 110.12C116.999 110.12 116.603 109.976 116.339 109.724C115.991 109.4 115.883 108.944 115.883 108.14V104.516H114.839C114.767 104.516 114.743 104.456 114.743 104.24V104.168C114.743 103.976 114.767 103.904 114.851 103.88C115.895 103.58 116.087 103.1 116.207 101.984C116.219 101.912 116.279 101.888 116.543 101.888H116.627C116.903 101.888 116.963 101.924 116.963 101.996V103.664H118.475C118.559 103.664 118.583 103.724 118.583 104.036V104.132C118.583 104.456 118.559 104.516 118.475 104.516H116.963V108.056C116.963 108.512 116.999 108.812 117.155 108.98C117.287 109.124 117.491 109.196 117.767 109.196C118.043 109.196 118.343 109.112 118.583 109.04C118.703 109.004 118.739 109.052 118.799 109.28L118.835 109.436C118.895 109.688 118.895 109.76 118.799 109.82C118.499 110.012 117.983 110.12 117.539 110.12ZM120.577 102.476C120.157 102.476 119.821 102.14 119.821 101.72C119.821 101.3 120.157 100.964 120.577 100.964C120.997 100.964 121.333 101.3 121.333 101.72C121.333 102.14 120.997 102.476 120.577 102.476ZM120.553 110C120.073 110 120.037 109.952 120.037 109.856V103.808C120.037 103.712 120.073 103.664 120.553 103.664H120.625C121.105 103.664 121.117 103.724 121.117 103.808V109.856C121.117 109.94 121.105 110 120.625 110H120.553ZM125.308 110.12C123.472 110.12 122.56 108.716 122.56 106.928C122.56 104.732 123.844 103.544 125.512 103.544C126.268 103.544 126.94 103.808 127.444 104.168C127.54 104.24 127.54 104.324 127.372 104.72C127.192 105.128 127.072 105.092 126.988 105.032C126.544 104.732 126.052 104.528 125.572 104.528C124.456 104.528 123.688 105.368 123.688 106.856C123.688 108.008 124.156 109.136 125.452 109.136C125.956 109.136 126.508 108.992 126.976 108.764C127.072 108.716 127.192 108.752 127.288 109.004L127.348 109.16C127.468 109.448 127.432 109.532 127.348 109.58C126.748 109.916 126.052 110.12 125.308 110.12ZM131.155 110.12C130.423 110.12 129.811 109.928 129.355 109.52C128.755 108.992 128.407 108.104 128.407 106.976C128.407 104.708 129.595 103.544 131.395 103.544C132.127 103.544 132.739 103.736 133.195 104.144C133.795 104.672 134.143 105.56 134.143 106.688C134.143 108.956 132.955 110.12 131.155 110.12ZM131.203 109.16C132.163 109.16 133.015 108.488 133.015 106.772C133.015 105.692 132.655 104.504 131.347 104.504C130.387 104.504 129.535 105.176 129.535 106.892C129.535 107.972 129.895 109.16 131.203 109.16Z" fill="white"/>
<g clip-path="url(#clip0_2818_1534)">
<path d="M16.854 133C16.308 133 16.252 132.972 16.308 132.818L20.046 123.116C20.102 122.948 20.172 122.92 20.76 122.92H20.83C21.432 122.92 21.502 122.934 21.586 123.116L25.38 132.818C25.436 132.958 25.324 133 24.792 133H24.652C24.092 133 23.994 132.972 23.924 132.832L23.014 130.34H18.59L17.666 132.832C17.61 132.972 17.512 133 16.98 133H16.854ZM18.954 129.29H22.636L22.202 128.1C21.67 126.672 21.194 125.342 20.816 124.18C20.41 125.314 19.906 126.7 19.402 128.058L18.954 129.29ZM28.6894 133.14C27.7934 133.14 26.9254 132.818 26.3934 132.44C26.2534 132.342 26.2954 132.258 26.4494 131.936L26.5194 131.782C26.7014 131.39 26.7574 131.376 26.9394 131.488C27.4714 131.796 28.1434 132.048 28.7594 132.048C29.4034 132.048 30.2994 131.726 30.2994 130.914C30.2994 130.158 29.4034 129.906 28.6894 129.752C27.9474 129.584 27.4014 129.388 27.0234 129.038C26.6734 128.716 26.4634 128.226 26.4634 127.68C26.4634 126.308 27.6534 125.468 29.0534 125.468C29.9354 125.468 30.7474 125.776 31.2654 126.238C31.3774 126.336 31.4054 126.462 31.2094 126.742L31.1114 126.882C30.8594 127.246 30.7894 127.246 30.6914 127.162C30.1734 126.798 29.6834 126.546 29.0674 126.546C28.4934 126.546 27.6674 126.77 27.6674 127.54C27.6674 128.296 28.4514 128.492 29.1234 128.66C30.2714 128.954 31.4894 129.374 31.4894 130.83C31.4894 132.328 30.2294 133.14 28.6894 133.14ZM35.1015 133.14C34.2055 133.14 33.3375 132.818 32.8055 132.44C32.6655 132.342 32.7075 132.258 32.8615 131.936L32.9315 131.782C33.1135 131.39 33.1695 131.376 33.3515 131.488C33.8835 131.796 34.5555 132.048 35.1715 132.048C35.8155 132.048 36.7115 131.726 36.7115 130.914C36.7115 130.158 35.8155 129.906 35.1015 129.752C34.3595 129.584 33.8135 129.388 33.4355 129.038C33.0855 128.716 32.8755 128.226 32.8755 127.68C32.8755 126.308 34.0655 125.468 35.4655 125.468C36.3475 125.468 37.1595 125.776 37.6775 126.238C37.7895 126.336 37.8175 126.462 37.6215 126.742L37.5235 126.882C37.2715 127.246 37.2015 127.246 37.1035 127.162C36.5855 126.798 36.0955 126.546 35.4795 126.546C34.9055 126.546 34.0795 126.77 34.0795 127.54C34.0795 128.296 34.8635 128.492 35.5355 128.66C36.6835 128.954 37.9015 129.374 37.9015 130.83C37.9015 132.328 36.6415 133.14 35.1015 133.14ZM40.1976 124.222C39.7076 124.222 39.3156 123.83 39.3156 123.34C39.3156 122.85 39.7076 122.458 40.1976 122.458C40.6876 122.458 41.0796 122.85 41.0796 123.34C41.0796 123.83 40.6876 124.222 40.1976 124.222ZM40.1696 133C39.6096 133 39.5676 132.944 39.5676 132.832V125.776C39.5676 125.664 39.6096 125.608 40.1696 125.608H40.2536C40.8136 125.608 40.8276 125.678 40.8276 125.776V132.832C40.8276 132.93 40.8136 133 40.2536 133H40.1696ZM43.5749 133C43.0149 133 42.9729 132.944 42.9729 132.832V128.058C42.9729 127.106 42.9449 126.126 42.9449 125.776C42.9449 125.664 42.9869 125.608 43.5189 125.608H43.5889C44.0929 125.608 44.1629 125.65 44.1629 125.776L44.1769 126.406H44.1909C44.6809 125.832 45.6049 125.468 46.4729 125.468C47.2429 125.468 47.9289 125.734 48.3909 126.21C48.8949 126.728 49.1049 127.456 49.1049 128.59V132.832C49.1049 132.93 49.0909 133 48.5309 133H48.4469C47.8869 133 47.8449 132.944 47.8449 132.832V129.178C47.8449 128.044 47.8029 127.512 47.4669 127.12C47.2009 126.798 46.7529 126.658 46.1369 126.658C45.6189 126.658 44.9889 126.84 44.6529 127.162C44.4849 127.316 44.3309 127.554 44.2749 128.156C44.2469 128.548 44.2329 129.262 44.2329 130.074V132.832C44.2329 132.93 44.2189 133 43.6589 133H43.5749ZM53.6963 133.14C51.6523 133.14 50.7003 131.446 50.7003 129.43C50.7003 127.036 52.0723 125.468 53.9203 125.468C54.7603 125.468 55.4183 125.86 55.8103 126.364L55.8803 125.776C55.8943 125.608 55.9643 125.608 56.3843 125.608H56.4123C56.9443 125.608 56.9583 125.664 56.9583 125.776C56.9583 126.112 56.9303 127.008 56.9303 127.904V129.864C56.9303 131.152 56.9863 132.062 57.0283 132.832C57.0283 132.944 56.9583 133 56.5243 133H56.4683C56.0343 133 55.9503 132.958 55.9363 132.832L55.8523 132.188C55.4043 132.734 54.6063 133.14 53.6963 133.14ZM53.9203 132.02C54.3823 132.02 54.9423 131.88 55.3203 131.474C55.6143 131.152 55.6703 130.76 55.6703 129.542V127.554C55.3483 127.05 54.7183 126.602 54.0603 126.602C52.7723 126.602 52.0163 127.68 52.0163 129.36C52.0163 130.676 52.4783 132.02 53.9203 132.02ZM61.3037 133.14C60.6737 133.14 60.2117 132.972 59.9037 132.678C59.4977 132.3 59.3717 131.768 59.3717 130.83V126.602H58.1537C58.0697 126.602 58.0417 126.532 58.0417 126.28V126.196C58.0417 125.972 58.0697 125.888 58.1677 125.86C59.3857 125.51 59.6097 124.95 59.7497 123.648C59.7637 123.564 59.8337 123.536 60.1417 123.536H60.2397C60.5617 123.536 60.6317 123.578 60.6317 123.662V125.608H62.3957C62.4937 125.608 62.5217 125.678 62.5217 126.042V126.154C62.5217 126.532 62.4937 126.602 62.3957 126.602H60.6317V130.732C60.6317 131.264 60.6737 131.614 60.8557 131.81C61.0097 131.978 61.2477 132.062 61.5697 132.062C61.8917 132.062 62.2417 131.964 62.5217 131.88C62.6617 131.838 62.7037 131.894 62.7737 132.16L62.8157 132.342C62.8857 132.636 62.8857 132.72 62.7737 132.79C62.4237 133.014 61.8217 133.14 61.3037 133.14ZM66.682 133.14C65.926 133.14 65.282 132.888 64.82 132.398C64.33 131.88 64.134 131.152 64.134 130.018V125.776C64.134 125.678 64.162 125.608 64.694 125.608H64.806C65.338 125.608 65.394 125.664 65.394 125.776V129.444C65.394 130.55 65.436 131.124 65.744 131.502C65.996 131.81 66.416 131.978 66.99 131.978C67.536 131.978 68.18 131.796 68.516 131.474C68.81 131.194 68.964 130.774 68.964 129.234V125.776C68.964 125.678 69.048 125.608 69.524 125.608H69.65C70.126 125.608 70.224 125.664 70.224 125.776V130.55C70.224 131.502 70.252 132.482 70.252 132.832C70.252 132.944 70.21 133 69.678 133H69.622C69.132 133 69.048 132.944 69.048 132.832L69.02 132.23H69.006C68.488 132.804 67.718 133.14 66.682 133.14ZM72.9827 133C72.4227 133 72.3807 132.944 72.3807 132.832V128.058C72.3807 127.106 72.3527 126.126 72.3527 125.776C72.3527 125.664 72.3947 125.608 72.9267 125.608H72.9967C73.5007 125.608 73.5707 125.65 73.5707 125.776L73.5987 127.218C74.1307 126.042 74.9007 125.524 75.6427 125.524C75.7687 125.524 75.8667 125.538 75.9367 125.552C76.0627 125.58 76.0767 125.622 76.0767 125.944V126.154C76.0767 126.56 76.0627 126.672 75.9227 126.672C74.9287 126.672 74.4247 127.288 74.0187 127.946C73.8227 128.268 73.7107 128.66 73.6827 129.15C73.6547 129.542 73.6407 130.41 73.6407 131.222V132.832C73.6407 132.93 73.6267 133 73.0667 133H72.9827ZM79.7412 133.14C77.6972 133.14 76.7452 131.446 76.7452 129.43C76.7452 127.036 78.1172 125.468 79.9652 125.468C80.8052 125.468 81.4632 125.86 81.8552 126.364L81.9252 125.776C81.9392 125.608 82.0092 125.608 82.4292 125.608H82.4572C82.9892 125.608 83.0032 125.664 83.0032 125.776C83.0032 126.112 82.9752 127.008 82.9752 127.904V129.864C82.9752 131.152 83.0312 132.062 83.0732 132.832C83.0732 132.944 83.0032 133 82.5692 133H82.5132C82.0792 133 81.9952 132.958 81.9812 132.832L81.8972 132.188C81.4492 132.734 80.6512 133.14 79.7412 133.14ZM79.9652 132.02C80.4272 132.02 80.9872 131.88 81.3652 131.474C81.6592 131.152 81.7152 130.76 81.7152 129.542V127.554C81.3932 127.05 80.7632 126.602 80.1052 126.602C78.8172 126.602 78.0612 127.68 78.0612 129.36C78.0612 130.676 78.5232 132.02 79.9652 132.02ZM89.2386 124.222C88.7486 124.222 88.3566 123.83 88.3566 123.34C88.3566 122.85 88.7486 122.458 89.2386 122.458C89.7286 122.458 90.1206 122.85 90.1206 123.34C90.1206 123.83 89.7286 124.222 89.2386 124.222ZM89.2106 133C88.6506 133 88.6086 132.944 88.6086 132.832V125.776C88.6086 125.664 88.6506 125.608 89.2106 125.608H89.2946C89.8546 125.608 89.8686 125.678 89.8686 125.776V132.832C89.8686 132.93 89.8546 133 89.2946 133H89.2106ZM92.6159 133C92.0559 133 92.0139 132.944 92.0139 132.832V128.058C92.0139 127.106 91.9859 126.126 91.9859 125.776C91.9859 125.664 92.0279 125.608 92.5599 125.608H92.6299C93.1339 125.608 93.2039 125.65 93.2039 125.776L93.2179 126.406H93.2319C93.7219 125.832 94.6459 125.468 95.5139 125.468C96.2839 125.468 96.9699 125.734 97.4319 126.21C97.9359 126.728 98.1459 127.456 98.1459 128.59V132.832C98.1459 132.93 98.1319 133 97.5719 133H97.4879C96.9279 133 96.8859 132.944 96.8859 132.832V129.178C96.8859 128.044 96.8439 127.512 96.5079 127.12C96.2419 126.798 95.7939 126.658 95.1779 126.658C94.6599 126.658 94.0299 126.84 93.6939 127.162C93.5259 127.316 93.3719 127.554 93.3159 128.156C93.2879 128.548 93.2739 129.262 93.2739 130.074V132.832C93.2739 132.93 93.2599 133 92.6999 133H92.6159ZM102.947 133.14C100.805 133.14 99.7413 131.502 99.7413 129.416C99.7413 126.854 101.239 125.468 103.185 125.468C104.067 125.468 104.851 125.776 105.439 126.196C105.551 126.28 105.551 126.378 105.355 126.84C105.145 127.316 105.005 127.274 104.907 127.204C104.389 126.854 103.815 126.616 103.255 126.616C101.953 126.616 101.057 127.596 101.057 129.332C101.057 130.676 101.603 131.992 103.115 131.992C103.703 131.992 104.347 131.824 104.893 131.558C105.005 131.502 105.145 131.544 105.257 131.838L105.327 132.02C105.467 132.356 105.425 132.454 105.327 132.51C104.627 132.902 103.815 133.14 102.947 133.14ZM108.216 133.014C107.824 133.014 107.432 132.916 107.18 132.538C106.998 132.272 106.942 131.81 106.942 131.068V126.378C106.942 124.908 106.928 123.088 106.858 122.542C106.844 122.402 106.984 122.36 107.46 122.36H107.544C107.992 122.36 108.09 122.402 108.118 122.542C108.188 122.934 108.202 124.614 108.202 126.686V131.334C108.202 131.852 108.272 132.034 108.734 132.034H108.874C108.944 132.034 108.958 132.09 108.958 132.412V132.454C108.958 132.818 108.958 132.874 108.874 132.902C108.678 132.972 108.426 133.014 108.216 133.014ZM113.03 133.14C112.274 133.14 111.63 132.888 111.168 132.398C110.678 131.88 110.482 131.152 110.482 130.018V125.776C110.482 125.678 110.51 125.608 111.042 125.608H111.154C111.686 125.608 111.742 125.664 111.742 125.776V129.444C111.742 130.55 111.784 131.124 112.092 131.502C112.344 131.81 112.764 131.978 113.338 131.978C113.884 131.978 114.528 131.796 114.864 131.474C115.158 131.194 115.312 130.774 115.312 129.234V125.776C115.312 125.678 115.396 125.608 115.872 125.608H115.998C116.474 125.608 116.572 125.664 116.572 125.776V130.55C116.572 131.502 116.6 132.482 116.6 132.832C116.6 132.944 116.558 133 116.026 133H115.97C115.48 133 115.396 132.944 115.396 132.832L115.368 132.23H115.354C114.836 132.804 114.066 133.14 113.03 133.14ZM118.994 124.726C118.546 124.726 118.518 124.642 118.574 124.558L119.596 122.766C119.652 122.668 119.82 122.612 120.212 122.612H120.38C120.898 122.612 120.996 122.71 120.926 122.808L119.61 124.6C119.568 124.67 119.442 124.726 119.106 124.726H118.994ZM119.302 133C118.742 133 118.7 132.944 118.7 132.832V125.776C118.7 125.664 118.742 125.608 119.302 125.608H119.386C119.946 125.608 119.96 125.678 119.96 125.776V132.832C119.96 132.93 119.946 133 119.386 133H119.302ZM124.64 133.14C122.792 133.14 121.644 131.754 121.644 129.458C121.644 127.358 122.736 125.468 125.046 125.468C125.62 125.468 126.278 125.692 126.628 125.93V122.542C126.628 122.402 126.754 122.36 127.23 122.36H127.314C127.762 122.36 127.888 122.402 127.888 122.542V131.25C127.888 131.95 128 132.006 128.378 132.006C128.462 132.006 128.504 132.09 128.504 132.384V132.482C128.504 132.818 128.462 132.916 128.378 132.944C128.182 133.014 128 133.028 127.762 133.028C127.342 133.028 126.964 132.762 126.796 132.216H126.782C126.432 132.692 125.648 133.14 124.64 133.14ZM124.892 132.02C125.368 132.02 125.9 131.866 126.222 131.544C126.544 131.222 126.628 130.76 126.628 129.584V127.134C126.278 126.84 125.676 126.616 125.116 126.616C123.8 126.616 122.96 127.722 122.96 129.416C122.96 131.138 123.8 132.02 124.892 132.02ZM132.761 133.14C130.717 133.14 129.765 131.446 129.765 129.43C129.765 127.036 131.137 125.468 132.985 125.468C133.825 125.468 134.483 125.86 134.875 126.364L134.945 125.776C134.959 125.608 135.029 125.608 135.449 125.608H135.477C136.009 125.608 136.023 125.664 136.023 125.776C136.023 126.112 135.995 127.008 135.995 127.904V129.864C135.995 131.152 136.051 132.062 136.093 132.832C136.093 132.944 136.023 133 135.589 133H135.533C135.099 133 135.015 132.958 135.001 132.832L134.917 132.188C134.469 132.734 133.671 133.14 132.761 133.14ZM132.985 132.02C133.447 132.02 134.007 131.88 134.385 131.474C134.679 131.152 134.735 130.76 134.735 129.542V127.554C134.413 127.05 133.783 126.602 133.125 126.602C131.837 126.602 131.081 127.68 131.081 129.36C131.081 130.676 131.543 132.02 132.985 132.02ZM138.814 127.918C138.296 127.918 137.876 127.498 137.876 126.98C137.876 126.462 138.296 126.042 138.814 126.042C139.332 126.042 139.752 126.462 139.752 126.98C139.752 127.498 139.332 127.918 138.814 127.918ZM138.814 133.14C138.296 133.14 137.876 132.72 137.876 132.202C137.876 131.684 138.296 131.264 138.814 131.264C139.332 131.264 139.752 131.684 139.752 132.202C139.752 132.72 139.332 133.14 138.814 133.14Z" fill="white"/>
<g clip-path="url(#clip1_2818_1534)">
<mask id="mask0_2818_1534" style="mask-type:alpha" maskUnits="userSpaceOnUse" x="16" y="141" width="24" height="24">
<circle cx="28" cy="153" r="12" fill="#FF790F"/>
</mask>
<g mask="url(#mask0_2818_1534)">
<rect x="16" y="141" width="24" height="24" fill="#F1F2F2"/>
<path fill-rule="evenodd" clip-rule="evenodd" d="M20.6249 153.337C20.154 153.337 19.6232 153.173 19.0897 152.862C19.0489 152.84 19.019 152.799 19.0053 152.753C18.9945 152.706 18.9999 152.656 19.0244 152.615L19.2258 152.206C19.2585 152.148 19.3184 152.113 19.381 152.113C19.4136 152.113 19.4463 152.121 19.4762 152.14C19.9145 152.426 20.252 152.527 20.6031 152.527C21.2128 152.527 21.5803 152.151 21.5803 151.586C21.3898 151.759 21.1638 151.956 20.7474 151.956C19.8002 151.956 19.0298 151.163 19.0298 150.188C19.0298 149.21 19.8002 148.417 20.7474 148.417C21.0414 148.417 21.2673 148.513 21.6184 148.793C21.6293 148.7 21.5803 148.475 21.7137 148.475H22.2853C22.3833 148.475 22.4649 148.557 22.4649 148.656V150.15V150.161C22.4649 150.17 22.4658 150.179 22.4677 150.188C22.4658 150.195 22.4649 150.204 22.4649 150.213V150.226V150.822C22.4677 151.833 22.3561 152.412 21.9314 152.849C21.6184 153.173 21.1094 153.337 20.6249 153.337ZM20.7474 149.274C20.2901 149.274 19.9145 149.683 19.9145 150.188C19.9145 150.69 20.2901 151.102 20.7474 151.102C21.1965 151.102 21.5694 150.701 21.5803 150.21V150.163C21.5694 149.672 21.1965 149.274 20.7474 149.274Z" fill="#E51F29"/>
<path fill-rule="evenodd" clip-rule="evenodd" d="M29.9181 151.956C29.6704 151.956 29.3492 151.843 29.0553 151.574C29.0553 151.714 29.0879 151.898 28.9055 151.898H28.3829C28.2822 151.898 28.2006 151.819 28.2006 151.717V147.239C28.2006 147.137 28.2822 147.055 28.3829 147.055H28.9055C29.0063 147.055 29.0879 147.137 29.0879 147.239V148.784C29.3737 148.493 29.6949 148.416 29.9181 148.416C30.8653 148.416 31.6384 149.21 31.6384 150.188C31.6384 151.162 30.8653 151.956 29.9181 151.956ZM29.9181 149.273C29.4608 149.273 29.0879 149.682 29.0879 150.188C29.0879 150.69 29.4608 151.102 29.9181 151.102C30.3781 151.102 30.751 150.69 30.751 150.188C30.751 149.682 30.3781 149.273 29.9181 149.273Z" fill="#E51F29"/>
<path fill-rule="evenodd" clip-rule="evenodd" d="M27.7587 155.495C27.7587 156.473 26.9884 157.266 26.0412 157.266C25.8153 157.266 25.4941 157.189 25.2083 156.898V158.444C25.2083 158.546 25.1266 158.628 25.0259 158.628H24.5033C24.4026 158.628 24.3209 158.546 24.3209 158.444V153.966C24.3209 153.867 24.4026 153.785 24.5033 153.785H25.0259C25.2083 153.785 25.1756 153.969 25.1756 154.109C25.4723 153.84 25.7908 153.727 26.0412 153.727C26.9884 153.727 27.7587 154.52 27.7587 155.495ZM26.8714 155.495C26.8714 154.993 26.4985 154.581 26.0412 154.581C25.5812 154.581 25.2083 154.993 25.2083 155.495C25.2083 156 25.5812 156.412 26.0412 156.412C26.4985 156.412 26.8714 156 26.8714 155.495Z" fill="#E51F29"/>
<path fill-rule="evenodd" clip-rule="evenodd" d="M33.7282 151.956C32.7592 151.956 31.9698 151.163 31.9698 150.188C31.9698 149.21 32.7592 148.417 33.7282 148.417C34.6945 148.417 35.4839 149.21 35.4839 150.188C35.4839 151.163 34.6945 151.956 33.7282 151.956ZM33.7282 149.276C33.2464 149.276 32.8572 149.685 32.8572 150.188C32.8572 150.69 33.2464 151.1 33.7282 151.1C34.2073 151.1 34.5965 150.69 34.5965 150.188C34.5965 149.685 34.2073 149.276 33.7282 149.276Z" fill="#E51F29"/>
<path fill-rule="evenodd" clip-rule="evenodd" d="M26.0362 151.956C25.0672 151.956 24.2805 151.163 24.2805 150.188C24.2805 149.21 25.0672 148.417 26.0362 148.417C27.0052 148.417 27.7918 149.21 27.7918 150.188C27.7918 151.163 27.0052 151.956 26.0362 151.956ZM26.0362 149.276C25.5544 149.276 25.1651 149.685 25.1651 150.188C25.1651 150.69 25.5544 151.1 26.0362 151.1C26.5152 151.1 26.9072 150.69 26.9072 150.188C26.9072 149.685 26.5152 149.276 26.0362 149.276Z" fill="#E51F29"/>
<path d="M28.3776 157.209C28.2797 157.209 28.198 157.126 28.198 157.028V152.546C28.198 152.448 28.2797 152.365 28.3776 152.365H28.903C29.001 152.365 29.0826 152.448 29.0826 152.546V157.028C29.0826 157.126 29.001 157.209 28.903 157.209H28.3776Z" fill="#E51F29"/>
<path d="M34.1938 158.639C33.7365 158.639 33.4072 158.502 33.252 158.376C33.1812 158.318 33.1622 158.219 33.2085 158.143L33.4561 157.714C33.4888 157.656 33.5487 157.621 33.614 157.624C33.6521 157.624 33.6875 157.635 33.7202 157.656C33.7583 157.687 33.8944 157.797 34.0686 157.802C34.1911 157.805 34.4959 157.687 34.6865 157.22L33.3718 154.038C33.3473 153.98 33.3527 153.917 33.3854 153.865C33.4208 153.812 33.4752 153.782 33.5378 153.782L34.1067 153.785C34.1802 153.785 34.2428 153.829 34.2727 153.895L35.1084 155.94L35.8379 153.903C35.8623 153.832 35.9331 153.785 36.0066 153.785H36.5619C36.6218 153.785 36.6789 153.815 36.7116 153.865C36.747 153.914 36.766 153.983 36.7334 154.117L35.5738 157.228C35.2662 157.986 34.7327 158.642 34.1938 158.639Z" fill="#E51F29"/>
<path fill-rule="evenodd" clip-rule="evenodd" d="M31.2183 153.727C31.466 153.727 31.7872 153.84 32.0812 154.109C32.0812 153.969 32.0512 153.785 32.2309 153.785H32.7562C32.8542 153.785 32.9359 153.867 32.9359 153.966V157.055C32.9359 157.156 32.8542 157.209 32.7562 157.209H32.2309C32.1329 157.209 32.0512 157.156 32.0512 157.055V156.901C31.7627 157.192 31.4442 157.269 31.2183 157.269C30.2684 157.269 29.498 156.473 29.498 155.498C29.498 154.52 30.2684 153.727 31.2183 153.727ZM31.2183 156.412C31.6756 156.412 32.0512 156.003 32.0512 155.498C32.0512 154.993 31.6756 154.584 31.2183 154.584C30.7583 154.584 30.3854 154.993 30.3854 155.498C30.3854 156.003 30.7583 156.412 31.2183 156.412Z" fill="#E51F29"/>
<path d="M23.2005 151.956C23.0917 151.956 22.9746 151.877 22.9746 151.657V147.297C22.9746 147.019 23.1434 147 23.1951 147C23.2332 147 23.2713 147.008 23.3176 147.025L23.6415 147.17C23.7994 147.244 23.8729 147.373 23.8729 147.571V151.377C23.8729 151.572 23.7994 151.701 23.6442 151.775L23.3176 151.929C23.2713 151.948 23.2332 151.956 23.2005 151.956Z" fill="#E51F29"/>
</g>
</g>
</g>
<rect x="16.5" y="193.5" width="131" height="55" rx="11.5" stroke="white"/>
<path d="M52.2931 227.16C49.0291 227.16 47.0931 224.968 47.0931 221.368C47.0931 217.56 49.2851 215.32 52.4851 215.32C53.8451 215.32 54.9491 215.72 55.6691 216.216C55.9251 216.376 55.9251 216.456 55.6211 216.936L55.4291 217.24C55.1571 217.688 55.1091 217.704 54.9331 217.608C54.1651 217.192 53.5091 216.968 52.6451 216.968C50.3891 216.968 49.1251 218.52 49.1251 221.288C49.1251 224.072 50.3411 225.512 52.6451 225.512C53.4771 225.512 54.3091 225.272 55.0451 224.984C55.2531 224.888 55.3171 224.92 55.5091 225.336L55.6691 225.672C55.8931 226.136 55.8931 226.248 55.6851 226.344C54.7571 226.84 53.5091 227.16 52.2931 227.16ZM60.4941 227.16C58.0781 227.16 56.7181 225.608 56.7181 222.952C56.7181 220.008 58.1901 218.392 60.7821 218.392C63.1821 218.392 64.5421 219.928 64.5421 222.6C64.5421 225.544 63.0701 227.16 60.4941 227.16ZM60.5261 225.56C61.8541 225.56 62.6381 224.6 62.6381 222.712C62.6381 221.128 62.1101 219.992 60.7181 219.992C59.3901 219.992 58.6221 220.968 58.6221 222.84C58.6221 224.424 59.1501 225.56 60.5261 225.56ZM67.2195 227C66.3715 227 66.3235 226.936 66.3235 226.776V221.88C66.3235 220.808 66.2915 219.608 66.2435 218.792C66.2275 218.6 66.3075 218.552 67.0435 218.552H67.1235C67.7795 218.552 67.9235 218.584 67.9555 218.744C67.9875 218.952 68.0195 219.224 68.0355 219.496C68.5795 218.824 69.4435 218.392 70.5155 218.392C71.4915 218.392 72.2595 218.696 72.7555 219.24C73.2835 219.832 73.5235 220.616 73.5235 221.864V226.776C73.5235 226.936 73.4275 227 72.6595 227H72.5635C71.7315 227 71.6835 226.936 71.6835 226.776V222.504C71.6835 221.304 71.6195 220.856 71.2995 220.504C71.0595 220.248 70.6755 220.056 70.0355 220.056C69.4595 220.056 68.9955 220.216 68.6595 220.472C68.3555 220.712 68.2275 221.016 68.1955 221.416C68.1635 221.816 68.1635 222.488 68.1635 223.224V226.776C68.1635 226.936 68.0675 227 67.2995 227H67.2195ZM78.5629 227.16C77.7469 227.16 77.1549 226.936 76.7549 226.552C76.3229 226.12 76.1309 225.464 76.1309 224.424V220.008H74.8349C74.6909 220.008 74.6429 219.896 74.6429 219.48V219.368C74.6429 218.984 74.6749 218.872 74.8189 218.84C76.1789 218.456 76.4989 217.896 76.6589 216.408C76.6749 216.264 76.7869 216.248 77.2509 216.248H77.3789C77.8749 216.248 77.9709 216.296 77.9709 216.44V218.552H79.9869C80.1149 218.552 80.1629 218.6 80.1629 219.224V219.336C80.1629 219.96 80.1149 220.008 79.9869 220.008H77.9709V224.296C77.9709 224.856 78.0349 225.16 78.2429 225.368C78.4349 225.544 78.6909 225.624 79.0429 225.624C79.3469 225.624 79.6829 225.56 79.9869 225.448C80.1469 225.4 80.1789 225.448 80.3549 225.976L80.4029 226.12C80.5789 226.648 80.5469 226.696 80.3549 226.792C79.8429 227.032 79.1709 227.16 78.5629 227.16ZM82.8758 227C82.0278 227 81.9798 226.952 81.9798 226.792V222.024C81.9798 220.888 81.9478 219.656 81.8997 218.792C81.8838 218.616 81.9478 218.552 82.6998 218.552H82.7958C83.4678 218.552 83.5958 218.584 83.6118 218.728C83.6438 219.016 83.7238 219.8 83.7558 220.44C84.2518 219.128 85.0198 218.408 86.0118 218.408C86.1718 218.408 86.3158 218.424 86.4438 218.472C86.6038 218.536 86.6038 218.616 86.6038 219.128V219.32C86.6038 219.992 86.5398 220.056 86.3798 220.072C85.4998 220.136 84.9078 220.52 84.4758 221.128C83.9798 221.832 83.8198 222.856 83.8198 224.648V226.792C83.8198 226.952 83.7238 227 82.9557 227H82.8758ZM95.2174 225.592C95.3454 225.592 95.3934 225.624 95.3934 226.168V226.296C95.3934 226.76 95.3614 226.84 95.2334 226.888C94.9934 226.984 94.6414 227.048 94.2894 227.048C93.7614 227.048 93.3134 226.904 93.0254 226.584C92.8974 226.44 92.8014 226.264 92.7374 226.072C92.1934 226.76 91.2494 227.16 90.2254 227.16C88.4494 227.16 87.2494 226.024 87.2494 224.52C87.2494 222.792 88.7054 222.088 90.4814 222.088H92.5934V221.768C92.5934 220.568 92.0494 219.944 90.8974 219.944C90.1294 219.944 89.3294 220.168 88.5134 220.52C88.2734 220.616 88.1614 220.584 87.9374 220.056L87.8414 219.832C87.6654 219.416 87.6494 219.256 87.8574 219.144C88.7214 218.68 89.8894 218.392 90.9934 218.392C93.3294 218.392 94.4334 219.624 94.4334 221.736V224.92C94.4334 225.384 94.5294 225.592 94.9774 225.592H95.2174ZM90.6574 225.656C91.9694 225.656 92.5934 224.76 92.5934 223.56V223.432H90.5614C89.6654 223.432 89.1374 223.704 89.1374 224.408C89.1374 225.128 89.7294 225.656 90.6574 225.656ZM99.9066 227.16C99.0906 227.16 98.4986 226.936 98.0986 226.552C97.6666 226.12 97.4746 225.464 97.4746 224.424V220.008H96.1786C96.0346 220.008 95.9866 219.896 95.9866 219.48V219.368C95.9866 218.984 96.0186 218.872 96.1626 218.84C97.5226 218.456 97.8426 217.896 98.0026 216.408C98.0186 216.264 98.1306 216.248 98.5946 216.248H98.7226C99.2186 216.248 99.3146 216.296 99.3146 216.44V218.552H101.331C101.459 218.552 101.507 218.6 101.507 219.224V219.336C101.507 219.96 101.459 220.008 101.331 220.008H99.3146V224.296C99.3146 224.856 99.3786 225.16 99.5866 225.368C99.7786 225.544 100.035 225.624 100.387 225.624C100.691 225.624 101.027 225.56 101.331 225.448C101.491 225.4 101.523 225.448 101.699 225.976L101.747 226.12C101.923 226.648 101.891 226.696 101.699 226.792C101.187 227.032 100.515 227.16 99.9066 227.16ZM110.796 225.592C110.924 225.592 110.972 225.624 110.972 226.168V226.296C110.972 226.76 110.94 226.84 110.812 226.888C110.572 226.984 110.22 227.048 109.868 227.048C109.34 227.048 108.892 226.904 108.604 226.584C108.476 226.44 108.38 226.264 108.316 226.072C107.772 226.76 106.828 227.16 105.804 227.16C104.028 227.16 102.828 226.024 102.828 224.52C102.828 222.792 104.284 222.088 106.06 222.088H108.172V221.768C108.172 220.568 107.628 219.944 106.476 219.944C105.708 219.944 104.908 220.168 104.092 220.52C103.852 220.616 103.74 220.584 103.516 220.056L103.42 219.832C103.243 219.416 103.228 219.256 103.436 219.144C104.299 218.68 105.468 218.392 106.572 218.392C108.908 218.392 110.012 219.624 110.012 221.736V224.92C110.012 225.384 110.108 225.592 110.556 225.592H110.796ZM106.236 225.656C107.548 225.656 108.172 224.76 108.172 223.56V223.432H106.14C105.244 223.432 104.716 223.704 104.716 224.408C104.716 225.128 105.308 225.656 106.236 225.656ZM113.501 227C112.653 227 112.605 226.952 112.605 226.792V222.024C112.605 220.888 112.573 219.656 112.525 218.792C112.509 218.616 112.573 218.552 113.325 218.552H113.421C114.093 218.552 114.221 218.584 114.237 218.728C114.269 219.016 114.349 219.8 114.381 220.44C114.877 219.128 115.645 218.408 116.637 218.408C116.797 218.408 116.941 218.424 117.069 218.472C117.229 218.536 117.229 218.616 117.229 219.128V219.32C117.229 219.992 117.165 220.056 117.005 220.072C116.125 220.136 115.533 220.52 115.101 221.128C114.605 221.832 114.445 222.856 114.445 224.648V226.792C114.445 226.952 114.349 227 113.581 227H113.501Z" fill="white"/>
</g>
<defs>
<filter id="filter0_d_2818_1534" x="0" y="0" width="164" height="270" filterUnits="userSpaceOnUse" color-interpolation-filters="sRGB">
<feFlood flood-opacity="0" result="BackgroundImageFix"/>
<feColorMatrix in="SourceAlpha" type="matrix" values="0 0 0 0 0 0 0 0 0 0 0 0 0 0 0 0 0 0 127 0" result="hardAlpha"/>
<feOffset dy="4"/>
<feGaussianBlur stdDeviation="2"/>
<feComposite in2="hardAlpha" operator="out"/>
<feColorMatrix type="matrix" values="0 0 0 0 0 0 0 0 0 0 0 0 0 0 0 0 0 0 0.25 0"/>
<feBlend mode="normal" in2="BackgroundImageFix" result="effect1_dropShadow_2818_1534"/>
<feBlend mode="normal" in="SourceGraphic" in2="effect1_dropShadow_2818_1534" result="shape"/>
</filter>
<clipPath id="clip0_2818_1534">
<rect width="132" height="46" fill="white" transform="translate(16 119)"/>
</clipPath>
<clipPath id="clip1_2818_1534">
<rect width="24" height="24" fill="white" transform="translate(16 141)"/>
</clipPath>
</defs>
</svg>
