<svg width="164" height="268" viewBox="0 0 164 268" fill="none" xmlns="http://www.w3.org/2000/svg">
<g filter="url(#filter0_d_2818_1483)">
<rect x="4" width="156" height="260" rx="12" fill="#002198" shape-rendering="crispEdges"/>
<rect x="4.5" y="0.5" width="155" height="259" rx="11.5" stroke="#5270FE" shape-rendering="crispEdges"/>
<path d="M19.348 24C18.916 24 18.844 23.976 18.844 23.868V16.284H16.336C16.228 16.284 16.192 16.224 16.192 15.852V15.78C16.192 15.42 16.216 15.36 16.336 15.36H22.504C22.624 15.36 22.648 15.42 22.648 15.792V15.852C22.648 16.224 22.612 16.284 22.504 16.284H19.996V23.868C19.996 23.988 19.9 24 19.456 24H19.348ZM24.3558 24C23.9118 24 23.8518 23.976 23.8518 23.868V15.492C23.8518 15.384 23.9118 15.36 24.3558 15.36H24.4758C24.9198 15.36 25.0038 15.372 25.0038 15.492V23.868C25.0038 23.988 24.9198 24 24.4758 24H24.3558ZM27.4958 24C27.0158 24 26.9558 23.988 26.9558 23.88V15.504C26.9558 15.384 27.0278 15.36 27.5198 15.36H27.7358C28.1918 15.36 28.2878 15.396 28.3358 15.504L30.0278 18.912C30.4358 19.74 30.8078 20.52 31.0838 21.18C31.3838 20.46 31.7558 19.608 32.0918 18.912L33.7598 15.504C33.8078 15.396 33.8918 15.36 34.3838 15.36H34.5398C35.0078 15.36 35.0798 15.384 35.0798 15.504V23.88C35.0798 23.988 35.0198 24 34.5758 24H34.4918C34.0238 24 33.9758 23.988 33.9758 23.88V19.896C33.9758 19.212 33.9878 17.832 33.9998 17.208C33.6998 17.952 33.2798 18.84 32.9078 19.596L31.5518 22.356C31.5038 22.452 31.4678 22.476 31.0718 22.476H31.0358C30.5918 22.476 30.5678 22.452 30.5198 22.356L29.1038 19.536C28.7198 18.768 28.3838 18.048 28.0358 17.208C28.0598 17.88 28.0598 19.14 28.0598 19.908V23.88C28.0598 23.988 28.0118 24 27.5558 24H27.4958ZM43.3833 24.12C40.9593 24.12 39.5553 22.44 39.5553 19.788C39.5553 16.824 41.2233 15.24 43.5513 15.24C44.4513 15.24 45.1953 15.42 45.8313 15.84C45.9633 15.924 45.9633 15.96 45.8073 16.26L45.7113 16.44C45.5673 16.704 45.5193 16.704 45.3993 16.644C44.7873 16.356 44.2353 16.212 43.6473 16.212C41.7873 16.212 40.7553 17.484 40.7553 19.728C40.7553 21.972 41.7513 23.148 43.6233 23.148C44.2713 23.148 44.9193 22.98 45.4713 22.752C45.6153 22.692 45.6513 22.728 45.7593 22.968L45.8433 23.16C45.9753 23.46 45.9633 23.508 45.8433 23.568C45.1593 23.916 44.3313 24.12 43.3833 24.12ZM49.3818 24.12C48.6498 24.12 48.0378 23.928 47.5818 23.52C46.9818 22.992 46.6338 22.104 46.6338 20.976C46.6338 18.708 47.8218 17.544 49.6217 17.544C50.3538 17.544 50.9658 17.736 51.4218 18.144C52.0218 18.672 52.3698 19.56 52.3698 20.688C52.3698 22.956 51.1818 24.12 49.3818 24.12ZM49.4298 23.16C50.3898 23.16 51.2418 22.488 51.2418 20.772C51.2418 19.692 50.8818 18.504 49.5738 18.504C48.6138 18.504 47.7618 19.176 47.7618 20.892C47.7618 21.972 48.1218 23.16 49.4298 23.16ZM54.3661 24C53.8861 24 53.8501 23.952 53.8501 23.856V19.764C53.8501 18.948 53.8261 18.108 53.8261 17.808C53.8261 17.712 53.8621 17.664 54.3181 17.664H54.3781C54.8101 17.664 54.8701 17.7 54.8701 17.808L54.8821 18.348H54.8941C55.3141 17.856 56.1061 17.544 56.8501 17.544C57.5101 17.544 58.0981 17.772 58.4941 18.18C58.9261 18.624 59.1061 19.248 59.1061 20.22V23.856C59.1061 23.94 59.0941 24 58.6141 24H58.5421C58.0621 24 58.0261 23.952 58.0261 23.856V20.724C58.0261 19.752 57.9901 19.296 57.7021 18.96C57.4741 18.684 57.0901 18.564 56.5621 18.564C56.1181 18.564 55.5781 18.72 55.2901 18.996C55.1461 19.128 55.0141 19.332 54.9661 19.848C54.9421 20.184 54.9301 20.796 54.9301 21.492V23.856C54.9301 23.94 54.9181 24 54.4381 24H54.3661ZM62.7184 24.12C62.1784 24.12 61.7824 23.976 61.5184 23.724C61.1704 23.4 61.0624 22.944 61.0624 22.14V18.516H60.0184C59.9464 18.516 59.9224 18.456 59.9224 18.24V18.168C59.9224 17.976 59.9464 17.904 60.0304 17.88C61.0744 17.58 61.2664 17.1 61.3864 15.984C61.3984 15.912 61.4584 15.888 61.7224 15.888H61.8064C62.0824 15.888 62.1424 15.924 62.1424 15.996V17.664H63.6544C63.7384 17.664 63.7624 17.724 63.7624 18.036V18.132C63.7624 18.456 63.7384 18.516 63.6544 18.516H62.1424V22.056C62.1424 22.512 62.1784 22.812 62.3344 22.98C62.4664 23.124 62.6704 23.196 62.9464 23.196C63.2224 23.196 63.5224 23.112 63.7624 23.04C63.8824 23.004 63.9184 23.052 63.9784 23.28L64.0144 23.436C64.0744 23.688 64.0744 23.76 63.9784 23.82C63.6784 24.012 63.1624 24.12 62.7184 24.12ZM65.7564 24C65.2764 24 65.2404 23.952 65.2404 23.856V19.764C65.2404 18.948 65.2164 18.108 65.2164 17.808C65.2164 17.712 65.2524 17.664 65.7084 17.664H65.7684C66.2004 17.664 66.2604 17.7 66.2604 17.808L66.2844 19.044C66.7404 18.036 67.4004 17.592 68.0364 17.592C68.1444 17.592 68.2284 17.604 68.2884 17.616C68.3964 17.64 68.4084 17.676 68.4084 17.952V18.132C68.4084 18.48 68.3964 18.576 68.2764 18.576C67.4244 18.576 66.9924 19.104 66.6444 19.668C66.4764 19.944 66.3804 20.28 66.3564 20.7C66.3324 21.036 66.3204 21.78 66.3204 22.476V23.856C66.3204 23.94 66.3084 24 65.8284 24H65.7564ZM71.7294 24.12C70.9974 24.12 70.3854 23.928 69.9294 23.52C69.3294 22.992 68.9814 22.104 68.9814 20.976C68.9814 18.708 70.1694 17.544 71.9694 17.544C72.7014 17.544 73.3134 17.736 73.7694 18.144C74.3694 18.672 74.7174 19.56 74.7174 20.688C74.7174 22.956 73.5294 24.12 71.7294 24.12ZM71.7774 23.16C72.7374 23.16 73.5894 22.488 73.5894 20.772C73.5894 19.692 73.2294 18.504 71.9214 18.504C70.9614 18.504 70.1094 19.176 70.1094 20.892C70.1094 21.972 70.4694 23.16 71.7774 23.16ZM77.2177 24.012C76.8817 24.012 76.5457 23.928 76.3297 23.604C76.1737 23.376 76.1257 22.98 76.1257 22.344V18.324C76.1257 17.064 76.1137 15.504 76.0537 15.036C76.0417 14.916 76.1617 14.88 76.5697 14.88H76.6417C77.0257 14.88 77.1097 14.916 77.1337 15.036C77.1937 15.372 77.2057 16.812 77.2057 18.588V22.572C77.2057 23.016 77.2657 23.172 77.6617 23.172H77.7817C77.8417 23.172 77.8537 23.22 77.8537 23.496V23.532C77.8537 23.844 77.8537 23.892 77.7817 23.916C77.6137 23.976 77.3977 24.012 77.2177 24.012ZM81.812 24.12C79.868 24.12 78.872 22.908 78.872 20.976C78.872 18.96 79.976 17.544 81.752 17.544C82.82 17.544 83.552 18.072 83.948 18.864C84.224 19.416 84.344 20.076 84.344 20.784C84.344 21.144 84.32 21.216 84.224 21.216H80C80.036 21.876 80.228 22.392 80.6 22.704C80.924 22.992 81.392 23.136 82.016 23.136C82.52 23.136 83.024 23.016 83.6 22.752C83.708 22.704 83.78 22.68 83.9 22.98L83.96 23.124C84.092 23.436 84.08 23.508 83.984 23.568C83.372 23.928 82.616 24.12 81.812 24.12ZM80.036 20.328H83.24C83.228 19.428 82.772 18.528 81.764 18.528C80.888 18.528 80.204 19.092 80.036 20.328Z" fill="white"/>
<path d="M16.732 44C16.264 44 16.216 43.976 16.264 43.844L19.468 35.528C19.516 35.384 19.576 35.36 20.08 35.36H20.14C20.656 35.36 20.716 35.372 20.788 35.528L24.04 43.844C24.088 43.964 23.992 44 23.536 44H23.416C22.936 44 22.852 43.976 22.792 43.856L22.012 41.72H18.22L17.428 43.856C17.38 43.976 17.296 44 16.84 44H16.732ZM18.532 40.82H21.688L21.316 39.8C20.86 38.576 20.452 37.436 20.128 36.44C19.78 37.412 19.348 38.6 18.916 39.764L18.532 40.82ZM27.0348 44.12C26.4948 44.12 26.0988 43.976 25.8348 43.724C25.4868 43.4 25.3788 42.944 25.3788 42.14V38.516H24.3348C24.2628 38.516 24.2388 38.456 24.2388 38.24V38.168C24.2388 37.976 24.2628 37.904 24.3468 37.88C25.3908 37.58 25.5828 37.1 25.7028 35.984C25.7148 35.912 25.7748 35.888 26.0388 35.888H26.1228C26.3988 35.888 26.4588 35.924 26.4588 35.996V37.664H27.9708C28.0548 37.664 28.0788 37.724 28.0788 38.036V38.132C28.0788 38.456 28.0548 38.516 27.9708 38.516H26.4588V42.056C26.4588 42.512 26.4948 42.812 26.6508 42.98C26.7828 43.124 26.9868 43.196 27.2628 43.196C27.5388 43.196 27.8388 43.112 28.0788 43.04C28.1988 43.004 28.2348 43.052 28.2948 43.28L28.3308 43.436C28.3908 43.688 28.3908 43.76 28.2948 43.82C27.9948 44.012 27.4788 44.12 27.0348 44.12ZM31.6819 36.908C31.2979 36.908 31.2739 36.836 31.3219 36.764L32.1979 35.228C32.2459 35.144 32.3899 35.096 32.7259 35.096H32.8699C33.3139 35.096 33.3979 35.18 33.3379 35.264L32.2099 36.8C32.1739 36.86 32.0659 36.908 31.7779 36.908H31.6819ZM32.0659 44.12C30.1219 44.12 29.1259 42.908 29.1259 40.976C29.1259 38.96 30.2299 37.544 32.0059 37.544C33.0739 37.544 33.8059 38.072 34.2019 38.864C34.4779 39.416 34.5979 40.076 34.5979 40.784C34.5979 41.144 34.5739 41.216 34.4779 41.216H30.2539C30.2899 41.876 30.4819 42.392 30.8539 42.704C31.1779 42.992 31.6459 43.136 32.2699 43.136C32.7739 43.136 33.2779 43.016 33.8539 42.752C33.9619 42.704 34.0339 42.68 34.1539 42.98L34.2139 43.124C34.3459 43.436 34.3339 43.508 34.2379 43.568C33.6259 43.928 32.8699 44.12 32.0659 44.12ZM30.2899 40.328H33.4939C33.4819 39.428 33.0259 38.528 32.0179 38.528C31.1419 38.528 30.4579 39.092 30.2899 40.328Z" fill="white"/>
<path d="M17.56 68C16.864 68 16.744 67.928 16.744 67.568V66.992C16.744 66.344 16.84 66.104 17.176 65.672L20.464 61.712C22.864 58.832 23.8 57.248 23.8 55.448C23.8 53.744 22.744 52.784 21.256 52.784C20.128 52.784 19.144 53.216 18.016 53.864C17.752 54.008 17.608 53.96 17.248 53.288L17.008 52.856C16.744 52.376 16.696 52.16 17.008 51.944C18.232 51.08 19.912 50.48 21.52 50.48C24.64 50.48 26.68 52.328 26.68 55.328C26.68 57.632 25.624 59.48 22.504 63.032L20.224 65.624H26.68C26.872 65.624 26.944 65.744 26.944 66.632V66.992C26.944 67.88 26.872 68 26.68 68H17.56ZM30.9291 68C30.0891 68 29.8971 67.928 30.0171 67.664L36.3051 53.096H28.6971C28.5051 53.096 28.4331 52.976 28.4331 52.088V51.728C28.4331 50.84 28.5051 50.72 28.6971 50.72H38.3211C39.0651 50.72 39.1851 50.816 39.1851 51.128V52.04C39.1851 52.544 39.1371 52.784 38.8251 53.504L32.9691 67.664C32.8491 67.952 32.6571 68 31.5771 68H30.9291ZM48.6998 68.24C43.1558 68.24 40.4918 64.808 40.4918 59.408C40.4918 53.984 43.5878 50.48 48.9398 50.48C51.0038 50.48 52.7558 50.96 54.2678 51.968C54.5318 52.136 54.5318 52.28 54.1238 53L53.8358 53.504C53.4758 54.128 53.3558 54.176 53.0438 54.008C51.8198 53.288 50.4998 52.952 49.1078 52.952C45.5078 52.952 43.5158 55.208 43.5158 59.36C43.5158 63.584 45.4118 65.792 49.0118 65.792C49.9478 65.792 51.0758 65.624 51.8678 65.384V60.872H48.4838C48.1958 60.872 48.0998 60.8 48.0998 59.768V59.6C48.0998 58.568 48.1718 58.52 48.4838 58.52H53.9078C54.6518 58.52 54.7718 58.592 54.7718 58.88V66.656C54.7718 66.92 54.6998 67.04 54.4358 67.16C53.1398 67.784 50.7398 68.24 48.6998 68.24ZM59.1428 68C58.3748 68 58.2548 67.952 58.2068 67.76V50.96C58.2068 50.744 58.3748 50.72 59.1188 50.72H63.2708C67.2548 50.72 69.6308 51.992 69.6308 55.04C69.6308 56.936 68.5508 58.16 67.0388 58.808C69.1988 59.36 70.6148 60.728 70.6148 62.936C70.6148 66.656 67.7588 68 63.6308 68H59.1428ZM61.1588 58.016H63.1988C65.3828 58.016 66.7028 57.248 66.7028 55.448C66.7028 53.6 65.4548 53.024 63.2948 53.024H61.1588V58.016ZM61.1588 65.696H63.6308C66.1988 65.696 67.6148 64.976 67.6148 62.936C67.6148 60.848 66.1748 60.224 63.6788 60.224H61.1588V65.696Z" fill="#00B7F8"/>
<path d="M30.016 93.14C30.184 93.404 29.944 93.5 29.272 93.5H28.624C27.784 93.5 27.616 93.476 27.448 93.212L24.448 88.292C23.392 86.564 23.032 86.444 21.328 86.444H20.2V93.236C20.2 93.476 20.032 93.5 19.144 93.5H18.904C18.016 93.5 17.896 93.452 17.896 93.236V76.22H22.288C26.8 76.22 29.344 77.54 29.344 81.044C29.344 83.708 27.832 85.316 25.288 86.084C25.72 86.42 26.104 86.948 26.704 87.884L30.016 93.14ZM22.624 84.62C25.336 84.62 26.968 83.588 26.968 81.188C26.968 78.788 25.384 78.068 22.504 78.068H20.2V84.62H22.624ZM43.2691 88.868C43.2691 91.364 41.5171 93.212 38.5891 93.644V95.804C38.5891 95.996 38.3731 96.068 37.8211 96.068H37.3651C36.7651 96.068 36.5731 95.996 36.5731 95.804V93.716C34.7251 93.596 32.9011 92.996 31.9651 92.276C31.7491 92.108 31.7011 91.964 32.0611 91.316L32.2051 91.052C32.4931 90.524 32.6371 90.452 32.8531 90.572C34.1251 91.34 35.6131 91.844 37.1011 91.844C39.5011 91.844 40.9891 90.644 40.9891 88.868C40.9891 87.356 40.0051 86.732 37.0291 85.388C33.8611 83.948 32.5891 82.7 32.5891 80.516C32.5891 78.068 34.5331 76.412 37.1011 76.052V74.084C37.1011 73.892 37.3171 73.82 37.8691 73.82H38.3251C38.9251 73.82 39.1171 73.892 39.1171 74.084V76.028C40.4371 76.148 41.5891 76.532 42.5731 77.18C42.8371 77.348 42.8371 77.444 42.5251 78.068L42.4051 78.308C42.0931 78.932 41.9971 78.956 41.7331 78.812C40.5331 78.188 39.4291 77.852 38.2531 77.852C36.3091 77.852 34.8691 78.884 34.8691 80.396C34.8691 81.812 35.8771 82.484 38.4451 83.684C41.6131 85.172 43.2691 86.324 43.2691 88.868ZM49.3028 93.74C48.2228 93.74 46.7108 93.452 45.7028 93.044C45.5348 92.972 45.5348 92.732 45.7028 92.204L45.7988 91.892C45.9428 91.388 46.1108 91.124 46.2788 91.196C47.3348 91.628 48.4628 91.796 49.4948 91.796C51.7508 91.796 53.3588 90.476 53.3588 88.028C53.3588 85.22 51.5828 84.524 49.7588 84.524C48.4868 84.524 47.4548 84.668 46.3748 84.908V76.22H54.9428C55.1108 76.22 55.1588 76.484 55.1588 77.012V77.324C55.1588 77.876 55.1108 78.14 54.9428 78.14H48.6068V82.82C49.1108 82.724 49.6388 82.652 50.1428 82.652C53.1428 82.652 55.6388 84.212 55.6388 87.884C55.6388 91.796 52.8548 93.74 49.3028 93.74ZM66.2539 93.5C65.5819 93.5 65.2219 93.428 65.2219 93.236V89.108H58.8379C58.2139 89.108 57.9979 89.036 57.9979 88.772V87.716C57.9979 87.284 58.1179 86.804 58.2859 86.42L63.0859 76.508C63.1819 76.292 63.5899 76.22 64.1659 76.22H64.5499C65.1499 76.22 65.5579 76.34 65.4619 76.556L60.3499 87.188H65.2219V83.372C65.2219 83.18 65.5819 83.108 66.2059 83.108H66.4699C67.1419 83.108 67.5019 83.18 67.5019 83.372V87.188H69.4459C69.6139 87.188 69.6619 87.452 69.6619 87.98V88.292C69.6619 88.844 69.6139 89.108 69.4459 89.108H67.5019V93.236C67.5019 93.428 67.1419 93.5 66.5179 93.5H66.2539Z" fill="white"/>
<path d="M72.008 84.968C71.912 85.052 71.78 85.064 71.66 84.944L71.528 84.8C71.456 84.728 71.384 84.596 71.504 84.476C71.852 84.14 72.2 83.696 72.2 83.276C72.2 82.784 71.672 82.88 71.672 82.196C71.672 81.776 72.02 81.5 72.428 81.5C72.98 81.5 73.304 81.92 73.304 82.436C73.304 83.384 72.776 84.356 72.008 84.968ZM76.4865 83.12C75.7785 83.12 75.2265 82.964 74.7345 82.712C74.6505 82.664 74.6625 82.448 74.7465 82.256L74.7945 82.148C74.8785 81.956 75.0225 81.8 75.1065 81.848C75.4785 82.052 76.0425 82.172 76.4865 82.172C78.2745 82.172 78.7305 80.336 78.8265 78.764C78.3465 79.172 77.6145 79.436 76.9425 79.436C75.2625 79.436 74.5065 78.392 74.5065 76.928C74.5065 75.38 75.4665 74.24 77.2425 74.24C79.4625 74.24 80.0025 76.004 80.0025 77.984C80.0025 80.528 79.2225 83.12 76.4865 83.12ZM77.0985 78.488C77.8185 78.488 78.4305 78.176 78.8745 77.9V77.756C78.8745 76.604 78.6825 75.176 77.2065 75.176C76.0305 75.176 75.6465 76.064 75.6465 76.82C75.6465 77.66 75.9345 78.488 77.0985 78.488ZM83.1545 83.12C82.4465 83.12 81.8945 82.964 81.4025 82.712C81.3185 82.664 81.3305 82.448 81.4145 82.256L81.4625 82.148C81.5465 81.956 81.6905 81.8 81.7745 81.848C82.1465 82.052 82.7105 82.172 83.1545 82.172C84.9425 82.172 85.3985 80.336 85.4945 78.764C85.0145 79.172 84.2825 79.436 83.6105 79.436C81.9305 79.436 81.1745 78.392 81.1745 76.928C81.1745 75.38 82.1345 74.24 83.9105 74.24C86.1305 74.24 86.6705 76.004 86.6705 77.984C86.6705 80.528 85.8905 83.12 83.1545 83.12ZM83.7665 78.488C84.4865 78.488 85.0985 78.176 85.5425 77.9V77.756C85.5425 76.604 85.3505 75.176 83.8745 75.176C82.6985 75.176 82.3145 76.064 82.3145 76.82C82.3145 77.66 82.6025 78.488 83.7665 78.488Z" fill="white"/>
<path d="M71.516 95.204C71.228 95.204 71.12 95.156 71.144 95.06L73.784 86.264C73.82 86.156 73.928 86.144 74.204 86.144H74.432C74.72 86.144 74.84 86.192 74.816 86.288L72.188 95.084C72.164 95.168 72.032 95.204 71.756 95.204H71.516ZM76.3649 95C75.8849 95 75.8489 94.952 75.8489 94.856V90.764C75.8489 89.948 75.8249 89.108 75.8249 88.808C75.8249 88.712 75.8609 88.664 76.3169 88.664H76.3769C76.8089 88.664 76.8689 88.7 76.8689 88.808L76.8809 89.348H76.8929C77.3129 88.856 78.0089 88.544 78.7529 88.544C79.4129 88.544 79.9769 88.772 80.3729 89.18C80.4809 89.3 80.5769 89.42 80.6489 89.564C81.1289 88.904 81.9569 88.544 82.8089 88.544C83.4689 88.544 84.0329 88.772 84.4289 89.18C84.8609 89.624 85.0409 90.248 85.0409 91.22V94.856C85.0409 94.94 85.0289 95 84.5489 95H84.4769C83.9969 95 83.9609 94.952 83.9609 94.856V91.724C83.9609 90.752 83.9249 90.296 83.6369 89.96C83.4089 89.684 83.0009 89.564 82.5449 89.564C82.1249 89.564 81.6209 89.72 81.3449 89.984C81.2009 90.116 81.0689 90.32 81.0209 90.836C80.9969 91.172 80.9849 91.784 80.9849 92.48V94.856C80.9849 94.94 80.9729 95 80.4929 95H80.4209C79.9409 95 79.9049 94.952 79.9049 94.856V91.724C79.9049 90.752 79.8689 90.296 79.5809 89.96C79.3529 89.684 78.9449 89.564 78.4889 89.564C78.0689 89.564 77.5649 89.72 77.2889 89.984C77.1449 90.116 77.0129 90.32 76.9649 90.836C76.9409 91.172 76.9289 91.784 76.9289 92.48V94.856C76.9289 94.94 76.9169 95 76.4369 95H76.3649ZM90.5748 87.872L89.2548 86.72L87.9108 87.86C87.8628 87.908 87.7428 87.86 87.6228 87.728L87.5388 87.632C87.3948 87.476 87.3588 87.38 87.4188 87.308L88.5108 86.144C88.5948 86.048 88.7268 85.988 89.0388 85.988H89.4948C89.8308 85.988 89.9628 86.072 90.0348 86.156L91.1028 87.284C91.1748 87.356 91.1268 87.476 90.9828 87.632L90.8868 87.74C90.7788 87.872 90.6348 87.932 90.5748 87.872ZM89.3628 95.12C87.4188 95.12 86.4228 93.908 86.4228 91.976C86.4228 89.96 87.5268 88.544 89.3028 88.544C90.3708 88.544 91.1028 89.072 91.4988 89.864C91.7748 90.416 91.8948 91.076 91.8948 91.784C91.8948 92.144 91.8708 92.216 91.7748 92.216H87.5508C87.5868 92.876 87.7788 93.392 88.1508 93.704C88.4748 93.992 88.9428 94.136 89.5668 94.136C90.0708 94.136 90.5748 94.016 91.1508 93.752C91.2588 93.704 91.3308 93.68 91.4508 93.98L91.5108 94.124C91.6428 94.436 91.6308 94.508 91.5348 94.568C90.9228 94.928 90.1668 95.12 89.3628 95.12ZM87.5868 91.328H90.7908C90.7788 90.428 90.3228 89.528 89.3148 89.528C88.4388 89.528 87.7548 90.092 87.5868 91.328ZM94.9782 95.12C94.2102 95.12 93.4662 94.844 93.0102 94.52C92.8902 94.436 92.9262 94.364 93.0582 94.088L93.1182 93.956C93.2742 93.62 93.3222 93.608 93.4782 93.704C93.9342 93.968 94.5102 94.184 95.0382 94.184C95.5902 94.184 96.3582 93.908 96.3582 93.212C96.3582 92.564 95.5902 92.348 94.9782 92.216C94.3422 92.072 93.8742 91.904 93.5502 91.604C93.2502 91.328 93.0702 90.908 93.0702 90.44C93.0702 89.264 94.0902 88.544 95.2902 88.544C96.0462 88.544 96.7422 88.808 97.1862 89.204C97.2822 89.288 97.3062 89.396 97.1382 89.636L97.0542 89.756C96.8382 90.068 96.7782 90.068 96.6942 89.996C96.2502 89.684 95.8302 89.468 95.3022 89.468C94.8102 89.468 94.1022 89.66 94.1022 90.32C94.1022 90.968 94.7742 91.136 95.3502 91.28C96.3342 91.532 97.3782 91.892 97.3782 93.14C97.3782 94.424 96.2982 95.12 94.9782 95.12Z" fill="white"/>
<g clip-path="url(#clip0_2818_1483)">
<path d="M17.106 117V106.92H23.126C23.266 106.92 23.294 106.976 23.294 107.41V107.494C23.294 107.928 23.266 107.998 23.126 107.998H18.45V111.358H22.426C22.552 111.358 22.594 111.414 22.594 111.848V111.932C22.594 112.366 22.552 112.436 22.426 112.436H18.45V115.922H23.182C23.322 115.922 23.35 115.964 23.35 116.412V116.482C23.35 116.916 23.322 117 23.182 117H17.106ZM26.9257 117.14C26.0297 117.14 25.1617 116.818 24.6297 116.44C24.4897 116.342 24.5317 116.258 24.6857 115.936L24.7557 115.782C24.9377 115.39 24.9937 115.376 25.1757 115.488C25.7077 115.796 26.3797 116.048 26.9957 116.048C27.6397 116.048 28.5357 115.726 28.5357 114.914C28.5357 114.158 27.6397 113.906 26.9257 113.752C26.1837 113.584 25.6377 113.388 25.2597 113.038C24.9097 112.716 24.6997 112.226 24.6997 111.68C24.6997 110.308 25.8897 109.468 27.2897 109.468C28.1717 109.468 28.9837 109.776 29.5017 110.238C29.6137 110.336 29.6417 110.462 29.4457 110.742L29.3477 110.882C29.0957 111.246 29.0257 111.246 28.9277 111.162C28.4097 110.798 27.9197 110.546 27.3037 110.546C26.7297 110.546 25.9037 110.77 25.9037 111.54C25.9037 112.296 26.6877 112.492 27.3597 112.66C28.5077 112.954 29.7257 113.374 29.7257 114.83C29.7257 116.328 28.4657 117.14 26.9257 117.14ZM34.1778 117.14C32.0358 117.14 30.9718 115.502 30.9718 113.416C30.9718 110.854 32.4698 109.468 34.4158 109.468C35.2978 109.468 36.0818 109.776 36.6698 110.196C36.7818 110.28 36.7818 110.378 36.5858 110.84C36.3758 111.316 36.2358 111.274 36.1378 111.204C35.6198 110.854 35.0458 110.616 34.4858 110.616C33.1838 110.616 32.2878 111.596 32.2878 113.332C32.2878 114.676 32.8338 115.992 34.3458 115.992C34.9338 115.992 35.5778 115.824 36.1238 115.558C36.2358 115.502 36.3758 115.544 36.4878 115.838L36.5578 116.02C36.6978 116.356 36.6558 116.454 36.5578 116.51C35.8578 116.902 35.0458 117.14 34.1778 117.14ZM41.0001 117.14C40.1461 117.14 39.4321 116.916 38.9001 116.44C38.2001 115.824 37.7941 114.788 37.7941 113.472C37.7941 110.826 39.1801 109.468 41.2801 109.468C42.1341 109.468 42.8481 109.692 43.3801 110.168C44.0801 110.784 44.4861 111.82 44.4861 113.136C44.4861 115.782 43.1001 117.14 41.0001 117.14ZM41.0561 116.02C42.1761 116.02 43.1701 115.236 43.1701 113.234C43.1701 111.974 42.7501 110.588 41.2241 110.588C40.1041 110.588 39.1101 111.372 39.1101 113.374C39.1101 114.634 39.5301 116.02 41.0561 116.02ZM47.4031 117.014C47.0111 117.014 46.6191 116.916 46.3671 116.538C46.1851 116.272 46.1291 115.81 46.1291 115.068V110.378C46.1291 108.908 46.1151 107.088 46.0451 106.542C46.0311 106.402 46.1711 106.36 46.6471 106.36H46.7311C47.1791 106.36 47.2771 106.402 47.3051 106.542C47.3751 106.934 47.3891 108.614 47.3891 110.686V115.334C47.3891 115.852 47.4591 116.034 47.9211 116.034H48.0611C48.1311 116.034 48.1451 116.09 48.1451 116.412V116.454C48.1451 116.818 48.1451 116.874 48.0611 116.902C47.8651 116.972 47.6131 117.014 47.4031 117.014ZM50.3691 117C49.8091 117 49.7671 116.944 49.7671 116.832V106.528C49.7671 106.43 49.7811 106.36 50.3411 106.36H50.4251C50.9851 106.36 51.0271 106.416 51.0271 106.528V110.364C51.5171 109.818 52.4271 109.468 53.2671 109.468C54.0371 109.468 54.7231 109.734 55.1851 110.21C55.6891 110.728 55.8991 111.456 55.8991 112.59V116.832C55.8991 116.93 55.8851 117 55.3251 117H55.2411C54.6811 117 54.6391 116.944 54.6391 116.832V113.178C54.6391 112.044 54.5971 111.512 54.2611 111.12C53.9951 110.798 53.5471 110.658 52.9311 110.658C52.4131 110.658 51.7831 110.84 51.4471 111.162C51.2791 111.316 51.1251 111.554 51.0691 112.156C51.0411 112.548 51.0271 113.262 51.0271 114.074V116.832C51.0271 116.93 51.0131 117 50.4531 117H50.3691ZM60.5049 117.14C58.4609 117.14 57.5089 115.446 57.5089 113.43C57.5089 111.036 58.8809 109.468 60.7289 109.468C61.5689 109.468 62.2269 109.86 62.6189 110.364L62.6889 109.776C62.7029 109.608 62.7729 109.608 63.1929 109.608H63.2209C63.7529 109.608 63.7669 109.664 63.7669 109.776C63.7669 110.112 63.7389 111.008 63.7389 111.904V113.864C63.7389 115.152 63.7949 116.062 63.8369 116.832C63.8369 116.944 63.7669 117 63.3329 117H63.2769C62.8429 117 62.7589 116.958 62.7449 116.832L62.6609 116.188C62.2129 116.734 61.4149 117.14 60.5049 117.14ZM60.7289 116.02C61.1909 116.02 61.7509 115.88 62.1289 115.474C62.4229 115.152 62.4789 114.76 62.4789 113.542V111.554C62.1569 111.05 61.5269 110.602 60.8689 110.602C59.5809 110.602 58.8249 111.68 58.8249 113.36C58.8249 114.676 59.2869 116.02 60.7289 116.02ZM72.3823 117.14C70.1143 117.14 68.9523 115.726 68.9523 113.472C68.9523 111.12 70.2403 109.468 72.3123 109.468C73.5583 109.468 74.4123 110.084 74.8743 111.008C75.1963 111.652 75.3363 112.422 75.3363 113.248C75.3363 113.668 75.3083 113.752 75.1963 113.752H70.2683C70.3103 114.522 70.5343 115.124 70.9683 115.488C71.3463 115.824 71.8923 115.992 72.6203 115.992C73.2083 115.992 73.7963 115.852 74.4683 115.544C74.5943 115.488 74.6783 115.46 74.8183 115.81L74.8883 115.978C75.0423 116.342 75.0283 116.426 74.9163 116.496C74.2023 116.916 73.3203 117.14 72.3823 117.14ZM70.3103 112.716H74.0483C74.0343 111.666 73.5023 110.616 72.3263 110.616C71.3043 110.616 70.5063 111.274 70.3103 112.716ZM77.6315 117C77.0715 117 77.0295 116.944 77.0295 116.832V112.058C77.0295 111.106 77.0015 110.126 77.0015 109.776C77.0015 109.664 77.0435 109.608 77.5755 109.608H77.6455C78.1495 109.608 78.2195 109.65 78.2195 109.776L78.2335 110.406H78.2475C78.7375 109.832 79.6615 109.468 80.5295 109.468C81.2995 109.468 81.9855 109.734 82.4475 110.21C82.9515 110.728 83.1615 111.456 83.1615 112.59V116.832C83.1615 116.93 83.1475 117 82.5875 117H82.5035C81.9435 117 81.9015 116.944 81.9015 116.832V113.178C81.9015 112.044 81.8595 111.512 81.5235 111.12C81.2575 110.798 80.8095 110.658 80.1935 110.658C79.6755 110.658 79.0455 110.84 78.7095 111.162C78.5415 111.316 78.3875 111.554 78.3315 112.156C78.3035 112.548 78.2895 113.262 78.2895 114.074V116.832C78.2895 116.93 78.2755 117 77.7155 117H77.6315ZM87.3759 117.14C86.7459 117.14 86.2839 116.972 85.9759 116.678C85.5699 116.3 85.4439 115.768 85.4439 114.83V110.602H84.2259C84.1419 110.602 84.1139 110.532 84.1139 110.28V110.196C84.1139 109.972 84.1419 109.888 84.2399 109.86C85.4579 109.51 85.6819 108.95 85.8219 107.648C85.8359 107.564 85.9059 107.536 86.2139 107.536H86.3119C86.6339 107.536 86.7039 107.578 86.7039 107.662V109.608H88.4679C88.5659 109.608 88.5939 109.678 88.5939 110.042V110.154C88.5939 110.532 88.5659 110.602 88.4679 110.602H86.7039V114.732C86.7039 115.264 86.7459 115.614 86.9279 115.81C87.0819 115.978 87.3199 116.062 87.6419 116.062C87.9639 116.062 88.3139 115.964 88.5939 115.88C88.7339 115.838 88.7759 115.894 88.8459 116.16L88.8879 116.342C88.9579 116.636 88.9579 116.72 88.8459 116.79C88.4959 117.014 87.8939 117.14 87.3759 117.14ZM90.9202 117C90.3602 117 90.3182 116.944 90.3182 116.832V112.058C90.3182 111.106 90.2902 110.126 90.2902 109.776C90.2902 109.664 90.3322 109.608 90.8642 109.608H90.9342C91.4382 109.608 91.5082 109.65 91.5082 109.776L91.5362 111.218C92.0682 110.042 92.8382 109.524 93.5802 109.524C93.7062 109.524 93.8042 109.538 93.8742 109.552C94.0002 109.58 94.0142 109.622 94.0142 109.944V110.154C94.0142 110.56 94.0002 110.672 93.8602 110.672C92.8662 110.672 92.3622 111.288 91.9562 111.946C91.7602 112.268 91.6482 112.66 91.6202 113.15C91.5922 113.542 91.5782 114.41 91.5782 115.222V116.832C91.5782 116.93 91.5642 117 91.0042 117H90.9202ZM98.1127 117.14C95.8447 117.14 94.6827 115.726 94.6827 113.472C94.6827 111.12 95.9707 109.468 98.0427 109.468C99.2887 109.468 100.143 110.084 100.605 111.008C100.927 111.652 101.067 112.422 101.067 113.248C101.067 113.668 101.039 113.752 100.927 113.752H95.9987C96.0407 114.522 96.2647 115.124 96.6987 115.488C97.0767 115.824 97.6227 115.992 98.3507 115.992C98.9387 115.992 99.5267 115.852 100.199 115.544C100.325 115.488 100.409 115.46 100.549 115.81L100.619 115.978C100.773 116.342 100.759 116.426 100.647 116.496C99.9327 116.916 99.0507 117.14 98.1127 117.14ZM96.0407 112.716H99.7787C99.7647 111.666 99.2327 110.616 98.0567 110.616C97.0347 110.616 96.2367 111.274 96.0407 112.716ZM103.404 111.918C102.886 111.918 102.466 111.498 102.466 110.98C102.466 110.462 102.886 110.042 103.404 110.042C103.922 110.042 104.342 110.462 104.342 110.98C104.342 111.498 103.922 111.918 103.404 111.918ZM103.404 117.14C102.886 117.14 102.466 116.72 102.466 116.202C102.466 115.684 102.886 115.264 103.404 115.264C103.922 115.264 104.342 115.684 104.342 116.202C104.342 116.72 103.922 117.14 103.404 117.14Z" fill="white"/>
<circle cx="28.0006" cy="137" r="12" fill="#0270FD"/>
<g clip-path="url(#clip1_2818_1483)">
<path d="M26.7487 137.17C26.7004 137.151 26.6212 137.064 26.753 136.821L27.0589 136.193C27.0682 136.174 27.046 136.15 27.032 136.166L26.7646 136.43C26.638 136.56 26.4233 136.925 26.3817 136.992L26.0567 137.52C26.0908 137.519 26.113 137.554 26.0962 137.584L25.7993 138.074C25.7266 138.195 25.8571 138.28 25.8748 138.252C26.3416 137.514 26.613 137.573 26.613 137.573L26.7689 137.218C26.778 137.199 26.7683 137.178 26.7489 137.17H26.7487Z" fill="white"/>
<path d="M27.8086 131C25.1398 131 22.9761 133.124 22.9761 135.744C22.9761 136.799 23.3275 137.773 23.9209 138.561C24.1236 138.475 24.2363 138.346 24.3168 138.248L25.2165 137.118C25.2355 137.094 25.2603 137.076 25.2885 137.064L25.4239 137.007L26.9035 135.164L27.118 134.999L27.5587 134.397C27.5702 134.381 27.584 134.368 27.5999 134.356L27.7922 134.219C27.8397 134.185 27.9039 134.184 27.952 134.218L28.1853 134.379C28.3091 134.464 28.4095 134.578 28.4775 134.711L29.4121 136.323C29.4331 136.358 29.4481 136.373 29.4854 136.391C29.6687 136.481 29.7806 136.497 30.0206 136.753C30.1325 136.872 30.623 137.411 31.3108 138.248C31.4055 138.374 31.528 138.48 31.6989 138.557C32.2906 137.77 32.641 136.797 32.641 135.744C32.6414 133.124 30.4777 131 27.8086 131ZM24.2795 136.005L23.9662 135.905L23.7726 136.167V135.844L23.4593 135.744L23.7726 135.644V135.321L23.9662 135.582L24.2795 135.483L24.0858 135.744L24.2795 136.006V136.005ZM24.2051 137.063L24.1033 137.371L24.0015 137.063H23.6723L23.9388 136.873L23.837 136.566L24.1035 136.756L24.37 136.566L24.2682 136.873L24.5347 137.063H24.2055H24.2051ZM24.268 134.615L24.3698 134.922L24.1033 134.732L23.8368 134.922L23.9386 134.615L23.6721 134.424H24.0013L24.1031 134.117L24.2049 134.424H24.5341L24.2676 134.615H24.268ZM24.7969 133.919L24.6033 133.657L24.29 133.757L24.4836 133.496L24.29 133.234L24.6033 133.334L24.7969 133.072V133.396L25.1102 133.495L24.7969 133.595V133.919V133.919ZM25.6204 132.787L25.5186 133.095L25.4168 132.787H25.0876L25.3541 132.597L25.2523 132.289L25.5188 132.479L25.7853 132.289L25.6835 132.597L25.95 132.787H25.6208H25.6204ZM26.6583 132.268L26.4647 132.53V132.206L26.1514 132.107L26.4647 132.007V131.683L26.6583 131.945L26.9716 131.845L26.778 132.107L26.9716 132.368L26.6583 132.268V132.268ZM27.9734 131.972L28.0751 132.279L27.8086 132.089L27.5421 132.279L27.6439 131.972L27.3774 131.782H27.7066L27.8084 131.474L27.9102 131.782H28.2394L27.9729 131.972H27.9734ZM29.1528 132.206V132.529L28.9591 132.268L28.6459 132.368L28.8395 132.106L28.6459 131.845L28.9591 131.944L29.1528 131.683V132.006L29.466 132.106L29.1528 132.206V132.206ZM31.338 135.482L31.6513 135.582L31.8449 135.32V135.644L32.1582 135.744L31.8449 135.843V136.167L31.6513 135.905L31.338 136.005L31.5316 135.743L31.338 135.482V135.482ZM30.0987 133.095L29.9969 132.787H29.6676L29.9341 132.597L29.8324 132.289L30.0989 132.479L30.3654 132.289L30.2636 132.597L30.5301 132.787H30.2009L30.0991 133.095H30.0987ZM30.8205 133.919V133.596L30.5072 133.496L30.8205 133.396V133.073L31.0141 133.334L31.3274 133.234L31.1338 133.496L31.3274 133.758L31.0141 133.658L30.8205 133.919V133.919ZM31.4124 134.424L31.5142 134.117L31.6159 134.424H31.9452L31.6787 134.615L31.7804 134.922L31.5139 134.732L31.2474 134.922L31.3492 134.615L31.0827 134.424H31.412H31.4124ZM31.6159 137.063L31.5142 137.371L31.4124 137.063H31.0831L31.3496 136.873L31.2479 136.566L31.5144 136.756L31.7809 136.566L31.6791 136.873L31.9456 137.063H31.6164H31.6159Z" fill="white"/>
<path d="M29.5602 138.486C29.5835 138.453 29.621 138.362 29.5505 138.193L29.3366 137.629C29.3075 137.557 29.3709 137.513 29.4136 137.56C29.4136 137.56 29.8178 138.018 29.9224 138.209L30.1216 138.534C30.293 138.544 30.7665 138.557 31.2219 138.557C31.1766 138.513 31.1344 138.465 31.0949 138.413C30.3176 137.467 29.8249 136.941 29.82 136.936C29.6624 136.768 29.5897 136.735 29.4694 136.682C29.4521 136.674 29.4334 136.665 29.4138 136.656V136.8C29.4138 136.819 29.3911 136.829 29.3795 136.809L28.2365 134.838L28.2333 134.832C28.1858 134.74 28.1151 134.659 28.0287 134.6L27.9172 134.523L27.3721 135.757C27.4571 135.757 27.5142 135.843 27.4804 135.919L26.9767 137.063H27.439C27.6177 137.063 27.7947 137.097 27.9601 137.164L28.0819 137.213C28.0819 137.213 27.7143 137.956 27.7143 138.347C27.7143 138.418 27.7257 138.49 27.7443 138.557H28.5918L28.5526 138.323C28.5526 138.323 29.0627 138.438 29.5604 138.486H29.5602Z" fill="white"/>
<path d="M23.0219 139.688C23.0219 138.924 22.1967 138.557 21.2165 138.557C20.168 138.557 19.2059 139.013 18.8528 139.72C18.7555 139.908 18.7051 140.117 18.7051 140.329C18.7014 140.513 18.7521 140.693 18.8528 140.845C19.0041 141.065 19.2743 141.203 19.6706 141.203C20.157 141.203 20.5427 140.941 20.5427 140.484C20.5427 140.484 20.5499 140.357 20.3985 140.357C20.276 140.357 20.2435 140.442 20.2471 140.484C20.2653 140.842 20.049 141.128 19.6635 141.128C19.231 141.128 19.0509 140.767 19.0509 140.382C19.0509 139.593 19.6564 139.07 20.2868 138.843C20.5824 138.734 20.8923 138.68 21.2092 138.684C21.9227 138.684 22.5063 138.953 22.5063 139.675C22.5063 140.276 21.991 140.789 21.3748 140.835L21.4 140.753C21.5262 140.311 21.6812 139.827 21.9332 139.469C21.9477 139.448 21.9729 139.413 22.0018 139.377L21.9658 139.335C21.9117 139.367 21.8612 139.402 21.8108 139.441C20.629 140.346 20.593 142.893 19.0181 142.893C18.9642 142.893 18.9101 142.89 18.856 142.883C18.5281 142.83 18.3551 142.614 18.3551 142.313C18.3551 142.253 18.3767 142.172 18.3767 142.126C18.3804 142.041 18.3083 141.967 18.2217 141.967H18.2038C18.0632 141.967 18.0056 142.076 18.002 142.232C17.9912 142.681 18.3299 142.943 18.8523 142.992C18.9099 142.996 18.9677 142.999 19.0289 142.999C20.2577 142.999 21.0106 142.087 21.3315 140.98C21.4936 140.962 21.6557 140.927 21.8106 140.881C22.38 140.725 23.0212 140.35 23.0212 139.689L23.0219 139.688Z" fill="white"/>
<path d="M34.7258 139.954H34.2935L34.196 140.177L34.0268 140.552H33.825L33.7637 140.679H33.9727L33.7204 141.227C33.5404 141.613 33.2592 141.991 33.0971 141.991C33.0611 141.991 33.0395 141.977 33.0395 141.942C33.0395 141.906 33.0503 141.874 33.0899 141.775C33.1404 141.659 33.2232 141.489 33.2846 141.365C33.3748 141.185 33.5188 140.905 33.5188 140.767C33.5188 140.629 33.4287 140.52 33.2521 140.52C33.0539 140.52 32.8737 140.637 32.7081 140.806L32.8163 140.552H32.409L32.0776 141.294C31.9444 141.556 31.674 141.991 31.5048 141.991C31.4687 141.991 31.4543 141.97 31.4543 141.935C31.458 141.903 31.4651 141.875 31.4795 141.843C31.494 141.811 31.6921 141.355 31.6921 141.355L32.0524 140.545H31.6128L31.2633 141.333C31.1552 141.577 30.8812 141.991 30.7046 141.991C30.6757 141.995 30.647 141.974 30.6434 141.942V141.928C30.6434 141.885 30.6757 141.808 30.7009 141.751L30.8849 141.355L31.2633 140.545H30.8273L30.7408 140.728C30.6759 140.852 30.5679 140.997 30.395 140.997C30.312 140.997 30.2725 140.966 30.2544 140.934C30.2292 140.661 30.0526 140.516 29.7932 140.516C29.4329 140.516 29.177 140.725 29.0075 140.98C28.8958 141.156 28.8094 141.344 28.7481 141.542C28.5931 141.793 28.4312 141.988 28.3014 141.988C28.2688 141.988 28.2473 141.97 28.2473 141.928C28.2473 141.885 28.2906 141.79 28.305 141.754L28.5897 141.16C28.669 140.976 28.7229 140.856 28.7229 140.736C28.7229 140.608 28.6328 140.516 28.4851 140.516C28.2796 140.516 28.0562 140.633 27.8796 140.824C27.8868 140.792 27.8868 140.764 27.8868 140.732C27.8868 140.591 27.8147 140.516 27.6668 140.516C27.4795 140.516 27.285 140.626 27.1084 140.824L27.2237 140.548H26.8272L26.4922 141.291C26.3337 141.641 26.0778 141.988 25.9335 141.988C25.9012 141.988 25.8794 141.97 25.8794 141.928C25.8794 141.861 25.9551 141.695 25.984 141.627L26.4273 140.641C26.4596 140.566 26.247 140.52 25.9769 140.52C25.7067 140.52 25.4147 140.655 25.2058 140.828C25.0581 140.948 24.9499 141.009 24.8958 141.009C24.8671 141.009 24.8561 140.994 24.8561 140.977C24.8561 140.917 25.0038 140.747 25.0038 140.616C25.0038 140.556 24.9714 140.517 24.8884 140.517C24.73 140.517 24.5426 140.665 24.4057 140.821L24.521 140.549H24.1318L23.7968 141.292C23.6381 141.642 23.375 142.006 23.231 142.006C23.1985 142.006 23.1769 141.989 23.1769 141.946C23.1769 141.879 23.2489 141.716 23.2886 141.631L23.7319 140.641C23.7642 140.566 23.5516 140.52 23.2815 140.52C22.8815 140.52 22.4923 140.786 22.2868 141.058C22.0598 141.352 21.905 141.663 21.9013 141.918C21.8979 142.123 22.0059 142.25 22.2219 142.25C22.4634 142.25 22.6579 142.063 22.7696 141.921C22.7625 141.95 22.7588 141.978 22.7552 142.006C22.7552 142.147 22.8127 142.25 22.9893 142.25C23.1441 142.25 23.3496 142.123 23.5154 141.921L23.3822 142.222H23.8037L24.2181 141.299C24.355 140.998 24.51 140.842 24.5532 140.842C24.5676 140.842 24.5749 140.85 24.5749 140.86C24.5749 140.892 24.51 140.977 24.51 141.054C24.51 141.132 24.5532 141.192 24.6687 141.192C24.7589 141.192 24.8595 141.15 24.9497 141.093C24.7371 141.376 24.5928 141.674 24.5928 141.918C24.5894 142.123 24.6974 142.25 24.9137 142.25C25.1407 142.25 25.3533 142.038 25.4684 141.896C25.4648 141.928 25.4613 141.96 25.4613 141.995C25.4613 142.133 25.5407 142.25 25.7028 142.25C25.8828 142.25 26.0271 142.14 26.2073 141.925L26.0741 142.222H26.5064L26.9027 141.341C27.0756 140.959 27.3098 140.754 27.4251 140.754C27.454 140.75 27.4792 140.772 27.4827 140.8V140.811C27.479 140.853 27.4648 140.895 27.4467 140.934L26.8775 142.226H27.3208L27.7244 141.327C27.8973 140.942 28.0884 140.754 28.2324 140.754C28.2755 140.754 28.2936 140.775 28.2936 140.821C28.29 140.871 28.2755 140.92 28.2539 140.963L27.8648 141.776C27.8288 141.854 27.8072 141.939 27.7999 142.024C27.7999 142.148 27.8682 142.258 28.0629 142.258C28.3152 142.258 28.5062 142.07 28.7223 141.791V141.851C28.7404 142.074 28.8665 142.268 29.2016 142.268C29.5979 142.268 29.9187 141.999 30.1132 141.571C30.1854 141.419 30.2357 141.26 30.2538 141.094C30.2969 141.115 30.3473 141.126 30.3943 141.122C30.4592 141.122 30.5239 141.108 30.5817 141.076L30.5131 141.221C30.4338 141.384 30.3473 141.564 30.279 141.716C30.2359 141.804 30.2106 141.903 30.2033 142.002C30.2033 142.154 30.2898 142.264 30.4664 142.264C30.6429 142.264 30.8844 142.102 31.0574 141.872H31.061C31.0502 141.918 31.0429 141.967 31.0429 142.017C31.0429 142.144 31.0826 142.264 31.2628 142.264C31.4718 142.264 31.6339 142.116 31.7924 141.928L31.6591 142.225H32.0951L32.4446 141.447C32.6428 141.009 32.8409 140.743 33.0248 140.743C33.0574 140.743 33.0824 140.764 33.0861 140.796V140.807C33.0861 140.881 32.978 141.083 32.8808 141.284C32.7907 141.468 32.7221 141.61 32.6753 141.719C32.632 141.811 32.6068 141.91 32.5996 142.013C32.5996 142.147 32.6753 142.25 32.8448 142.25C33.0971 142.25 33.3528 142.01 33.4897 141.829C33.4574 141.918 33.4429 142.006 33.4392 142.098C33.4392 142.346 33.5906 142.469 33.803 142.469C33.9436 142.469 34.0805 142.423 34.1958 142.342C34.3616 142.229 34.4949 142.059 34.6068 141.904L34.5311 141.833C34.4265 141.978 34.3112 142.116 34.1924 142.201C34.1275 142.254 34.0518 142.282 33.969 142.285C33.8789 142.285 33.8213 142.239 33.8213 142.126C33.8213 142.013 33.8754 141.861 33.9582 141.656C33.9617 141.652 34.0807 141.391 34.1924 141.139C34.286 140.927 34.3797 140.722 34.3976 140.679H34.6823L34.74 140.552H34.4589L34.7256 139.954L34.7258 139.954ZM22.435 141.995C22.3737 141.995 22.3304 141.974 22.3304 141.896C22.3341 141.687 22.5104 141.316 22.7304 141.018C22.8852 140.813 23.087 140.661 23.3032 140.661L23.0294 141.263C22.8242 141.715 22.6006 141.995 22.435 141.995V141.995ZM25.1301 141.995C25.0689 141.995 25.0258 141.974 25.0221 141.896C25.0256 141.687 25.2022 141.316 25.4221 141.018C25.5769 140.813 25.7787 140.661 25.995 140.661L25.7211 141.263C25.5122 141.726 25.2996 141.995 25.1301 141.995V141.995ZM29.9155 140.824C29.9047 141.054 29.6992 141.609 29.4579 141.942C29.3607 142.076 29.2777 142.115 29.2057 142.115C29.1048 142.115 29.0759 142.034 29.0903 141.914C29.1119 141.705 29.2885 141.217 29.5334 140.881C29.6451 140.728 29.7208 140.665 29.8074 140.665C29.8941 140.665 29.9191 140.735 29.9155 140.824V140.824Z" fill="white"/>
<path d="M36.6408 140.551L37.0375 139.652H36.5677L36.171 140.551H35.1727L35.0062 140.929H36.0047L35.608 141.828H36.0776L36.4743 140.929H37.4726L37.6391 140.551H36.6408Z" fill="white"/>
</g>
<rect x="44" y="125" width="24" height="24" rx="12" fill="white"/>
<path d="M50.2964 143.699H51.0057C51.1583 143.699 51.2937 143.728 51.4119 143.788C51.532 143.847 51.6255 143.93 51.6922 144.036C51.7589 144.141 51.7923 144.261 51.7923 144.397C51.7923 144.532 51.7589 144.652 51.6922 144.757C51.6255 144.862 51.532 144.944 51.4119 145.003C51.2937 145.062 51.1583 145.092 51.0057 145.092H50.7369V145.901H50.2964V143.699ZM50.9886 144.757C51.1049 144.757 51.1945 144.727 51.2575 144.666C51.3204 144.605 51.3518 144.518 51.3518 144.405C51.3518 144.293 51.3204 144.206 51.2575 144.145C51.1945 144.084 51.1049 144.054 50.9886 144.054H50.7369V144.757H50.9886Z" fill="black"/>
<path d="M51.9818 143.699H52.6883C52.837 143.699 52.9705 143.726 53.0888 143.779C53.207 143.832 53.2995 143.907 53.3662 144.002C53.4349 144.095 53.4692 144.201 53.4692 144.32C53.4692 144.468 53.4177 144.594 53.3147 144.697C53.2117 144.8 53.0735 144.866 52.9 144.894C53.1326 145.211 53.3338 145.547 53.5035 145.901H52.9972C52.8313 145.531 52.6397 145.213 52.4223 144.946V145.901H51.9818V143.699ZM52.674 144.703C52.7865 144.703 52.8742 144.674 52.9372 144.617C53.0001 144.56 53.0315 144.479 53.0315 144.374C53.0315 144.271 53.0001 144.191 52.9372 144.134C52.8742 144.076 52.7865 144.048 52.674 144.048H52.4223V144.703H52.674Z" fill="black"/>
<path d="M54.8971 143.699V144.065H54.122V144.614H54.8428V144.969H54.122V145.535H54.8971V145.901H53.6815V143.699H54.8971Z" fill="black"/>
<path d="M55.6794 143.699C55.8491 144.229 55.9883 144.719 56.097 145.169C56.2095 144.71 56.3497 144.219 56.5175 143.699H57.0724V145.901H56.6691V144.311C56.5051 144.833 56.3592 145.364 56.2315 145.901H55.9626C55.8444 145.394 55.7004 144.87 55.5307 144.328V145.901H55.1245V143.699H55.6794Z" fill="black"/>
<path d="M57.7703 143.699V145.901H57.3298V143.699H57.7703Z" fill="black"/>
<path d="M58.4584 143.699V145.158C58.4584 145.282 58.4851 145.381 58.5385 145.455C58.5938 145.528 58.6663 145.564 58.7559 145.564C58.8455 145.564 58.917 145.528 58.9704 145.455C59.0238 145.381 59.0505 145.282 59.0505 145.158V143.699H59.491V145.115C59.491 145.273 59.4595 145.414 59.3966 145.538C59.3356 145.662 59.2488 145.759 59.1363 145.83C59.0257 145.898 58.8989 145.933 58.7559 145.933C58.611 145.933 58.4823 145.898 58.3698 145.83C58.2592 145.759 58.1724 145.662 58.1095 145.538C58.0485 145.414 58.0179 145.273 58.0179 145.115V143.699H58.4584Z" fill="black"/>
<path d="M60.2923 143.699C60.462 144.229 60.6012 144.719 60.7099 145.169C60.8224 144.71 60.9626 144.219 61.1304 143.699H61.6853V145.901H61.282V144.311C61.118 144.833 60.9721 145.364 60.8444 145.901H60.5755C60.4573 145.394 60.3133 144.87 60.1436 144.328V145.901H59.7374V143.699H60.2923Z" fill="black"/>
<path d="M60.4404 128.77C60.2626 128.77 60.1024 129.169 59.9931 129.803C59.816 128.71 59.5278 128 59.2037 128C58.8178 128 58.4836 129.004 58.3258 130.463C58.1704 129.401 57.9356 128.725 57.6734 128.725C57.305 128.725 56.9917 130.055 56.8756 131.912C56.6576 130.96 56.3418 130.363 55.9918 130.363C55.6418 130.363 55.3261 130.96 55.108 131.912C54.9919 130.055 54.6787 128.725 54.3103 128.725C54.0472 128.725 53.8125 129.401 53.6579 130.463C53.4992 129.004 53.1651 128 52.7791 128C52.4542 128 52.1668 128.71 51.9898 129.803C51.8795 129.169 51.7199 128.77 51.542 128.77C51.2104 128.77 50.9414 130.153 50.9414 131.859C50.9414 133.565 51.2104 134.948 51.542 134.948C51.6782 134.948 51.8043 134.714 51.9045 134.32C52.0641 135.76 52.3957 136.75 52.7791 136.75C53.0765 136.75 53.3422 136.156 53.5209 135.218C53.6437 137.002 53.9503 138.267 54.3095 138.267C54.5359 138.267 54.7413 137.766 54.8925 136.949C55.0746 138.635 55.4981 139.816 55.991 139.816C56.4838 139.816 56.9065 138.635 57.0895 136.949C57.2415 137.766 57.447 138.267 57.6725 138.267C58.0317 138.267 58.3391 137.002 58.4611 135.218C58.6398 136.156 58.9063 136.75 59.2029 136.75C59.5863 136.75 59.9179 135.76 60.0774 134.32C60.1785 134.713 60.3038 134.948 60.44 134.948C60.7716 134.948 61.0406 133.565 61.0406 131.859C61.0406 130.153 60.7718 128.771 60.4404 128.77Z" fill="#A238FF"/>
<path d="M50.4236 132.937C50.6119 132.937 50.7645 132.318 50.7645 131.555C50.7645 130.793 50.6119 130.174 50.4236 130.174C50.2354 130.174 50.0828 130.793 50.0828 131.555C50.0828 132.318 50.2354 132.937 50.4236 132.937Z" fill="#A238FF"/>
<path d="M61.8989 131.555C61.8989 132.318 61.7462 132.937 61.558 132.937C61.3698 132.937 61.2172 132.318 61.2172 131.555C61.2172 130.793 61.3698 130.174 61.558 130.174C61.7462 130.174 61.8989 130.793 61.8989 131.555Z" fill="#A238FF"/>
<path fill-rule="evenodd" clip-rule="evenodd" d="M49.4995 141.01H50.6194C51.3127 141.01 51.803 141.471 51.803 142.127C51.803 142.783 51.3127 143.244 50.6194 143.244H49.4995V141.01ZM50.3699 142.64H50.5729C50.7905 142.64 50.9066 142.495 50.9066 142.127C50.9066 141.758 50.7905 141.613 50.5729 141.613H50.3699V142.64Z" fill="black"/>
<path d="M53.7758 143.244H51.9365V141.01H53.7758V141.613H52.804V141.872H53.7178V142.365H52.804V142.64H53.7758V143.244Z" fill="black"/>
<path d="M55.8239 143.244H53.9846V141.01H55.8239V141.613H54.8521V141.872H55.7659V142.365H54.8521V142.64H55.8239V143.244Z" fill="black"/>
<path fill-rule="evenodd" clip-rule="evenodd" d="M62.4998 143.244C62.3745 142.902 62.1991 142.538 61.9633 142.129C62.2391 142.048 62.4041 141.874 62.4041 141.608C62.4041 141.201 62.0298 141.01 61.438 141.01H60.2195V143.244H61.0898V142.32C61.2832 142.645 61.4257 142.953 61.5192 143.244H62.4998ZM61.0898 142.008V141.613H61.3915C61.5192 141.613 61.5917 141.683 61.5917 141.811C61.5917 141.938 61.5192 142.008 61.3915 142.008H61.0898Z" fill="black"/>
<path d="M60.0102 143.244H58.1709V141.01H60.0102V141.613H59.0384V141.872H59.9522V142.365H59.0384V142.64H60.0102V143.244Z" fill="black"/>
<path d="M56.033 141.613H56.9311C56.5585 141.918 56.2518 142.264 56.0156 142.64V143.244H57.9913V142.64H57.0038C57.2301 142.311 57.5463 141.983 57.9913 141.613V141.01H56.033V141.613Z" fill="black"/>
<path fill-rule="evenodd" clip-rule="evenodd" d="M131.769 128C131.913 127.995 132.046 128.047 132.208 128.175C132.335 128.274 132.461 128.343 132.496 128.332C132.525 128.32 132.56 128.239 132.565 128.157C132.583 128.018 132.606 128 132.785 128C132.969 128 132.986 128.012 132.986 128.175C132.986 128.291 132.929 128.407 132.819 128.523C132.715 128.628 132.588 128.698 132.502 128.698C132.421 128.698 132.294 128.669 132.219 128.634C132.15 128.599 132.035 128.512 131.965 128.442C131.879 128.366 131.804 128.337 131.746 128.361C131.7 128.39 131.66 128.471 131.66 128.552C131.66 128.68 131.636 128.698 131.469 128.686C131.29 128.669 131.285 128.663 131.302 128.442C131.313 128.297 131.365 128.169 131.44 128.105C131.504 128.047 131.648 128 131.769 128ZM118.333 128.698H118.737V143.166H118.333V128.698ZM125.717 129.046C125.902 129.046 126.115 129.087 126.231 129.151C126.34 129.203 126.479 129.314 126.537 129.395C126.6 129.476 126.669 129.656 126.698 129.802C126.727 129.947 126.733 130.174 126.669 130.557H125.083V130.731C125.083 130.842 125.146 130.975 125.25 131.097C125.412 131.272 125.44 131.283 125.815 131.283C126.029 131.283 126.317 131.266 126.45 131.237C126.698 131.196 126.698 131.196 126.698 131.37C126.698 131.51 126.658 131.562 126.508 131.638C126.41 131.69 126.156 131.748 125.948 131.766C125.717 131.783 125.487 131.766 125.342 131.719C125.215 131.678 125.042 131.597 124.95 131.539C124.864 131.475 124.737 131.318 124.673 131.185C124.598 131.033 124.535 130.778 124.517 130.557C124.506 130.348 124.523 130.075 124.552 129.947C124.587 129.819 124.673 129.622 124.748 129.511C124.823 129.401 124.996 129.25 125.14 129.174C125.319 129.087 125.504 129.046 125.717 129.046ZM125.227 129.691C125.146 129.784 125.083 129.924 125.083 130.005V130.15H126.237C126.185 129.813 126.127 129.668 126.075 129.616C126.023 129.558 125.896 129.505 125.804 129.488C125.706 129.476 125.573 129.476 125.504 129.494C125.429 129.505 125.308 129.598 125.227 129.691ZM129.813 129.052C129.987 129.052 130.223 129.081 130.333 129.122C130.5 129.18 130.535 129.221 130.563 129.569L130.142 129.534C129.917 129.511 129.658 129.511 129.565 129.534C129.479 129.552 129.398 129.616 129.381 129.674C129.363 129.726 129.363 129.819 129.381 129.877C129.398 129.935 129.594 130.052 129.883 130.168C130.137 130.266 130.425 130.423 130.517 130.516C130.65 130.65 130.679 130.72 130.679 130.964C130.679 131.208 130.65 131.283 130.488 131.463C130.39 131.574 130.212 131.696 130.102 131.725C129.992 131.754 129.796 131.777 129.669 131.777C129.542 131.777 129.3 131.737 129.133 131.69C128.844 131.609 128.833 131.597 128.833 131.4C128.833 131.208 128.844 131.196 128.988 131.225C129.081 131.243 129.317 131.272 129.525 131.295C129.762 131.318 129.946 131.307 130.027 131.26C130.113 131.219 130.16 131.144 130.16 131.039C130.165 130.946 130.131 130.848 130.09 130.807C130.05 130.772 129.86 130.685 129.669 130.615C129.479 130.54 129.237 130.423 129.133 130.348C129.029 130.266 128.925 130.121 128.89 130.005C128.85 129.871 128.85 129.738 128.89 129.61C128.919 129.511 129.006 129.366 129.075 129.296C129.15 129.226 129.271 129.145 129.352 129.11C129.433 129.081 129.64 129.052 129.813 129.052ZM132.161 129.064C132.536 129.075 132.663 129.099 132.796 129.197C132.883 129.261 132.992 129.418 133.033 129.546C133.085 129.703 133.102 130.063 133.073 131.69L132.854 131.707C132.681 131.719 132.635 131.696 132.611 131.603C132.583 131.487 132.583 131.487 132.363 131.603C132.248 131.667 132.046 131.737 131.919 131.76C131.746 131.783 131.619 131.766 131.429 131.673C131.285 131.609 131.129 131.481 131.083 131.394C131.036 131.307 130.996 131.126 130.996 130.993C130.996 130.859 131.036 130.679 131.083 130.592C131.129 130.505 131.261 130.371 131.371 130.307C131.533 130.203 131.66 130.179 132.525 130.179V129.935C132.525 129.773 132.49 129.651 132.421 129.592C132.34 129.511 132.242 129.5 131.861 129.529C131.608 129.546 131.342 129.575 131.267 129.592C131.158 129.622 131.14 129.604 131.129 129.424C131.123 129.232 131.129 129.221 131.406 129.139C131.579 129.081 131.867 129.052 132.161 129.064ZM131.59 130.76C131.567 130.789 131.544 130.888 131.544 130.981C131.544 131.068 131.585 131.179 131.631 131.225C131.677 131.272 131.81 131.312 131.919 131.312C132.029 131.312 132.213 131.266 132.323 131.214C132.508 131.121 132.525 131.086 132.525 130.865C132.525 130.656 132.502 130.609 132.392 130.586C132.323 130.569 132.173 130.557 132.063 130.557C131.954 130.563 131.81 130.592 131.746 130.633C131.683 130.667 131.613 130.726 131.59 130.76ZM134.844 129.046C135.029 129.046 135.248 129.075 135.335 129.11C135.427 129.139 135.571 129.238 135.658 129.325C135.75 129.412 135.877 129.587 135.94 129.715C136.027 129.877 136.061 130.063 136.067 130.354C136.073 130.603 136.038 130.859 135.975 131.022C135.923 131.167 135.785 131.37 135.675 131.475C135.56 131.574 135.369 131.684 135.248 131.719C135.133 131.748 134.931 131.777 134.804 131.777C134.671 131.777 134.452 131.719 134.285 131.632C134.123 131.556 133.938 131.405 133.869 131.301C133.794 131.196 133.713 131.016 133.679 130.906C133.65 130.795 133.621 130.574 133.621 130.412C133.621 130.255 133.644 130.028 133.679 129.918C133.708 129.807 133.794 129.622 133.863 129.511C133.938 129.401 134.111 129.25 134.256 129.174C134.435 129.087 134.619 129.046 134.844 129.046ZM134.285 129.86C134.238 129.959 134.198 130.191 134.198 130.383C134.198 130.574 134.233 130.818 134.273 130.923C134.319 131.022 134.388 131.144 134.435 131.179C134.481 131.219 134.608 131.272 134.717 131.289C134.844 131.318 134.994 131.301 135.115 131.248C135.219 131.202 135.346 131.097 135.386 131.01C135.433 130.917 135.485 130.737 135.502 130.603C135.525 130.458 135.508 130.226 135.461 130.04C135.41 129.831 135.329 129.685 135.236 129.616C135.15 129.552 135 129.505 134.861 129.511C134.735 129.511 134.573 129.552 134.498 129.598C134.429 129.645 134.331 129.761 134.285 129.86ZM122.487 129.104L123.15 131.138L123.842 129.099H124.073C124.2 129.099 124.321 129.122 124.344 129.145C124.367 129.174 124.339 129.308 124.281 129.453C124.223 129.598 124.004 130.168 123.41 131.719L122.879 131.69L122.394 130.458C122.129 129.778 121.91 129.192 121.91 129.163C121.91 129.133 122.037 129.104 122.487 129.104ZM127.16 129.104H127.39C127.604 129.104 127.621 129.116 127.656 129.296C127.673 129.395 127.708 129.453 127.725 129.418C127.748 129.383 127.858 129.296 127.967 129.226C128.088 129.157 128.267 129.104 128.66 129.104V129.627H128.325C128.123 129.627 127.944 129.656 127.863 129.715C127.742 129.796 127.737 129.837 127.737 130.673C127.737 131.155 127.725 131.585 127.708 131.632C127.69 131.69 127.598 131.719 127.16 131.719V129.104ZM130.852 132.358H131.775V135.176C131.775 137.785 131.781 138 131.873 138.087C131.942 138.151 132.058 138.174 132.438 138.14V138.837L132.121 138.889C131.948 138.918 131.706 138.924 131.585 138.901C131.469 138.883 131.29 138.796 131.186 138.709C131.088 138.616 130.973 138.459 130.927 138.36C130.869 138.209 130.852 137.553 130.852 135.263V132.358ZM138.288 132.358H139.217V135.147C139.217 137.861 139.223 137.942 139.333 138.052C139.402 138.122 139.517 138.169 139.633 138.163C139.736 138.157 139.858 138.157 139.892 138.163C139.944 138.169 139.967 138.273 139.967 138.808L139.719 138.872C139.586 138.907 139.333 138.924 139.159 138.901C138.986 138.883 138.779 138.819 138.698 138.761C138.617 138.697 138.502 138.564 138.438 138.453C138.329 138.262 138.323 138.134 138.306 135.31L138.288 132.358ZM80.8622 132.591C80.9949 132.591 81.1564 132.631 81.2372 132.684C81.318 132.742 81.4103 132.829 81.4507 132.875C81.4853 132.928 81.5314 133.05 81.5487 133.154C81.566 133.265 81.5487 133.427 81.4968 133.549C81.4449 133.66 81.3353 133.788 81.2372 133.84C81.1391 133.886 80.9603 133.927 80.8334 133.927C80.7064 133.927 80.5449 133.892 80.4699 133.857C80.4007 133.822 80.2968 133.741 80.2449 133.671C80.1814 133.59 80.1411 133.439 80.1411 133.259C80.1353 133.015 80.1641 132.939 80.2968 132.811C80.3834 132.73 80.4987 132.649 80.5449 132.631C80.591 132.614 80.7353 132.596 80.8622 132.591ZM100.541 132.596C100.789 132.614 100.881 132.649 101.025 132.794C101.17 132.933 101.204 133.015 101.21 133.23C101.21 133.369 101.17 133.555 101.123 133.637C101.072 133.712 100.968 133.811 100.887 133.852C100.8 133.892 100.627 133.921 100.489 133.921C100.345 133.921 100.166 133.875 100.056 133.805C99.9292 133.729 99.8542 133.625 99.8139 133.474C99.785 133.352 99.7792 133.177 99.8023 133.09C99.8254 132.997 99.9292 132.84 100.039 132.748C100.212 132.596 100.27 132.579 100.541 132.596ZM105.381 132.649C105.871 132.649 105.935 132.66 105.987 132.765C106.021 132.835 106.039 133.939 106.027 135.81C106.021 137.419 105.993 138.761 105.964 138.785C105.941 138.814 105.773 138.843 105.589 138.854C105.41 138.866 105.191 138.86 105.104 138.843C105.018 138.819 104.92 138.744 104.821 138.54L104.47 138.715C104.164 138.872 104.06 138.889 103.627 138.889C103.183 138.889 103.096 138.872 102.82 138.715C102.647 138.622 102.439 138.453 102.347 138.337C102.26 138.227 102.133 138.018 102.07 137.872C102.006 137.733 101.92 137.407 101.879 137.146C101.827 136.78 101.827 136.588 101.879 136.216C101.92 135.961 102.006 135.635 102.07 135.49C102.133 135.351 102.277 135.118 102.387 134.985C102.508 134.833 102.71 134.677 102.912 134.578C103.183 134.45 103.321 134.421 103.679 134.421C104.014 134.421 104.175 134.456 104.712 134.706V133.788C104.706 133.212 104.729 132.829 104.77 132.759C104.827 132.66 104.902 132.643 105.381 132.643V132.649ZM103.275 135.862C103.189 136.048 103.16 136.234 103.16 136.635C103.16 136.919 103.195 137.256 103.235 137.378C103.27 137.5 103.379 137.669 103.466 137.756C103.593 137.878 103.696 137.913 103.956 137.93C104.17 137.942 104.36 137.919 104.498 137.861L104.718 137.768V135.56C104.47 135.461 104.256 135.414 104.083 135.403C103.829 135.38 103.725 135.397 103.575 135.496C103.471 135.56 103.339 135.728 103.275 135.862ZM124.419 134.305C124.673 134.316 125.002 134.369 125.429 134.514L125.412 134.845C125.406 135.031 125.371 135.176 125.342 135.17C125.308 135.165 125.088 135.136 124.852 135.101C124.575 135.066 124.304 135.06 124.102 135.095C123.929 135.13 123.704 135.2 123.612 135.258C123.514 135.322 123.375 135.496 123.294 135.653C123.162 135.908 123.15 136.001 123.15 136.635C123.15 137.262 123.162 137.355 123.294 137.611C123.375 137.768 123.514 137.942 123.612 138.006C123.704 138.064 123.929 138.134 124.102 138.163C124.275 138.192 124.564 138.198 124.737 138.169C124.91 138.145 125.152 138.111 125.487 138.058L125.458 138.721L125.169 138.837C124.944 138.924 124.742 138.953 124.275 138.953C123.721 138.953 123.635 138.936 123.3 138.779C123.081 138.68 122.839 138.506 122.706 138.36C122.585 138.227 122.435 137.989 122.365 137.837C122.302 137.686 122.221 137.378 122.187 137.158C122.152 136.931 122.14 136.577 122.158 136.373C122.181 136.164 122.233 135.862 122.279 135.705C122.325 135.542 122.452 135.281 122.556 135.124C122.66 134.967 122.873 134.752 123.035 134.648C123.19 134.543 123.467 134.415 123.64 134.369C123.852 134.311 124.112 134.289 124.419 134.305ZM128.083 134.281C128.371 134.276 128.677 134.311 128.833 134.363C128.977 134.415 129.19 134.537 129.312 134.642C129.438 134.746 129.606 134.973 129.687 135.153C129.785 135.368 129.842 135.6 129.86 135.874C129.877 136.1 129.871 136.408 129.813 136.838L126.929 136.832V136.966C126.929 137.036 126.969 137.239 127.021 137.413C127.079 137.617 127.183 137.803 127.298 137.907C127.396 138.006 127.581 138.116 127.708 138.157C127.835 138.198 128.158 138.227 128.429 138.227C128.7 138.227 129.092 138.18 129.312 138.122C129.525 138.07 129.715 138.041 129.733 138.052C129.744 138.07 129.756 138.221 129.756 138.692L129.421 138.825C129.138 138.936 128.977 138.953 128.285 138.953C127.54 138.953 127.448 138.941 127.165 138.808C126.975 138.726 126.738 138.54 126.571 138.36C126.369 138.134 126.265 137.959 126.185 137.692C126.127 137.495 126.058 137.158 126.035 136.948C126.012 136.733 126.023 136.391 126.058 136.135C126.098 135.897 126.19 135.56 126.265 135.38C126.346 135.205 126.519 134.95 126.652 134.816C126.796 134.677 127.044 134.508 127.246 134.427C127.517 134.311 127.696 134.281 128.083 134.281ZM127.287 135.281C127.171 135.391 127.062 135.589 127.01 135.763C126.963 135.92 126.929 136.083 126.929 136.123C126.929 136.181 127.177 136.193 127.967 136.193H129.006C129.006 135.769 128.96 135.554 128.902 135.444C128.85 135.333 128.729 135.194 128.637 135.124C128.527 135.043 128.371 135.002 128.146 134.99C127.967 134.985 127.742 135.008 127.65 135.037C127.552 135.066 127.39 135.176 127.287 135.281ZM142.402 134.287C142.713 134.281 143.077 134.305 143.209 134.34C143.348 134.369 143.561 134.485 143.688 134.589C143.815 134.694 143.971 134.897 144.029 135.037C144.132 135.269 144.144 135.467 144.167 136.954C144.179 137.861 144.173 138.668 144.156 138.738C144.121 138.854 144.086 138.872 143.371 138.872L143.313 138.465L143.036 138.639C142.886 138.738 142.632 138.854 142.477 138.901C142.315 138.947 142.056 138.988 141.9 138.988C141.738 138.982 141.507 138.953 141.381 138.918C141.236 138.877 141.046 138.755 140.884 138.587C140.665 138.372 140.602 138.256 140.544 138C140.509 137.82 140.498 137.57 140.521 137.448C140.538 137.32 140.602 137.123 140.659 137.012C140.711 136.896 140.856 136.722 140.983 136.617C141.104 136.513 141.334 136.385 141.496 136.333C141.721 136.257 141.929 136.245 142.419 136.269C142.765 136.286 143.1 136.315 143.152 136.333C143.244 136.367 143.256 136.327 143.256 135.966C143.256 135.693 143.221 135.49 143.152 135.351C143.088 135.217 142.99 135.124 142.881 135.089C142.782 135.06 142.5 135.031 142.246 135.031C141.992 135.037 141.577 135.083 141.323 135.147C141.069 135.205 140.838 135.24 140.815 135.217C140.792 135.2 140.781 135.048 140.804 134.601L141.092 134.491C141.248 134.433 141.484 134.363 141.611 134.34C141.738 134.311 142.096 134.287 142.402 134.287ZM141.565 137.192C141.513 137.268 141.456 137.407 141.432 137.5C141.409 137.611 141.432 137.762 141.49 137.896C141.554 138.052 141.646 138.14 141.796 138.203C141.946 138.267 142.096 138.285 142.275 138.262C142.419 138.244 142.696 138.145 142.892 138.052L143.256 137.884V136.983C142.829 136.914 142.552 136.896 142.361 136.896C142.171 136.896 141.934 136.931 141.836 136.977C141.738 137.024 141.617 137.117 141.565 137.192ZM147.536 134.34C147.657 134.34 147.796 134.351 147.842 134.369C147.905 134.386 147.929 134.491 147.929 135.211H147.496C147.196 135.211 146.965 135.246 146.757 135.327C146.59 135.391 146.411 135.49 146.354 135.542C146.261 135.635 146.25 135.786 146.256 138.872L145.361 138.843V134.427L145.736 134.403C146.082 134.386 146.111 134.398 146.152 134.52C146.175 134.595 146.198 134.729 146.198 134.816C146.198 134.903 146.209 134.979 146.227 134.979C146.244 134.979 146.377 134.868 146.527 134.74C146.677 134.613 146.919 134.467 147.063 134.427C147.207 134.38 147.421 134.345 147.536 134.34ZM74.6027 134.421C74.7757 134.438 75.0181 134.491 75.1334 134.537C75.2546 134.589 75.445 134.711 75.5603 134.816C75.6757 134.921 75.8315 135.112 75.9065 135.24C75.9815 135.362 76.0796 135.612 76.1315 135.792C76.1776 135.966 76.218 136.333 76.218 136.606C76.218 136.873 76.1776 137.251 76.1257 137.448C76.0796 137.64 75.9757 137.901 75.9065 138.029C75.8315 138.151 75.6815 138.349 75.5777 138.453C75.468 138.564 75.2777 138.709 75.1507 138.773C74.9661 138.872 74.8161 138.895 74.4296 138.895C74.0258 138.895 73.8873 138.872 73.3335 138.61V139.482C73.3335 140.086 73.3104 140.382 73.2642 140.452C73.2008 140.545 73.1142 140.557 72.0931 140.528L72.0758 137.593C72.0642 134.845 72.07 134.653 72.1623 134.584C72.22 134.543 72.4162 134.508 72.595 134.508C72.8488 134.508 72.9585 134.537 73.045 134.63C73.1085 134.688 73.1604 134.787 73.1604 134.845C73.1546 134.938 73.1604 134.938 73.2585 134.851C73.3162 134.799 73.4719 134.7 73.6046 134.636C73.7431 134.566 73.9508 134.485 74.0661 134.456C74.1873 134.427 74.4296 134.409 74.6027 134.421ZM73.3104 135.56C73.3335 137.739 73.3335 137.768 73.4604 137.837C73.5354 137.878 73.7892 137.907 74.0373 137.907C74.4296 137.907 74.4931 137.896 74.6315 137.762C74.7123 137.686 74.8161 137.489 74.8623 137.326C74.9084 137.169 74.9488 136.855 74.9488 136.629C74.9431 136.408 74.8969 136.094 74.845 135.937C74.7931 135.781 74.6834 135.606 74.6027 135.542C74.5219 135.478 74.3315 135.42 74.17 135.409C74.0084 135.397 73.7546 135.42 73.5988 135.473L73.3104 135.56ZM85.0102 134.398C85.1083 134.398 85.316 134.433 85.4717 134.479C85.6333 134.526 85.841 134.642 86.1064 134.909L86.5102 134.711C86.7352 134.601 87.0813 134.479 87.289 134.444C87.5833 134.392 87.7333 134.398 87.9813 134.456C88.2006 134.508 88.3679 134.595 88.5179 134.74C88.6679 134.88 88.7659 135.043 88.8236 135.234C88.8871 135.455 88.9044 135.903 88.9044 137.094C88.9044 137.983 88.8813 138.703 88.8467 138.75C88.8121 138.814 88.6621 138.843 88.3448 138.86C88.0794 138.872 87.8429 138.854 87.7679 138.819C87.6352 138.75 87.6352 138.75 87.6352 137.314C87.6352 136.501 87.6121 135.792 87.5775 135.688C87.5371 135.554 87.4679 135.478 87.3467 135.438C87.2371 135.403 87.0583 135.403 86.8737 135.432C86.7063 135.461 86.5102 135.513 86.441 135.548C86.3083 135.612 86.3083 135.624 86.2967 137.181C86.2852 138.041 86.2564 138.761 86.2333 138.79C86.2044 138.819 85.9852 138.848 85.7429 138.86C85.4833 138.872 85.2468 138.854 85.1718 138.819C85.0391 138.75 85.0391 138.744 85.0275 137.216C85.0102 135.699 85.0102 135.676 84.8775 135.542C84.7679 135.432 84.6929 135.414 84.4333 135.426C84.2602 135.432 84.0122 135.478 83.6545 135.612V137.181C83.6545 138.692 83.6487 138.755 83.5391 138.808C83.4756 138.843 83.2275 138.866 82.991 138.866C82.6852 138.866 82.5353 138.843 82.4718 138.779C82.3968 138.709 82.3853 138.395 82.3853 136.704C82.3853 135.606 82.4083 134.677 82.4314 134.636C82.4545 134.595 82.5872 134.549 82.7314 134.531C82.8756 134.508 83.0891 134.514 83.2102 134.531C83.3833 134.56 83.4352 134.601 83.5391 134.915L83.9314 134.711C84.1448 134.601 84.4333 134.485 84.5775 134.462C84.7218 134.433 84.9179 134.403 85.0102 134.398ZM113.296 134.427C113.521 134.438 113.862 134.508 114.046 134.578C114.254 134.659 114.467 134.799 114.635 134.973C114.779 135.118 114.952 135.356 115.021 135.496C115.085 135.641 115.171 135.897 115.206 136.065C115.241 136.234 115.269 136.513 115.269 136.687C115.269 136.867 115.241 137.146 115.206 137.314C115.171 137.483 115.085 137.739 115.021 137.878C114.952 138.023 114.779 138.262 114.635 138.407C114.473 138.575 114.254 138.721 114.058 138.796C113.885 138.86 113.585 138.936 113.394 138.953C113.198 138.976 112.898 138.97 112.702 138.93C112.512 138.895 112.252 138.814 112.125 138.755C111.998 138.692 111.785 138.529 111.646 138.395C111.508 138.256 111.335 138.012 111.26 137.849C111.185 137.692 111.098 137.367 111.069 137.123C111.041 136.873 111.041 136.501 111.064 136.251C111.093 135.996 111.173 135.699 111.254 135.525C111.335 135.368 111.508 135.124 111.646 134.985C111.785 134.845 111.998 134.682 112.125 134.624C112.252 134.56 112.471 134.485 112.616 134.456C112.76 134.427 113.066 134.409 113.296 134.427ZM112.61 135.618C112.5 135.728 112.419 135.897 112.379 136.094C112.344 136.263 112.327 136.606 112.339 136.861C112.356 137.158 112.408 137.413 112.477 137.553C112.535 137.681 112.668 137.82 112.76 137.866C112.858 137.919 113.037 137.959 113.164 137.959C113.291 137.959 113.464 137.919 113.556 137.861C113.643 137.808 113.769 137.64 113.839 137.489C113.937 137.268 113.966 137.1 113.966 136.687C113.966 136.274 113.937 136.106 113.839 135.891C113.769 135.74 113.654 135.577 113.585 135.531C113.51 135.49 113.377 135.438 113.279 135.426C113.187 135.409 113.031 135.409 112.939 135.42C112.852 135.438 112.702 135.525 112.61 135.618ZM133.263 134.392H134.192V135.978C134.192 136.85 134.221 137.657 134.25 137.779C134.285 137.901 134.377 138.052 134.469 138.116C134.602 138.221 134.688 138.238 135.029 138.215C135.323 138.203 135.531 138.145 136.159 137.849L136.154 134.392H137.077V138.866L136.69 138.854C136.35 138.843 136.298 138.825 136.281 138.721C136.269 138.657 136.252 138.575 136.24 138.535C136.217 138.482 136.142 138.5 135.969 138.604C135.831 138.68 135.565 138.802 135.375 138.866C135.15 138.947 134.885 138.988 134.596 138.988C134.256 138.988 134.111 138.959 133.904 138.848C133.731 138.761 133.586 138.622 133.298 138.151L133.263 134.392ZM91.7601 134.467C92.2043 134.485 92.3255 134.514 92.5966 134.659C92.7928 134.764 92.9774 134.921 93.087 135.077C93.2313 135.292 93.2659 135.397 93.2832 135.746C93.3063 136.106 93.2889 136.199 93.1678 136.414C93.0928 136.553 92.9428 136.722 92.8274 136.797C92.7178 136.873 92.5216 136.966 92.3947 137.012C92.2447 137.065 91.9159 137.094 90.6928 137.094L90.7274 137.268C90.7448 137.361 90.8082 137.506 90.8659 137.588C90.9236 137.669 91.0332 137.779 91.1082 137.837C91.2005 137.913 91.3851 137.954 91.6736 137.977C91.9678 138 92.2563 137.977 92.5563 137.913C92.8043 137.861 93.0293 137.832 93.0582 137.849C93.0928 137.866 93.1216 138.041 93.1216 138.238C93.1216 138.471 93.0928 138.628 93.0466 138.668C93.0063 138.709 92.8332 138.779 92.6543 138.831C92.4813 138.883 92.1582 138.941 91.9332 138.965C91.6967 138.982 91.3794 138.97 91.1544 138.93C90.9524 138.889 90.6524 138.785 90.4967 138.703C90.3467 138.616 90.1275 138.442 90.0236 138.314C89.914 138.186 89.7698 137.936 89.7005 137.762C89.5967 137.5 89.5736 137.32 89.5736 136.745C89.5736 136.164 89.5909 135.996 89.7005 135.728C89.7698 135.554 89.9255 135.292 90.0467 135.147C90.1678 135.002 90.3698 134.822 90.4967 134.74C90.6236 134.665 90.8428 134.566 90.9813 134.526C91.1371 134.479 91.4601 134.456 91.7601 134.467ZM91.0217 135.542C90.964 135.595 90.889 135.693 90.8544 135.757C90.8198 135.821 90.7678 135.961 90.7447 136.059C90.6986 136.245 90.6986 136.251 90.9121 136.286C91.0332 136.309 91.3044 136.315 91.5236 136.303C91.8582 136.286 91.9332 136.257 92.0313 136.135C92.089 136.054 92.1409 135.92 92.1409 135.827C92.1409 135.74 92.112 135.618 92.0774 135.554C92.0486 135.49 91.9274 135.414 91.8063 135.38C91.6851 135.351 91.564 135.322 91.5294 135.327C91.5005 135.327 91.3967 135.356 91.2986 135.385C91.2063 135.414 91.0794 135.484 91.0217 135.542ZM108.837 134.45C109.062 134.45 109.385 134.491 109.558 134.543C109.794 134.613 109.944 134.706 110.141 134.903C110.325 135.095 110.423 135.258 110.469 135.449C110.51 135.606 110.539 135.786 110.539 135.856C110.539 135.932 110.51 136.094 110.475 136.222C110.441 136.356 110.319 136.542 110.204 136.658C110.089 136.774 109.852 136.919 109.673 136.977C109.425 137.07 109.206 137.094 107.902 137.094L107.977 137.355C108.023 137.5 108.121 137.675 108.202 137.744C108.283 137.82 108.445 137.901 108.566 137.936C108.687 137.965 108.918 137.994 109.085 137.994C109.252 137.994 109.575 137.954 109.806 137.907C110.141 137.837 110.239 137.837 110.296 137.896C110.343 137.936 110.371 138.093 110.371 138.256C110.371 138.459 110.343 138.575 110.268 138.645C110.21 138.697 110.008 138.785 109.818 138.843C109.575 138.918 109.298 138.947 108.866 138.947C108.445 138.941 108.185 138.912 108 138.843C107.862 138.785 107.62 138.645 107.464 138.529C107.262 138.378 107.135 138.215 107.02 137.965C106.927 137.774 106.823 137.431 106.789 137.21C106.754 136.983 106.743 136.635 106.766 136.426C106.783 136.216 106.852 135.914 106.91 135.757C106.968 135.595 107.095 135.356 107.193 135.217C107.291 135.083 107.475 134.903 107.608 134.81C107.746 134.723 107.983 134.607 108.145 134.555C108.306 134.496 108.618 134.45 108.837 134.45ZM108.231 135.542C108.145 135.629 108.041 135.81 107.995 135.943C107.954 136.077 107.937 136.211 107.966 136.234C107.989 136.257 108.254 136.28 108.554 136.28C109.039 136.28 109.108 136.269 109.229 136.147C109.31 136.059 109.356 135.943 109.356 135.815C109.356 135.693 109.316 135.571 109.241 135.502C109.177 135.444 109.039 135.38 108.923 135.368C108.814 135.351 108.646 135.351 108.554 135.362C108.462 135.374 108.318 135.455 108.231 135.542ZM77.4815 134.508C77.6719 134.508 77.8507 134.543 77.9315 134.595C78.018 134.653 78.0699 134.758 78.1161 135.147L78.3642 134.926C78.4968 134.804 78.7276 134.659 78.8661 134.601C79.0276 134.543 79.2411 134.508 79.7026 134.537L79.7199 135.031C79.7257 135.362 79.7084 135.548 79.6622 135.6C79.6161 135.647 79.4488 135.676 79.2007 135.67C78.9872 135.67 78.6815 135.705 78.2315 135.815V137.251C78.2315 138.488 78.2199 138.703 78.1449 138.779C78.0815 138.843 77.9257 138.866 77.6257 138.866C77.3892 138.866 77.1411 138.837 77.0776 138.808C76.968 138.75 76.9623 138.686 76.9565 136.687C76.9449 134.711 76.9507 134.63 77.0546 134.572C77.118 134.537 77.3084 134.508 77.4815 134.508ZM80.816 134.508C81.0468 134.508 81.2833 134.531 81.3468 134.566C81.4622 134.624 81.4622 134.682 81.4622 136.687C81.4622 138.692 81.4622 138.75 81.3468 138.808C81.2833 138.837 81.0526 138.866 80.8276 138.866C80.6084 138.866 80.3718 138.837 80.3084 138.808C80.1987 138.75 80.193 138.686 80.1872 136.687C80.1757 134.711 80.1814 134.63 80.2853 134.572C80.3487 134.537 80.5853 134.508 80.816 134.508ZM95.7812 134.526C96.1101 134.531 96.312 134.566 96.3581 134.613C96.4043 134.659 96.6177 135.339 96.8427 136.123C97.0677 136.914 97.2697 137.529 97.287 137.5C97.3043 137.466 97.5004 136.815 97.7312 136.048C97.9562 135.281 98.1639 134.624 98.1985 134.595C98.2331 134.56 98.4466 134.526 98.6716 134.514C98.9023 134.502 99.1619 134.508 99.2485 134.531C99.3581 134.555 99.4042 134.601 99.4042 134.682C99.4042 134.746 99.0696 135.682 98.6543 136.757C98.2446 137.837 97.8754 138.744 97.8466 138.779C97.812 138.808 97.587 138.843 97.3389 138.854C97.0562 138.866 96.8485 138.843 96.762 138.796C96.6466 138.732 96.4793 138.343 95.8793 136.774C95.4697 135.705 95.1293 134.77 95.1235 134.7C95.1178 134.63 95.1524 134.56 95.1985 134.543C95.2447 134.526 95.5101 134.52 95.7812 134.526ZM100.489 134.508C100.72 134.508 100.956 134.531 101.02 134.566C101.135 134.624 101.135 134.682 101.135 136.687C101.135 138.692 101.135 138.75 101.02 138.808C100.956 138.837 100.725 138.866 100.5 138.866C100.281 138.866 100.045 138.837 99.9812 138.808C99.8715 138.75 99.8658 138.686 99.86 136.687C99.8485 134.711 99.8542 134.63 99.9581 134.572C100.022 134.537 100.258 134.508 100.489 134.508ZM103.471 140.69C103.945 140.708 104.371 140.748 104.504 140.795C104.625 140.836 104.775 140.917 104.833 140.969C104.925 141.056 104.943 141.155 104.943 141.539C104.943 141.794 104.908 142.178 104.862 142.393C104.816 142.614 104.718 142.968 104.637 143.195C104.562 143.415 104.4 143.799 104.279 144.037C104.152 144.275 103.893 144.636 103.702 144.839C103.512 145.037 103.316 145.205 103.258 145.199C103.2 145.199 103.143 145.164 103.12 145.124C103.102 145.089 103.195 144.74 103.327 144.357C103.46 143.973 103.633 143.398 103.708 143.078C103.783 142.759 103.846 142.399 103.846 142.277C103.846 142.16 103.829 142.021 103.806 141.969C103.783 141.916 103.685 141.835 103.587 141.783C103.495 141.736 103.195 141.69 102.923 141.672C102.658 141.655 102.07 141.684 101.625 141.736C100.916 141.812 100.812 141.812 100.731 141.736C100.668 141.672 100.662 141.626 100.708 141.55C100.743 141.498 100.898 141.364 101.054 141.26C101.21 141.155 101.481 141.016 101.654 140.952C101.833 140.888 102.127 140.795 102.318 140.754C102.554 140.696 102.923 140.679 103.471 140.69ZM82.7372 140.9C82.766 140.9 83.0314 141.045 83.3256 141.225C83.6199 141.405 84.2487 141.742 84.7218 141.974C85.2006 142.213 85.7948 142.486 86.0487 142.59C86.3025 142.689 86.8506 142.892 87.2602 143.032C87.6756 143.171 88.3506 143.375 88.7602 143.485C89.1755 143.59 89.7986 143.735 90.1448 143.799C90.4967 143.863 91.0794 143.962 91.4428 144.008C91.812 144.06 92.7293 144.118 93.4909 144.136C94.3909 144.159 95.1524 144.142 95.6543 144.101C96.087 144.06 96.8139 143.962 97.2697 143.886C97.7312 143.811 98.4177 143.671 98.7985 143.578C99.1792 143.485 99.8312 143.299 100.241 143.166C100.656 143.032 101.383 142.765 101.856 142.573C102.439 142.335 102.768 142.236 102.854 142.259C102.923 142.277 103.01 142.352 103.05 142.422C103.085 142.497 103.096 142.625 103.079 142.712C103.05 142.829 102.9 142.98 102.548 143.235C102.277 143.439 101.787 143.758 101.464 143.944C101.141 144.136 100.593 144.415 100.241 144.577C99.8946 144.734 99.2312 144.99 98.7696 145.147C98.3139 145.304 97.587 145.507 97.1543 145.6C96.7274 145.699 96.0812 145.815 95.712 145.862C95.3485 145.908 94.7139 145.966 94.2985 145.989C93.8659 146.013 93.1909 145.995 92.6832 145.96C92.2101 145.92 91.5236 145.838 91.1544 145.774C90.7909 145.711 90.1909 145.583 89.8159 145.49C89.4409 145.391 88.8063 145.193 88.4025 145.048C87.9986 144.903 87.2775 144.589 86.7987 144.357C86.3256 144.118 85.5871 143.694 85.1544 143.41C84.7275 143.131 84.116 142.683 83.7987 142.428C83.4814 142.166 83.0602 141.8 82.8641 141.614C82.6679 141.428 82.5006 141.231 82.5006 141.178C82.4949 141.126 82.5353 141.039 82.5872 140.992C82.6391 140.94 82.7083 140.9 82.7372 140.9Z" fill="#F5F5F5"/>
</g>
<rect x="16.5" y="193.5" width="131" height="55" rx="11.5" stroke="white"/>
<path d="M52.2931 227.16C49.0291 227.16 47.0931 224.968 47.0931 221.368C47.0931 217.56 49.2851 215.32 52.4851 215.32C53.8451 215.32 54.9491 215.72 55.6691 216.216C55.9251 216.376 55.9251 216.456 55.6211 216.936L55.4291 217.24C55.1571 217.688 55.1091 217.704 54.9331 217.608C54.1651 217.192 53.5091 216.968 52.6451 216.968C50.3891 216.968 49.1251 218.52 49.1251 221.288C49.1251 224.072 50.3411 225.512 52.6451 225.512C53.4771 225.512 54.3091 225.272 55.0451 224.984C55.2531 224.888 55.3171 224.92 55.5091 225.336L55.6691 225.672C55.8931 226.136 55.8931 226.248 55.6851 226.344C54.7571 226.84 53.5091 227.16 52.2931 227.16ZM60.4941 227.16C58.0781 227.16 56.7181 225.608 56.7181 222.952C56.7181 220.008 58.1901 218.392 60.7821 218.392C63.1821 218.392 64.5421 219.928 64.5421 222.6C64.5421 225.544 63.0701 227.16 60.4941 227.16ZM60.5261 225.56C61.8541 225.56 62.6381 224.6 62.6381 222.712C62.6381 221.128 62.1101 219.992 60.7181 219.992C59.3901 219.992 58.6221 220.968 58.6221 222.84C58.6221 224.424 59.1501 225.56 60.5261 225.56ZM67.2195 227C66.3715 227 66.3235 226.936 66.3235 226.776V221.88C66.3235 220.808 66.2915 219.608 66.2435 218.792C66.2275 218.6 66.3075 218.552 67.0435 218.552H67.1235C67.7795 218.552 67.9235 218.584 67.9555 218.744C67.9875 218.952 68.0195 219.224 68.0355 219.496C68.5795 218.824 69.4435 218.392 70.5155 218.392C71.4915 218.392 72.2595 218.696 72.7555 219.24C73.2835 219.832 73.5235 220.616 73.5235 221.864V226.776C73.5235 226.936 73.4275 227 72.6595 227H72.5635C71.7315 227 71.6835 226.936 71.6835 226.776V222.504C71.6835 221.304 71.6195 220.856 71.2995 220.504C71.0595 220.248 70.6755 220.056 70.0355 220.056C69.4595 220.056 68.9955 220.216 68.6595 220.472C68.3555 220.712 68.2275 221.016 68.1955 221.416C68.1635 221.816 68.1635 222.488 68.1635 223.224V226.776C68.1635 226.936 68.0675 227 67.2995 227H67.2195ZM78.5629 227.16C77.7469 227.16 77.1549 226.936 76.7549 226.552C76.3229 226.12 76.1309 225.464 76.1309 224.424V220.008H74.8349C74.6909 220.008 74.6429 219.896 74.6429 219.48V219.368C74.6429 218.984 74.6749 218.872 74.8189 218.84C76.1789 218.456 76.4989 217.896 76.6589 216.408C76.6749 216.264 76.7869 216.248 77.2509 216.248H77.3789C77.8749 216.248 77.9709 216.296 77.9709 216.44V218.552H79.9869C80.1149 218.552 80.1629 218.6 80.1629 219.224V219.336C80.1629 219.96 80.1149 220.008 79.9869 220.008H77.9709V224.296C77.9709 224.856 78.0349 225.16 78.2429 225.368C78.4349 225.544 78.6909 225.624 79.0429 225.624C79.3469 225.624 79.6829 225.56 79.9869 225.448C80.1469 225.4 80.1789 225.448 80.3549 225.976L80.4029 226.12C80.5789 226.648 80.5469 226.696 80.3549 226.792C79.8429 227.032 79.1709 227.16 78.5629 227.16ZM82.8758 227C82.0278 227 81.9798 226.952 81.9798 226.792V222.024C81.9798 220.888 81.9478 219.656 81.8997 218.792C81.8838 218.616 81.9478 218.552 82.6998 218.552H82.7958C83.4678 218.552 83.5958 218.584 83.6118 218.728C83.6438 219.016 83.7238 219.8 83.7558 220.44C84.2518 219.128 85.0198 218.408 86.0118 218.408C86.1718 218.408 86.3158 218.424 86.4438 218.472C86.6038 218.536 86.6038 218.616 86.6038 219.128V219.32C86.6038 219.992 86.5398 220.056 86.3798 220.072C85.4998 220.136 84.9078 220.52 84.4758 221.128C83.9798 221.832 83.8198 222.856 83.8198 224.648V226.792C83.8198 226.952 83.7238 227 82.9557 227H82.8758ZM95.2174 225.592C95.3454 225.592 95.3934 225.624 95.3934 226.168V226.296C95.3934 226.76 95.3614 226.84 95.2334 226.888C94.9934 226.984 94.6414 227.048 94.2894 227.048C93.7614 227.048 93.3134 226.904 93.0254 226.584C92.8974 226.44 92.8014 226.264 92.7374 226.072C92.1934 226.76 91.2494 227.16 90.2254 227.16C88.4494 227.16 87.2494 226.024 87.2494 224.52C87.2494 222.792 88.7054 222.088 90.4814 222.088H92.5934V221.768C92.5934 220.568 92.0494 219.944 90.8974 219.944C90.1294 219.944 89.3294 220.168 88.5134 220.52C88.2734 220.616 88.1614 220.584 87.9374 220.056L87.8414 219.832C87.6654 219.416 87.6494 219.256 87.8574 219.144C88.7214 218.68 89.8894 218.392 90.9934 218.392C93.3294 218.392 94.4334 219.624 94.4334 221.736V224.92C94.4334 225.384 94.5294 225.592 94.9774 225.592H95.2174ZM90.6574 225.656C91.9694 225.656 92.5934 224.76 92.5934 223.56V223.432H90.5614C89.6654 223.432 89.1374 223.704 89.1374 224.408C89.1374 225.128 89.7294 225.656 90.6574 225.656ZM99.9066 227.16C99.0906 227.16 98.4986 226.936 98.0986 226.552C97.6666 226.12 97.4746 225.464 97.4746 224.424V220.008H96.1786C96.0346 220.008 95.9866 219.896 95.9866 219.48V219.368C95.9866 218.984 96.0186 218.872 96.1626 218.84C97.5226 218.456 97.8426 217.896 98.0026 216.408C98.0186 216.264 98.1306 216.248 98.5946 216.248H98.7226C99.2186 216.248 99.3146 216.296 99.3146 216.44V218.552H101.331C101.459 218.552 101.507 218.6 101.507 219.224V219.336C101.507 219.96 101.459 220.008 101.331 220.008H99.3146V224.296C99.3146 224.856 99.3786 225.16 99.5866 225.368C99.7786 225.544 100.035 225.624 100.387 225.624C100.691 225.624 101.027 225.56 101.331 225.448C101.491 225.4 101.523 225.448 101.699 225.976L101.747 226.12C101.923 226.648 101.891 226.696 101.699 226.792C101.187 227.032 100.515 227.16 99.9066 227.16ZM110.796 225.592C110.924 225.592 110.972 225.624 110.972 226.168V226.296C110.972 226.76 110.94 226.84 110.812 226.888C110.572 226.984 110.22 227.048 109.868 227.048C109.34 227.048 108.892 226.904 108.604 226.584C108.476 226.44 108.38 226.264 108.316 226.072C107.772 226.76 106.828 227.16 105.804 227.16C104.028 227.16 102.828 226.024 102.828 224.52C102.828 222.792 104.284 222.088 106.06 222.088H108.172V221.768C108.172 220.568 107.628 219.944 106.476 219.944C105.708 219.944 104.908 220.168 104.092 220.52C103.852 220.616 103.74 220.584 103.516 220.056L103.42 219.832C103.243 219.416 103.228 219.256 103.436 219.144C104.299 218.68 105.468 218.392 106.572 218.392C108.908 218.392 110.012 219.624 110.012 221.736V224.92C110.012 225.384 110.108 225.592 110.556 225.592H110.796ZM106.236 225.656C107.548 225.656 108.172 224.76 108.172 223.56V223.432H106.14C105.244 223.432 104.716 223.704 104.716 224.408C104.716 225.128 105.308 225.656 106.236 225.656ZM113.501 227C112.653 227 112.605 226.952 112.605 226.792V222.024C112.605 220.888 112.573 219.656 112.525 218.792C112.509 218.616 112.573 218.552 113.325 218.552H113.421C114.093 218.552 114.221 218.584 114.237 218.728C114.269 219.016 114.349 219.8 114.381 220.44C114.877 219.128 115.645 218.408 116.637 218.408C116.797 218.408 116.941 218.424 117.069 218.472C117.229 218.536 117.229 218.616 117.229 219.128V219.32C117.229 219.992 117.165 220.056 117.005 220.072C116.125 220.136 115.533 220.52 115.101 221.128C114.605 221.832 114.445 222.856 114.445 224.648V226.792C114.445 226.952 114.349 227 113.581 227H113.501Z" fill="white"/>
</g>
<defs>
<filter id="filter0_d_2818_1483" x="0" y="0" width="164" height="268" filterUnits="userSpaceOnUse" color-interpolation-filters="sRGB">
<feFlood flood-opacity="0" result="BackgroundImageFix"/>
<feColorMatrix in="SourceAlpha" type="matrix" values="0 0 0 0 0 0 0 0 0 0 0 0 0 0 0 0 0 0 127 0" result="hardAlpha"/>
<feOffset dy="4"/>
<feGaussianBlur stdDeviation="2"/>
<feComposite in2="hardAlpha" operator="out"/>
<feColorMatrix type="matrix" values="0 0 0 0 0 0 0 0 0 0 0 0 0 0 0 0 0 0 0.25 0"/>
<feBlend mode="normal" in2="BackgroundImageFix" result="effect1_dropShadow_2818_1483"/>
<feBlend mode="normal" in="SourceGraphic" in2="effect1_dropShadow_2818_1483" result="shape"/>
</filter>
<clipPath id="clip0_2818_1483">
<rect width="132" height="46" fill="white" transform="translate(16 103)"/>
</clipPath>
<clipPath id="clip1_2818_1483">
<rect width="19.6364" height="12" fill="white" transform="translate(18 131)"/>
</clipPath>
</defs>
</svg>
