<svg width="164" height="267" viewBox="0 0 164 267" fill="none" xmlns="http://www.w3.org/2000/svg">
<g filter="url(#filter0_d_2818_1454)">
<rect x="4" width="156" height="259" rx="12" fill="#0026D9" shape-rendering="crispEdges"/>
<rect x="4.5" y="0.5" width="155" height="258" rx="11.5" stroke="#5270FE" shape-rendering="crispEdges"/>
<path d="M19.348 24C18.916 24 18.844 23.976 18.844 23.868V16.284H16.336C16.228 16.284 16.192 16.224 16.192 15.852V15.78C16.192 15.42 16.216 15.36 16.336 15.36H22.504C22.624 15.36 22.648 15.42 22.648 15.792V15.852C22.648 16.224 22.612 16.284 22.504 16.284H19.996V23.868C19.996 23.988 19.9 24 19.456 24H19.348ZM24.3558 24C23.9118 24 23.8518 23.976 23.8518 23.868V15.492C23.8518 15.384 23.9118 15.36 24.3558 15.36H24.4758C24.9198 15.36 25.0038 15.372 25.0038 15.492V23.868C25.0038 23.988 24.9198 24 24.4758 24H24.3558ZM27.4958 24C27.0158 24 26.9558 23.988 26.9558 23.88V15.504C26.9558 15.384 27.0278 15.36 27.5198 15.36H27.7358C28.1918 15.36 28.2878 15.396 28.3358 15.504L30.0278 18.912C30.4358 19.74 30.8078 20.52 31.0838 21.18C31.3838 20.46 31.7558 19.608 32.0918 18.912L33.7598 15.504C33.8078 15.396 33.8918 15.36 34.3838 15.36H34.5398C35.0078 15.36 35.0798 15.384 35.0798 15.504V23.88C35.0798 23.988 35.0198 24 34.5758 24H34.4918C34.0238 24 33.9758 23.988 33.9758 23.88V19.896C33.9758 19.212 33.9878 17.832 33.9998 17.208C33.6998 17.952 33.2798 18.84 32.9078 19.596L31.5518 22.356C31.5038 22.452 31.4678 22.476 31.0718 22.476H31.0358C30.5918 22.476 30.5678 22.452 30.5198 22.356L29.1038 19.536C28.7198 18.768 28.3838 18.048 28.0358 17.208C28.0598 17.88 28.0598 19.14 28.0598 19.908V23.88C28.0598 23.988 28.0118 24 27.5558 24H27.4958ZM40.4793 24C40.0353 24 39.9753 23.976 39.9753 23.868V15.36H41.9913C44.1993 15.36 45.6393 15.984 45.6393 17.988C45.6393 19.824 44.3673 20.76 42.3873 20.76C42.0153 20.76 41.5713 20.736 41.1273 20.676V23.868C41.1273 23.988 41.0433 24 40.5993 24H40.4793ZM42.2553 19.836C43.7073 19.836 44.4753 19.236 44.4753 18.024C44.4753 16.644 43.4913 16.284 42.0513 16.284H41.1273V19.764C41.5353 19.824 41.9913 19.836 42.2553 19.836ZM47.2759 24C46.7959 24 46.7599 23.952 46.7599 23.856V19.764C46.7599 18.948 46.7359 18.108 46.7359 17.808C46.7359 17.712 46.7719 17.664 47.2279 17.664H47.2879C47.7199 17.664 47.7799 17.7 47.7799 17.808L47.8039 19.044C48.2599 18.036 48.9199 17.592 49.5559 17.592C49.6639 17.592 49.7479 17.604 49.8079 17.616C49.9159 17.64 49.9279 17.676 49.9279 17.952V18.132C49.9279 18.48 49.9159 18.576 49.7959 18.576C48.9439 18.576 48.5119 19.104 48.1639 19.668C47.9959 19.944 47.8999 20.28 47.8759 20.7C47.8519 21.036 47.8399 21.78 47.8399 22.476V23.856C47.8399 23.94 47.8279 24 47.3479 24H47.2759ZM53.0569 16.908C52.6729 16.908 52.6489 16.836 52.6969 16.764L53.5729 15.228C53.6209 15.144 53.7649 15.096 54.1009 15.096H54.2449C54.6889 15.096 54.7729 15.18 54.7129 15.264L53.5849 16.8C53.5489 16.86 53.4409 16.908 53.1529 16.908H53.0569ZM53.4409 24.12C51.4969 24.12 50.5009 22.908 50.5009 20.976C50.5009 18.96 51.6049 17.544 53.3809 17.544C54.4489 17.544 55.1809 18.072 55.5769 18.864C55.8529 19.416 55.9729 20.076 55.9729 20.784C55.9729 21.144 55.9489 21.216 55.8529 21.216H51.6289C51.6649 21.876 51.8569 22.392 52.2289 22.704C52.5529 22.992 53.0209 23.136 53.6449 23.136C54.1489 23.136 54.6529 23.016 55.2289 22.752C55.3369 22.704 55.4089 22.68 55.5289 22.98L55.5889 23.124C55.7209 23.436 55.7089 23.508 55.6129 23.568C55.0009 23.928 54.2449 24.12 53.4409 24.12ZM51.6649 20.328H54.8689C54.8569 19.428 54.4009 18.528 53.3929 18.528C52.5169 18.528 51.8329 19.092 51.6649 20.328ZM60.1123 24C59.7523 24 59.6563 23.94 59.7403 23.82L61.9003 20.544C62.1283 20.196 62.3563 19.86 62.6083 19.5L61.9123 18.432L60.0523 15.552C59.9803 15.432 60.0523 15.36 60.4603 15.36H60.7483C61.1563 15.36 61.2283 15.384 61.3003 15.492L62.6083 17.496C62.8603 17.892 63.1123 18.3 63.3163 18.648C63.5443 18.288 63.8323 17.832 64.0723 17.436L65.2603 15.504C65.3323 15.384 65.3923 15.36 65.8603 15.36H66.0883C66.4603 15.36 66.5563 15.408 66.4603 15.552L64.6243 18.324C64.3603 18.732 64.0723 19.152 63.8443 19.476C64.0003 19.692 64.2523 20.088 64.5043 20.472L66.6763 23.82C66.7483 23.94 66.7003 24 66.2443 24H65.9563C65.5603 24 65.4883 23.976 65.4163 23.88L63.8683 21.492C63.6043 21.072 63.3283 20.64 63.1363 20.316L60.9283 23.868C60.8563 23.988 60.8083 24 60.3403 24H60.1123ZM68.4417 24C67.9977 24 67.9377 23.976 67.9377 23.868V15.492C67.9377 15.384 67.9977 15.36 68.4417 15.36H68.5617C69.0057 15.36 69.0897 15.372 69.0897 15.492V23.868C69.0897 23.988 69.0057 24 68.5617 24H68.4417ZM71.5458 24C71.1018 24 71.0418 23.976 71.0418 23.868V15.36H73.0578C75.2658 15.36 76.7057 15.984 76.7057 17.988C76.7057 19.824 75.4338 20.76 73.4538 20.76C73.0818 20.76 72.6378 20.736 72.1938 20.676V23.868C72.1938 23.988 72.1098 24 71.6658 24H71.5458ZM73.3218 19.836C74.7738 19.836 75.5418 19.236 75.5418 18.024C75.5418 16.644 74.5578 16.284 73.1178 16.284H72.1938V19.764C72.6018 19.824 73.0578 19.836 73.3218 19.836Z" fill="white"/>
<path d="M17.944 55C17.752 55 17.68 54.904 17.68 54.016V53.8C17.68 52.912 17.752 52.792 17.944 52.792H20.968V40.744L17.776 42.328C17.488 42.472 17.344 42.4 16.96 41.56L16.84 41.296C16.48 40.528 16.528 40.408 16.792 40.264L21.016 38.128C21.688 37.792 21.952 37.72 22.552 37.72H23.032C23.68 37.72 23.8 37.792 23.8 38.032V52.792H26.536C26.728 52.792 26.8 52.912 26.8 53.8V54.016C26.8 54.904 26.728 55 26.536 55H17.944ZM34.2484 55.24C30.2884 55.24 28.5844 52.192 28.5844 47.656C28.5844 41.92 31.0084 37.48 35.4244 37.48C36.7444 37.48 37.8964 37.888 38.6404 38.344C38.9524 38.536 38.9524 38.68 38.6404 39.256L38.3764 39.76C38.0884 40.336 37.9684 40.36 37.7284 40.264C37.0084 39.928 36.2884 39.736 35.5444 39.736C33.0004 39.736 31.9444 42.232 31.5844 45.208C32.5204 44.536 33.7684 44.056 34.9924 44.056C38.0884 44.056 39.9124 46.216 39.9124 49.288C39.9124 52.504 37.7764 55.24 34.2484 55.24ZM34.3444 52.96C36.0004 52.96 37.1044 51.52 37.1044 49.456C37.1044 47.584 36.2884 46.288 34.3444 46.288C33.3844 46.288 32.2564 46.72 31.4644 47.248C31.4884 51.112 32.3524 52.96 34.3444 52.96ZM50.0358 55.24C44.4918 55.24 41.8278 51.808 41.8278 46.408C41.8278 40.984 44.9238 37.48 50.2758 37.48C52.3398 37.48 54.0918 37.96 55.6038 38.968C55.8678 39.136 55.8678 39.28 55.4598 40L55.1718 40.504C54.8118 41.128 54.6918 41.176 54.3798 41.008C53.1558 40.288 51.8358 39.952 50.4438 39.952C46.8438 39.952 44.8518 42.208 44.8518 46.36C44.8518 50.584 46.7478 52.792 50.3478 52.792C51.2838 52.792 52.4118 52.624 53.2038 52.384V47.872H49.8198C49.5318 47.872 49.4358 47.8 49.4358 46.768V46.6C49.4358 45.568 49.5078 45.52 49.8198 45.52H55.2438C55.9878 45.52 56.1078 45.592 56.1078 45.88V53.656C56.1078 53.92 56.0358 54.04 55.7718 54.16C54.4758 54.784 52.0758 55.24 50.0358 55.24ZM60.4788 55C59.7108 55 59.5908 54.952 59.5428 54.76V37.96C59.5428 37.744 59.7108 37.72 60.4548 37.72H64.6068C68.5908 37.72 70.9668 38.992 70.9668 42.04C70.9668 43.936 69.8868 45.16 68.3748 45.808C70.5348 46.36 71.9508 47.728 71.9508 49.936C71.9508 53.656 69.0948 55 64.9668 55H60.4788ZM62.4948 45.016H64.5348C66.7188 45.016 68.0388 44.248 68.0388 42.448C68.0388 40.6 66.7908 40.024 64.6308 40.024H62.4948V45.016ZM62.4948 52.696H64.9668C67.5348 52.696 68.9508 51.976 68.9508 49.936C68.9508 47.848 67.5108 47.224 65.0148 47.224H62.4948V52.696Z" fill="#FAB932"/>
<path d="M30.016 80.64C30.184 80.904 29.944 81 29.272 81H28.624C27.784 81 27.616 80.976 27.448 80.712L24.448 75.792C23.392 74.064 23.032 73.944 21.328 73.944H20.2V80.736C20.2 80.976 20.032 81 19.144 81H18.904C18.016 81 17.896 80.952 17.896 80.736V63.72H22.288C26.8 63.72 29.344 65.04 29.344 68.544C29.344 71.208 27.832 72.816 25.288 73.584C25.72 73.92 26.104 74.448 26.704 75.384L30.016 80.64ZM22.624 72.12C25.336 72.12 26.968 71.088 26.968 68.688C26.968 66.288 25.384 65.568 22.504 65.568H20.2V72.12H22.624ZM43.2691 76.368C43.2691 78.864 41.5171 80.712 38.5891 81.144V83.304C38.5891 83.496 38.3731 83.568 37.8211 83.568H37.3651C36.7651 83.568 36.5731 83.496 36.5731 83.304V81.216C34.7251 81.096 32.9011 80.496 31.9651 79.776C31.7491 79.608 31.7011 79.464 32.0611 78.816L32.2051 78.552C32.4931 78.024 32.6371 77.952 32.8531 78.072C34.1251 78.84 35.6131 79.344 37.1011 79.344C39.5011 79.344 40.9891 78.144 40.9891 76.368C40.9891 74.856 40.0051 74.232 37.0291 72.888C33.8611 71.448 32.5891 70.2 32.5891 68.016C32.5891 65.568 34.5331 63.912 37.1011 63.552V61.584C37.1011 61.392 37.3171 61.32 37.8691 61.32H38.3251C38.9251 61.32 39.1171 61.392 39.1171 61.584V63.528C40.4371 63.648 41.5891 64.032 42.5731 64.68C42.8371 64.848 42.8371 64.944 42.5251 65.568L42.4051 65.808C42.0931 66.432 41.9971 66.456 41.7331 66.312C40.5331 65.688 39.4291 65.352 38.2531 65.352C36.3091 65.352 34.8691 66.384 34.8691 67.896C34.8691 69.312 35.8771 69.984 38.4451 71.184C41.6131 72.672 43.2691 73.824 43.2691 76.368ZM49.3748 81.24C48.0308 81.24 46.5668 80.928 45.3668 80.376C45.2468 80.328 45.1988 80.136 45.4148 79.56L45.5828 79.152C45.7748 78.672 45.9428 78.552 46.0628 78.6C47.0228 79.08 48.3188 79.344 49.3268 79.344C51.3668 79.344 52.9988 78.24 52.9988 76.104C52.9988 73.8 50.9108 72.816 48.6788 72.816H47.7428C47.5988 72.816 47.5508 72.72 47.5508 72.12V71.712C47.5508 71.112 47.5988 71.016 47.7428 71.016H48.6548C50.6948 71.016 52.3988 70.152 52.3988 68.04C52.3988 66.072 50.9588 65.304 49.3508 65.304C48.4388 65.304 47.3108 65.544 46.3988 66.048C46.2788 66.12 46.1348 66.024 45.9188 65.544L45.7508 65.184C45.5348 64.728 45.5828 64.512 45.7028 64.44C46.7828 63.864 48.1268 63.48 49.5188 63.48C52.1588 63.48 54.6548 64.896 54.6548 67.872C54.6548 69.792 53.5748 71.328 52.0868 71.808C53.6228 72.096 55.3028 73.464 55.3028 76.032C55.3028 79.512 52.4228 81.24 49.3748 81.24ZM63.6659 81.24C60.1859 81.24 58.0499 78.48 58.0499 72.72C58.0499 66.72 60.2819 63.48 64.0739 63.48C67.5299 63.48 69.6899 66.144 69.6899 71.976C69.6899 77.904 67.5059 81.24 63.6659 81.24ZM63.7619 79.344C66.1139 79.344 67.4099 76.752 67.4099 72.096C67.4099 67.68 66.2099 65.376 63.9779 65.376C61.6979 65.376 60.3539 67.848 60.3539 72.552C60.3539 76.968 61.5059 79.344 63.7619 79.344Z" fill="white"/>
<path d="M71.516 79.204C71.228 79.204 71.12 79.156 71.144 79.06L73.784 70.264C73.82 70.156 73.928 70.144 74.204 70.144H74.432C74.72 70.144 74.84 70.192 74.816 70.288L72.188 79.084C72.164 79.168 72.032 79.204 71.756 79.204H71.516ZM77.4569 79.12C76.7849 79.12 76.0529 78.964 75.4529 78.688C75.3929 78.664 75.3689 78.568 75.4769 78.28L75.5609 78.076C75.6569 77.836 75.7409 77.776 75.8009 77.8C76.2809 78.04 76.9289 78.172 77.4329 78.172C78.4529 78.172 79.2689 77.62 79.2689 76.552C79.2689 75.4 78.2249 74.908 77.1089 74.908H76.6409C76.5689 74.908 76.5449 74.86 76.5449 74.56V74.356C76.5449 74.056 76.5689 74.008 76.6409 74.008H77.0969C78.1169 74.008 78.9689 73.576 78.9689 72.52C78.9689 71.536 78.2489 71.152 77.4449 71.152C76.9889 71.152 76.4249 71.272 75.9689 71.524C75.9089 71.56 75.8369 71.512 75.7289 71.272L75.6449 71.092C75.5369 70.864 75.5609 70.756 75.6209 70.72C76.1609 70.432 76.8329 70.24 77.5289 70.24C78.8489 70.24 80.0969 70.948 80.0969 72.436C80.0969 73.396 79.5569 74.164 78.8129 74.404C79.5809 74.548 80.4209 75.232 80.4209 76.516C80.4209 78.256 78.9809 79.12 77.4569 79.12ZM84.6025 79.12C82.8625 79.12 81.7945 77.74 81.7945 74.86C81.7945 71.86 82.9105 70.24 84.8065 70.24C86.5345 70.24 87.6145 71.572 87.6145 74.488C87.6145 77.452 86.5225 79.12 84.6025 79.12ZM84.6505 78.172C85.8265 78.172 86.4745 76.876 86.4745 74.548C86.4745 72.34 85.8745 71.188 84.7585 71.188C83.6185 71.188 82.9465 72.424 82.9465 74.776C82.9465 76.984 83.5225 78.172 84.6505 78.172ZM94.2877 79.12C92.7037 79.12 91.7197 77.932 91.7197 75.964C91.7197 74.164 92.6557 72.544 94.6357 72.544C95.1277 72.544 95.6917 72.736 95.9917 72.94V70.036C95.9917 69.916 96.0997 69.88 96.5077 69.88H96.5797C96.9637 69.88 97.0717 69.916 97.0717 70.036V77.5C97.0717 78.1 97.1677 78.148 97.4917 78.148C97.5637 78.148 97.5997 78.22 97.5997 78.472V78.556C97.5997 78.844 97.5637 78.928 97.4917 78.952C97.3237 79.012 97.1677 79.024 96.9637 79.024C96.6037 79.024 96.2797 78.796 96.1357 78.328H96.1237C95.8237 78.736 95.1517 79.12 94.2877 79.12ZM94.5037 78.16C94.9117 78.16 95.3677 78.028 95.6437 77.752C95.9197 77.476 95.9917 77.08 95.9917 76.072V73.972C95.6917 73.72 95.1757 73.528 94.6957 73.528C93.5677 73.528 92.8477 74.476 92.8477 75.928C92.8477 77.404 93.5677 78.16 94.5037 78.16ZM99.5806 71.476C99.1606 71.476 98.8246 71.14 98.8246 70.72C98.8246 70.3 99.1606 69.964 99.5806 69.964C100.001 69.964 100.337 70.3 100.337 70.72C100.337 71.14 100.001 71.476 99.5806 71.476ZM99.5566 79C99.0766 79 99.0406 78.952 99.0406 78.856V72.808C99.0406 72.712 99.0766 72.664 99.5566 72.664H99.6286C100.109 72.664 100.121 72.724 100.121 72.808V78.856C100.121 78.94 100.109 79 99.6286 79H99.5566ZM104.131 79.12C102.379 79.12 101.563 77.668 101.563 75.94C101.563 73.888 102.739 72.544 104.323 72.544C105.043 72.544 105.607 72.88 105.943 73.312L106.003 72.808C106.015 72.664 106.075 72.664 106.435 72.664H106.459C106.915 72.664 106.927 72.712 106.927 72.808C106.927 73.096 106.903 73.864 106.903 74.632V76.312C106.903 77.416 106.951 78.196 106.987 78.856C106.987 78.952 106.927 79 106.555 79H106.507C106.135 79 106.063 78.964 106.051 78.856L105.979 78.304C105.595 78.772 104.911 79.12 104.131 79.12ZM104.323 78.16C104.719 78.16 105.199 78.04 105.523 77.692C105.775 77.416 105.823 77.08 105.823 76.036V74.332C105.547 73.9 105.007 73.516 104.443 73.516C103.339 73.516 102.691 74.44 102.691 75.88C102.691 77.008 103.087 78.16 104.323 78.16ZM110.4 79.12C109.632 79.12 108.888 78.844 108.432 78.52C108.312 78.436 108.348 78.364 108.48 78.088L108.54 77.956C108.696 77.62 108.744 77.608 108.9 77.704C109.356 77.968 109.932 78.184 110.46 78.184C111.012 78.184 111.78 77.908 111.78 77.212C111.78 76.564 111.012 76.348 110.4 76.216C109.764 76.072 109.296 75.904 108.972 75.604C108.672 75.328 108.492 74.908 108.492 74.44C108.492 73.264 109.512 72.544 110.712 72.544C111.468 72.544 112.164 72.808 112.608 73.204C112.704 73.288 112.728 73.396 112.56 73.636L112.476 73.756C112.26 74.068 112.2 74.068 112.116 73.996C111.672 73.684 111.252 73.468 110.724 73.468C110.232 73.468 109.524 73.66 109.524 74.32C109.524 74.968 110.196 75.136 110.772 75.28C111.756 75.532 112.8 75.892 112.8 77.14C112.8 78.424 111.72 79.12 110.4 79.12Z" fill="white"/>
<g clip-path="url(#clip0_2818_1454)">
<path d="M21.348 105C20.956 105 20.746 104.958 20.746 104.846V102.438H17.022C16.658 102.438 16.532 102.396 16.532 102.242V101.626C16.532 101.374 16.602 101.094 16.7 100.87L19.5 95.088C19.556 94.962 19.794 94.92 20.13 94.92H20.354C20.704 94.92 20.942 94.99 20.886 95.116L17.904 101.318H20.746V99.092C20.746 98.98 20.956 98.938 21.32 98.938H21.474C21.866 98.938 22.076 98.98 22.076 99.092V101.318H23.21C23.308 101.318 23.336 101.472 23.336 101.78V101.962C23.336 102.284 23.308 102.438 23.21 102.438H22.076V104.846C22.076 104.958 21.866 105 21.502 105H21.348ZM29.361 105.14C26.141 105.14 24.573 103.096 24.573 100.016C24.573 96.88 26.351 94.78 29.403 94.78C30.565 94.78 31.573 95.046 32.427 95.606C32.567 95.69 32.553 95.774 32.385 96.082L32.259 96.306C32.105 96.572 32.049 96.614 31.909 96.544C31.125 96.124 30.355 95.914 29.459 95.914C27.233 95.914 25.973 97.37 25.973 99.96C25.973 102.606 27.191 104.02 29.487 104.02C30.145 104.02 30.901 103.88 31.419 103.712V100.688H29.165C29.039 100.688 28.997 100.632 28.997 100.184V100.114C28.997 99.652 29.025 99.61 29.165 99.61H32.735V104.454C31.727 104.888 30.481 105.14 29.361 105.14ZM34.7564 105V94.92H37.6684C39.8664 94.92 41.2244 95.62 41.2244 97.44C41.2244 98.602 40.4684 99.316 39.6144 99.652C40.9304 99.904 41.7984 100.73 41.7984 102.144C41.7984 104.188 40.1744 105 37.8924 105H34.7564ZM36.1004 99.302H37.5844C38.9704 99.302 39.8804 98.798 39.8804 97.608C39.8804 96.306 39.0264 95.984 37.6684 95.984H36.1004V99.302ZM36.1004 103.936H37.8364C39.4184 103.936 40.4264 103.474 40.4264 102.116C40.4264 101.472 40.2024 101.024 39.7964 100.744C39.3484 100.422 38.6624 100.31 37.7944 100.31H36.1004V103.936ZM50.0014 105.14C47.7334 105.14 46.5714 103.726 46.5714 101.472C46.5714 99.12 47.8594 97.468 49.9314 97.468C51.1774 97.468 52.0314 98.084 52.4934 99.008C52.8154 99.652 52.9554 100.422 52.9554 101.248C52.9554 101.668 52.9274 101.752 52.8154 101.752H47.8874C47.9294 102.522 48.1534 103.124 48.5874 103.488C48.9654 103.824 49.5114 103.992 50.2394 103.992C50.8274 103.992 51.4154 103.852 52.0874 103.544C52.2134 103.488 52.2974 103.46 52.4374 103.81L52.5074 103.978C52.6614 104.342 52.6474 104.426 52.5354 104.496C51.8214 104.916 50.9394 105.14 50.0014 105.14ZM47.9294 100.716H51.6674C51.6534 99.666 51.1214 98.616 49.9454 98.616C48.9234 98.616 48.1254 99.274 47.9294 100.716ZM54.5679 105C54.0219 105 53.8539 104.944 53.9519 104.804L56.3459 101.15L54.2039 97.776C54.1199 97.65 54.2739 97.608 54.8479 97.608C55.4779 97.608 55.5899 97.622 55.6739 97.762L57.0879 100.072L58.4739 97.762C58.5439 97.636 58.7399 97.608 59.2439 97.608C59.7899 97.608 59.9579 97.664 59.8599 97.804L57.7599 101.052L60.2239 104.832C60.3079 104.958 60.1399 105 59.5659 105C58.9359 105 58.8519 104.972 58.7539 104.846L57.0179 102.102L55.3379 104.846C55.2539 104.958 55.0719 105 54.5679 105ZM64.2833 105.14C62.1413 105.14 61.0773 103.502 61.0773 101.416C61.0773 98.854 62.5753 97.468 64.5213 97.468C65.4033 97.468 66.1873 97.776 66.7753 98.196C66.8873 98.28 66.8873 98.378 66.6913 98.84C66.4813 99.316 66.3413 99.274 66.2433 99.204C65.7253 98.854 65.1513 98.616 64.5913 98.616C63.2893 98.616 62.3933 99.596 62.3933 101.332C62.3933 102.676 62.9393 103.992 64.4513 103.992C65.0393 103.992 65.6833 103.824 66.2293 103.558C66.3413 103.502 66.4813 103.544 66.5933 103.838L66.6633 104.02C66.8033 104.356 66.7613 104.454 66.6633 104.51C65.9633 104.902 65.1513 105.14 64.2833 105.14ZM69.5515 105.014C69.1595 105.014 68.7675 104.916 68.5155 104.538C68.3335 104.272 68.2775 103.81 68.2775 103.068V98.378C68.2775 96.908 68.2635 95.088 68.1935 94.542C68.1795 94.402 68.3195 94.36 68.7955 94.36H68.8795C69.3275 94.36 69.4255 94.402 69.4535 94.542C69.5235 94.934 69.5375 96.614 69.5375 98.686V103.334C69.5375 103.852 69.6075 104.034 70.0695 104.034H70.2095C70.2795 104.034 70.2935 104.09 70.2935 104.412V104.454C70.2935 104.818 70.2935 104.874 70.2095 104.902C70.0135 104.972 69.7615 105.014 69.5515 105.014ZM74.3656 105.14C73.6096 105.14 72.9656 104.888 72.5036 104.398C72.0136 103.88 71.8176 103.152 71.8176 102.018V97.776C71.8176 97.678 71.8456 97.608 72.3776 97.608H72.4896C73.0216 97.608 73.0776 97.664 73.0776 97.776V101.444C73.0776 102.55 73.1196 103.124 73.4276 103.502C73.6796 103.81 74.0996 103.978 74.6736 103.978C75.2196 103.978 75.8636 103.796 76.1996 103.474C76.4936 103.194 76.6476 102.774 76.6476 101.234V97.776C76.6476 97.678 76.7316 97.608 77.2076 97.608H77.3336C77.8096 97.608 77.9076 97.664 77.9076 97.776V102.55C77.9076 103.502 77.9356 104.482 77.9356 104.832C77.9356 104.944 77.8936 105 77.3616 105H77.3056C76.8156 105 76.7316 104.944 76.7316 104.832L76.7036 104.23H76.6896C76.1716 104.804 75.4016 105.14 74.3656 105.14ZM81.9823 105.14C81.0863 105.14 80.2183 104.818 79.6863 104.44C79.5463 104.342 79.5883 104.258 79.7423 103.936L79.8123 103.782C79.9943 103.39 80.0503 103.376 80.2323 103.488C80.7643 103.796 81.4363 104.048 82.0523 104.048C82.6963 104.048 83.5923 103.726 83.5923 102.914C83.5923 102.158 82.6963 101.906 81.9823 101.752C81.2403 101.584 80.6943 101.388 80.3163 101.038C79.9663 100.716 79.7563 100.226 79.7563 99.68C79.7563 98.308 80.9463 97.468 82.3463 97.468C83.2283 97.468 84.0403 97.776 84.5583 98.238C84.6703 98.336 84.6983 98.462 84.5023 98.742L84.4043 98.882C84.1523 99.246 84.0823 99.246 83.9843 99.162C83.4663 98.798 82.9763 98.546 82.3603 98.546C81.7863 98.546 80.9603 98.77 80.9603 99.54C80.9603 100.296 81.7443 100.492 82.4163 100.66C83.5643 100.954 84.7823 101.374 84.7823 102.83C84.7823 104.328 83.5223 105.14 81.9823 105.14ZM87.0784 96.222C86.5884 96.222 86.1964 95.83 86.1964 95.34C86.1964 94.85 86.5884 94.458 87.0784 94.458C87.5684 94.458 87.9604 94.85 87.9604 95.34C87.9604 95.83 87.5684 96.222 87.0784 96.222ZM87.0504 105C86.4904 105 86.4484 104.944 86.4484 104.832V97.776C86.4484 97.664 86.4904 97.608 87.0504 97.608H87.1344C87.6944 97.608 87.7084 97.678 87.7084 97.776V104.832C87.7084 104.93 87.6944 105 87.1344 105H87.0504ZM92.2337 105C91.6877 105 91.5757 104.972 91.5197 104.832L88.9577 97.804C88.9017 97.636 89.0557 97.608 89.5737 97.608C90.0777 97.608 90.2737 97.65 90.3157 97.762L92.3317 103.572H92.3457C93.0317 101.71 93.7037 99.722 94.1377 97.748C94.1657 97.636 94.1797 97.608 94.7257 97.608C95.2857 97.608 95.3977 97.622 95.3417 97.874C94.6837 100.548 93.7737 103.068 92.9757 104.832C92.9057 104.986 92.7937 105 92.2337 105ZM99.2969 105.14C98.4429 105.14 97.7289 104.916 97.1969 104.44C96.4969 103.824 96.0909 102.788 96.0909 101.472C96.0909 98.826 97.4769 97.468 99.5769 97.468C100.431 97.468 101.145 97.692 101.677 98.168C102.377 98.784 102.783 99.82 102.783 101.136C102.783 103.782 101.397 105.14 99.2969 105.14ZM99.3529 104.02C100.473 104.02 101.467 103.236 101.467 101.234C101.467 99.974 101.047 98.588 99.5209 98.588C98.4009 98.588 97.4069 99.372 97.4069 101.374C97.4069 102.634 97.8269 104.02 99.3529 104.02ZM106.414 105.14C105.518 105.14 104.65 104.818 104.118 104.44C103.978 104.342 104.02 104.258 104.174 103.936L104.244 103.782C104.426 103.39 104.482 103.376 104.664 103.488C105.196 103.796 105.868 104.048 106.484 104.048C107.128 104.048 108.024 103.726 108.024 102.914C108.024 102.158 107.128 101.906 106.414 101.752C105.672 101.584 105.126 101.388 104.748 101.038C104.398 100.716 104.188 100.226 104.188 99.68C104.188 98.308 105.378 97.468 106.778 97.468C107.66 97.468 108.472 97.776 108.99 98.238C109.102 98.336 109.13 98.462 108.934 98.742L108.836 98.882C108.584 99.246 108.514 99.246 108.416 99.162C107.898 98.798 107.408 98.546 106.792 98.546C106.218 98.546 105.392 98.77 105.392 99.54C105.392 100.296 106.176 100.492 106.848 100.66C107.996 100.954 109.214 101.374 109.214 102.83C109.214 104.328 107.954 105.14 106.414 105.14ZM117.628 97.468C119.476 97.468 120.61 98.854 120.61 101.15C120.61 103.25 119.504 105.126 117.194 105.126C116.648 105.126 116.018 104.93 115.668 104.692V108.066C115.668 108.206 115.542 108.248 115.066 108.248H114.982C114.534 108.248 114.408 108.206 114.408 108.066V100.058C114.408 99.106 114.38 98.126 114.38 97.776C114.38 97.664 114.422 97.608 114.954 97.608H115.01C115.514 97.608 115.598 97.65 115.598 97.776L115.612 98.392C116.046 97.846 116.872 97.468 117.628 97.468ZM117.124 103.992C118.44 103.992 119.294 102.886 119.294 101.192C119.294 99.498 118.51 98.602 117.418 98.602C116.858 98.602 116.214 98.854 115.934 99.218C115.682 99.54 115.668 99.904 115.668 101.29V103.46C116.018 103.754 116.564 103.992 117.124 103.992ZM124.872 105.14C122.828 105.14 121.876 103.446 121.876 101.43C121.876 99.036 123.248 97.468 125.096 97.468C125.936 97.468 126.594 97.86 126.986 98.364L127.056 97.776C127.07 97.608 127.14 97.608 127.56 97.608H127.588C128.12 97.608 128.134 97.664 128.134 97.776C128.134 98.112 128.106 99.008 128.106 99.904V101.864C128.106 103.152 128.162 104.062 128.204 104.832C128.204 104.944 128.134 105 127.7 105H127.644C127.21 105 127.126 104.958 127.112 104.832L127.028 104.188C126.58 104.734 125.782 105.14 124.872 105.14ZM125.096 104.02C125.558 104.02 126.118 103.88 126.496 103.474C126.79 103.152 126.846 102.76 126.846 101.542V99.554C126.524 99.05 125.894 98.602 125.236 98.602C123.948 98.602 123.192 99.68 123.192 101.36C123.192 102.676 123.654 104.02 125.096 104.02ZM130.869 105C130.309 105 130.267 104.944 130.267 104.832V100.058C130.267 99.106 130.239 98.126 130.239 97.776C130.239 97.664 130.281 97.608 130.813 97.608H130.883C131.387 97.608 131.457 97.65 131.457 97.776L131.485 99.218C132.017 98.042 132.787 97.524 133.529 97.524C133.655 97.524 133.753 97.538 133.823 97.552C133.949 97.58 133.963 97.622 133.963 97.944V98.154C133.963 98.56 133.949 98.672 133.809 98.672C132.815 98.672 132.311 99.288 131.905 99.946C131.709 100.268 131.597 100.66 131.569 101.15C131.541 101.542 131.527 102.41 131.527 103.222V104.832C131.527 104.93 131.513 105 130.953 105H130.869ZM137.628 105.14C135.584 105.14 134.632 103.446 134.632 101.43C134.632 99.036 136.004 97.468 137.852 97.468C138.692 97.468 139.35 97.86 139.742 98.364L139.812 97.776C139.826 97.608 139.896 97.608 140.316 97.608H140.344C140.876 97.608 140.89 97.664 140.89 97.776C140.89 98.112 140.862 99.008 140.862 99.904V101.864C140.862 103.152 140.918 104.062 140.96 104.832C140.96 104.944 140.89 105 140.456 105H140.4C139.966 105 139.882 104.958 139.868 104.832L139.784 104.188C139.336 104.734 138.538 105.14 137.628 105.14ZM137.852 104.02C138.314 104.02 138.874 103.88 139.252 103.474C139.546 103.152 139.602 102.76 139.602 101.542V99.554C139.28 99.05 138.65 98.602 137.992 98.602C136.704 98.602 135.948 99.68 135.948 101.36C135.948 102.676 136.41 104.02 137.852 104.02ZM143.681 99.918C143.163 99.918 142.743 99.498 142.743 98.98C142.743 98.462 143.163 98.042 143.681 98.042C144.199 98.042 144.619 98.462 144.619 98.98C144.619 99.498 144.199 99.918 143.681 99.918ZM143.681 105.14C143.163 105.14 142.743 104.72 142.743 104.202C142.743 103.684 143.163 103.264 143.681 103.264C144.199 103.264 144.619 103.684 144.619 104.202C144.619 104.72 144.199 105.14 143.681 105.14Z" fill="white"/>
<rect x="16" y="113" width="24" height="24" rx="12" fill="#1877F2"/>
<path d="M36 124.803C36 120.493 32.4236 117 28 117C23.5764 117 20 120.493 20 124.803C20 128.69 22.9261 131.915 26.7487 132.5V127.049H24.7193V124.803H26.7487V123.085C26.7487 121.127 27.9409 120.052 29.7734 120.052C30.6503 120.052 31.5665 120.205 31.5665 120.205V122.115H30.5517C29.5566 122.115 29.2513 122.72 29.2513 123.334V124.803H31.468L31.1133 127.049H29.2513V132.5C33.0739 131.915 36 128.69 36 124.803Z" fill="white"/>
<rect x="44" y="113" width="24" height="24" rx="12" fill="url(#paint0_linear_2818_1454)"/>
<path d="M56 119.67C57.7388 119.67 57.9419 119.678 58.6244 119.711C59.2581 119.743 59.6075 119.849 59.835 119.938C60.1194 120.036 60.3713 120.206 60.5825 120.418C60.7938 120.629 60.9644 120.889 61.07 121.173C61.1594 121.401 61.265 121.742 61.2894 122.376C61.3219 123.058 61.33 123.269 61.33 125C61.33 126.739 61.3219 126.942 61.2894 127.632C61.265 128.258 61.1594 128.607 61.07 128.835C60.9562 129.119 60.7938 129.371 60.5825 129.582C60.3713 129.794 60.1112 129.964 59.835 130.07C59.6075 130.159 59.2581 130.265 58.6244 130.289C57.9419 130.322 57.7388 130.33 56 130.33C54.2694 130.33 54.0581 130.322 53.3756 130.289C52.7419 130.265 52.4006 130.159 52.165 130.07C51.8888 129.964 51.6287 129.802 51.4175 129.582C51.2062 129.371 51.0356 129.119 50.93 128.835C50.8406 128.607 50.735 128.258 50.7106 127.624C50.6781 126.942 50.67 126.739 50.67 125C50.67 123.269 50.6781 123.058 50.7106 122.376C50.735 121.742 50.8406 121.401 50.93 121.165C51.0356 120.889 51.2062 120.629 51.4175 120.418C51.6287 120.206 51.8888 120.036 52.165 119.938C52.4006 119.849 52.7419 119.743 53.3756 119.711C54.0581 119.678 54.2694 119.67 56 119.67ZM56 118.5C54.2369 118.5 54.0175 118.508 53.3187 118.541C52.6281 118.573 52.1569 118.687 51.7425 118.841C51.3119 119.004 50.9137 119.264 50.5887 119.597C50.2637 119.922 50.0038 120.312 49.8413 120.743C49.6788 121.157 49.5732 121.628 49.5407 122.319C49.5082 123.017 49.5 123.237 49.5 125C49.5 126.763 49.5082 126.991 49.5407 127.681C49.5732 128.372 49.6788 128.843 49.8413 129.257C50.0038 129.688 50.2637 130.086 50.5887 130.411C50.9137 130.736 51.3119 130.996 51.7425 131.159C52.1569 131.321 52.6281 131.427 53.3187 131.459C54.0093 131.492 54.2369 131.5 56 131.5C57.7631 131.5 57.9825 131.492 58.6813 131.459C59.3719 131.427 59.8431 131.321 60.2575 131.159C60.6881 130.988 61.0782 130.736 61.4113 130.411C61.7363 130.086 61.9881 129.688 62.1587 129.257C62.3212 128.843 62.4268 128.372 62.4593 127.681C62.4918 126.991 62.5 126.763 62.5 125C62.5 123.237 62.4918 123.017 62.4593 122.319C62.4268 121.628 62.3212 121.157 62.1587 120.743C61.9962 120.312 61.7363 119.922 61.4113 119.597C61.0863 119.264 60.6881 119.012 60.2575 118.841C59.8431 118.687 59.3719 118.573 58.6813 118.541C57.9907 118.508 57.7631 118.5 56 118.5Z" fill="white"/>
<path d="M56.0011 121.669C55.343 121.669 54.7011 121.864 54.1486 122.229C53.5961 122.595 53.1735 123.115 52.9217 123.724C52.6698 124.334 52.5967 125.008 52.7267 125.65C52.8567 126.3 53.1736 126.893 53.6448 127.364C54.1079 127.827 54.701 128.144 55.351 128.274C56.001 128.404 56.6673 128.339 57.2767 128.088C57.886 127.836 58.4142 127.405 58.7799 126.852C59.1455 126.308 59.3404 125.666 59.3404 125C59.3404 124.561 59.2511 124.131 59.0886 123.724C58.918 123.318 58.6742 122.953 58.3655 122.644C58.0567 122.335 57.6829 122.083 57.2767 121.921C56.8785 121.75 56.4398 121.669 56.0011 121.669ZM56.0011 127.169C55.5705 127.169 55.1561 127.039 54.7986 126.804C54.4411 126.568 54.1649 126.227 54.0024 125.829C53.8399 125.439 53.7911 125 53.8805 124.577C53.9617 124.155 54.1648 123.773 54.4736 123.473C54.7742 123.164 55.1561 122.961 55.5786 122.879C56.0011 122.79 56.4398 122.839 56.8298 123.001C57.228 123.164 57.5692 123.44 57.8048 123.797C58.0404 124.155 58.1705 124.569 58.1705 125C58.1705 125.577 57.943 126.129 57.5367 126.536C57.1305 126.942 56.578 127.169 56.0011 127.169Z" fill="white"/>
<path d="M59.4695 122.311C59.9002 122.311 60.2495 121.961 60.2495 121.531C60.2495 121.1 59.9002 120.751 59.4695 120.751C59.0389 120.751 58.6896 121.1 58.6896 121.531C58.6896 121.961 59.0389 122.311 59.4695 122.311Z" fill="white"/>
<rect x="72" y="113" width="24" height="24" rx="12" fill="white"/>
<g clip-path="url(#clip1_2818_1454)">
<path d="M78.0305 119L82.8563 125.62L78 131H79.093L83.3449 126.289L86.7813 131.001H90.4997L85.4021 124.009L89.9225 119H88.8295L84.9138 123.338L81.7498 119H78.0305ZM79.6379 119.826H81.3466L88.8916 130.174H87.1834L79.6379 119.826Z" fill="black"/>
</g>
</g>
<rect x="16.5" y="193.5" width="131" height="55" rx="11.5" stroke="white"/>
<path d="M52.2931 227.16C49.0291 227.16 47.0931 224.968 47.0931 221.368C47.0931 217.56 49.2851 215.32 52.4851 215.32C53.8451 215.32 54.9491 215.72 55.6691 216.216C55.9251 216.376 55.9251 216.456 55.6211 216.936L55.4291 217.24C55.1571 217.688 55.1091 217.704 54.9331 217.608C54.1651 217.192 53.5091 216.968 52.6451 216.968C50.3891 216.968 49.1251 218.52 49.1251 221.288C49.1251 224.072 50.3411 225.512 52.6451 225.512C53.4771 225.512 54.3091 225.272 55.0451 224.984C55.2531 224.888 55.3171 224.92 55.5091 225.336L55.6691 225.672C55.8931 226.136 55.8931 226.248 55.6851 226.344C54.7571 226.84 53.5091 227.16 52.2931 227.16ZM60.4941 227.16C58.0781 227.16 56.7181 225.608 56.7181 222.952C56.7181 220.008 58.1901 218.392 60.7821 218.392C63.1821 218.392 64.5421 219.928 64.5421 222.6C64.5421 225.544 63.0701 227.16 60.4941 227.16ZM60.5261 225.56C61.8541 225.56 62.6381 224.6 62.6381 222.712C62.6381 221.128 62.1101 219.992 60.7181 219.992C59.3901 219.992 58.6221 220.968 58.6221 222.84C58.6221 224.424 59.1501 225.56 60.5261 225.56ZM67.2195 227C66.3715 227 66.3235 226.936 66.3235 226.776V221.88C66.3235 220.808 66.2915 219.608 66.2435 218.792C66.2275 218.6 66.3075 218.552 67.0435 218.552H67.1235C67.7795 218.552 67.9235 218.584 67.9555 218.744C67.9875 218.952 68.0195 219.224 68.0355 219.496C68.5795 218.824 69.4435 218.392 70.5155 218.392C71.4915 218.392 72.2595 218.696 72.7555 219.24C73.2835 219.832 73.5235 220.616 73.5235 221.864V226.776C73.5235 226.936 73.4275 227 72.6595 227H72.5635C71.7315 227 71.6835 226.936 71.6835 226.776V222.504C71.6835 221.304 71.6195 220.856 71.2995 220.504C71.0595 220.248 70.6755 220.056 70.0355 220.056C69.4595 220.056 68.9955 220.216 68.6595 220.472C68.3555 220.712 68.2275 221.016 68.1955 221.416C68.1635 221.816 68.1635 222.488 68.1635 223.224V226.776C68.1635 226.936 68.0675 227 67.2995 227H67.2195ZM78.5629 227.16C77.7469 227.16 77.1549 226.936 76.7549 226.552C76.3229 226.12 76.1309 225.464 76.1309 224.424V220.008H74.8349C74.6909 220.008 74.6429 219.896 74.6429 219.48V219.368C74.6429 218.984 74.6749 218.872 74.8189 218.84C76.1789 218.456 76.4989 217.896 76.6589 216.408C76.6749 216.264 76.7869 216.248 77.2509 216.248H77.3789C77.8749 216.248 77.9709 216.296 77.9709 216.44V218.552H79.9869C80.1149 218.552 80.1629 218.6 80.1629 219.224V219.336C80.1629 219.96 80.1149 220.008 79.9869 220.008H77.9709V224.296C77.9709 224.856 78.0349 225.16 78.2429 225.368C78.4349 225.544 78.6909 225.624 79.0429 225.624C79.3469 225.624 79.6829 225.56 79.9869 225.448C80.1469 225.4 80.1789 225.448 80.3549 225.976L80.4029 226.12C80.5789 226.648 80.5469 226.696 80.3549 226.792C79.8429 227.032 79.1709 227.16 78.5629 227.16ZM82.8758 227C82.0278 227 81.9798 226.952 81.9798 226.792V222.024C81.9798 220.888 81.9478 219.656 81.8997 218.792C81.8838 218.616 81.9478 218.552 82.6998 218.552H82.7958C83.4678 218.552 83.5958 218.584 83.6118 218.728C83.6438 219.016 83.7238 219.8 83.7558 220.44C84.2518 219.128 85.0198 218.408 86.0118 218.408C86.1718 218.408 86.3158 218.424 86.4438 218.472C86.6038 218.536 86.6038 218.616 86.6038 219.128V219.32C86.6038 219.992 86.5398 220.056 86.3798 220.072C85.4998 220.136 84.9078 220.52 84.4758 221.128C83.9798 221.832 83.8198 222.856 83.8198 224.648V226.792C83.8198 226.952 83.7238 227 82.9557 227H82.8758ZM95.2174 225.592C95.3454 225.592 95.3934 225.624 95.3934 226.168V226.296C95.3934 226.76 95.3614 226.84 95.2334 226.888C94.9934 226.984 94.6414 227.048 94.2894 227.048C93.7614 227.048 93.3134 226.904 93.0254 226.584C92.8974 226.44 92.8014 226.264 92.7374 226.072C92.1934 226.76 91.2494 227.16 90.2254 227.16C88.4494 227.16 87.2494 226.024 87.2494 224.52C87.2494 222.792 88.7054 222.088 90.4814 222.088H92.5934V221.768C92.5934 220.568 92.0494 219.944 90.8974 219.944C90.1294 219.944 89.3294 220.168 88.5134 220.52C88.2734 220.616 88.1614 220.584 87.9374 220.056L87.8414 219.832C87.6654 219.416 87.6494 219.256 87.8574 219.144C88.7214 218.68 89.8894 218.392 90.9934 218.392C93.3294 218.392 94.4334 219.624 94.4334 221.736V224.92C94.4334 225.384 94.5294 225.592 94.9774 225.592H95.2174ZM90.6574 225.656C91.9694 225.656 92.5934 224.76 92.5934 223.56V223.432H90.5614C89.6654 223.432 89.1374 223.704 89.1374 224.408C89.1374 225.128 89.7294 225.656 90.6574 225.656ZM99.9066 227.16C99.0906 227.16 98.4986 226.936 98.0986 226.552C97.6666 226.12 97.4746 225.464 97.4746 224.424V220.008H96.1786C96.0346 220.008 95.9866 219.896 95.9866 219.48V219.368C95.9866 218.984 96.0186 218.872 96.1626 218.84C97.5226 218.456 97.8426 217.896 98.0026 216.408C98.0186 216.264 98.1306 216.248 98.5946 216.248H98.7226C99.2186 216.248 99.3146 216.296 99.3146 216.44V218.552H101.331C101.459 218.552 101.507 218.6 101.507 219.224V219.336C101.507 219.96 101.459 220.008 101.331 220.008H99.3146V224.296C99.3146 224.856 99.3786 225.16 99.5866 225.368C99.7786 225.544 100.035 225.624 100.387 225.624C100.691 225.624 101.027 225.56 101.331 225.448C101.491 225.4 101.523 225.448 101.699 225.976L101.747 226.12C101.923 226.648 101.891 226.696 101.699 226.792C101.187 227.032 100.515 227.16 99.9066 227.16ZM110.796 225.592C110.924 225.592 110.972 225.624 110.972 226.168V226.296C110.972 226.76 110.94 226.84 110.812 226.888C110.572 226.984 110.22 227.048 109.868 227.048C109.34 227.048 108.892 226.904 108.604 226.584C108.476 226.44 108.38 226.264 108.316 226.072C107.772 226.76 106.828 227.16 105.804 227.16C104.028 227.16 102.828 226.024 102.828 224.52C102.828 222.792 104.284 222.088 106.06 222.088H108.172V221.768C108.172 220.568 107.628 219.944 106.476 219.944C105.708 219.944 104.908 220.168 104.092 220.52C103.852 220.616 103.74 220.584 103.516 220.056L103.42 219.832C103.243 219.416 103.228 219.256 103.436 219.144C104.299 218.68 105.468 218.392 106.572 218.392C108.908 218.392 110.012 219.624 110.012 221.736V224.92C110.012 225.384 110.108 225.592 110.556 225.592H110.796ZM106.236 225.656C107.548 225.656 108.172 224.76 108.172 223.56V223.432H106.14C105.244 223.432 104.716 223.704 104.716 224.408C104.716 225.128 105.308 225.656 106.236 225.656ZM113.501 227C112.653 227 112.605 226.952 112.605 226.792V222.024C112.605 220.888 112.573 219.656 112.525 218.792C112.509 218.616 112.573 218.552 113.325 218.552H113.421C114.093 218.552 114.221 218.584 114.237 218.728C114.269 219.016 114.349 219.8 114.381 220.44C114.877 219.128 115.645 218.408 116.637 218.408C116.797 218.408 116.941 218.424 117.069 218.472C117.229 218.536 117.229 218.616 117.229 219.128V219.32C117.229 219.992 117.165 220.056 117.005 220.072C116.125 220.136 115.533 220.52 115.101 221.128C114.605 221.832 114.445 222.856 114.445 224.648V226.792C114.445 226.952 114.349 227 113.581 227H113.501Z" fill="white"/>
</g>
<defs>
<filter id="filter0_d_2818_1454" x="0" y="0" width="164" height="267" filterUnits="userSpaceOnUse" color-interpolation-filters="sRGB">
<feFlood flood-opacity="0" result="BackgroundImageFix"/>
<feColorMatrix in="SourceAlpha" type="matrix" values="0 0 0 0 0 0 0 0 0 0 0 0 0 0 0 0 0 0 127 0" result="hardAlpha"/>
<feOffset dy="4"/>
<feGaussianBlur stdDeviation="2"/>
<feComposite in2="hardAlpha" operator="out"/>
<feColorMatrix type="matrix" values="0 0 0 0 0 0 0 0 0 0 0 0 0 0 0 0 0 0 0.25 0"/>
<feBlend mode="normal" in2="BackgroundImageFix" result="effect1_dropShadow_2818_1454"/>
<feBlend mode="normal" in="SourceGraphic" in2="effect1_dropShadow_2818_1454" result="shape"/>
</filter>
<linearGradient id="paint0_linear_2818_1454" x1="47.25" y1="114.75" x2="64.5" y2="135" gradientUnits="userSpaceOnUse">
<stop stop-color="#C13CAE"/>
<stop offset="1" stop-color="#FF7000"/>
</linearGradient>
<clipPath id="clip0_2818_1454">
<rect width="132" height="46" fill="white" transform="translate(16 91)"/>
</clipPath>
<clipPath id="clip1_2818_1454">
<rect width="12.5" height="12" fill="white" transform="translate(78 119)"/>
</clipPath>
</defs>
</svg>
