<svg width="156" height="189" viewBox="0 0 156 189" fill="none" xmlns="http://www.w3.org/2000/svg">
<rect x="0.5" y="0.5" width="155" height="187" rx="11.5" fill="#002E46"/>
<rect x="0.5" y="0.5" width="155" height="187" rx="11.5" stroke="#5270FE"/>
<path d="M15.348 24C14.916 24 14.844 23.976 14.844 23.868V16.284H12.336C12.228 16.284 12.192 16.224 12.192 15.852V15.78C12.192 15.42 12.216 15.36 12.336 15.36H18.504C18.624 15.36 18.648 15.42 18.648 15.792V15.852C18.648 16.224 18.612 16.284 18.504 16.284H15.996V23.868C15.996 23.988 15.9 24 15.456 24H15.348ZM20.3558 24C19.9118 24 19.8518 23.976 19.8518 23.868V15.492C19.8518 15.384 19.9118 15.36 20.3558 15.36H20.4758C20.9198 15.36 21.0038 15.372 21.0038 15.492V23.868C21.0038 23.988 20.9198 24 20.4758 24H20.3558ZM23.4958 24C23.0158 24 22.9558 23.988 22.9558 23.88V15.504C22.9558 15.384 23.0278 15.36 23.5198 15.36H23.7358C24.1918 15.36 24.2878 15.396 24.3358 15.504L26.0278 18.912C26.4358 19.74 26.8078 20.52 27.0838 21.18C27.3838 20.46 27.7558 19.608 28.0918 18.912L29.7598 15.504C29.8078 15.396 29.8918 15.36 30.3838 15.36H30.5398C31.0078 15.36 31.0798 15.384 31.0798 15.504V23.88C31.0798 23.988 31.0198 24 30.5758 24H30.4918C30.0238 24 29.9758 23.988 29.9758 23.88V19.896C29.9758 19.212 29.9878 17.832 29.9998 17.208C29.6998 17.952 29.2798 18.84 28.9078 19.596L27.5518 22.356C27.5038 22.452 27.4678 22.476 27.0718 22.476H27.0358C26.5918 22.476 26.5678 22.452 26.5198 22.356L25.1038 19.536C24.7198 18.768 24.3838 18.048 24.0358 17.208C24.0598 17.88 24.0598 19.14 24.0598 19.908V23.88C24.0598 23.988 24.0118 24 23.5558 24H23.4958ZM35.9753 24V15.36H38.4713C40.3553 15.36 41.5193 15.96 41.5193 17.52C41.5193 18.516 40.8713 19.128 40.1393 19.416C41.2673 19.632 42.0113 20.34 42.0113 21.552C42.0113 23.304 40.6193 24 38.6633 24H35.9753ZM37.1273 19.116H38.3993C39.5873 19.116 40.3673 18.684 40.3673 17.664C40.3673 16.548 39.6353 16.272 38.4713 16.272H37.1273V19.116ZM37.1273 23.088H38.6153C39.9713 23.088 40.8353 22.692 40.8353 21.528C40.8353 20.976 40.6433 20.592 40.2953 20.352C39.9113 20.076 39.3233 19.98 38.5793 19.98H37.1273V23.088ZM44.5185 24.012C44.1825 24.012 43.8465 23.928 43.6305 23.604C43.4745 23.376 43.4265 22.98 43.4265 22.344V18.324C43.4265 17.064 43.4145 15.504 43.3545 15.036C43.3425 14.916 43.4625 14.88 43.8705 14.88H43.9425C44.3265 14.88 44.4105 14.916 44.4345 15.036C44.4945 15.372 44.5065 16.812 44.5065 18.588V22.572C44.5065 23.016 44.5665 23.172 44.9625 23.172H45.0825C45.1425 23.172 45.1545 23.22 45.1545 23.496V23.532C45.1545 23.844 45.1545 23.892 45.0825 23.916C44.9145 23.976 44.6985 24.012 44.5185 24.012ZM48.7408 24.12C46.9888 24.12 46.1728 22.668 46.1728 20.94C46.1728 18.888 47.3488 17.544 48.9328 17.544C49.6528 17.544 50.2168 17.88 50.5528 18.312L50.6128 17.808C50.6248 17.664 50.6848 17.664 51.0448 17.664H51.0688C51.5248 17.664 51.5368 17.712 51.5368 17.808C51.5368 18.096 51.5128 18.864 51.5128 19.632V21.312C51.5128 22.416 51.5608 23.196 51.5968 23.856C51.5968 23.952 51.5368 24 51.1648 24H51.1168C50.7448 24 50.6728 23.964 50.6608 23.856L50.5888 23.304C50.2048 23.772 49.5208 24.12 48.7408 24.12ZM48.9328 23.16C49.3288 23.16 49.8088 23.04 50.1328 22.692C50.3848 22.416 50.4328 22.08 50.4328 21.036V19.332C50.1568 18.9 49.6168 18.516 49.0528 18.516C47.9488 18.516 47.3008 19.44 47.3008 20.88C47.3008 22.008 47.6968 23.16 48.9328 23.16ZM55.7294 24.12C53.8934 24.12 52.9814 22.716 52.9814 20.928C52.9814 18.732 54.2654 17.544 55.9334 17.544C56.6894 17.544 57.3614 17.808 57.8654 18.168C57.9614 18.24 57.9614 18.324 57.7934 18.72C57.6134 19.128 57.4934 19.092 57.4094 19.032C56.9654 18.732 56.4734 18.528 55.9934 18.528C54.8774 18.528 54.1094 19.368 54.1094 20.856C54.1094 22.008 54.5774 23.136 55.8734 23.136C56.3774 23.136 56.9294 22.992 57.3974 22.764C57.4934 22.716 57.6134 22.752 57.7094 23.004L57.7694 23.16C57.8894 23.448 57.8534 23.532 57.7694 23.58C57.1694 23.916 56.4734 24.12 55.7294 24.12ZM59.7171 24C59.2371 24 59.2011 23.952 59.2011 23.856V15.024C59.2011 14.928 59.2371 14.88 59.7171 14.88H59.7891C60.2691 14.88 60.2811 14.94 60.2811 15.024V20.256L61.0131 19.572C61.6611 18.96 62.0211 18.552 62.5971 17.796C62.6691 17.7 62.7291 17.664 63.1731 17.664C63.6051 17.664 63.7491 17.736 63.6891 17.844C63.4491 18.288 62.6691 19.248 61.6971 20.184L63.9411 23.832C63.9891 23.916 63.9291 24 63.4731 24H63.3891C62.9331 24 62.8131 23.964 62.7531 23.868L60.8931 20.856L60.2811 21.396V23.856C60.2811 23.94 60.2691 24 59.7891 24H59.7171ZM68.6833 24C68.1913 24 68.1433 23.988 68.1433 23.856V15.36H73.2673C73.3873 15.36 73.4113 15.408 73.4113 15.78V15.852C73.4113 16.224 73.3873 16.284 73.2673 16.284H69.2833V19.164H72.6673C72.7753 19.164 72.8113 19.212 72.8113 19.584V19.656C72.8113 20.028 72.7753 20.088 72.6673 20.088H69.2833V23.856C69.2833 23.976 69.2233 24 68.7673 24H68.6833ZM76.3268 24.12C74.5748 24.12 73.7588 22.668 73.7588 20.94C73.7588 18.888 74.9348 17.544 76.5188 17.544C77.2388 17.544 77.8028 17.88 78.1388 18.312L78.1988 17.808C78.2108 17.664 78.2708 17.664 78.6308 17.664H78.6548C79.1108 17.664 79.1228 17.712 79.1228 17.808C79.1228 18.096 79.0988 18.864 79.0988 19.632V21.312C79.0988 22.416 79.1468 23.196 79.1828 23.856C79.1828 23.952 79.1228 24 78.7508 24H78.7028C78.3308 24 78.2588 23.964 78.2468 23.856L78.1748 23.304C77.7908 23.772 77.1068 24.12 76.3268 24.12ZM76.5188 23.16C76.9148 23.16 77.3948 23.04 77.7188 22.692C77.9708 22.416 78.0188 22.08 78.0188 21.036V19.332C77.7428 18.9 77.2028 18.516 76.6388 18.516C75.5348 18.516 74.8868 19.44 74.8868 20.88C74.8868 22.008 75.2828 23.16 76.5188 23.16ZM81.4313 24C80.9513 24 80.9153 23.952 80.9153 23.856V19.764C80.9153 18.948 80.8913 18.108 80.8913 17.808C80.8913 17.712 80.9273 17.664 81.3833 17.664H81.4433C81.8753 17.664 81.9353 17.7 81.9353 17.808L81.9473 18.348H81.9593C82.3793 17.856 83.0753 17.544 83.8193 17.544C84.4793 17.544 85.0433 17.772 85.4393 18.18C85.5473 18.3 85.6433 18.42 85.7153 18.564C86.1953 17.904 87.0233 17.544 87.8753 17.544C88.5353 17.544 89.0993 17.772 89.4953 18.18C89.9273 18.624 90.1073 19.248 90.1073 20.22V23.856C90.1073 23.94 90.0953 24 89.6153 24H89.5433C89.0633 24 89.0273 23.952 89.0273 23.856V20.724C89.0273 19.752 88.9913 19.296 88.7033 18.96C88.4753 18.684 88.0673 18.564 87.6113 18.564C87.1913 18.564 86.6873 18.72 86.4113 18.984C86.2673 19.116 86.1353 19.32 86.0873 19.836C86.0633 20.172 86.0513 20.784 86.0513 21.48V23.856C86.0513 23.94 86.0393 24 85.5593 24H85.4873C85.0073 24 84.9713 23.952 84.9713 23.856V20.724C84.9713 19.752 84.9353 19.296 84.6473 18.96C84.4193 18.684 84.0113 18.564 83.5553 18.564C83.1353 18.564 82.6313 18.72 82.3553 18.984C82.2113 19.116 82.0793 19.32 82.0313 19.836C82.0073 20.172 81.9953 20.784 81.9953 21.48V23.856C81.9953 23.94 81.9833 24 81.5033 24H81.4313ZM92.1012 16.908C91.7172 16.908 91.6932 16.836 91.7412 16.764L92.6172 15.228C92.6652 15.144 92.8092 15.096 93.1452 15.096H93.2892C93.7332 15.096 93.8172 15.18 93.7572 15.264L92.6292 16.8C92.5932 16.86 92.4852 16.908 92.1972 16.908H92.1012ZM92.3652 24C91.8852 24 91.8492 23.952 91.8492 23.856V17.808C91.8492 17.712 91.8852 17.664 92.3652 17.664H92.4372C92.9172 17.664 92.9292 17.724 92.9292 17.808V23.856C92.9292 23.94 92.9172 24 92.4372 24H92.3652ZM95.788 24.012C95.452 24.012 95.116 23.928 94.9 23.604C94.744 23.376 94.696 22.98 94.696 22.344V18.324C94.696 17.064 94.684 15.504 94.624 15.036C94.612 14.916 94.732 14.88 95.14 14.88H95.212C95.596 14.88 95.68 14.916 95.704 15.036C95.764 15.372 95.776 16.812 95.776 18.588V22.572C95.776 23.016 95.836 23.172 96.232 23.172H96.352C96.412 23.172 96.424 23.22 96.424 23.496V23.532C96.424 23.844 96.424 23.892 96.352 23.916C96.184 23.976 95.968 24.012 95.788 24.012ZM98.3423 16.476C97.9223 16.476 97.5863 16.14 97.5863 15.72C97.5863 15.3 97.9223 14.964 98.3423 14.964C98.7623 14.964 99.0983 15.3 99.0983 15.72C99.0983 16.14 98.7623 16.476 98.3423 16.476ZM98.3183 24C97.8383 24 97.8023 23.952 97.8023 23.856V17.808C97.8023 17.712 97.8383 17.664 98.3183 17.664H98.3903C98.8703 17.664 98.8823 17.724 98.8823 17.808V23.856C98.8823 23.94 98.8703 24 98.3903 24H98.3183ZM102.893 24.12C101.141 24.12 100.325 22.668 100.325 20.94C100.325 18.888 101.501 17.544 103.085 17.544C103.805 17.544 104.369 17.88 104.705 18.312L104.765 17.808C104.777 17.664 104.837 17.664 105.197 17.664H105.221C105.677 17.664 105.689 17.712 105.689 17.808C105.689 18.096 105.665 18.864 105.665 19.632V21.312C105.665 22.416 105.713 23.196 105.749 23.856C105.749 23.952 105.689 24 105.317 24H105.269C104.897 24 104.825 23.964 104.813 23.856L104.741 23.304C104.357 23.772 103.673 24.12 102.893 24.12ZM103.085 23.16C103.481 23.16 103.961 23.04 104.285 22.692C104.537 22.416 104.585 22.08 104.585 21.036V19.332C104.309 18.9 103.769 18.516 103.205 18.516C102.101 18.516 101.453 19.44 101.453 20.88C101.453 22.008 101.849 23.16 103.085 23.16Z" fill="white"/>
<path d="M12.732 44C12.264 44 12.216 43.976 12.264 43.844L15.468 35.528C15.516 35.384 15.576 35.36 16.08 35.36H16.14C16.656 35.36 16.716 35.372 16.788 35.528L20.04 43.844C20.088 43.964 19.992 44 19.536 44H19.416C18.936 44 18.852 43.976 18.792 43.856L18.012 41.72H14.22L13.428 43.856C13.38 43.976 13.296 44 12.84 44H12.732ZM14.532 40.82H17.688L17.316 39.8C16.86 38.576 16.452 37.436 16.128 36.44C15.78 37.412 15.348 38.6 14.916 39.764L14.532 40.82ZM23.0348 44.12C22.4948 44.12 22.0988 43.976 21.8348 43.724C21.4868 43.4 21.3788 42.944 21.3788 42.14V38.516H20.3348C20.2628 38.516 20.2388 38.456 20.2388 38.24V38.168C20.2388 37.976 20.2628 37.904 20.3468 37.88C21.3908 37.58 21.5828 37.1 21.7028 35.984C21.7148 35.912 21.7748 35.888 22.0388 35.888H22.1228C22.3988 35.888 22.4588 35.924 22.4588 35.996V37.664H23.9708C24.0548 37.664 24.0788 37.724 24.0788 38.036V38.132C24.0788 38.456 24.0548 38.516 23.9708 38.516H22.4588V42.056C22.4588 42.512 22.4948 42.812 22.6508 42.98C22.7828 43.124 22.9868 43.196 23.2628 43.196C23.5388 43.196 23.8388 43.112 24.0788 43.04C24.1988 43.004 24.2348 43.052 24.2948 43.28L24.3308 43.436C24.3908 43.688 24.3908 43.76 24.2948 43.82C23.9948 44.012 23.4788 44.12 23.0348 44.12ZM27.6819 36.908C27.2979 36.908 27.2739 36.836 27.3219 36.764L28.1979 35.228C28.2459 35.144 28.3899 35.096 28.7259 35.096H28.8699C29.3139 35.096 29.3979 35.18 29.3379 35.264L28.2099 36.8C28.1739 36.86 28.0659 36.908 27.7779 36.908H27.6819ZM28.0659 44.12C26.1219 44.12 25.1259 42.908 25.1259 40.976C25.1259 38.96 26.2299 37.544 28.0059 37.544C29.0739 37.544 29.8059 38.072 30.2019 38.864C30.4779 39.416 30.5979 40.076 30.5979 40.784C30.5979 41.144 30.5739 41.216 30.4779 41.216H26.2539C26.2899 41.876 26.4819 42.392 26.8539 42.704C27.1779 42.992 27.6459 43.136 28.2699 43.136C28.7739 43.136 29.2779 43.016 29.8539 42.752C29.9619 42.704 30.0339 42.68 30.1539 42.98L30.2139 43.124C30.3459 43.436 30.3339 43.508 30.2379 43.568C29.6259 43.928 28.8699 44.12 28.0659 44.12ZM26.2899 40.328H29.4939C29.4819 39.428 29.0259 38.528 28.0179 38.528C27.1419 38.528 26.4579 39.092 26.2899 40.328Z" fill="white"/>
<path d="M13.944 68C13.752 68 13.68 67.904 13.68 67.016V66.8C13.68 65.912 13.752 65.792 13.944 65.792H16.968V53.744L13.776 55.328C13.488 55.472 13.344 55.4 12.96 54.56L12.84 54.296C12.48 53.528 12.528 53.408 12.792 53.264L17.016 51.128C17.688 50.792 17.952 50.72 18.552 50.72H19.032C19.68 50.72 19.8 50.792 19.8 51.032V65.792H22.536C22.728 65.792 22.8 65.912 22.8 66.8V67.016C22.8 67.904 22.728 68 22.536 68H13.944ZM26.1323 68C25.2923 68 25.1003 67.928 25.2203 67.664L31.5083 53.096H23.9003C23.7083 53.096 23.6363 52.976 23.6363 52.088V51.728C23.6363 50.84 23.7083 50.72 23.9003 50.72H33.5243C34.2683 50.72 34.3883 50.816 34.3883 51.128V52.04C34.3883 52.544 34.3403 52.784 34.0283 53.504L28.1723 67.664C28.0523 67.952 27.8603 68 26.7803 68H26.1323ZM41.3166 68.24C37.6446 68.24 35.4606 65.432 35.4606 59.696C35.4606 53.696 37.7406 50.48 41.7006 50.48C45.3486 50.48 47.5326 53.24 47.5326 59.024C47.5326 64.976 45.2526 68.24 41.3166 68.24ZM41.3886 65.888C43.5966 65.888 44.6286 63.488 44.6286 59.168C44.6286 54.872 43.6206 52.832 41.5806 52.832C39.4206 52.832 38.3646 55.208 38.3646 59.528C38.3646 63.824 39.3726 65.888 41.3886 65.888ZM57.7076 68.24C52.1636 68.24 49.4996 64.808 49.4996 59.408C49.4996 53.984 52.5956 50.48 57.9476 50.48C60.0116 50.48 61.7636 50.96 63.2756 51.968C63.5396 52.136 63.5396 52.28 63.1316 53L62.8436 53.504C62.4836 54.128 62.3636 54.176 62.0516 54.008C60.8276 53.288 59.5076 52.952 58.1156 52.952C54.5156 52.952 52.5236 55.208 52.5236 59.36C52.5236 63.584 54.4196 65.792 58.0196 65.792C58.9556 65.792 60.0836 65.624 60.8756 65.384V60.872H57.4916C57.2036 60.872 57.1076 60.8 57.1076 59.768V59.6C57.1076 58.568 57.1796 58.52 57.4916 58.52H62.9156C63.6596 58.52 63.7796 58.592 63.7796 58.88V66.656C63.7796 66.92 63.7076 67.04 63.4436 67.16C62.1476 67.784 59.7476 68.24 57.7076 68.24ZM68.1506 68C67.3826 68 67.2626 67.952 67.2146 67.76V50.96C67.2146 50.744 67.3826 50.72 68.1266 50.72H72.2786C76.2626 50.72 78.6386 51.992 78.6386 55.04C78.6386 56.936 77.5586 58.16 76.0466 58.808C78.2066 59.36 79.6226 60.728 79.6226 62.936C79.6226 66.656 76.7666 68 72.6386 68H68.1506ZM70.1666 58.016H72.2066C74.3906 58.016 75.7106 57.248 75.7106 55.448C75.7106 53.6 74.4626 53.024 72.3026 53.024H70.1666V58.016ZM70.1666 65.696H72.6386C75.2066 65.696 76.6226 64.976 76.6226 62.936C76.6226 60.848 75.1826 60.224 72.6866 60.224H70.1666V65.696Z" fill="#EB0028"/>
<path d="M26.016 93.14C26.184 93.404 25.944 93.5 25.272 93.5H24.624C23.784 93.5 23.616 93.476 23.448 93.212L20.448 88.292C19.392 86.564 19.032 86.444 17.328 86.444H16.2V93.236C16.2 93.476 16.032 93.5 15.144 93.5H14.904C14.016 93.5 13.896 93.452 13.896 93.236V76.22H18.288C22.8 76.22 25.344 77.54 25.344 81.044C25.344 83.708 23.832 85.316 21.288 86.084C21.72 86.42 22.104 86.948 22.704 87.884L26.016 93.14ZM18.624 84.62C21.336 84.62 22.968 83.588 22.968 81.188C22.968 78.788 21.384 78.068 18.504 78.068H16.2V84.62H18.624ZM39.2691 88.868C39.2691 91.364 37.5171 93.212 34.5891 93.644V95.804C34.5891 95.996 34.3731 96.068 33.8211 96.068H33.3651C32.7651 96.068 32.5731 95.996 32.5731 95.804V93.716C30.7251 93.596 28.9011 92.996 27.9651 92.276C27.7491 92.108 27.7011 91.964 28.0611 91.316L28.2051 91.052C28.4931 90.524 28.6371 90.452 28.8531 90.572C30.1251 91.34 31.6131 91.844 33.1011 91.844C35.5011 91.844 36.9891 90.644 36.9891 88.868C36.9891 87.356 36.0051 86.732 33.0291 85.388C29.8611 83.948 28.5891 82.7 28.5891 80.516C28.5891 78.068 30.5331 76.412 33.1011 76.052V74.084C33.1011 73.892 33.3171 73.82 33.8691 73.82H34.3251C34.9251 73.82 35.1171 73.892 35.1171 74.084V76.028C36.4371 76.148 37.5891 76.532 38.5731 77.18C38.8371 77.348 38.8371 77.444 38.5251 78.068L38.4051 78.308C38.0931 78.932 37.9971 78.956 37.7331 78.812C36.5331 78.188 35.4291 77.852 34.2531 77.852C32.3091 77.852 30.8691 78.884 30.8691 80.396C30.8691 81.812 31.8771 82.484 34.4451 83.684C37.6131 85.172 39.2691 86.324 39.2691 88.868ZM45.3748 93.74C44.0308 93.74 42.5668 93.428 41.3668 92.876C41.2468 92.828 41.1988 92.636 41.4148 92.06L41.5828 91.652C41.7748 91.172 41.9428 91.052 42.0628 91.1C43.0228 91.58 44.3188 91.844 45.3268 91.844C47.3668 91.844 48.9988 90.74 48.9988 88.604C48.9988 86.3 46.9108 85.316 44.6788 85.316H43.7428C43.5988 85.316 43.5508 85.22 43.5508 84.62V84.212C43.5508 83.612 43.5988 83.516 43.7428 83.516H44.6548C46.6948 83.516 48.3988 82.652 48.3988 80.54C48.3988 78.572 46.9588 77.804 45.3508 77.804C44.4388 77.804 43.3108 78.044 42.3988 78.548C42.2788 78.62 42.1348 78.524 41.9188 78.044L41.7508 77.684C41.5348 77.228 41.5828 77.012 41.7028 76.94C42.7828 76.364 44.1268 75.98 45.5188 75.98C48.1588 75.98 50.6548 77.396 50.6548 80.372C50.6548 82.292 49.5748 83.828 48.0868 84.308C49.6228 84.596 51.3028 85.964 51.3028 88.532C51.3028 92.012 48.4228 93.74 45.3748 93.74ZM59.6659 93.74C56.1859 93.74 54.0499 90.98 54.0499 85.22C54.0499 79.22 56.2819 75.98 60.0739 75.98C63.5299 75.98 65.6899 78.644 65.6899 84.476C65.6899 90.404 63.5059 93.74 59.6659 93.74ZM59.7619 91.844C62.1139 91.844 63.4099 89.252 63.4099 84.596C63.4099 80.18 62.2099 77.876 59.9779 77.876C57.6979 77.876 56.3539 80.348 56.3539 85.052C56.3539 89.468 57.5059 91.844 59.7619 91.844ZM75.9883 93.5C75.3163 93.5 74.9563 93.428 74.9563 93.236V89.108H68.5723C67.9483 89.108 67.7323 89.036 67.7323 88.772V87.716C67.7323 87.284 67.8523 86.804 68.0203 86.42L72.8203 76.508C72.9163 76.292 73.3243 76.22 73.9003 76.22H74.2843C74.8843 76.22 75.2923 76.34 75.1963 76.556L70.0843 87.188H74.9563V83.372C74.9563 83.18 75.3163 83.108 75.9403 83.108H76.2043C76.8763 83.108 77.2363 83.18 77.2363 83.372V87.188H79.1803C79.3483 87.188 79.3963 87.452 79.3963 87.98V88.292C79.3963 88.844 79.3483 89.108 79.1803 89.108H77.2363V93.236C77.2363 93.428 76.8763 93.5 76.2523 93.5H75.9883Z" fill="white"/>
<path d="M82.008 84.968C81.912 85.052 81.78 85.064 81.66 84.944L81.528 84.8C81.456 84.728 81.384 84.596 81.504 84.476C81.852 84.14 82.2 83.696 82.2 83.276C82.2 82.784 81.672 82.88 81.672 82.196C81.672 81.776 82.02 81.5 82.428 81.5C82.98 81.5 83.304 81.92 83.304 82.436C83.304 83.384 82.776 84.356 82.008 84.968ZM86.4865 83.12C85.7785 83.12 85.2265 82.964 84.7345 82.712C84.6505 82.664 84.6625 82.448 84.7465 82.256L84.7945 82.148C84.8785 81.956 85.0225 81.8 85.1065 81.848C85.4785 82.052 86.0425 82.172 86.4865 82.172C88.2745 82.172 88.7305 80.336 88.8265 78.764C88.3465 79.172 87.6145 79.436 86.9425 79.436C85.2625 79.436 84.5065 78.392 84.5065 76.928C84.5065 75.38 85.4665 74.24 87.2425 74.24C89.4625 74.24 90.0025 76.004 90.0025 77.984C90.0025 80.528 89.2225 83.12 86.4865 83.12ZM87.0985 78.488C87.8185 78.488 88.4305 78.176 88.8745 77.9V77.756C88.8745 76.604 88.6825 75.176 87.2065 75.176C86.0305 75.176 85.6465 76.064 85.6465 76.82C85.6465 77.66 85.9345 78.488 87.0985 78.488ZM93.1545 83.12C92.4465 83.12 91.8945 82.964 91.4025 82.712C91.3185 82.664 91.3305 82.448 91.4145 82.256L91.4625 82.148C91.5465 81.956 91.6905 81.8 91.7745 81.848C92.1465 82.052 92.7105 82.172 93.1545 82.172C94.9425 82.172 95.3985 80.336 95.4945 78.764C95.0145 79.172 94.2825 79.436 93.6105 79.436C91.9305 79.436 91.1745 78.392 91.1745 76.928C91.1745 75.38 92.1345 74.24 93.9105 74.24C96.1305 74.24 96.6705 76.004 96.6705 77.984C96.6705 80.528 95.8905 83.12 93.1545 83.12ZM93.7665 78.488C94.4865 78.488 95.0985 78.176 95.5425 77.9V77.756C95.5425 76.604 95.3505 75.176 93.8745 75.176C92.6985 75.176 92.3145 76.064 92.3145 76.82C92.3145 77.66 92.6025 78.488 93.7665 78.488Z" fill="white"/>
<path d="M81.516 95.204C81.228 95.204 81.12 95.156 81.144 95.06L83.784 86.264C83.82 86.156 83.928 86.144 84.204 86.144H84.432C84.72 86.144 84.84 86.192 84.816 86.288L82.188 95.084C82.164 95.168 82.032 95.204 81.756 95.204H81.516ZM86.3649 95C85.8849 95 85.8489 94.952 85.8489 94.856V90.764C85.8489 89.948 85.8249 89.108 85.8249 88.808C85.8249 88.712 85.8609 88.664 86.3169 88.664H86.3769C86.8089 88.664 86.8689 88.7 86.8689 88.808L86.8809 89.348H86.8929C87.3129 88.856 88.0089 88.544 88.7529 88.544C89.4129 88.544 89.9769 88.772 90.3729 89.18C90.4809 89.3 90.5769 89.42 90.6489 89.564C91.1289 88.904 91.9569 88.544 92.8089 88.544C93.4689 88.544 94.0329 88.772 94.4289 89.18C94.8609 89.624 95.0409 90.248 95.0409 91.22V94.856C95.0409 94.94 95.0289 95 94.5489 95H94.4769C93.9969 95 93.9609 94.952 93.9609 94.856V91.724C93.9609 90.752 93.9249 90.296 93.6369 89.96C93.4089 89.684 93.0009 89.564 92.5449 89.564C92.1249 89.564 91.6209 89.72 91.3449 89.984C91.2009 90.116 91.0689 90.32 91.0209 90.836C90.9969 91.172 90.9849 91.784 90.9849 92.48V94.856C90.9849 94.94 90.9729 95 90.4929 95H90.4209C89.9409 95 89.9049 94.952 89.9049 94.856V91.724C89.9049 90.752 89.8689 90.296 89.5809 89.96C89.3529 89.684 88.9449 89.564 88.4889 89.564C88.0689 89.564 87.5649 89.72 87.2889 89.984C87.1449 90.116 87.0129 90.32 86.9649 90.836C86.9409 91.172 86.9289 91.784 86.9289 92.48V94.856C86.9289 94.94 86.9169 95 86.4369 95H86.3649ZM100.575 87.872L99.2548 86.72L97.9108 87.86C97.8628 87.908 97.7428 87.86 97.6228 87.728L97.5388 87.632C97.3948 87.476 97.3588 87.38 97.4188 87.308L98.5108 86.144C98.5948 86.048 98.7268 85.988 99.0388 85.988H99.4948C99.8308 85.988 99.9628 86.072 100.035 86.156L101.103 87.284C101.175 87.356 101.127 87.476 100.983 87.632L100.887 87.74C100.779 87.872 100.635 87.932 100.575 87.872ZM99.3628 95.12C97.4188 95.12 96.4228 93.908 96.4228 91.976C96.4228 89.96 97.5268 88.544 99.3028 88.544C100.371 88.544 101.103 89.072 101.499 89.864C101.775 90.416 101.895 91.076 101.895 91.784C101.895 92.144 101.871 92.216 101.775 92.216H97.5508C97.5868 92.876 97.7788 93.392 98.1508 93.704C98.4748 93.992 98.9428 94.136 99.5668 94.136C100.071 94.136 100.575 94.016 101.151 93.752C101.259 93.704 101.331 93.68 101.451 93.98L101.511 94.124C101.643 94.436 101.631 94.508 101.535 94.568C100.923 94.928 100.167 95.12 99.3628 95.12ZM97.5868 91.328H100.791C100.779 90.428 100.323 89.528 99.3148 89.528C98.4388 89.528 97.7548 90.092 97.5868 91.328ZM104.978 95.12C104.21 95.12 103.466 94.844 103.01 94.52C102.89 94.436 102.926 94.364 103.058 94.088L103.118 93.956C103.274 93.62 103.322 93.608 103.478 93.704C103.934 93.968 104.51 94.184 105.038 94.184C105.59 94.184 106.358 93.908 106.358 93.212C106.358 92.564 105.59 92.348 104.978 92.216C104.342 92.072 103.874 91.904 103.55 91.604C103.25 91.328 103.07 90.908 103.07 90.44C103.07 89.264 104.09 88.544 105.29 88.544C106.046 88.544 106.742 88.808 107.186 89.204C107.282 89.288 107.306 89.396 107.138 89.636L107.054 89.756C106.838 90.068 106.778 90.068 106.694 89.996C106.25 89.684 105.83 89.468 105.302 89.468C104.81 89.468 104.102 89.66 104.102 90.32C104.102 90.968 104.774 91.136 105.35 91.28C106.334 91.532 107.378 91.892 107.378 93.14C107.378 94.424 106.298 95.12 104.978 95.12Z" fill="white"/>
<g clip-path="url(#clip0_2811_637)">
<path d="M13.106 117V106.92H19.126C19.266 106.92 19.294 106.976 19.294 107.41V107.494C19.294 107.928 19.266 107.998 19.126 107.998H14.45V111.358H18.426C18.552 111.358 18.594 111.414 18.594 111.848V111.932C18.594 112.366 18.552 112.436 18.426 112.436H14.45V115.922H19.182C19.322 115.922 19.35 115.964 19.35 116.412V116.482C19.35 116.916 19.322 117 19.182 117H13.106ZM22.9257 117.14C22.0297 117.14 21.1617 116.818 20.6297 116.44C20.4897 116.342 20.5317 116.258 20.6857 115.936L20.7557 115.782C20.9377 115.39 20.9937 115.376 21.1757 115.488C21.7077 115.796 22.3797 116.048 22.9957 116.048C23.6397 116.048 24.5357 115.726 24.5357 114.914C24.5357 114.158 23.6397 113.906 22.9257 113.752C22.1837 113.584 21.6377 113.388 21.2597 113.038C20.9097 112.716 20.6997 112.226 20.6997 111.68C20.6997 110.308 21.8897 109.468 23.2897 109.468C24.1717 109.468 24.9837 109.776 25.5017 110.238C25.6137 110.336 25.6417 110.462 25.4457 110.742L25.3477 110.882C25.0957 111.246 25.0257 111.246 24.9277 111.162C24.4097 110.798 23.9197 110.546 23.3037 110.546C22.7297 110.546 21.9037 110.77 21.9037 111.54C21.9037 112.296 22.6877 112.492 23.3597 112.66C24.5077 112.954 25.7257 113.374 25.7257 114.83C25.7257 116.328 24.4657 117.14 22.9257 117.14ZM30.1778 117.14C28.0358 117.14 26.9718 115.502 26.9718 113.416C26.9718 110.854 28.4698 109.468 30.4158 109.468C31.2978 109.468 32.0818 109.776 32.6698 110.196C32.7818 110.28 32.7818 110.378 32.5858 110.84C32.3758 111.316 32.2358 111.274 32.1378 111.204C31.6198 110.854 31.0458 110.616 30.4858 110.616C29.1838 110.616 28.2878 111.596 28.2878 113.332C28.2878 114.676 28.8338 115.992 30.3458 115.992C30.9338 115.992 31.5778 115.824 32.1238 115.558C32.2358 115.502 32.3758 115.544 32.4878 115.838L32.5578 116.02C32.6978 116.356 32.6558 116.454 32.5578 116.51C31.8578 116.902 31.0458 117.14 30.1778 117.14ZM37.0001 117.14C36.1461 117.14 35.4321 116.916 34.9001 116.44C34.2001 115.824 33.7941 114.788 33.7941 113.472C33.7941 110.826 35.1801 109.468 37.2801 109.468C38.1341 109.468 38.8481 109.692 39.3801 110.168C40.0801 110.784 40.4861 111.82 40.4861 113.136C40.4861 115.782 39.1001 117.14 37.0001 117.14ZM37.0561 116.02C38.1761 116.02 39.1701 115.236 39.1701 113.234C39.1701 111.974 38.7501 110.588 37.2241 110.588C36.1041 110.588 35.1101 111.372 35.1101 113.374C35.1101 114.634 35.5301 116.02 37.0561 116.02ZM43.4031 117.014C43.0111 117.014 42.6191 116.916 42.3671 116.538C42.1851 116.272 42.1291 115.81 42.1291 115.068V110.378C42.1291 108.908 42.1151 107.088 42.0451 106.542C42.0311 106.402 42.1711 106.36 42.6471 106.36H42.7311C43.1791 106.36 43.2771 106.402 43.3051 106.542C43.3751 106.934 43.3891 108.614 43.3891 110.686V115.334C43.3891 115.852 43.4591 116.034 43.9211 116.034H44.0611C44.1311 116.034 44.1451 116.09 44.1451 116.412V116.454C44.1451 116.818 44.1451 116.874 44.0611 116.902C43.8651 116.972 43.6131 117.014 43.4031 117.014ZM46.3691 117C45.8091 117 45.7671 116.944 45.7671 116.832V106.528C45.7671 106.43 45.7811 106.36 46.3411 106.36H46.4251C46.9851 106.36 47.0271 106.416 47.0271 106.528V110.364C47.5171 109.818 48.4271 109.468 49.2671 109.468C50.0371 109.468 50.7231 109.734 51.1851 110.21C51.6891 110.728 51.8991 111.456 51.8991 112.59V116.832C51.8991 116.93 51.8851 117 51.3251 117H51.2411C50.6811 117 50.6391 116.944 50.6391 116.832V113.178C50.6391 112.044 50.5971 111.512 50.2611 111.12C49.9951 110.798 49.5471 110.658 48.9311 110.658C48.4131 110.658 47.7831 110.84 47.4471 111.162C47.2791 111.316 47.1251 111.554 47.0691 112.156C47.0411 112.548 47.0271 113.262 47.0271 114.074V116.832C47.0271 116.93 47.0131 117 46.4531 117H46.3691ZM56.5049 117.14C54.4609 117.14 53.5089 115.446 53.5089 113.43C53.5089 111.036 54.8809 109.468 56.7289 109.468C57.5689 109.468 58.2269 109.86 58.6189 110.364L58.6889 109.776C58.7029 109.608 58.7729 109.608 59.1929 109.608H59.2209C59.7529 109.608 59.7669 109.664 59.7669 109.776C59.7669 110.112 59.7389 111.008 59.7389 111.904V113.864C59.7389 115.152 59.7949 116.062 59.8369 116.832C59.8369 116.944 59.7669 117 59.3329 117H59.2769C58.8429 117 58.7589 116.958 58.7449 116.832L58.6609 116.188C58.2129 116.734 57.4149 117.14 56.5049 117.14ZM56.7289 116.02C57.1909 116.02 57.7509 115.88 58.1289 115.474C58.4229 115.152 58.4789 114.76 58.4789 113.542V111.554C58.1569 111.05 57.5269 110.602 56.8689 110.602C55.5809 110.602 54.8249 111.68 54.8249 113.36C54.8249 114.676 55.2869 116.02 56.7289 116.02ZM68.3823 117.14C66.1143 117.14 64.9523 115.726 64.9523 113.472C64.9523 111.12 66.2403 109.468 68.3123 109.468C69.5583 109.468 70.4123 110.084 70.8743 111.008C71.1963 111.652 71.3363 112.422 71.3363 113.248C71.3363 113.668 71.3083 113.752 71.1963 113.752H66.2683C66.3103 114.522 66.5343 115.124 66.9683 115.488C67.3463 115.824 67.8923 115.992 68.6203 115.992C69.2083 115.992 69.7963 115.852 70.4683 115.544C70.5943 115.488 70.6783 115.46 70.8183 115.81L70.8883 115.978C71.0423 116.342 71.0283 116.426 70.9163 116.496C70.2023 116.916 69.3203 117.14 68.3823 117.14ZM66.3103 112.716H70.0483C70.0343 111.666 69.5023 110.616 68.3263 110.616C67.3043 110.616 66.5063 111.274 66.3103 112.716ZM73.6315 117C73.0715 117 73.0295 116.944 73.0295 116.832V112.058C73.0295 111.106 73.0015 110.126 73.0015 109.776C73.0015 109.664 73.0435 109.608 73.5755 109.608H73.6455C74.1495 109.608 74.2195 109.65 74.2195 109.776L74.2335 110.406H74.2475C74.7375 109.832 75.6615 109.468 76.5295 109.468C77.2995 109.468 77.9855 109.734 78.4475 110.21C78.9515 110.728 79.1615 111.456 79.1615 112.59V116.832C79.1615 116.93 79.1475 117 78.5875 117H78.5035C77.9435 117 77.9015 116.944 77.9015 116.832V113.178C77.9015 112.044 77.8595 111.512 77.5235 111.12C77.2575 110.798 76.8095 110.658 76.1935 110.658C75.6755 110.658 75.0455 110.84 74.7095 111.162C74.5415 111.316 74.3875 111.554 74.3315 112.156C74.3035 112.548 74.2895 113.262 74.2895 114.074V116.832C74.2895 116.93 74.2755 117 73.7155 117H73.6315ZM83.3759 117.14C82.7459 117.14 82.2839 116.972 81.9759 116.678C81.5699 116.3 81.4439 115.768 81.4439 114.83V110.602H80.2259C80.1419 110.602 80.1139 110.532 80.1139 110.28V110.196C80.1139 109.972 80.1419 109.888 80.2399 109.86C81.4579 109.51 81.6819 108.95 81.8219 107.648C81.8359 107.564 81.9059 107.536 82.2139 107.536H82.3119C82.6339 107.536 82.7039 107.578 82.7039 107.662V109.608H84.4679C84.5659 109.608 84.5939 109.678 84.5939 110.042V110.154C84.5939 110.532 84.5659 110.602 84.4679 110.602H82.7039V114.732C82.7039 115.264 82.7459 115.614 82.9279 115.81C83.0819 115.978 83.3199 116.062 83.6419 116.062C83.9639 116.062 84.3139 115.964 84.5939 115.88C84.7339 115.838 84.7759 115.894 84.8459 116.16L84.8879 116.342C84.9579 116.636 84.9579 116.72 84.8459 116.79C84.4959 117.014 83.8939 117.14 83.3759 117.14ZM86.9202 117C86.3602 117 86.3182 116.944 86.3182 116.832V112.058C86.3182 111.106 86.2902 110.126 86.2902 109.776C86.2902 109.664 86.3322 109.608 86.8642 109.608H86.9342C87.4382 109.608 87.5082 109.65 87.5082 109.776L87.5362 111.218C88.0682 110.042 88.8382 109.524 89.5802 109.524C89.7062 109.524 89.8042 109.538 89.8742 109.552C90.0002 109.58 90.0142 109.622 90.0142 109.944V110.154C90.0142 110.56 90.0002 110.672 89.8602 110.672C88.8662 110.672 88.3622 111.288 87.9562 111.946C87.7602 112.268 87.6482 112.66 87.6202 113.15C87.5922 113.542 87.5782 114.41 87.5782 115.222V116.832C87.5782 116.93 87.5642 117 87.0042 117H86.9202ZM94.1127 117.14C91.8447 117.14 90.6827 115.726 90.6827 113.472C90.6827 111.12 91.9707 109.468 94.0427 109.468C95.2887 109.468 96.1427 110.084 96.6047 111.008C96.9267 111.652 97.0667 112.422 97.0667 113.248C97.0667 113.668 97.0387 113.752 96.9267 113.752H91.9987C92.0407 114.522 92.2647 115.124 92.6987 115.488C93.0767 115.824 93.6227 115.992 94.3507 115.992C94.9387 115.992 95.5267 115.852 96.1987 115.544C96.3247 115.488 96.4087 115.46 96.5487 115.81L96.6187 115.978C96.7727 116.342 96.7587 116.426 96.6467 116.496C95.9327 116.916 95.0507 117.14 94.1127 117.14ZM92.0407 112.716H95.7787C95.7647 111.666 95.2327 110.616 94.0567 110.616C93.0347 110.616 92.2367 111.274 92.0407 112.716ZM99.404 111.918C98.886 111.918 98.466 111.498 98.466 110.98C98.466 110.462 98.886 110.042 99.404 110.042C99.922 110.042 100.342 110.462 100.342 110.98C100.342 111.498 99.922 111.918 99.404 111.918ZM99.404 117.14C98.886 117.14 98.466 116.72 98.466 116.202C98.466 115.684 98.886 115.264 99.404 115.264C99.922 115.264 100.342 115.684 100.342 116.202C100.342 116.72 99.922 117.14 99.404 117.14Z" fill="white"/>
<circle cx="24" cy="137" r="12" fill="#1A98FF"/>
<g clip-path="url(#clip1_2811_637)">
<path d="M17.683 135.414C17.8101 135.107 18.0217 134.922 18.3603 134.905C18.733 134.887 18.9625 135.081 19.1012 135.418C19.1408 135.322 19.1861 135.238 19.2503 135.166C19.4282 134.966 19.6546 134.89 19.915 134.908C20.114 134.922 20.2863 135 20.4242 135.148C20.5442 135.277 20.5891 135.436 20.6049 135.606C20.6165 135.73 20.6123 135.854 20.612 135.978C20.6113 136.248 20.612 136.519 20.612 136.79C20.6113 137.135 20.6095 137.48 20.6084 137.825C20.6084 137.902 20.5709 137.94 20.4951 137.94C20.3238 137.94 20.1526 137.94 19.9817 137.94C19.908 137.94 19.8694 137.902 19.8694 137.828C19.8694 137.3 19.8683 136.771 19.8697 136.243C19.8697 136.12 19.8753 135.997 19.8571 135.876C19.8213 135.637 19.5956 135.528 19.3826 135.644C19.2594 135.71 19.2033 135.821 19.1833 135.954C19.1713 136.034 19.1654 136.114 19.1654 136.194C19.1654 136.733 19.1654 137.271 19.1654 137.81C19.1654 137.904 19.1292 137.94 19.0362 137.94C18.8706 137.94 18.705 137.94 18.5397 137.94C18.4618 137.94 18.4235 137.902 18.4235 137.823C18.4235 137.259 18.4246 136.695 18.4246 136.131C18.4246 136.031 18.4189 135.931 18.3916 135.834C18.3487 135.683 18.2589 135.607 18.1161 135.598C17.9582 135.588 17.8434 135.656 17.7834 135.797C17.7279 135.926 17.7199 136.065 17.7195 136.203C17.7178 136.738 17.7188 137.274 17.7188 137.81C17.7188 137.906 17.6851 137.94 17.5907 137.94C17.4251 137.94 17.2594 137.94 17.0941 137.94C17.0159 137.94 16.9769 137.902 16.9769 137.824C16.9769 136.909 16.9769 135.994 16.9769 135.079C16.9769 135.002 17.0162 134.963 17.0938 134.963C17.2524 134.963 17.411 134.963 17.5693 134.963C17.6437 134.963 17.6837 135.004 17.6837 135.078C17.6837 135.19 17.6837 135.302 17.6837 135.414L17.683 135.414Z" fill="white"/>
<path d="M23.4294 136.377C23.4294 136.593 23.4308 136.763 23.429 136.934C23.4276 137.075 23.4687 137.202 23.5501 137.317C23.5778 137.356 23.6077 137.394 23.634 137.434C23.6764 137.498 23.6687 137.542 23.6105 137.591C23.4827 137.701 23.3553 137.811 23.2279 137.922C23.1686 137.973 23.116 137.973 23.0556 137.922C22.9528 137.835 22.8693 137.731 22.797 137.618C22.7801 137.592 22.771 137.591 22.7493 137.613C22.6205 137.742 22.4829 137.861 22.306 137.918C22.0783 137.993 21.8463 138.006 21.6147 137.94C21.3757 137.872 21.2104 137.717 21.1332 137.479C21.0402 137.193 21.0532 136.91 21.2009 136.642C21.3339 136.402 21.5498 136.267 21.8056 136.19C22.0176 136.127 22.2362 136.103 22.4548 136.08C22.5162 136.074 22.5773 136.067 22.6391 136.062C22.6601 136.06 22.6685 136.051 22.6689 136.03C22.6707 135.92 22.6721 135.811 22.6475 135.703C22.6261 135.608 22.5699 135.542 22.485 135.499C22.3281 135.419 22.1014 135.453 21.9754 135.576C21.9228 135.627 21.8874 135.688 21.873 135.761C21.8681 135.786 21.8614 135.811 21.8466 135.832C21.8238 135.865 21.7961 135.884 21.7515 135.879C21.5873 135.86 21.4227 135.843 21.2585 135.826C21.1918 135.818 21.1556 135.768 21.1697 135.699C21.2332 135.384 21.4076 135.154 21.6978 135.017C21.9554 134.895 22.2292 134.863 22.5103 134.885C22.685 134.899 22.8528 134.94 23.0097 135.021C23.2567 135.15 23.3873 135.357 23.4153 135.632C23.442 135.895 23.4231 136.159 23.429 136.377L23.4294 136.377ZM22.6678 136.703C22.6678 136.631 22.6664 136.579 22.6685 136.527C22.6692 136.502 22.6626 136.493 22.6359 136.494C22.5026 136.497 22.3699 136.507 22.2415 136.546C22.0716 136.599 21.9396 136.694 21.8888 136.875C21.8631 136.966 21.8593 137.059 21.8779 137.151C21.9288 137.407 22.1779 137.512 22.3976 137.37C22.4931 137.309 22.5552 137.22 22.6005 137.118C22.6619 136.979 22.6692 136.832 22.6678 136.703Z" fill="white"/>
<path d="M16.3525 136.311C16.3525 136.539 16.3542 136.725 16.3521 136.912C16.3504 137.071 16.3956 137.214 16.4918 137.34C16.5164 137.373 16.5416 137.405 16.5634 137.44C16.6006 137.499 16.5925 137.542 16.5395 137.588C16.4121 137.698 16.2847 137.808 16.157 137.919C16.0928 137.975 16.0433 137.976 15.978 137.92C15.878 137.834 15.7952 137.734 15.7247 137.622C15.7071 137.595 15.6973 137.589 15.6713 137.615C15.5888 137.7 15.4993 137.777 15.3983 137.839C15.2 137.962 14.9807 137.986 14.755 137.977C14.6518 137.974 14.5518 137.953 14.4567 137.912C14.2658 137.831 14.1321 137.692 14.0633 137.496C13.9756 137.245 13.977 136.992 14.0759 136.744C14.1833 136.476 14.3897 136.312 14.655 136.216C14.8396 136.149 15.0319 136.12 15.2256 136.098C15.3369 136.084 15.4485 136.074 15.5601 136.062C15.5787 136.06 15.5948 136.059 15.5952 136.032C15.5969 135.927 15.5962 135.824 15.5769 135.72C15.5562 135.61 15.4927 135.535 15.3923 135.491C15.2214 135.414 14.9901 135.466 14.8726 135.606C14.8319 135.655 14.8076 135.71 14.7947 135.772C14.7768 135.857 14.741 135.885 14.6567 135.876C14.4978 135.86 14.3391 135.843 14.1802 135.825C14.1191 135.818 14.083 135.77 14.0945 135.708C14.1563 135.378 14.3388 135.138 14.6466 135.007C15.0407 134.84 15.445 134.827 15.8464 134.981C16.1574 135.1 16.3198 135.336 16.3448 135.669C16.3616 135.897 16.3469 136.125 16.3525 136.311V136.311ZM15.5938 136.673C15.5938 136.625 15.5923 136.577 15.5945 136.529C15.5959 136.501 15.5867 136.493 15.559 136.494C15.4481 136.497 15.3379 136.505 15.2295 136.529C15.1189 136.555 15.014 136.595 14.9315 136.676C14.8003 136.805 14.7747 136.968 14.8031 137.141C14.8463 137.405 15.1003 137.515 15.3249 137.368C15.4435 137.291 15.5109 137.176 15.5534 137.044C15.592 136.923 15.5952 136.798 15.5941 136.672L15.5938 136.673Z" fill="white"/>
<path d="M29.9309 135.468C29.9558 135.415 29.9758 135.37 29.9986 135.325C30.0775 135.172 30.1804 135.04 30.3425 134.969C30.5987 134.855 31.0075 134.879 31.2311 135.138C31.3381 135.262 31.3876 135.409 31.4132 135.566C31.4385 135.721 31.4413 135.878 31.4416 136.034C31.4423 136.627 31.442 137.221 31.4416 137.814C31.4416 137.906 31.4073 137.94 31.3139 137.94C31.1483 137.94 30.983 137.94 30.8173 137.94C30.7363 137.94 30.6987 137.902 30.6987 137.822C30.6987 137.258 30.6987 136.694 30.6987 136.13C30.6987 136.027 30.6864 135.926 30.6598 135.825C30.5804 135.528 30.2758 135.547 30.1347 135.695C30.0491 135.785 30.0147 135.896 29.9909 136.013C29.9691 136.119 29.9649 136.228 29.9649 136.336C29.9649 136.83 29.9649 137.323 29.9649 137.816C29.9649 137.904 29.9298 137.94 29.8431 137.94C29.6747 137.94 29.5066 137.94 29.3381 137.94C29.2627 137.94 29.2241 137.901 29.2241 137.826C29.2241 136.91 29.2241 135.994 29.2241 135.078C29.2241 135.003 29.2627 134.963 29.3374 134.963C29.4946 134.963 29.6515 134.963 29.8087 134.963C29.8894 134.963 29.9238 134.998 29.9238 135.078C29.9238 135.201 29.9238 135.326 29.9242 135.45C29.9242 135.452 29.9256 135.454 29.9298 135.468L29.9309 135.468Z" fill="white"/>
<path d="M28.822 136.552C28.8213 136.799 28.7595 137.114 28.5925 137.401C28.418 137.7 28.1696 137.905 27.825 137.975C27.2979 138.083 26.8174 137.848 26.5732 137.367C26.4528 137.129 26.3952 136.877 26.3777 136.612C26.358 136.317 26.3847 136.028 26.4812 135.747C26.5746 135.475 26.7244 135.243 26.9676 135.082C27.187 134.937 27.4312 134.887 27.6895 134.91C28.211 134.956 28.5258 135.263 28.7023 135.737C28.7904 135.973 28.822 136.219 28.8223 136.552H28.822ZM28.0236 136.472C28.0232 136.328 28.0208 136.185 28.0032 136.042C27.9881 135.919 27.9664 135.797 27.9197 135.681C27.8151 135.421 27.4502 135.419 27.3193 135.61C27.2491 135.713 27.2122 135.827 27.1968 135.948C27.1543 136.278 27.1575 136.608 27.2049 136.937C27.2224 137.06 27.2557 137.18 27.3287 137.284C27.4452 137.45 27.6734 137.472 27.8218 137.334C27.8951 137.266 27.9345 137.177 27.9622 137.083C28.0208 136.883 28.0222 136.677 28.0236 136.472Z" fill="white"/>
<path d="M21.1949 140.16C19.9649 140.156 18.9244 139.911 17.9456 139.41C17.4259 139.144 16.9493 138.813 16.5152 138.422C16.4976 138.406 16.479 138.39 16.4681 138.368C16.4523 138.337 16.4499 138.305 16.4727 138.277C16.4948 138.249 16.5253 138.242 16.5597 138.249C16.5804 138.254 16.599 138.264 16.6173 138.274C17.4494 138.757 18.3379 139.089 19.2774 139.287C19.6631 139.369 20.0523 139.425 20.445 139.457C20.7401 139.481 21.0356 139.493 21.3314 139.487C21.6722 139.48 22.0112 139.453 22.3492 139.406C23.0289 139.313 23.6905 139.147 24.333 138.905C24.4457 138.863 24.5569 138.816 24.6685 138.771C24.7201 138.75 24.771 138.744 24.8229 138.769C24.8991 138.807 24.9205 138.892 24.8703 138.961C24.8528 138.985 24.83 139.004 24.8061 139.021C24.3544 139.351 23.8572 139.591 23.3315 139.774C22.8731 139.933 22.4029 140.042 21.9224 140.104C21.6371 140.141 21.3508 140.163 21.1949 140.16V140.16Z" fill="white"/>
<path d="M25.1024 135.557C24.8034 135.557 24.5076 135.557 24.2114 135.557C24.1145 135.557 24.0822 135.525 24.0822 135.428C24.0822 135.31 24.0822 135.191 24.0822 135.073C24.0822 134.994 24.1194 134.956 24.198 134.956C24.7803 134.956 25.3625 134.956 25.9447 134.956C26.0236 134.956 26.0601 134.993 26.0605 135.073C26.0605 135.166 26.0577 135.259 26.0615 135.352C26.064 135.417 26.0471 135.474 26.011 135.526C25.925 135.652 25.839 135.777 25.7524 135.902C25.5144 136.243 25.2761 136.584 25.0382 136.926C25.0305 136.937 25.0189 136.946 25.0182 136.968C25.0771 136.968 25.1354 136.966 25.1937 136.968C25.4797 136.981 25.7541 137.039 26.0089 137.178C26.0791 137.216 26.1138 137.274 26.1149 137.352C26.1163 137.487 26.1163 137.622 26.1149 137.757C26.1138 137.846 26.044 137.889 25.9685 137.85C25.706 137.716 25.4274 137.645 25.1333 137.632C24.7757 137.617 24.4374 137.69 24.1194 137.855C24.058 137.888 23.984 137.848 23.9833 137.776C23.9819 137.606 23.9745 137.435 23.9875 137.265C23.9927 137.195 24.0184 137.131 24.0584 137.073C24.3991 136.582 24.7399 136.091 25.0803 135.6C25.0887 135.587 25.1017 135.578 25.1024 135.556V135.557Z" fill="white"/>
<path d="M30.356 139.814C30.356 139.579 30.356 139.343 30.356 139.108C30.356 139.017 30.3711 139.001 30.4602 139.001C30.5248 139.001 30.5894 139.001 30.654 139.001C30.7196 139.001 30.7399 139.017 30.7585 139.082C30.78 139.155 30.7803 139.156 30.8442 139.116C31.02 139.007 31.207 138.94 31.4173 138.956C31.5538 138.966 31.671 139.014 31.7496 139.133C31.7671 139.16 31.7798 139.147 31.7966 139.136C31.9205 139.057 32.0511 138.994 32.1974 138.969C32.316 138.948 32.4346 138.943 32.5511 138.981C32.7094 139.032 32.815 139.171 32.828 139.343C32.8315 139.39 32.8329 139.436 32.8333 139.483C32.8336 139.831 32.8333 140.179 32.8333 140.527C32.8333 140.544 32.8322 140.561 32.8301 140.578C32.8259 140.613 32.8056 140.631 32.7712 140.631C32.6575 140.632 32.5438 140.632 32.4304 140.631C32.3964 140.631 32.3757 140.612 32.3697 140.579C32.3672 140.563 32.3665 140.548 32.3665 140.532C32.3665 140.205 32.3665 139.878 32.3665 139.551C32.3665 139.536 32.3665 139.52 32.3658 139.505C32.3602 139.374 32.2914 139.309 32.1612 139.313C32.0581 139.316 31.9591 139.34 31.8637 139.38C31.8359 139.391 31.8272 139.406 31.8272 139.436C31.8282 139.802 31.8279 140.169 31.8279 140.535C31.8279 140.621 31.8166 140.631 31.7303 140.631C31.6376 140.631 31.545 140.631 31.4524 140.631C31.3822 140.631 31.3632 140.612 31.3632 140.541C31.3632 140.272 31.3632 140.002 31.3632 139.733C31.3632 139.661 31.3636 139.589 31.3632 139.517C31.3622 139.376 31.286 139.304 31.1456 139.312C31.047 139.318 30.9523 139.341 30.861 139.38C30.8322 139.392 30.8224 139.408 30.8228 139.44C30.8238 139.805 30.8235 140.17 30.8235 140.535C30.8235 140.616 30.8087 140.631 30.7291 140.631C30.6336 140.631 30.5382 140.631 30.4431 140.631C30.3781 140.631 30.3578 140.612 30.3574 140.545C30.3567 140.41 30.3574 140.275 30.3574 140.14C30.3574 140.031 30.3574 139.923 30.3574 139.814L30.356 139.814Z" fill="white"/>
<path d="M26.8033 140.523C26.7925 140.539 26.7974 140.555 26.7974 140.569C26.797 140.777 26.7974 140.984 26.7974 141.191C26.7974 141.276 26.783 141.29 26.7005 141.29C26.6051 141.29 26.5096 141.29 26.4145 141.29C26.352 141.29 26.3306 141.269 26.3306 141.206C26.3306 140.499 26.3306 139.792 26.3306 139.084C26.3306 139.024 26.3524 139.002 26.4117 139.001C26.4861 139 26.5605 139.001 26.6345 139.001C26.6921 139.002 26.7163 139.021 26.7314 139.076C26.7381 139.1 26.7444 139.124 26.7518 139.151C26.8669 139.049 26.9964 138.986 27.1441 138.963C27.4642 138.912 27.7319 139.056 27.8467 139.361C27.9657 139.677 27.9618 139.997 27.8109 140.303C27.5947 140.742 27.123 140.739 26.8409 140.549C26.8286 140.541 26.8163 140.532 26.8033 140.523V140.523ZM26.797 139.81C26.797 139.935 26.7984 140.061 26.796 140.186C26.7953 140.222 26.8083 140.239 26.8381 140.254C26.9188 140.293 27.0041 140.314 27.0932 140.316C27.2732 140.32 27.381 140.237 27.4238 140.061C27.4631 139.898 27.4624 139.734 27.427 139.571C27.3922 139.411 27.3041 139.326 27.1718 139.311C27.0515 139.298 26.9378 139.319 26.8297 139.374C26.8047 139.386 26.796 139.401 26.7963 139.429C26.7977 139.556 26.797 139.683 26.797 139.81V139.81Z" fill="white"/>
<path d="M33.9325 138.955C34.0616 138.953 34.1866 138.973 34.3027 139.034C34.6221 139.2 34.6154 139.613 34.4617 139.777C34.3803 139.863 34.2785 139.91 34.1662 139.935C33.9711 139.979 33.7742 139.98 33.578 139.941C33.5429 139.934 33.5405 139.945 33.5443 139.973C33.5735 140.197 33.7023 140.314 33.929 140.327C34.0862 140.335 34.2392 140.313 34.3901 140.272C34.4024 140.269 34.4147 140.265 34.427 140.264C34.4666 140.258 34.4922 140.274 34.4936 140.314C34.4961 140.382 34.4957 140.452 34.4933 140.521C34.4919 140.56 34.4624 140.578 34.4294 140.591C34.3322 140.629 34.2322 140.655 34.129 140.669C33.9707 140.69 33.8132 140.69 33.6574 140.649C33.3833 140.578 33.2124 140.401 33.1485 140.126C33.0895 139.872 33.0973 139.619 33.2078 139.378C33.3201 139.134 33.518 139.001 33.7816 138.964C33.8318 138.956 33.882 138.954 33.9325 138.954V138.955ZM33.7883 139.676C33.8469 139.675 33.9062 139.681 33.9637 139.666C34.0206 139.651 34.0767 139.635 34.1083 139.578C34.1746 139.457 34.1223 139.328 33.9911 139.291C33.8163 139.241 33.6552 139.319 33.5875 139.487C33.5696 139.531 33.5615 139.579 33.5493 139.625C33.5429 139.65 33.5479 139.653 33.5689 139.657C33.6412 139.673 33.7149 139.675 33.7883 139.676V139.676Z" fill="white"/>
<path d="M24.8156 138.428C24.539 138.43 24.3039 138.458 24.0684 138.485C24.0547 138.486 24.0403 138.488 24.0267 138.486C23.981 138.479 23.9631 138.444 23.9835 138.402C23.9979 138.372 24.0242 138.353 24.0512 138.334C24.2141 138.225 24.3937 138.156 24.5846 138.115C24.8759 138.053 25.1679 138.045 25.4609 138.102C25.5132 138.112 25.5638 138.129 25.6133 138.149C25.6719 138.173 25.6992 138.216 25.7063 138.277C25.7252 138.436 25.6989 138.589 25.6634 138.742C25.5957 139.033 25.4813 139.303 25.2988 139.542C25.2448 139.612 25.1841 139.677 25.1174 139.735C25.0974 139.753 25.076 139.768 25.05 139.777C25.0258 139.785 25.0023 139.787 24.983 139.769C24.9637 139.75 24.9619 139.726 24.9707 139.702C24.9837 139.667 24.997 139.631 25.0107 139.596C25.1061 139.351 25.2009 139.105 25.2542 138.847C25.2679 138.78 25.2781 138.714 25.276 138.645C25.2732 138.542 25.2349 138.493 25.1346 138.463C25.0174 138.428 24.8966 138.43 24.8152 138.428L24.8156 138.428Z" fill="white"/>
<path d="M28.6714 139.24C28.7205 139.188 28.7675 139.144 28.8177 139.104C28.9321 139.013 29.0627 138.976 29.2069 138.986C29.2582 138.99 29.2754 139.004 29.2764 139.057C29.2785 139.152 29.2785 139.248 29.2764 139.344C29.2754 139.397 29.2557 139.415 29.2027 139.413C29.0792 139.407 28.9564 139.406 28.8353 139.438C28.8016 139.447 28.7683 139.458 28.7342 139.467C28.704 139.474 28.6967 139.492 28.6967 139.522C28.6977 139.853 28.6974 140.184 28.6974 140.515C28.6974 140.623 28.6896 140.631 28.584 140.631C28.4942 140.631 28.4043 140.631 28.3145 140.631C28.2531 140.631 28.2317 140.61 28.231 140.547C28.2303 140.451 28.231 140.356 28.231 140.26C28.231 139.875 28.231 139.49 28.231 139.105C28.231 139.016 28.245 139.003 28.3338 139.003C28.4012 139.003 28.4685 139.003 28.5359 139.003C28.5963 139.003 28.6191 139.021 28.6335 139.08C28.6461 139.131 28.6581 139.183 28.6717 139.24H28.6714Z" fill="white"/>
<path d="M29.9655 139.82C29.9655 140.061 29.9655 140.302 29.9655 140.543C29.9655 140.616 29.9497 140.632 29.8764 140.632C29.7795 140.632 29.6827 140.632 29.5862 140.632C29.5209 140.632 29.5016 140.613 29.5016 140.546C29.5016 140.286 29.5016 140.027 29.5016 139.768C29.5016 139.544 29.5016 139.32 29.5016 139.095C29.5016 139.019 29.5167 139.003 29.5921 139.003C29.6904 139.003 29.7887 139.003 29.8866 139.003C29.9487 139.003 29.9659 139.021 29.9659 139.084C29.9659 139.329 29.9659 139.575 29.9659 139.82L29.9655 139.82Z" fill="white"/>
<path d="M29.4675 138.502C29.4675 138.347 29.5665 138.253 29.7321 138.252C29.8988 138.252 30.001 138.347 30.0003 138.504C29.9999 138.656 29.8967 138.752 29.7325 138.752C29.5686 138.752 29.4675 138.656 29.4675 138.502V138.502Z" fill="white"/>
</g>
<rect x="40" y="125" width="24" height="24" rx="12" fill="white"/>
<path d="M46.2964 143.699H47.0057C47.1583 143.699 47.2937 143.728 47.4119 143.788C47.532 143.847 47.6255 143.93 47.6922 144.036C47.7589 144.141 47.7923 144.261 47.7923 144.397C47.7923 144.532 47.7589 144.652 47.6922 144.757C47.6255 144.862 47.532 144.944 47.4119 145.003C47.2937 145.062 47.1583 145.092 47.0057 145.092H46.7369V145.901H46.2964V143.699ZM46.9886 144.757C47.1049 144.757 47.1945 144.727 47.2575 144.666C47.3204 144.605 47.3518 144.518 47.3518 144.405C47.3518 144.293 47.3204 144.206 47.2575 144.145C47.1945 144.084 47.1049 144.054 46.9886 144.054H46.7369V144.757H46.9886Z" fill="black"/>
<path d="M47.9818 143.699H48.6883C48.837 143.699 48.9705 143.726 49.0887 143.779C49.2069 143.832 49.2994 143.907 49.3661 144.002C49.4348 144.095 49.4691 144.201 49.4691 144.32C49.4691 144.468 49.4176 144.594 49.3147 144.697C49.2117 144.8 49.0734 144.866 48.8999 144.894C49.1326 145.211 49.3337 145.547 49.5034 145.901H48.9972C48.8313 145.531 48.6396 145.213 48.4222 144.946V145.901H47.9818V143.699ZM48.674 144.703C48.7865 144.703 48.8742 144.674 48.9371 144.617C49 144.56 49.0315 144.479 49.0315 144.374C49.0315 144.271 49 144.191 48.9371 144.134C48.8742 144.076 48.7865 144.048 48.674 144.048H48.4222V144.703H48.674Z" fill="black"/>
<path d="M50.8971 143.699V144.065H50.122V144.614H50.8428V144.969H50.122V145.535H50.8971V145.901H49.6815V143.699H50.8971Z" fill="black"/>
<path d="M51.6794 143.699C51.8491 144.229 51.9883 144.719 52.097 145.169C52.2095 144.71 52.3497 144.219 52.5175 143.699H53.0724V145.901H52.6691V144.311C52.5051 144.833 52.3592 145.364 52.2315 145.901H51.9626C51.8444 145.394 51.7004 144.87 51.5307 144.328V145.901H51.1245V143.699H51.6794Z" fill="black"/>
<path d="M53.7703 143.699V145.901H53.3298V143.699H53.7703Z" fill="black"/>
<path d="M54.4585 143.699V145.158C54.4585 145.282 54.4852 145.381 54.5386 145.455C54.5939 145.528 54.6663 145.564 54.756 145.564C54.8456 145.564 54.9171 145.528 54.9705 145.455C55.0239 145.381 55.0506 145.282 55.0506 145.158V143.699H55.4911V145.115C55.4911 145.273 55.4596 145.414 55.3967 145.538C55.3357 145.662 55.2489 145.759 55.1364 145.83C55.0258 145.898 54.899 145.933 54.756 145.933C54.611 145.933 54.4823 145.898 54.3698 145.83C54.2592 145.759 54.1725 145.662 54.1095 145.538C54.0485 145.414 54.018 145.273 54.018 145.115V143.699H54.4585Z" fill="black"/>
<path d="M56.2923 143.699C56.462 144.229 56.6012 144.719 56.7099 145.169C56.8224 144.71 56.9626 144.219 57.1304 143.699H57.6853V145.901H57.282V144.311C57.118 144.833 56.9721 145.364 56.8444 145.901H56.5755C56.4573 145.394 56.3133 144.87 56.1436 144.328V145.901H55.7374V143.699H56.2923Z" fill="black"/>
<path d="M56.4405 128.77C56.2627 128.77 56.1025 129.169 55.9931 129.803C55.816 128.71 55.5279 128 55.2037 128C54.8178 128 54.4837 129.004 54.3258 130.463C54.1704 129.401 53.9357 128.725 53.6734 128.725C53.305 128.725 52.9918 130.055 52.8757 131.912C52.6577 130.96 52.3419 130.363 51.9919 130.363C51.6419 130.363 51.3261 130.96 51.1081 131.912C50.992 130.055 50.6788 128.725 50.3104 128.725C50.0472 128.725 49.8125 129.401 49.658 130.463C49.4993 129.004 49.1651 128 48.7792 128C48.4543 128 48.1669 128.71 47.9898 129.803C47.8795 129.169 47.72 128.77 47.5421 128.77C47.2104 128.77 46.9415 130.153 46.9415 131.859C46.9415 133.565 47.2104 134.948 47.5421 134.948C47.6782 134.948 47.8044 134.714 47.9046 134.32C48.0642 135.76 48.3958 136.75 48.7792 136.75C49.0766 136.75 49.3422 136.156 49.521 135.218C49.6438 137.002 49.9503 138.267 50.3095 138.267C50.5359 138.267 50.7414 137.766 50.8926 136.949C51.0747 138.635 51.4982 139.816 51.9911 139.816C52.4839 139.816 52.9066 138.635 53.0895 136.949C53.2416 137.766 53.447 138.267 53.6726 138.267C54.0318 138.267 54.3392 137.002 54.4611 135.218C54.6399 136.156 54.9064 136.75 55.2029 136.75C55.5863 136.75 55.918 135.76 56.0775 134.32C56.1786 134.713 56.3039 134.948 56.44 134.948C56.7717 134.948 57.0406 133.565 57.0406 131.859C57.0406 130.153 56.7719 128.771 56.4405 128.77Z" fill="#A238FF"/>
<path d="M46.4236 132.937C46.6119 132.937 46.7645 132.318 46.7645 131.555C46.7645 130.793 46.6119 130.174 46.4236 130.174C46.2354 130.174 46.0828 130.793 46.0828 131.555C46.0828 132.318 46.2354 132.937 46.4236 132.937Z" fill="#A238FF"/>
<path d="M57.8989 131.555C57.8989 132.318 57.7463 132.937 57.5581 132.937C57.3698 132.937 57.2172 132.318 57.2172 131.555C57.2172 130.793 57.3698 130.174 57.5581 130.174C57.7463 130.174 57.8989 130.793 57.8989 131.555Z" fill="#A238FF"/>
<path fill-rule="evenodd" clip-rule="evenodd" d="M45.4995 141.01H46.6194C47.3127 141.01 47.803 141.471 47.803 142.127C47.803 142.783 47.3127 143.244 46.6194 143.244H45.4995V141.01ZM46.3699 142.64H46.5729C46.7905 142.64 46.9066 142.495 46.9066 142.127C46.9066 141.758 46.7905 141.613 46.5729 141.613H46.3699V142.64Z" fill="black"/>
<path d="M49.7758 143.244H47.9365V141.01H49.7758V141.613H48.8039V141.872H49.7178V142.365H48.8039V142.64H49.7758V143.244Z" fill="black"/>
<path d="M51.8239 143.244H49.9846V141.01H51.8239V141.613H50.8521V141.872H51.7659V142.365H50.8521V142.64H51.8239V143.244Z" fill="black"/>
<path fill-rule="evenodd" clip-rule="evenodd" d="M58.4998 143.244C58.3745 142.902 58.1991 142.538 57.9633 142.129C58.2391 142.048 58.4041 141.874 58.4041 141.608C58.4041 141.201 58.0298 141.01 57.438 141.01H56.2195V143.244H57.0898V142.32C57.2832 142.645 57.4257 142.953 57.5192 143.244H58.4998ZM57.0898 142.008V141.613H57.3915C57.5192 141.613 57.5917 141.683 57.5917 141.811C57.5917 141.938 57.5192 142.008 57.3915 142.008H57.0898Z" fill="black"/>
<path d="M56.0102 143.244H54.1708V141.01H56.0102V141.613H55.0383V141.872H55.9521V142.365H55.0383V142.64H56.0102V143.244Z" fill="black"/>
<path d="M52.0331 141.613H52.9311C52.5585 141.918 52.2519 142.264 52.0157 142.64V143.244H53.9914V142.64H53.0039C53.2302 142.311 53.5464 141.983 53.9914 141.613V141.01H52.0331V141.613Z" fill="black"/>
<g clip-path="url(#clip2_2811_637)">
<path d="M80 148.625C86.4203 148.625 91.625 143.42 91.625 137C91.625 130.58 86.4203 125.375 80 125.375C73.5797 125.375 68.375 130.58 68.375 137C68.375 143.42 73.5797 148.625 80 148.625Z" fill="url(#paint0_linear_2811_637)"/>
<path d="M74.8372 134.059C74.7958 134.103 74.738 134.124 74.6966 134.095C74.6639 134.074 74.6501 134.023 74.6928 133.975C75.116 133.495 75.5982 133.075 76.0842 132.747C79.0514 130.723 83.3096 130.998 85.9378 133.474C86.8143 134.298 87.4183 135.311 87.7297 136.234C87.7486 136.291 87.7071 136.35 87.6469 136.35H87.3593C87.3066 136.35 87.2588 136.316 87.2413 136.264C87.0039 135.568 86.5506 134.683 85.7281 133.858C83.2242 131.335 78.9434 131.045 76.0289 133.037C75.5844 133.341 75.1939 133.675 74.8372 134.059Z" fill="white"/>
<path fill-rule="evenodd" clip-rule="evenodd" d="M73.6871 135.308C73.132 135.151 72.2442 134.943 71.2736 135.202C71.0927 135.249 70.9709 135.33 70.8843 135.48C70.8416 135.556 70.8014 135.637 70.824 135.72C70.8429 135.791 70.9433 135.816 71.0249 135.828C71.1028 135.841 71.2798 135.85 71.3276 135.793C71.3527 135.763 71.3527 135.68 71.2233 135.652C71.2079 135.649 71.1836 135.646 71.1577 135.643C71.1036 135.637 71.0418 135.63 71.035 135.616C71.035 135.616 71.04 135.601 71.1103 135.578C71.1121 135.578 71.1145 135.577 71.1176 135.576C71.1694 135.558 71.41 135.474 72.0056 135.494C72.7578 135.518 73.4146 135.695 74.1102 135.968C74.7896 136.235 75.5543 136.72 76.0026 137.296C76.1721 137.515 76.3831 137.873 76.4107 138.174C76.4773 138.907 75.7615 139.525 74.3086 139.476C74.06 139.467 73.7586 139.408 73.7586 139.408L73.7285 137.993C73.7285 137.993 74.3438 137.988 75.0231 138.212C75.0809 138.23 75.1387 138.268 75.1449 138.325C75.1487 138.367 75.1148 138.405 75.0759 138.439C75.0361 138.474 74.9878 138.497 74.9495 138.516C74.9202 138.53 74.8968 138.542 74.8875 138.553C74.8725 138.572 74.8725 138.601 74.8925 138.617C74.944 138.656 75.0696 138.684 75.1537 138.676C75.3258 138.661 75.4388 138.562 75.5254 138.433C75.6171 138.294 75.6698 137.943 75.1814 137.718C74.5497 137.428 73.7247 137.482 73.7247 137.482C73.7247 137.482 73.721 137.29 73.7122 137.162C73.6984 136.952 73.6406 136.54 73.4497 136.422C73.4146 136.401 73.3719 136.398 73.348 136.431C73.3116 136.48 73.2752 136.663 73.2664 136.711C73.209 137.054 73.2 137.369 73.1968 137.483C73.196 137.512 73.1948 137.528 73.1948 137.528L73.1926 137.531C73.1912 137.533 73.1898 137.534 73.1873 137.536C73.1873 137.536 73.1747 137.539 73.1545 137.542C73.0418 137.561 72.657 137.624 72.2832 137.786C72.1074 137.862 71.8562 137.999 71.7796 138.176C71.6817 138.405 71.8537 138.655 72.1463 138.931C72.3937 139.166 72.7578 139.412 73.0278 139.539C73.0969 139.572 73.1772 139.612 73.1772 139.612C73.1772 139.612 73.1948 139.775 73.2086 139.869C73.2588 140.209 73.5188 140.16 73.5904 140.145C73.7071 140.122 73.7285 140.044 73.7448 139.955C73.7536 139.906 73.7498 139.835 73.7498 139.835C73.7498 139.835 73.9256 139.875 74.0437 139.897C74.3865 139.961 74.7594 139.971 75.0834 139.927C76.3211 139.757 76.6728 139.191 76.7907 139.002C76.7959 138.993 76.8007 138.986 76.805 138.979C76.9846 138.696 77.3638 137.908 76.2198 136.739C75.9587 136.474 75.2027 135.737 73.6871 135.308ZM71.9793 138.495C71.9328 138.446 71.8964 138.395 71.9077 138.331C71.9177 138.269 72.0383 138.215 72.0986 138.198C72.6812 138.026 73.176 138.017 73.176 138.017C73.176 138.017 73.1709 138.227 73.1709 138.438C73.1684 138.838 73.1797 139.245 73.1797 139.245C73.1797 139.245 72.5217 139.054 71.9793 138.495Z" fill="white"/>
<path fill-rule="evenodd" clip-rule="evenodd" d="M77.9028 137.022C78.1765 136.915 78.3875 136.761 78.601 136.542C78.7253 136.415 78.8358 136.207 78.7956 136.016C78.7755 135.922 78.7328 135.857 78.6537 135.789C78.6148 135.755 78.5244 135.707 78.4515 135.693C78.4465 135.692 78.4414 135.692 78.4364 135.691C78.4203 135.688 78.4055 135.686 78.3988 135.682C78.3912 135.677 78.3843 135.668 78.377 135.659L78.3728 135.653L78.3699 135.649C78.3222 135.589 78.2268 135.53 78.1589 135.507C77.9492 135.435 77.6692 135.49 77.4783 135.57C77.2762 135.656 77.0903 135.781 76.9484 135.933C76.5767 136.331 76.74 136.646 76.7726 136.705C76.7826 136.724 76.7958 136.742 76.8091 136.761C76.8329 136.794 76.8571 136.827 76.8643 136.861C76.8683 136.881 76.8677 136.905 76.8671 136.929C76.8667 136.943 76.8664 136.956 76.8668 136.969C76.8693 137.053 76.9057 137.139 76.9685 137.195C77.0137 137.235 77.079 137.247 77.1431 137.147C77.1644 137.115 77.2008 137.047 77.2008 137.047C77.2008 137.047 77.2762 137.091 77.4595 137.104C77.5964 137.11 77.7835 137.07 77.9028 137.022ZM77.0275 136.541C77.0275 136.541 77.015 136.515 77.0062 136.494C76.9497 136.355 77.074 136.197 77.187 136.1C77.408 135.912 77.5951 135.917 77.5951 135.917C77.5951 135.917 77.5499 135.953 77.5122 135.986C77.192 136.267 77.0275 136.541 77.0275 136.541ZM77.511 136.536C77.6466 136.361 77.8965 136.145 78.0698 136.042C78.2067 135.961 78.3247 135.938 78.4126 135.977C78.4653 136 78.5068 136.047 78.5143 136.111C78.5382 136.307 78.3109 136.472 78.1602 136.56C77.8161 136.761 77.4093 136.715 77.398 136.697C77.3955 136.692 77.4796 136.577 77.511 136.536Z" fill="white"/>
<path fill-rule="evenodd" clip-rule="evenodd" d="M84.25 138.741C84.5601 138.264 85.2671 137.3 85.7053 137.604C85.8523 137.708 85.9201 137.938 85.9213 138.185C85.9213 138.401 85.8686 138.632 85.7719 138.804C85.6074 139.092 85.1428 139.693 84.525 139.551C84.3215 140.046 84.1495 140.547 84.0516 141.296C84.0516 141.296 84.029 141.441 83.9084 141.391C83.7879 141.348 83.5907 141.15 83.5505 140.874C83.5078 140.512 83.6698 139.899 83.9988 139.197C83.9034 139.042 83.8368 138.818 83.8933 138.5C83.8933 138.5 83.9762 137.91 84.5689 137.378C84.5689 137.378 84.6392 137.316 84.6807 137.335C84.7259 137.354 84.7058 137.546 84.6694 137.639C84.6317 137.732 84.368 138.189 84.368 138.189C84.368 138.189 84.2035 138.498 84.25 138.741ZM84.7535 139.024C84.9959 138.996 85.2319 138.865 85.3023 138.797C85.4178 138.695 85.6865 138.416 85.6438 138.048C85.6438 138.048 85.62 137.857 85.4341 138.067C85.2734 138.243 84.9858 138.574 84.7535 139.024Z" fill="white"/>
<path d="M83.675 139.153C83.7051 139.04 83.6022 138.917 83.5093 138.894C83.4226 138.877 82.7596 139.001 82.6805 139.022C82.5951 139.045 82.6328 138.965 82.6328 138.965L82.7357 138.618C82.7357 138.618 83.3686 138.594 83.4603 138.578C83.5457 138.563 83.5507 138.503 83.5507 138.503C83.5507 138.503 83.562 138.403 83.5582 138.31C83.5494 138.211 83.4691 138.22 83.4691 138.22C83.2242 138.195 82.8877 138.224 82.8877 138.224L82.9731 137.958C82.9731 137.958 83.6461 137.925 83.9023 137.866C84.0341 137.835 83.9563 137.705 83.9563 137.705C83.7968 137.386 83.6122 137.404 83.6122 137.404C83.0823 137.386 82.3138 137.527 82.2297 137.568C82.1506 137.604 82.1594 137.663 82.2623 137.792C82.3728 137.927 82.5574 137.915 82.5574 137.915L82.3954 138.25C82.2623 138.259 82.2171 138.3 82.2171 138.3C82.1405 138.382 82.246 138.623 82.246 138.623C82.246 138.623 82.0162 139.139 82.1832 139.412C82.3628 139.698 82.5737 139.684 82.5737 139.684C82.9781 139.714 83.6399 139.292 83.675 139.153Z" fill="white"/>
<path d="M81.2426 137.154C81.2665 137.06 81.3606 137.104 81.3606 137.104C81.3606 137.104 81.7223 137.286 81.8968 137.874C82.0714 138.464 81.9546 138.995 81.8855 139.156C81.8177 139.317 81.6381 139.486 81.4159 139.381C81.1961 139.275 80.8458 138.558 80.8458 138.558C80.8458 138.558 80.7127 138.292 80.6876 138.298C80.6876 138.298 80.6587 138.246 80.6411 138.538C80.6366 138.608 80.6344 138.694 80.632 138.785C80.6246 139.074 80.6158 139.417 80.5281 139.485C80.4188 139.575 80.2857 139.539 80.2167 139.435C80.1551 139.332 80.1288 139.087 80.1627 138.658C80.2029 138.226 80.3021 137.768 80.4301 137.625C80.5548 137.487 80.6545 137.581 80.6968 137.621L80.7001 137.624C80.7001 137.624 80.8709 137.778 81.1522 138.233L81.2024 138.317C81.2024 138.317 81.4586 138.747 81.4849 138.745C81.4849 138.745 81.505 138.764 81.5239 138.75C81.5515 138.743 81.5402 138.605 81.5402 138.605C81.5402 138.605 81.4875 138.138 81.2539 137.345C81.2539 137.345 81.2187 137.247 81.2426 137.154Z" fill="white"/>
<path d="M77.7229 138.621C77.7142 138.425 77.6903 137.924 77.6363 137.698C77.6124 137.6 77.5735 137.512 77.4768 137.476C77.4655 137.472 77.453 137.468 77.4442 137.467C77.3839 137.455 77.35 137.537 77.3337 137.579C77.286 137.7 77.252 137.99 77.2433 138.081C77.2156 138.355 77.1918 139.005 77.2395 139.337C77.2596 139.475 77.3048 139.565 77.4454 139.594C77.5019 139.605 77.6062 139.604 77.6514 139.574C77.6915 139.549 77.7192 139.501 77.728 139.46C77.7527 139.346 77.7445 139.186 77.7383 139.063L77.738 139.058C77.7363 139.009 77.7348 138.961 77.7333 138.912C77.7302 138.816 77.7271 138.719 77.7229 138.621Z" fill="white"/>
<path d="M78.878 137.403C79.1856 137.365 79.6842 137.365 79.9868 137.526C80.0332 137.551 80.0571 137.575 80.0445 137.62C80.0245 137.714 79.9541 137.774 79.8687 137.801C79.7801 137.829 79.5959 137.841 79.5135 137.846L79.5121 137.846C79.4262 137.851 79.336 137.854 79.2437 137.857C78.9451 137.867 78.6251 137.877 78.3594 137.95L78.3538 137.952C78.3268 137.959 78.2843 137.971 78.2702 137.988C78.2188 138.044 78.3566 138.064 78.399 138.07L78.4046 138.071C78.4456 138.078 78.7653 138.115 78.9938 138.142C79.101 138.155 79.1882 138.165 79.217 138.169C79.7743 138.24 79.8547 138.391 79.916 138.506L79.9177 138.509C80.0119 138.683 80.0207 138.93 79.9328 139.114C79.7708 139.457 79.3388 139.524 79.1894 139.541C78.9282 139.57 78.6444 139.519 78.4096 139.402C77.9061 139.152 77.9287 138.854 78.0304 138.706C78.1434 138.543 78.4159 138.501 78.613 138.509C78.7637 138.514 79.0349 138.562 79.1781 138.612L79.1805 138.613C79.2229 138.629 79.3645 138.684 79.3891 138.71C79.4066 138.729 79.4179 138.755 79.4104 138.779C79.3778 138.879 79.1354 138.932 79.0651 138.942C78.9175 138.965 78.8254 138.925 78.6884 138.866C78.6517 138.85 78.6117 138.833 78.5666 138.815C78.5138 138.794 78.4435 138.771 78.3895 138.766C78.2928 138.758 78.171 138.784 78.1572 138.891C78.1484 138.957 78.2112 138.996 78.2602 139.018C78.3744 139.068 78.4674 139.085 78.5804 139.087C78.9131 139.092 79.2873 139.038 79.5598 138.844C79.5963 138.818 79.6339 138.779 79.6339 138.73C79.6352 138.631 79.4619 138.57 79.4619 138.57C79.2844 138.496 78.9669 138.463 78.7827 138.444L78.765 138.442C78.7195 138.438 78.6606 138.433 78.5956 138.428C78.3862 138.412 78.1127 138.391 78.014 138.341C77.9412 138.303 77.891 138.25 77.8734 138.181C77.8408 138.057 77.8822 137.902 77.9513 137.803C78.1333 137.541 78.559 137.442 78.878 137.403Z" fill="white"/>
<path d="M89.0132 137.954H87.9735C87.9622 137.595 87.9257 137.24 87.8642 136.891C87.8542 136.83 87.8014 136.788 87.7412 136.788H87.4611C87.4059 136.788 87.3644 136.838 87.3757 136.892C87.441 137.24 87.48 137.595 87.4925 137.954H86.4365C86.3887 137.954 86.3486 137.993 86.3486 138.042V138.361C86.3486 138.41 86.3875 138.449 86.4365 138.449H87.4925C87.48 138.809 87.441 139.163 87.3757 139.511C87.3657 139.565 87.4071 139.616 87.4611 139.616H87.7412C87.8014 139.616 87.8542 139.572 87.8642 139.513C87.9257 139.163 87.9609 138.809 87.9735 138.449H89.0132C89.0609 138.449 89.1011 138.41 89.1011 138.361V138.042C89.1011 137.993 89.0622 137.954 89.0132 137.954Z" fill="white"/>
</g>
<g clip-path="url(#clip3_2811_637)">
<mask id="mask0_2811_637" style="mask-type:alpha" maskUnits="userSpaceOnUse" x="96" y="125" width="24" height="24">
<circle cx="108" cy="137" r="12" fill="#FF790F"/>
</mask>
<g mask="url(#mask0_2811_637)">
<rect x="96" y="125" width="24" height="24" fill="#F1F2F2"/>
<path fill-rule="evenodd" clip-rule="evenodd" d="M100.625 137.337C100.154 137.337 99.6232 137.173 99.0897 136.862C99.0489 136.84 99.019 136.799 99.0053 136.753C98.9945 136.706 98.9999 136.656 99.0244 136.615L99.2258 136.206C99.2585 136.148 99.3184 136.113 99.381 136.113C99.4136 136.113 99.4463 136.121 99.4762 136.14C99.9145 136.426 100.252 136.527 100.603 136.527C101.213 136.527 101.58 136.151 101.58 135.586C101.39 135.759 101.164 135.956 100.747 135.956C99.8002 135.956 99.0298 135.163 99.0298 134.188C99.0298 133.21 99.8002 132.417 100.747 132.417C101.041 132.417 101.267 132.513 101.618 132.793C101.629 132.7 101.58 132.475 101.714 132.475H102.285C102.383 132.475 102.465 132.557 102.465 132.656V134.15V134.161C102.465 134.17 102.466 134.179 102.468 134.188C102.466 134.195 102.465 134.204 102.465 134.213V134.226V134.822C102.468 135.833 102.356 136.412 101.931 136.849C101.618 137.173 101.109 137.337 100.625 137.337ZM100.747 133.274C100.29 133.274 99.9145 133.683 99.9145 134.188C99.9145 134.69 100.29 135.102 100.747 135.102C101.197 135.102 101.569 134.701 101.58 134.21V134.163C101.569 133.672 101.197 133.274 100.747 133.274Z" fill="#E51F29"/>
<path fill-rule="evenodd" clip-rule="evenodd" d="M109.918 135.956C109.67 135.956 109.349 135.843 109.055 135.574C109.055 135.714 109.088 135.898 108.906 135.898H108.383C108.282 135.898 108.201 135.819 108.201 135.717V131.239C108.201 131.137 108.282 131.055 108.383 131.055H108.906C109.006 131.055 109.088 131.137 109.088 131.239V132.784C109.374 132.493 109.695 132.416 109.918 132.416C110.865 132.416 111.638 133.21 111.638 134.188C111.638 135.162 110.865 135.956 109.918 135.956ZM109.918 133.273C109.461 133.273 109.088 133.682 109.088 134.188C109.088 134.69 109.461 135.102 109.918 135.102C110.378 135.102 110.751 134.69 110.751 134.188C110.751 133.682 110.378 133.273 109.918 133.273Z" fill="#E51F29"/>
<path fill-rule="evenodd" clip-rule="evenodd" d="M107.759 139.495C107.759 140.473 106.988 141.266 106.041 141.266C105.815 141.266 105.494 141.189 105.208 140.898V142.444C105.208 142.546 105.127 142.628 105.026 142.628H104.503C104.403 142.628 104.321 142.546 104.321 142.444V137.966C104.321 137.867 104.403 137.785 104.503 137.785H105.026C105.208 137.785 105.176 137.969 105.176 138.109C105.472 137.84 105.791 137.727 106.041 137.727C106.988 137.727 107.759 138.52 107.759 139.495ZM106.871 139.495C106.871 138.993 106.498 138.581 106.041 138.581C105.581 138.581 105.208 138.993 105.208 139.495C105.208 140 105.581 140.412 106.041 140.412C106.498 140.412 106.871 140 106.871 139.495Z" fill="#E51F29"/>
<path fill-rule="evenodd" clip-rule="evenodd" d="M113.728 135.956C112.759 135.956 111.97 135.163 111.97 134.188C111.97 133.21 112.759 132.417 113.728 132.417C114.695 132.417 115.484 133.21 115.484 134.188C115.484 135.163 114.695 135.956 113.728 135.956ZM113.728 133.276C113.246 133.276 112.857 133.685 112.857 134.188C112.857 134.69 113.246 135.1 113.728 135.1C114.207 135.1 114.597 134.69 114.597 134.188C114.597 133.685 114.207 133.276 113.728 133.276Z" fill="#E51F29"/>
<path fill-rule="evenodd" clip-rule="evenodd" d="M106.036 135.956C105.067 135.956 104.281 135.163 104.281 134.188C104.281 133.21 105.067 132.417 106.036 132.417C107.005 132.417 107.792 133.21 107.792 134.188C107.792 135.163 107.005 135.956 106.036 135.956ZM106.036 133.276C105.554 133.276 105.165 133.685 105.165 134.188C105.165 134.69 105.554 135.1 106.036 135.1C106.515 135.1 106.907 134.69 106.907 134.188C106.907 133.685 106.515 133.276 106.036 133.276Z" fill="#E51F29"/>
<path d="M108.378 141.209C108.28 141.209 108.198 141.126 108.198 141.028V136.546C108.198 136.448 108.28 136.365 108.378 136.365H108.903C109.001 136.365 109.083 136.448 109.083 136.546V141.028C109.083 141.126 109.001 141.209 108.903 141.209H108.378Z" fill="#E51F29"/>
<path d="M114.194 142.639C113.737 142.639 113.407 142.502 113.252 142.376C113.181 142.318 113.162 142.219 113.208 142.143L113.456 141.714C113.489 141.656 113.549 141.621 113.614 141.624C113.652 141.624 113.688 141.635 113.72 141.656C113.758 141.687 113.894 141.797 114.069 141.802C114.191 141.805 114.496 141.687 114.686 141.22L113.372 138.038C113.347 137.98 113.353 137.917 113.385 137.865C113.421 137.812 113.475 137.782 113.538 137.782L114.107 137.785C114.18 137.785 114.243 137.829 114.273 137.895L115.108 139.94L115.838 137.903C115.862 137.832 115.933 137.785 116.007 137.785H116.562C116.622 137.785 116.679 137.815 116.712 137.865C116.747 137.914 116.766 137.983 116.733 138.117L115.574 141.228C115.266 141.986 114.733 142.642 114.194 142.639Z" fill="#E51F29"/>
<path fill-rule="evenodd" clip-rule="evenodd" d="M111.218 137.727C111.466 137.727 111.787 137.84 112.081 138.109C112.081 137.969 112.051 137.785 112.231 137.785H112.756C112.854 137.785 112.936 137.867 112.936 137.966V141.055C112.936 141.156 112.854 141.209 112.756 141.209H112.231C112.133 141.209 112.051 141.156 112.051 141.055V140.901C111.763 141.192 111.444 141.269 111.218 141.269C110.268 141.269 109.498 140.473 109.498 139.498C109.498 138.52 110.268 137.727 111.218 137.727ZM111.218 140.412C111.676 140.412 112.051 140.003 112.051 139.498C112.051 138.993 111.676 138.584 111.218 138.584C110.758 138.584 110.385 138.993 110.385 139.498C110.385 140.003 110.758 140.412 111.218 140.412Z" fill="#E51F29"/>
<path d="M103.201 135.956C103.092 135.956 102.975 135.877 102.975 135.657V131.297C102.975 131.019 103.143 131 103.195 131C103.233 131 103.271 131.008 103.318 131.025L103.642 131.17C103.799 131.244 103.873 131.373 103.873 131.571V135.377C103.873 135.572 103.799 135.701 103.644 135.775L103.318 135.929C103.271 135.948 103.233 135.956 103.201 135.956Z" fill="#E51F29"/>
</g>
</g>
<g clip-path="url(#clip4_2811_637)">
<path d="M24.0001 176.667C30.4434 176.667 35.6668 171.443 35.6668 165C35.6668 158.557 30.4434 153.333 24.0001 153.333C17.5568 153.333 12.3334 158.557 12.3334 165C12.3334 171.443 17.5568 176.667 24.0001 176.667Z" fill="black"/>
<path fill-rule="evenodd" clip-rule="evenodd" d="M21.0277 159.152C20.9992 159.14 20.7251 159.025 20.6857 159.008C20.6847 159.007 20.6823 159.007 20.6796 159.005C20.675 159.003 20.6768 159.004 20.6746 159.003C20.6699 159.001 20.6683 159.001 20.6666 159C20.6666 159.09 20.6666 159.222 20.6666 159.364C20.6666 159.545 20.6666 159.737 20.6666 159.833C20.6666 160.018 20.6666 160.492 20.6666 160.667C20.6666 161.006 20.6666 163.615 20.6666 163.797C20.6666 163.975 20.6666 170.802 20.6666 170.99C21.5673 170.878 22.0177 170.834 22.934 170.791C22.934 170.608 22.934 168.798 22.934 168.534C22.934 167.01 22.934 165.937 22.934 165.346C22.934 165.097 22.934 165.005 22.934 164.75C22.8646 164.546 22.571 163.681 22.4959 163.464C22.3555 163.048 21.5564 160.704 21.4925 160.517C21.4353 160.349 21.2758 159.881 21.2251 159.731C21.1954 159.645 21.118 159.418 21.0769 159.297C21.0448 159.203 21.0477 159.21 21.0277 159.152Z" fill="url(#paint1_linear_2811_637)"/>
<path fill-rule="evenodd" clip-rule="evenodd" d="M26.6557 170.838C26.6843 170.85 26.9584 170.966 26.9977 170.982C26.9988 170.983 27.0011 170.984 27.0039 170.985C27.0085 170.987 27.0067 170.986 27.0089 170.987C27.0136 170.989 27.0152 170.989 27.0168 170.99C27.0168 170.901 27.0169 170.768 27.0169 170.626C27.0169 170.445 27.0169 170.253 27.0169 170.157C27.0169 169.973 27.0169 169.498 27.0169 169.323C27.0169 168.984 27.0169 166.375 27.0169 166.193C27.0169 166.015 27.0169 159.188 27.0169 159C26.8388 159 25.0368 159 24.7495 159C24.7495 159.183 24.7495 161.192 24.7495 161.456C24.7495 162.98 24.7495 164.053 24.7495 164.644C24.7495 164.893 24.7495 164.985 24.7495 165.24C24.8189 165.444 25.1125 166.309 25.1876 166.527C25.328 166.942 26.127 169.286 26.1909 169.473C26.2482 169.642 26.4077 170.109 26.4584 170.259C26.4881 170.346 26.5654 170.572 26.6066 170.693C26.6387 170.788 26.6358 170.78 26.6557 170.838Z" fill="url(#paint2_linear_2811_637)"/>
<path fill-rule="evenodd" clip-rule="evenodd" d="M22.934 159H20.6666L24.6816 170.791C25.8099 170.82 27.0169 170.99 27.0169 170.99L22.934 159Z" fill="#E50A15"/>
</g>
<circle cx="52" cy="165" r="12" fill="white"/>
<g clip-path="url(#clip5_2811_637)">
<path d="M51.9943 169.435C51.9943 169.435 55.7493 169.435 56.6843 169.179C57.2093 169.034 57.6043 168.619 57.7393 168.104C57.9993 167.158 57.9993 165.177 57.9993 165.177C57.9993 165.177 57.9993 163.201 57.7393 162.27C57.5993 161.74 57.2043 161.335 56.6843 161.195C55.7543 160.935 51.9943 160.935 51.9943 160.935C51.9943 160.935 48.2443 160.935 47.3143 161.195C46.7993 161.335 46.3943 161.74 46.2493 162.27C45.9993 163.206 45.9993 165.177 45.9993 165.177C45.9993 165.177 45.9993 167.158 46.2493 168.104C46.3993 168.619 46.7993 169.034 47.3143 169.179C48.2393 169.435 51.9943 169.435 51.9943 169.435Z" fill="#FF0033"/>
<path d="M50.6256 166.928L53.8756 165.178L50.6256 163.428V166.928Z" fill="white"/>
</g>
<circle cx="81.0006" cy="165" r="12" fill="#0270FD"/>
<g clip-path="url(#clip6_2811_637)">
<path d="M79.7486 165.17C79.7003 165.151 79.6212 165.064 79.7529 164.821L80.0589 164.193C80.0681 164.174 80.0459 164.15 80.0319 164.166L79.7645 164.43C79.638 164.56 79.4232 164.925 79.3816 164.992L79.0567 165.52C79.0908 165.519 79.113 165.554 79.0961 165.584L78.7992 166.074C78.7266 166.195 78.857 166.28 78.8747 166.252C79.3415 165.514 79.613 165.573 79.613 165.573L79.7689 165.218C79.7779 165.199 79.7682 165.178 79.7488 165.17H79.7486Z" fill="white"/>
<path d="M80.8086 159C78.1398 159 75.9761 161.124 75.9761 163.744C75.9761 164.799 76.3275 165.773 76.9209 166.561C77.1236 166.475 77.2363 166.346 77.3168 166.248L78.2165 165.118C78.2355 165.094 78.2603 165.076 78.2885 165.064L78.4239 165.007L79.9035 163.164L80.118 162.999L80.5587 162.397C80.5702 162.381 80.584 162.368 80.5999 162.356L80.7922 162.219C80.8397 162.185 80.9039 162.184 80.952 162.218L81.1853 162.379C81.3091 162.464 81.4095 162.578 81.4775 162.711L82.4121 164.323C82.4331 164.358 82.4481 164.373 82.4854 164.391C82.6687 164.481 82.7806 164.497 83.0206 164.753C83.1325 164.872 83.623 165.411 84.3108 166.248C84.4055 166.374 84.528 166.48 84.6989 166.557C85.2906 165.77 85.641 164.797 85.641 163.744C85.6414 161.124 83.4777 159 80.8086 159ZM77.2795 164.005L76.9662 163.905L76.7726 164.167V163.844L76.4593 163.744L76.7726 163.644V163.321L76.9662 163.582L77.2795 163.483L77.0858 163.744L77.2795 164.006V164.005ZM77.2051 165.063L77.1033 165.371L77.0015 165.063H76.6723L76.9388 164.873L76.837 164.566L77.1035 164.756L77.37 164.566L77.2682 164.873L77.5347 165.063H77.2055H77.2051ZM77.268 162.615L77.3698 162.922L77.1033 162.732L76.8368 162.922L76.9386 162.615L76.6721 162.424H77.0013L77.1031 162.117L77.2049 162.424H77.5341L77.2676 162.615H77.268ZM77.7969 161.919L77.6033 161.657L77.29 161.757L77.4836 161.496L77.29 161.234L77.6033 161.334L77.7969 161.072V161.396L78.1102 161.495L77.7969 161.595V161.919V161.919ZM78.6204 160.787L78.5186 161.095L78.4168 160.787H78.0876L78.3541 160.597L78.2523 160.289L78.5188 160.479L78.7853 160.289L78.6835 160.597L78.95 160.787H78.6208H78.6204ZM79.6583 160.268L79.4647 160.53V160.206L79.1514 160.107L79.4647 160.007V159.683L79.6583 159.945L79.9716 159.845L79.778 160.107L79.9716 160.368L79.6583 160.268V160.268ZM80.9734 159.972L81.0751 160.279L80.8086 160.089L80.5421 160.279L80.6439 159.972L80.3774 159.782H80.7066L80.8084 159.474L80.9102 159.782H81.2394L80.9729 159.972H80.9734ZM82.1528 160.206V160.529L81.9591 160.268L81.6459 160.368L81.8395 160.106L81.6459 159.845L81.9591 159.944L82.1528 159.683V160.006L82.466 160.106L82.1528 160.206V160.206ZM84.338 163.482L84.6513 163.582L84.8449 163.32V163.644L85.1582 163.744L84.8449 163.843V164.167L84.6513 163.905L84.338 164.005L84.5316 163.743L84.338 163.482V163.482ZM83.0987 161.095L82.9969 160.787H82.6676L82.9341 160.597L82.8324 160.289L83.0989 160.479L83.3654 160.289L83.2636 160.597L83.5301 160.787H83.2009L83.0991 161.095H83.0987ZM83.8205 161.919V161.596L83.5072 161.496L83.8205 161.396V161.073L84.0141 161.334L84.3274 161.234L84.1338 161.496L84.3274 161.758L84.0141 161.658L83.8205 161.919V161.919ZM84.4124 162.424L84.5142 162.117L84.6159 162.424H84.9452L84.6787 162.615L84.7804 162.922L84.5139 162.732L84.2474 162.922L84.3492 162.615L84.0827 162.424H84.412H84.4124ZM84.6159 165.063L84.5142 165.371L84.4124 165.063H84.0831L84.3496 164.873L84.2479 164.566L84.5144 164.756L84.7809 164.566L84.6791 164.873L84.9456 165.063H84.6164H84.6159Z" fill="white"/>
<path d="M82.5602 166.486C82.5835 166.453 82.621 166.362 82.5505 166.193L82.3366 165.629C82.3075 165.557 82.3709 165.513 82.4136 165.56C82.4136 165.56 82.8178 166.018 82.9224 166.209L83.1216 166.534C83.293 166.544 83.7665 166.557 84.2219 166.557C84.1766 166.513 84.1344 166.465 84.0949 166.413C83.3176 165.467 82.8249 164.941 82.82 164.936C82.6624 164.768 82.5897 164.735 82.4694 164.682C82.4521 164.674 82.4334 164.665 82.4138 164.656V164.8C82.4138 164.819 82.3911 164.829 82.3795 164.809L81.2365 162.838L81.2333 162.832C81.1858 162.74 81.1151 162.659 81.0287 162.6L80.9172 162.523L80.3721 163.757C80.4571 163.757 80.5142 163.843 80.4804 163.919L79.9767 165.063H80.439C80.6177 165.063 80.7947 165.097 80.9601 165.164L81.0819 165.213C81.0819 165.213 80.7143 165.956 80.7143 166.347C80.7143 166.418 80.7257 166.49 80.7443 166.557H81.5918L81.5526 166.323C81.5526 166.323 82.0627 166.438 82.5604 166.486H82.5602Z" fill="white"/>
<path d="M76.0218 167.688C76.0218 166.924 75.1967 166.557 74.2165 166.557C73.168 166.557 72.2059 167.013 71.8527 167.72C71.7555 167.908 71.705 168.117 71.705 168.329C71.7013 168.513 71.752 168.693 71.8527 168.845C72.0041 169.065 72.2742 169.203 72.6705 169.203C73.157 169.203 73.5427 168.941 73.5427 168.484C73.5427 168.484 73.5498 168.357 73.3984 168.357C73.276 168.357 73.2434 168.442 73.2471 168.484C73.2652 168.842 73.0489 169.128 72.6634 169.128C72.2309 169.128 72.0509 168.767 72.0509 168.382C72.0509 167.593 72.6563 167.07 73.2868 166.843C73.5824 166.734 73.8922 166.68 74.2092 166.684C74.9226 166.684 75.5063 166.953 75.5063 167.675C75.5063 168.276 74.991 168.789 74.3747 168.835L74.4 168.753C74.5261 168.311 74.6811 167.827 74.9332 167.469C74.9476 167.448 74.9729 167.413 75.0017 167.377L74.9657 167.335C74.9116 167.367 74.8612 167.402 74.8107 167.441C73.6289 168.346 73.5929 170.893 72.0181 170.893C71.9642 170.893 71.9101 170.89 71.8559 170.883C71.528 170.83 71.3551 170.614 71.3551 170.313C71.3551 170.253 71.3766 170.172 71.3766 170.126C71.3803 170.041 71.3083 169.967 71.2216 169.967H71.2037C71.0631 169.967 71.0056 170.076 71.0019 170.232C70.9911 170.681 71.3298 170.943 71.8523 170.992C71.9098 170.996 71.9676 170.999 72.0289 170.999C73.2576 170.999 74.0106 170.087 74.3314 168.98C74.4935 168.962 74.6557 168.927 74.8105 168.881C75.3799 168.725 76.0212 168.35 76.0212 167.689L76.0218 167.688Z" fill="white"/>
<path d="M87.7257 167.954H87.2934L87.1959 168.177L87.0267 168.552H86.8249L86.7636 168.679H86.9725L86.7203 169.227C86.5402 169.613 86.2591 169.991 86.0969 169.991C86.0609 169.991 86.0394 169.977 86.0394 169.942C86.0394 169.906 86.0502 169.874 86.0898 169.775C86.1403 169.659 86.2231 169.489 86.2845 169.365C86.3747 169.185 86.5187 168.905 86.5187 168.767C86.5187 168.629 86.4286 168.52 86.252 168.52C86.0538 168.52 85.8736 168.637 85.708 168.806L85.8162 168.552H85.4089L85.0775 169.294C84.9443 169.556 84.6739 169.991 84.5046 169.991C84.4686 169.991 84.4542 169.97 84.4542 169.935C84.4578 169.903 84.465 169.875 84.4794 169.843C84.4939 169.811 84.692 169.355 84.692 169.355L85.0523 168.545H84.6127L84.2631 169.333C84.1551 169.577 83.8811 169.991 83.7045 169.991C83.6756 169.995 83.6469 169.974 83.6433 169.942V169.928C83.6433 169.885 83.6756 169.808 83.7008 169.751L83.8847 169.355L84.2631 168.545H83.8272L83.7407 168.728C83.6758 168.852 83.5678 168.997 83.3949 168.997C83.3119 168.997 83.2724 168.966 83.2543 168.934C83.2291 168.661 83.0525 168.516 82.7931 168.516C82.4328 168.516 82.1769 168.725 82.0074 168.98C81.8957 169.156 81.8092 169.344 81.748 169.542C81.593 169.793 81.4311 169.988 81.3013 169.988C81.2687 169.988 81.2471 169.97 81.2471 169.928C81.2471 169.885 81.2905 169.79 81.3049 169.754L81.5895 169.16C81.6689 168.976 81.7228 168.856 81.7228 168.736C81.7228 168.608 81.6327 168.516 81.485 168.516C81.2795 168.516 81.0561 168.633 80.8795 168.824C80.8866 168.792 80.8866 168.764 80.8866 168.732C80.8866 168.591 80.8146 168.516 80.6667 168.516C80.4793 168.516 80.2849 168.626 80.1083 168.824L80.2236 168.548H79.8271L79.492 169.291C79.3336 169.641 79.0776 169.988 78.9334 169.988C78.9011 169.988 78.8793 169.97 78.8793 169.928C78.8793 169.861 78.955 169.695 78.9838 169.627L79.4271 168.641C79.4595 168.566 79.2469 168.52 78.9767 168.52C78.7066 168.52 78.4146 168.655 78.2057 168.828C78.058 168.948 77.9498 169.009 77.8956 169.009C77.867 169.009 77.856 168.994 77.856 168.977C77.856 168.917 78.0037 168.747 78.0037 168.616C78.0037 168.556 77.9713 168.517 77.8883 168.517C77.7298 168.517 77.5425 168.665 77.4056 168.821L77.5209 168.549H77.1317L76.7967 169.292C76.638 169.642 76.3749 170.006 76.2309 170.006C76.1983 170.006 76.1768 169.989 76.1768 169.946C76.1768 169.879 76.2488 169.716 76.2885 169.631L76.7318 168.641C76.7641 168.566 76.5515 168.52 76.2813 168.52C75.8814 168.52 75.4922 168.786 75.2867 169.058C75.0597 169.352 74.9049 169.663 74.9012 169.918C74.8978 170.123 75.0058 170.25 75.2218 170.25C75.4633 170.25 75.6578 170.063 75.7695 169.921C75.7624 169.95 75.7587 169.978 75.755 170.006C75.755 170.147 75.8126 170.25 75.9892 170.25C76.144 170.25 76.3495 170.123 76.5153 169.921L76.382 170.222H76.8036L77.218 169.299C77.3549 168.998 77.5099 168.842 77.553 168.842C77.5675 168.842 77.5748 168.85 77.5748 168.86C77.5748 168.892 77.5099 168.977 77.5099 169.054C77.5099 169.132 77.553 169.192 77.6686 169.192C77.7587 169.192 77.8594 169.15 77.9495 169.093C77.737 169.376 77.5927 169.674 77.5927 169.918C77.5893 170.123 77.6973 170.25 77.9135 170.25C78.1406 170.25 78.3532 170.038 78.4683 169.896C78.4646 169.928 78.4612 169.96 78.4612 169.995C78.4612 170.133 78.5405 170.25 78.7027 170.25C78.8827 170.25 79.027 170.14 79.2072 169.925L79.074 170.222H79.5063L79.9026 169.341C80.0755 168.959 80.3097 168.754 80.425 168.754C80.4539 168.75 80.4791 168.772 80.4826 168.8V168.811C80.4789 168.853 80.4647 168.895 80.4466 168.934L79.8773 170.226H80.3207L80.7243 169.327C80.8972 168.942 81.0882 168.754 81.2323 168.754C81.2754 168.754 81.2935 168.775 81.2935 168.821C81.2898 168.871 81.2754 168.92 81.2538 168.963L80.8646 169.776C80.8286 169.854 80.8071 169.939 80.7997 170.024C80.7997 170.148 80.8681 170.258 81.0628 170.258C81.3151 170.258 81.5061 170.07 81.7221 169.791V169.851C81.7403 170.074 81.8664 170.268 82.2014 170.268C82.5977 170.268 82.9186 169.999 83.1131 169.571C83.1853 169.419 83.2355 169.26 83.2536 169.094C83.2968 169.115 83.3472 169.126 83.3942 169.122C83.4591 169.122 83.5238 169.108 83.5816 169.076L83.513 169.221C83.4337 169.384 83.3472 169.564 83.2789 169.716C83.2357 169.804 83.2105 169.903 83.2032 170.002C83.2032 170.154 83.2896 170.264 83.4662 170.264C83.6428 170.264 83.8843 170.102 84.0572 169.872H84.0609C84.0501 169.918 84.0428 169.967 84.0428 170.017C84.0428 170.144 84.0825 170.264 84.2627 170.264C84.4716 170.264 84.6338 170.116 84.7923 169.928L84.659 170.225H85.095L85.4445 169.447C85.6426 169.009 85.8408 168.743 86.0247 168.743C86.0573 168.743 86.0823 168.764 86.0859 168.796V168.807C86.0859 168.881 85.9779 169.083 85.8807 169.284C85.7906 169.468 85.722 169.61 85.6752 169.719C85.6319 169.811 85.6066 169.91 85.5995 170.013C85.5995 170.147 85.6752 170.25 85.8447 170.25C86.0969 170.25 86.3527 170.01 86.4896 169.829C86.4572 169.918 86.4428 170.006 86.4391 170.098C86.4391 170.346 86.5905 170.469 86.8029 170.469C86.9434 170.469 87.0804 170.423 87.1957 170.342C87.3615 170.229 87.4948 170.059 87.6067 169.904L87.531 169.833C87.4264 169.978 87.3111 170.116 87.1923 170.201C87.1274 170.254 87.0517 170.282 86.9689 170.285C86.8788 170.285 86.8212 170.239 86.8212 170.126C86.8212 170.013 86.8753 169.861 86.9581 169.656C86.9615 169.652 87.0806 169.391 87.1923 169.139C87.2858 168.927 87.3796 168.722 87.3975 168.679H87.6821L87.7399 168.552H87.4588L87.7255 167.954L87.7257 167.954ZM75.4348 169.995C75.3736 169.995 75.3303 169.974 75.3303 169.896C75.3339 169.687 75.5103 169.316 75.7302 169.018C75.885 168.813 76.0869 168.661 76.3031 168.661L76.0293 169.263C75.824 169.715 75.6004 169.995 75.4348 169.995V169.995ZM78.13 169.995C78.0688 169.995 78.0257 169.974 78.022 169.896C78.0254 169.687 78.202 169.316 78.422 169.018C78.5768 168.813 78.7786 168.661 78.9948 168.661L78.721 169.263C78.5121 169.726 78.2995 169.995 78.13 169.995V169.995ZM82.9153 168.824C82.9046 169.054 82.6991 169.609 82.4578 169.942C82.3606 170.076 82.2776 170.115 82.2055 170.115C82.1046 170.115 82.0757 170.034 82.0902 169.914C82.1118 169.705 82.2883 169.217 82.5333 168.881C82.645 168.728 82.7206 168.665 82.8073 168.665C82.894 168.665 82.919 168.735 82.9153 168.824V168.824Z" fill="white"/>
<path d="M89.6407 168.551L90.0375 167.652H89.5676L89.1709 168.551H88.1726L88.0062 168.929H89.0047L88.6079 169.828H89.0775L89.4743 168.929H90.4726L90.639 168.551H89.6407Z" fill="white"/>
</g>
<g clip-path="url(#clip7_2811_637)">
<path d="M108 176.625C114.42 176.625 119.625 171.42 119.625 165C119.625 158.58 114.42 153.375 108 153.375C101.58 153.375 96.3749 158.58 96.3749 165C96.3749 171.42 101.58 176.625 108 176.625Z" fill="url(#paint3_radial_2811_637)"/>
<path d="M111.277 167.215H112.771C113.123 166.654 113.521 166.145 113.979 165.665C114.43 166.145 114.805 166.654 115.158 167.215H116.666C116.148 166.44 115.585 165.702 114.91 164.971C115.578 164.269 116.148 163.545 116.666 162.785H115.187C114.82 163.346 114.422 163.819 113.979 164.284C113.528 163.819 113.131 163.346 112.77 162.785H111.276C111.787 163.568 112.365 164.269 113.04 164.971C112.365 165.702 111.787 166.462 111.277 167.215Z" fill="white"/>
<path d="M108.341 167.334C108.949 167.334 109.475 167.112 109.88 166.632V167.216H111.059V162.785H109.88V163.368C109.475 162.889 108.949 162.667 108.341 162.667C107.11 162.667 106.089 163.708 106.089 165C106.089 166.293 107.11 167.334 108.341 167.334ZM107.2 165C107.2 164.277 107.793 163.693 108.529 163.693C109.265 163.693 109.858 164.277 109.858 165C109.858 165.724 109.265 166.307 108.529 166.307C107.793 166.307 107.2 165.724 107.2 165ZM107.508 165C107.508 165.561 107.966 166.012 108.529 166.012C109.092 166.012 109.55 165.561 109.55 165C109.55 164.439 109.092 163.989 108.529 163.989C107.966 163.989 107.508 164.439 107.508 165Z" fill="white"/>
<path d="M99.3333 167.216H100.572V164.461C101.113 164.04 101.36 163.907 101.563 163.907C101.803 163.907 101.961 164.055 101.961 164.424V167.215H103.2V164.454C103.74 164.041 103.981 163.908 104.191 163.908C104.431 163.908 104.589 164.055 104.589 164.425V167.216H105.828V163.996C105.827 162.999 105.249 162.667 104.693 162.667C104.22 162.667 103.74 162.859 103.109 163.331C102.907 162.837 102.464 162.667 102.066 162.667C101.593 162.667 101.112 162.874 100.497 163.339V162.785H99.3333V167.216Z" fill="white"/>
</g>
</g>
<defs>
<linearGradient id="paint0_linear_2811_637" x1="80" y1="125.375" x2="80" y2="148.625" gradientUnits="userSpaceOnUse">
<stop offset="0.23" stop-color="#002031"/>
<stop offset="1" stop-color="#00A9B0"/>
</linearGradient>
<linearGradient id="paint1_linear_2811_637" x1="22.5163" y1="162.672" x2="21.9477" y2="162.678" gradientUnits="userSpaceOnUse">
<stop stop-color="#80020E"/>
<stop offset="1" stop-color="#B10610"/>
</linearGradient>
<linearGradient id="paint2_linear_2811_637" x1="25.6469" y1="162.305" x2="24.7231" y2="162.314" gradientUnits="userSpaceOnUse">
<stop stop-color="#B10610"/>
<stop offset="1" stop-color="#80020E"/>
</linearGradient>
<radialGradient id="paint3_radial_2811_637" cx="0" cy="0" r="1" gradientUnits="userSpaceOnUse" gradientTransform="translate(108 165) rotate(90) scale(11.625)">
<stop offset="0.365" stop-color="#1F2733"/>
<stop offset="0.855" stop-color="#00030C"/>
</radialGradient>
<clipPath id="clip0_2811_637">
<rect width="132" height="74" fill="white" transform="translate(12 103)"/>
</clipPath>
<clipPath id="clip1_2811_637">
<rect width="20.5643" height="6.41733" fill="white" transform="translate(13.9998 134.873)"/>
</clipPath>
<clipPath id="clip2_2811_637">
<rect width="24" height="24" fill="white" transform="translate(68 125)"/>
</clipPath>
<clipPath id="clip3_2811_637">
<rect width="24" height="24" fill="white" transform="translate(96 125)"/>
</clipPath>
<clipPath id="clip4_2811_637">
<rect width="24" height="24" fill="white" transform="translate(12 153)"/>
</clipPath>
<clipPath id="clip5_2811_637">
<rect width="12" height="12" fill="white" transform="translate(45.9999 159.184)"/>
</clipPath>
<clipPath id="clip6_2811_637">
<rect width="19.6364" height="12" fill="white" transform="translate(71 159)"/>
</clipPath>
<clipPath id="clip7_2811_637">
<rect width="24" height="24" fill="white" transform="translate(96 153)"/>
</clipPath>
</defs>
</svg>
