<svg width="156" height="188" viewBox="0 0 156 188" fill="none" xmlns="http://www.w3.org/2000/svg">
<rect x="0.5" y="0.5" width="155" height="187" rx="11.5" fill="#0026D9"/>
<rect x="0.5" y="0.5" width="155" height="187" rx="11.5" stroke="#5270FE"/>
<path d="M15.348 24C14.916 24 14.844 23.976 14.844 23.868V16.284H12.336C12.228 16.284 12.192 16.224 12.192 15.852V15.78C12.192 15.42 12.216 15.36 12.336 15.36H18.504C18.624 15.36 18.648 15.42 18.648 15.792V15.852C18.648 16.224 18.612 16.284 18.504 16.284H15.996V23.868C15.996 23.988 15.9 24 15.456 24H15.348ZM20.3558 24C19.9118 24 19.8518 23.976 19.8518 23.868V15.492C19.8518 15.384 19.9118 15.36 20.3558 15.36H20.4758C20.9198 15.36 21.0038 15.372 21.0038 15.492V23.868C21.0038 23.988 20.9198 24 20.4758 24H20.3558ZM23.4958 24C23.0158 24 22.9558 23.988 22.9558 23.88V15.504C22.9558 15.384 23.0278 15.36 23.5198 15.36H23.7358C24.1918 15.36 24.2878 15.396 24.3358 15.504L26.0278 18.912C26.4358 19.74 26.8078 20.52 27.0838 21.18C27.3838 20.46 27.7558 19.608 28.0918 18.912L29.7598 15.504C29.8078 15.396 29.8918 15.36 30.3838 15.36H30.5398C31.0078 15.36 31.0798 15.384 31.0798 15.504V23.88C31.0798 23.988 31.0198 24 30.5758 24H30.4918C30.0238 24 29.9758 23.988 29.9758 23.88V19.896C29.9758 19.212 29.9878 17.832 29.9998 17.208C29.6998 17.952 29.2798 18.84 28.9078 19.596L27.5518 22.356C27.5038 22.452 27.4678 22.476 27.0718 22.476H27.0358C26.5918 22.476 26.5678 22.452 26.5198 22.356L25.1038 19.536C24.7198 18.768 24.3838 18.048 24.0358 17.208C24.0598 17.88 24.0598 19.14 24.0598 19.908V23.88C24.0598 23.988 24.0118 24 23.5558 24H23.4958ZM36.4793 24C36.0353 24 35.9753 23.976 35.9753 23.868V15.36H37.9913C40.1993 15.36 41.6393 15.984 41.6393 17.988C41.6393 19.824 40.3673 20.76 38.3873 20.76C38.0153 20.76 37.5713 20.736 37.1273 20.676V23.868C37.1273 23.988 37.0433 24 36.5993 24H36.4793ZM38.2553 19.836C39.7073 19.836 40.4753 19.236 40.4753 18.024C40.4753 16.644 39.4913 16.284 38.0513 16.284H37.1273V19.764C37.5353 19.824 37.9913 19.836 38.2553 19.836ZM43.2759 24C42.7959 24 42.7599 23.952 42.7599 23.856V19.764C42.7599 18.948 42.7359 18.108 42.7359 17.808C42.7359 17.712 42.7719 17.664 43.2279 17.664H43.2879C43.7199 17.664 43.7799 17.7 43.7799 17.808L43.8039 19.044C44.2599 18.036 44.9199 17.592 45.5559 17.592C45.6639 17.592 45.7479 17.604 45.8079 17.616C45.9159 17.64 45.9279 17.676 45.9279 17.952V18.132C45.9279 18.48 45.9159 18.576 45.7959 18.576C44.9439 18.576 44.5119 19.104 44.1639 19.668C43.9959 19.944 43.8999 20.28 43.8759 20.7C43.8519 21.036 43.8399 21.78 43.8399 22.476V23.856C43.8399 23.94 43.8279 24 43.3479 24H43.2759ZM49.0569 16.908C48.6729 16.908 48.6489 16.836 48.6969 16.764L49.5729 15.228C49.6209 15.144 49.7649 15.096 50.1009 15.096H50.2449C50.6889 15.096 50.7729 15.18 50.7129 15.264L49.5849 16.8C49.5489 16.86 49.4409 16.908 49.1529 16.908H49.0569ZM49.4409 24.12C47.4969 24.12 46.5009 22.908 46.5009 20.976C46.5009 18.96 47.6049 17.544 49.3809 17.544C50.4489 17.544 51.1809 18.072 51.5769 18.864C51.8529 19.416 51.9729 20.076 51.9729 20.784C51.9729 21.144 51.9489 21.216 51.8529 21.216H47.6289C47.6649 21.876 47.8569 22.392 48.2289 22.704C48.5529 22.992 49.0209 23.136 49.6449 23.136C50.1489 23.136 50.6529 23.016 51.2289 22.752C51.3369 22.704 51.4089 22.68 51.5289 22.98L51.5889 23.124C51.7209 23.436 51.7089 23.508 51.6129 23.568C51.0009 23.928 50.2449 24.12 49.4409 24.12ZM47.6649 20.328H50.8689C50.8569 19.428 50.4009 18.528 49.3929 18.528C48.5169 18.528 47.8329 19.092 47.6649 20.328ZM56.1123 24C55.7523 24 55.6563 23.94 55.7403 23.82L57.9003 20.544C58.1283 20.196 58.3563 19.86 58.6083 19.5L57.9123 18.432L56.0523 15.552C55.9803 15.432 56.0523 15.36 56.4603 15.36H56.7483C57.1563 15.36 57.2283 15.384 57.3003 15.492L58.6083 17.496C58.8603 17.892 59.1123 18.3 59.3163 18.648C59.5443 18.288 59.8323 17.832 60.0723 17.436L61.2603 15.504C61.3323 15.384 61.3923 15.36 61.8603 15.36H62.0883C62.4603 15.36 62.5563 15.408 62.4603 15.552L60.6243 18.324C60.3603 18.732 60.0723 19.152 59.8443 19.476C60.0003 19.692 60.2523 20.088 60.5043 20.472L62.6763 23.82C62.7483 23.94 62.7003 24 62.2443 24H61.9563C61.5603 24 61.4883 23.976 61.4163 23.88L59.8683 21.492C59.6043 21.072 59.3283 20.64 59.1363 20.316L56.9283 23.868C56.8563 23.988 56.8083 24 56.3403 24H56.1123ZM64.4417 24C63.9977 24 63.9377 23.976 63.9377 23.868V15.492C63.9377 15.384 63.9977 15.36 64.4417 15.36H64.5617C65.0057 15.36 65.0897 15.372 65.0897 15.492V23.868C65.0897 23.988 65.0057 24 64.5617 24H64.4417ZM67.5458 24C67.1018 24 67.0418 23.976 67.0418 23.868V15.36H69.0578C71.2658 15.36 72.7057 15.984 72.7057 17.988C72.7057 19.824 71.4338 20.76 69.4538 20.76C69.0818 20.76 68.6378 20.736 68.1938 20.676V23.868C68.1938 23.988 68.1098 24 67.6658 24H67.5458ZM69.3218 19.836C70.7738 19.836 71.5418 19.236 71.5418 18.024C71.5418 16.644 70.5578 16.284 69.1178 16.284H68.1938V19.764C68.6018 19.824 69.0578 19.836 69.3218 19.836Z" fill="white"/>
<path d="M13.944 55C13.752 55 13.68 54.904 13.68 54.016V53.8C13.68 52.912 13.752 52.792 13.944 52.792H16.968V40.744L13.776 42.328C13.488 42.472 13.344 42.4 12.96 41.56L12.84 41.296C12.48 40.528 12.528 40.408 12.792 40.264L17.016 38.128C17.688 37.792 17.952 37.72 18.552 37.72H19.032C19.68 37.72 19.8 37.792 19.8 38.032V52.792H22.536C22.728 52.792 22.8 52.912 22.8 53.8V54.016C22.8 54.904 22.728 55 22.536 55H13.944ZM30.2484 55.24C26.2884 55.24 24.5844 52.192 24.5844 47.656C24.5844 41.92 27.0084 37.48 31.4244 37.48C32.7444 37.48 33.8964 37.888 34.6404 38.344C34.9524 38.536 34.9524 38.68 34.6404 39.256L34.3764 39.76C34.0884 40.336 33.9684 40.36 33.7284 40.264C33.0084 39.928 32.2884 39.736 31.5444 39.736C29.0004 39.736 27.9444 42.232 27.5844 45.208C28.5204 44.536 29.7684 44.056 30.9924 44.056C34.0884 44.056 35.9124 46.216 35.9124 49.288C35.9124 52.504 33.7764 55.24 30.2484 55.24ZM30.3444 52.96C32.0004 52.96 33.1044 51.52 33.1044 49.456C33.1044 47.584 32.2884 46.288 30.3444 46.288C29.3844 46.288 28.2564 46.72 27.4644 47.248C27.4884 51.112 28.3524 52.96 30.3444 52.96ZM46.0358 55.24C40.4918 55.24 37.8278 51.808 37.8278 46.408C37.8278 40.984 40.9238 37.48 46.2758 37.48C48.3398 37.48 50.0918 37.96 51.6038 38.968C51.8678 39.136 51.8678 39.28 51.4598 40L51.1718 40.504C50.8118 41.128 50.6918 41.176 50.3798 41.008C49.1558 40.288 47.8358 39.952 46.4438 39.952C42.8438 39.952 40.8518 42.208 40.8518 46.36C40.8518 50.584 42.7478 52.792 46.3478 52.792C47.2838 52.792 48.4118 52.624 49.2038 52.384V47.872H45.8198C45.5318 47.872 45.4358 47.8 45.4358 46.768V46.6C45.4358 45.568 45.5078 45.52 45.8198 45.52H51.2438C51.9878 45.52 52.1078 45.592 52.1078 45.88V53.656C52.1078 53.92 52.0358 54.04 51.7718 54.16C50.4758 54.784 48.0758 55.24 46.0358 55.24ZM56.4788 55C55.7108 55 55.5908 54.952 55.5428 54.76V37.96C55.5428 37.744 55.7108 37.72 56.4548 37.72H60.6068C64.5908 37.72 66.9668 38.992 66.9668 42.04C66.9668 43.936 65.8868 45.16 64.3748 45.808C66.5348 46.36 67.9508 47.728 67.9508 49.936C67.9508 53.656 65.0948 55 60.9668 55H56.4788ZM58.4948 45.016H60.5348C62.7188 45.016 64.0388 44.248 64.0388 42.448C64.0388 40.6 62.7908 40.024 60.6308 40.024H58.4948V45.016ZM58.4948 52.696H60.9668C63.5348 52.696 64.9508 51.976 64.9508 49.936C64.9508 47.848 63.5108 47.224 61.0148 47.224H58.4948V52.696Z" fill="#FAB932"/>
<path d="M26.016 80.64C26.184 80.904 25.944 81 25.272 81H24.624C23.784 81 23.616 80.976 23.448 80.712L20.448 75.792C19.392 74.064 19.032 73.944 17.328 73.944H16.2V80.736C16.2 80.976 16.032 81 15.144 81H14.904C14.016 81 13.896 80.952 13.896 80.736V63.72H18.288C22.8 63.72 25.344 65.04 25.344 68.544C25.344 71.208 23.832 72.816 21.288 73.584C21.72 73.92 22.104 74.448 22.704 75.384L26.016 80.64ZM18.624 72.12C21.336 72.12 22.968 71.088 22.968 68.688C22.968 66.288 21.384 65.568 18.504 65.568H16.2V72.12H18.624ZM39.2691 76.368C39.2691 78.864 37.5171 80.712 34.5891 81.144V83.304C34.5891 83.496 34.3731 83.568 33.8211 83.568H33.3651C32.7651 83.568 32.5731 83.496 32.5731 83.304V81.216C30.7251 81.096 28.9011 80.496 27.9651 79.776C27.7491 79.608 27.7011 79.464 28.0611 78.816L28.2051 78.552C28.4931 78.024 28.6371 77.952 28.8531 78.072C30.1251 78.84 31.6131 79.344 33.1011 79.344C35.5011 79.344 36.9891 78.144 36.9891 76.368C36.9891 74.856 36.0051 74.232 33.0291 72.888C29.8611 71.448 28.5891 70.2 28.5891 68.016C28.5891 65.568 30.5331 63.912 33.1011 63.552V61.584C33.1011 61.392 33.3171 61.32 33.8691 61.32H34.3251C34.9251 61.32 35.1171 61.392 35.1171 61.584V63.528C36.4371 63.648 37.5891 64.032 38.5731 64.68C38.8371 64.848 38.8371 64.944 38.5251 65.568L38.4051 65.808C38.0931 66.432 37.9971 66.456 37.7331 66.312C36.5331 65.688 35.4291 65.352 34.2531 65.352C32.3091 65.352 30.8691 66.384 30.8691 67.896C30.8691 69.312 31.8771 69.984 34.4451 71.184C37.6131 72.672 39.2691 73.824 39.2691 76.368ZM45.3748 81.24C44.0308 81.24 42.5668 80.928 41.3668 80.376C41.2468 80.328 41.1988 80.136 41.4148 79.56L41.5828 79.152C41.7748 78.672 41.9428 78.552 42.0628 78.6C43.0228 79.08 44.3188 79.344 45.3268 79.344C47.3668 79.344 48.9988 78.24 48.9988 76.104C48.9988 73.8 46.9108 72.816 44.6788 72.816H43.7428C43.5988 72.816 43.5508 72.72 43.5508 72.12V71.712C43.5508 71.112 43.5988 71.016 43.7428 71.016H44.6548C46.6948 71.016 48.3988 70.152 48.3988 68.04C48.3988 66.072 46.9588 65.304 45.3508 65.304C44.4388 65.304 43.3108 65.544 42.3988 66.048C42.2788 66.12 42.1348 66.024 41.9188 65.544L41.7508 65.184C41.5348 64.728 41.5828 64.512 41.7028 64.44C42.7828 63.864 44.1268 63.48 45.5188 63.48C48.1588 63.48 50.6548 64.896 50.6548 67.872C50.6548 69.792 49.5748 71.328 48.0868 71.808C49.6228 72.096 51.3028 73.464 51.3028 76.032C51.3028 79.512 48.4228 81.24 45.3748 81.24ZM59.6659 81.24C56.1859 81.24 54.0499 78.48 54.0499 72.72C54.0499 66.72 56.2819 63.48 60.0739 63.48C63.5299 63.48 65.6899 66.144 65.6899 71.976C65.6899 77.904 63.5059 81.24 59.6659 81.24ZM59.7619 79.344C62.1139 79.344 63.4099 76.752 63.4099 72.096C63.4099 67.68 62.2099 65.376 59.9779 65.376C57.6979 65.376 56.3539 67.848 56.3539 72.552C56.3539 76.968 57.5059 79.344 59.7619 79.344Z" fill="white"/>
<path d="M67.516 79.204C67.228 79.204 67.12 79.156 67.144 79.06L69.784 70.264C69.82 70.156 69.928 70.144 70.204 70.144H70.432C70.72 70.144 70.84 70.192 70.816 70.288L68.188 79.084C68.164 79.168 68.032 79.204 67.756 79.204H67.516ZM73.4569 79.12C72.7849 79.12 72.0529 78.964 71.4529 78.688C71.3929 78.664 71.3689 78.568 71.4769 78.28L71.5609 78.076C71.6569 77.836 71.7409 77.776 71.8009 77.8C72.2809 78.04 72.9289 78.172 73.4329 78.172C74.4529 78.172 75.2689 77.62 75.2689 76.552C75.2689 75.4 74.2249 74.908 73.1089 74.908H72.6409C72.5689 74.908 72.5449 74.86 72.5449 74.56V74.356C72.5449 74.056 72.5689 74.008 72.6409 74.008H73.0969C74.1169 74.008 74.9689 73.576 74.9689 72.52C74.9689 71.536 74.2489 71.152 73.4449 71.152C72.9889 71.152 72.4249 71.272 71.9689 71.524C71.9089 71.56 71.8369 71.512 71.7289 71.272L71.6449 71.092C71.5369 70.864 71.5609 70.756 71.6209 70.72C72.1609 70.432 72.8329 70.24 73.5289 70.24C74.8489 70.24 76.0969 70.948 76.0969 72.436C76.0969 73.396 75.5569 74.164 74.8129 74.404C75.5809 74.548 76.4209 75.232 76.4209 76.516C76.4209 78.256 74.9809 79.12 73.4569 79.12ZM80.6025 79.12C78.8625 79.12 77.7945 77.74 77.7945 74.86C77.7945 71.86 78.9105 70.24 80.8065 70.24C82.5345 70.24 83.6145 71.572 83.6145 74.488C83.6145 77.452 82.5225 79.12 80.6025 79.12ZM80.6505 78.172C81.8265 78.172 82.4745 76.876 82.4745 74.548C82.4745 72.34 81.8745 71.188 80.7585 71.188C79.6185 71.188 78.9465 72.424 78.9465 74.776C78.9465 76.984 79.5225 78.172 80.6505 78.172ZM90.2877 79.12C88.7037 79.12 87.7197 77.932 87.7197 75.964C87.7197 74.164 88.6557 72.544 90.6357 72.544C91.1277 72.544 91.6917 72.736 91.9917 72.94V70.036C91.9917 69.916 92.0997 69.88 92.5077 69.88H92.5797C92.9637 69.88 93.0717 69.916 93.0717 70.036V77.5C93.0717 78.1 93.1677 78.148 93.4917 78.148C93.5637 78.148 93.5997 78.22 93.5997 78.472V78.556C93.5997 78.844 93.5637 78.928 93.4917 78.952C93.3237 79.012 93.1677 79.024 92.9637 79.024C92.6037 79.024 92.2797 78.796 92.1357 78.328H92.1237C91.8237 78.736 91.1517 79.12 90.2877 79.12ZM90.5037 78.16C90.9117 78.16 91.3677 78.028 91.6437 77.752C91.9197 77.476 91.9917 77.08 91.9917 76.072V73.972C91.6917 73.72 91.1757 73.528 90.6957 73.528C89.5677 73.528 88.8477 74.476 88.8477 75.928C88.8477 77.404 89.5677 78.16 90.5037 78.16ZM95.5806 71.476C95.1606 71.476 94.8246 71.14 94.8246 70.72C94.8246 70.3 95.1606 69.964 95.5806 69.964C96.0006 69.964 96.3366 70.3 96.3366 70.72C96.3366 71.14 96.0006 71.476 95.5806 71.476ZM95.5566 79C95.0766 79 95.0406 78.952 95.0406 78.856V72.808C95.0406 72.712 95.0766 72.664 95.5566 72.664H95.6286C96.1086 72.664 96.1206 72.724 96.1206 72.808V78.856C96.1206 78.94 96.1086 79 95.6286 79H95.5566ZM100.131 79.12C98.3794 79.12 97.5634 77.668 97.5634 75.94C97.5634 73.888 98.7394 72.544 100.323 72.544C101.043 72.544 101.607 72.88 101.943 73.312L102.003 72.808C102.015 72.664 102.075 72.664 102.435 72.664H102.459C102.915 72.664 102.927 72.712 102.927 72.808C102.927 73.096 102.903 73.864 102.903 74.632V76.312C102.903 77.416 102.951 78.196 102.987 78.856C102.987 78.952 102.927 79 102.555 79H102.507C102.135 79 102.063 78.964 102.051 78.856L101.979 78.304C101.595 78.772 100.911 79.12 100.131 79.12ZM100.323 78.16C100.719 78.16 101.199 78.04 101.523 77.692C101.775 77.416 101.823 77.08 101.823 76.036V74.332C101.547 73.9 101.007 73.516 100.443 73.516C99.3394 73.516 98.6914 74.44 98.6914 75.88C98.6914 77.008 99.0874 78.16 100.323 78.16ZM106.4 79.12C105.632 79.12 104.888 78.844 104.432 78.52C104.312 78.436 104.348 78.364 104.48 78.088L104.54 77.956C104.696 77.62 104.744 77.608 104.9 77.704C105.356 77.968 105.932 78.184 106.46 78.184C107.012 78.184 107.78 77.908 107.78 77.212C107.78 76.564 107.012 76.348 106.4 76.216C105.764 76.072 105.296 75.904 104.972 75.604C104.672 75.328 104.492 74.908 104.492 74.44C104.492 73.264 105.512 72.544 106.712 72.544C107.468 72.544 108.164 72.808 108.608 73.204C108.704 73.288 108.728 73.396 108.56 73.636L108.476 73.756C108.26 74.068 108.2 74.068 108.116 73.996C107.672 73.684 107.252 73.468 106.724 73.468C106.232 73.468 105.524 73.66 105.524 74.32C105.524 74.968 106.196 75.136 106.772 75.28C107.756 75.532 108.8 75.892 108.8 77.14C108.8 78.424 107.72 79.12 106.4 79.12Z" fill="white"/>
<g clip-path="url(#clip0_2811_743)">
<path d="M17.348 105C16.956 105 16.746 104.958 16.746 104.846V102.438H13.022C12.658 102.438 12.532 102.396 12.532 102.242V101.626C12.532 101.374 12.602 101.094 12.7 100.87L15.5 95.088C15.556 94.962 15.794 94.92 16.13 94.92H16.354C16.704 94.92 16.942 94.99 16.886 95.116L13.904 101.318H16.746V99.092C16.746 98.98 16.956 98.938 17.32 98.938H17.474C17.866 98.938 18.076 98.98 18.076 99.092V101.318H19.21C19.308 101.318 19.336 101.472 19.336 101.78V101.962C19.336 102.284 19.308 102.438 19.21 102.438H18.076V104.846C18.076 104.958 17.866 105 17.502 105H17.348ZM25.361 105.14C22.141 105.14 20.573 103.096 20.573 100.016C20.573 96.88 22.351 94.78 25.403 94.78C26.565 94.78 27.573 95.046 28.427 95.606C28.567 95.69 28.553 95.774 28.385 96.082L28.259 96.306C28.105 96.572 28.049 96.614 27.909 96.544C27.125 96.124 26.355 95.914 25.459 95.914C23.233 95.914 21.973 97.37 21.973 99.96C21.973 102.606 23.191 104.02 25.487 104.02C26.145 104.02 26.901 103.88 27.419 103.712V100.688H25.165C25.039 100.688 24.997 100.632 24.997 100.184V100.114C24.997 99.652 25.025 99.61 25.165 99.61H28.735V104.454C27.727 104.888 26.481 105.14 25.361 105.14ZM30.7564 105V94.92H33.6684C35.8664 94.92 37.2244 95.62 37.2244 97.44C37.2244 98.602 36.4684 99.316 35.6144 99.652C36.9304 99.904 37.7984 100.73 37.7984 102.144C37.7984 104.188 36.1744 105 33.8924 105H30.7564ZM32.1004 99.302H33.5844C34.9704 99.302 35.8804 98.798 35.8804 97.608C35.8804 96.306 35.0264 95.984 33.6684 95.984H32.1004V99.302ZM32.1004 103.936H33.8364C35.4184 103.936 36.4264 103.474 36.4264 102.116C36.4264 101.472 36.2024 101.024 35.7964 100.744C35.3484 100.422 34.6624 100.31 33.7944 100.31H32.1004V103.936ZM46.0014 105.14C43.7334 105.14 42.5714 103.726 42.5714 101.472C42.5714 99.12 43.8594 97.468 45.9314 97.468C47.1774 97.468 48.0314 98.084 48.4934 99.008C48.8154 99.652 48.9554 100.422 48.9554 101.248C48.9554 101.668 48.9274 101.752 48.8154 101.752H43.8874C43.9294 102.522 44.1534 103.124 44.5874 103.488C44.9654 103.824 45.5114 103.992 46.2394 103.992C46.8274 103.992 47.4154 103.852 48.0874 103.544C48.2134 103.488 48.2974 103.46 48.4374 103.81L48.5074 103.978C48.6614 104.342 48.6474 104.426 48.5354 104.496C47.8214 104.916 46.9394 105.14 46.0014 105.14ZM43.9294 100.716H47.6674C47.6534 99.666 47.1214 98.616 45.9454 98.616C44.9234 98.616 44.1254 99.274 43.9294 100.716ZM50.5679 105C50.0219 105 49.8539 104.944 49.9519 104.804L52.3459 101.15L50.2039 97.776C50.1199 97.65 50.2739 97.608 50.8479 97.608C51.4779 97.608 51.5899 97.622 51.6739 97.762L53.0879 100.072L54.4739 97.762C54.5439 97.636 54.7399 97.608 55.2439 97.608C55.7899 97.608 55.9579 97.664 55.8599 97.804L53.7599 101.052L56.2239 104.832C56.3079 104.958 56.1399 105 55.5659 105C54.9359 105 54.8519 104.972 54.7539 104.846L53.0179 102.102L51.3379 104.846C51.2539 104.958 51.0719 105 50.5679 105ZM60.2833 105.14C58.1413 105.14 57.0773 103.502 57.0773 101.416C57.0773 98.854 58.5753 97.468 60.5213 97.468C61.4033 97.468 62.1873 97.776 62.7753 98.196C62.8873 98.28 62.8873 98.378 62.6913 98.84C62.4813 99.316 62.3413 99.274 62.2433 99.204C61.7253 98.854 61.1513 98.616 60.5913 98.616C59.2893 98.616 58.3933 99.596 58.3933 101.332C58.3933 102.676 58.9393 103.992 60.4513 103.992C61.0393 103.992 61.6833 103.824 62.2293 103.558C62.3413 103.502 62.4813 103.544 62.5933 103.838L62.6633 104.02C62.8033 104.356 62.7613 104.454 62.6633 104.51C61.9633 104.902 61.1513 105.14 60.2833 105.14ZM65.5515 105.014C65.1595 105.014 64.7675 104.916 64.5155 104.538C64.3335 104.272 64.2775 103.81 64.2775 103.068V98.378C64.2775 96.908 64.2635 95.088 64.1935 94.542C64.1795 94.402 64.3195 94.36 64.7955 94.36H64.8795C65.3275 94.36 65.4255 94.402 65.4535 94.542C65.5235 94.934 65.5375 96.614 65.5375 98.686V103.334C65.5375 103.852 65.6075 104.034 66.0695 104.034H66.2095C66.2795 104.034 66.2935 104.09 66.2935 104.412V104.454C66.2935 104.818 66.2935 104.874 66.2095 104.902C66.0135 104.972 65.7615 105.014 65.5515 105.014ZM70.3656 105.14C69.6096 105.14 68.9656 104.888 68.5036 104.398C68.0136 103.88 67.8176 103.152 67.8176 102.018V97.776C67.8176 97.678 67.8456 97.608 68.3776 97.608H68.4896C69.0216 97.608 69.0776 97.664 69.0776 97.776V101.444C69.0776 102.55 69.1196 103.124 69.4276 103.502C69.6796 103.81 70.0996 103.978 70.6736 103.978C71.2196 103.978 71.8636 103.796 72.1996 103.474C72.4936 103.194 72.6476 102.774 72.6476 101.234V97.776C72.6476 97.678 72.7316 97.608 73.2076 97.608H73.3336C73.8096 97.608 73.9076 97.664 73.9076 97.776V102.55C73.9076 103.502 73.9356 104.482 73.9356 104.832C73.9356 104.944 73.8936 105 73.3616 105H73.3056C72.8156 105 72.7316 104.944 72.7316 104.832L72.7036 104.23H72.6896C72.1716 104.804 71.4016 105.14 70.3656 105.14ZM77.9823 105.14C77.0863 105.14 76.2183 104.818 75.6863 104.44C75.5463 104.342 75.5883 104.258 75.7423 103.936L75.8123 103.782C75.9943 103.39 76.0503 103.376 76.2323 103.488C76.7643 103.796 77.4363 104.048 78.0523 104.048C78.6963 104.048 79.5923 103.726 79.5923 102.914C79.5923 102.158 78.6963 101.906 77.9823 101.752C77.2403 101.584 76.6943 101.388 76.3163 101.038C75.9663 100.716 75.7563 100.226 75.7563 99.68C75.7563 98.308 76.9463 97.468 78.3463 97.468C79.2283 97.468 80.0403 97.776 80.5583 98.238C80.6703 98.336 80.6983 98.462 80.5023 98.742L80.4043 98.882C80.1523 99.246 80.0823 99.246 79.9843 99.162C79.4663 98.798 78.9763 98.546 78.3603 98.546C77.7863 98.546 76.9603 98.77 76.9603 99.54C76.9603 100.296 77.7443 100.492 78.4163 100.66C79.5643 100.954 80.7823 101.374 80.7823 102.83C80.7823 104.328 79.5223 105.14 77.9823 105.14ZM83.0784 96.222C82.5884 96.222 82.1964 95.83 82.1964 95.34C82.1964 94.85 82.5884 94.458 83.0784 94.458C83.5684 94.458 83.9604 94.85 83.9604 95.34C83.9604 95.83 83.5684 96.222 83.0784 96.222ZM83.0504 105C82.4904 105 82.4484 104.944 82.4484 104.832V97.776C82.4484 97.664 82.4904 97.608 83.0504 97.608H83.1344C83.6944 97.608 83.7084 97.678 83.7084 97.776V104.832C83.7084 104.93 83.6944 105 83.1344 105H83.0504ZM88.2337 105C87.6877 105 87.5757 104.972 87.5197 104.832L84.9577 97.804C84.9017 97.636 85.0557 97.608 85.5737 97.608C86.0777 97.608 86.2737 97.65 86.3157 97.762L88.3317 103.572H88.3457C89.0317 101.71 89.7037 99.722 90.1377 97.748C90.1657 97.636 90.1797 97.608 90.7257 97.608C91.2857 97.608 91.3977 97.622 91.3417 97.874C90.6837 100.548 89.7737 103.068 88.9757 104.832C88.9057 104.986 88.7937 105 88.2337 105ZM95.2969 105.14C94.4429 105.14 93.7289 104.916 93.1969 104.44C92.4969 103.824 92.0909 102.788 92.0909 101.472C92.0909 98.826 93.4769 97.468 95.5769 97.468C96.4309 97.468 97.1449 97.692 97.6769 98.168C98.3769 98.784 98.7829 99.82 98.7829 101.136C98.7829 103.782 97.3969 105.14 95.2969 105.14ZM95.3529 104.02C96.4729 104.02 97.4669 103.236 97.4669 101.234C97.4669 99.974 97.0469 98.588 95.5209 98.588C94.4009 98.588 93.4069 99.372 93.4069 101.374C93.4069 102.634 93.8269 104.02 95.3529 104.02ZM102.414 105.14C101.518 105.14 100.65 104.818 100.118 104.44C99.978 104.342 100.02 104.258 100.174 103.936L100.244 103.782C100.426 103.39 100.482 103.376 100.664 103.488C101.196 103.796 101.868 104.048 102.484 104.048C103.128 104.048 104.024 103.726 104.024 102.914C104.024 102.158 103.128 101.906 102.414 101.752C101.672 101.584 101.126 101.388 100.748 101.038C100.398 100.716 100.188 100.226 100.188 99.68C100.188 98.308 101.378 97.468 102.778 97.468C103.66 97.468 104.472 97.776 104.99 98.238C105.102 98.336 105.13 98.462 104.934 98.742L104.836 98.882C104.584 99.246 104.514 99.246 104.416 99.162C103.898 98.798 103.408 98.546 102.792 98.546C102.218 98.546 101.392 98.77 101.392 99.54C101.392 100.296 102.176 100.492 102.848 100.66C103.996 100.954 105.214 101.374 105.214 102.83C105.214 104.328 103.954 105.14 102.414 105.14ZM113.628 97.468C115.476 97.468 116.61 98.854 116.61 101.15C116.61 103.25 115.504 105.126 113.194 105.126C112.648 105.126 112.018 104.93 111.668 104.692V108.066C111.668 108.206 111.542 108.248 111.066 108.248H110.982C110.534 108.248 110.408 108.206 110.408 108.066V100.058C110.408 99.106 110.38 98.126 110.38 97.776C110.38 97.664 110.422 97.608 110.954 97.608H111.01C111.514 97.608 111.598 97.65 111.598 97.776L111.612 98.392C112.046 97.846 112.872 97.468 113.628 97.468ZM113.124 103.992C114.44 103.992 115.294 102.886 115.294 101.192C115.294 99.498 114.51 98.602 113.418 98.602C112.858 98.602 112.214 98.854 111.934 99.218C111.682 99.54 111.668 99.904 111.668 101.29V103.46C112.018 103.754 112.564 103.992 113.124 103.992ZM120.872 105.14C118.828 105.14 117.876 103.446 117.876 101.43C117.876 99.036 119.248 97.468 121.096 97.468C121.936 97.468 122.594 97.86 122.986 98.364L123.056 97.776C123.07 97.608 123.14 97.608 123.56 97.608H123.588C124.12 97.608 124.134 97.664 124.134 97.776C124.134 98.112 124.106 99.008 124.106 99.904V101.864C124.106 103.152 124.162 104.062 124.204 104.832C124.204 104.944 124.134 105 123.7 105H123.644C123.21 105 123.126 104.958 123.112 104.832L123.028 104.188C122.58 104.734 121.782 105.14 120.872 105.14ZM121.096 104.02C121.558 104.02 122.118 103.88 122.496 103.474C122.79 103.152 122.846 102.76 122.846 101.542V99.554C122.524 99.05 121.894 98.602 121.236 98.602C119.948 98.602 119.192 99.68 119.192 101.36C119.192 102.676 119.654 104.02 121.096 104.02ZM126.869 105C126.309 105 126.267 104.944 126.267 104.832V100.058C126.267 99.106 126.239 98.126 126.239 97.776C126.239 97.664 126.281 97.608 126.813 97.608H126.883C127.387 97.608 127.457 97.65 127.457 97.776L127.485 99.218C128.017 98.042 128.787 97.524 129.529 97.524C129.655 97.524 129.753 97.538 129.823 97.552C129.949 97.58 129.963 97.622 129.963 97.944V98.154C129.963 98.56 129.949 98.672 129.809 98.672C128.815 98.672 128.311 99.288 127.905 99.946C127.709 100.268 127.597 100.66 127.569 101.15C127.541 101.542 127.527 102.41 127.527 103.222V104.832C127.527 104.93 127.513 105 126.953 105H126.869ZM133.628 105.14C131.584 105.14 130.632 103.446 130.632 101.43C130.632 99.036 132.004 97.468 133.852 97.468C134.692 97.468 135.35 97.86 135.742 98.364L135.812 97.776C135.826 97.608 135.896 97.608 136.316 97.608H136.344C136.876 97.608 136.89 97.664 136.89 97.776C136.89 98.112 136.862 99.008 136.862 99.904V101.864C136.862 103.152 136.918 104.062 136.96 104.832C136.96 104.944 136.89 105 136.456 105H136.4C135.966 105 135.882 104.958 135.868 104.832L135.784 104.188C135.336 104.734 134.538 105.14 133.628 105.14ZM133.852 104.02C134.314 104.02 134.874 103.88 135.252 103.474C135.546 103.152 135.602 102.76 135.602 101.542V99.554C135.28 99.05 134.65 98.602 133.992 98.602C132.704 98.602 131.948 99.68 131.948 101.36C131.948 102.676 132.41 104.02 133.852 104.02ZM139.681 99.918C139.163 99.918 138.743 99.498 138.743 98.98C138.743 98.462 139.163 98.042 139.681 98.042C140.199 98.042 140.619 98.462 140.619 98.98C140.619 99.498 140.199 99.918 139.681 99.918ZM139.681 105.14C139.163 105.14 138.743 104.72 138.743 104.202C138.743 103.684 139.163 103.264 139.681 103.264C140.199 103.264 140.619 103.684 140.619 104.202C140.619 104.72 140.199 105.14 139.681 105.14Z" fill="white"/>
<rect x="12" y="113" width="24" height="24" rx="12" fill="#1877F2"/>
<path d="M32 124.803C32 120.493 28.4236 117 24 117C19.5764 117 16 120.493 16 124.803C16 128.69 18.9261 131.915 22.7487 132.5V127.049H20.7193V124.803H22.7487V123.085C22.7487 121.127 23.9409 120.052 25.7734 120.052C26.6503 120.052 27.5665 120.205 27.5665 120.205V122.115H26.5517C25.5566 122.115 25.2513 122.72 25.2513 123.334V124.803H27.468L27.1133 127.049H25.2513V132.5C29.0739 131.915 32 128.69 32 124.803Z" fill="white"/>
<rect x="40" y="113" width="24" height="24" rx="12" fill="url(#paint0_linear_2811_743)"/>
<path d="M52 119.67C53.7388 119.67 53.9419 119.678 54.6244 119.711C55.2581 119.743 55.6075 119.849 55.835 119.938C56.1194 120.036 56.3713 120.206 56.5825 120.418C56.7938 120.629 56.9644 120.889 57.07 121.173C57.1594 121.401 57.265 121.742 57.2894 122.376C57.3219 123.058 57.33 123.269 57.33 125C57.33 126.739 57.3219 126.942 57.2894 127.632C57.265 128.258 57.1594 128.607 57.07 128.835C56.9562 129.119 56.7938 129.371 56.5825 129.582C56.3713 129.794 56.1112 129.964 55.835 130.07C55.6075 130.159 55.2581 130.265 54.6244 130.289C53.9419 130.322 53.7388 130.33 52 130.33C50.2694 130.33 50.0581 130.322 49.3756 130.289C48.7419 130.265 48.4006 130.159 48.165 130.07C47.8888 129.964 47.6287 129.802 47.4175 129.582C47.2062 129.371 47.0356 129.119 46.93 128.835C46.8406 128.607 46.735 128.258 46.7106 127.624C46.6781 126.942 46.67 126.739 46.67 125C46.67 123.269 46.6781 123.058 46.7106 122.376C46.735 121.742 46.8406 121.401 46.93 121.165C47.0356 120.889 47.2062 120.629 47.4175 120.418C47.6287 120.206 47.8888 120.036 48.165 119.938C48.4006 119.849 48.7419 119.743 49.3756 119.711C50.0581 119.678 50.2694 119.67 52 119.67ZM52 118.5C50.2369 118.5 50.0175 118.508 49.3187 118.541C48.6281 118.573 48.1569 118.687 47.7425 118.841C47.3119 119.004 46.9137 119.264 46.5887 119.597C46.2637 119.922 46.0038 120.312 45.8413 120.743C45.6788 121.157 45.5732 121.628 45.5407 122.319C45.5082 123.017 45.5 123.237 45.5 125C45.5 126.763 45.5082 126.991 45.5407 127.681C45.5732 128.372 45.6788 128.843 45.8413 129.257C46.0038 129.688 46.2637 130.086 46.5887 130.411C46.9137 130.736 47.3119 130.996 47.7425 131.159C48.1569 131.321 48.6281 131.427 49.3187 131.459C50.0093 131.492 50.2369 131.5 52 131.5C53.7631 131.5 53.9825 131.492 54.6813 131.459C55.3719 131.427 55.8431 131.321 56.2575 131.159C56.6881 130.988 57.0782 130.736 57.4113 130.411C57.7363 130.086 57.9881 129.688 58.1587 129.257C58.3212 128.843 58.4268 128.372 58.4593 127.681C58.4918 126.991 58.5 126.763 58.5 125C58.5 123.237 58.4918 123.017 58.4593 122.319C58.4268 121.628 58.3212 121.157 58.1587 120.743C57.9962 120.312 57.7363 119.922 57.4113 119.597C57.0863 119.264 56.6881 119.012 56.2575 118.841C55.8431 118.687 55.3719 118.573 54.6813 118.541C53.9907 118.508 53.7631 118.5 52 118.5Z" fill="white"/>
<path d="M52.0011 121.669C51.343 121.669 50.7011 121.864 50.1486 122.229C49.5961 122.595 49.1735 123.115 48.9217 123.724C48.6698 124.334 48.5967 125.008 48.7267 125.65C48.8567 126.3 49.1736 126.893 49.6448 127.364C50.1079 127.827 50.701 128.144 51.351 128.274C52.001 128.404 52.6673 128.339 53.2767 128.088C53.886 127.836 54.4142 127.405 54.7799 126.852C55.1455 126.308 55.3404 125.666 55.3404 125C55.3404 124.561 55.2511 124.131 55.0886 123.724C54.918 123.318 54.6742 122.953 54.3655 122.644C54.0567 122.335 53.6829 122.083 53.2767 121.921C52.8785 121.75 52.4398 121.669 52.0011 121.669ZM52.0011 127.169C51.5705 127.169 51.1561 127.039 50.7986 126.804C50.4411 126.568 50.1649 126.227 50.0024 125.829C49.8399 125.439 49.7911 125 49.8805 124.577C49.9617 124.155 50.1648 123.773 50.4736 123.473C50.7742 123.164 51.1561 122.961 51.5786 122.879C52.0011 122.79 52.4398 122.839 52.8298 123.001C53.228 123.164 53.5692 123.44 53.8048 123.797C54.0404 124.155 54.1705 124.569 54.1705 125C54.1705 125.577 53.943 126.129 53.5367 126.536C53.1305 126.942 52.578 127.169 52.0011 127.169Z" fill="white"/>
<path d="M55.4695 122.311C55.9002 122.311 56.2495 121.961 56.2495 121.531C56.2495 121.1 55.9002 120.751 55.4695 120.751C55.0389 120.751 54.6896 121.1 54.6896 121.531C54.6896 121.961 55.0389 122.311 55.4695 122.311Z" fill="white"/>
<rect x="68" y="113" width="24" height="24" rx="12" fill="white"/>
<g clip-path="url(#clip1_2811_743)">
<path d="M74.0305 119L78.8563 125.62L74 131H75.093L79.3449 126.289L82.7813 131.001H86.4997L81.4021 124.009L85.9225 119H84.8295L80.9138 123.338L77.7498 119H74.0305ZM75.6379 119.826H77.3466L84.8916 130.174H83.1834L75.6379 119.826Z" fill="black"/>
</g>
</g>
<defs>
<linearGradient id="paint0_linear_2811_743" x1="43.25" y1="114.75" x2="60.5" y2="135" gradientUnits="userSpaceOnUse">
<stop stop-color="#C13CAE"/>
<stop offset="1" stop-color="#FF7000"/>
</linearGradient>
<clipPath id="clip0_2811_743">
<rect width="132" height="46" fill="white" transform="translate(12 91)"/>
</clipPath>
<clipPath id="clip1_2811_743">
<rect width="12.5" height="12" fill="white" transform="translate(74 119)"/>
</clipPath>
</defs>
</svg>
