<svg width="156" height="188" viewBox="0 0 156 188" fill="none" xmlns="http://www.w3.org/2000/svg">
<rect x="0.5" y="0.5" width="155" height="187" rx="11.5" fill="#002198"/>
<rect x="0.5" y="0.5" width="155" height="187" rx="11.5" stroke="#5270FE"/>
<path d="M15.348 24C14.916 24 14.844 23.976 14.844 23.868V16.284H12.336C12.228 16.284 12.192 16.224 12.192 15.852V15.78C12.192 15.42 12.216 15.36 12.336 15.36H18.504C18.624 15.36 18.648 15.42 18.648 15.792V15.852C18.648 16.224 18.612 16.284 18.504 16.284H15.996V23.868C15.996 23.988 15.9 24 15.456 24H15.348ZM20.3558 24C19.9118 24 19.8518 23.976 19.8518 23.868V15.492C19.8518 15.384 19.9118 15.36 20.3558 15.36H20.4758C20.9198 15.36 21.0038 15.372 21.0038 15.492V23.868C21.0038 23.988 20.9198 24 20.4758 24H20.3558ZM23.4958 24C23.0158 24 22.9558 23.988 22.9558 23.88V15.504C22.9558 15.384 23.0278 15.36 23.5198 15.36H23.7358C24.1918 15.36 24.2878 15.396 24.3358 15.504L26.0278 18.912C26.4358 19.74 26.8078 20.52 27.0838 21.18C27.3838 20.46 27.7558 19.608 28.0918 18.912L29.7598 15.504C29.8078 15.396 29.8918 15.36 30.3838 15.36H30.5398C31.0078 15.36 31.0798 15.384 31.0798 15.504V23.88C31.0798 23.988 31.0198 24 30.5758 24H30.4918C30.0238 24 29.9758 23.988 29.9758 23.88V19.896C29.9758 19.212 29.9878 17.832 29.9998 17.208C29.6998 17.952 29.2798 18.84 28.9078 19.596L27.5518 22.356C27.5038 22.452 27.4678 22.476 27.0718 22.476H27.0358C26.5918 22.476 26.5678 22.452 26.5198 22.356L25.1038 19.536C24.7198 18.768 24.3838 18.048 24.0358 17.208C24.0598 17.88 24.0598 19.14 24.0598 19.908V23.88C24.0598 23.988 24.0118 24 23.5558 24H23.4958ZM39.3833 24.12C36.9593 24.12 35.5553 22.44 35.5553 19.788C35.5553 16.824 37.2233 15.24 39.5513 15.24C40.4513 15.24 41.1953 15.42 41.8313 15.84C41.9633 15.924 41.9633 15.96 41.8073 16.26L41.7113 16.44C41.5673 16.704 41.5193 16.704 41.3993 16.644C40.7873 16.356 40.2353 16.212 39.6473 16.212C37.7873 16.212 36.7553 17.484 36.7553 19.728C36.7553 21.972 37.7513 23.148 39.6233 23.148C40.2713 23.148 40.9193 22.98 41.4713 22.752C41.6153 22.692 41.6513 22.728 41.7593 22.968L41.8433 23.16C41.9753 23.46 41.9633 23.508 41.8433 23.568C41.1593 23.916 40.3313 24.12 39.3833 24.12ZM45.3818 24.12C44.6498 24.12 44.0378 23.928 43.5818 23.52C42.9818 22.992 42.6338 22.104 42.6338 20.976C42.6338 18.708 43.8218 17.544 45.6217 17.544C46.3538 17.544 46.9658 17.736 47.4218 18.144C48.0218 18.672 48.3698 19.56 48.3698 20.688C48.3698 22.956 47.1818 24.12 45.3818 24.12ZM45.4298 23.16C46.3898 23.16 47.2418 22.488 47.2418 20.772C47.2418 19.692 46.8818 18.504 45.5738 18.504C44.6138 18.504 43.7618 19.176 43.7618 20.892C43.7618 21.972 44.1218 23.16 45.4298 23.16ZM50.3661 24C49.8861 24 49.8501 23.952 49.8501 23.856V19.764C49.8501 18.948 49.8261 18.108 49.8261 17.808C49.8261 17.712 49.8621 17.664 50.3181 17.664H50.3781C50.8101 17.664 50.8701 17.7 50.8701 17.808L50.8821 18.348H50.8941C51.3141 17.856 52.1061 17.544 52.8501 17.544C53.5101 17.544 54.0981 17.772 54.4941 18.18C54.9261 18.624 55.1061 19.248 55.1061 20.22V23.856C55.1061 23.94 55.0941 24 54.6141 24H54.5421C54.0621 24 54.0261 23.952 54.0261 23.856V20.724C54.0261 19.752 53.9901 19.296 53.7021 18.96C53.4741 18.684 53.0901 18.564 52.5621 18.564C52.1181 18.564 51.5781 18.72 51.2901 18.996C51.1461 19.128 51.0141 19.332 50.9661 19.848C50.9421 20.184 50.9301 20.796 50.9301 21.492V23.856C50.9301 23.94 50.9181 24 50.4381 24H50.3661ZM58.7184 24.12C58.1784 24.12 57.7824 23.976 57.5184 23.724C57.1704 23.4 57.0624 22.944 57.0624 22.14V18.516H56.0184C55.9464 18.516 55.9224 18.456 55.9224 18.24V18.168C55.9224 17.976 55.9464 17.904 56.0304 17.88C57.0744 17.58 57.2664 17.1 57.3864 15.984C57.3984 15.912 57.4584 15.888 57.7224 15.888H57.8064C58.0824 15.888 58.1424 15.924 58.1424 15.996V17.664H59.6544C59.7384 17.664 59.7624 17.724 59.7624 18.036V18.132C59.7624 18.456 59.7384 18.516 59.6544 18.516H58.1424V22.056C58.1424 22.512 58.1784 22.812 58.3344 22.98C58.4664 23.124 58.6704 23.196 58.9464 23.196C59.2224 23.196 59.5224 23.112 59.7624 23.04C59.8824 23.004 59.9184 23.052 59.9784 23.28L60.0144 23.436C60.0744 23.688 60.0744 23.76 59.9784 23.82C59.6784 24.012 59.1624 24.12 58.7184 24.12ZM61.7564 24C61.2764 24 61.2404 23.952 61.2404 23.856V19.764C61.2404 18.948 61.2164 18.108 61.2164 17.808C61.2164 17.712 61.2524 17.664 61.7084 17.664H61.7684C62.2004 17.664 62.2604 17.7 62.2604 17.808L62.2844 19.044C62.7404 18.036 63.4004 17.592 64.0364 17.592C64.1444 17.592 64.2284 17.604 64.2884 17.616C64.3964 17.64 64.4084 17.676 64.4084 17.952V18.132C64.4084 18.48 64.3964 18.576 64.2764 18.576C63.4244 18.576 62.9924 19.104 62.6444 19.668C62.4764 19.944 62.3804 20.28 62.3564 20.7C62.3324 21.036 62.3204 21.78 62.3204 22.476V23.856C62.3204 23.94 62.3084 24 61.8284 24H61.7564ZM67.7294 24.12C66.9974 24.12 66.3854 23.928 65.9294 23.52C65.3294 22.992 64.9814 22.104 64.9814 20.976C64.9814 18.708 66.1694 17.544 67.9694 17.544C68.7014 17.544 69.3134 17.736 69.7694 18.144C70.3694 18.672 70.7174 19.56 70.7174 20.688C70.7174 22.956 69.5294 24.12 67.7294 24.12ZM67.7774 23.16C68.7374 23.16 69.5894 22.488 69.5894 20.772C69.5894 19.692 69.2294 18.504 67.9214 18.504C66.9614 18.504 66.1094 19.176 66.1094 20.892C66.1094 21.972 66.4694 23.16 67.7774 23.16ZM73.2177 24.012C72.8817 24.012 72.5457 23.928 72.3297 23.604C72.1737 23.376 72.1257 22.98 72.1257 22.344V18.324C72.1257 17.064 72.1137 15.504 72.0537 15.036C72.0417 14.916 72.1617 14.88 72.5697 14.88H72.6417C73.0257 14.88 73.1097 14.916 73.1337 15.036C73.1937 15.372 73.2057 16.812 73.2057 18.588V22.572C73.2057 23.016 73.2657 23.172 73.6617 23.172H73.7817C73.8417 23.172 73.8537 23.22 73.8537 23.496V23.532C73.8537 23.844 73.8537 23.892 73.7817 23.916C73.6137 23.976 73.3977 24.012 73.2177 24.012ZM77.812 24.12C75.868 24.12 74.872 22.908 74.872 20.976C74.872 18.96 75.976 17.544 77.752 17.544C78.82 17.544 79.552 18.072 79.948 18.864C80.224 19.416 80.344 20.076 80.344 20.784C80.344 21.144 80.32 21.216 80.224 21.216H76C76.036 21.876 76.228 22.392 76.6 22.704C76.924 22.992 77.392 23.136 78.016 23.136C78.52 23.136 79.024 23.016 79.6 22.752C79.708 22.704 79.78 22.68 79.9 22.98L79.96 23.124C80.092 23.436 80.08 23.508 79.984 23.568C79.372 23.928 78.616 24.12 77.812 24.12ZM76.036 20.328H79.24C79.228 19.428 78.772 18.528 77.764 18.528C76.888 18.528 76.204 19.092 76.036 20.328Z" fill="white"/>
<path d="M12.732 44C12.264 44 12.216 43.976 12.264 43.844L15.468 35.528C15.516 35.384 15.576 35.36 16.08 35.36H16.14C16.656 35.36 16.716 35.372 16.788 35.528L20.04 43.844C20.088 43.964 19.992 44 19.536 44H19.416C18.936 44 18.852 43.976 18.792 43.856L18.012 41.72H14.22L13.428 43.856C13.38 43.976 13.296 44 12.84 44H12.732ZM14.532 40.82H17.688L17.316 39.8C16.86 38.576 16.452 37.436 16.128 36.44C15.78 37.412 15.348 38.6 14.916 39.764L14.532 40.82ZM23.0348 44.12C22.4948 44.12 22.0988 43.976 21.8348 43.724C21.4868 43.4 21.3788 42.944 21.3788 42.14V38.516H20.3348C20.2628 38.516 20.2388 38.456 20.2388 38.24V38.168C20.2388 37.976 20.2628 37.904 20.3468 37.88C21.3908 37.58 21.5828 37.1 21.7028 35.984C21.7148 35.912 21.7748 35.888 22.0388 35.888H22.1228C22.3988 35.888 22.4588 35.924 22.4588 35.996V37.664H23.9708C24.0548 37.664 24.0788 37.724 24.0788 38.036V38.132C24.0788 38.456 24.0548 38.516 23.9708 38.516H22.4588V42.056C22.4588 42.512 22.4948 42.812 22.6508 42.98C22.7828 43.124 22.9868 43.196 23.2628 43.196C23.5388 43.196 23.8388 43.112 24.0788 43.04C24.1988 43.004 24.2348 43.052 24.2948 43.28L24.3308 43.436C24.3908 43.688 24.3908 43.76 24.2948 43.82C23.9948 44.012 23.4788 44.12 23.0348 44.12ZM27.6819 36.908C27.2979 36.908 27.2739 36.836 27.3219 36.764L28.1979 35.228C28.2459 35.144 28.3899 35.096 28.7259 35.096H28.8699C29.3139 35.096 29.3979 35.18 29.3379 35.264L28.2099 36.8C28.1739 36.86 28.0659 36.908 27.7779 36.908H27.6819ZM28.0659 44.12C26.1219 44.12 25.1259 42.908 25.1259 40.976C25.1259 38.96 26.2299 37.544 28.0059 37.544C29.0739 37.544 29.8059 38.072 30.2019 38.864C30.4779 39.416 30.5979 40.076 30.5979 40.784C30.5979 41.144 30.5739 41.216 30.4779 41.216H26.2539C26.2899 41.876 26.4819 42.392 26.8539 42.704C27.1779 42.992 27.6459 43.136 28.2699 43.136C28.7739 43.136 29.2779 43.016 29.8539 42.752C29.9619 42.704 30.0339 42.68 30.1539 42.98L30.2139 43.124C30.3459 43.436 30.3339 43.508 30.2379 43.568C29.6259 43.928 28.8699 44.12 28.0659 44.12ZM26.2899 40.328H29.4939C29.4819 39.428 29.0259 38.528 28.0179 38.528C27.1419 38.528 26.4579 39.092 26.2899 40.328Z" fill="white"/>
<path d="M13.56 68C12.864 68 12.744 67.928 12.744 67.568V66.992C12.744 66.344 12.84 66.104 13.176 65.672L16.464 61.712C18.864 58.832 19.8 57.248 19.8 55.448C19.8 53.744 18.744 52.784 17.256 52.784C16.128 52.784 15.144 53.216 14.016 53.864C13.752 54.008 13.608 53.96 13.248 53.288L13.008 52.856C12.744 52.376 12.696 52.16 13.008 51.944C14.232 51.08 15.912 50.48 17.52 50.48C20.64 50.48 22.68 52.328 22.68 55.328C22.68 57.632 21.624 59.48 18.504 63.032L16.224 65.624H22.68C22.872 65.624 22.944 65.744 22.944 66.632V66.992C22.944 67.88 22.872 68 22.68 68H13.56ZM26.9291 68C26.0891 68 25.8971 67.928 26.0171 67.664L32.3051 53.096H24.6971C24.5051 53.096 24.4331 52.976 24.4331 52.088V51.728C24.4331 50.84 24.5051 50.72 24.6971 50.72H34.3211C35.0651 50.72 35.1851 50.816 35.1851 51.128V52.04C35.1851 52.544 35.1371 52.784 34.8251 53.504L28.9691 67.664C28.8491 67.952 28.6571 68 27.5771 68H26.9291ZM44.6998 68.24C39.1558 68.24 36.4918 64.808 36.4918 59.408C36.4918 53.984 39.5878 50.48 44.9398 50.48C47.0038 50.48 48.7558 50.96 50.2678 51.968C50.5318 52.136 50.5318 52.28 50.1238 53L49.8358 53.504C49.4758 54.128 49.3558 54.176 49.0438 54.008C47.8198 53.288 46.4998 52.952 45.1078 52.952C41.5078 52.952 39.5158 55.208 39.5158 59.36C39.5158 63.584 41.4118 65.792 45.0118 65.792C45.9478 65.792 47.0758 65.624 47.8678 65.384V60.872H44.4838C44.1958 60.872 44.0998 60.8 44.0998 59.768V59.6C44.0998 58.568 44.1718 58.52 44.4838 58.52H49.9078C50.6518 58.52 50.7718 58.592 50.7718 58.88V66.656C50.7718 66.92 50.6998 67.04 50.4358 67.16C49.1398 67.784 46.7398 68.24 44.6998 68.24ZM55.1428 68C54.3748 68 54.2548 67.952 54.2068 67.76V50.96C54.2068 50.744 54.3748 50.72 55.1188 50.72H59.2708C63.2548 50.72 65.6308 51.992 65.6308 55.04C65.6308 56.936 64.5508 58.16 63.0388 58.808C65.1988 59.36 66.6148 60.728 66.6148 62.936C66.6148 66.656 63.7588 68 59.6308 68H55.1428ZM57.1588 58.016H59.1988C61.3828 58.016 62.7028 57.248 62.7028 55.448C62.7028 53.6 61.4548 53.024 59.2948 53.024H57.1588V58.016ZM57.1588 65.696H59.6308C62.1988 65.696 63.6148 64.976 63.6148 62.936C63.6148 60.848 62.1748 60.224 59.6788 60.224H57.1588V65.696Z" fill="#00B7F8"/>
<path d="M26.016 93.14C26.184 93.404 25.944 93.5 25.272 93.5H24.624C23.784 93.5 23.616 93.476 23.448 93.212L20.448 88.292C19.392 86.564 19.032 86.444 17.328 86.444H16.2V93.236C16.2 93.476 16.032 93.5 15.144 93.5H14.904C14.016 93.5 13.896 93.452 13.896 93.236V76.22H18.288C22.8 76.22 25.344 77.54 25.344 81.044C25.344 83.708 23.832 85.316 21.288 86.084C21.72 86.42 22.104 86.948 22.704 87.884L26.016 93.14ZM18.624 84.62C21.336 84.62 22.968 83.588 22.968 81.188C22.968 78.788 21.384 78.068 18.504 78.068H16.2V84.62H18.624ZM39.2691 88.868C39.2691 91.364 37.5171 93.212 34.5891 93.644V95.804C34.5891 95.996 34.3731 96.068 33.8211 96.068H33.3651C32.7651 96.068 32.5731 95.996 32.5731 95.804V93.716C30.7251 93.596 28.9011 92.996 27.9651 92.276C27.7491 92.108 27.7011 91.964 28.0611 91.316L28.2051 91.052C28.4931 90.524 28.6371 90.452 28.8531 90.572C30.1251 91.34 31.6131 91.844 33.1011 91.844C35.5011 91.844 36.9891 90.644 36.9891 88.868C36.9891 87.356 36.0051 86.732 33.0291 85.388C29.8611 83.948 28.5891 82.7 28.5891 80.516C28.5891 78.068 30.5331 76.412 33.1011 76.052V74.084C33.1011 73.892 33.3171 73.82 33.8691 73.82H34.3251C34.9251 73.82 35.1171 73.892 35.1171 74.084V76.028C36.4371 76.148 37.5891 76.532 38.5731 77.18C38.8371 77.348 38.8371 77.444 38.5251 78.068L38.4051 78.308C38.0931 78.932 37.9971 78.956 37.7331 78.812C36.5331 78.188 35.4291 77.852 34.2531 77.852C32.3091 77.852 30.8691 78.884 30.8691 80.396C30.8691 81.812 31.8771 82.484 34.4451 83.684C37.6131 85.172 39.2691 86.324 39.2691 88.868ZM45.3028 93.74C44.2228 93.74 42.7108 93.452 41.7028 93.044C41.5348 92.972 41.5348 92.732 41.7028 92.204L41.7988 91.892C41.9428 91.388 42.1108 91.124 42.2788 91.196C43.3348 91.628 44.4628 91.796 45.4948 91.796C47.7508 91.796 49.3588 90.476 49.3588 88.028C49.3588 85.22 47.5828 84.524 45.7588 84.524C44.4868 84.524 43.4548 84.668 42.3748 84.908V76.22H50.9428C51.1108 76.22 51.1588 76.484 51.1588 77.012V77.324C51.1588 77.876 51.1108 78.14 50.9428 78.14H44.6068V82.82C45.1108 82.724 45.6388 82.652 46.1428 82.652C49.1428 82.652 51.6388 84.212 51.6388 87.884C51.6388 91.796 48.8548 93.74 45.3028 93.74ZM62.2539 93.5C61.5819 93.5 61.2219 93.428 61.2219 93.236V89.108H54.8379C54.2139 89.108 53.9979 89.036 53.9979 88.772V87.716C53.9979 87.284 54.1179 86.804 54.2859 86.42L59.0859 76.508C59.1819 76.292 59.5899 76.22 60.1659 76.22H60.5499C61.1499 76.22 61.5579 76.34 61.4619 76.556L56.3499 87.188H61.2219V83.372C61.2219 83.18 61.5819 83.108 62.2059 83.108H62.4699C63.1419 83.108 63.5019 83.18 63.5019 83.372V87.188H65.4459C65.6139 87.188 65.6619 87.452 65.6619 87.98V88.292C65.6619 88.844 65.6139 89.108 65.4459 89.108H63.5019V93.236C63.5019 93.428 63.1419 93.5 62.5179 93.5H62.2539Z" fill="white"/>
<path d="M68.008 84.968C67.912 85.052 67.78 85.064 67.66 84.944L67.528 84.8C67.456 84.728 67.384 84.596 67.504 84.476C67.852 84.14 68.2 83.696 68.2 83.276C68.2 82.784 67.672 82.88 67.672 82.196C67.672 81.776 68.02 81.5 68.428 81.5C68.98 81.5 69.304 81.92 69.304 82.436C69.304 83.384 68.776 84.356 68.008 84.968ZM72.4865 83.12C71.7785 83.12 71.2265 82.964 70.7345 82.712C70.6505 82.664 70.6625 82.448 70.7465 82.256L70.7945 82.148C70.8785 81.956 71.0225 81.8 71.1065 81.848C71.4785 82.052 72.0425 82.172 72.4865 82.172C74.2745 82.172 74.7305 80.336 74.8265 78.764C74.3465 79.172 73.6145 79.436 72.9425 79.436C71.2625 79.436 70.5065 78.392 70.5065 76.928C70.5065 75.38 71.4665 74.24 73.2425 74.24C75.4625 74.24 76.0025 76.004 76.0025 77.984C76.0025 80.528 75.2225 83.12 72.4865 83.12ZM73.0985 78.488C73.8185 78.488 74.4305 78.176 74.8745 77.9V77.756C74.8745 76.604 74.6825 75.176 73.2065 75.176C72.0305 75.176 71.6465 76.064 71.6465 76.82C71.6465 77.66 71.9345 78.488 73.0985 78.488ZM79.1545 83.12C78.4465 83.12 77.8945 82.964 77.4025 82.712C77.3185 82.664 77.3305 82.448 77.4145 82.256L77.4625 82.148C77.5465 81.956 77.6905 81.8 77.7745 81.848C78.1465 82.052 78.7105 82.172 79.1545 82.172C80.9425 82.172 81.3985 80.336 81.4945 78.764C81.0145 79.172 80.2825 79.436 79.6105 79.436C77.9305 79.436 77.1745 78.392 77.1745 76.928C77.1745 75.38 78.1345 74.24 79.9105 74.24C82.1305 74.24 82.6705 76.004 82.6705 77.984C82.6705 80.528 81.8905 83.12 79.1545 83.12ZM79.7665 78.488C80.4865 78.488 81.0985 78.176 81.5425 77.9V77.756C81.5425 76.604 81.3505 75.176 79.8745 75.176C78.6985 75.176 78.3145 76.064 78.3145 76.82C78.3145 77.66 78.6025 78.488 79.7665 78.488Z" fill="white"/>
<path d="M67.516 95.204C67.228 95.204 67.12 95.156 67.144 95.06L69.784 86.264C69.82 86.156 69.928 86.144 70.204 86.144H70.432C70.72 86.144 70.84 86.192 70.816 86.288L68.188 95.084C68.164 95.168 68.032 95.204 67.756 95.204H67.516ZM72.3649 95C71.8849 95 71.8489 94.952 71.8489 94.856V90.764C71.8489 89.948 71.8249 89.108 71.8249 88.808C71.8249 88.712 71.8609 88.664 72.3169 88.664H72.3769C72.8089 88.664 72.8689 88.7 72.8689 88.808L72.8809 89.348H72.8929C73.3129 88.856 74.0089 88.544 74.7529 88.544C75.4129 88.544 75.9769 88.772 76.3729 89.18C76.4809 89.3 76.5769 89.42 76.6489 89.564C77.1289 88.904 77.9569 88.544 78.8089 88.544C79.4689 88.544 80.0329 88.772 80.4289 89.18C80.8609 89.624 81.0409 90.248 81.0409 91.22V94.856C81.0409 94.94 81.0289 95 80.5489 95H80.4769C79.9969 95 79.9609 94.952 79.9609 94.856V91.724C79.9609 90.752 79.9249 90.296 79.6369 89.96C79.4089 89.684 79.0009 89.564 78.5449 89.564C78.1249 89.564 77.6209 89.72 77.3449 89.984C77.2009 90.116 77.0689 90.32 77.0209 90.836C76.9969 91.172 76.9849 91.784 76.9849 92.48V94.856C76.9849 94.94 76.9729 95 76.4929 95H76.4209C75.9409 95 75.9049 94.952 75.9049 94.856V91.724C75.9049 90.752 75.8689 90.296 75.5809 89.96C75.3529 89.684 74.9449 89.564 74.4889 89.564C74.0689 89.564 73.5649 89.72 73.2889 89.984C73.1449 90.116 73.0129 90.32 72.9649 90.836C72.9409 91.172 72.9289 91.784 72.9289 92.48V94.856C72.9289 94.94 72.9169 95 72.4369 95H72.3649ZM86.5748 87.872L85.2548 86.72L83.9108 87.86C83.8628 87.908 83.7428 87.86 83.6228 87.728L83.5388 87.632C83.3948 87.476 83.3588 87.38 83.4188 87.308L84.5108 86.144C84.5948 86.048 84.7268 85.988 85.0388 85.988H85.4948C85.8308 85.988 85.9628 86.072 86.0348 86.156L87.1028 87.284C87.1748 87.356 87.1268 87.476 86.9828 87.632L86.8868 87.74C86.7788 87.872 86.6348 87.932 86.5748 87.872ZM85.3628 95.12C83.4188 95.12 82.4228 93.908 82.4228 91.976C82.4228 89.96 83.5268 88.544 85.3028 88.544C86.3708 88.544 87.1028 89.072 87.4988 89.864C87.7748 90.416 87.8948 91.076 87.8948 91.784C87.8948 92.144 87.8708 92.216 87.7748 92.216H83.5508C83.5868 92.876 83.7788 93.392 84.1508 93.704C84.4748 93.992 84.9428 94.136 85.5668 94.136C86.0708 94.136 86.5748 94.016 87.1508 93.752C87.2588 93.704 87.3308 93.68 87.4508 93.98L87.5108 94.124C87.6428 94.436 87.6308 94.508 87.5348 94.568C86.9228 94.928 86.1668 95.12 85.3628 95.12ZM83.5868 91.328H86.7908C86.7788 90.428 86.3228 89.528 85.3148 89.528C84.4388 89.528 83.7548 90.092 83.5868 91.328ZM90.9782 95.12C90.2102 95.12 89.4662 94.844 89.0102 94.52C88.8902 94.436 88.9262 94.364 89.0582 94.088L89.1182 93.956C89.2742 93.62 89.3222 93.608 89.4782 93.704C89.9342 93.968 90.5102 94.184 91.0382 94.184C91.5902 94.184 92.3582 93.908 92.3582 93.212C92.3582 92.564 91.5902 92.348 90.9782 92.216C90.3422 92.072 89.8742 91.904 89.5502 91.604C89.2502 91.328 89.0702 90.908 89.0702 90.44C89.0702 89.264 90.0902 88.544 91.2902 88.544C92.0462 88.544 92.7422 88.808 93.1862 89.204C93.2822 89.288 93.3062 89.396 93.1382 89.636L93.0542 89.756C92.8382 90.068 92.7782 90.068 92.6942 89.996C92.2502 89.684 91.8302 89.468 91.3022 89.468C90.8102 89.468 90.1022 89.66 90.1022 90.32C90.1022 90.968 90.7742 91.136 91.3502 91.28C92.3342 91.532 93.3782 91.892 93.3782 93.14C93.3782 94.424 92.2982 95.12 90.9782 95.12Z" fill="white"/>
<g clip-path="url(#clip0_2813_541)">
<path d="M13.106 117V106.92H19.126C19.266 106.92 19.294 106.976 19.294 107.41V107.494C19.294 107.928 19.266 107.998 19.126 107.998H14.45V111.358H18.426C18.552 111.358 18.594 111.414 18.594 111.848V111.932C18.594 112.366 18.552 112.436 18.426 112.436H14.45V115.922H19.182C19.322 115.922 19.35 115.964 19.35 116.412V116.482C19.35 116.916 19.322 117 19.182 117H13.106ZM22.9257 117.14C22.0297 117.14 21.1617 116.818 20.6297 116.44C20.4897 116.342 20.5317 116.258 20.6857 115.936L20.7557 115.782C20.9377 115.39 20.9937 115.376 21.1757 115.488C21.7077 115.796 22.3797 116.048 22.9957 116.048C23.6397 116.048 24.5357 115.726 24.5357 114.914C24.5357 114.158 23.6397 113.906 22.9257 113.752C22.1837 113.584 21.6377 113.388 21.2597 113.038C20.9097 112.716 20.6997 112.226 20.6997 111.68C20.6997 110.308 21.8897 109.468 23.2897 109.468C24.1717 109.468 24.9837 109.776 25.5017 110.238C25.6137 110.336 25.6417 110.462 25.4457 110.742L25.3477 110.882C25.0957 111.246 25.0257 111.246 24.9277 111.162C24.4097 110.798 23.9197 110.546 23.3037 110.546C22.7297 110.546 21.9037 110.77 21.9037 111.54C21.9037 112.296 22.6877 112.492 23.3597 112.66C24.5077 112.954 25.7257 113.374 25.7257 114.83C25.7257 116.328 24.4657 117.14 22.9257 117.14ZM30.1778 117.14C28.0358 117.14 26.9718 115.502 26.9718 113.416C26.9718 110.854 28.4698 109.468 30.4158 109.468C31.2978 109.468 32.0818 109.776 32.6698 110.196C32.7818 110.28 32.7818 110.378 32.5858 110.84C32.3758 111.316 32.2358 111.274 32.1378 111.204C31.6198 110.854 31.0458 110.616 30.4858 110.616C29.1838 110.616 28.2878 111.596 28.2878 113.332C28.2878 114.676 28.8338 115.992 30.3458 115.992C30.9338 115.992 31.5778 115.824 32.1238 115.558C32.2358 115.502 32.3758 115.544 32.4878 115.838L32.5578 116.02C32.6978 116.356 32.6558 116.454 32.5578 116.51C31.8578 116.902 31.0458 117.14 30.1778 117.14ZM37.0001 117.14C36.1461 117.14 35.4321 116.916 34.9001 116.44C34.2001 115.824 33.7941 114.788 33.7941 113.472C33.7941 110.826 35.1801 109.468 37.2801 109.468C38.1341 109.468 38.8481 109.692 39.3801 110.168C40.0801 110.784 40.4861 111.82 40.4861 113.136C40.4861 115.782 39.1001 117.14 37.0001 117.14ZM37.0561 116.02C38.1761 116.02 39.1701 115.236 39.1701 113.234C39.1701 111.974 38.7501 110.588 37.2241 110.588C36.1041 110.588 35.1101 111.372 35.1101 113.374C35.1101 114.634 35.5301 116.02 37.0561 116.02ZM43.4031 117.014C43.0111 117.014 42.6191 116.916 42.3671 116.538C42.1851 116.272 42.1291 115.81 42.1291 115.068V110.378C42.1291 108.908 42.1151 107.088 42.0451 106.542C42.0311 106.402 42.1711 106.36 42.6471 106.36H42.7311C43.1791 106.36 43.2771 106.402 43.3051 106.542C43.3751 106.934 43.3891 108.614 43.3891 110.686V115.334C43.3891 115.852 43.4591 116.034 43.9211 116.034H44.0611C44.1311 116.034 44.1451 116.09 44.1451 116.412V116.454C44.1451 116.818 44.1451 116.874 44.0611 116.902C43.8651 116.972 43.6131 117.014 43.4031 117.014ZM46.3691 117C45.8091 117 45.7671 116.944 45.7671 116.832V106.528C45.7671 106.43 45.7811 106.36 46.3411 106.36H46.4251C46.9851 106.36 47.0271 106.416 47.0271 106.528V110.364C47.5171 109.818 48.4271 109.468 49.2671 109.468C50.0371 109.468 50.7231 109.734 51.1851 110.21C51.6891 110.728 51.8991 111.456 51.8991 112.59V116.832C51.8991 116.93 51.8851 117 51.3251 117H51.2411C50.6811 117 50.6391 116.944 50.6391 116.832V113.178C50.6391 112.044 50.5971 111.512 50.2611 111.12C49.9951 110.798 49.5471 110.658 48.9311 110.658C48.4131 110.658 47.7831 110.84 47.4471 111.162C47.2791 111.316 47.1251 111.554 47.0691 112.156C47.0411 112.548 47.0271 113.262 47.0271 114.074V116.832C47.0271 116.93 47.0131 117 46.4531 117H46.3691ZM56.5049 117.14C54.4609 117.14 53.5089 115.446 53.5089 113.43C53.5089 111.036 54.8809 109.468 56.7289 109.468C57.5689 109.468 58.2269 109.86 58.6189 110.364L58.6889 109.776C58.7029 109.608 58.7729 109.608 59.1929 109.608H59.2209C59.7529 109.608 59.7669 109.664 59.7669 109.776C59.7669 110.112 59.7389 111.008 59.7389 111.904V113.864C59.7389 115.152 59.7949 116.062 59.8369 116.832C59.8369 116.944 59.7669 117 59.3329 117H59.2769C58.8429 117 58.7589 116.958 58.7449 116.832L58.6609 116.188C58.2129 116.734 57.4149 117.14 56.5049 117.14ZM56.7289 116.02C57.1909 116.02 57.7509 115.88 58.1289 115.474C58.4229 115.152 58.4789 114.76 58.4789 113.542V111.554C58.1569 111.05 57.5269 110.602 56.8689 110.602C55.5809 110.602 54.8249 111.68 54.8249 113.36C54.8249 114.676 55.2869 116.02 56.7289 116.02ZM68.3823 117.14C66.1143 117.14 64.9523 115.726 64.9523 113.472C64.9523 111.12 66.2403 109.468 68.3123 109.468C69.5583 109.468 70.4123 110.084 70.8743 111.008C71.1963 111.652 71.3363 112.422 71.3363 113.248C71.3363 113.668 71.3083 113.752 71.1963 113.752H66.2683C66.3103 114.522 66.5343 115.124 66.9683 115.488C67.3463 115.824 67.8923 115.992 68.6203 115.992C69.2083 115.992 69.7963 115.852 70.4683 115.544C70.5943 115.488 70.6783 115.46 70.8183 115.81L70.8883 115.978C71.0423 116.342 71.0283 116.426 70.9163 116.496C70.2023 116.916 69.3203 117.14 68.3823 117.14ZM66.3103 112.716H70.0483C70.0343 111.666 69.5023 110.616 68.3263 110.616C67.3043 110.616 66.5063 111.274 66.3103 112.716ZM73.6315 117C73.0715 117 73.0295 116.944 73.0295 116.832V112.058C73.0295 111.106 73.0015 110.126 73.0015 109.776C73.0015 109.664 73.0435 109.608 73.5755 109.608H73.6455C74.1495 109.608 74.2195 109.65 74.2195 109.776L74.2335 110.406H74.2475C74.7375 109.832 75.6615 109.468 76.5295 109.468C77.2995 109.468 77.9855 109.734 78.4475 110.21C78.9515 110.728 79.1615 111.456 79.1615 112.59V116.832C79.1615 116.93 79.1475 117 78.5875 117H78.5035C77.9435 117 77.9015 116.944 77.9015 116.832V113.178C77.9015 112.044 77.8595 111.512 77.5235 111.12C77.2575 110.798 76.8095 110.658 76.1935 110.658C75.6755 110.658 75.0455 110.84 74.7095 111.162C74.5415 111.316 74.3875 111.554 74.3315 112.156C74.3035 112.548 74.2895 113.262 74.2895 114.074V116.832C74.2895 116.93 74.2755 117 73.7155 117H73.6315ZM83.3759 117.14C82.7459 117.14 82.2839 116.972 81.9759 116.678C81.5699 116.3 81.4439 115.768 81.4439 114.83V110.602H80.2259C80.1419 110.602 80.1139 110.532 80.1139 110.28V110.196C80.1139 109.972 80.1419 109.888 80.2399 109.86C81.4579 109.51 81.6819 108.95 81.8219 107.648C81.8359 107.564 81.9059 107.536 82.2139 107.536H82.3119C82.6339 107.536 82.7039 107.578 82.7039 107.662V109.608H84.4679C84.5659 109.608 84.5939 109.678 84.5939 110.042V110.154C84.5939 110.532 84.5659 110.602 84.4679 110.602H82.7039V114.732C82.7039 115.264 82.7459 115.614 82.9279 115.81C83.0819 115.978 83.3199 116.062 83.6419 116.062C83.9639 116.062 84.3139 115.964 84.5939 115.88C84.7339 115.838 84.7759 115.894 84.8459 116.16L84.8879 116.342C84.9579 116.636 84.9579 116.72 84.8459 116.79C84.4959 117.014 83.8939 117.14 83.3759 117.14ZM86.9202 117C86.3602 117 86.3182 116.944 86.3182 116.832V112.058C86.3182 111.106 86.2902 110.126 86.2902 109.776C86.2902 109.664 86.3322 109.608 86.8642 109.608H86.9342C87.4382 109.608 87.5082 109.65 87.5082 109.776L87.5362 111.218C88.0682 110.042 88.8382 109.524 89.5802 109.524C89.7062 109.524 89.8042 109.538 89.8742 109.552C90.0002 109.58 90.0142 109.622 90.0142 109.944V110.154C90.0142 110.56 90.0002 110.672 89.8602 110.672C88.8662 110.672 88.3622 111.288 87.9562 111.946C87.7602 112.268 87.6482 112.66 87.6202 113.15C87.5922 113.542 87.5782 114.41 87.5782 115.222V116.832C87.5782 116.93 87.5642 117 87.0042 117H86.9202ZM94.1127 117.14C91.8447 117.14 90.6827 115.726 90.6827 113.472C90.6827 111.12 91.9707 109.468 94.0427 109.468C95.2887 109.468 96.1427 110.084 96.6047 111.008C96.9267 111.652 97.0667 112.422 97.0667 113.248C97.0667 113.668 97.0387 113.752 96.9267 113.752H91.9987C92.0407 114.522 92.2647 115.124 92.6987 115.488C93.0767 115.824 93.6227 115.992 94.3507 115.992C94.9387 115.992 95.5267 115.852 96.1987 115.544C96.3247 115.488 96.4087 115.46 96.5487 115.81L96.6187 115.978C96.7727 116.342 96.7587 116.426 96.6467 116.496C95.9327 116.916 95.0507 117.14 94.1127 117.14ZM92.0407 112.716H95.7787C95.7647 111.666 95.2327 110.616 94.0567 110.616C93.0347 110.616 92.2367 111.274 92.0407 112.716ZM99.404 111.918C98.886 111.918 98.466 111.498 98.466 110.98C98.466 110.462 98.886 110.042 99.404 110.042C99.922 110.042 100.342 110.462 100.342 110.98C100.342 111.498 99.922 111.918 99.404 111.918ZM99.404 117.14C98.886 117.14 98.466 116.72 98.466 116.202C98.466 115.684 98.886 115.264 99.404 115.264C99.922 115.264 100.342 115.684 100.342 116.202C100.342 116.72 99.922 117.14 99.404 117.14Z" fill="white"/>
<circle cx="24.0006" cy="137" r="12" fill="#0270FD"/>
<g clip-path="url(#clip1_2813_541)">
<path d="M22.7487 137.17C22.7004 137.151 22.6212 137.064 22.753 136.821L23.0589 136.193C23.0682 136.174 23.046 136.15 23.032 136.166L22.7646 136.43C22.638 136.56 22.4233 136.925 22.3817 136.992L22.0567 137.52C22.0908 137.519 22.113 137.554 22.0962 137.584L21.7993 138.074C21.7266 138.195 21.8571 138.28 21.8748 138.252C22.3416 137.514 22.613 137.573 22.613 137.573L22.7689 137.218C22.778 137.199 22.7683 137.178 22.7489 137.17H22.7487Z" fill="white"/>
<path d="M23.8086 131C21.1398 131 18.9761 133.124 18.9761 135.744C18.9761 136.799 19.3275 137.773 19.9209 138.561C20.1236 138.475 20.2363 138.346 20.3168 138.248L21.2165 137.118C21.2355 137.094 21.2603 137.076 21.2885 137.064L21.4239 137.007L22.9035 135.164L23.118 134.999L23.5587 134.397C23.5702 134.381 23.584 134.368 23.5999 134.356L23.7922 134.219C23.8397 134.185 23.9039 134.184 23.952 134.218L24.1853 134.379C24.3091 134.464 24.4095 134.578 24.4775 134.711L25.4121 136.323C25.4331 136.358 25.4481 136.373 25.4854 136.391C25.6687 136.481 25.7806 136.497 26.0206 136.753C26.1325 136.872 26.623 137.411 27.3108 138.248C27.4055 138.374 27.528 138.48 27.6989 138.557C28.2906 137.77 28.641 136.797 28.641 135.744C28.6414 133.124 26.4777 131 23.8086 131ZM20.2795 136.005L19.9662 135.905L19.7726 136.167V135.844L19.4593 135.744L19.7726 135.644V135.321L19.9662 135.582L20.2795 135.483L20.0858 135.744L20.2795 136.006V136.005ZM20.2051 137.063L20.1033 137.371L20.0015 137.063H19.6723L19.9388 136.873L19.837 136.566L20.1035 136.756L20.37 136.566L20.2682 136.873L20.5347 137.063H20.2055H20.2051ZM20.268 134.615L20.3698 134.922L20.1033 134.732L19.8368 134.922L19.9386 134.615L19.6721 134.424H20.0013L20.1031 134.117L20.2049 134.424H20.5341L20.2676 134.615H20.268ZM20.7969 133.919L20.6033 133.657L20.29 133.757L20.4836 133.496L20.29 133.234L20.6033 133.334L20.7969 133.072V133.396L21.1102 133.495L20.7969 133.595V133.919V133.919ZM21.6204 132.787L21.5186 133.095L21.4168 132.787H21.0876L21.3541 132.597L21.2523 132.289L21.5188 132.479L21.7853 132.289L21.6835 132.597L21.95 132.787H21.6208H21.6204ZM22.6583 132.268L22.4647 132.53V132.206L22.1514 132.107L22.4647 132.007V131.683L22.6583 131.945L22.9716 131.845L22.778 132.107L22.9716 132.368L22.6583 132.268V132.268ZM23.9734 131.972L24.0751 132.279L23.8086 132.089L23.5421 132.279L23.6439 131.972L23.3774 131.782H23.7066L23.8084 131.474L23.9102 131.782H24.2394L23.9729 131.972H23.9734ZM25.1528 132.206V132.529L24.9591 132.268L24.6459 132.368L24.8395 132.106L24.6459 131.845L24.9591 131.944L25.1528 131.683V132.006L25.466 132.106L25.1528 132.206V132.206ZM27.338 135.482L27.6513 135.582L27.8449 135.32V135.644L28.1582 135.744L27.8449 135.843V136.167L27.6513 135.905L27.338 136.005L27.5316 135.743L27.338 135.482V135.482ZM26.0987 133.095L25.9969 132.787H25.6676L25.9341 132.597L25.8324 132.289L26.0989 132.479L26.3654 132.289L26.2636 132.597L26.5301 132.787H26.2009L26.0991 133.095H26.0987ZM26.8205 133.919V133.596L26.5072 133.496L26.8205 133.396V133.073L27.0141 133.334L27.3274 133.234L27.1338 133.496L27.3274 133.758L27.0141 133.658L26.8205 133.919V133.919ZM27.4124 134.424L27.5142 134.117L27.6159 134.424H27.9452L27.6787 134.615L27.7804 134.922L27.5139 134.732L27.2474 134.922L27.3492 134.615L27.0827 134.424H27.412H27.4124ZM27.6159 137.063L27.5142 137.371L27.4124 137.063H27.0831L27.3496 136.873L27.2479 136.566L27.5144 136.756L27.7809 136.566L27.6791 136.873L27.9456 137.063H27.6164H27.6159Z" fill="white"/>
<path d="M25.5602 138.486C25.5835 138.453 25.621 138.362 25.5505 138.193L25.3366 137.629C25.3075 137.557 25.3709 137.513 25.4136 137.56C25.4136 137.56 25.8178 138.018 25.9224 138.209L26.1216 138.534C26.293 138.544 26.7665 138.557 27.2219 138.557C27.1766 138.513 27.1344 138.465 27.0949 138.413C26.3176 137.467 25.8249 136.941 25.82 136.936C25.6624 136.768 25.5897 136.735 25.4694 136.682C25.4521 136.674 25.4334 136.665 25.4138 136.656V136.8C25.4138 136.819 25.3911 136.829 25.3795 136.809L24.2365 134.838L24.2333 134.832C24.1858 134.74 24.1151 134.659 24.0287 134.6L23.9172 134.523L23.3721 135.757C23.4571 135.757 23.5142 135.843 23.4804 135.919L22.9767 137.063H23.439C23.6177 137.063 23.7947 137.097 23.9601 137.164L24.0819 137.213C24.0819 137.213 23.7143 137.956 23.7143 138.347C23.7143 138.418 23.7257 138.49 23.7443 138.557H24.5918L24.5526 138.323C24.5526 138.323 25.0627 138.438 25.5604 138.486H25.5602Z" fill="white"/>
<path d="M19.0219 139.688C19.0219 138.924 18.1967 138.557 17.2165 138.557C16.168 138.557 15.2059 139.013 14.8528 139.72C14.7555 139.908 14.7051 140.117 14.7051 140.329C14.7014 140.513 14.7521 140.693 14.8528 140.845C15.0041 141.065 15.2743 141.203 15.6706 141.203C16.157 141.203 16.5427 140.941 16.5427 140.484C16.5427 140.484 16.5499 140.357 16.3985 140.357C16.276 140.357 16.2435 140.442 16.2471 140.484C16.2653 140.842 16.049 141.128 15.6635 141.128C15.231 141.128 15.0509 140.767 15.0509 140.382C15.0509 139.593 15.6564 139.07 16.2868 138.843C16.5824 138.734 16.8923 138.68 17.2092 138.684C17.9227 138.684 18.5063 138.953 18.5063 139.675C18.5063 140.276 17.991 140.789 17.3748 140.835L17.4 140.753C17.5262 140.311 17.6812 139.827 17.9332 139.469C17.9477 139.448 17.9729 139.413 18.0018 139.377L17.9658 139.335C17.9117 139.367 17.8612 139.402 17.8108 139.441C16.629 140.346 16.593 142.893 15.0181 142.893C14.9642 142.893 14.9101 142.89 14.856 142.883C14.5281 142.83 14.3551 142.614 14.3551 142.313C14.3551 142.253 14.3767 142.172 14.3767 142.126C14.3804 142.041 14.3083 141.967 14.2217 141.967H14.2038C14.0632 141.967 14.0056 142.076 14.002 142.232C13.9912 142.681 14.3299 142.943 14.8523 142.992C14.9099 142.996 14.9677 142.999 15.0289 142.999C16.2577 142.999 17.0106 142.087 17.3315 140.98C17.4936 140.962 17.6557 140.927 17.8106 140.881C18.38 140.725 19.0212 140.35 19.0212 139.689L19.0219 139.688Z" fill="white"/>
<path d="M30.7258 139.954H30.2935L30.196 140.177L30.0268 140.552H29.825L29.7637 140.679H29.9727L29.7204 141.227C29.5404 141.613 29.2592 141.991 29.0971 141.991C29.0611 141.991 29.0395 141.977 29.0395 141.942C29.0395 141.906 29.0503 141.874 29.0899 141.775C29.1404 141.659 29.2232 141.489 29.2846 141.365C29.3748 141.185 29.5188 140.905 29.5188 140.767C29.5188 140.629 29.4287 140.52 29.2521 140.52C29.0539 140.52 28.8737 140.637 28.7081 140.806L28.8163 140.552H28.409L28.0776 141.294C27.9444 141.556 27.674 141.991 27.5048 141.991C27.4687 141.991 27.4543 141.97 27.4543 141.935C27.458 141.903 27.4651 141.875 27.4795 141.843C27.494 141.811 27.6921 141.355 27.6921 141.355L28.0524 140.545H27.6128L27.2633 141.333C27.1552 141.577 26.8812 141.991 26.7046 141.991C26.6757 141.995 26.647 141.974 26.6434 141.942V141.928C26.6434 141.885 26.6757 141.808 26.7009 141.751L26.8849 141.355L27.2633 140.545H26.8273L26.7408 140.728C26.6759 140.852 26.5679 140.997 26.395 140.997C26.312 140.997 26.2725 140.966 26.2544 140.934C26.2292 140.661 26.0526 140.516 25.7932 140.516C25.4329 140.516 25.177 140.725 25.0075 140.98C24.8958 141.156 24.8094 141.344 24.7481 141.542C24.5931 141.793 24.4312 141.988 24.3014 141.988C24.2688 141.988 24.2473 141.97 24.2473 141.928C24.2473 141.885 24.2906 141.79 24.305 141.754L24.5897 141.16C24.669 140.976 24.7229 140.856 24.7229 140.736C24.7229 140.608 24.6328 140.516 24.4851 140.516C24.2796 140.516 24.0562 140.633 23.8796 140.824C23.8868 140.792 23.8868 140.764 23.8868 140.732C23.8868 140.591 23.8147 140.516 23.6668 140.516C23.4795 140.516 23.285 140.626 23.1084 140.824L23.2237 140.548H22.8272L22.4922 141.291C22.3337 141.641 22.0778 141.988 21.9335 141.988C21.9012 141.988 21.8794 141.97 21.8794 141.928C21.8794 141.861 21.9551 141.695 21.984 141.627L22.4273 140.641C22.4596 140.566 22.247 140.52 21.9769 140.52C21.7067 140.52 21.4147 140.655 21.2058 140.828C21.0581 140.948 20.9499 141.009 20.8958 141.009C20.8671 141.009 20.8561 140.994 20.8561 140.977C20.8561 140.917 21.0038 140.747 21.0038 140.616C21.0038 140.556 20.9714 140.517 20.8884 140.517C20.73 140.517 20.5426 140.665 20.4057 140.821L20.521 140.549H20.1318L19.7968 141.292C19.6381 141.642 19.375 142.006 19.231 142.006C19.1985 142.006 19.1769 141.989 19.1769 141.946C19.1769 141.879 19.2489 141.716 19.2886 141.631L19.7319 140.641C19.7642 140.566 19.5516 140.52 19.2815 140.52C18.8815 140.52 18.4923 140.786 18.2868 141.058C18.0598 141.352 17.905 141.663 17.9013 141.918C17.8979 142.123 18.0059 142.25 18.2219 142.25C18.4634 142.25 18.6579 142.063 18.7696 141.921C18.7625 141.95 18.7588 141.978 18.7552 142.006C18.7552 142.147 18.8127 142.25 18.9893 142.25C19.1441 142.25 19.3496 142.123 19.5154 141.921L19.3822 142.222H19.8037L20.2181 141.299C20.355 140.998 20.51 140.842 20.5532 140.842C20.5676 140.842 20.5749 140.85 20.5749 140.86C20.5749 140.892 20.51 140.977 20.51 141.054C20.51 141.132 20.5532 141.192 20.6687 141.192C20.7589 141.192 20.8595 141.15 20.9497 141.093C20.7371 141.376 20.5928 141.674 20.5928 141.918C20.5894 142.123 20.6974 142.25 20.9137 142.25C21.1407 142.25 21.3533 142.038 21.4684 141.896C21.4648 141.928 21.4613 141.96 21.4613 141.995C21.4613 142.133 21.5407 142.25 21.7028 142.25C21.8828 142.25 22.0271 142.14 22.2073 141.925L22.0741 142.222H22.5064L22.9027 141.341C23.0756 140.959 23.3098 140.754 23.4251 140.754C23.454 140.75 23.4792 140.772 23.4827 140.8V140.811C23.479 140.853 23.4648 140.895 23.4467 140.934L22.8775 142.226H23.3208L23.7244 141.327C23.8973 140.942 24.0884 140.754 24.2324 140.754C24.2755 140.754 24.2936 140.775 24.2936 140.821C24.29 140.871 24.2755 140.92 24.2539 140.963L23.8648 141.776C23.8288 141.854 23.8072 141.939 23.7999 142.024C23.7999 142.148 23.8682 142.258 24.0629 142.258C24.3152 142.258 24.5062 142.07 24.7223 141.791V141.851C24.7404 142.074 24.8665 142.268 25.2016 142.268C25.5979 142.268 25.9187 141.999 26.1132 141.571C26.1854 141.419 26.2357 141.26 26.2538 141.094C26.2969 141.115 26.3473 141.126 26.3943 141.122C26.4592 141.122 26.5239 141.108 26.5817 141.076L26.5131 141.221C26.4338 141.384 26.3473 141.564 26.279 141.716C26.2359 141.804 26.2106 141.903 26.2033 142.002C26.2033 142.154 26.2898 142.264 26.4664 142.264C26.6429 142.264 26.8844 142.102 27.0574 141.872H27.061C27.0502 141.918 27.0429 141.967 27.0429 142.017C27.0429 142.144 27.0826 142.264 27.2628 142.264C27.4718 142.264 27.6339 142.116 27.7924 141.928L27.6591 142.225H28.0951L28.4446 141.447C28.6428 141.009 28.8409 140.743 29.0248 140.743C29.0574 140.743 29.0824 140.764 29.0861 140.796V140.807C29.0861 140.881 28.978 141.083 28.8808 141.284C28.7907 141.468 28.7221 141.61 28.6753 141.719C28.632 141.811 28.6068 141.91 28.5996 142.013C28.5996 142.147 28.6753 142.25 28.8448 142.25C29.0971 142.25 29.3528 142.01 29.4897 141.829C29.4574 141.918 29.4429 142.006 29.4392 142.098C29.4392 142.346 29.5906 142.469 29.803 142.469C29.9436 142.469 30.0805 142.423 30.1958 142.342C30.3616 142.229 30.4949 142.059 30.6068 141.904L30.5311 141.833C30.4265 141.978 30.3112 142.116 30.1924 142.201C30.1275 142.254 30.0518 142.282 29.969 142.285C29.8789 142.285 29.8213 142.239 29.8213 142.126C29.8213 142.013 29.8754 141.861 29.9582 141.656C29.9617 141.652 30.0807 141.391 30.1924 141.139C30.286 140.927 30.3797 140.722 30.3976 140.679H30.6823L30.74 140.552H30.4589L30.7256 139.954L30.7258 139.954ZM18.435 141.995C18.3737 141.995 18.3304 141.974 18.3304 141.896C18.3341 141.687 18.5104 141.316 18.7304 141.018C18.8852 140.813 19.087 140.661 19.3032 140.661L19.0294 141.263C18.8242 141.715 18.6006 141.995 18.435 141.995V141.995ZM21.1301 141.995C21.0689 141.995 21.0258 141.974 21.0221 141.896C21.0256 141.687 21.2022 141.316 21.4221 141.018C21.5769 140.813 21.7787 140.661 21.995 140.661L21.7211 141.263C21.5122 141.726 21.2996 141.995 21.1301 141.995V141.995ZM25.9155 140.824C25.9047 141.054 25.6992 141.609 25.4579 141.942C25.3607 142.076 25.2777 142.115 25.2057 142.115C25.1048 142.115 25.0759 142.034 25.0903 141.914C25.1119 141.705 25.2885 141.217 25.5334 140.881C25.6451 140.728 25.7208 140.665 25.8074 140.665C25.8941 140.665 25.9191 140.735 25.9155 140.824V140.824Z" fill="white"/>
<path d="M32.6408 140.551L33.0375 139.652H32.5677L32.171 140.551H31.1727L31.0062 140.929H32.0047L31.608 141.828H32.0776L32.4743 140.929H33.4726L33.6391 140.551H32.6408Z" fill="white"/>
</g>
<rect x="40" y="125" width="24" height="24" rx="12" fill="white"/>
<path d="M46.2964 143.699H47.0057C47.1583 143.699 47.2937 143.728 47.4119 143.788C47.532 143.847 47.6255 143.93 47.6922 144.036C47.7589 144.141 47.7923 144.261 47.7923 144.397C47.7923 144.532 47.7589 144.652 47.6922 144.757C47.6255 144.862 47.532 144.944 47.4119 145.003C47.2937 145.062 47.1583 145.092 47.0057 145.092H46.7369V145.901H46.2964V143.699ZM46.9886 144.757C47.1049 144.757 47.1945 144.727 47.2575 144.666C47.3204 144.605 47.3518 144.518 47.3518 144.405C47.3518 144.293 47.3204 144.206 47.2575 144.145C47.1945 144.084 47.1049 144.054 46.9886 144.054H46.7369V144.757H46.9886Z" fill="black"/>
<path d="M47.9818 143.699H48.6883C48.837 143.699 48.9705 143.726 49.0888 143.779C49.207 143.832 49.2995 143.907 49.3662 144.002C49.4349 144.095 49.4692 144.201 49.4692 144.32C49.4692 144.468 49.4177 144.594 49.3147 144.697C49.2117 144.8 49.0735 144.866 48.9 144.894C49.1326 145.211 49.3338 145.547 49.5035 145.901H48.9972C48.8313 145.531 48.6397 145.213 48.4223 144.946V145.901H47.9818V143.699ZM48.674 144.703C48.7865 144.703 48.8742 144.674 48.9372 144.617C49.0001 144.56 49.0315 144.479 49.0315 144.374C49.0315 144.271 49.0001 144.191 48.9372 144.134C48.8742 144.076 48.7865 144.048 48.674 144.048H48.4223V144.703H48.674Z" fill="black"/>
<path d="M50.8971 143.699V144.065H50.122V144.614H50.8428V144.969H50.122V145.535H50.8971V145.901H49.6815V143.699H50.8971Z" fill="black"/>
<path d="M51.6794 143.699C51.8491 144.229 51.9883 144.719 52.097 145.169C52.2095 144.71 52.3497 144.219 52.5175 143.699H53.0724V145.901H52.6691V144.311C52.5051 144.833 52.3592 145.364 52.2315 145.901H51.9626C51.8444 145.394 51.7004 144.87 51.5307 144.328V145.901H51.1245V143.699H51.6794Z" fill="black"/>
<path d="M53.7703 143.699V145.901H53.3298V143.699H53.7703Z" fill="black"/>
<path d="M54.4584 143.699V145.158C54.4584 145.282 54.4851 145.381 54.5385 145.455C54.5938 145.528 54.6663 145.564 54.7559 145.564C54.8455 145.564 54.917 145.528 54.9704 145.455C55.0238 145.381 55.0505 145.282 55.0505 145.158V143.699H55.491V145.115C55.491 145.273 55.4595 145.414 55.3966 145.538C55.3356 145.662 55.2488 145.759 55.1363 145.83C55.0257 145.898 54.8989 145.933 54.7559 145.933C54.611 145.933 54.4823 145.898 54.3698 145.83C54.2592 145.759 54.1724 145.662 54.1095 145.538C54.0485 145.414 54.0179 145.273 54.0179 145.115V143.699H54.4584Z" fill="black"/>
<path d="M56.2923 143.699C56.462 144.229 56.6012 144.719 56.7099 145.169C56.8224 144.71 56.9626 144.219 57.1304 143.699H57.6853V145.901H57.282V144.311C57.118 144.833 56.9721 145.364 56.8444 145.901H56.5755C56.4573 145.394 56.3133 144.87 56.1436 144.328V145.901H55.7374V143.699H56.2923Z" fill="black"/>
<path d="M56.4404 128.77C56.2626 128.77 56.1024 129.169 55.9931 129.803C55.816 128.71 55.5278 128 55.2037 128C54.8178 128 54.4836 129.004 54.3258 130.463C54.1704 129.401 53.9356 128.725 53.6734 128.725C53.305 128.725 52.9917 130.055 52.8756 131.912C52.6576 130.96 52.3418 130.363 51.9918 130.363C51.6418 130.363 51.3261 130.96 51.108 131.912C50.9919 130.055 50.6787 128.725 50.3103 128.725C50.0472 128.725 49.8125 129.401 49.6579 130.463C49.4992 129.004 49.1651 128 48.7791 128C48.4542 128 48.1668 128.71 47.9898 129.803C47.8795 129.169 47.7199 128.77 47.542 128.77C47.2104 128.77 46.9414 130.153 46.9414 131.859C46.9414 133.565 47.2104 134.948 47.542 134.948C47.6782 134.948 47.8043 134.714 47.9045 134.32C48.0641 135.76 48.3957 136.75 48.7791 136.75C49.0765 136.75 49.3422 136.156 49.5209 135.218C49.6437 137.002 49.9503 138.267 50.3095 138.267C50.5359 138.267 50.7413 137.766 50.8925 136.949C51.0746 138.635 51.4981 139.816 51.991 139.816C52.4838 139.816 52.9065 138.635 53.0895 136.949C53.2415 137.766 53.447 138.267 53.6725 138.267C54.0317 138.267 54.3391 137.002 54.4611 135.218C54.6398 136.156 54.9063 136.75 55.2029 136.75C55.5863 136.75 55.9179 135.76 56.0774 134.32C56.1785 134.713 56.3038 134.948 56.44 134.948C56.7716 134.948 57.0406 133.565 57.0406 131.859C57.0406 130.153 56.7718 128.771 56.4404 128.77Z" fill="#A238FF"/>
<path d="M46.4236 132.937C46.6119 132.937 46.7645 132.318 46.7645 131.555C46.7645 130.793 46.6119 130.174 46.4236 130.174C46.2354 130.174 46.0828 130.793 46.0828 131.555C46.0828 132.318 46.2354 132.937 46.4236 132.937Z" fill="#A238FF"/>
<path d="M57.8989 131.555C57.8989 132.318 57.7462 132.937 57.558 132.937C57.3698 132.937 57.2172 132.318 57.2172 131.555C57.2172 130.793 57.3698 130.174 57.558 130.174C57.7462 130.174 57.8989 130.793 57.8989 131.555Z" fill="#A238FF"/>
<path fill-rule="evenodd" clip-rule="evenodd" d="M45.4995 141.01H46.6194C47.3127 141.01 47.803 141.471 47.803 142.127C47.803 142.783 47.3127 143.244 46.6194 143.244H45.4995V141.01ZM46.3699 142.64H46.5729C46.7905 142.64 46.9066 142.495 46.9066 142.127C46.9066 141.758 46.7905 141.613 46.5729 141.613H46.3699V142.64Z" fill="black"/>
<path d="M49.7758 143.244H47.9365V141.01H49.7758V141.613H48.804V141.872H49.7178V142.365H48.804V142.64H49.7758V143.244Z" fill="black"/>
<path d="M51.8239 143.244H49.9846V141.01H51.8239V141.613H50.8521V141.872H51.7659V142.365H50.8521V142.64H51.8239V143.244Z" fill="black"/>
<path fill-rule="evenodd" clip-rule="evenodd" d="M58.4998 143.244C58.3745 142.902 58.1991 142.538 57.9633 142.129C58.2391 142.048 58.4041 141.874 58.4041 141.608C58.4041 141.201 58.0298 141.01 57.438 141.01H56.2195V143.244H57.0898V142.32C57.2832 142.645 57.4257 142.953 57.5192 143.244H58.4998ZM57.0898 142.008V141.613H57.3915C57.5192 141.613 57.5917 141.683 57.5917 141.811C57.5917 141.938 57.5192 142.008 57.3915 142.008H57.0898Z" fill="black"/>
<path d="M56.0102 143.244H54.1709V141.01H56.0102V141.613H55.0384V141.872H55.9522V142.365H55.0384V142.64H56.0102V143.244Z" fill="black"/>
<path d="M52.033 141.613H52.9311C52.5585 141.918 52.2518 142.264 52.0156 142.64V143.244H53.9913V142.64H53.0038C53.2301 142.311 53.5463 141.983 53.9913 141.613V141.01H52.033V141.613Z" fill="black"/>
<path fill-rule="evenodd" clip-rule="evenodd" d="M127.769 128C127.913 127.995 128.046 128.047 128.208 128.175C128.335 128.274 128.461 128.343 128.496 128.332C128.525 128.32 128.56 128.239 128.565 128.157C128.583 128.018 128.606 128 128.785 128C128.969 128 128.986 128.012 128.986 128.175C128.986 128.291 128.929 128.407 128.819 128.523C128.715 128.628 128.588 128.698 128.502 128.698C128.421 128.698 128.294 128.669 128.219 128.634C128.15 128.599 128.035 128.512 127.965 128.442C127.879 128.366 127.804 128.337 127.746 128.361C127.7 128.39 127.66 128.471 127.66 128.552C127.66 128.68 127.636 128.698 127.469 128.686C127.29 128.669 127.285 128.663 127.302 128.442C127.313 128.297 127.365 128.169 127.44 128.105C127.504 128.047 127.648 128 127.769 128ZM114.333 128.698H114.737V143.166H114.333V128.698ZM121.717 129.046C121.902 129.046 122.115 129.087 122.231 129.151C122.34 129.203 122.479 129.314 122.537 129.395C122.6 129.476 122.669 129.656 122.698 129.802C122.727 129.947 122.733 130.174 122.669 130.557H121.083V130.731C121.083 130.842 121.146 130.975 121.25 131.097C121.412 131.272 121.44 131.283 121.815 131.283C122.029 131.283 122.317 131.266 122.45 131.237C122.698 131.196 122.698 131.196 122.698 131.37C122.698 131.51 122.658 131.562 122.508 131.638C122.41 131.69 122.156 131.748 121.948 131.766C121.717 131.783 121.487 131.766 121.342 131.719C121.215 131.678 121.042 131.597 120.95 131.539C120.864 131.475 120.737 131.318 120.673 131.185C120.598 131.033 120.535 130.778 120.517 130.557C120.506 130.348 120.523 130.075 120.552 129.947C120.587 129.819 120.673 129.622 120.748 129.511C120.823 129.401 120.996 129.25 121.14 129.174C121.319 129.087 121.504 129.046 121.717 129.046ZM121.227 129.691C121.146 129.784 121.083 129.924 121.083 130.005V130.15H122.237C122.185 129.813 122.127 129.668 122.075 129.616C122.023 129.558 121.896 129.505 121.804 129.488C121.706 129.476 121.573 129.476 121.504 129.494C121.429 129.505 121.308 129.598 121.227 129.691ZM125.813 129.052C125.987 129.052 126.223 129.081 126.333 129.122C126.5 129.18 126.535 129.221 126.563 129.569L126.142 129.534C125.917 129.511 125.658 129.511 125.565 129.534C125.479 129.552 125.398 129.616 125.381 129.674C125.363 129.726 125.363 129.819 125.381 129.877C125.398 129.935 125.594 130.052 125.883 130.168C126.137 130.266 126.425 130.423 126.517 130.516C126.65 130.65 126.679 130.72 126.679 130.964C126.679 131.208 126.65 131.283 126.488 131.463C126.39 131.574 126.212 131.696 126.102 131.725C125.992 131.754 125.796 131.777 125.669 131.777C125.542 131.777 125.3 131.737 125.133 131.69C124.844 131.609 124.833 131.597 124.833 131.4C124.833 131.208 124.844 131.196 124.988 131.225C125.081 131.243 125.317 131.272 125.525 131.295C125.762 131.318 125.946 131.307 126.027 131.26C126.113 131.219 126.16 131.144 126.16 131.039C126.165 130.946 126.131 130.848 126.09 130.807C126.05 130.772 125.86 130.685 125.669 130.615C125.479 130.54 125.237 130.423 125.133 130.348C125.029 130.266 124.925 130.121 124.89 130.005C124.85 129.871 124.85 129.738 124.89 129.61C124.919 129.511 125.006 129.366 125.075 129.296C125.15 129.226 125.271 129.145 125.352 129.11C125.433 129.081 125.64 129.052 125.813 129.052ZM128.161 129.064C128.536 129.075 128.663 129.099 128.796 129.197C128.883 129.261 128.992 129.418 129.033 129.546C129.085 129.703 129.102 130.063 129.073 131.69L128.854 131.707C128.681 131.719 128.635 131.696 128.611 131.603C128.583 131.487 128.583 131.487 128.363 131.603C128.248 131.667 128.046 131.737 127.919 131.76C127.746 131.783 127.619 131.766 127.429 131.673C127.285 131.609 127.129 131.481 127.083 131.394C127.036 131.307 126.996 131.126 126.996 130.993C126.996 130.859 127.036 130.679 127.083 130.592C127.129 130.505 127.261 130.371 127.371 130.307C127.533 130.203 127.66 130.179 128.525 130.179V129.935C128.525 129.773 128.49 129.651 128.421 129.592C128.34 129.511 128.242 129.5 127.861 129.529C127.608 129.546 127.342 129.575 127.267 129.592C127.158 129.622 127.14 129.604 127.129 129.424C127.123 129.232 127.129 129.221 127.406 129.139C127.579 129.081 127.867 129.052 128.161 129.064ZM127.59 130.76C127.567 130.789 127.544 130.888 127.544 130.981C127.544 131.068 127.585 131.179 127.631 131.225C127.677 131.272 127.81 131.312 127.919 131.312C128.029 131.312 128.213 131.266 128.323 131.214C128.508 131.121 128.525 131.086 128.525 130.865C128.525 130.656 128.502 130.609 128.392 130.586C128.323 130.569 128.173 130.557 128.063 130.557C127.954 130.563 127.81 130.592 127.746 130.633C127.683 130.667 127.613 130.726 127.59 130.76ZM130.844 129.046C131.029 129.046 131.248 129.075 131.335 129.11C131.427 129.139 131.571 129.238 131.658 129.325C131.75 129.412 131.877 129.587 131.94 129.715C132.027 129.877 132.061 130.063 132.067 130.354C132.073 130.603 132.038 130.859 131.975 131.022C131.923 131.167 131.785 131.37 131.675 131.475C131.56 131.574 131.369 131.684 131.248 131.719C131.133 131.748 130.931 131.777 130.804 131.777C130.671 131.777 130.452 131.719 130.285 131.632C130.123 131.556 129.938 131.405 129.869 131.301C129.794 131.196 129.713 131.016 129.679 130.906C129.65 130.795 129.621 130.574 129.621 130.412C129.621 130.255 129.644 130.028 129.679 129.918C129.708 129.807 129.794 129.622 129.863 129.511C129.938 129.401 130.111 129.25 130.256 129.174C130.435 129.087 130.619 129.046 130.844 129.046ZM130.285 129.86C130.238 129.959 130.198 130.191 130.198 130.383C130.198 130.574 130.233 130.818 130.273 130.923C130.319 131.022 130.388 131.144 130.435 131.179C130.481 131.219 130.608 131.272 130.717 131.289C130.844 131.318 130.994 131.301 131.115 131.248C131.219 131.202 131.346 131.097 131.386 131.01C131.433 130.917 131.485 130.737 131.502 130.603C131.525 130.458 131.508 130.226 131.461 130.04C131.41 129.831 131.329 129.685 131.236 129.616C131.15 129.552 131 129.505 130.861 129.511C130.735 129.511 130.573 129.552 130.498 129.598C130.429 129.645 130.331 129.761 130.285 129.86ZM118.487 129.104L119.15 131.138L119.842 129.099H120.073C120.2 129.099 120.321 129.122 120.344 129.145C120.367 129.174 120.339 129.308 120.281 129.453C120.223 129.598 120.004 130.168 119.41 131.719L118.879 131.69L118.394 130.458C118.129 129.778 117.91 129.192 117.91 129.163C117.91 129.133 118.037 129.104 118.487 129.104ZM123.16 129.104H123.39C123.604 129.104 123.621 129.116 123.656 129.296C123.673 129.395 123.708 129.453 123.725 129.418C123.748 129.383 123.858 129.296 123.967 129.226C124.088 129.157 124.267 129.104 124.66 129.104V129.627H124.325C124.123 129.627 123.944 129.656 123.863 129.715C123.742 129.796 123.737 129.837 123.737 130.673C123.737 131.155 123.725 131.585 123.708 131.632C123.69 131.69 123.598 131.719 123.16 131.719V129.104ZM126.852 132.358H127.775V135.176C127.775 137.785 127.781 138 127.873 138.087C127.942 138.151 128.058 138.174 128.438 138.14V138.837L128.121 138.889C127.948 138.918 127.706 138.924 127.585 138.901C127.469 138.883 127.29 138.796 127.186 138.709C127.088 138.616 126.973 138.459 126.927 138.36C126.869 138.209 126.852 137.553 126.852 135.263V132.358ZM134.288 132.358H135.217V135.147C135.217 137.861 135.223 137.942 135.333 138.052C135.402 138.122 135.517 138.169 135.633 138.163C135.736 138.157 135.858 138.157 135.892 138.163C135.944 138.169 135.967 138.273 135.967 138.808L135.719 138.872C135.586 138.907 135.333 138.924 135.159 138.901C134.986 138.883 134.779 138.819 134.698 138.761C134.617 138.697 134.502 138.564 134.438 138.453C134.329 138.262 134.323 138.134 134.306 135.31L134.288 132.358ZM76.8622 132.591C76.9949 132.591 77.1564 132.631 77.2372 132.684C77.318 132.742 77.4103 132.829 77.4507 132.875C77.4853 132.928 77.5314 133.05 77.5487 133.154C77.566 133.265 77.5487 133.427 77.4968 133.549C77.4449 133.66 77.3353 133.788 77.2372 133.84C77.1391 133.886 76.9603 133.927 76.8334 133.927C76.7064 133.927 76.5449 133.892 76.4699 133.857C76.4007 133.822 76.2968 133.741 76.2449 133.671C76.1814 133.59 76.1411 133.439 76.1411 133.259C76.1353 133.015 76.1641 132.939 76.2968 132.811C76.3834 132.73 76.4987 132.649 76.5449 132.631C76.591 132.614 76.7353 132.596 76.8622 132.591ZM96.5408 132.596C96.7888 132.614 96.8811 132.649 97.0254 132.794C97.1696 132.933 97.2042 133.015 97.21 133.23C97.21 133.369 97.1696 133.555 97.1235 133.637C97.0715 133.712 96.9677 133.811 96.8869 133.852C96.8004 133.892 96.6273 133.921 96.4888 133.921C96.3446 133.921 96.1658 133.875 96.0562 133.805C95.9292 133.729 95.8542 133.625 95.8139 133.474C95.785 133.352 95.7792 133.177 95.8023 133.09C95.8254 132.997 95.9292 132.84 96.0389 132.748C96.2119 132.596 96.2696 132.579 96.5408 132.596ZM101.381 132.649C101.871 132.649 101.935 132.66 101.987 132.765C102.021 132.835 102.039 133.939 102.027 135.81C102.021 137.419 101.993 138.761 101.964 138.785C101.941 138.814 101.773 138.843 101.589 138.854C101.41 138.866 101.191 138.86 101.104 138.843C101.018 138.819 100.92 138.744 100.821 138.54L100.47 138.715C100.164 138.872 100.06 138.889 99.6273 138.889C99.183 138.889 99.0965 138.872 98.8196 138.715C98.6465 138.622 98.4388 138.453 98.3465 138.337C98.26 138.227 98.1331 138.018 98.0696 137.872C98.0061 137.733 97.9196 137.407 97.8792 137.146C97.8273 136.78 97.8273 136.588 97.8792 136.216C97.9196 135.961 98.0061 135.635 98.0696 135.49C98.1331 135.351 98.2773 135.118 98.3869 134.985C98.508 134.833 98.71 134.677 98.9119 134.578C99.183 134.45 99.3215 134.421 99.6792 134.421C100.014 134.421 100.175 134.456 100.712 134.706V133.788C100.706 133.212 100.729 132.829 100.77 132.759C100.827 132.66 100.902 132.643 101.381 132.643V132.649ZM99.2753 135.862C99.1888 136.048 99.16 136.234 99.16 136.635C99.16 136.919 99.1946 137.256 99.235 137.378C99.2696 137.5 99.3792 137.669 99.4657 137.756C99.5926 137.878 99.6965 137.913 99.9561 137.93C100.17 137.942 100.36 137.919 100.498 137.861L100.718 137.768V135.56C100.47 135.461 100.256 135.414 100.083 135.403C99.8292 135.38 99.7253 135.397 99.5753 135.496C99.4715 135.56 99.3388 135.728 99.2753 135.862ZM120.419 134.305C120.673 134.316 121.002 134.369 121.429 134.514L121.412 134.845C121.406 135.031 121.371 135.176 121.342 135.17C121.308 135.165 121.088 135.136 120.852 135.101C120.575 135.066 120.304 135.06 120.102 135.095C119.929 135.13 119.704 135.2 119.612 135.258C119.514 135.322 119.375 135.496 119.294 135.653C119.162 135.908 119.15 136.001 119.15 136.635C119.15 137.262 119.162 137.355 119.294 137.611C119.375 137.768 119.514 137.942 119.612 138.006C119.704 138.064 119.929 138.134 120.102 138.163C120.275 138.192 120.564 138.198 120.737 138.169C120.91 138.145 121.152 138.111 121.487 138.058L121.458 138.721L121.169 138.837C120.944 138.924 120.742 138.953 120.275 138.953C119.721 138.953 119.635 138.936 119.3 138.779C119.081 138.68 118.839 138.506 118.706 138.36C118.585 138.227 118.435 137.989 118.365 137.837C118.302 137.686 118.221 137.378 118.187 137.158C118.152 136.931 118.14 136.577 118.158 136.373C118.181 136.164 118.233 135.862 118.279 135.705C118.325 135.542 118.452 135.281 118.556 135.124C118.66 134.967 118.873 134.752 119.035 134.648C119.19 134.543 119.467 134.415 119.64 134.369C119.852 134.311 120.112 134.289 120.419 134.305ZM124.083 134.281C124.371 134.276 124.677 134.311 124.833 134.363C124.977 134.415 125.19 134.537 125.312 134.642C125.438 134.746 125.606 134.973 125.687 135.153C125.785 135.368 125.842 135.6 125.86 135.874C125.877 136.1 125.871 136.408 125.813 136.838L122.929 136.832V136.966C122.929 137.036 122.969 137.239 123.021 137.413C123.079 137.617 123.183 137.803 123.298 137.907C123.396 138.006 123.581 138.116 123.708 138.157C123.835 138.198 124.158 138.227 124.429 138.227C124.7 138.227 125.092 138.18 125.312 138.122C125.525 138.07 125.715 138.041 125.733 138.052C125.744 138.07 125.756 138.221 125.756 138.692L125.421 138.825C125.138 138.936 124.977 138.953 124.285 138.953C123.54 138.953 123.448 138.941 123.165 138.808C122.975 138.726 122.738 138.54 122.571 138.36C122.369 138.134 122.265 137.959 122.185 137.692C122.127 137.495 122.058 137.158 122.035 136.948C122.012 136.733 122.023 136.391 122.058 136.135C122.098 135.897 122.19 135.56 122.265 135.38C122.346 135.205 122.519 134.95 122.652 134.816C122.796 134.677 123.044 134.508 123.246 134.427C123.517 134.311 123.696 134.281 124.083 134.281ZM123.287 135.281C123.171 135.391 123.062 135.589 123.01 135.763C122.963 135.92 122.929 136.083 122.929 136.123C122.929 136.181 123.177 136.193 123.967 136.193H125.006C125.006 135.769 124.96 135.554 124.902 135.444C124.85 135.333 124.729 135.194 124.637 135.124C124.527 135.043 124.371 135.002 124.146 134.99C123.967 134.985 123.742 135.008 123.65 135.037C123.552 135.066 123.39 135.176 123.287 135.281ZM138.402 134.287C138.713 134.281 139.077 134.305 139.209 134.34C139.348 134.369 139.561 134.485 139.688 134.589C139.815 134.694 139.971 134.897 140.029 135.037C140.132 135.269 140.144 135.467 140.167 136.954C140.179 137.861 140.173 138.668 140.156 138.738C140.121 138.854 140.086 138.872 139.371 138.872L139.313 138.465L139.036 138.639C138.886 138.738 138.632 138.854 138.477 138.901C138.315 138.947 138.056 138.988 137.9 138.988C137.738 138.982 137.507 138.953 137.381 138.918C137.236 138.877 137.046 138.755 136.884 138.587C136.665 138.372 136.602 138.256 136.544 138C136.509 137.82 136.498 137.57 136.521 137.448C136.538 137.32 136.602 137.123 136.659 137.012C136.711 136.896 136.856 136.722 136.983 136.617C137.104 136.513 137.334 136.385 137.496 136.333C137.721 136.257 137.929 136.245 138.419 136.269C138.765 136.286 139.1 136.315 139.152 136.333C139.244 136.367 139.256 136.327 139.256 135.966C139.256 135.693 139.221 135.49 139.152 135.351C139.088 135.217 138.99 135.124 138.881 135.089C138.782 135.06 138.5 135.031 138.246 135.031C137.992 135.037 137.577 135.083 137.323 135.147C137.069 135.205 136.838 135.24 136.815 135.217C136.792 135.2 136.781 135.048 136.804 134.601L137.092 134.491C137.248 134.433 137.484 134.363 137.611 134.34C137.738 134.311 138.096 134.287 138.402 134.287ZM137.565 137.192C137.513 137.268 137.456 137.407 137.432 137.5C137.409 137.611 137.432 137.762 137.49 137.896C137.554 138.052 137.646 138.14 137.796 138.203C137.946 138.267 138.096 138.285 138.275 138.262C138.419 138.244 138.696 138.145 138.892 138.052L139.256 137.884V136.983C138.829 136.914 138.552 136.896 138.361 136.896C138.171 136.896 137.934 136.931 137.836 136.977C137.738 137.024 137.617 137.117 137.565 137.192ZM143.536 134.34C143.657 134.34 143.796 134.351 143.842 134.369C143.905 134.386 143.929 134.491 143.929 135.211H143.496C143.196 135.211 142.965 135.246 142.757 135.327C142.59 135.391 142.411 135.49 142.354 135.542C142.261 135.635 142.25 135.786 142.256 138.872L141.361 138.843V134.427L141.736 134.403C142.082 134.386 142.111 134.398 142.152 134.52C142.175 134.595 142.198 134.729 142.198 134.816C142.198 134.903 142.209 134.979 142.227 134.979C142.244 134.979 142.377 134.868 142.527 134.74C142.677 134.613 142.919 134.467 143.063 134.427C143.207 134.38 143.421 134.345 143.536 134.34ZM70.6027 134.421C70.7757 134.438 71.0181 134.491 71.1334 134.537C71.2546 134.589 71.445 134.711 71.5603 134.816C71.6757 134.921 71.8315 135.112 71.9065 135.24C71.9815 135.362 72.0796 135.612 72.1315 135.792C72.1776 135.966 72.218 136.333 72.218 136.606C72.218 136.873 72.1776 137.251 72.1257 137.448C72.0796 137.64 71.9757 137.901 71.9065 138.029C71.8315 138.151 71.6815 138.349 71.5777 138.453C71.468 138.564 71.2777 138.709 71.1507 138.773C70.9661 138.872 70.8161 138.895 70.4296 138.895C70.0258 138.895 69.8873 138.872 69.3335 138.61V139.482C69.3335 140.086 69.3104 140.382 69.2642 140.452C69.2008 140.545 69.1142 140.557 68.0931 140.528L68.0758 137.593C68.0642 134.845 68.07 134.653 68.1623 134.584C68.22 134.543 68.4162 134.508 68.595 134.508C68.8488 134.508 68.9585 134.537 69.045 134.63C69.1085 134.688 69.1604 134.787 69.1604 134.845C69.1546 134.938 69.1604 134.938 69.2585 134.851C69.3162 134.799 69.4719 134.7 69.6046 134.636C69.7431 134.566 69.9508 134.485 70.0661 134.456C70.1873 134.427 70.4296 134.409 70.6027 134.421ZM69.3104 135.56C69.3335 137.739 69.3335 137.768 69.4604 137.837C69.5354 137.878 69.7892 137.907 70.0373 137.907C70.4296 137.907 70.4931 137.896 70.6315 137.762C70.7123 137.686 70.8161 137.489 70.8623 137.326C70.9084 137.169 70.9488 136.855 70.9488 136.629C70.9431 136.408 70.8969 136.094 70.845 135.937C70.7931 135.781 70.6834 135.606 70.6027 135.542C70.5219 135.478 70.3315 135.42 70.17 135.409C70.0084 135.397 69.7546 135.42 69.5988 135.473L69.3104 135.56ZM81.0102 134.398C81.1083 134.398 81.316 134.433 81.4717 134.479C81.6333 134.526 81.841 134.642 82.1064 134.909L82.5102 134.711C82.7352 134.601 83.0813 134.479 83.289 134.444C83.5833 134.392 83.7333 134.398 83.9813 134.456C84.2006 134.508 84.3679 134.595 84.5179 134.74C84.6679 134.88 84.7659 135.043 84.8236 135.234C84.8871 135.455 84.9044 135.903 84.9044 137.094C84.9044 137.983 84.8813 138.703 84.8467 138.75C84.8121 138.814 84.6621 138.843 84.3448 138.86C84.0794 138.872 83.8429 138.854 83.7679 138.819C83.6352 138.75 83.6352 138.75 83.6352 137.314C83.6352 136.501 83.6121 135.792 83.5775 135.688C83.5371 135.554 83.4679 135.478 83.3467 135.438C83.2371 135.403 83.0583 135.403 82.8737 135.432C82.7063 135.461 82.5102 135.513 82.441 135.548C82.3083 135.612 82.3083 135.624 82.2967 137.181C82.2852 138.041 82.2564 138.761 82.2333 138.79C82.2044 138.819 81.9852 138.848 81.7429 138.86C81.4833 138.872 81.2468 138.854 81.1718 138.819C81.0391 138.75 81.0391 138.744 81.0275 137.216C81.0102 135.699 81.0102 135.676 80.8775 135.542C80.7679 135.432 80.6929 135.414 80.4333 135.426C80.2602 135.432 80.0122 135.478 79.6545 135.612V137.181C79.6545 138.692 79.6487 138.755 79.5391 138.808C79.4756 138.843 79.2275 138.866 78.991 138.866C78.6852 138.866 78.5353 138.843 78.4718 138.779C78.3968 138.709 78.3853 138.395 78.3853 136.704C78.3853 135.606 78.4083 134.677 78.4314 134.636C78.4545 134.595 78.5872 134.549 78.7314 134.531C78.8756 134.508 79.0891 134.514 79.2102 134.531C79.3833 134.56 79.4352 134.601 79.5391 134.915L79.9314 134.711C80.1448 134.601 80.4333 134.485 80.5775 134.462C80.7218 134.433 80.9179 134.403 81.0102 134.398ZM109.296 134.427C109.521 134.438 109.862 134.508 110.046 134.578C110.254 134.659 110.467 134.799 110.635 134.973C110.779 135.118 110.952 135.356 111.021 135.496C111.085 135.641 111.171 135.897 111.206 136.065C111.241 136.234 111.269 136.513 111.269 136.687C111.269 136.867 111.241 137.146 111.206 137.314C111.171 137.483 111.085 137.739 111.021 137.878C110.952 138.023 110.779 138.262 110.635 138.407C110.473 138.575 110.254 138.721 110.058 138.796C109.885 138.86 109.585 138.936 109.394 138.953C109.198 138.976 108.898 138.97 108.702 138.93C108.512 138.895 108.252 138.814 108.125 138.755C107.998 138.692 107.785 138.529 107.646 138.395C107.508 138.256 107.335 138.012 107.26 137.849C107.185 137.692 107.098 137.367 107.069 137.123C107.041 136.873 107.041 136.501 107.064 136.251C107.093 135.996 107.173 135.699 107.254 135.525C107.335 135.368 107.508 135.124 107.646 134.985C107.785 134.845 107.998 134.682 108.125 134.624C108.252 134.56 108.471 134.485 108.616 134.456C108.76 134.427 109.066 134.409 109.296 134.427ZM108.61 135.618C108.5 135.728 108.419 135.897 108.379 136.094C108.344 136.263 108.327 136.606 108.339 136.861C108.356 137.158 108.408 137.413 108.477 137.553C108.535 137.681 108.668 137.82 108.76 137.866C108.858 137.919 109.037 137.959 109.164 137.959C109.291 137.959 109.464 137.919 109.556 137.861C109.643 137.808 109.769 137.64 109.839 137.489C109.937 137.268 109.966 137.1 109.966 136.687C109.966 136.274 109.937 136.106 109.839 135.891C109.769 135.74 109.654 135.577 109.585 135.531C109.51 135.49 109.377 135.438 109.279 135.426C109.187 135.409 109.031 135.409 108.939 135.42C108.852 135.438 108.702 135.525 108.61 135.618ZM129.263 134.392H130.192V135.978C130.192 136.85 130.221 137.657 130.25 137.779C130.285 137.901 130.377 138.052 130.469 138.116C130.602 138.221 130.688 138.238 131.029 138.215C131.323 138.203 131.531 138.145 132.159 137.849L132.154 134.392H133.077V138.866L132.69 138.854C132.35 138.843 132.298 138.825 132.281 138.721C132.269 138.657 132.252 138.575 132.24 138.535C132.217 138.482 132.142 138.5 131.969 138.604C131.831 138.68 131.565 138.802 131.375 138.866C131.15 138.947 130.885 138.988 130.596 138.988C130.256 138.988 130.111 138.959 129.904 138.848C129.731 138.761 129.586 138.622 129.298 138.151L129.263 134.392ZM87.7601 134.467C88.2043 134.485 88.3255 134.514 88.5966 134.659C88.7928 134.764 88.9774 134.921 89.087 135.077C89.2313 135.292 89.2659 135.397 89.2832 135.746C89.3063 136.106 89.2889 136.199 89.1678 136.414C89.0928 136.553 88.9428 136.722 88.8274 136.797C88.7178 136.873 88.5216 136.966 88.3947 137.012C88.2447 137.065 87.9159 137.094 86.6928 137.094L86.7274 137.268C86.7448 137.361 86.8082 137.506 86.8659 137.588C86.9236 137.669 87.0332 137.779 87.1082 137.837C87.2005 137.913 87.3851 137.954 87.6736 137.977C87.9678 138 88.2563 137.977 88.5563 137.913C88.8043 137.861 89.0293 137.832 89.0582 137.849C89.0928 137.866 89.1216 138.041 89.1216 138.238C89.1216 138.471 89.0928 138.628 89.0466 138.668C89.0063 138.709 88.8332 138.779 88.6543 138.831C88.4813 138.883 88.1582 138.941 87.9332 138.965C87.6967 138.982 87.3794 138.97 87.1544 138.93C86.9524 138.889 86.6524 138.785 86.4967 138.703C86.3467 138.616 86.1275 138.442 86.0236 138.314C85.914 138.186 85.7698 137.936 85.7005 137.762C85.5967 137.5 85.5736 137.32 85.5736 136.745C85.5736 136.164 85.5909 135.996 85.7005 135.728C85.7698 135.554 85.9255 135.292 86.0467 135.147C86.1678 135.002 86.3698 134.822 86.4967 134.74C86.6236 134.665 86.8428 134.566 86.9813 134.526C87.1371 134.479 87.4601 134.456 87.7601 134.467ZM87.0217 135.542C86.964 135.595 86.889 135.693 86.8544 135.757C86.8198 135.821 86.7678 135.961 86.7447 136.059C86.6986 136.245 86.6986 136.251 86.9121 136.286C87.0332 136.309 87.3044 136.315 87.5236 136.303C87.8582 136.286 87.9332 136.257 88.0313 136.135C88.089 136.054 88.1409 135.92 88.1409 135.827C88.1409 135.74 88.112 135.618 88.0774 135.554C88.0486 135.49 87.9274 135.414 87.8063 135.38C87.6851 135.351 87.564 135.322 87.5294 135.327C87.5005 135.327 87.3967 135.356 87.2986 135.385C87.2063 135.414 87.0794 135.484 87.0217 135.542ZM104.837 134.45C105.062 134.45 105.385 134.491 105.558 134.543C105.794 134.613 105.944 134.706 106.141 134.903C106.325 135.095 106.423 135.258 106.469 135.449C106.51 135.606 106.539 135.786 106.539 135.856C106.539 135.932 106.51 136.094 106.475 136.222C106.441 136.356 106.319 136.542 106.204 136.658C106.089 136.774 105.852 136.919 105.673 136.977C105.425 137.07 105.206 137.094 103.902 137.094L103.977 137.355C104.023 137.5 104.121 137.675 104.202 137.744C104.283 137.82 104.445 137.901 104.566 137.936C104.687 137.965 104.918 137.994 105.085 137.994C105.252 137.994 105.575 137.954 105.806 137.907C106.141 137.837 106.239 137.837 106.296 137.896C106.343 137.936 106.371 138.093 106.371 138.256C106.371 138.459 106.343 138.575 106.268 138.645C106.21 138.697 106.008 138.785 105.818 138.843C105.575 138.918 105.298 138.947 104.866 138.947C104.445 138.941 104.185 138.912 104 138.843C103.862 138.785 103.62 138.645 103.464 138.529C103.262 138.378 103.135 138.215 103.02 137.965C102.927 137.774 102.823 137.431 102.789 137.21C102.754 136.983 102.743 136.635 102.766 136.426C102.783 136.216 102.852 135.914 102.91 135.757C102.968 135.595 103.095 135.356 103.193 135.217C103.291 135.083 103.475 134.903 103.608 134.81C103.746 134.723 103.983 134.607 104.145 134.555C104.306 134.496 104.618 134.45 104.837 134.45ZM104.231 135.542C104.145 135.629 104.041 135.81 103.995 135.943C103.954 136.077 103.937 136.211 103.966 136.234C103.989 136.257 104.254 136.28 104.554 136.28C105.039 136.28 105.108 136.269 105.229 136.147C105.31 136.059 105.356 135.943 105.356 135.815C105.356 135.693 105.316 135.571 105.241 135.502C105.177 135.444 105.039 135.38 104.923 135.368C104.814 135.351 104.646 135.351 104.554 135.362C104.462 135.374 104.318 135.455 104.231 135.542ZM73.4815 134.508C73.6719 134.508 73.8507 134.543 73.9315 134.595C74.018 134.653 74.0699 134.758 74.1161 135.147L74.3642 134.926C74.4968 134.804 74.7276 134.659 74.8661 134.601C75.0276 134.543 75.2411 134.508 75.7026 134.537L75.7199 135.031C75.7257 135.362 75.7084 135.548 75.6622 135.6C75.6161 135.647 75.4488 135.676 75.2007 135.67C74.9872 135.67 74.6815 135.705 74.2315 135.815V137.251C74.2315 138.488 74.2199 138.703 74.1449 138.779C74.0815 138.843 73.9257 138.866 73.6257 138.866C73.3892 138.866 73.1411 138.837 73.0776 138.808C72.968 138.75 72.9623 138.686 72.9565 136.687C72.9449 134.711 72.9507 134.63 73.0546 134.572C73.118 134.537 73.3084 134.508 73.4815 134.508ZM76.816 134.508C77.0468 134.508 77.2833 134.531 77.3468 134.566C77.4622 134.624 77.4622 134.682 77.4622 136.687C77.4622 138.692 77.4622 138.75 77.3468 138.808C77.2833 138.837 77.0526 138.866 76.8276 138.866C76.6084 138.866 76.3718 138.837 76.3084 138.808C76.1987 138.75 76.193 138.686 76.1872 136.687C76.1757 134.711 76.1814 134.63 76.2853 134.572C76.3487 134.537 76.5853 134.508 76.816 134.508ZM91.7812 134.526C92.1101 134.531 92.312 134.566 92.3581 134.613C92.4043 134.659 92.6177 135.339 92.8427 136.123C93.0677 136.914 93.2697 137.529 93.287 137.5C93.3043 137.466 93.5004 136.815 93.7312 136.048C93.9562 135.281 94.1639 134.624 94.1985 134.595C94.2331 134.56 94.4466 134.526 94.6716 134.514C94.9023 134.502 95.1619 134.508 95.2485 134.531C95.3581 134.555 95.4042 134.601 95.4042 134.682C95.4042 134.746 95.0696 135.682 94.6543 136.757C94.2446 137.837 93.8754 138.744 93.8466 138.779C93.812 138.808 93.587 138.843 93.3389 138.854C93.0562 138.866 92.8485 138.843 92.762 138.796C92.6466 138.732 92.4793 138.343 91.8793 136.774C91.4697 135.705 91.1293 134.77 91.1235 134.7C91.1178 134.63 91.1524 134.56 91.1985 134.543C91.2447 134.526 91.5101 134.52 91.7812 134.526ZM96.4888 134.508C96.7196 134.508 96.9561 134.531 97.0196 134.566C97.135 134.624 97.135 134.682 97.135 136.687C97.135 138.692 97.135 138.75 97.0196 138.808C96.9561 138.837 96.7254 138.866 96.5004 138.866C96.2812 138.866 96.0446 138.837 95.9812 138.808C95.8715 138.75 95.8658 138.686 95.86 136.687C95.8485 134.711 95.8542 134.63 95.9581 134.572C96.0215 134.537 96.2581 134.508 96.4888 134.508ZM99.4715 140.69C99.9446 140.708 100.371 140.748 100.504 140.795C100.625 140.836 100.775 140.917 100.833 140.969C100.925 141.056 100.943 141.155 100.943 141.539C100.943 141.794 100.908 142.178 100.862 142.393C100.816 142.614 100.718 142.968 100.637 143.195C100.562 143.415 100.4 143.799 100.279 144.037C100.152 144.275 99.8926 144.636 99.7023 144.839C99.5119 145.037 99.3157 145.205 99.258 145.199C99.2003 145.199 99.1427 145.164 99.1196 145.124C99.1023 145.089 99.1946 144.74 99.3273 144.357C99.46 143.973 99.633 143.398 99.708 143.078C99.783 142.759 99.8465 142.399 99.8465 142.277C99.8465 142.16 99.8292 142.021 99.8061 141.969C99.783 141.916 99.685 141.835 99.5869 141.783C99.4946 141.736 99.1946 141.69 98.9234 141.672C98.658 141.655 98.0696 141.684 97.6254 141.736C96.9158 141.812 96.8119 141.812 96.7311 141.736C96.6677 141.672 96.6619 141.626 96.7081 141.55C96.7427 141.498 96.8985 141.364 97.0542 141.26C97.21 141.155 97.4811 141.016 97.6542 140.952C97.8331 140.888 98.1273 140.795 98.3177 140.754C98.5542 140.696 98.9234 140.679 99.4715 140.69ZM78.7372 140.9C78.766 140.9 79.0314 141.045 79.3256 141.225C79.6199 141.405 80.2487 141.742 80.7218 141.974C81.2006 142.213 81.7948 142.486 82.0487 142.59C82.3025 142.689 82.8506 142.892 83.2602 143.032C83.6756 143.171 84.3506 143.375 84.7602 143.485C85.1755 143.59 85.7986 143.735 86.1448 143.799C86.4967 143.863 87.0794 143.962 87.4428 144.008C87.812 144.06 88.7293 144.118 89.4909 144.136C90.3909 144.159 91.1524 144.142 91.6543 144.101C92.087 144.06 92.8139 143.962 93.2697 143.886C93.7312 143.811 94.4177 143.671 94.7985 143.578C95.1792 143.485 95.8312 143.299 96.2408 143.166C96.6561 143.032 97.3831 142.765 97.8561 142.573C98.4388 142.335 98.7677 142.236 98.8542 142.259C98.9234 142.277 99.01 142.352 99.0503 142.422C99.085 142.497 99.0965 142.625 99.0792 142.712C99.0503 142.829 98.9003 142.98 98.5484 143.235C98.2773 143.439 97.7869 143.758 97.4638 143.944C97.1408 144.136 96.5927 144.415 96.2408 144.577C95.8946 144.734 95.2312 144.99 94.7696 145.147C94.3139 145.304 93.587 145.507 93.1543 145.6C92.7274 145.699 92.0812 145.815 91.712 145.862C91.3485 145.908 90.7139 145.966 90.2985 145.989C89.8659 146.013 89.1909 145.995 88.6832 145.96C88.2101 145.92 87.5236 145.838 87.1544 145.774C86.7909 145.711 86.1909 145.583 85.8159 145.49C85.4409 145.391 84.8063 145.193 84.4025 145.048C83.9986 144.903 83.2775 144.589 82.7987 144.357C82.3256 144.118 81.5871 143.694 81.1544 143.41C80.7275 143.131 80.116 142.683 79.7987 142.428C79.4814 142.166 79.0602 141.8 78.8641 141.614C78.6679 141.428 78.5006 141.231 78.5006 141.178C78.4949 141.126 78.5353 141.039 78.5872 140.992C78.6391 140.94 78.7083 140.9 78.7372 140.9Z" fill="#F5F5F5"/>
</g>
<defs>
<clipPath id="clip0_2813_541">
<rect width="132" height="46" fill="white" transform="translate(12 103)"/>
</clipPath>
<clipPath id="clip1_2813_541">
<rect width="19.6364" height="12" fill="white" transform="translate(14 131)"/>
</clipPath>
</defs>
</svg>
