<svg width="156" height="188" viewBox="0 0 156 188" fill="none" xmlns="http://www.w3.org/2000/svg">
<rect x="0.5" y="0.5" width="155" height="187" rx="11.5" fill="#002198"/>
<rect x="0.5" y="0.5" width="155" height="187" rx="11.5" stroke="#5270FE"/>
<path d="M15.348 24C14.916 24 14.844 23.976 14.844 23.868V16.284H12.336C12.228 16.284 12.192 16.224 12.192 15.852V15.78C12.192 15.42 12.216 15.36 12.336 15.36H18.504C18.624 15.36 18.648 15.42 18.648 15.792V15.852C18.648 16.224 18.612 16.284 18.504 16.284H15.996V23.868C15.996 23.988 15.9 24 15.456 24H15.348ZM20.3558 24C19.9118 24 19.8518 23.976 19.8518 23.868V15.492C19.8518 15.384 19.9118 15.36 20.3558 15.36H20.4758C20.9198 15.36 21.0038 15.372 21.0038 15.492V23.868C21.0038 23.988 20.9198 24 20.4758 24H20.3558ZM23.4958 24C23.0158 24 22.9558 23.988 22.9558 23.88V15.504C22.9558 15.384 23.0278 15.36 23.5198 15.36H23.7358C24.1918 15.36 24.2878 15.396 24.3358 15.504L26.0278 18.912C26.4358 19.74 26.8078 20.52 27.0838 21.18C27.3838 20.46 27.7558 19.608 28.0918 18.912L29.7598 15.504C29.8078 15.396 29.8918 15.36 30.3838 15.36H30.5398C31.0078 15.36 31.0798 15.384 31.0798 15.504V23.88C31.0798 23.988 31.0198 24 30.5758 24H30.4918C30.0238 24 29.9758 23.988 29.9758 23.88V19.896C29.9758 19.212 29.9878 17.832 29.9998 17.208C29.6998 17.952 29.2798 18.84 28.9078 19.596L27.5518 22.356C27.5038 22.452 27.4678 22.476 27.0718 22.476H27.0358C26.5918 22.476 26.5678 22.452 26.5198 22.356L25.1038 19.536C24.7198 18.768 24.3838 18.048 24.0358 17.208C24.0598 17.88 24.0598 19.14 24.0598 19.908V23.88C24.0598 23.988 24.0118 24 23.5558 24H23.4958ZM39.3353 24.12C37.0313 24.12 35.9393 23.028 35.9393 20.856V15.492C35.9393 15.384 36.0593 15.36 36.4193 15.36H36.5633C36.9593 15.36 37.0793 15.384 37.0793 15.492V20.772C37.0793 22.344 37.8233 23.16 39.3953 23.16C40.8953 23.16 41.7113 22.284 41.7113 20.784V15.492C41.7113 15.384 41.8193 15.36 42.1913 15.36H42.3353C42.7313 15.36 42.8393 15.384 42.8393 15.492V20.64C42.8393 22.944 41.6993 24.12 39.3353 24.12ZM45.7021 24.012C45.3661 24.012 45.0301 23.928 44.8141 23.604C44.6581 23.376 44.6101 22.98 44.6101 22.344V18.324C44.6101 17.064 44.5981 15.504 44.5381 15.036C44.5261 14.916 44.6461 14.88 45.0541 14.88H45.1261C45.5101 14.88 45.5941 14.916 45.6181 15.036C45.6781 15.372 45.6901 16.812 45.6901 18.588V22.572C45.6901 23.016 45.7501 23.172 46.1461 23.172H46.2661C46.3261 23.172 46.3381 23.22 46.3381 23.496V23.532C46.3381 23.844 46.3381 23.892 46.2661 23.916C46.0981 23.976 45.8821 24.012 45.7021 24.012ZM49.6364 24.12C49.0964 24.12 48.7004 23.976 48.4364 23.724C48.0884 23.4 47.9804 22.944 47.9804 22.14V18.516H46.9364C46.8644 18.516 46.8404 18.456 46.8404 18.24V18.168C46.8404 17.976 46.8644 17.904 46.9484 17.88C47.9924 17.58 48.1844 17.1 48.3044 15.984C48.3164 15.912 48.3764 15.888 48.6404 15.888H48.7244C49.0004 15.888 49.0604 15.924 49.0604 15.996V17.664H50.5724C50.6564 17.664 50.6804 17.724 50.6804 18.036V18.132C50.6804 18.456 50.6564 18.516 50.5724 18.516H49.0604V22.056C49.0604 22.512 49.0964 22.812 49.2524 22.98C49.3844 23.124 49.5884 23.196 49.8644 23.196C50.1404 23.196 50.4404 23.112 50.6804 23.04C50.8004 23.004 50.8364 23.052 50.8964 23.28L50.9324 23.436C50.9924 23.688 50.9924 23.76 50.8964 23.82C50.5964 24.012 50.0804 24.12 49.6364 24.12ZM52.6744 24C52.1944 24 52.1584 23.952 52.1584 23.856V19.764C52.1584 18.948 52.1344 18.108 52.1344 17.808C52.1344 17.712 52.1704 17.664 52.6264 17.664H52.6864C53.1184 17.664 53.1784 17.7 53.1784 17.808L53.2024 19.044C53.6584 18.036 54.3184 17.592 54.9544 17.592C55.0624 17.592 55.1464 17.604 55.2064 17.616C55.3144 17.64 55.3264 17.676 55.3264 17.952V18.132C55.3264 18.48 55.3144 18.576 55.1944 18.576C54.3424 18.576 53.9104 19.104 53.5624 19.668C53.3944 19.944 53.2984 20.28 53.2744 20.7C53.2504 21.036 53.2384 21.78 53.2384 22.476V23.856C53.2384 23.94 53.2264 24 52.7464 24H52.6744ZM58.4674 24.12C56.7154 24.12 55.8994 22.668 55.8994 20.94C55.8994 18.888 57.0754 17.544 58.6594 17.544C59.3794 17.544 59.9434 17.88 60.2794 18.312L60.3394 17.808C60.3514 17.664 60.4114 17.664 60.7714 17.664H60.7954C61.2514 17.664 61.2634 17.712 61.2634 17.808C61.2634 18.096 61.2394 18.864 61.2394 19.632V21.312C61.2394 22.416 61.2874 23.196 61.3234 23.856C61.3234 23.952 61.2634 24 60.8914 24H60.8434C60.4714 24 60.3994 23.964 60.3874 23.856L60.3154 23.304C59.9314 23.772 59.2474 24.12 58.4674 24.12ZM58.6594 23.16C59.0554 23.16 59.5354 23.04 59.8594 22.692C60.1114 22.416 60.1594 22.08 60.1594 21.036V19.332C59.8834 18.9 59.3434 18.516 58.7794 18.516C57.6754 18.516 57.0274 19.44 57.0274 20.88C57.0274 22.008 57.4234 23.16 58.6594 23.16ZM63.656 24C63.164 24 63.116 23.988 63.116 23.856V15.36H68.24C68.36 15.36 68.384 15.408 68.384 15.78V15.852C68.384 16.224 68.36 16.284 68.24 16.284H64.256V19.164H67.64C67.748 19.164 67.784 19.212 67.784 19.584V19.656C67.784 20.028 67.748 20.088 67.64 20.088H64.256V23.856C64.256 23.976 64.196 24 63.74 24H63.656ZM70.0416 16.476C69.6216 16.476 69.2856 16.14 69.2856 15.72C69.2856 15.3 69.6216 14.964 70.0416 14.964C70.4616 14.964 70.7976 15.3 70.7976 15.72C70.7976 16.14 70.4616 16.476 70.0416 16.476ZM70.0176 24C69.5376 24 69.5016 23.952 69.5016 23.856V17.808C69.5016 17.712 69.5376 17.664 70.0176 17.664H70.0896C70.5696 17.664 70.5816 17.724 70.5816 17.808V23.856C70.5816 23.94 70.5696 24 70.0896 24H70.0176ZM74.5924 24.12C73.6684 24.12 72.9604 23.952 72.4084 23.7C72.3844 23.688 72.3724 23.628 72.3724 23.58V15.024C72.3724 14.928 72.4084 14.88 72.8884 14.88H72.9604C73.4404 14.88 73.4524 14.94 73.4524 15.024V18.252C73.8004 17.844 74.5324 17.544 75.2404 17.544C76.2004 17.544 76.9204 18.048 77.3044 18.864C77.5324 19.356 77.6644 19.98 77.6644 20.664C77.6644 22.788 76.6204 24.12 74.5924 24.12ZM74.4964 23.184C75.8644 23.184 76.5364 22.188 76.5364 20.748C76.5364 19.308 76.0204 18.564 75.0004 18.564C74.5564 18.564 74.0884 18.732 73.8124 19.008C73.6684 19.152 73.5364 19.356 73.4884 19.872C73.4644 20.208 73.4524 20.796 73.4524 21.492V22.98C73.7524 23.1 74.1484 23.184 74.4964 23.184ZM79.6392 24C79.1592 24 79.1232 23.952 79.1232 23.856V19.764C79.1232 18.948 79.0992 18.108 79.0992 17.808C79.0992 17.712 79.1352 17.664 79.5912 17.664H79.6512C80.0832 17.664 80.1432 17.7 80.1432 17.808L80.1672 19.044C80.6232 18.036 81.2832 17.592 81.9192 17.592C82.0272 17.592 82.1112 17.604 82.1712 17.616C82.2792 17.64 82.2912 17.676 82.2912 17.952V18.132C82.2912 18.48 82.2792 18.576 82.1592 18.576C81.3072 18.576 80.8752 19.104 80.5272 19.668C80.3592 19.944 80.2632 20.28 80.2392 20.7C80.2152 21.036 80.2032 21.78 80.2032 22.476V23.856C80.2032 23.94 80.1912 24 79.7112 24H79.6392ZM85.4322 24.12C83.6802 24.12 82.8642 22.668 82.8642 20.94C82.8642 18.888 84.0402 17.544 85.6242 17.544C86.3442 17.544 86.9082 17.88 87.2442 18.312L87.3042 17.808C87.3162 17.664 87.3762 17.664 87.7362 17.664H87.7602C88.2162 17.664 88.2282 17.712 88.2282 17.808C88.2282 18.096 88.2042 18.864 88.2042 19.632V21.312C88.2042 22.416 88.2522 23.196 88.2882 23.856C88.2882 23.952 88.2282 24 87.8562 24H87.8082C87.4362 24 87.3642 23.964 87.3522 23.856L87.2802 23.304C86.8962 23.772 86.2122 24.12 85.4322 24.12ZM85.6242 23.16C86.0202 23.16 86.5002 23.04 86.8242 22.692C87.0762 22.416 87.1242 22.08 87.1242 21.036V19.332C86.8482 18.9 86.3082 18.516 85.7442 18.516C84.6402 18.516 83.9922 19.44 83.9922 20.88C83.9922 22.008 84.3882 23.16 85.6242 23.16Z" fill="white"/>
<path d="M18.6 55.24C14.64 55.24 12.936 52.192 12.936 47.656C12.936 41.92 15.36 37.48 19.776 37.48C21.096 37.48 22.248 37.888 22.992 38.344C23.304 38.536 23.304 38.68 22.992 39.256L22.728 39.76C22.44 40.336 22.32 40.36 22.08 40.264C21.36 39.928 20.64 39.736 19.896 39.736C17.352 39.736 16.296 42.232 15.936 45.208C16.872 44.536 18.12 44.056 19.344 44.056C22.44 44.056 24.264 46.216 24.264 49.288C24.264 52.504 22.128 55.24 18.6 55.24ZM18.696 52.96C20.352 52.96 21.456 51.52 21.456 49.456C21.456 47.584 20.64 46.288 18.696 46.288C17.736 46.288 16.608 46.72 15.816 47.248C15.84 51.112 16.704 52.96 18.696 52.96ZM32.0353 55.24C28.3633 55.24 26.1793 52.432 26.1793 46.696C26.1793 40.696 28.4593 37.48 32.4193 37.48C36.0673 37.48 38.2513 40.24 38.2513 46.024C38.2513 51.976 35.9713 55.24 32.0353 55.24ZM32.1073 52.888C34.3153 52.888 35.3473 50.488 35.3473 46.168C35.3473 41.872 34.3393 39.832 32.2993 39.832C30.1393 39.832 29.0833 42.208 29.0833 46.528C29.0833 50.824 30.0913 52.888 32.1073 52.888ZM46.0744 55.24C42.4024 55.24 40.2184 52.432 40.2184 46.696C40.2184 40.696 42.4984 37.48 46.4584 37.48C50.1064 37.48 52.2904 40.24 52.2904 46.024C52.2904 51.976 50.0104 55.24 46.0744 55.24ZM46.1464 52.888C48.3544 52.888 49.3864 50.488 49.3864 46.168C49.3864 41.872 48.3784 39.832 46.3384 39.832C44.1784 39.832 43.1224 42.208 43.1224 46.528C43.1224 50.824 44.1304 52.888 46.1464 52.888ZM62.5117 55C61.2878 55 61.1678 54.976 61.1678 54.688V38.056C61.1678 37.744 61.3838 37.72 62.5117 37.72H63.2798C64.4318 37.72 64.6238 37.792 64.7678 38.08L67.5278 43.72C68.4398 45.568 69.2558 47.536 69.7358 48.832C70.2158 47.536 71.0798 45.544 71.9438 43.72L74.6558 38.08C74.7998 37.792 74.9918 37.72 76.1438 37.72H76.7678C77.8718 37.72 78.0878 37.792 78.0878 38.056V54.688C78.0878 54.976 77.9438 55 76.7678 55H76.5758C75.3518 55 75.2558 54.976 75.2558 54.688V47.44C75.2558 46.144 75.2798 43.408 75.3518 42.304C74.7278 43.96 74.0558 45.472 73.1438 47.368L71.0558 51.712C70.9358 51.952 70.8878 52 69.7838 52H69.5438C68.4398 52 68.3438 51.952 68.2238 51.712L66.0878 47.368C65.1758 45.52 64.5278 44.032 63.8798 42.328C63.9758 43.456 63.9998 46.096 63.9998 47.464V54.688C63.9998 54.976 63.8558 55 62.6558 55H62.5117ZM82.8499 55C81.9619 55 81.7459 54.952 81.7459 54.76V37.96C81.7459 37.744 81.9859 37.72 82.8019 37.72H92.3299C92.6179 37.72 92.6659 37.792 92.6659 38.8V38.968C92.6659 39.928 92.5939 40.072 92.3299 40.072H84.6979V45.088H91.1779C91.4659 45.088 91.5139 45.16 91.5139 46.168V46.312C91.5139 47.296 91.4419 47.44 91.1779 47.44H84.6979V52.648H92.4259C92.7139 52.648 92.7619 52.72 92.7619 53.728V53.896C92.7619 54.832 92.7139 55 92.4259 55H82.8499ZM103.27 55.24C97.7261 55.24 95.0621 51.808 95.0621 46.408C95.0621 40.984 98.1581 37.48 103.51 37.48C105.574 37.48 107.326 37.96 108.838 38.968C109.102 39.136 109.102 39.28 108.694 40L108.406 40.504C108.046 41.128 107.926 41.176 107.614 41.008C106.39 40.288 105.07 39.952 103.678 39.952C100.078 39.952 98.0861 42.208 98.0861 46.36C98.0861 50.584 99.9821 52.792 103.582 52.792C104.518 52.792 105.646 52.624 106.438 52.384V47.872H103.054C102.766 47.872 102.67 47.8 102.67 46.768V46.6C102.67 45.568 102.742 45.52 103.054 45.52H108.478C109.222 45.52 109.342 45.592 109.342 45.88V53.656C109.342 53.92 109.27 54.04 109.006 54.16C107.71 54.784 105.31 55.24 103.27 55.24ZM112.561 55C111.313 55 111.265 54.904 111.361 54.64L117.769 38.08C117.889 37.768 117.985 37.72 119.185 37.72H119.377C120.625 37.72 120.721 37.744 120.865 38.08L127.393 54.616C127.513 54.928 127.345 55 126.145 55H125.833C124.609 55 124.393 54.904 124.297 54.64L122.761 50.536H115.801L114.313 54.64C114.169 54.952 114.025 55 112.801 55H112.561ZM116.641 48.28H121.945L121.297 46.504C120.409 44.056 119.809 42.328 119.305 40.744C118.777 42.28 118.153 44.176 117.313 46.432L116.641 48.28Z" fill="white"/>
<path d="M26.016 84.14C26.184 84.404 25.944 84.5 25.272 84.5H24.624C23.784 84.5 23.616 84.476 23.448 84.212L20.448 79.292C19.392 77.564 19.032 77.444 17.328 77.444H16.2V84.236C16.2 84.476 16.032 84.5 15.144 84.5H14.904C14.016 84.5 13.896 84.452 13.896 84.236V67.22H18.288C22.8 67.22 25.344 68.54 25.344 72.044C25.344 74.708 23.832 76.316 21.288 77.084C21.72 77.42 22.104 77.948 22.704 78.884L26.016 84.14ZM18.624 75.62C21.336 75.62 22.968 74.588 22.968 72.188C22.968 69.788 21.384 69.068 18.504 69.068H16.2V75.62H18.624ZM39.2691 79.868C39.2691 82.364 37.5171 84.212 34.5891 84.644V86.804C34.5891 86.996 34.3731 87.068 33.8211 87.068H33.3651C32.7651 87.068 32.5731 86.996 32.5731 86.804V84.716C30.7251 84.596 28.9011 83.996 27.9651 83.276C27.7491 83.108 27.7011 82.964 28.0611 82.316L28.2051 82.052C28.4931 81.524 28.6371 81.452 28.8531 81.572C30.1251 82.34 31.6131 82.844 33.1011 82.844C35.5011 82.844 36.9891 81.644 36.9891 79.868C36.9891 78.356 36.0051 77.732 33.0291 76.388C29.8611 74.948 28.5891 73.7 28.5891 71.516C28.5891 69.068 30.5331 67.412 33.1011 67.052V65.084C33.1011 64.892 33.3171 64.82 33.8691 64.82H34.3251C34.9251 64.82 35.1171 64.892 35.1171 65.084V67.028C36.4371 67.148 37.5891 67.532 38.5731 68.18C38.8371 68.348 38.8371 68.444 38.5251 69.068L38.4051 69.308C38.0931 69.932 37.9971 69.956 37.7331 69.812C36.5331 69.188 35.4291 68.852 34.2531 68.852C32.3091 68.852 30.8691 69.884 30.8691 71.396C30.8691 72.812 31.8771 73.484 34.4451 74.684C37.6131 76.172 39.2691 77.324 39.2691 79.868ZM42.9268 84.5C42.7828 84.5 42.7348 84.404 42.7348 83.804V83.42C42.7348 82.82 42.7828 82.724 42.9268 82.724H45.6148V69.836L42.2308 71.852C42.0628 71.948 41.7988 71.756 41.5588 71.324L41.3908 71.036C41.1508 70.628 41.1028 70.292 41.2468 70.196L45.6388 67.46C45.8788 67.316 46.1668 67.22 46.6228 67.22H47.0548C47.6788 67.22 47.8948 67.292 47.8948 67.484V82.724H50.3908C50.5348 82.724 50.5828 82.916 50.5828 83.396V83.804C50.5828 84.26 50.5348 84.5 50.3908 84.5H42.9268ZM54.3409 84.5C54.1969 84.5 54.1489 84.404 54.1489 83.804V83.42C54.1489 82.82 54.1969 82.724 54.3409 82.724H57.0289V69.836L53.6449 71.852C53.4769 71.948 53.2129 71.756 52.9729 71.324L52.8049 71.036C52.5649 70.628 52.5169 70.292 52.6609 70.196L57.0529 67.46C57.2929 67.316 57.5809 67.22 58.0369 67.22H58.4689C59.0929 67.22 59.3089 67.292 59.3089 67.484V82.724H61.8049C61.9489 82.724 61.9969 82.916 61.9969 83.396V83.804C61.9969 84.26 61.9489 84.5 61.8049 84.5H54.3409ZM68.3949 84.74C66.9789 84.74 65.8749 84.428 64.8909 83.924C64.7229 83.828 64.7469 83.396 64.9149 83.012L65.0109 82.796C65.1789 82.412 65.4669 82.1 65.6349 82.196C66.3789 82.604 67.5069 82.844 68.3949 82.844C71.9709 82.844 72.8829 79.172 73.0749 76.028C72.1149 76.844 70.6509 77.372 69.3069 77.372C65.9469 77.372 64.4349 75.284 64.4349 72.356C64.4349 69.26 66.3549 66.98 69.9069 66.98C74.3469 66.98 75.4269 70.508 75.4269 74.468C75.4269 79.556 73.8669 84.74 68.3949 84.74ZM69.6189 75.476C71.0589 75.476 72.2829 74.852 73.1709 74.3V74.012C73.1709 71.708 72.7869 68.852 69.8349 68.852C67.4829 68.852 66.7149 70.628 66.7149 72.14C66.7149 73.82 67.2909 75.476 69.6189 75.476Z" fill="white"/>
<path d="M78.008 75.968C77.912 76.052 77.78 76.064 77.66 75.944L77.528 75.8C77.456 75.728 77.384 75.596 77.504 75.476C77.852 75.14 78.2 74.696 78.2 74.276C78.2 73.784 77.672 73.88 77.672 73.196C77.672 72.776 78.02 72.5 78.428 72.5C78.98 72.5 79.304 72.92 79.304 73.436C79.304 74.384 78.776 75.356 78.008 75.968ZM82.4865 74.12C81.7785 74.12 81.2265 73.964 80.7345 73.712C80.6505 73.664 80.6625 73.448 80.7465 73.256L80.7945 73.148C80.8785 72.956 81.0225 72.8 81.1065 72.848C81.4785 73.052 82.0425 73.172 82.4865 73.172C84.2745 73.172 84.7305 71.336 84.8265 69.764C84.3465 70.172 83.6145 70.436 82.9425 70.436C81.2625 70.436 80.5065 69.392 80.5065 67.928C80.5065 66.38 81.4665 65.24 83.2425 65.24C85.4625 65.24 86.0025 67.004 86.0025 68.984C86.0025 71.528 85.2225 74.12 82.4865 74.12ZM83.0985 69.488C83.8185 69.488 84.4305 69.176 84.8745 68.9V68.756C84.8745 67.604 84.6825 66.176 83.2065 66.176C82.0305 66.176 81.6465 67.064 81.6465 67.82C81.6465 68.66 81.9345 69.488 83.0985 69.488ZM89.1545 74.12C88.4465 74.12 87.8945 73.964 87.4025 73.712C87.3185 73.664 87.3305 73.448 87.4145 73.256L87.4625 73.148C87.5465 72.956 87.6905 72.8 87.7745 72.848C88.1465 73.052 88.7105 73.172 89.1545 73.172C90.9425 73.172 91.3985 71.336 91.4945 69.764C91.0145 70.172 90.2825 70.436 89.6105 70.436C87.9305 70.436 87.1745 69.392 87.1745 67.928C87.1745 66.38 88.1345 65.24 89.9105 65.24C92.1305 65.24 92.6705 67.004 92.6705 68.984C92.6705 71.528 91.8905 74.12 89.1545 74.12ZM89.7665 69.488C90.4865 69.488 91.0985 69.176 91.5425 68.9V68.756C91.5425 67.604 91.3505 66.176 89.8745 66.176C88.6985 66.176 88.3145 67.064 88.3145 67.82C88.3145 68.66 88.6025 69.488 89.7665 69.488Z" fill="white"/>
<path d="M77.516 86.204C77.228 86.204 77.12 86.156 77.144 86.06L79.784 77.264C79.82 77.156 79.928 77.144 80.204 77.144H80.432C80.72 77.144 80.84 77.192 80.816 77.288L78.188 86.084C78.164 86.168 78.032 86.204 77.756 86.204H77.516ZM82.3649 86C81.8849 86 81.8489 85.952 81.8489 85.856V81.764C81.8489 80.948 81.8249 80.108 81.8249 79.808C81.8249 79.712 81.8609 79.664 82.3169 79.664H82.3769C82.8089 79.664 82.8689 79.7 82.8689 79.808L82.8809 80.348H82.8929C83.3129 79.856 84.0089 79.544 84.7529 79.544C85.4129 79.544 85.9769 79.772 86.3729 80.18C86.4809 80.3 86.5769 80.42 86.6489 80.564C87.1289 79.904 87.9569 79.544 88.8089 79.544C89.4689 79.544 90.0329 79.772 90.4289 80.18C90.8609 80.624 91.0409 81.248 91.0409 82.22V85.856C91.0409 85.94 91.0289 86 90.5489 86H90.4769C89.9969 86 89.9609 85.952 89.9609 85.856V82.724C89.9609 81.752 89.9249 81.296 89.6369 80.96C89.4089 80.684 89.0009 80.564 88.5449 80.564C88.1249 80.564 87.6209 80.72 87.3449 80.984C87.2009 81.116 87.0689 81.32 87.0209 81.836C86.9969 82.172 86.9849 82.784 86.9849 83.48V85.856C86.9849 85.94 86.9729 86 86.4929 86H86.4209C85.9409 86 85.9049 85.952 85.9049 85.856V82.724C85.9049 81.752 85.8689 81.296 85.5809 80.96C85.3529 80.684 84.9449 80.564 84.4889 80.564C84.0689 80.564 83.5649 80.72 83.2889 80.984C83.1449 81.116 83.0129 81.32 82.9649 81.836C82.9409 82.172 82.9289 82.784 82.9289 83.48V85.856C82.9289 85.94 82.9169 86 82.4369 86H82.3649ZM96.5748 78.872L95.2548 77.72L93.9108 78.86C93.8628 78.908 93.7428 78.86 93.6228 78.728L93.5388 78.632C93.3948 78.476 93.3588 78.38 93.4188 78.308L94.5108 77.144C94.5948 77.048 94.7268 76.988 95.0388 76.988H95.4948C95.8308 76.988 95.9628 77.072 96.0348 77.156L97.1028 78.284C97.1748 78.356 97.1268 78.476 96.9828 78.632L96.8868 78.74C96.7788 78.872 96.6348 78.932 96.5748 78.872ZM95.3628 86.12C93.4188 86.12 92.4228 84.908 92.4228 82.976C92.4228 80.96 93.5268 79.544 95.3028 79.544C96.3708 79.544 97.1028 80.072 97.4988 80.864C97.7748 81.416 97.8948 82.076 97.8948 82.784C97.8948 83.144 97.8708 83.216 97.7748 83.216H93.5508C93.5868 83.876 93.7788 84.392 94.1508 84.704C94.4748 84.992 94.9428 85.136 95.5668 85.136C96.0708 85.136 96.5748 85.016 97.1508 84.752C97.2588 84.704 97.3308 84.68 97.4508 84.98L97.5108 85.124C97.6428 85.436 97.6308 85.508 97.5348 85.568C96.9228 85.928 96.1668 86.12 95.3628 86.12ZM93.5868 82.328H96.7908C96.7788 81.428 96.3228 80.528 95.3148 80.528C94.4388 80.528 93.7548 81.092 93.5868 82.328ZM100.978 86.12C100.21 86.12 99.4662 85.844 99.0102 85.52C98.8902 85.436 98.9262 85.364 99.0582 85.088L99.1182 84.956C99.2742 84.62 99.3222 84.608 99.4782 84.704C99.9342 84.968 100.51 85.184 101.038 85.184C101.59 85.184 102.358 84.908 102.358 84.212C102.358 83.564 101.59 83.348 100.978 83.216C100.342 83.072 99.8742 82.904 99.5502 82.604C99.2502 82.328 99.0702 81.908 99.0702 81.44C99.0702 80.264 100.09 79.544 101.29 79.544C102.046 79.544 102.742 79.808 103.186 80.204C103.282 80.288 103.306 80.396 103.138 80.636L103.054 80.756C102.838 81.068 102.778 81.068 102.694 80.996C102.25 80.684 101.83 80.468 101.302 80.468C100.81 80.468 100.102 80.66 100.102 81.32C100.102 81.968 100.774 82.136 101.35 82.28C102.334 82.532 103.378 82.892 103.378 84.14C103.378 85.424 102.298 86.12 100.978 86.12Z" fill="white"/>
<path d="M13.44 110C12.984 110 12.948 109.988 12.948 109.868V101.492C12.948 101.372 12.984 101.36 13.404 101.36H13.5C14.016 101.36 14.064 101.372 14.16 101.504L17.124 105.836C17.82 106.844 18.408 107.732 18.84 108.428C18.828 107.6 18.816 106.52 18.816 105.704V101.492C18.816 101.372 18.864 101.36 19.284 101.36H19.38C19.8 101.36 19.872 101.372 19.872 101.492V109.868C19.872 109.988 19.836 110 19.404 110H19.32C18.816 110 18.756 109.988 18.672 109.856L15.708 105.524C15.072 104.612 14.484 103.736 13.98 102.956C13.992 103.844 14.004 105.092 14.004 105.884V109.868C14.004 109.988 13.956 110 13.524 110H13.44ZM24.1122 110.12C23.3802 110.12 22.7682 109.928 22.3122 109.52C21.7122 108.992 21.3642 108.104 21.3642 106.976C21.3642 104.708 22.5522 103.544 24.3522 103.544C25.0842 103.544 25.6962 103.736 26.1522 104.144C26.7522 104.672 27.1002 105.56 27.1002 106.688C27.1002 108.956 25.9122 110.12 24.1122 110.12ZM24.1602 109.16C25.1202 109.16 25.9722 108.488 25.9722 106.772C25.9722 105.692 25.6122 104.504 24.3042 104.504C23.3442 104.504 22.4922 105.176 22.4922 106.892C22.4922 107.972 22.8522 109.16 24.1602 109.16ZM33.7525 110.12C32.1685 110.12 31.1845 108.932 31.1845 106.964C31.1845 105.164 32.1205 103.544 34.1005 103.544C34.5925 103.544 35.1565 103.736 35.4565 103.94V101.036C35.4565 100.916 35.5645 100.88 35.9725 100.88H36.0445C36.4285 100.88 36.5365 100.916 36.5365 101.036V108.5C36.5365 109.1 36.6325 109.148 36.9565 109.148C37.0285 109.148 37.0645 109.22 37.0645 109.472V109.556C37.0645 109.844 37.0285 109.928 36.9565 109.952C36.7885 110.012 36.6325 110.024 36.4285 110.024C36.0685 110.024 35.7445 109.796 35.6005 109.328H35.5885C35.2885 109.736 34.6165 110.12 33.7525 110.12ZM33.9685 109.16C34.3765 109.16 34.8325 109.028 35.1085 108.752C35.3845 108.476 35.4565 108.08 35.4565 107.072V104.972C35.1565 104.72 34.6405 104.528 34.1605 104.528C33.0325 104.528 32.3125 105.476 32.3125 106.928C32.3125 108.404 33.0325 109.16 33.9685 109.16ZM40.7015 102.908C40.3175 102.908 40.2935 102.836 40.3415 102.764L41.2175 101.228C41.2655 101.144 41.4095 101.096 41.7455 101.096H41.8895C42.3335 101.096 42.4175 101.18 42.3575 101.264L41.2295 102.8C41.1935 102.86 41.0855 102.908 40.7975 102.908H40.7015ZM41.0855 110.12C39.1415 110.12 38.1455 108.908 38.1455 106.976C38.1455 104.96 39.2495 103.544 41.0255 103.544C42.0935 103.544 42.8255 104.072 43.2215 104.864C43.4975 105.416 43.6175 106.076 43.6175 106.784C43.6175 107.144 43.5935 107.216 43.4975 107.216H39.2735C39.3095 107.876 39.5015 108.392 39.8735 108.704C40.1975 108.992 40.6655 109.136 41.2895 109.136C41.7935 109.136 42.2975 109.016 42.8735 108.752C42.9815 108.704 43.0535 108.68 43.1735 108.98L43.2335 109.124C43.3655 109.436 43.3535 109.508 43.2575 109.568C42.6455 109.928 41.8895 110.12 41.0855 110.12ZM39.3095 106.328H42.5135C42.5015 105.428 42.0455 104.528 41.0375 104.528C40.1615 104.528 39.4775 105.092 39.3095 106.328ZM47.2408 110.12C46.3168 110.12 45.6088 109.952 45.0568 109.7C45.0328 109.688 45.0208 109.628 45.0208 109.58V101.024C45.0208 100.928 45.0568 100.88 45.5368 100.88H45.6088C46.0888 100.88 46.1008 100.94 46.1008 101.024V104.252C46.4488 103.844 47.1808 103.544 47.8888 103.544C48.8488 103.544 49.5688 104.048 49.9528 104.864C50.1808 105.356 50.3128 105.98 50.3128 106.664C50.3128 108.788 49.2688 110.12 47.2408 110.12ZM47.1448 109.184C48.5128 109.184 49.1848 108.188 49.1848 106.748C49.1848 105.308 48.6688 104.564 47.6488 104.564C47.2048 104.564 46.7368 104.732 46.4608 105.008C46.3168 105.152 46.1848 105.356 46.1368 105.872C46.1128 106.208 46.1008 106.796 46.1008 107.492V108.98C46.4008 109.1 46.7968 109.184 47.1448 109.184ZM52.2877 102.476C51.8677 102.476 51.5317 102.14 51.5317 101.72C51.5317 101.3 51.8677 100.964 52.2877 100.964C52.7077 100.964 53.0437 101.3 53.0437 101.72C53.0437 102.14 52.7077 102.476 52.2877 102.476ZM52.2637 110C51.7837 110 51.7477 109.952 51.7477 109.856V103.808C51.7477 103.712 51.7837 103.664 52.2637 103.664H52.3357C52.8157 103.664 52.8277 103.724 52.8277 103.808V109.856C52.8277 109.94 52.8157 110 52.3357 110H52.2637ZM56.5505 110.12C56.0105 110.12 55.6145 109.976 55.3505 109.724C55.0025 109.4 54.8945 108.944 54.8945 108.14V104.516H53.8505C53.7785 104.516 53.7545 104.456 53.7545 104.24V104.168C53.7545 103.976 53.7785 103.904 53.8625 103.88C54.9065 103.58 55.0985 103.1 55.2185 101.984C55.2305 101.912 55.2905 101.888 55.5545 101.888H55.6385C55.9145 101.888 55.9745 101.924 55.9745 101.996V103.664H57.4865C57.5705 103.664 57.5945 103.724 57.5945 104.036V104.132C57.5945 104.456 57.5705 104.516 57.4865 104.516H55.9745V108.056C55.9745 108.512 56.0105 108.812 56.1665 108.98C56.2985 109.124 56.5025 109.196 56.7785 109.196C57.0545 109.196 57.3545 109.112 57.5945 109.04C57.7145 109.004 57.7505 109.052 57.8105 109.28L57.8465 109.436C57.9065 109.688 57.9065 109.76 57.8105 109.82C57.5105 110.012 56.9945 110.12 56.5505 110.12ZM61.4364 110.12C60.7044 110.12 60.0924 109.928 59.6364 109.52C59.0364 108.992 58.6884 108.104 58.6884 106.976C58.6884 104.708 59.8764 103.544 61.6764 103.544C62.4084 103.544 63.0204 103.736 63.4764 104.144C64.0764 104.672 64.4244 105.56 64.4244 106.688C64.4244 108.956 63.2364 110.12 61.4364 110.12ZM61.4844 109.16C62.4444 109.16 63.2964 108.488 63.2964 106.772C63.2964 105.692 62.9364 104.504 61.6284 104.504C60.6684 104.504 59.8164 105.176 59.8164 106.892C59.8164 107.972 60.1764 109.16 61.4844 109.16ZM71.0768 110.12C69.3248 110.12 68.5088 108.668 68.5088 106.94C68.5088 104.888 69.6848 103.544 71.2688 103.544C71.9888 103.544 72.5528 103.88 72.8888 104.312L72.9488 103.808C72.9608 103.664 73.0208 103.664 73.3808 103.664H73.4048C73.8608 103.664 73.8728 103.712 73.8728 103.808C73.8728 104.096 73.8488 104.864 73.8488 105.632V107.312C73.8488 108.416 73.8968 109.196 73.9328 109.856C73.9328 109.952 73.8728 110 73.5008 110H73.4528C73.0808 110 73.0088 109.964 72.9968 109.856L72.9248 109.304C72.5408 109.772 71.8568 110.12 71.0768 110.12ZM71.2688 109.16C71.6648 109.16 72.1448 109.04 72.4688 108.692C72.7208 108.416 72.7688 108.08 72.7688 107.036V105.332C72.4928 104.9 71.9528 104.516 71.3888 104.516C70.2848 104.516 69.6368 105.44 69.6368 106.88C69.6368 108.008 70.0328 109.16 71.2688 109.16ZM77.7893 110.12C77.1413 110.12 76.5893 109.904 76.1933 109.484C75.7733 109.04 75.6053 108.416 75.6053 107.444V103.808C75.6053 103.724 75.6293 103.664 76.0853 103.664H76.1813C76.6373 103.664 76.6853 103.712 76.6853 103.808V106.952C76.6853 107.9 76.7213 108.392 76.9853 108.716C77.2013 108.98 77.5613 109.124 78.0533 109.124C78.5213 109.124 79.0733 108.968 79.3613 108.692C79.6133 108.452 79.7453 108.092 79.7453 106.772V103.808C79.7453 103.724 79.8173 103.664 80.2253 103.664H80.3333C80.7413 103.664 80.8253 103.712 80.8253 103.808V107.9C80.8253 108.716 80.8493 109.556 80.8493 109.856C80.8493 109.952 80.8133 110 80.3573 110H80.3093C79.8893 110 79.8173 109.952 79.8173 109.856L79.7933 109.34H79.7813C79.3373 109.832 78.6773 110.12 77.7893 110.12ZM84.57 110.12C84.03 110.12 83.634 109.976 83.37 109.724C83.022 109.4 82.914 108.944 82.914 108.14V104.516H81.87C81.798 104.516 81.774 104.456 81.774 104.24V104.168C81.774 103.976 81.798 103.904 81.882 103.88C82.926 103.58 83.118 103.1 83.238 101.984C83.25 101.912 83.31 101.888 83.574 101.888H83.658C83.934 101.888 83.994 101.924 83.994 101.996V103.664H85.506C85.59 103.664 85.614 103.724 85.614 104.036V104.132C85.614 104.456 85.59 104.516 85.506 104.516H83.994V108.056C83.994 108.512 84.03 108.812 84.186 108.98C84.318 109.124 84.522 109.196 84.798 109.196C85.074 109.196 85.374 109.112 85.614 109.04C85.734 109.004 85.77 109.052 85.83 109.28L85.866 109.436C85.926 109.688 85.926 109.76 85.83 109.82C85.53 110.012 85.014 110.12 84.57 110.12ZM89.456 110.12C88.724 110.12 88.112 109.928 87.656 109.52C87.056 108.992 86.708 108.104 86.708 106.976C86.708 104.708 87.896 103.544 89.696 103.544C90.428 103.544 91.04 103.736 91.496 104.144C92.096 104.672 92.444 105.56 92.444 106.688C92.444 108.956 91.256 110.12 89.456 110.12ZM89.504 109.16C90.464 109.16 91.316 108.488 91.316 106.772C91.316 105.692 90.956 104.504 89.648 104.504C88.688 104.504 87.836 105.176 87.836 106.892C87.836 107.972 88.196 109.16 89.504 109.16ZM94.3923 110C93.9123 110 93.8763 109.952 93.8763 109.856V105.764C93.8763 104.948 93.8523 104.108 93.8523 103.808C93.8523 103.712 93.8883 103.664 94.3443 103.664H94.4043C94.8363 103.664 94.8963 103.7 94.8963 103.808L94.9083 104.348H94.9203C95.3403 103.856 96.0363 103.544 96.7803 103.544C97.4403 103.544 98.0043 103.772 98.4003 104.18C98.5083 104.3 98.6043 104.42 98.6763 104.564C99.1563 103.904 99.9843 103.544 100.836 103.544C101.496 103.544 102.06 103.772 102.456 104.18C102.888 104.624 103.068 105.248 103.068 106.22V109.856C103.068 109.94 103.056 110 102.576 110H102.504C102.024 110 101.988 109.952 101.988 109.856V106.724C101.988 105.752 101.952 105.296 101.664 104.96C101.436 104.684 101.028 104.564 100.572 104.564C100.152 104.564 99.6483 104.72 99.3723 104.984C99.2283 105.116 99.0963 105.32 99.0483 105.836C99.0243 106.172 99.0123 106.784 99.0123 107.48V109.856C99.0123 109.94 99.0003 110 98.5203 110H98.4483C97.9683 110 97.9323 109.952 97.9323 109.856V106.724C97.9323 105.752 97.8963 105.296 97.6083 104.96C97.3803 104.684 96.9723 104.564 96.5163 104.564C96.0963 104.564 95.5923 104.72 95.3163 104.984C95.1723 105.116 95.0403 105.32 94.9923 105.836C94.9683 106.172 94.9563 106.784 94.9563 107.48V109.856C94.9563 109.94 94.9443 110 94.4643 110H94.3923ZM106.982 102.908C106.598 102.908 106.574 102.836 106.622 102.764L107.498 101.228C107.546 101.144 107.69 101.096 108.026 101.096H108.17C108.614 101.096 108.698 101.18 108.638 101.264L107.51 102.8C107.474 102.86 107.366 102.908 107.078 102.908H106.982ZM107.018 110.12C105.266 110.12 104.45 108.668 104.45 106.94C104.45 104.888 105.626 103.544 107.21 103.544C107.93 103.544 108.494 103.88 108.83 104.312L108.89 103.808C108.902 103.664 108.962 103.664 109.322 103.664H109.346C109.802 103.664 109.814 103.712 109.814 103.808C109.814 104.096 109.79 104.864 109.79 105.632V107.312C109.79 108.416 109.838 109.196 109.874 109.856C109.874 109.952 109.814 110 109.442 110H109.394C109.022 110 108.95 109.964 108.938 109.856L108.866 109.304C108.482 109.772 107.798 110.12 107.018 110.12ZM107.21 109.16C107.606 109.16 108.086 109.04 108.41 108.692C108.662 108.416 108.71 108.08 108.71 107.036V105.332C108.434 104.9 107.894 104.516 107.33 104.516C106.226 104.516 105.578 105.44 105.578 106.88C105.578 108.008 105.974 109.16 107.21 109.16ZM113.539 110.12C112.999 110.12 112.603 109.976 112.339 109.724C111.991 109.4 111.883 108.944 111.883 108.14V104.516H110.839C110.767 104.516 110.743 104.456 110.743 104.24V104.168C110.743 103.976 110.767 103.904 110.851 103.88C111.895 103.58 112.087 103.1 112.207 101.984C112.219 101.912 112.279 101.888 112.543 101.888H112.627C112.903 101.888 112.963 101.924 112.963 101.996V103.664H114.475C114.559 103.664 114.583 103.724 114.583 104.036V104.132C114.583 104.456 114.559 104.516 114.475 104.516H112.963V108.056C112.963 108.512 112.999 108.812 113.155 108.98C113.287 109.124 113.491 109.196 113.767 109.196C114.043 109.196 114.343 109.112 114.583 109.04C114.703 109.004 114.739 109.052 114.799 109.28L114.835 109.436C114.895 109.688 114.895 109.76 114.799 109.82C114.499 110.012 113.983 110.12 113.539 110.12ZM116.577 102.476C116.157 102.476 115.821 102.14 115.821 101.72C115.821 101.3 116.157 100.964 116.577 100.964C116.997 100.964 117.333 101.3 117.333 101.72C117.333 102.14 116.997 102.476 116.577 102.476ZM116.553 110C116.073 110 116.037 109.952 116.037 109.856V103.808C116.037 103.712 116.073 103.664 116.553 103.664H116.625C117.105 103.664 117.117 103.724 117.117 103.808V109.856C117.117 109.94 117.105 110 116.625 110H116.553ZM121.308 110.12C119.472 110.12 118.56 108.716 118.56 106.928C118.56 104.732 119.844 103.544 121.512 103.544C122.268 103.544 122.94 103.808 123.444 104.168C123.54 104.24 123.54 104.324 123.372 104.72C123.192 105.128 123.072 105.092 122.988 105.032C122.544 104.732 122.052 104.528 121.572 104.528C120.456 104.528 119.688 105.368 119.688 106.856C119.688 108.008 120.156 109.136 121.452 109.136C121.956 109.136 122.508 108.992 122.976 108.764C123.072 108.716 123.192 108.752 123.288 109.004L123.348 109.16C123.468 109.448 123.432 109.532 123.348 109.58C122.748 109.916 122.052 110.12 121.308 110.12ZM127.155 110.12C126.423 110.12 125.811 109.928 125.355 109.52C124.755 108.992 124.407 108.104 124.407 106.976C124.407 104.708 125.595 103.544 127.395 103.544C128.127 103.544 128.739 103.736 129.195 104.144C129.795 104.672 130.143 105.56 130.143 106.688C130.143 108.956 128.955 110.12 127.155 110.12ZM127.203 109.16C128.163 109.16 129.015 108.488 129.015 106.772C129.015 105.692 128.655 104.504 127.347 104.504C126.387 104.504 125.535 105.176 125.535 106.892C125.535 107.972 125.895 109.16 127.203 109.16Z" fill="white"/>
<g clip-path="url(#clip0_2813_590)">
<path d="M12.854 133C12.308 133 12.252 132.972 12.308 132.818L16.046 123.116C16.102 122.948 16.172 122.92 16.76 122.92H16.83C17.432 122.92 17.502 122.934 17.586 123.116L21.38 132.818C21.436 132.958 21.324 133 20.792 133H20.652C20.092 133 19.994 132.972 19.924 132.832L19.014 130.34H14.59L13.666 132.832C13.61 132.972 13.512 133 12.98 133H12.854ZM14.954 129.29H18.636L18.202 128.1C17.67 126.672 17.194 125.342 16.816 124.18C16.41 125.314 15.906 126.7 15.402 128.058L14.954 129.29ZM24.6894 133.14C23.7934 133.14 22.9254 132.818 22.3934 132.44C22.2534 132.342 22.2954 132.258 22.4494 131.936L22.5194 131.782C22.7014 131.39 22.7574 131.376 22.9394 131.488C23.4714 131.796 24.1434 132.048 24.7594 132.048C25.4034 132.048 26.2994 131.726 26.2994 130.914C26.2994 130.158 25.4034 129.906 24.6894 129.752C23.9474 129.584 23.4014 129.388 23.0234 129.038C22.6734 128.716 22.4634 128.226 22.4634 127.68C22.4634 126.308 23.6534 125.468 25.0534 125.468C25.9354 125.468 26.7474 125.776 27.2654 126.238C27.3774 126.336 27.4054 126.462 27.2094 126.742L27.1114 126.882C26.8594 127.246 26.7894 127.246 26.6914 127.162C26.1734 126.798 25.6834 126.546 25.0674 126.546C24.4934 126.546 23.6674 126.77 23.6674 127.54C23.6674 128.296 24.4514 128.492 25.1234 128.66C26.2714 128.954 27.4894 129.374 27.4894 130.83C27.4894 132.328 26.2294 133.14 24.6894 133.14ZM31.1015 133.14C30.2055 133.14 29.3375 132.818 28.8055 132.44C28.6655 132.342 28.7075 132.258 28.8615 131.936L28.9315 131.782C29.1135 131.39 29.1695 131.376 29.3515 131.488C29.8835 131.796 30.5555 132.048 31.1715 132.048C31.8155 132.048 32.7115 131.726 32.7115 130.914C32.7115 130.158 31.8155 129.906 31.1015 129.752C30.3595 129.584 29.8135 129.388 29.4355 129.038C29.0855 128.716 28.8755 128.226 28.8755 127.68C28.8755 126.308 30.0655 125.468 31.4655 125.468C32.3475 125.468 33.1595 125.776 33.6775 126.238C33.7895 126.336 33.8175 126.462 33.6215 126.742L33.5235 126.882C33.2715 127.246 33.2015 127.246 33.1035 127.162C32.5855 126.798 32.0955 126.546 31.4795 126.546C30.9055 126.546 30.0795 126.77 30.0795 127.54C30.0795 128.296 30.8635 128.492 31.5355 128.66C32.6835 128.954 33.9015 129.374 33.9015 130.83C33.9015 132.328 32.6415 133.14 31.1015 133.14ZM36.1976 124.222C35.7076 124.222 35.3156 123.83 35.3156 123.34C35.3156 122.85 35.7076 122.458 36.1976 122.458C36.6876 122.458 37.0796 122.85 37.0796 123.34C37.0796 123.83 36.6876 124.222 36.1976 124.222ZM36.1696 133C35.6096 133 35.5676 132.944 35.5676 132.832V125.776C35.5676 125.664 35.6096 125.608 36.1696 125.608H36.2536C36.8136 125.608 36.8276 125.678 36.8276 125.776V132.832C36.8276 132.93 36.8136 133 36.2536 133H36.1696ZM39.5749 133C39.0149 133 38.9729 132.944 38.9729 132.832V128.058C38.9729 127.106 38.9449 126.126 38.9449 125.776C38.9449 125.664 38.9869 125.608 39.5189 125.608H39.5889C40.0929 125.608 40.1629 125.65 40.1629 125.776L40.1769 126.406H40.1909C40.6809 125.832 41.6049 125.468 42.4729 125.468C43.2429 125.468 43.9289 125.734 44.3909 126.21C44.8949 126.728 45.1049 127.456 45.1049 128.59V132.832C45.1049 132.93 45.0909 133 44.5309 133H44.4469C43.8869 133 43.8449 132.944 43.8449 132.832V129.178C43.8449 128.044 43.8029 127.512 43.4669 127.12C43.2009 126.798 42.7529 126.658 42.1369 126.658C41.6189 126.658 40.9889 126.84 40.6529 127.162C40.4849 127.316 40.3309 127.554 40.2749 128.156C40.2469 128.548 40.2329 129.262 40.2329 130.074V132.832C40.2329 132.93 40.2189 133 39.6589 133H39.5749ZM49.6963 133.14C47.6523 133.14 46.7003 131.446 46.7003 129.43C46.7003 127.036 48.0723 125.468 49.9203 125.468C50.7603 125.468 51.4183 125.86 51.8103 126.364L51.8803 125.776C51.8943 125.608 51.9643 125.608 52.3843 125.608H52.4123C52.9443 125.608 52.9583 125.664 52.9583 125.776C52.9583 126.112 52.9303 127.008 52.9303 127.904V129.864C52.9303 131.152 52.9863 132.062 53.0283 132.832C53.0283 132.944 52.9583 133 52.5243 133H52.4683C52.0343 133 51.9503 132.958 51.9363 132.832L51.8523 132.188C51.4043 132.734 50.6063 133.14 49.6963 133.14ZM49.9203 132.02C50.3823 132.02 50.9423 131.88 51.3203 131.474C51.6143 131.152 51.6703 130.76 51.6703 129.542V127.554C51.3483 127.05 50.7183 126.602 50.0603 126.602C48.7723 126.602 48.0163 127.68 48.0163 129.36C48.0163 130.676 48.4783 132.02 49.9203 132.02ZM57.3037 133.14C56.6737 133.14 56.2117 132.972 55.9037 132.678C55.4977 132.3 55.3717 131.768 55.3717 130.83V126.602H54.1537C54.0697 126.602 54.0417 126.532 54.0417 126.28V126.196C54.0417 125.972 54.0697 125.888 54.1677 125.86C55.3857 125.51 55.6097 124.95 55.7497 123.648C55.7637 123.564 55.8337 123.536 56.1417 123.536H56.2397C56.5617 123.536 56.6317 123.578 56.6317 123.662V125.608H58.3957C58.4937 125.608 58.5217 125.678 58.5217 126.042V126.154C58.5217 126.532 58.4937 126.602 58.3957 126.602H56.6317V130.732C56.6317 131.264 56.6737 131.614 56.8557 131.81C57.0097 131.978 57.2477 132.062 57.5697 132.062C57.8917 132.062 58.2417 131.964 58.5217 131.88C58.6617 131.838 58.7037 131.894 58.7737 132.16L58.8157 132.342C58.8857 132.636 58.8857 132.72 58.7737 132.79C58.4237 133.014 57.8217 133.14 57.3037 133.14ZM62.682 133.14C61.926 133.14 61.282 132.888 60.82 132.398C60.33 131.88 60.134 131.152 60.134 130.018V125.776C60.134 125.678 60.162 125.608 60.694 125.608H60.806C61.338 125.608 61.394 125.664 61.394 125.776V129.444C61.394 130.55 61.436 131.124 61.744 131.502C61.996 131.81 62.416 131.978 62.99 131.978C63.536 131.978 64.18 131.796 64.516 131.474C64.81 131.194 64.964 130.774 64.964 129.234V125.776C64.964 125.678 65.048 125.608 65.524 125.608H65.65C66.126 125.608 66.224 125.664 66.224 125.776V130.55C66.224 131.502 66.252 132.482 66.252 132.832C66.252 132.944 66.21 133 65.678 133H65.622C65.132 133 65.048 132.944 65.048 132.832L65.02 132.23H65.006C64.488 132.804 63.718 133.14 62.682 133.14ZM68.9827 133C68.4227 133 68.3807 132.944 68.3807 132.832V128.058C68.3807 127.106 68.3527 126.126 68.3527 125.776C68.3527 125.664 68.3947 125.608 68.9267 125.608H68.9967C69.5007 125.608 69.5707 125.65 69.5707 125.776L69.5987 127.218C70.1307 126.042 70.9007 125.524 71.6427 125.524C71.7687 125.524 71.8667 125.538 71.9367 125.552C72.0627 125.58 72.0767 125.622 72.0767 125.944V126.154C72.0767 126.56 72.0627 126.672 71.9227 126.672C70.9287 126.672 70.4247 127.288 70.0187 127.946C69.8227 128.268 69.7107 128.66 69.6827 129.15C69.6547 129.542 69.6407 130.41 69.6407 131.222V132.832C69.6407 132.93 69.6267 133 69.0667 133H68.9827ZM75.7412 133.14C73.6972 133.14 72.7452 131.446 72.7452 129.43C72.7452 127.036 74.1172 125.468 75.9652 125.468C76.8052 125.468 77.4632 125.86 77.8552 126.364L77.9252 125.776C77.9392 125.608 78.0092 125.608 78.4292 125.608H78.4572C78.9892 125.608 79.0032 125.664 79.0032 125.776C79.0032 126.112 78.9752 127.008 78.9752 127.904V129.864C78.9752 131.152 79.0312 132.062 79.0732 132.832C79.0732 132.944 79.0032 133 78.5692 133H78.5132C78.0792 133 77.9952 132.958 77.9812 132.832L77.8972 132.188C77.4492 132.734 76.6512 133.14 75.7412 133.14ZM75.9652 132.02C76.4272 132.02 76.9872 131.88 77.3652 131.474C77.6592 131.152 77.7152 130.76 77.7152 129.542V127.554C77.3932 127.05 76.7632 126.602 76.1052 126.602C74.8172 126.602 74.0612 127.68 74.0612 129.36C74.0612 130.676 74.5232 132.02 75.9652 132.02ZM85.2386 124.222C84.7486 124.222 84.3566 123.83 84.3566 123.34C84.3566 122.85 84.7486 122.458 85.2386 122.458C85.7286 122.458 86.1206 122.85 86.1206 123.34C86.1206 123.83 85.7286 124.222 85.2386 124.222ZM85.2106 133C84.6506 133 84.6086 132.944 84.6086 132.832V125.776C84.6086 125.664 84.6506 125.608 85.2106 125.608H85.2946C85.8546 125.608 85.8686 125.678 85.8686 125.776V132.832C85.8686 132.93 85.8546 133 85.2946 133H85.2106ZM88.6159 133C88.0559 133 88.0139 132.944 88.0139 132.832V128.058C88.0139 127.106 87.9859 126.126 87.9859 125.776C87.9859 125.664 88.0279 125.608 88.5599 125.608H88.6299C89.1339 125.608 89.2039 125.65 89.2039 125.776L89.2179 126.406H89.2319C89.7219 125.832 90.6459 125.468 91.5139 125.468C92.2839 125.468 92.9699 125.734 93.4319 126.21C93.9359 126.728 94.1459 127.456 94.1459 128.59V132.832C94.1459 132.93 94.1319 133 93.5719 133H93.4879C92.9279 133 92.8859 132.944 92.8859 132.832V129.178C92.8859 128.044 92.8439 127.512 92.5079 127.12C92.2419 126.798 91.7939 126.658 91.1779 126.658C90.6599 126.658 90.0299 126.84 89.6939 127.162C89.5259 127.316 89.3719 127.554 89.3159 128.156C89.2879 128.548 89.2739 129.262 89.2739 130.074V132.832C89.2739 132.93 89.2599 133 88.6999 133H88.6159ZM98.9473 133.14C96.8053 133.14 95.7413 131.502 95.7413 129.416C95.7413 126.854 97.2393 125.468 99.1853 125.468C100.067 125.468 100.851 125.776 101.439 126.196C101.551 126.28 101.551 126.378 101.355 126.84C101.145 127.316 101.005 127.274 100.907 127.204C100.389 126.854 99.8153 126.616 99.2553 126.616C97.9533 126.616 97.0573 127.596 97.0573 129.332C97.0573 130.676 97.6033 131.992 99.1153 131.992C99.7033 131.992 100.347 131.824 100.893 131.558C101.005 131.502 101.145 131.544 101.257 131.838L101.327 132.02C101.467 132.356 101.425 132.454 101.327 132.51C100.627 132.902 99.8153 133.14 98.9473 133.14ZM104.216 133.014C103.824 133.014 103.432 132.916 103.18 132.538C102.998 132.272 102.942 131.81 102.942 131.068V126.378C102.942 124.908 102.928 123.088 102.858 122.542C102.844 122.402 102.984 122.36 103.46 122.36H103.544C103.992 122.36 104.09 122.402 104.118 122.542C104.188 122.934 104.202 124.614 104.202 126.686V131.334C104.202 131.852 104.272 132.034 104.734 132.034H104.874C104.944 132.034 104.958 132.09 104.958 132.412V132.454C104.958 132.818 104.958 132.874 104.874 132.902C104.678 132.972 104.426 133.014 104.216 133.014ZM109.03 133.14C108.274 133.14 107.63 132.888 107.168 132.398C106.678 131.88 106.482 131.152 106.482 130.018V125.776C106.482 125.678 106.51 125.608 107.042 125.608H107.154C107.686 125.608 107.742 125.664 107.742 125.776V129.444C107.742 130.55 107.784 131.124 108.092 131.502C108.344 131.81 108.764 131.978 109.338 131.978C109.884 131.978 110.528 131.796 110.864 131.474C111.158 131.194 111.312 130.774 111.312 129.234V125.776C111.312 125.678 111.396 125.608 111.872 125.608H111.998C112.474 125.608 112.572 125.664 112.572 125.776V130.55C112.572 131.502 112.6 132.482 112.6 132.832C112.6 132.944 112.558 133 112.026 133H111.97C111.48 133 111.396 132.944 111.396 132.832L111.368 132.23H111.354C110.836 132.804 110.066 133.14 109.03 133.14ZM114.994 124.726C114.546 124.726 114.518 124.642 114.574 124.558L115.596 122.766C115.652 122.668 115.82 122.612 116.212 122.612H116.38C116.898 122.612 116.996 122.71 116.926 122.808L115.61 124.6C115.568 124.67 115.442 124.726 115.106 124.726H114.994ZM115.302 133C114.742 133 114.7 132.944 114.7 132.832V125.776C114.7 125.664 114.742 125.608 115.302 125.608H115.386C115.946 125.608 115.96 125.678 115.96 125.776V132.832C115.96 132.93 115.946 133 115.386 133H115.302ZM120.64 133.14C118.792 133.14 117.644 131.754 117.644 129.458C117.644 127.358 118.736 125.468 121.046 125.468C121.62 125.468 122.278 125.692 122.628 125.93V122.542C122.628 122.402 122.754 122.36 123.23 122.36H123.314C123.762 122.36 123.888 122.402 123.888 122.542V131.25C123.888 131.95 124 132.006 124.378 132.006C124.462 132.006 124.504 132.09 124.504 132.384V132.482C124.504 132.818 124.462 132.916 124.378 132.944C124.182 133.014 124 133.028 123.762 133.028C123.342 133.028 122.964 132.762 122.796 132.216H122.782C122.432 132.692 121.648 133.14 120.64 133.14ZM120.892 132.02C121.368 132.02 121.9 131.866 122.222 131.544C122.544 131.222 122.628 130.76 122.628 129.584V127.134C122.278 126.84 121.676 126.616 121.116 126.616C119.8 126.616 118.96 127.722 118.96 129.416C118.96 131.138 119.8 132.02 120.892 132.02ZM128.761 133.14C126.717 133.14 125.765 131.446 125.765 129.43C125.765 127.036 127.137 125.468 128.985 125.468C129.825 125.468 130.483 125.86 130.875 126.364L130.945 125.776C130.959 125.608 131.029 125.608 131.449 125.608H131.477C132.009 125.608 132.023 125.664 132.023 125.776C132.023 126.112 131.995 127.008 131.995 127.904V129.864C131.995 131.152 132.051 132.062 132.093 132.832C132.093 132.944 132.023 133 131.589 133H131.533C131.099 133 131.015 132.958 131.001 132.832L130.917 132.188C130.469 132.734 129.671 133.14 128.761 133.14ZM128.985 132.02C129.447 132.02 130.007 131.88 130.385 131.474C130.679 131.152 130.735 130.76 130.735 129.542V127.554C130.413 127.05 129.783 126.602 129.125 126.602C127.837 126.602 127.081 127.68 127.081 129.36C127.081 130.676 127.543 132.02 128.985 132.02ZM134.814 127.918C134.296 127.918 133.876 127.498 133.876 126.98C133.876 126.462 134.296 126.042 134.814 126.042C135.332 126.042 135.752 126.462 135.752 126.98C135.752 127.498 135.332 127.918 134.814 127.918ZM134.814 133.14C134.296 133.14 133.876 132.72 133.876 132.202C133.876 131.684 134.296 131.264 134.814 131.264C135.332 131.264 135.752 131.684 135.752 132.202C135.752 132.72 135.332 133.14 134.814 133.14Z" fill="white"/>
<g clip-path="url(#clip1_2813_590)">
<mask id="mask0_2813_590" style="mask-type:alpha" maskUnits="userSpaceOnUse" x="12" y="141" width="24" height="24">
<circle cx="24" cy="153" r="12" fill="#FF790F"/>
</mask>
<g mask="url(#mask0_2813_590)">
<rect x="12" y="141" width="24" height="24" fill="#F1F2F2"/>
<path fill-rule="evenodd" clip-rule="evenodd" d="M16.6249 153.337C16.154 153.337 15.6232 153.173 15.0897 152.862C15.0489 152.84 15.019 152.799 15.0053 152.753C14.9945 152.706 14.9999 152.656 15.0244 152.615L15.2258 152.206C15.2585 152.148 15.3184 152.113 15.381 152.113C15.4136 152.113 15.4463 152.121 15.4762 152.14C15.9145 152.426 16.252 152.527 16.6031 152.527C17.2128 152.527 17.5803 152.151 17.5803 151.586C17.3898 151.759 17.1638 151.956 16.7474 151.956C15.8002 151.956 15.0298 151.163 15.0298 150.188C15.0298 149.21 15.8002 148.417 16.7474 148.417C17.0414 148.417 17.2673 148.513 17.6184 148.793C17.6293 148.7 17.5803 148.475 17.7137 148.475H18.2853C18.3833 148.475 18.4649 148.557 18.4649 148.656V150.15V150.161C18.4649 150.17 18.4658 150.179 18.4677 150.188C18.4658 150.195 18.4649 150.204 18.4649 150.213V150.226V150.822C18.4677 151.833 18.3561 152.412 17.9314 152.849C17.6184 153.173 17.1094 153.337 16.6249 153.337ZM16.7474 149.274C16.2901 149.274 15.9145 149.683 15.9145 150.188C15.9145 150.69 16.2901 151.102 16.7474 151.102C17.1965 151.102 17.5694 150.701 17.5803 150.21V150.163C17.5694 149.672 17.1965 149.274 16.7474 149.274Z" fill="#E51F29"/>
<path fill-rule="evenodd" clip-rule="evenodd" d="M25.9181 151.956C25.6704 151.956 25.3492 151.843 25.0553 151.574C25.0553 151.714 25.0879 151.898 24.9055 151.898H24.3829C24.2822 151.898 24.2006 151.819 24.2006 151.717V147.239C24.2006 147.137 24.2822 147.055 24.3829 147.055H24.9055C25.0063 147.055 25.0879 147.137 25.0879 147.239V148.784C25.3737 148.493 25.6949 148.416 25.9181 148.416C26.8653 148.416 27.6384 149.21 27.6384 150.188C27.6384 151.162 26.8653 151.956 25.9181 151.956ZM25.9181 149.273C25.4608 149.273 25.0879 149.682 25.0879 150.188C25.0879 150.69 25.4608 151.102 25.9181 151.102C26.3781 151.102 26.751 150.69 26.751 150.188C26.751 149.682 26.3781 149.273 25.9181 149.273Z" fill="#E51F29"/>
<path fill-rule="evenodd" clip-rule="evenodd" d="M23.7587 155.495C23.7587 156.473 22.9884 157.266 22.0412 157.266C21.8153 157.266 21.4941 157.189 21.2083 156.898V158.444C21.2083 158.546 21.1266 158.628 21.0259 158.628H20.5033C20.4026 158.628 20.3209 158.546 20.3209 158.444V153.966C20.3209 153.867 20.4026 153.785 20.5033 153.785H21.0259C21.2083 153.785 21.1756 153.969 21.1756 154.109C21.4723 153.84 21.7908 153.727 22.0412 153.727C22.9884 153.727 23.7587 154.52 23.7587 155.495ZM22.8714 155.495C22.8714 154.993 22.4985 154.581 22.0412 154.581C21.5812 154.581 21.2083 154.993 21.2083 155.495C21.2083 156 21.5812 156.412 22.0412 156.412C22.4985 156.412 22.8714 156 22.8714 155.495Z" fill="#E51F29"/>
<path fill-rule="evenodd" clip-rule="evenodd" d="M29.7282 151.956C28.7592 151.956 27.9698 151.163 27.9698 150.188C27.9698 149.21 28.7592 148.417 29.7282 148.417C30.6945 148.417 31.4839 149.21 31.4839 150.188C31.4839 151.163 30.6945 151.956 29.7282 151.956ZM29.7282 149.276C29.2464 149.276 28.8572 149.685 28.8572 150.188C28.8572 150.69 29.2464 151.1 29.7282 151.1C30.2073 151.1 30.5965 150.69 30.5965 150.188C30.5965 149.685 30.2073 149.276 29.7282 149.276Z" fill="#E51F29"/>
<path fill-rule="evenodd" clip-rule="evenodd" d="M22.0362 151.956C21.0672 151.956 20.2805 151.163 20.2805 150.188C20.2805 149.21 21.0672 148.417 22.0362 148.417C23.0052 148.417 23.7918 149.21 23.7918 150.188C23.7918 151.163 23.0052 151.956 22.0362 151.956ZM22.0362 149.276C21.5544 149.276 21.1651 149.685 21.1651 150.188C21.1651 150.69 21.5544 151.1 22.0362 151.1C22.5152 151.1 22.9072 150.69 22.9072 150.188C22.9072 149.685 22.5152 149.276 22.0362 149.276Z" fill="#E51F29"/>
<path d="M24.3776 157.209C24.2797 157.209 24.198 157.126 24.198 157.028V152.546C24.198 152.448 24.2797 152.365 24.3776 152.365H24.903C25.001 152.365 25.0826 152.448 25.0826 152.546V157.028C25.0826 157.126 25.001 157.209 24.903 157.209H24.3776Z" fill="#E51F29"/>
<path d="M30.1938 158.639C29.7365 158.639 29.4072 158.502 29.252 158.376C29.1812 158.318 29.1622 158.219 29.2085 158.143L29.4561 157.714C29.4888 157.656 29.5487 157.621 29.614 157.624C29.6521 157.624 29.6875 157.635 29.7202 157.656C29.7583 157.687 29.8944 157.797 30.0686 157.802C30.1911 157.805 30.4959 157.687 30.6865 157.22L29.3718 154.038C29.3473 153.98 29.3527 153.917 29.3854 153.865C29.4208 153.812 29.4752 153.782 29.5378 153.782L30.1067 153.785C30.1802 153.785 30.2428 153.829 30.2727 153.895L31.1084 155.94L31.8379 153.903C31.8623 153.832 31.9331 153.785 32.0066 153.785H32.5619C32.6218 153.785 32.6789 153.815 32.7116 153.865C32.747 153.914 32.766 153.983 32.7334 154.117L31.5738 157.228C31.2662 157.986 30.7327 158.642 30.1938 158.639Z" fill="#E51F29"/>
<path fill-rule="evenodd" clip-rule="evenodd" d="M27.2183 153.727C27.466 153.727 27.7872 153.84 28.0812 154.109C28.0812 153.969 28.0512 153.785 28.2309 153.785H28.7562C28.8542 153.785 28.9359 153.867 28.9359 153.966V157.055C28.9359 157.156 28.8542 157.209 28.7562 157.209H28.2309C28.1329 157.209 28.0512 157.156 28.0512 157.055V156.901C27.7627 157.192 27.4442 157.269 27.2183 157.269C26.2684 157.269 25.498 156.473 25.498 155.498C25.498 154.52 26.2684 153.727 27.2183 153.727ZM27.2183 156.412C27.6756 156.412 28.0512 156.003 28.0512 155.498C28.0512 154.993 27.6756 154.584 27.2183 154.584C26.7583 154.584 26.3854 154.993 26.3854 155.498C26.3854 156.003 26.7583 156.412 27.2183 156.412Z" fill="#E51F29"/>
<path d="M19.2005 151.956C19.0917 151.956 18.9746 151.877 18.9746 151.657V147.297C18.9746 147.019 19.1434 147 19.1951 147C19.2332 147 19.2713 147.008 19.3176 147.025L19.6415 147.17C19.7994 147.244 19.8729 147.373 19.8729 147.571V151.377C19.8729 151.572 19.7994 151.701 19.6442 151.775L19.3176 151.929C19.2713 151.948 19.2332 151.956 19.2005 151.956Z" fill="#E51F29"/>
</g>
</g>
</g>
<defs>
<clipPath id="clip0_2813_590">
<rect width="132" height="46" fill="white" transform="translate(12 119)"/>
</clipPath>
<clipPath id="clip1_2813_590">
<rect width="24" height="24" fill="white" transform="translate(12 141)"/>
</clipPath>
</defs>
</svg>
