<svg width="63" height="43" viewBox="0 0 63 43" fill="none" xmlns="http://www.w3.org/2000/svg">
<path d="M19.0853 14.8182H0.972501C0.702362 14.8182 0.459236 14.7102 0.283646 14.5346C0.108056 14.359 0 14.1159 0 13.8592V12.1979C0 11.9277 0.108056 11.6981 0.283646 11.5225C0.472743 11.3334 0.702362 11.2254 0.972501 11.2254H19.0853C19.3555 11.2254 19.5986 11.3334 19.7742 11.509C19.9498 11.6846 20.0578 11.9142 20.0578 12.1844V13.8322C20.0578 14.1023 19.9498 14.332 19.7742 14.5076C19.5986 14.6967 19.3555 14.8182 19.0853 14.8182ZM8.02313 17.8032H0.972501C0.702362 17.8032 0.459236 17.9113 0.297153 18.0869C0.121563 18.2625 0.013507 18.5056 0.013507 18.7622V20.4101C0.013507 20.6802 0.121563 20.9234 0.297153 21.0854C0.472743 21.261 0.715869 21.3691 0.986008 21.3691H8.03664V17.8032H8.02313ZM19.7742 18.1004C19.5986 17.9248 19.3555 17.8168 19.0853 17.8168H12.0347V21.3961H19.0853C19.3555 21.3961 19.5986 21.288 19.7742 21.1124C19.9498 20.9369 20.0578 20.6937 20.0578 20.4371V18.7757C20.0578 18.5056 19.9498 18.2625 19.7742 18.1004ZM19.7742 24.6783C19.5986 24.5027 19.3555 24.3946 19.0853 24.3946H12.0347V27.974H19.0853C19.3555 27.974 19.5986 27.8659 19.7742 27.6903C19.9498 27.5147 20.0578 27.2716 20.0578 27.015V25.3671C20.0578 25.097 19.9498 24.8539 19.7742 24.6783ZM8.02313 24.3946H0.972501C0.702362 24.3946 0.459236 24.5027 0.297153 24.6783C0.121563 24.8539 0.013507 25.097 0.013507 25.3536V27.0015C0.013507 27.2716 0.121563 27.5147 0.297153 27.6768C0.472743 27.8524 0.715869 27.9605 0.986008 27.9605H8.03664V24.3946H8.02313Z" fill="#EB0028"/>
<path d="M36.0671 11.2254C36.4048 11.2254 36.4723 11.2659 36.4723 12.4545V13.5486C36.4723 14.6831 36.3778 14.8182 36.0671 14.8182H32.2717V27.6093C32.2717 27.8929 31.907 27.9605 30.6373 27.9605H29.962C28.6653 27.9605 28.4492 27.8929 28.4492 27.6093V14.8182H24.6537C24.3431 14.8182 24.2485 14.7237 24.2485 13.5486V12.4545C24.2485 11.2254 24.3161 11.2254 24.6537 11.2254H36.0671ZM42.8746 11.59C42.8746 11.3469 42.5234 11.2254 41.2943 11.2254H40.5784C39.2818 11.2254 39.0657 11.3334 39.0657 11.59V27.6228C39.0657 27.9064 39.2818 27.974 40.5784 27.974H41.2943C42.5234 27.974 42.8746 27.9064 42.8746 27.6228V11.59ZM61.4061 11.2254H60.2851C58.8533 11.2254 58.7723 11.3874 58.6507 11.6306L56.4356 16.9388C55.6927 18.7082 54.9363 20.5992 54.6527 21.5852C54.3825 20.5992 53.8963 19.289 52.8697 16.8443L50.6681 11.6306C50.5331 11.3199 49.9793 11.2254 48.7636 11.2254H47.521C46.2919 11.2254 46.0487 11.3334 46.0487 11.59V27.6228C46.0487 27.9064 46.2919 27.974 47.5615 27.974H48.2504C49.5065 27.974 49.8577 27.9064 49.8577 27.6228V18.1004H49.9522C49.9522 18.1004 50.0603 18.5461 50.2494 18.9513L52.7887 24.9079C52.8968 25.178 53.0318 25.2861 54.2204 25.2861H54.9768C56.179 25.2861 56.2735 25.1915 56.3816 24.9079L58.7048 19.1674C58.9209 18.6272 59.0829 18.1004 59.0829 18.1004H59.1775V27.6093C59.1775 27.8929 59.4206 27.9605 60.7443 27.9605H61.4196C62.6488 27.9605 63 27.8929 63 27.6093V11.59C63 11.3334 62.6353 11.2254 61.4061 11.2254Z" fill="white"/>
<path d="M1.21699 39.3266C0.844855 39.3266 0.794566 39.3065 0.794566 39.2159V32.085H2.48428C4.33491 32.085 5.54185 32.608 5.54185 34.2876C5.54185 35.8265 4.47572 36.611 2.81618 36.611C2.50439 36.611 2.13225 36.5909 1.76012 36.5406V39.2159C1.76012 39.3165 1.68971 39.3266 1.31757 39.3266H1.21699ZM2.70555 35.8365C3.92254 35.8365 4.56624 35.3336 4.56624 34.3178C4.56624 33.1612 3.7415 32.8594 2.53457 32.8594H1.76012V35.7762C2.10208 35.8265 2.48428 35.8365 2.70555 35.8365ZM8.20355 39.4272C6.73511 39.4272 6.05118 38.2102 6.05118 36.7618C6.05118 35.042 7.03685 33.9155 8.36448 33.9155C8.96794 33.9155 9.44066 34.1971 9.72228 34.5592L9.77257 34.1368C9.78263 34.0161 9.83292 34.0161 10.1346 34.0161H10.1548C10.537 34.0161 10.547 34.0563 10.547 34.1368C10.547 34.3781 10.5269 35.0218 10.5269 35.6655V37.0736C10.5269 37.999 10.5671 38.6527 10.5973 39.2059C10.5973 39.2864 10.547 39.3266 10.2352 39.3266H10.195C9.8832 39.3266 9.82286 39.2964 9.8128 39.2059L9.75245 38.7432C9.4306 39.1355 8.85731 39.4272 8.20355 39.4272ZM8.36448 38.6225C8.69638 38.6225 9.0987 38.522 9.37026 38.2303C9.58147 37.999 9.6217 37.7173 9.6217 36.8423V35.4141C9.39037 35.052 8.93777 34.7302 8.46505 34.7302C7.53974 34.7302 6.99662 35.5046 6.99662 36.7116C6.99662 37.657 7.32852 38.6225 8.36448 38.6225ZM12.5121 39.3266C12.1098 39.3266 12.0797 39.2864 12.0797 39.2059V35.7762C12.0797 35.0922 12.0595 34.3882 12.0595 34.1368C12.0595 34.0563 12.0897 34.0161 12.4719 34.0161H12.5222C12.8843 34.0161 12.9346 34.0462 12.9346 34.1368L12.9547 35.1727C13.3369 34.3279 13.8901 33.9557 14.4231 33.9557C14.5136 33.9557 14.584 33.9658 14.6343 33.9758C14.7249 33.9959 14.7349 34.0261 14.7349 34.2575V34.4083C14.7349 34.7 14.7249 34.7805 14.6243 34.7805C13.9102 34.7805 13.5481 35.223 13.2564 35.6957C13.1156 35.927 13.0351 36.2087 13.015 36.5607C12.9949 36.8423 12.9849 37.4659 12.9849 38.0492V39.2059C12.9849 39.2763 12.9748 39.3266 12.5725 39.3266H12.5121ZM17.3675 39.4272C15.8991 39.4272 15.2152 38.2102 15.2152 36.7618C15.2152 35.042 16.2008 33.9155 17.5285 33.9155C18.1319 33.9155 18.6047 34.1971 18.8863 34.5592L18.9366 34.1368C18.9466 34.0161 18.9969 34.0161 19.2986 34.0161H19.3188C19.701 34.0161 19.711 34.0563 19.711 34.1368C19.711 34.3781 19.6909 35.0218 19.6909 35.6655V37.0736C19.6909 37.999 19.7311 38.6527 19.7613 39.2059C19.7613 39.2864 19.711 39.3266 19.3992 39.3266H19.359C19.0472 39.3266 18.9868 39.2964 18.9768 39.2059L18.9164 38.7432C18.5946 39.1355 18.0213 39.4272 17.3675 39.4272ZM17.5285 38.6225C17.8604 38.6225 18.2627 38.522 18.5342 38.2303C18.7455 37.999 18.7857 37.7173 18.7857 36.8423V35.4141C18.5544 35.052 18.1018 34.7302 17.629 34.7302C16.7037 34.7302 16.1606 35.5046 16.1606 36.7116C16.1606 37.657 16.4925 38.6225 17.5285 38.6225ZM25.478 39.3266C25.0857 39.3266 25.0053 39.3065 24.965 39.2059L23.1245 34.1569C23.0842 34.0362 23.1949 34.0161 23.567 34.0161C23.9291 34.0161 24.0699 34.0462 24.1001 34.1267L25.5484 38.3007H25.5584C26.0513 36.963 26.5341 35.5348 26.8458 34.1166C26.866 34.0362 26.876 34.0161 27.2683 34.0161C27.6706 34.0161 27.751 34.0261 27.7108 34.2072C27.2381 36.1282 26.5843 37.9386 26.011 39.2059C25.9608 39.3165 25.8803 39.3266 25.478 39.3266ZM30.5523 39.4272C29.9388 39.4272 29.4258 39.2662 29.0436 38.9243C28.5407 38.4817 28.2491 37.7375 28.2491 36.792C28.2491 34.8911 29.2448 33.9155 30.7535 33.9155C31.367 33.9155 31.8799 34.0764 32.2621 34.4184C32.765 34.8609 33.0567 35.6052 33.0567 36.5506C33.0567 38.4516 32.061 39.4272 30.5523 39.4272ZM30.5925 38.6225C31.3972 38.6225 32.1113 38.0593 32.1113 36.621C32.1113 35.7158 31.8095 34.7201 30.7132 34.7201C29.9086 34.7201 29.1945 35.2833 29.1945 36.7216C29.1945 37.6268 29.4962 38.6225 30.5925 38.6225ZM36.2687 39.4272C34.7299 39.4272 33.9655 38.2504 33.9655 36.7518C33.9655 34.9112 35.0417 33.9155 36.4397 33.9155C37.0734 33.9155 37.6366 34.1368 38.059 34.4385C38.1395 34.4988 38.1395 34.5692 37.9987 34.9012C37.8478 35.2431 37.7472 35.2129 37.6768 35.1627C37.3047 34.9112 36.8923 34.7402 36.49 34.7402C35.5546 34.7402 34.9109 35.4443 34.9109 36.6914C34.9109 37.657 35.3032 38.6024 36.3894 38.6024C36.8119 38.6024 37.2745 38.4817 37.6668 38.2906C37.7472 38.2504 37.8478 38.2806 37.9283 38.4918L37.9786 38.6225C38.0792 38.8639 38.049 38.9343 37.9786 38.9746C37.4757 39.2562 36.8923 39.4272 36.2687 39.4272ZM42.3467 33.3522L41.2404 32.3867L40.1139 33.3422C40.0737 33.3824 39.9731 33.3422 39.8725 33.2316L39.8021 33.1511C39.6814 33.0203 39.6512 32.9399 39.7015 32.8795L40.6168 31.9039C40.6872 31.8235 40.7978 31.7732 41.0593 31.7732H41.4415C41.7231 31.7732 41.8338 31.8436 41.8941 31.914L42.7893 32.8594C42.8496 32.9198 42.8094 33.0203 42.6887 33.1511L42.6082 33.2416C42.5177 33.3522 42.397 33.4025 42.3467 33.3522ZM41.3309 39.4272C39.7015 39.4272 38.8667 38.4113 38.8667 36.792C38.8667 35.1023 39.792 33.9155 41.2806 33.9155C42.1757 33.9155 42.7893 34.358 43.1212 35.0218C43.3525 35.4845 43.4531 36.0377 43.4531 36.6311C43.4531 36.9328 43.433 36.9932 43.3525 36.9932H39.8122C39.8423 37.5464 40.0033 37.9788 40.315 38.2403C40.5866 38.4817 40.9789 38.6024 41.5019 38.6024C41.9243 38.6024 42.3467 38.5018 42.8295 38.2806C42.92 38.2403 42.9804 38.2202 43.0809 38.4717L43.1312 38.5924C43.2419 38.8539 43.2318 38.9142 43.1513 38.9645C42.6384 39.2662 42.0048 39.4272 41.3309 39.4272ZM39.8423 36.2489H42.5278C42.5177 35.4946 42.1355 34.7402 41.2907 34.7402C40.5564 34.7402 39.9831 35.2129 39.8423 36.2489Z" fill="white"/>
</svg>
