<svg width="54" height="54" viewBox="0 0 54 54" fill="none" xmlns="http://www.w3.org/2000/svg">
<rect x="0.563477" y="0.630859" width="52.5" height="52.5" rx="9.1875" fill="#001CCF"/>
<path fill-rule="evenodd" clip-rule="evenodd" d="M39.0293 20.6534H15.881C15.5393 20.6534 15.2307 20.5119 15.0078 20.2833C14.7868 20.0569 14.6504 19.7451 14.6504 19.401V17.2491C14.6504 16.9042 14.7877 16.5912 15.0097 16.365C15.2325 16.1379 15.5408 15.9971 15.881 15.9971H39.0293C39.3714 15.9971 39.6811 16.1388 39.9045 16.3683C40.1241 16.5946 40.2601 16.9054 40.2601 17.2491V19.401C40.2601 19.7447 40.1241 20.056 39.904 20.2824C39.6807 20.5113 39.3714 20.6534 39.0293 20.6534ZM24.8944 24.5527H15.881C15.5408 24.5527 15.2325 24.6935 15.0097 24.9212C14.7877 25.1475 14.6504 25.4598 14.6504 25.8051V27.9573C14.6504 28.3013 14.7868 28.6131 15.0078 28.8393C15.2307 29.0679 15.5393 29.2091 15.881 29.2091H24.8944V24.5527ZM39.9049 24.9244C39.6815 24.6948 39.3718 24.5527 39.0297 24.5527H30.0166V29.2091H39.0297C39.3718 29.2091 39.6812 29.0676 39.9044 28.8384C40.1245 28.6122 40.2606 28.3007 40.2606 27.9573V25.8051C40.2606 25.4617 40.1245 25.1508 39.9049 24.9244ZM39.9049 33.4805C39.6815 33.2515 39.3718 33.1094 39.0297 33.1094H30.0166V37.7658H39.0303C39.3718 37.7658 39.6812 37.6237 39.9044 37.3945C40.1245 37.1683 40.2606 36.8574 40.2606 36.5134V34.3612C40.2606 34.0181 40.1245 33.7069 39.9049 33.4805ZM24.8944 33.1094H15.881C15.5408 33.1094 15.2325 33.25 15.0097 33.4773C14.7877 33.7041 14.6504 34.0163 14.6504 34.3618V36.5137C14.6504 36.8577 14.7868 37.1692 15.0078 37.396C15.2307 37.624 15.5393 37.7658 15.881 37.7658H24.8944V33.1094Z" fill="#EC0028"/>
</svg>
