<svg width="45" height="45" viewBox="0 0 45 45" fill="none" xmlns="http://www.w3.org/2000/svg">
<path fill-rule="evenodd" clip-rule="evenodd" d="M22.75 15.7604V13.9062H14.4062V15.7604H22.75ZM31.0938 19.4688V21.3229H14.4062V19.4688H31.0938ZM31.0938 25.0312V26.8854H14.4062V25.0312H31.0938Z" fill="white"/>
<path d="M9.97337 40.5208C9.52837 40.5208 9.47275 40.5097 9.47275 40.4096V32.6443C9.47275 32.5331 9.5395 32.5108 9.99562 32.5108H10.1959C10.6186 32.5108 10.7076 32.5442 10.7521 32.6443L12.3207 35.8038C12.699 36.5715 13.0439 37.2946 13.2997 37.9065C13.5779 37.239 13.9227 36.4491 14.2342 35.8038L15.7806 32.6443C15.8251 32.5442 15.903 32.5108 16.3591 32.5108H16.5037C16.9376 32.5108 17.0044 32.5331 17.0044 32.6443V40.4096C17.0044 40.5097 16.9487 40.5208 16.5371 40.5208H16.4592C16.0254 40.5208 15.9809 40.5097 15.9809 40.4096V36.7161C15.9809 36.082 15.992 34.8026 16.0031 34.2241C15.725 34.9138 15.3356 35.7371 14.9907 36.438L13.7336 38.9967C13.6891 39.0857 13.6557 39.108 13.2886 39.108H13.2552C12.8436 39.108 12.8214 39.0857 12.7769 38.9967L11.4641 36.3823C11.1081 35.6703 10.7966 35.0028 10.474 34.2241C10.4962 34.8471 10.4962 36.0152 10.4962 36.7272V40.4096C10.4962 40.5097 10.4517 40.5208 10.029 40.5208H9.97337ZM21.1091 40.6321C19.3068 40.6321 18.3834 39.5085 18.3834 37.7173C18.3834 35.8483 19.4069 34.5356 21.0534 34.5356C22.0436 34.5356 22.7222 35.0251 23.0893 35.7593C23.3452 36.2711 23.4564 36.883 23.4564 37.5393C23.4564 37.8731 23.4342 37.9398 23.3452 37.9398H19.4292C19.4626 38.5517 19.6406 39.0301 19.9854 39.3193C20.2858 39.5863 20.7197 39.7198 21.2982 39.7198C21.7654 39.7198 22.2327 39.6086 22.7667 39.3638C22.8668 39.3193 22.9336 39.2971 23.0448 39.5752L23.1004 39.7087C23.2228 39.998 23.2117 40.0647 23.1227 40.1203C22.5553 40.4541 21.8544 40.6321 21.1091 40.6321ZM19.4626 37.1166H22.4329C22.4218 36.2822 21.9991 35.4478 21.0646 35.4478C20.2524 35.4478 19.6183 35.9707 19.4626 37.1166ZM25.2803 40.5208C24.8353 40.5208 24.802 40.4763 24.802 40.3873V36.5937C24.802 35.8372 24.7797 35.0585 24.7797 34.7803C24.7797 34.6913 24.8131 34.6468 25.2358 34.6468H25.2915C25.692 34.6468 25.7476 34.6802 25.7476 34.7803L25.7587 35.281H25.7698C26.1592 34.8248 26.8935 34.5356 27.5832 34.5356C28.1951 34.5356 28.7402 34.747 29.1073 35.1252C29.5078 35.5368 29.6747 36.1153 29.6747 37.0165V40.3873C29.6747 40.4652 29.6636 40.5208 29.2186 40.5208H29.1518C28.7068 40.5208 28.6735 40.4763 28.6735 40.3873V37.4837C28.6735 36.5826 28.6401 36.1598 28.3731 35.8483C28.1617 35.5925 27.8057 35.4812 27.3162 35.4812C26.9046 35.4812 26.404 35.6258 26.137 35.8817C26.0035 36.0041 25.8811 36.1932 25.8366 36.6716C25.8143 36.9831 25.8032 37.5505 25.8032 38.1957V40.3873C25.8032 40.4652 25.7921 40.5208 25.3471 40.5208H25.2803ZM33.2343 40.6321C32.6335 40.6321 32.1218 40.4318 31.7546 40.0425C31.3653 39.6308 31.2095 39.0523 31.2095 38.1512V34.7803C31.2095 34.7025 31.2318 34.6468 31.6545 34.6468H31.7435C32.1663 34.6468 32.2108 34.6913 32.2108 34.7803V37.6951C32.2108 38.574 32.2441 39.0301 32.4889 39.3305C32.6891 39.5752 33.0229 39.7087 33.479 39.7087C33.9129 39.7087 34.4246 39.5641 34.6916 39.3082C34.9253 39.0857 35.0476 38.752 35.0476 37.5282V34.7803C35.0476 34.7025 35.1144 34.6468 35.4926 34.6468H35.5928C35.971 34.6468 36.0489 34.6913 36.0489 34.7803V38.574C36.0489 39.3305 36.0711 40.1092 36.0711 40.3873C36.0711 40.4763 36.0378 40.5208 35.615 40.5208H35.5705C35.1811 40.5208 35.1144 40.4763 35.1144 40.3873L35.0921 39.909H35.081C34.6694 40.3651 34.0575 40.6321 33.2343 40.6321Z" fill="white"/>
</svg>
