<svg width="68" height="67" viewBox="0 0 68 67" fill="none" xmlns="http://www.w3.org/2000/svg">
<circle cx="33.9627" cy="33.2717" r="33.075" fill="#F0F1F2"/>
<path fill-rule="evenodd" clip-rule="evenodd" d="M28.0563 21.4591H39.8688C41.1736 21.4591 42.2313 22.5168 42.2313 23.8216V42.7216C42.2313 44.0264 41.1736 45.0841 39.8688 45.0841H28.0563C26.7516 45.0841 25.6938 44.0264 25.6938 42.7216V23.8216C25.6938 22.5168 26.7516 21.4591 28.0563 21.4591ZM28.0563 23.8216V42.7216H39.8688V23.8216H28.0563ZM35.1438 40.3591C35.1438 41.0114 34.615 41.5403 33.9626 41.5403C33.3102 41.5403 32.7813 41.0114 32.7813 40.3591C32.7813 39.7067 33.3102 39.1778 33.9626 39.1778C34.615 39.1778 35.1438 39.7067 35.1438 40.3591Z" fill="#0026D9"/>
</svg>
