<svg width="279" height="83" viewBox="0 0 279 83" fill="none" xmlns="http://www.w3.org/2000/svg">
<path d="M2.608 45.9995C2.392 45.9995 2.32 45.8795 2.32 44.8235V44.5835C2.32 43.5275 2.392 43.4075 2.608 43.4075H5.728V32.3195L2.776 33.5915C2.488 33.7115 2.32 33.5915 1.912 32.6555L1.768 32.3195C1.408 31.4795 1.408 31.2395 1.672 31.1195L5.848 29.1755C6.664 28.8155 7.048 28.7195 7.6 28.7195H8.2C8.968 28.7195 9.064 28.8155 9.064 29.0795V43.4075H11.872C12.088 43.4075 12.16 43.5275 12.16 44.5835V44.8235C12.16 45.8795 12.088 45.9995 11.872 45.9995H2.608ZM15.3873 45.9995C14.5473 45.9995 14.2593 45.9275 14.3793 45.6395L20.5713 31.5275H13.2993C13.0833 31.5275 13.0113 31.4075 13.0113 30.3515V29.8955C13.0113 28.8395 13.0833 28.7195 13.2993 28.7195H23.0193C23.9313 28.7195 24.0513 28.8395 24.0513 29.1995V30.2075C24.0513 30.6635 23.9553 31.0475 23.5953 31.9115L17.9073 45.6395C17.7873 45.9515 17.5233 45.9995 16.2513 45.9995H15.3873ZM31.1838 46.2395C27.4398 46.2395 25.2078 43.3835 25.2078 37.6715C25.2078 31.7195 27.5358 28.4795 31.5678 28.4795C35.3118 28.4795 37.5438 31.3355 37.5438 37.0475C37.5438 42.9995 35.2158 46.2395 31.1838 46.2395ZM31.2798 43.4795C33.2478 43.4795 34.1118 41.1755 34.1118 37.2155C34.1118 33.1355 33.2478 31.2395 31.4718 31.2395C29.5038 31.2395 28.6398 33.5435 28.6398 37.5035C28.6398 41.5835 29.5038 43.4795 31.2798 43.4795ZM47.5263 46.2395C41.9823 46.2395 39.3183 42.8795 39.3183 37.3595C39.3183 31.9115 42.5103 28.4795 47.8863 28.4795C49.9503 28.4795 51.7503 28.9355 53.3583 30.0395C53.7183 30.2795 53.6943 30.3995 53.1663 31.2635L52.7823 31.8875C52.3263 32.6315 52.2063 32.6555 51.8703 32.4635C50.6943 31.7675 49.5663 31.4075 48.1503 31.4075C44.7183 31.4075 42.9183 33.4475 42.9183 37.3355C42.9183 41.2955 44.5983 43.3355 47.9343 43.3355C48.6783 43.3355 49.6863 43.1915 50.3823 43.0235V39.0875H47.4063C47.0943 39.0875 46.9743 38.9915 46.9743 37.7675V37.5755C46.9743 36.3035 47.0703 36.3035 47.4063 36.3035H52.8063C53.7663 36.3035 53.8383 36.3515 53.8383 36.7115V44.6075C53.8383 44.9195 53.8143 44.9915 53.6223 45.0875C52.2303 45.7835 49.6863 46.2395 47.5263 46.2395ZM58.2768 45.9995C57.2688 45.9995 57.2448 45.9275 57.2448 45.6395V29.0795C57.2448 28.7675 57.2928 28.7195 58.2768 28.7195H62.3568C66.5328 28.7195 68.9808 30.0395 68.9808 33.0395C68.9808 34.8155 68.0208 36.0155 66.5088 36.7835C68.7168 37.3835 69.9408 38.7755 69.9408 41.0315C69.9408 44.5835 67.0368 45.9995 62.7168 45.9995H58.2768ZM60.7488 35.7995H62.3808C64.3968 35.7995 65.4768 35.1275 65.4768 33.5435C65.4768 32.0075 64.4448 31.4795 62.4288 31.4795H60.7488V35.7995ZM60.7488 43.2635H62.8128C65.2608 43.2635 66.3888 42.5675 66.3888 40.8155C66.3888 38.9915 65.1888 38.4395 62.8128 38.4395H60.7488V43.2635Z" fill="#EB0028"/>
<path d="M14.016 71.6398C14.184 71.9038 13.944 71.9998 13.272 71.9998H12.624C11.784 71.9998 11.616 71.9758 11.448 71.7118L8.448 66.7918C7.392 65.0638 7.032 64.9438 5.328 64.9438H4.2V71.7358C4.2 71.9758 4.032 71.9998 3.144 71.9998H2.904C2.016 71.9998 1.896 71.9518 1.896 71.7358V54.7198H6.288C10.8 54.7198 13.344 56.0398 13.344 59.5438C13.344 62.2078 11.832 63.8158 9.288 64.5838C9.72 64.9198 10.104 65.4478 10.704 66.3838L14.016 71.6398ZM6.624 63.1198C9.336 63.1198 10.968 62.0878 10.968 59.6878C10.968 57.2878 9.384 56.5678 6.504 56.5678H4.2V63.1198H6.624ZM27.2691 67.3678C27.2691 69.8638 25.5171 71.7118 22.5891 72.1438V74.3038C22.5891 74.4958 22.3731 74.5678 21.8211 74.5678H21.3651C20.7651 74.5678 20.5731 74.4958 20.5731 74.3038V72.2158C18.7251 72.0958 16.9011 71.4958 15.9651 70.7758C15.7491 70.6078 15.7011 70.4638 16.0611 69.8158L16.2051 69.5518C16.4931 69.0238 16.6371 68.9518 16.8531 69.0718C18.1251 69.8398 19.6131 70.3438 21.1011 70.3438C23.5011 70.3438 24.9891 69.1438 24.9891 67.3678C24.9891 65.8558 24.0051 65.2318 21.0291 63.8878C17.8611 62.4478 16.5891 61.1998 16.5891 59.0158C16.5891 56.5678 18.5331 54.9118 21.1011 54.5518V52.5838C21.1011 52.3918 21.3171 52.3198 21.8691 52.3198H22.3251C22.9251 52.3198 23.1171 52.3918 23.1171 52.5838V54.5278C24.4371 54.6478 25.5891 55.0318 26.5731 55.6798C26.8371 55.8478 26.8371 55.9438 26.5251 56.5678L26.4051 56.8078C26.0931 57.4318 25.9971 57.4558 25.7331 57.3118C24.5331 56.6878 23.4291 56.3518 22.2531 56.3518C20.3091 56.3518 18.8691 57.3838 18.8691 58.8958C18.8691 60.3118 19.8771 60.9838 22.4451 62.1838C25.6131 63.6718 27.2691 64.8238 27.2691 67.3678ZM33.3748 72.2398C32.0308 72.2398 30.5668 71.9278 29.3668 71.3758C29.2468 71.3278 29.1988 71.1358 29.4148 70.5598L29.5828 70.1518C29.7748 69.6718 29.9428 69.5518 30.0628 69.5998C31.0228 70.0798 32.3188 70.3438 33.3268 70.3438C35.3668 70.3438 36.9988 69.2398 36.9988 67.1038C36.9988 64.7998 34.9108 63.8158 32.6788 63.8158H31.7428C31.5988 63.8158 31.5508 63.7198 31.5508 63.1198V62.7118C31.5508 62.1118 31.5988 62.0158 31.7428 62.0158H32.6548C34.6948 62.0158 36.3988 61.1518 36.3988 59.0398C36.3988 57.0718 34.9588 56.3038 33.3508 56.3038C32.4388 56.3038 31.3108 56.5438 30.3988 57.0478C30.2788 57.1198 30.1348 57.0238 29.9188 56.5438L29.7508 56.1838C29.5348 55.7278 29.5828 55.5118 29.7028 55.4398C30.7828 54.8638 32.1268 54.4798 33.5188 54.4798C36.1588 54.4798 38.6548 55.8958 38.6548 58.8718C38.6548 60.7918 37.5748 62.3278 36.0868 62.8078C37.6228 63.0958 39.3028 64.4638 39.3028 67.0318C39.3028 70.5118 36.4228 72.2398 33.3748 72.2398ZM47.6659 72.2398C44.1859 72.2398 42.0499 69.4798 42.0499 63.7198C42.0499 57.7198 44.2819 54.4798 48.0739 54.4798C51.5299 54.4798 53.6899 57.1438 53.6899 62.9758C53.6899 68.9038 51.5059 72.2398 47.6659 72.2398ZM47.7619 70.3438C50.1139 70.3438 51.4099 67.7518 51.4099 63.0958C51.4099 58.6798 50.2099 56.3758 47.9779 56.3758C45.6979 56.3758 44.3539 58.8478 44.3539 63.5518C44.3539 67.9678 45.5059 70.3438 47.7619 70.3438ZM63.9883 71.9998C63.3163 71.9998 62.9563 71.9278 62.9563 71.7358V67.6078H56.5723C55.9483 67.6078 55.7323 67.5358 55.7323 67.2718V66.2158C55.7323 65.7838 55.8523 65.3038 56.0203 64.9198L60.8203 55.0078C60.9163 54.7918 61.3243 54.7198 61.9003 54.7198H62.2843C62.8843 54.7198 63.2923 54.8398 63.1963 55.0558L58.0843 65.6878H62.9563V61.8718C62.9563 61.6798 63.3163 61.6078 63.9403 61.6078H64.2043C64.8763 61.6078 65.2363 61.6798 65.2363 61.8718V65.6878H67.1803C67.3483 65.6878 67.3963 65.9518 67.3963 66.4798V66.7918C67.3963 67.3438 67.3483 67.6078 67.1803 67.6078H65.2363V71.7358C65.2363 71.9278 64.8763 71.9998 64.2523 71.9998H63.9883Z" fill="white"/>
<path d="M72.008 60.9675C71.912 61.0515 71.78 61.0635 71.66 60.9435L71.528 60.7995C71.456 60.7275 71.384 60.5955 71.504 60.4755C71.852 60.1395 72.2 59.6955 72.2 59.2755C72.2 58.7835 71.672 58.8795 71.672 58.1955C71.672 57.7755 72.02 57.4995 72.428 57.4995C72.98 57.4995 73.304 57.9195 73.304 58.4355C73.304 59.3835 72.776 60.3555 72.008 60.9675ZM76.4865 59.1195C75.7785 59.1195 75.2265 58.9635 74.7345 58.7115C74.6505 58.6635 74.6625 58.4475 74.7465 58.2555L74.7945 58.1475C74.8785 57.9555 75.0225 57.7995 75.1065 57.8475C75.4785 58.0515 76.0425 58.1715 76.4865 58.1715C78.2745 58.1715 78.7305 56.3355 78.8265 54.7635C78.3465 55.1715 77.6145 55.4355 76.9425 55.4355C75.2625 55.4355 74.5065 54.3915 74.5065 52.9275C74.5065 51.3795 75.4665 50.2395 77.2425 50.2395C79.4625 50.2395 80.0025 52.0035 80.0025 53.9835C80.0025 56.5275 79.2225 59.1195 76.4865 59.1195ZM77.0985 54.4875C77.8185 54.4875 78.4305 54.1755 78.8745 53.8995V53.7555C78.8745 52.6035 78.6825 51.1755 77.2065 51.1755C76.0305 51.1755 75.6465 52.0635 75.6465 52.8195C75.6465 53.6595 75.9345 54.4875 77.0985 54.4875ZM83.1545 59.1195C82.4465 59.1195 81.8945 58.9635 81.4025 58.7115C81.3185 58.6635 81.3305 58.4475 81.4145 58.2555L81.4625 58.1475C81.5465 57.9555 81.6905 57.7995 81.7745 57.8475C82.1465 58.0515 82.7105 58.1715 83.1545 58.1715C84.9425 58.1715 85.3985 56.3355 85.4945 54.7635C85.0145 55.1715 84.2825 55.4355 83.6105 55.4355C81.9305 55.4355 81.1745 54.3915 81.1745 52.9275C81.1745 51.3795 82.1345 50.2395 83.9105 50.2395C86.1305 50.2395 86.6705 52.0035 86.6705 53.9835C86.6705 56.5275 85.8905 59.1195 83.1545 59.1195ZM83.7665 54.4875C84.4865 54.4875 85.0985 54.1755 85.5425 53.8995V53.7555C85.5425 52.6035 85.3505 51.1755 83.8745 51.1755C82.6985 51.1755 82.3145 52.0635 82.3145 52.8195C82.3145 53.6595 82.6025 54.4875 83.7665 54.4875Z" fill="white"/>
<path d="M71.516 72.2038C71.228 72.2038 71.12 72.1558 71.144 72.0598L73.784 63.2638C73.82 63.1558 73.928 63.1438 74.204 63.1438H74.432C74.72 63.1438 74.84 63.1918 74.816 63.2878L72.188 72.0838C72.164 72.1678 72.032 72.2038 71.756 72.2038H71.516ZM76.3649 71.9998C75.8849 71.9998 75.8489 71.9518 75.8489 71.8558V67.7638C75.8489 66.9478 75.8249 66.1078 75.8249 65.8078C75.8249 65.7118 75.8609 65.6638 76.3169 65.6638H76.3769C76.8089 65.6638 76.8689 65.6998 76.8689 65.8078L76.8809 66.3478H76.8929C77.3129 65.8558 78.0089 65.5438 78.7529 65.5438C79.4129 65.5438 79.9769 65.7718 80.3729 66.1798C80.4809 66.2998 80.5769 66.4198 80.6489 66.5638C81.1289 65.9038 81.9569 65.5438 82.8089 65.5438C83.4689 65.5438 84.0329 65.7718 84.4289 66.1798C84.8609 66.6238 85.0409 67.2478 85.0409 68.2198V71.8558C85.0409 71.9398 85.0289 71.9998 84.5489 71.9998H84.4769C83.9969 71.9998 83.9609 71.9518 83.9609 71.8558V68.7238C83.9609 67.7518 83.9249 67.2958 83.6369 66.9598C83.4089 66.6838 83.0009 66.5638 82.5449 66.5638C82.1249 66.5638 81.6209 66.7198 81.3449 66.9838C81.2009 67.1158 81.0689 67.3198 81.0209 67.8358C80.9969 68.1718 80.9849 68.7838 80.9849 69.4798V71.8558C80.9849 71.9398 80.9729 71.9998 80.4929 71.9998H80.4209C79.9409 71.9998 79.9049 71.9518 79.9049 71.8558V68.7238C79.9049 67.7518 79.8689 67.2958 79.5809 66.9598C79.3529 66.6838 78.9449 66.5638 78.4889 66.5638C78.0689 66.5638 77.5649 66.7198 77.2889 66.9838C77.1449 67.1158 77.0129 67.3198 76.9649 67.8358C76.9409 68.1718 76.9289 68.7838 76.9289 69.4798V71.8558C76.9289 71.9398 76.9169 71.9998 76.4369 71.9998H76.3649ZM90.5748 64.8718L89.2548 63.7198L87.9108 64.8598C87.8628 64.9078 87.7428 64.8598 87.6228 64.7278L87.5388 64.6318C87.3948 64.4758 87.3588 64.3798 87.4188 64.3078L88.5108 63.1438C88.5948 63.0478 88.7268 62.9878 89.0388 62.9878H89.4948C89.8308 62.9878 89.9628 63.0718 90.0348 63.1558L91.1028 64.2838C91.1748 64.3558 91.1268 64.4758 90.9828 64.6318L90.8868 64.7398C90.7788 64.8718 90.6348 64.9318 90.5748 64.8718ZM89.3628 72.1198C87.4188 72.1198 86.4228 70.9078 86.4228 68.9758C86.4228 66.9598 87.5268 65.5438 89.3028 65.5438C90.3708 65.5438 91.1028 66.0718 91.4988 66.8638C91.7748 67.4158 91.8948 68.0758 91.8948 68.7838C91.8948 69.1438 91.8708 69.2158 91.7748 69.2158H87.5508C87.5868 69.8758 87.7788 70.3918 88.1508 70.7038C88.4748 70.9918 88.9428 71.1358 89.5668 71.1358C90.0708 71.1358 90.5748 71.0158 91.1508 70.7518C91.2588 70.7038 91.3308 70.6798 91.4508 70.9798L91.5108 71.1238C91.6428 71.4358 91.6308 71.5078 91.5348 71.5678C90.9228 71.9278 90.1668 72.1198 89.3628 72.1198ZM87.5868 68.3278H90.7908C90.7788 67.4278 90.3228 66.5278 89.3148 66.5278C88.4388 66.5278 87.7548 67.0918 87.5868 68.3278ZM94.9782 72.1198C94.2102 72.1198 93.4662 71.8438 93.0102 71.5198C92.8902 71.4358 92.9262 71.3638 93.0582 71.0878L93.1182 70.9558C93.2742 70.6198 93.3222 70.6078 93.4782 70.7038C93.9342 70.9678 94.5102 71.1838 95.0382 71.1838C95.5902 71.1838 96.3582 70.9078 96.3582 70.2118C96.3582 69.5638 95.5902 69.3478 94.9782 69.2158C94.3422 69.0718 93.8742 68.9038 93.5502 68.6038C93.2502 68.3278 93.0702 67.9078 93.0702 67.4398C93.0702 66.2638 94.0902 65.5438 95.2902 65.5438C96.0462 65.5438 96.7422 65.8078 97.1862 66.2038C97.2822 66.2878 97.3062 66.3958 97.1382 66.6358L97.0542 66.7558C96.8382 67.0678 96.7782 67.0678 96.6942 66.9958C96.2502 66.6838 95.8302 66.4678 95.3022 66.4678C94.8102 66.4678 94.1022 66.6598 94.1022 67.3198C94.1022 67.9678 94.7742 68.1358 95.3502 68.2798C96.3342 68.5318 97.3782 68.8918 97.3782 70.1398C97.3782 71.4238 96.2982 72.1198 94.9782 72.1198Z" fill="white"/>
<path d="M0.854 18.9998C0.308 18.9998 0.252 18.9718 0.308 18.8178L4.046 9.11575C4.102 8.94775 4.172 8.91975 4.76 8.91975H4.83C5.432 8.91975 5.502 8.93375 5.586 9.11575L9.38 18.8178C9.436 18.9578 9.324 18.9998 8.792 18.9998H8.652C8.092 18.9998 7.994 18.9718 7.924 18.8318L7.014 16.3398H2.59L1.666 18.8318C1.61 18.9718 1.512 18.9998 0.98 18.9998H0.854ZM2.954 15.2898H6.636L6.202 14.0998C5.67 12.6718 5.194 11.3418 4.816 10.1798C4.41 11.3138 3.906 12.6998 3.402 14.0578L2.954 15.2898ZM12.874 19.1398C12.244 19.1398 11.782 18.9718 11.474 18.6778C11.068 18.2998 10.942 17.7678 10.942 16.8298V12.6018H9.72399C9.63999 12.6018 9.61199 12.5318 9.61199 12.2798V12.1958C9.61199 11.9718 9.63999 11.8878 9.73799 11.8598C10.956 11.5098 11.18 10.9498 11.32 9.64775C11.334 9.56375 11.404 9.53575 11.712 9.53575H11.81C12.132 9.53575 12.202 9.57775 12.202 9.66175V11.6078H13.966C14.064 11.6078 14.092 11.6778 14.092 12.0418V12.1538C14.092 12.5318 14.064 12.6018 13.966 12.6018H12.202V16.7318C12.202 17.2638 12.244 17.6138 12.426 17.8098C12.58 17.9778 12.818 18.0618 13.14 18.0618C13.462 18.0618 13.812 17.9638 14.092 17.8798C14.232 17.8378 14.274 17.8938 14.344 18.1598L14.386 18.3418C14.456 18.6358 14.456 18.7198 14.344 18.7898C13.994 19.0138 13.392 19.1398 12.874 19.1398ZM18.2956 10.7258C17.8476 10.7258 17.8196 10.6418 17.8756 10.5578L18.8976 8.76576C18.9536 8.66775 19.1216 8.61175 19.5136 8.61175H19.6816C20.1996 8.61175 20.2976 8.70975 20.2276 8.80775L18.9116 10.5998C18.8696 10.6698 18.7436 10.7258 18.4076 10.7258H18.2956ZM18.7436 19.1398C16.4756 19.1398 15.3136 17.7258 15.3136 15.4718C15.3136 13.1198 16.6016 11.4678 18.6736 11.4678C19.9196 11.4678 20.7736 12.0838 21.2356 13.0078C21.5576 13.6518 21.6976 14.4218 21.6976 15.2478C21.6976 15.6678 21.6696 15.7518 21.5576 15.7518H16.6296C16.6716 16.5218 16.8956 17.1238 17.3296 17.4878C17.7076 17.8238 18.2536 17.9918 18.9816 17.9918C19.5696 17.9918 20.1576 17.8518 20.8296 17.5438C20.9556 17.4878 21.0396 17.4598 21.1796 17.8098L21.2496 17.9778C21.4036 18.3418 21.3896 18.4258 21.2776 18.4958C20.5636 18.9158 19.6816 19.1398 18.7436 19.1398ZM16.6716 14.7158H20.4096C20.3956 13.6658 19.8636 12.6158 18.6876 12.6158C17.6656 12.6158 16.8676 13.2738 16.6716 14.7158Z" fill="white"/>
<g clip-path="url(#clip0_2773_1229)">
<path d="M123.568 18.9998C123.148 18.9998 123.106 18.9718 123.106 18.8318V9.07375C123.106 8.94775 123.19 8.91975 123.694 8.91975H123.834C124.338 8.91975 124.45 8.93375 124.45 9.07375V17.9218H128.832C128.958 17.9218 129 17.9638 129 18.4118V18.4818C129 18.9298 128.958 18.9998 128.832 18.9998H123.568ZM131.186 10.2218C130.696 10.2218 130.304 9.82975 130.304 9.33975C130.304 8.84975 130.696 8.45775 131.186 8.45775C131.676 8.45775 132.068 8.84975 132.068 9.33975C132.068 9.82975 131.676 10.2218 131.186 10.2218ZM131.158 18.9998C130.598 18.9998 130.556 18.9438 130.556 18.8318V11.7758C130.556 11.6638 130.598 11.6078 131.158 11.6078H131.242C131.802 11.6078 131.816 11.6778 131.816 11.7758V18.8318C131.816 18.9298 131.802 18.9998 131.242 18.9998H131.158ZM136.495 19.1398C135.417 19.1398 134.591 18.9438 133.947 18.6498C133.919 18.6358 133.905 18.5658 133.905 18.5098V8.52775C133.905 8.41575 133.947 8.35975 134.507 8.35975H134.591C135.151 8.35975 135.165 8.42975 135.165 8.52775V12.2938C135.571 11.8178 136.425 11.4678 137.251 11.4678C138.371 11.4678 139.211 12.0558 139.659 13.0078C139.925 13.5818 140.079 14.3098 140.079 15.1078C140.079 17.5858 138.861 19.1398 136.495 19.1398ZM136.383 18.0478C137.979 18.0478 138.763 16.8858 138.763 15.2058C138.763 13.5258 138.161 12.6578 136.971 12.6578C136.453 12.6578 135.907 12.8538 135.585 13.1758C135.417 13.3438 135.263 13.5818 135.207 14.1838C135.179 14.5758 135.165 15.2618 135.165 16.0738V17.8098C135.515 17.9498 135.977 18.0478 136.383 18.0478ZM144.763 19.1398C142.495 19.1398 141.333 17.7258 141.333 15.4718C141.333 13.1198 142.621 11.4678 144.693 11.4678C145.939 11.4678 146.793 12.0838 147.255 13.0078C147.577 13.6518 147.717 14.4218 147.717 15.2478C147.717 15.6678 147.689 15.7518 147.577 15.7518H142.649C142.691 16.5218 142.915 17.1238 143.349 17.4878C143.727 17.8238 144.273 17.9918 145.001 17.9918C145.589 17.9918 146.177 17.8518 146.849 17.5438C146.975 17.4878 147.059 17.4598 147.199 17.8098L147.269 17.9778C147.423 18.3418 147.409 18.4258 147.297 18.4958C146.583 18.9158 145.701 19.1398 144.763 19.1398ZM142.691 14.7158H146.429C146.415 13.6658 145.883 12.6158 144.707 12.6158C143.685 12.6158 142.887 13.2738 142.691 14.7158ZM149.998 18.9998C149.438 18.9998 149.396 18.9438 149.396 18.8318V14.0578C149.396 13.1058 149.368 12.1258 149.368 11.7758C149.368 11.6638 149.41 11.6078 149.942 11.6078H150.012C150.516 11.6078 150.586 11.6498 150.586 11.7758L150.614 13.2178C151.146 12.0418 151.916 11.5238 152.658 11.5238C152.784 11.5238 152.882 11.5378 152.952 11.5518C153.078 11.5798 153.092 11.6218 153.092 11.9438V12.1538C153.092 12.5598 153.078 12.6718 152.938 12.6718C151.944 12.6718 151.44 13.2878 151.034 13.9458C150.838 14.2678 150.726 14.6598 150.698 15.1498C150.67 15.5418 150.656 16.4098 150.656 17.2218V18.8318C150.656 18.9298 150.642 18.9998 150.082 18.9998H149.998ZM156.757 19.1398C154.909 19.1398 153.761 17.7538 153.761 15.4578C153.761 13.3578 154.853 11.4678 157.163 11.4678C157.737 11.4678 158.395 11.6918 158.745 11.9298V8.54175C158.745 8.40175 158.871 8.35975 159.347 8.35975H159.431C159.879 8.35975 160.005 8.40175 160.005 8.54175V17.2498C160.005 17.9498 160.117 18.0058 160.495 18.0058C160.579 18.0058 160.621 18.0898 160.621 18.3838V18.4818C160.621 18.8178 160.579 18.9158 160.495 18.9438C160.299 19.0138 160.117 19.0278 159.879 19.0278C159.459 19.0278 159.081 18.7618 158.913 18.2158H158.899C158.549 18.6918 157.765 19.1398 156.757 19.1398ZM157.009 18.0198C157.485 18.0198 158.017 17.8658 158.339 17.5438C158.661 17.2218 158.745 16.7598 158.745 15.5838V13.1338C158.395 12.8398 157.793 12.6158 157.233 12.6158C155.917 12.6158 155.077 13.7218 155.077 15.4158C155.077 17.1378 155.917 18.0198 157.009 18.0198ZM164.878 19.1398C162.834 19.1398 161.882 17.4458 161.882 15.4298C161.882 13.0358 163.254 11.4678 165.102 11.4678C165.942 11.4678 166.6 11.8598 166.992 12.3638L167.062 11.7758C167.076 11.6078 167.146 11.6078 167.566 11.6078H167.594C168.126 11.6078 168.14 11.6638 168.14 11.7758C168.14 12.1118 168.112 13.0078 168.112 13.9038V15.8638C168.112 17.1518 168.168 18.0618 168.21 18.8318C168.21 18.9438 168.14 18.9998 167.706 18.9998H167.65C167.216 18.9998 167.132 18.9578 167.118 18.8318L167.034 18.1878C166.586 18.7338 165.788 19.1398 164.878 19.1398ZM165.102 18.0198C165.564 18.0198 166.124 17.8798 166.502 17.4738C166.796 17.1518 166.852 16.7598 166.852 15.5418V13.5538C166.53 13.0498 165.9 12.6018 165.242 12.6018C163.954 12.6018 163.198 13.6798 163.198 15.3598C163.198 16.6758 163.66 18.0198 165.102 18.0198ZM172.821 19.1398C170.973 19.1398 169.825 17.7538 169.825 15.4578C169.825 13.3578 170.917 11.4678 173.227 11.4678C173.801 11.4678 174.459 11.6918 174.809 11.9298V8.54175C174.809 8.40175 174.935 8.35975 175.411 8.35975H175.495C175.943 8.35975 176.069 8.40175 176.069 8.54175V17.2498C176.069 17.9498 176.181 18.0058 176.559 18.0058C176.643 18.0058 176.685 18.0898 176.685 18.3838V18.4818C176.685 18.8178 176.643 18.9158 176.559 18.9438C176.363 19.0138 176.181 19.0278 175.943 19.0278C175.523 19.0278 175.145 18.7618 174.977 18.2158H174.963C174.613 18.6918 173.829 19.1398 172.821 19.1398ZM173.073 18.0198C173.549 18.0198 174.081 17.8658 174.403 17.5438C174.725 17.2218 174.809 16.7598 174.809 15.5838V13.1338C174.459 12.8398 173.857 12.6158 173.297 12.6158C171.981 12.6158 171.141 13.7218 171.141 15.4158C171.141 17.1378 171.981 18.0198 173.073 18.0198ZM181.376 19.1398C179.108 19.1398 177.946 17.7258 177.946 15.4718C177.946 13.1198 179.234 11.4678 181.306 11.4678C182.552 11.4678 183.406 12.0838 183.868 13.0078C184.19 13.6518 184.33 14.4218 184.33 15.2478C184.33 15.6678 184.302 15.7518 184.19 15.7518H179.262C179.304 16.5218 179.528 17.1238 179.962 17.4878C180.34 17.8238 180.886 17.9918 181.614 17.9918C182.202 17.9918 182.79 17.8518 183.462 17.5438C183.588 17.4878 183.672 17.4598 183.812 17.8098L183.882 17.9778C184.036 18.3418 184.022 18.4258 183.91 18.4958C183.196 18.9158 182.314 19.1398 181.376 19.1398ZM179.304 14.7158H183.042C183.028 13.6658 182.496 12.6158 181.32 12.6158C180.298 12.6158 179.5 13.2738 179.304 14.7158ZM192.73 11.4678C194.578 11.4678 195.712 12.8538 195.712 15.1498C195.712 17.2498 194.606 19.1258 192.296 19.1258C191.75 19.1258 191.12 18.9298 190.77 18.6918V22.0658C190.77 22.2058 190.644 22.2478 190.168 22.2478H190.084C189.636 22.2478 189.51 22.2058 189.51 22.0658V14.0578C189.51 13.1058 189.482 12.1258 189.482 11.7758C189.482 11.6638 189.524 11.6078 190.056 11.6078H190.112C190.616 11.6078 190.7 11.6498 190.7 11.7758L190.714 12.3918C191.148 11.8458 191.974 11.4678 192.73 11.4678ZM192.226 17.9918C193.542 17.9918 194.396 16.8858 194.396 15.1918C194.396 13.4978 193.612 12.6018 192.52 12.6018C191.96 12.6018 191.316 12.8538 191.036 13.2178C190.784 13.5398 190.77 13.9038 190.77 15.2898V17.4598C191.12 17.7538 191.666 17.9918 192.226 17.9918ZM199.974 19.1398C197.93 19.1398 196.978 17.4458 196.978 15.4298C196.978 13.0358 198.35 11.4678 200.198 11.4678C201.038 11.4678 201.696 11.8598 202.088 12.3638L202.158 11.7758C202.172 11.6078 202.242 11.6078 202.662 11.6078H202.69C203.222 11.6078 203.236 11.6638 203.236 11.7758C203.236 12.1118 203.208 13.0078 203.208 13.9038V15.8638C203.208 17.1518 203.264 18.0618 203.306 18.8318C203.306 18.9438 203.236 18.9998 202.802 18.9998H202.746C202.312 18.9998 202.228 18.9578 202.214 18.8318L202.13 18.1878C201.682 18.7338 200.884 19.1398 199.974 19.1398ZM200.198 18.0198C200.66 18.0198 201.22 17.8798 201.598 17.4738C201.892 17.1518 201.948 16.7598 201.948 15.5418V13.5538C201.626 13.0498 200.996 12.6018 200.338 12.6018C199.05 12.6018 198.294 13.6798 198.294 15.3598C198.294 16.6758 198.756 18.0198 200.198 18.0198ZM205.971 18.9998C205.411 18.9998 205.369 18.9438 205.369 18.8318V14.0578C205.369 13.1058 205.341 12.1258 205.341 11.7758C205.341 11.6638 205.383 11.6078 205.915 11.6078H205.985C206.489 11.6078 206.559 11.6498 206.559 11.7758L206.587 13.2178C207.119 12.0418 207.889 11.5238 208.631 11.5238C208.757 11.5238 208.855 11.5378 208.925 11.5518C209.051 11.5798 209.065 11.6218 209.065 11.9438V12.1538C209.065 12.5598 209.051 12.6718 208.911 12.6718C207.917 12.6718 207.413 13.2878 207.007 13.9458C206.811 14.2678 206.699 14.6598 206.671 15.1498C206.643 15.5418 206.629 16.4098 206.629 17.2218V18.8318C206.629 18.9298 206.615 18.9998 206.055 18.9998H205.971ZM212.73 19.1398C210.686 19.1398 209.734 17.4458 209.734 15.4298C209.734 13.0358 211.106 11.4678 212.954 11.4678C213.794 11.4678 214.452 11.8598 214.844 12.3638L214.914 11.7758C214.928 11.6078 214.998 11.6078 215.418 11.6078H215.446C215.978 11.6078 215.992 11.6638 215.992 11.7758C215.992 12.1118 215.964 13.0078 215.964 13.9038V15.8638C215.964 17.1518 216.02 18.0618 216.062 18.8318C216.062 18.9438 215.992 18.9998 215.558 18.9998H215.502C215.068 18.9998 214.984 18.9578 214.97 18.8318L214.886 18.1878C214.438 18.7338 213.64 19.1398 212.73 19.1398ZM212.954 18.0198C213.416 18.0198 213.976 17.8798 214.354 17.4738C214.648 17.1518 214.704 16.7598 214.704 15.5418V13.5538C214.382 13.0498 213.752 12.6018 213.094 12.6018C211.806 12.6018 211.05 13.6798 211.05 15.3598C211.05 16.6758 211.512 18.0198 212.954 18.0198ZM224.607 19.1398C222.339 19.1398 221.177 17.7258 221.177 15.4718C221.177 13.1198 222.465 11.4678 224.537 11.4678C225.783 11.4678 226.637 12.0838 227.099 13.0078C227.421 13.6518 227.561 14.4218 227.561 15.2478C227.561 15.6678 227.533 15.7518 227.421 15.7518H222.493C222.535 16.5218 222.759 17.1238 223.193 17.4878C223.571 17.8238 224.117 17.9918 224.845 17.9918C225.433 17.9918 226.021 17.8518 226.693 17.5438C226.819 17.4878 226.903 17.4598 227.043 17.8098L227.113 17.9778C227.267 18.3418 227.253 18.4258 227.141 18.4958C226.427 18.9158 225.545 19.1398 224.607 19.1398ZM222.535 14.7158H226.273C226.259 13.6658 225.727 12.6158 224.551 12.6158C223.529 12.6158 222.731 13.2738 222.535 14.7158ZM231.158 19.1398C230.262 19.1398 229.394 18.8178 228.862 18.4398C228.722 18.3418 228.764 18.2578 228.918 17.9358L228.988 17.7818C229.17 17.3898 229.226 17.3758 229.408 17.4878C229.94 17.7958 230.612 18.0478 231.228 18.0478C231.872 18.0478 232.768 17.7258 232.768 16.9138C232.768 16.1578 231.872 15.9058 231.158 15.7518C230.416 15.5838 229.87 15.3878 229.492 15.0378C229.142 14.7158 228.932 14.2258 228.932 13.6798C228.932 12.3078 230.122 11.4678 231.522 11.4678C232.404 11.4678 233.216 11.7758 233.734 12.2378C233.846 12.3358 233.874 12.4618 233.678 12.7418L233.58 12.8818C233.328 13.2458 233.258 13.2458 233.16 13.1618C232.642 12.7978 232.152 12.5458 231.536 12.5458C230.962 12.5458 230.136 12.7698 230.136 13.5398C230.136 14.2958 230.92 14.4918 231.592 14.6598C232.74 14.9538 233.958 15.3738 233.958 16.8298C233.958 18.3278 232.698 19.1398 231.158 19.1398ZM238.41 19.1398C236.268 19.1398 235.204 17.5018 235.204 15.4158C235.204 12.8538 236.702 11.4678 238.648 11.4678C239.53 11.4678 240.314 11.7758 240.902 12.1958C241.014 12.2798 241.014 12.3778 240.818 12.8398C240.608 13.3158 240.468 13.2738 240.37 13.2038C239.852 12.8538 239.278 12.6158 238.718 12.6158C237.416 12.6158 236.52 13.5958 236.52 15.3318C236.52 16.6758 237.066 17.9918 238.578 17.9918C239.166 17.9918 239.81 17.8238 240.356 17.5578C240.468 17.5018 240.608 17.5438 240.72 17.8378L240.79 18.0198C240.93 18.3558 240.888 18.4538 240.79 18.5098C240.09 18.9018 239.278 19.1398 238.41 19.1398ZM245.232 19.1398C244.378 19.1398 243.664 18.9158 243.132 18.4398C242.432 17.8238 242.026 16.7878 242.026 15.4718C242.026 12.8258 243.412 11.4678 245.512 11.4678C246.366 11.4678 247.08 11.6918 247.612 12.1678C248.312 12.7838 248.718 13.8198 248.718 15.1358C248.718 17.7818 247.332 19.1398 245.232 19.1398ZM245.288 18.0198C246.408 18.0198 247.402 17.2358 247.402 15.2338C247.402 13.9738 246.982 12.5878 245.456 12.5878C244.336 12.5878 243.342 13.3718 243.342 15.3738C243.342 16.6338 243.762 18.0198 245.288 18.0198ZM251.636 19.0138C251.244 19.0138 250.852 18.9158 250.6 18.5378C250.418 18.2718 250.362 17.8098 250.362 17.0678V12.3778C250.362 10.9078 250.348 9.08776 250.278 8.54175C250.264 8.40175 250.404 8.35975 250.88 8.35975H250.964C251.412 8.35975 251.51 8.40175 251.538 8.54175C251.608 8.93375 251.622 10.6138 251.622 12.6858V17.3338C251.622 17.8518 251.692 18.0338 252.154 18.0338H252.294C252.364 18.0338 252.378 18.0898 252.378 18.4118V18.4538C252.378 18.8178 252.378 18.8738 252.294 18.9018C252.098 18.9718 251.846 19.0138 251.636 19.0138ZM254.602 18.9998C254.042 18.9998 254 18.9438 254 18.8318V8.52775C254 8.42975 254.014 8.35975 254.574 8.35975H254.658C255.218 8.35975 255.26 8.41575 255.26 8.52775V12.3638C255.75 11.8178 256.66 11.4678 257.5 11.4678C258.27 11.4678 258.956 11.7338 259.418 12.2098C259.922 12.7278 260.132 13.4558 260.132 14.5898V18.8318C260.132 18.9298 260.118 18.9998 259.558 18.9998H259.474C258.914 18.9998 258.872 18.9438 258.872 18.8318V15.1778C258.872 14.0438 258.83 13.5118 258.494 13.1198C258.228 12.7978 257.78 12.6578 257.164 12.6578C256.646 12.6578 256.016 12.8398 255.68 13.1618C255.512 13.3158 255.358 13.5538 255.302 14.1558C255.274 14.5478 255.26 15.2618 255.26 16.0738V18.8318C255.26 18.9298 255.246 18.9998 254.686 18.9998H254.602ZM265.171 19.1398C262.903 19.1398 261.741 17.7258 261.741 15.4718C261.741 13.1198 263.029 11.4678 265.101 11.4678C266.347 11.4678 267.201 12.0838 267.663 13.0078C267.985 13.6518 268.125 14.4218 268.125 15.2478C268.125 15.6678 268.097 15.7518 267.985 15.7518H263.057C263.099 16.5218 263.323 17.1238 263.757 17.4878C264.135 17.8238 264.681 17.9918 265.409 17.9918C265.997 17.9918 266.585 17.8518 267.257 17.5438C267.383 17.4878 267.467 17.4598 267.607 17.8098L267.677 17.9778C267.831 18.3418 267.817 18.4258 267.705 18.4958C266.991 18.9158 266.109 19.1398 265.171 19.1398ZM263.099 14.7158H266.837C266.823 13.6658 266.291 12.6158 265.115 12.6158C264.093 12.6158 263.295 13.2738 263.099 14.7158ZM270.407 18.9998C269.847 18.9998 269.805 18.9438 269.805 18.8318V14.0578C269.805 13.1058 269.777 12.1258 269.777 11.7758C269.777 11.6638 269.819 11.6078 270.351 11.6078H270.421C270.925 11.6078 270.995 11.6498 270.995 11.7758L271.023 13.2178C271.555 12.0418 272.325 11.5238 273.067 11.5238C273.193 11.5238 273.291 11.5378 273.361 11.5518C273.487 11.5798 273.501 11.6218 273.501 11.9438V12.1538C273.501 12.5598 273.487 12.6718 273.347 12.6718C272.353 12.6718 271.849 13.2878 271.443 13.9458C271.247 14.2678 271.135 14.6598 271.107 15.1498C271.079 15.5418 271.065 16.4098 271.065 17.2218V18.8318C271.065 18.9298 271.051 18.9998 270.491 18.9998H270.407ZM275.494 13.9178C274.976 13.9178 274.556 13.4978 274.556 12.9798C274.556 12.4618 274.976 12.0418 275.494 12.0418C276.012 12.0418 276.432 12.4618 276.432 12.9798C276.432 13.4978 276.012 13.9178 275.494 13.9178ZM275.494 19.1398C274.976 19.1398 274.556 18.7198 274.556 18.2018C274.556 17.6838 274.976 17.2638 275.494 17.2638C276.012 17.2638 276.432 17.6838 276.432 18.2018C276.432 18.7198 276.012 19.1398 275.494 19.1398Z" fill="white"/>
<circle cx="187" cy="44.52" r="11" fill="#1A98FF"/>
<g clip-path="url(#clip1_2773_1229)">
<path d="M181.21 43.0658C181.326 42.784 181.52 42.6145 181.831 42.599C182.172 42.5822 182.383 42.7604 182.51 43.0693C182.546 42.981 182.588 42.904 182.646 42.838C182.81 42.655 183.017 42.5848 183.256 42.6019C183.438 42.6148 183.596 42.6857 183.723 42.8216C183.833 42.9399 183.874 43.0852 183.888 43.2414C183.899 43.355 183.895 43.4685 183.895 43.5821C183.894 43.8302 183.895 44.0783 183.895 44.3264C183.894 44.6428 183.892 44.9595 183.891 45.2758C183.891 45.346 183.857 45.381 183.787 45.381C183.63 45.381 183.474 45.381 183.317 45.381C183.249 45.381 183.214 45.346 183.214 45.2787C183.214 44.7942 183.213 44.3096 183.214 43.825C183.214 43.7127 183.219 43.5999 183.203 43.4886C183.17 43.2699 182.963 43.1699 182.768 43.276C182.655 43.3372 182.603 43.4381 182.585 43.5607C182.574 43.6335 182.569 43.7069 182.569 43.7807C182.569 44.2743 182.569 44.768 182.569 45.2616C182.569 45.3476 182.535 45.381 182.45 45.381C182.298 45.381 182.147 45.381 181.995 45.381C181.924 45.381 181.889 45.3457 181.889 45.2739C181.889 44.757 181.889 44.24 181.889 43.7231C181.889 43.6312 181.884 43.5397 181.859 43.4507C181.82 43.3123 181.738 43.2421 181.607 43.234C181.462 43.2249 181.357 43.2874 181.302 43.4161C181.251 43.5352 181.244 43.662 181.243 43.7884C181.242 44.2795 181.243 44.7705 181.243 45.2616C181.243 45.3496 181.212 45.3806 181.125 45.381C180.973 45.381 180.821 45.381 180.67 45.381C180.598 45.381 180.562 45.3457 180.562 45.2749C180.562 44.4361 180.562 43.5976 180.562 42.7588C180.562 42.688 180.599 42.652 180.67 42.652C180.815 42.652 180.96 42.6517 181.106 42.652C181.174 42.652 181.21 42.6892 181.21 42.7575C181.21 42.86 181.21 42.9629 181.21 43.0655L181.21 43.0658Z" fill="white"/>
<path d="M186.478 43.9481C186.478 44.1461 186.479 44.3023 186.477 44.4586C186.476 44.5886 186.514 44.7051 186.588 44.8102C186.614 44.8458 186.641 44.8804 186.665 44.917C186.704 44.9762 186.697 45.0159 186.644 45.0616C186.527 45.1625 186.41 45.2634 186.293 45.3647C186.239 45.4119 186.19 45.4119 186.135 45.365C186.041 45.2851 185.964 45.19 185.898 45.0865C185.883 45.0622 185.874 45.0612 185.854 45.0816C185.736 45.2 185.61 45.3087 185.448 45.3614C185.239 45.4297 185.027 45.4416 184.814 45.3815C184.595 45.319 184.444 45.177 184.373 44.959C184.288 44.696 184.3 44.4366 184.435 44.1914C184.557 43.9711 184.755 43.8478 184.989 43.7773C185.184 43.7191 185.384 43.6974 185.584 43.6761C185.641 43.6702 185.697 43.6644 185.753 43.6596C185.773 43.658 185.78 43.6499 185.781 43.6308C185.782 43.5299 185.784 43.4293 185.761 43.3303C185.741 43.2436 185.69 43.1834 185.612 43.1436C185.468 43.0702 185.26 43.1016 185.145 43.2141C185.097 43.2614 185.064 43.317 185.051 43.384C185.047 43.4066 185.04 43.4293 185.027 43.449C185.006 43.4794 184.981 43.4969 184.94 43.492C184.789 43.4742 184.638 43.4593 184.488 43.4432C184.427 43.4364 184.393 43.3901 184.406 43.3274C184.465 43.0382 184.624 42.8269 184.891 42.7014C185.127 42.5901 185.378 42.561 185.635 42.5811C185.795 42.5934 185.949 42.6309 186.093 42.7056C186.319 42.8237 186.439 43.0136 186.465 43.2659C186.489 43.5069 186.472 43.7485 186.477 43.9484L186.478 43.9481ZM185.78 44.2477C185.78 44.1817 185.778 44.1338 185.78 44.0862C185.781 44.063 185.775 44.0549 185.75 44.0555C185.628 44.0581 185.507 44.0675 185.389 44.1037C185.233 44.1516 185.112 44.2389 185.066 44.4052C185.042 44.4887 185.038 44.5734 185.056 44.6582C185.102 44.8927 185.331 44.9888 185.532 44.859C185.619 44.8028 185.676 44.7216 185.718 44.6278C185.774 44.5006 185.781 44.3657 185.78 44.2477Z" fill="white"/>
<path d="M179.99 43.8879C179.99 44.0975 179.992 44.268 179.99 44.4388C179.988 44.585 180.03 44.7157 180.118 44.8318C180.141 44.8616 180.164 44.891 180.184 44.9227C180.218 44.9771 180.21 45.0165 180.162 45.0586C180.045 45.1598 179.928 45.2608 179.811 45.362C179.752 45.4131 179.707 45.4144 179.647 45.3633C179.555 45.2847 179.48 45.1922 179.415 45.0903C179.399 45.0647 179.39 45.0592 179.366 45.0838C179.29 45.1615 179.208 45.2317 179.116 45.2892C178.934 45.4018 178.733 45.4235 178.526 45.4157C178.431 45.4122 178.34 45.3931 178.253 45.3559C178.078 45.2812 177.955 45.154 177.892 44.9745C177.812 44.7445 177.813 44.5122 177.904 44.2855C178.002 44.0396 178.191 43.8889 178.434 43.8009C178.604 43.7398 178.78 43.7132 178.957 43.6925C179.059 43.6806 179.162 43.6708 179.264 43.6602C179.281 43.6582 179.296 43.6576 179.296 43.6324C179.298 43.5366 179.297 43.4415 179.279 43.3467C179.26 43.2455 179.202 43.1772 179.11 43.1361C178.954 43.0656 178.742 43.1132 178.634 43.2419C178.596 43.2865 178.574 43.3377 178.562 43.3943C178.546 43.4716 178.513 43.4975 178.436 43.4897C178.29 43.4751 178.145 43.459 177.999 43.4425C177.943 43.436 177.91 43.392 177.921 43.3354C177.977 43.0326 178.145 42.8126 178.427 42.693C178.788 42.5396 179.158 42.5277 179.527 42.669C179.812 42.7784 179.96 42.9944 179.983 43.2998C179.999 43.5088 179.985 43.7181 179.99 43.8882V43.8879ZM179.295 44.2198C179.295 44.1758 179.294 44.1318 179.296 44.0881C179.297 44.0626 179.288 44.0551 179.263 44.0558C179.161 44.0584 179.06 44.0658 178.961 44.0885C178.86 44.1118 178.763 44.1486 178.688 44.223C178.568 44.3414 178.544 44.4902 178.57 44.6487C178.61 44.891 178.843 44.9916 179.048 44.8574C179.157 44.7865 179.219 44.6811 179.258 44.5601C179.293 44.4492 179.296 44.3343 179.295 44.2195L179.295 44.2198Z" fill="white"/>
<path d="M192.437 43.1148C192.46 43.0666 192.478 43.0249 192.499 42.9842C192.571 42.8434 192.666 42.7228 192.814 42.6571C193.049 42.5529 193.424 42.5753 193.629 42.8124C193.727 42.9262 193.772 43.0605 193.796 43.2051C193.819 43.3471 193.822 43.4904 193.822 43.6337C193.822 44.1775 193.822 44.7216 193.822 45.2654C193.822 45.3501 193.79 45.3812 193.705 45.3812C193.553 45.3812 193.401 45.3812 193.25 45.3812C193.175 45.3812 193.141 45.3466 193.141 45.2725C193.141 44.7556 193.141 44.2389 193.141 43.722C193.141 43.6272 193.13 43.5344 193.105 43.4425C193.032 43.1695 192.753 43.1873 192.624 43.3228C192.545 43.4053 192.514 43.5072 192.492 43.6143C192.472 43.712 192.468 43.8116 192.468 43.9109C192.468 44.3632 192.468 44.8154 192.468 45.2676C192.468 45.3478 192.436 45.3808 192.357 45.3808C192.202 45.3808 192.048 45.3808 191.894 45.3808C191.824 45.3808 191.789 45.3456 191.789 45.2767C191.789 44.4369 191.789 43.5972 191.789 42.7574C191.789 42.6885 191.824 42.6523 191.893 42.6519C192.037 42.6516 192.181 42.6516 192.325 42.6519C192.399 42.6519 192.431 42.6843 192.431 42.7571C192.431 42.8706 192.431 42.9845 192.431 43.098C192.431 43.1003 192.432 43.1025 192.436 43.1145L192.437 43.1148Z" fill="white"/>
<path d="M191.421 44.1087C191.42 44.3354 191.364 44.624 191.211 44.887C191.051 45.1616 190.823 45.3489 190.507 45.4136C190.024 45.5119 189.583 45.2968 189.36 44.8556C189.249 44.6382 189.196 44.4066 189.18 44.1643C189.162 43.8935 189.187 43.6283 189.275 43.3708C189.361 43.1217 189.498 42.9092 189.721 42.7617C189.922 42.6287 190.146 42.5825 190.383 42.6035C190.861 42.6459 191.149 42.9273 191.311 43.3614C191.392 43.5778 191.421 43.8036 191.421 44.1087H191.421ZM190.689 44.0356C190.689 43.9039 190.687 43.7722 190.67 43.6412C190.657 43.5283 190.637 43.4171 190.594 43.3106C190.498 43.0719 190.163 43.07 190.043 43.2453C189.979 43.3394 189.945 43.4442 189.931 43.5549C189.892 43.8573 189.895 44.1601 189.939 44.4619C189.955 44.5748 189.985 44.6845 190.052 44.7796C190.159 44.9316 190.368 44.9526 190.504 44.8258C190.571 44.7631 190.607 44.6822 190.633 44.5958C190.687 44.4127 190.688 44.2238 190.689 44.0356Z" fill="white"/>
<path d="M184.43 47.4161C183.302 47.4125 182.348 47.1884 181.451 46.7287C180.975 46.4845 180.538 46.1814 180.14 45.8226C180.124 45.8081 180.107 45.7938 180.097 45.7738C180.082 45.745 180.08 45.7162 180.101 45.69C180.121 45.6644 180.149 45.6576 180.181 45.6648C180.2 45.669 180.217 45.678 180.233 45.6877C180.996 46.1299 181.811 46.4343 182.672 46.6161C183.025 46.6909 183.382 46.7423 183.742 46.7717C184.013 46.7937 184.283 46.8044 184.555 46.7989C184.867 46.7924 185.178 46.7678 185.488 46.7251C186.111 46.6397 186.717 46.4877 187.306 46.2661C187.409 46.2273 187.511 46.1843 187.614 46.1429C187.661 46.1238 187.708 46.118 187.755 46.1413C187.825 46.1755 187.845 46.2542 187.799 46.3172C187.783 46.3392 187.762 46.3567 187.74 46.3725C187.326 46.675 186.87 46.895 186.388 47.0622C185.968 47.2081 185.537 47.3077 185.096 47.365C184.835 47.399 184.572 47.419 184.43 47.4164V47.4161Z" fill="white"/>
<path d="M188.011 43.1966C187.737 43.1966 187.466 43.1966 187.194 43.1966C187.105 43.1966 187.076 43.1671 187.076 43.0788C187.076 42.9701 187.076 42.8618 187.076 42.7531C187.076 42.6806 187.11 42.646 187.182 42.646C187.716 42.646 188.249 42.646 188.783 42.646C188.855 42.646 188.889 42.68 188.889 42.7527C188.889 42.8381 188.887 42.9235 188.89 43.0086C188.892 43.0685 188.877 43.1209 188.844 43.1687C188.765 43.2836 188.686 43.3984 188.607 43.5126C188.389 43.8257 188.17 44.1385 187.952 44.4517C187.945 44.4617 187.934 44.4704 187.934 44.4902C187.988 44.4902 188.041 44.4882 188.095 44.4905C188.357 44.5021 188.608 44.5555 188.842 44.6826C188.906 44.7179 188.938 44.7703 188.939 44.8418C188.94 44.9657 188.94 45.0899 188.939 45.2138C188.938 45.2947 188.874 45.3341 188.805 45.2989C188.564 45.1756 188.309 45.1109 188.039 45.0993C187.711 45.0854 187.401 45.152 187.11 45.3037C187.054 45.3332 186.986 45.2973 186.985 45.231C186.984 45.0747 186.977 44.9185 186.989 44.7622C186.994 44.6979 187.017 44.6396 187.054 44.5866C187.366 44.1366 187.679 43.6863 187.991 43.236C187.998 43.2247 188.01 43.2157 188.011 43.1959V43.1966Z" fill="white"/>
<path d="M192.827 47.0997C192.827 46.8839 192.827 46.6682 192.827 46.4524C192.827 46.3686 192.841 46.3547 192.923 46.3547C192.982 46.3547 193.041 46.3547 193.1 46.3547C193.16 46.3547 193.179 46.3693 193.196 46.4282C193.216 46.4958 193.216 46.4961 193.275 46.4599C193.436 46.3599 193.607 46.2984 193.8 46.3127C193.925 46.3221 194.033 46.366 194.105 46.4754C194.121 46.5 194.132 46.4883 194.148 46.4783C194.261 46.4058 194.381 46.3476 194.515 46.3246C194.624 46.3059 194.733 46.301 194.839 46.3356C194.984 46.3829 195.081 46.51 195.093 46.6682C195.096 46.7106 195.098 46.7533 195.098 46.796C195.098 47.1152 195.098 47.4342 195.098 47.7535C195.098 47.769 195.097 47.7845 195.095 47.7997C195.091 47.8318 195.073 47.8486 195.041 47.8489C194.937 47.8495 194.833 47.8495 194.729 47.8489C194.697 47.8489 194.678 47.8311 194.673 47.8004C194.671 47.7865 194.67 47.7722 194.67 47.758C194.67 47.4581 194.67 47.1586 194.67 46.8587C194.67 46.8445 194.67 46.8302 194.669 46.816C194.664 46.6966 194.601 46.6368 194.482 46.64C194.387 46.6426 194.297 46.6653 194.209 46.7015C194.184 46.7119 194.176 46.7258 194.176 46.7529C194.177 47.0887 194.176 47.4248 194.176 47.7606C194.176 47.8389 194.166 47.8489 194.087 47.8489C194.002 47.8489 193.917 47.8489 193.832 47.8489C193.768 47.8489 193.75 47.8314 193.75 47.7658C193.75 47.5189 193.75 47.2721 193.75 47.0253C193.75 46.9593 193.751 46.8936 193.75 46.8277C193.749 46.6979 193.68 46.632 193.551 46.6397C193.461 46.6452 193.374 46.6659 193.29 46.7018C193.264 46.7131 193.255 46.7274 193.255 46.7565C193.256 47.091 193.256 47.4258 193.256 47.7603C193.256 47.835 193.242 47.8489 193.169 47.8489C193.082 47.8489 192.994 47.8489 192.907 47.8489C192.847 47.8489 192.829 47.8308 192.828 47.77C192.828 47.6461 192.828 47.5219 192.828 47.398C192.828 47.2983 192.828 47.199 192.828 47.0994L192.827 47.0997Z" fill="white"/>
<path d="M189.57 47.7493C189.56 47.7641 189.565 47.7787 189.565 47.792C189.564 47.9818 189.565 48.1717 189.565 48.3616C189.565 48.4392 189.551 48.4525 189.476 48.4525C189.388 48.4525 189.301 48.4525 189.214 48.4525C189.156 48.4525 189.137 48.4334 189.137 48.3758C189.137 47.7273 189.137 47.079 189.137 46.4304C189.137 46.3754 189.157 46.3554 189.211 46.3547C189.279 46.3537 189.347 46.3541 189.415 46.3547C189.468 46.355 189.49 46.3725 189.504 46.4226C189.51 46.4446 189.516 46.4666 189.523 46.4915C189.628 46.3981 189.747 46.3405 189.882 46.3191C190.176 46.2729 190.421 46.4049 190.526 46.684C190.635 46.9735 190.632 47.2673 190.494 47.548C190.295 47.9505 189.863 47.9475 189.604 47.7735C189.593 47.7658 189.582 47.7577 189.57 47.7496V47.7493ZM189.564 47.0958C189.564 47.2107 189.566 47.3258 189.563 47.4406C189.563 47.4733 189.575 47.4888 189.602 47.5024C189.676 47.5387 189.754 47.5578 189.836 47.5594C190.001 47.5629 190.1 47.4876 190.139 47.3258C190.175 47.1767 190.174 47.0259 190.142 46.8765C190.11 46.7303 190.029 46.652 189.908 46.6384C189.797 46.6261 189.693 46.6462 189.594 46.696C189.571 46.7076 189.563 46.7212 189.564 46.7468C189.565 46.8629 189.564 46.9794 189.564 47.0955V47.0958Z" fill="white"/>
<path d="M196.106 46.3116C196.224 46.3103 196.338 46.3284 196.445 46.3841C196.738 46.5364 196.732 46.9149 196.591 47.065C196.516 47.1446 196.423 47.1876 196.32 47.2106C196.141 47.2504 195.96 47.2516 195.781 47.2157C195.748 47.2093 195.746 47.2193 195.75 47.2455C195.776 47.4503 195.895 47.558 196.102 47.5693C196.246 47.5771 196.387 47.5564 196.525 47.5192C196.536 47.5163 196.548 47.513 196.559 47.5114C196.595 47.5059 196.619 47.5211 196.62 47.5573C196.622 47.6204 196.622 47.6838 196.62 47.7472C196.618 47.7828 196.591 47.8 196.561 47.8116C196.472 47.8462 196.38 47.8705 196.286 47.8828C196.141 47.9018 195.996 47.9022 195.853 47.865C195.602 47.7996 195.445 47.6376 195.387 47.3856C195.333 47.1527 195.34 46.9204 195.441 46.6998C195.544 46.4756 195.726 46.354 195.967 46.3197C196.013 46.3132 196.059 46.3113 196.106 46.3113V46.3116ZM195.973 46.9728C196.027 46.9722 196.081 46.977 196.134 46.9634C196.186 46.9502 196.238 46.9353 196.267 46.8826C196.328 46.7716 196.28 46.6542 196.159 46.6196C195.999 46.5736 195.851 46.6451 195.789 46.7994C195.773 46.8402 195.766 46.8835 195.754 46.9259C195.748 46.9485 195.753 46.9515 195.772 46.9557C195.839 46.9702 195.906 46.9718 195.973 46.9725V46.9728Z" fill="white"/>
<path d="M187.748 45.8289C187.494 45.8302 187.279 45.8564 187.063 45.8804C187.05 45.8817 187.037 45.8833 187.025 45.8813C186.983 45.8752 186.967 45.8432 186.985 45.8047C186.998 45.7769 187.022 45.7594 187.047 45.7426C187.197 45.6423 187.361 45.5792 187.536 45.5417C187.803 45.4844 188.071 45.477 188.34 45.5297C188.387 45.5391 188.434 45.554 188.479 45.5724C188.533 45.5944 188.558 45.6342 188.564 45.6905C188.582 45.8354 188.558 45.9765 188.525 46.1162C188.463 46.3831 188.358 46.6309 188.191 46.8495C188.141 46.9142 188.086 46.9731 188.025 47.0268C188.006 47.043 187.987 47.0572 187.963 47.0653C187.941 47.0727 187.919 47.0747 187.901 47.0575C187.884 47.0407 187.882 47.0187 187.89 46.9967C187.902 46.964 187.914 46.9314 187.927 46.899C188.014 46.6742 188.101 46.4494 188.15 46.2123C188.163 46.1515 188.172 46.0903 188.17 46.0279C188.167 45.9328 188.132 45.8881 188.04 45.8606C187.933 45.8286 187.822 45.8299 187.748 45.8286L187.748 45.8289Z" fill="white"/>
<path d="M191.283 46.5727C191.328 46.5248 191.371 46.4847 191.417 46.4478C191.522 46.3643 191.642 46.331 191.774 46.3401C191.821 46.3433 191.837 46.3566 191.838 46.4044C191.839 46.4921 191.839 46.5801 191.838 46.6678C191.837 46.7163 191.819 46.7334 191.77 46.7312C191.657 46.7257 191.544 46.7244 191.433 46.7541C191.402 46.7625 191.372 46.7729 191.341 46.7807C191.313 46.7874 191.306 46.8036 191.306 46.8308C191.307 47.1345 191.307 47.4383 191.307 47.7417C191.307 47.8407 191.3 47.8481 191.203 47.8481C191.12 47.8481 191.038 47.8481 190.956 47.8481C190.899 47.8481 190.88 47.8287 190.879 47.7708C190.879 47.6828 190.879 47.5952 190.879 47.5072C190.879 47.1543 190.879 46.8017 190.879 46.4488C190.879 46.3676 190.892 46.3549 190.973 46.3549C191.035 46.3549 191.097 46.3549 191.159 46.3549C191.214 46.3553 191.235 46.3721 191.248 46.4261C191.26 46.473 191.271 46.5199 191.283 46.5727H191.283Z" fill="white"/>
<path d="M192.469 47.1043C192.469 47.3253 192.469 47.5462 192.469 47.7671C192.469 47.8341 192.455 47.8483 192.388 47.8483C192.299 47.8483 192.21 47.8483 192.121 47.8483C192.062 47.8483 192.044 47.8309 192.044 47.7694C192.044 47.5316 192.044 47.2939 192.044 47.0561C192.044 46.8507 192.044 46.6453 192.044 46.4399C192.044 46.3694 192.058 46.3554 192.127 46.3551C192.217 46.3551 192.307 46.3548 192.397 46.3551C192.454 46.3551 192.47 46.3716 192.47 46.4295C192.47 46.6543 192.47 46.8792 192.47 47.104L192.469 47.1043Z" fill="white"/>
<path d="M192.012 45.8964C192.012 45.7538 192.103 45.6681 192.255 45.6675C192.407 45.6668 192.501 45.7545 192.5 45.8977C192.5 46.0377 192.405 46.1253 192.255 46.125C192.105 46.125 192.012 46.0374 192.012 45.8961V45.8964Z" fill="white"/>
</g>
<rect x="203" y="33.5198" width="22" height="22" rx="11" fill="white"/>
<path d="M208.772 50.6609H209.422C209.562 50.6609 209.686 50.688 209.795 50.7422C209.905 50.7964 209.99 50.8724 210.051 50.9703C210.113 51.0664 210.143 51.1765 210.143 51.3006C210.143 51.4248 210.113 51.5349 210.051 51.631C209.99 51.7272 209.905 51.8023 209.795 51.8565C209.686 51.9107 209.562 51.9378 209.422 51.9378H209.176V52.6798H208.772V50.6609ZM209.406 51.631C209.513 51.631 209.595 51.6031 209.653 51.5471C209.711 51.4912 209.739 51.4117 209.739 51.3085C209.739 51.2054 209.711 51.1258 209.653 51.0699C209.595 51.014 209.513 50.986 209.406 50.986H209.176V51.631H209.406Z" fill="black"/>
<path d="M210.317 50.6609H210.965C211.101 50.6609 211.223 50.6854 211.332 50.7343C211.44 50.7833 211.525 50.8514 211.586 50.9388C211.649 51.0245 211.68 51.1215 211.68 51.2298C211.68 51.3663 211.633 51.4816 211.539 51.576C211.444 51.6703 211.318 51.7306 211.159 51.7568C211.372 52.047 211.556 52.3546 211.712 52.6798H211.248C211.096 52.3406 210.92 52.0488 210.721 51.8041V52.6798H210.317V50.6609ZM210.951 51.5812C211.055 51.5812 211.135 51.555 211.193 51.5026C211.25 51.4501 211.279 51.3758 211.279 51.2797C211.279 51.1853 211.25 51.1119 211.193 51.0594C211.135 51.007 211.055 50.9808 210.951 50.9808H210.721V51.5812H210.951Z" fill="black"/>
<path d="M212.989 50.6609V50.9965H212.279V51.4999H212.94V51.8251H212.279V52.3442H212.989V52.6798H211.875V50.6609H212.989Z" fill="black"/>
<path d="M213.706 50.6609C213.862 51.1468 213.99 51.5961 214.089 52.0086C214.192 51.5873 214.321 51.1381 214.475 50.6609H214.983V52.6798H214.614V51.2219C214.463 51.701 214.33 52.1869 214.212 52.6798H213.966C213.858 52.2149 213.726 51.7342 213.57 51.2377V52.6798H213.198V50.6609H213.706Z" fill="black"/>
<path d="M215.623 50.6609V52.6798H215.219V50.6609H215.623Z" fill="black"/>
<path d="M216.254 50.6609V51.9981C216.254 52.1117 216.278 52.2025 216.327 52.2707C216.378 52.3372 216.444 52.3704 216.527 52.3704C216.609 52.3704 216.674 52.3372 216.723 52.2707C216.772 52.2025 216.797 52.1117 216.797 51.9981V50.6609H217.2V51.9587C217.2 52.1038 217.172 52.2332 217.114 52.3469C217.058 52.4604 216.978 52.5496 216.875 52.6142C216.774 52.6771 216.658 52.7087 216.527 52.7087C216.394 52.7087 216.276 52.6771 216.173 52.6142C216.071 52.5496 215.992 52.4604 215.934 52.3469C215.878 52.2332 215.85 52.1038 215.85 51.9587V50.6609H216.254Z" fill="black"/>
<path d="M217.934 50.6609C218.09 51.1468 218.218 51.5961 218.317 52.0086C218.42 51.5873 218.549 51.1381 218.703 50.6609H219.211V52.6798H218.842V51.2219C218.691 51.701 218.558 52.1869 218.44 52.6798H218.194C218.086 52.2149 217.954 51.7342 217.798 51.2377V52.6798H217.426V50.6609H217.934Z" fill="black"/>
<path d="M218.071 36.9754C217.908 36.976 217.761 37.3413 217.661 37.9221C217.498 36.9209 217.234 36.2698 216.937 36.2698C216.583 36.2698 216.277 37.1904 216.132 38.5271C215.99 37.5543 215.775 36.9339 215.534 36.9339C215.197 36.9339 214.909 38.154 214.803 39.8554C214.603 38.9832 214.314 38.4358 213.993 38.4358C213.672 38.4358 213.383 38.9832 213.183 39.8554C213.076 38.154 212.789 36.9339 212.451 36.9339C212.21 36.9339 211.995 37.5543 211.853 38.5271C211.708 37.1904 211.402 36.2698 211.048 36.2698C210.75 36.2698 210.487 36.9209 210.324 37.9221C210.223 37.3416 210.077 36.9754 209.914 36.9754C209.61 36.9754 209.363 38.243 209.363 39.807C209.363 41.371 209.61 42.6387 209.914 42.6387C210.039 42.6387 210.154 42.4245 210.246 42.0628C210.392 43.3835 210.696 44.291 211.048 44.291C211.32 44.291 211.564 43.7459 211.728 42.8859C211.84 44.5214 212.121 45.6815 212.451 45.6815C212.658 45.6815 212.847 45.2216 212.985 44.473C213.152 46.0186 213.54 47.1012 213.992 47.1012C214.444 47.1012 214.831 46.0186 214.999 44.473C215.138 45.2216 215.327 45.6815 215.533 45.6815C215.863 45.6815 216.145 44.5214 216.256 42.8859C216.42 43.7459 216.664 44.291 216.936 44.291C217.288 44.291 217.592 43.3835 217.738 42.0628C217.831 42.4237 217.945 42.6387 218.07 42.6387C218.374 42.6387 218.621 41.371 218.621 39.807C218.621 38.2437 218.375 36.9764 218.071 36.9754Z" fill="#A238FF"/>
<path d="M208.889 40.7947C209.061 40.7947 209.201 40.2279 209.201 39.5287C209.201 38.8295 209.061 38.2627 208.889 38.2627C208.716 38.2627 208.576 38.8295 208.576 39.5287C208.576 40.2279 208.716 40.7947 208.889 40.7947Z" fill="#A238FF"/>
<path d="M219.408 39.5287C219.408 40.2279 219.268 40.7947 219.095 40.7947C218.923 40.7947 218.783 40.2279 218.783 39.5287C218.783 38.8295 218.923 38.2627 219.095 38.2627C219.268 38.2627 219.408 38.8295 219.408 39.5287Z" fill="#A238FF"/>
<path fill-rule="evenodd" clip-rule="evenodd" d="M208.042 48.196H209.068C209.704 48.196 210.153 48.6189 210.153 49.2199C210.153 49.8209 209.704 50.2438 209.068 50.2438H208.042V48.196ZM208.839 49.6906H209.025C209.225 49.6906 209.331 49.5576 209.331 49.2199C209.331 48.8822 209.225 48.7492 209.025 48.7492H208.839V49.6906Z" fill="black"/>
<path d="M211.961 50.2438H210.275V48.196H211.961V48.7492H211.071V48.9859H211.908V49.438H211.071V49.6906H211.961V50.2438Z" fill="black"/>
<path d="M213.839 50.2438H212.153V48.196H213.839V48.7492H212.948V48.9859H213.786V49.438H212.948V49.6906H213.839V50.2438Z" fill="black"/>
<path fill-rule="evenodd" clip-rule="evenodd" d="M219.958 50.2438C219.844 49.9307 219.683 49.5966 219.467 49.2221C219.719 49.1479 219.871 48.9885 219.871 48.7439C219.871 48.3716 219.528 48.196 218.985 48.196H217.868V50.2438H218.666V49.3967C218.843 49.6953 218.974 49.977 219.06 50.2438H219.958ZM218.666 49.1109V48.7492H218.943C219.06 48.7492 219.126 48.813 219.126 48.93C219.126 49.047 219.06 49.1109 218.943 49.1109H218.666Z" fill="black"/>
<path d="M217.676 50.2438H215.99V48.196H217.676V48.7492H216.785V48.9859H217.623V49.438H216.785V49.6906H217.676V50.2438Z" fill="black"/>
<path d="M214.031 48.7492H214.854C214.512 49.0286 214.231 49.3452 214.015 49.6906V50.2438H215.826V49.6906H214.92C215.128 49.3888 215.418 49.0883 215.826 48.7492V48.196H214.031V48.7492Z" fill="black"/>
<g clip-path="url(#clip2_2773_1229)">
<path d="M241 55.1755C246.886 55.1755 251.657 50.4046 251.657 44.5193C251.657 38.634 246.886 33.863 241 33.863C235.115 33.863 230.344 38.634 230.344 44.5193C230.344 50.4046 235.115 55.1755 241 55.1755Z" fill="url(#paint0_linear_2773_1229)"/>
<path d="M236.267 41.8238C236.229 41.8641 236.176 41.8837 236.138 41.8572C236.108 41.8376 236.096 41.7904 236.135 41.7467C236.523 41.307 236.965 40.9213 237.41 40.6209C240.13 38.7654 244.034 39.0175 246.443 41.2874C247.246 42.0425 247.8 42.9714 248.085 43.8175C248.103 43.8693 248.065 43.9234 248.009 43.9234H247.746C247.697 43.9234 247.654 43.8923 247.638 43.8451C247.42 43.2074 247.005 42.3959 246.251 41.6396C243.955 39.3271 240.031 39.0612 237.36 40.8868C236.952 41.1654 236.594 41.4716 236.267 41.8238Z" fill="white"/>
<path fill-rule="evenodd" clip-rule="evenodd" d="M235.213 42.9692C234.704 42.8253 233.89 42.6342 233.001 42.8713C232.835 42.9151 232.723 42.9888 232.644 43.1269C232.605 43.1959 232.568 43.2707 232.588 43.3467C232.606 43.4112 232.698 43.4342 232.773 43.4457C232.844 43.4572 233.006 43.4653 233.05 43.4135C233.073 43.3859 233.073 43.3099 232.955 43.2846C232.94 43.2816 232.918 43.2791 232.894 43.2764C232.845 43.2708 232.788 43.2644 232.782 43.2512C232.782 43.2512 232.786 43.2374 232.851 43.2167C232.853 43.2161 232.855 43.2154 232.858 43.2144C232.905 43.1978 233.126 43.1211 233.672 43.1395C234.361 43.1614 234.963 43.3237 235.601 43.5735C236.224 43.8187 236.925 44.263 237.336 44.7913C237.491 44.9916 237.684 45.3197 237.71 45.5959C237.771 46.2682 237.115 46.8345 235.783 46.7896C235.555 46.7815 235.279 46.7274 235.279 46.7274L235.251 45.4302C235.251 45.4302 235.815 45.4256 236.438 45.6305C236.491 45.6477 236.544 45.6823 236.549 45.7341C236.553 45.7732 236.522 45.8077 236.486 45.8388C236.45 45.8708 236.405 45.8924 236.37 45.9095C236.343 45.9226 236.322 45.9331 236.313 45.9436C236.3 45.9608 236.3 45.9873 236.318 46.0023C236.365 46.0379 236.48 46.0633 236.557 46.0564C236.715 46.0426 236.819 45.9516 236.898 45.833C236.982 45.7065 237.031 45.3842 236.583 45.1781C236.004 44.9122 235.247 44.9617 235.247 44.9617C235.247 44.9617 235.244 44.7856 235.236 44.6682C235.223 44.4759 235.17 44.0984 234.995 43.9902C234.963 43.9706 234.924 43.9683 234.902 43.9982C234.869 44.0431 234.835 44.2112 234.827 44.2549C234.775 44.5697 234.767 44.8586 234.764 44.963C234.763 44.9888 234.762 45.0043 234.762 45.0043L234.76 45.0066C234.758 45.0081 234.757 45.0097 234.755 45.0112C234.755 45.0112 234.743 45.0136 234.725 45.0167C234.621 45.0337 234.269 45.0918 233.926 45.2403C233.765 45.3105 233.535 45.4359 233.464 45.5982C233.375 45.8077 233.532 46.0368 233.801 46.29C234.027 46.5053 234.361 46.7309 234.609 46.8472C234.672 46.8771 234.746 46.9139 234.746 46.9139C234.746 46.9139 234.762 47.0636 234.774 47.1499C234.82 47.4618 235.059 47.417 235.124 47.4031C235.231 47.3813 235.251 47.3099 235.266 47.2282C235.274 47.1833 235.271 47.1188 235.271 47.1188C235.271 47.1188 235.432 47.1556 235.54 47.1752C235.854 47.2339 236.196 47.2431 236.493 47.2029C237.627 47.0474 237.95 46.5286 238.058 46.3547C238.063 46.347 238.067 46.3401 238.071 46.3338C238.236 46.0748 238.583 45.3519 237.535 44.2802C237.295 44.0374 236.602 43.3617 235.213 42.9692ZM233.647 45.8906C233.605 45.8457 233.572 45.7985 233.582 45.7398C233.591 45.6834 233.702 45.6339 233.757 45.6178C234.291 45.4601 234.744 45.452 234.744 45.452C234.744 45.452 234.74 45.6443 234.74 45.8377C234.738 46.2048 234.748 46.5778 234.748 46.5778C234.748 46.5778 234.145 46.4028 233.647 45.8906Z" fill="white"/>
<path fill-rule="evenodd" clip-rule="evenodd" d="M239.077 44.5402C239.328 44.4423 239.522 44.3007 239.717 44.1005C239.831 43.9842 239.933 43.7931 239.896 43.6182C239.877 43.5318 239.838 43.472 239.766 43.4098C239.73 43.3787 239.647 43.335 239.58 43.3224C239.576 43.3215 239.571 43.3208 239.567 43.32C239.552 43.3177 239.538 43.3155 239.532 43.312C239.525 43.3076 239.519 43.2993 239.512 43.2905L239.508 43.2854L239.506 43.2821C239.462 43.2268 239.374 43.1727 239.312 43.152C239.12 43.0852 238.863 43.1359 238.688 43.2095C238.503 43.2878 238.333 43.4029 238.203 43.5422C237.862 43.9071 238.011 44.196 238.041 44.2501C238.05 44.2667 238.063 44.2836 238.075 44.3006C238.097 44.331 238.119 44.3619 238.125 44.3928C238.129 44.4113 238.129 44.4331 238.128 44.4552C238.128 44.4675 238.127 44.4799 238.128 44.4918C238.13 44.569 238.163 44.6472 238.221 44.699C238.262 44.7359 238.322 44.7462 238.381 44.6553C238.4 44.6254 238.434 44.5632 238.434 44.5632C238.434 44.5632 238.503 44.6035 238.671 44.615C238.796 44.6208 238.968 44.5839 239.077 44.5402ZM238.275 44.0993C238.275 44.0993 238.264 44.0752 238.255 44.0567C238.204 43.929 238.318 43.7839 238.421 43.6953C238.624 43.5226 238.795 43.5272 238.795 43.5272C238.795 43.5272 238.754 43.5606 238.719 43.5905C238.426 43.8484 238.275 44.0993 238.275 44.0993ZM238.718 44.0947C238.843 43.9347 239.072 43.7367 239.23 43.6423C239.356 43.5675 239.464 43.5468 239.545 43.5825C239.593 43.6032 239.631 43.6469 239.638 43.7056C239.66 43.8852 239.451 44.036 239.313 44.1166C238.998 44.3007 238.625 44.2593 238.615 44.242C238.612 44.2375 238.689 44.1327 238.718 44.0947Z" fill="white"/>
<path fill-rule="evenodd" clip-rule="evenodd" d="M244.896 46.1165C245.18 45.6791 245.828 44.7951 246.23 45.0736C246.365 45.1691 246.427 45.3798 246.428 45.6065C246.428 45.8045 246.38 46.0163 246.291 46.174C246.14 46.4376 245.714 46.989 245.148 46.8589C244.961 47.3125 244.804 47.7717 244.714 48.4578C244.714 48.4578 244.693 48.5913 244.583 48.5453C244.472 48.5061 244.292 48.3243 244.255 48.071C244.216 47.7395 244.364 47.1778 244.666 46.5343C244.578 46.3916 244.517 46.1867 244.569 45.8955C244.569 45.8955 244.645 45.3545 245.188 44.8664C245.188 44.8664 245.253 44.81 245.291 44.8273C245.332 44.8446 245.314 45.0206 245.28 45.1058C245.246 45.191 245.004 45.61 245.004 45.61C245.004 45.61 244.853 45.8932 244.896 46.1165ZM245.357 46.3755C245.58 46.3501 245.796 46.2293 245.86 46.1671C245.966 46.0739 246.213 45.8184 246.174 45.4811C246.174 45.4811 246.152 45.3061 245.981 45.4984C245.834 45.6595 245.57 45.9634 245.357 46.3755Z" fill="white"/>
<path d="M244.369 46.494C244.397 46.3904 244.302 46.2776 244.217 46.2569C244.138 46.2408 243.53 46.3547 243.457 46.3743C243.379 46.395 243.414 46.3213 243.414 46.3213L243.508 46.0037C243.508 46.0037 244.088 45.9818 244.172 45.9668C244.25 45.953 244.255 45.8977 244.255 45.8977C244.255 45.8977 244.265 45.8068 244.262 45.7216C244.254 45.6307 244.18 45.6388 244.18 45.6388C243.956 45.6158 243.647 45.6422 243.647 45.6422L243.726 45.3982C243.726 45.3982 244.343 45.3683 244.577 45.3142C244.698 45.2854 244.627 45.1668 244.627 45.1668C244.481 44.8744 244.312 44.8905 244.312 44.8905C243.826 44.8744 243.121 45.0034 243.044 45.0413C242.972 45.0736 242.98 45.1277 243.074 45.2462C243.175 45.3705 243.345 45.3591 243.345 45.3591L243.196 45.6664C243.074 45.6744 243.033 45.7124 243.033 45.7124C242.962 45.7873 243.059 46.0083 243.059 46.0083C243.059 46.0083 242.848 46.4814 243.002 46.7311C243.166 46.9936 243.36 46.9809 243.36 46.9809C243.73 47.0085 244.337 46.6218 244.369 46.494Z" fill="white"/>
<path d="M242.139 44.6609C242.161 44.5746 242.248 44.6149 242.248 44.6149C242.248 44.6149 242.579 44.7818 242.739 45.3205C242.899 45.8615 242.792 46.3484 242.729 46.4957C242.667 46.643 242.502 46.7985 242.298 46.7018C242.097 46.6051 241.776 45.9478 241.776 45.9478C241.776 45.9478 241.654 45.7038 241.631 45.7095C241.631 45.7095 241.604 45.6612 241.588 45.9294C241.584 45.9934 241.582 46.0722 241.58 46.156C241.573 46.4204 241.565 46.7353 241.484 46.7973C241.384 46.8802 241.262 46.8468 241.199 46.7512C241.143 46.6569 241.118 46.4324 241.149 46.0388C241.186 45.6428 241.277 45.2238 241.395 45.0925C241.509 44.9659 241.6 45.0521 241.639 45.0885L241.642 45.0914C241.642 45.0914 241.799 45.233 242.056 45.6497L242.103 45.7268C242.103 45.7268 242.337 46.1205 242.361 46.1193C242.361 46.1193 242.38 46.1366 242.397 46.1239C242.423 46.117 242.412 45.9904 242.412 45.9904C242.412 45.9904 242.364 45.5622 242.15 44.8359C242.15 44.8359 242.117 44.7461 242.139 44.6609Z" fill="white"/>
<path d="M238.913 46.0058C238.905 45.8263 238.883 45.367 238.834 45.1598C238.812 45.07 238.776 44.9894 238.687 44.9561C238.677 44.9526 238.666 44.9492 238.657 44.948C238.602 44.9376 238.571 45.0125 238.556 45.0504C238.512 45.1621 238.481 45.428 238.473 45.5109C238.448 45.7618 238.426 46.3581 238.47 46.6619C238.488 46.7886 238.53 46.8714 238.659 46.8979C238.71 46.9083 238.806 46.9071 238.847 46.8795C238.884 46.8565 238.91 46.8127 238.918 46.7748C238.94 46.6704 238.933 46.5235 238.927 46.4113L238.927 46.4064C238.925 46.3619 238.924 46.3175 238.922 46.2732C238.92 46.1844 238.917 46.0956 238.913 46.0058Z" fill="white"/>
<path d="M239.972 44.889C240.254 44.8544 240.711 44.8544 240.988 45.0018C241.031 45.0248 241.053 45.0467 241.041 45.0881C241.023 45.1744 240.958 45.2297 240.88 45.2539C240.799 45.2802 240.63 45.2906 240.554 45.2952L240.553 45.2953C240.474 45.2996 240.392 45.3024 240.307 45.3052C240.033 45.3143 239.74 45.324 239.496 45.3908L239.491 45.3923C239.467 45.3993 239.428 45.4103 239.415 45.4254C239.368 45.4769 239.494 45.495 239.533 45.5006L239.538 45.5013C239.575 45.5076 239.868 45.5421 240.078 45.5668C240.176 45.5784 240.256 45.5878 240.283 45.5911C240.793 45.6561 240.867 45.7945 240.923 45.9001L240.925 45.903C241.011 46.0631 241.019 46.2887 240.939 46.4579C240.79 46.7721 240.394 46.8331 240.257 46.8493C240.018 46.8757 239.758 46.8285 239.542 46.7215C239.081 46.4924 239.102 46.2196 239.195 46.0838C239.298 45.9342 239.548 45.8961 239.729 45.903C239.867 45.9077 240.116 45.9514 240.247 45.9975L240.249 45.9983C240.288 46.0133 240.418 46.0636 240.44 46.0872C240.456 46.1045 240.467 46.1287 240.46 46.1505C240.43 46.2426 240.208 46.291 240.143 46.3002C240.008 46.321 239.924 46.2847 239.798 46.2305C239.764 46.216 239.728 46.2002 239.686 46.1839C239.638 46.1644 239.574 46.1436 239.524 46.139C239.435 46.131 239.324 46.1552 239.311 46.253C239.303 46.314 239.361 46.3497 239.405 46.3693C239.51 46.4153 239.595 46.4314 239.699 46.4325C240.004 46.4372 240.347 46.3877 240.597 46.2104C240.63 46.1862 240.665 46.1505 240.665 46.1057C240.666 46.0147 240.507 45.9595 240.507 45.9595C240.344 45.8915 240.053 45.8613 239.884 45.8437L239.868 45.8421C239.826 45.8377 239.773 45.8336 239.713 45.829C239.521 45.8144 239.27 45.7954 239.18 45.7488C239.113 45.7143 239.067 45.6659 239.051 45.6026C239.021 45.4887 239.059 45.3471 239.122 45.2562C239.289 45.0156 239.679 44.9246 239.972 44.889Z" fill="white"/>
<path d="M249.262 45.3945H248.309C248.298 45.0653 248.265 44.7396 248.209 44.4196C248.199 44.3643 248.151 44.3252 248.096 44.3252H247.839C247.789 44.3252 247.751 44.3712 247.761 44.4207C247.821 44.7396 247.856 45.0653 247.868 45.3945H246.9C246.856 45.3945 246.819 45.4302 246.819 45.4751V45.7675C246.819 45.8124 246.855 45.8481 246.9 45.8481H247.868C247.856 46.1784 247.821 46.503 247.761 46.8219C247.752 46.8714 247.79 46.9174 247.839 46.9174H248.096C248.151 46.9174 248.199 46.8771 248.209 46.823C248.265 46.503 248.297 46.1784 248.309 45.8481H249.262C249.306 45.8481 249.342 45.8124 249.342 45.7675V45.4751C249.342 45.4302 249.307 45.3945 249.262 45.3945Z" fill="white"/>
</g>
<g clip-path="url(#clip3_2773_1229)">
<mask id="mask0_2773_1229" style="mask-type:alpha" maskUnits="userSpaceOnUse" x="257" y="33" width="22" height="23">
<circle cx="268" cy="44.5195" r="11" fill="#FF790F"/>
</mask>
<g mask="url(#mask0_2773_1229)">
<rect x="257" y="33.5195" width="22" height="22" fill="#F1F2F2"/>
<path fill-rule="evenodd" clip-rule="evenodd" d="M261.26 44.9103C260.823 44.9103 260.329 44.7572 259.833 44.4688C259.795 44.4484 259.768 44.4101 259.755 44.3667C259.745 44.3233 259.75 44.2773 259.773 44.2391L259.96 43.8588C259.99 43.8052 260.046 43.772 260.104 43.772C260.135 43.772 260.165 43.7796 260.193 43.7975C260.6 44.0629 260.914 44.1574 261.24 44.1574C261.807 44.1574 262.149 43.8077 262.149 43.2819C261.971 43.4427 261.761 43.6265 261.374 43.6265C260.494 43.6265 259.778 42.8888 259.778 41.9827C259.778 41.0741 260.494 40.3364 261.374 40.3364C261.648 40.3364 261.858 40.4258 262.184 40.6861C262.194 40.5993 262.149 40.39 262.273 40.39H262.804C262.895 40.39 262.971 40.4666 262.971 40.5585V41.947V41.9572C262.971 41.9657 262.972 41.9742 262.973 41.9827C262.972 41.9895 262.971 41.9972 262.971 42.0057V42.0185V42.5723C262.973 43.5116 262.87 44.0502 262.475 44.456C262.184 44.7572 261.711 44.9103 261.26 44.9103ZM261.374 41.1328C260.949 41.1328 260.6 41.5131 260.6 41.9827C260.6 42.4498 260.949 42.8327 261.374 42.8327C261.792 42.8327 262.138 42.46 262.149 42.0031V41.9598C262.138 41.5029 261.792 41.1328 261.374 41.1328Z" fill="#E51F29"/>
<path fill-rule="evenodd" clip-rule="evenodd" d="M269.898 43.6264C269.668 43.6264 269.37 43.5217 269.096 43.2716C269.096 43.4018 269.127 43.5728 268.957 43.5728H268.471C268.378 43.5728 268.302 43.4987 268.302 43.4043V39.2413C268.302 39.1469 268.378 39.0703 268.471 39.0703H268.957C269.051 39.0703 269.127 39.1469 269.127 39.2413V40.6783C269.392 40.4078 269.691 40.3363 269.898 40.3363C270.779 40.3363 271.497 41.074 271.497 41.9826C271.497 42.8887 270.779 43.6264 269.898 43.6264ZM269.898 41.1327C269.473 41.1327 269.127 41.513 269.127 41.9826C269.127 42.4497 269.473 42.8326 269.898 42.8326C270.326 42.8326 270.673 42.4497 270.673 41.9826C270.673 41.513 270.326 41.1327 269.898 41.1327Z" fill="#E51F29"/>
<path fill-rule="evenodd" clip-rule="evenodd" d="M267.892 46.9162C267.892 47.8249 267.176 48.5625 266.295 48.5625C266.085 48.5625 265.787 48.491 265.521 48.2205V49.6575C265.521 49.7519 265.445 49.8285 265.352 49.8285H264.866C264.772 49.8285 264.696 49.7519 264.696 49.6575V45.4945C264.696 45.4026 264.772 45.3261 264.866 45.3261H265.352C265.521 45.3261 265.491 45.4971 265.491 45.6272C265.767 45.3771 266.063 45.2725 266.295 45.2725C267.176 45.2725 267.892 46.0101 267.892 46.9162ZM267.067 46.9162C267.067 46.4491 266.72 46.0663 266.295 46.0663C265.868 46.0663 265.521 46.4491 265.521 46.9162C265.521 47.3859 265.868 47.7687 266.295 47.7687C266.72 47.7687 267.067 47.3859 267.067 46.9162Z" fill="#E51F29"/>
<path fill-rule="evenodd" clip-rule="evenodd" d="M273.441 43.6265C272.54 43.6265 271.806 42.8888 271.806 41.9827C271.806 41.0741 272.54 40.3364 273.441 40.3364C274.339 40.3364 275.073 41.0741 275.073 41.9827C275.073 42.8888 274.339 43.6265 273.441 43.6265ZM273.441 41.1353C272.993 41.1353 272.631 41.5156 272.631 41.9827C272.631 42.4498 272.993 42.8301 273.441 42.8301C273.886 42.8301 274.248 42.4498 274.248 41.9827C274.248 41.5156 273.886 41.1353 273.441 41.1353Z" fill="#E51F29"/>
<path fill-rule="evenodd" clip-rule="evenodd" d="M266.291 43.6265C265.39 43.6265 264.659 42.8888 264.659 41.9827C264.659 41.0741 265.39 40.3364 266.291 40.3364C267.191 40.3364 267.923 41.0741 267.923 41.9827C267.923 42.8888 267.191 43.6265 266.291 43.6265ZM266.291 41.1353C265.843 41.1353 265.481 41.5156 265.481 41.9827C265.481 42.4498 265.843 42.8301 266.291 42.8301C266.736 42.8301 267.1 42.4498 267.1 41.9827C267.1 41.5156 266.736 41.1353 266.291 41.1353Z" fill="#E51F29"/>
<path d="M268.466 48.5093C268.375 48.5093 268.299 48.4327 268.299 48.3408V44.1753C268.299 44.0834 268.375 44.0068 268.466 44.0068H268.955C269.046 44.0068 269.122 44.0834 269.122 44.1753V48.3408C269.122 48.4327 269.046 48.5093 268.955 48.5093H268.466Z" fill="#E51F29"/>
<path d="M273.873 49.8385C273.448 49.8385 273.142 49.7108 272.998 49.5934C272.932 49.5398 272.915 49.4479 272.958 49.3765L273.188 48.9783C273.218 48.9247 273.274 48.8915 273.335 48.8941C273.37 48.8941 273.403 48.9043 273.433 48.9247C273.469 48.9528 273.595 49.0549 273.757 49.06C273.871 49.0625 274.154 48.9528 274.331 48.5189L273.109 45.5606C273.087 45.507 273.092 45.4483 273.122 45.3998C273.155 45.3513 273.205 45.3232 273.264 45.3232L273.793 45.3258C273.861 45.3258 273.919 45.3666 273.947 45.4279L274.724 47.3294L275.402 45.4355C275.425 45.3692 275.49 45.3258 275.559 45.3258H276.075C276.13 45.3258 276.184 45.3539 276.214 45.3998C276.247 45.4458 276.265 45.5096 276.234 45.6346L275.156 48.5265C274.87 49.231 274.374 49.841 273.873 49.8385Z" fill="#E51F29"/>
<path fill-rule="evenodd" clip-rule="evenodd" d="M271.108 45.2725C271.338 45.2725 271.637 45.3771 271.91 45.6272C271.91 45.4971 271.882 45.3261 272.049 45.3261H272.537C272.629 45.3261 272.704 45.4026 272.704 45.4945V48.366C272.704 48.4604 272.629 48.5089 272.537 48.5089H272.049C271.958 48.5089 271.882 48.4604 271.882 48.366V48.223C271.614 48.4936 271.318 48.5651 271.108 48.5651C270.225 48.5651 269.509 47.8249 269.509 46.9188C269.509 46.0101 270.225 45.2725 271.108 45.2725ZM271.108 47.7687C271.533 47.7687 271.882 47.3884 271.882 46.9188C271.882 46.4491 271.533 46.0688 271.108 46.0688C270.68 46.0688 270.334 46.4491 270.334 46.9188C270.334 47.3884 270.68 47.7687 271.108 47.7687Z" fill="#E51F29"/>
<path d="M263.654 43.6264C263.553 43.6264 263.444 43.5524 263.444 43.3482V39.2949C263.444 39.0372 263.601 39.0193 263.649 39.0193C263.685 39.0193 263.72 39.0269 263.763 39.0423L264.064 39.1775C264.211 39.2465 264.279 39.3664 264.279 39.5502V43.0878C264.279 43.269 264.211 43.389 264.067 43.4579L263.763 43.6009C263.72 43.6187 263.685 43.6264 263.654 43.6264Z" fill="#E51F29"/>
</g>
</g>
<g clip-path="url(#clip4_2773_1229)">
<path d="M187 81.6963C192.886 81.6963 197.657 76.9253 197.657 71.04C197.657 65.1548 192.886 60.3838 187 60.3838C181.115 60.3838 176.344 65.1548 176.344 71.04C176.344 76.9253 181.115 81.6963 187 81.6963Z" fill="url(#paint1_radial_2773_1229)"/>
<path d="M190.004 73.0708H191.373C191.696 72.5564 192.061 72.0893 192.481 71.6494C192.894 72.0893 193.238 72.5564 193.561 73.0708H194.944C194.469 72.36 193.953 71.6832 193.334 71.0131C193.947 70.3701 194.469 69.7067 194.944 69.0098H193.589C193.252 69.5242 192.887 69.9572 192.481 70.3837C192.068 69.9572 191.703 69.5242 191.373 69.0098H190.003C190.471 69.727 191.001 70.3701 191.62 71.0131C191.001 71.6832 190.472 72.3804 190.004 73.0708Z" fill="white"/>
<path d="M187.313 73.1794C187.871 73.1794 188.352 72.9765 188.724 72.5364V73.0712H189.804V69.0099H188.724V69.5447C188.352 69.1048 187.871 68.9016 187.313 68.9016C186.185 68.9016 185.249 69.8559 185.249 71.0405C185.249 72.2251 186.185 73.1794 187.313 73.1794ZM186.268 71.0405C186.268 70.3773 186.811 69.8425 187.486 69.8425C188.16 69.8425 188.703 70.3773 188.703 71.0405C188.703 71.7037 188.16 72.2385 187.486 72.2385C186.811 72.2385 186.268 71.7037 186.268 71.0405ZM186.55 71.0405C186.55 71.5549 186.969 71.9678 187.486 71.9678C188.002 71.9678 188.421 71.5549 188.421 71.0405C188.421 70.5261 188.002 70.1132 187.486 70.1132C186.969 70.1132 186.55 70.5261 186.55 71.0405Z" fill="white"/>
<path d="M179.056 73.0712H180.191V70.5462C180.687 70.1606 180.914 70.0387 181.1 70.0387C181.32 70.0387 181.464 70.1741 181.464 70.5125V73.0709H182.6V70.5397C183.096 70.1608 183.316 70.0389 183.508 70.0389C183.729 70.0389 183.873 70.1744 183.873 70.5128V73.0712H185.009V70.12C185.008 69.2063 184.478 68.9016 183.969 68.9016C183.535 68.9016 183.095 69.0776 182.517 69.5107C182.331 69.0572 181.925 68.9016 181.56 68.9016C181.127 68.9016 180.687 69.0912 180.122 69.5175V69.0099H179.056V73.0712Z" fill="white"/>
</g>
<g clip-path="url(#clip5_2773_1229)">
<path d="M214 81.7346C219.906 81.7346 224.695 76.9465 224.695 71.0401C224.695 65.1338 219.906 60.3457 214 60.3457C208.094 60.3457 203.306 65.1338 203.306 71.0401C203.306 76.9465 208.094 81.7346 214 81.7346Z" fill="black"/>
<path fill-rule="evenodd" clip-rule="evenodd" d="M211.275 65.679C211.249 65.6681 210.998 65.5623 210.962 65.5471C210.961 65.5467 210.959 65.5458 210.956 65.5447C210.952 65.543 210.954 65.5437 210.952 65.5429C210.947 65.5411 210.946 65.5404 210.944 65.5398C210.944 65.6218 210.944 65.7433 210.944 65.8732C210.944 66.0394 210.944 66.2158 210.944 66.3035C210.944 66.4726 210.944 66.9076 210.944 67.0683C210.944 67.3786 210.944 69.77 210.944 69.9372C210.944 70.1 210.944 76.3584 210.944 76.5309C211.77 76.4278 212.183 76.3877 213.023 76.348C213.023 76.1807 213.023 74.5213 213.023 74.2793C213.023 72.8822 213.023 71.899 213.023 71.357C213.023 71.1289 213.023 71.0444 213.023 70.8104C212.959 70.6237 212.69 69.831 212.621 69.6315C212.492 69.2508 211.76 67.1021 211.701 66.9302C211.649 66.776 211.503 66.3473 211.456 66.2101C211.429 66.1307 211.358 65.9229 211.321 65.8121C211.291 65.7255 211.294 65.7326 211.275 65.679Z" fill="url(#paint2_linear_2773_1229)"/>
<path fill-rule="evenodd" clip-rule="evenodd" d="M216.434 76.3916C216.461 76.4024 216.712 76.5083 216.748 76.5236C216.749 76.5239 216.751 76.5248 216.754 76.5259C216.758 76.5276 216.756 76.5269 216.758 76.5277C216.762 76.5296 216.764 76.5302 216.765 76.5308C216.765 76.4488 216.765 76.3273 216.765 76.1974C216.766 76.0311 216.765 75.8548 216.765 75.7671C216.765 75.5981 216.765 75.163 216.765 75.0023C216.765 74.6921 216.765 72.3007 216.765 72.1334C216.765 71.9706 216.765 65.7123 216.765 65.5398C216.602 65.5398 214.95 65.5398 214.687 65.5398C214.687 65.7072 214.687 67.5493 214.687 67.7914C214.687 69.1884 214.687 70.1717 214.687 70.7136C214.687 70.9417 214.687 71.0262 214.687 71.2602C214.751 71.447 215.02 72.2396 215.089 72.4391C215.217 72.8199 215.95 74.9685 216.008 75.1404C216.061 75.2946 216.207 75.7234 216.254 75.8605C216.281 75.94 216.352 76.1477 216.389 76.2585C216.419 76.3451 216.416 76.338 216.434 76.3916Z" fill="url(#paint3_linear_2773_1229)"/>
<path fill-rule="evenodd" clip-rule="evenodd" d="M213.023 65.5398H210.944L214.625 76.3481C215.659 76.3752 216.766 76.5309 216.766 76.5309L213.023 65.5398Z" fill="#E50A15"/>
</g>
<circle cx="241" cy="71.0403" r="11" fill="#0270FD"/>
<g clip-path="url(#clip6_2773_1229)">
<path d="M240.018 70.6959C239.974 70.6779 239.901 70.5979 240.022 70.3752L240.303 69.7995C240.311 69.7821 240.291 69.7605 240.278 69.7751L240.033 70.0172C239.917 70.1361 239.72 70.4704 239.682 70.5323L239.384 71.016C239.415 71.0151 239.436 71.0479 239.42 71.0746L239.148 71.5238C239.081 71.6352 239.201 71.713 239.217 71.6874C239.645 71.0104 239.894 71.0646 239.894 71.0646L240.037 70.7396C240.045 70.7225 240.036 70.7031 240.018 70.6959H240.018Z" fill="white"/>
<path d="M240.991 65.0396C238.545 65.0396 236.562 66.9866 236.562 69.3882C236.562 70.3552 236.884 71.2481 237.428 71.9703C237.613 71.8915 237.717 71.7737 237.79 71.6835L238.615 70.648C238.633 70.6263 238.655 70.609 238.681 70.5981L238.805 70.5458L240.162 68.857L240.358 68.7058L240.762 68.1536C240.773 68.1393 240.785 68.1269 240.8 68.1164L240.976 67.9905C241.02 67.9594 241.079 67.9588 241.123 67.9893L241.337 68.1368C241.45 68.2149 241.542 68.3195 241.604 68.4412L242.461 69.9189C242.48 69.9513 242.494 69.9652 242.528 69.9819C242.696 70.064 242.799 70.0787 243.019 70.3131C243.122 70.4226 243.571 70.9163 244.202 71.6837C244.288 71.7992 244.401 71.8964 244.557 71.967C245.1 71.2454 245.421 70.3537 245.421 69.3882C245.421 66.9866 243.438 65.0396 240.991 65.0396ZM237.756 69.628L237.469 69.5364L237.292 69.7763V69.48L237.004 69.3884L237.292 69.2968V69.0006L237.469 69.2404L237.756 69.1488L237.579 69.3886L237.756 69.6284V69.628ZM237.688 70.5978L237.595 70.8797L237.502 70.5978H237.2L237.444 70.4235L237.351 70.1416L237.595 70.3158L237.839 70.1416L237.746 70.4235L237.99 70.5978H237.689H237.688ZM237.746 68.3531L237.839 68.635L237.595 68.4608L237.351 68.635L237.444 68.3531L237.2 68.1789H237.501L237.595 67.8969L237.688 68.1789H237.99L237.745 68.3531H237.746ZM238.231 67.7155L238.053 67.4757L237.766 67.5673L237.943 67.3275L237.766 67.0877L238.053 67.1792L238.231 66.9394V67.2357L238.518 67.3273L238.231 67.4189V67.7151V67.7155ZM238.985 66.6779L238.892 66.9598L238.799 66.6779H238.497L238.741 66.5037L238.648 66.2217L238.892 66.396L239.137 66.2217L239.043 66.5037L239.288 66.6779H238.986H238.985ZM239.937 66.2021L239.759 66.442V66.1457L239.472 66.0541L239.759 65.9625V65.6662L239.937 65.9061L240.224 65.8145L240.047 66.0543L240.224 66.2941L239.937 66.2025V66.2021ZM241.142 65.9305L241.236 66.2124L240.991 66.0382L240.747 66.2124L240.84 65.9305L240.596 65.7563H240.898L240.991 65.4744L241.084 65.7563H241.386L241.142 65.9305H241.142ZM242.223 66.1455V66.4418L242.046 66.2019L241.759 66.2935L241.936 66.0537L241.759 65.8139L242.046 65.9055L242.223 65.6657V65.9619L242.511 66.0535L242.223 66.1451V66.1455ZM244.227 69.1484L244.514 69.24L244.691 69.0002V69.2964L244.978 69.388L244.691 69.4796V69.7759L244.514 69.5361L244.227 69.6276L244.404 69.3878L244.227 69.148V69.1484ZM243.091 66.9598L242.997 66.6779H242.695L242.94 66.5037L242.846 66.2217L243.091 66.396L243.335 66.2217L243.242 66.5037L243.486 66.6779H243.184L243.091 66.9598H243.091ZM243.752 67.7155V67.4193L243.465 67.3277L243.752 67.2361V66.9398L243.93 67.1796L244.217 67.0881L244.039 67.3279L244.217 67.5677L243.93 67.4761L243.752 67.7159V67.7155ZM244.295 68.1789L244.388 67.8969L244.481 68.1789H244.783L244.539 68.3531L244.632 68.635L244.388 68.4608L244.144 68.635L244.237 68.3531L243.993 68.1789H244.294H244.295ZM244.481 70.5978L244.388 70.8797L244.295 70.5978H243.993L244.237 70.4235L244.144 70.1416L244.388 70.3158L244.633 70.1416L244.539 70.4235L244.784 70.5978H244.482H244.481Z" fill="white"/>
<path d="M242.596 71.9022C242.618 71.8718 242.652 71.7885 242.587 71.6341L242.391 71.1166C242.365 71.0507 242.423 71.0105 242.462 71.054C242.462 71.054 242.832 71.4735 242.928 71.6485L243.111 71.9461C243.268 71.956 243.702 71.9676 244.119 71.9676C244.078 71.9273 244.039 71.8834 244.003 71.8359C243.291 70.9688 242.839 70.4863 242.834 70.4814C242.69 70.3274 242.623 70.2977 242.513 70.2484C242.497 70.2412 242.48 70.2336 242.462 70.2253V70.357C242.462 70.3743 242.441 70.3836 242.431 70.3652L241.383 68.5586L241.38 68.553C241.336 68.4682 241.272 68.3945 241.192 68.34L241.09 68.2695L240.591 69.4013C240.668 69.4013 240.721 69.4795 240.69 69.5497L240.228 70.5982H240.652C240.816 70.5982 240.978 70.6296 241.129 70.6906L241.241 70.7356C241.241 70.7356 240.904 71.4164 240.904 71.775C240.904 71.8404 240.915 71.9063 240.932 71.9678H241.709L241.673 71.7528C241.673 71.7528 242.14 71.8588 242.596 71.9022H242.596Z" fill="white"/>
<path d="M236.601 73.0055C236.601 72.305 235.845 71.968 234.946 71.968C233.985 71.968 233.103 72.3863 232.78 73.0348C232.691 73.2067 232.644 73.398 232.644 73.5926C232.641 73.7612 232.687 73.9267 232.78 74.066C232.918 74.267 233.166 74.3935 233.529 74.3935C233.975 74.3935 234.329 74.1535 234.329 73.7352C234.329 73.7352 234.335 73.6186 234.197 73.6186C234.084 73.6186 234.054 73.6964 234.058 73.7352C234.074 74.0627 233.876 74.3254 233.523 74.3254C233.126 74.3254 232.961 73.9946 232.961 73.6413C232.961 72.9182 233.516 72.4383 234.094 72.2307C234.365 72.1302 234.649 72.0815 234.94 72.0848C235.594 72.0848 236.129 72.3312 236.129 72.9929C236.129 73.5441 235.656 74.0142 235.092 74.0563L235.115 73.9818C235.23 73.5765 235.372 73.1324 235.603 72.8048C235.617 72.7852 235.64 72.7528 235.666 72.7204L235.633 72.6814C235.584 72.7105 235.537 72.7431 235.491 72.7786C234.408 73.6087 234.375 75.9434 232.931 75.9434C232.882 75.9434 232.832 75.9401 232.783 75.9337C232.482 75.885 232.323 75.6873 232.323 75.4118C232.323 75.3566 232.343 75.2819 232.343 75.2398C232.347 75.162 232.281 75.0939 232.201 75.0939H232.185C232.056 75.0939 232.003 75.1942 232 75.3371C231.99 75.7488 232.3 75.9888 232.779 76.0342C232.832 76.0375 232.885 76.0406 232.941 76.0406C234.068 76.0406 234.758 75.204 235.052 74.1892C235.2 74.1731 235.349 74.1405 235.491 74.0984C236.013 73.9556 236.601 73.612 236.601 73.0057L236.601 73.0055Z" fill="white"/>
<path d="M247.33 73.2488H246.933L246.844 73.4531L246.689 73.7967H246.504L246.448 73.9135H246.639L246.408 74.416C246.243 74.7693 245.985 75.1165 245.837 75.1165C245.804 75.1165 245.784 75.1035 245.784 75.0711C245.784 75.0387 245.794 75.0094 245.83 74.9186C245.876 74.8116 245.952 74.6558 246.009 74.5425C246.091 74.3772 246.223 74.1211 246.223 73.9946C246.223 73.8681 246.141 73.7676 245.979 73.7676C245.797 73.7676 245.632 73.8747 245.48 74.0301L245.579 73.7967H245.206L244.902 74.4775C244.78 74.7175 244.532 75.1165 244.377 75.1165C244.344 75.1165 244.331 75.0969 244.331 75.0647C244.334 75.0355 244.341 75.0095 244.354 74.9802C244.367 74.951 244.549 74.5328 244.549 74.5328L244.879 73.7903H244.476L244.156 74.5134C244.057 74.7371 243.805 75.1166 243.643 75.1166C243.617 75.1199 243.591 75.1004 243.587 75.0712V75.0582C243.587 75.0194 243.617 74.948 243.64 74.896L243.809 74.5328L244.156 73.7903H243.756L243.677 73.9589C243.617 74.0724 243.518 74.2053 243.36 74.2053C243.284 74.2053 243.247 74.1762 243.231 74.1469C243.208 73.8972 243.046 73.7643 242.808 73.7643C242.478 73.7643 242.243 73.9556 242.088 74.189C241.985 74.351 241.906 74.5229 241.85 74.7045C241.708 74.9348 241.56 75.1132 241.441 75.1132C241.411 75.1132 241.391 75.0969 241.391 75.0581C241.391 75.0192 241.431 74.9317 241.444 74.8991L241.705 74.3545C241.778 74.1859 241.827 74.0757 241.827 73.9655C241.827 73.8487 241.744 73.7645 241.609 73.7645C241.421 73.7645 241.216 73.8716 241.054 74.0466C241.06 74.0173 241.06 73.9915 241.06 73.9622C241.06 73.8326 240.994 73.7645 240.859 73.7645C240.687 73.7645 240.509 73.8652 240.347 74.0466L240.453 73.7936H240.089L239.782 74.4746C239.637 74.7957 239.402 75.1135 239.27 75.1135C239.24 75.1135 239.22 75.0972 239.22 75.0584C239.22 74.9969 239.29 74.8444 239.316 74.7829L239.723 73.8784C239.752 73.8103 239.557 73.7682 239.31 73.7682C239.062 73.7682 238.794 73.8914 238.603 74.0503C238.468 74.1605 238.368 74.2156 238.319 74.2156C238.292 74.2156 238.282 74.2026 238.282 74.1865C238.282 74.1314 238.418 73.9756 238.418 73.8557C238.418 73.8006 238.388 73.7649 238.312 73.7649C238.167 73.7649 237.995 73.9011 237.869 74.0437L237.975 73.794H237.618L237.311 74.475C237.166 74.7961 236.925 75.13 236.793 75.13C236.763 75.13 236.743 75.1139 236.743 75.0749C236.743 75.0134 236.809 74.8642 236.845 74.7862L237.252 73.8784C237.281 73.8103 237.087 73.7682 236.839 73.7682C236.472 73.7682 236.116 74.0113 235.927 74.261C235.719 74.5301 235.577 74.8155 235.574 75.0489C235.571 75.2369 235.67 75.3537 235.868 75.3537C236.089 75.3537 236.267 75.1818 236.37 75.0522C236.363 75.0782 236.36 75.1042 236.356 75.13C236.356 75.2596 236.409 75.3537 236.571 75.3537C236.713 75.3537 236.901 75.2369 237.053 75.0522L236.931 75.3279H237.318L237.698 74.4816C237.823 74.2059 237.965 74.0633 238.005 74.0633C238.018 74.0633 238.025 74.0699 238.025 74.0794C238.025 74.1087 237.965 74.1865 237.965 74.2577C237.965 74.3289 238.005 74.3842 238.111 74.3842C238.193 74.3842 238.286 74.3452 238.368 74.2934C238.173 74.5528 238.041 74.8252 238.041 75.0489C238.038 75.2369 238.137 75.3537 238.335 75.3537C238.543 75.3537 238.738 75.1591 238.844 75.0295C238.84 75.0586 238.837 75.0879 238.837 75.1203C238.837 75.2468 238.91 75.3537 239.058 75.3537C239.224 75.3537 239.356 75.2532 239.521 75.0555L239.399 75.3279H239.795L240.158 74.5204C240.317 74.1702 240.532 73.9822 240.637 73.9822C240.664 73.9789 240.687 73.9985 240.69 74.0245V74.0342C240.687 74.073 240.674 74.112 240.657 74.1477L240.135 75.3312H240.542L240.912 74.5076C241.07 74.1543 241.245 73.9824 241.377 73.9824C241.417 73.9824 241.433 74.002 241.433 74.0441C241.43 74.0895 241.417 74.1349 241.397 74.1739L241.04 74.9195C241.007 74.9909 240.988 75.0685 240.981 75.1465C240.981 75.26 241.043 75.3605 241.222 75.3605C241.453 75.3605 241.628 75.1886 241.826 74.9325V74.9876C241.843 75.1919 241.959 75.3702 242.266 75.3702C242.629 75.3702 242.923 75.1238 243.101 74.7315C243.168 74.592 243.214 74.4461 243.23 74.2936C243.27 74.3132 243.316 74.3229 243.359 74.3196C243.419 74.3196 243.478 74.3066 243.531 74.2773L243.468 74.4102C243.395 74.5594 243.316 74.7247 243.253 74.8642C243.214 74.9451 243.191 75.0359 243.184 75.1267C243.184 75.266 243.263 75.3667 243.425 75.3667C243.587 75.3667 243.808 75.2175 243.967 75.0068H243.97C243.96 75.0489 243.954 75.0943 243.954 75.1397C243.954 75.2565 243.99 75.3667 244.155 75.3667C244.347 75.3667 244.495 75.2305 244.641 75.0586L244.518 75.331H244.918L245.238 74.6176C245.42 74.2156 245.602 73.9723 245.77 73.9723C245.8 73.9723 245.823 73.9917 245.826 74.021V74.0307C245.826 74.0988 245.727 74.2837 245.638 74.4684C245.556 74.637 245.493 74.7666 245.45 74.8673C245.41 74.9515 245.387 75.0423 245.381 75.1364C245.381 75.2596 245.45 75.3537 245.605 75.3537C245.837 75.3537 246.071 75.1333 246.196 74.9678C246.167 75.0489 246.154 75.13 246.15 75.2142C246.15 75.4413 246.289 75.5548 246.484 75.5548C246.613 75.5548 246.738 75.5127 246.844 75.4381C246.996 75.3343 247.118 75.1787 247.22 75.0361L247.151 74.9711C247.055 75.1042 246.95 75.2305 246.841 75.3083C246.781 75.357 246.712 75.3829 246.636 75.3861C246.553 75.3861 246.5 75.3439 246.5 75.2402C246.5 75.1366 246.55 74.9969 246.626 74.8089C246.629 74.8058 246.738 74.5658 246.841 74.3355C246.926 74.1409 247.012 73.9529 247.029 73.9139H247.29L247.343 73.7971H247.085L247.329 73.2492L247.33 73.2488ZM236.063 75.1198C236.007 75.1198 235.967 75.1004 235.967 75.0289C235.97 74.8376 236.132 74.4971 236.334 74.2247C236.476 74.0367 236.661 73.8972 236.859 73.8972L236.608 74.4484C236.42 74.8636 236.215 75.1196 236.063 75.1196V75.1198ZM238.534 75.1198C238.477 75.1198 238.438 75.1004 238.435 75.0289C238.438 74.8376 238.6 74.4971 238.801 74.2247C238.943 74.0367 239.128 73.8972 239.326 73.8972L239.075 74.4484C238.884 74.8733 238.689 75.1196 238.534 75.1196V75.1198ZM242.92 74.0466C242.91 74.2573 242.722 74.7664 242.501 75.0712C242.412 75.1945 242.335 75.2302 242.269 75.2302C242.177 75.2302 242.15 75.1555 242.164 75.0452C242.183 74.8539 242.345 74.4065 242.57 74.0984C242.672 73.9589 242.742 73.9005 242.821 73.9005C242.901 73.9005 242.923 73.9653 242.92 74.0464V74.0466Z" fill="white"/>
<path d="M249.085 73.797L249.448 72.9724H249.018L248.654 73.797H247.739L247.586 74.143H248.502L248.138 74.9676H248.569L248.932 74.143H249.847L250 73.797H249.085Z" fill="white"/>
</g>
<circle cx="268" cy="71.0403" r="11" fill="white"/>
<g clip-path="url(#clip7_2773_1229)">
<path d="M267.994 76.4599C267.994 76.4599 272.583 76.4599 273.726 76.1481C274.368 75.9707 274.85 75.4632 275.015 74.8334C275.333 73.6777 275.333 71.2563 275.333 71.2563C275.333 71.2563 275.333 68.841 275.015 67.7037C274.844 67.0555 274.362 66.5602 273.726 66.389C272.589 66.071 267.994 66.071 267.994 66.071C267.994 66.071 263.41 66.071 262.274 66.389C261.644 66.5602 261.149 67.0555 260.972 67.7037C260.667 68.8471 260.667 71.2563 260.667 71.2563C260.667 71.2563 260.667 73.6777 260.972 74.8334C261.155 75.4632 261.644 75.9707 262.274 76.1481C263.404 76.4599 267.994 76.4599 267.994 76.4599Z" fill="#FF0033"/>
<path d="M266.321 73.3969L270.293 71.258L266.321 69.1191V73.3969Z" fill="white"/>
</g>
</g>
<defs>
<linearGradient id="paint0_linear_2773_1229" x1="241" y1="33.863" x2="241" y2="55.1755" gradientUnits="userSpaceOnUse">
<stop offset="0.23" stop-color="#002031"/>
<stop offset="1" stop-color="#00A9B0"/>
</linearGradient>
<radialGradient id="paint1_radial_2773_1229" cx="0" cy="0" r="1" gradientUnits="userSpaceOnUse" gradientTransform="translate(187 71.04) rotate(90) scale(10.6562)">
<stop offset="0.365" stop-color="#1F2733"/>
<stop offset="0.855" stop-color="#00030C"/>
</radialGradient>
<linearGradient id="paint2_linear_2773_1229" x1="212.64" y1="68.9055" x2="212.119" y2="68.9108" gradientUnits="userSpaceOnUse">
<stop stop-color="#80020E"/>
<stop offset="1" stop-color="#B10610"/>
</linearGradient>
<linearGradient id="paint3_linear_2773_1229" x1="215.51" y1="68.5696" x2="214.663" y2="68.5779" gradientUnits="userSpaceOnUse">
<stop stop-color="#B10610"/>
<stop offset="1" stop-color="#80020E"/>
</linearGradient>
<clipPath id="clip0_2773_1229">
<rect width="157" height="82.0409" fill="white" transform="translate(122 -0.000244141)"/>
</clipPath>
<clipPath id="clip1_2773_1229">
<rect width="18.8506" height="5.88255" fill="white" transform="translate(177.834 42.5701)"/>
</clipPath>
<clipPath id="clip2_2773_1229">
<rect width="22" height="22" fill="white" transform="translate(230 33.5198)"/>
</clipPath>
<clipPath id="clip3_2773_1229">
<rect width="22" height="22" fill="white" transform="translate(257 33.5198)"/>
</clipPath>
<clipPath id="clip4_2773_1229">
<rect width="22" height="22" fill="white" transform="translate(176 60.0405)"/>
</clipPath>
<clipPath id="clip5_2773_1229">
<rect width="22" height="22" fill="white" transform="translate(203 60.0403)"/>
</clipPath>
<clipPath id="clip6_2773_1229">
<rect width="18" height="11" fill="white" transform="translate(232 65.04)"/>
</clipPath>
<clipPath id="clip7_2773_1229">
<rect width="14.6667" height="14.6667" fill="white" transform="translate(260.667 63.9314)"/>
</clipPath>
</defs>
</svg>
