<svg width="279" height="72" viewBox="0 0 279 72" fill="none" xmlns="http://www.w3.org/2000/svg">
<path d="M6.376 41.5608C4.648 41.5608 2.944 41.0808 1.792 40.2888C1.528 40.1208 1.504 39.9288 1.864 39.1608L2.08 38.7288C2.464 37.9368 2.656 37.7688 2.92 37.9128C4 38.5128 5.104 38.8488 6.256 38.8488C7.984 38.8488 9.136 37.8888 9.136 36.2568C9.136 35.4888 8.896 34.7928 8.368 34.3368C7.768 33.8088 6.808 33.6168 5.272 33.6168H4.768C4.552 33.6168 4.456 33.4968 4.456 32.4408V32.2248C4.456 31.1688 4.552 31.0488 4.768 31.0488H5.368C6.616 31.0488 7.48 30.8328 7.984 30.4008C8.464 29.9928 8.752 29.3928 8.752 28.6488C8.752 27.3048 7.792 26.4888 6.496 26.4888C5.608 26.4888 4.768 26.7768 3.952 27.1848C3.664 27.3288 3.472 27.2808 3.064 26.5128L2.848 26.1048C2.464 25.3608 2.416 25.1688 2.776 24.9528C3.88 24.2568 5.416 23.8008 6.928 23.8008C10.12 23.8008 12.088 25.7688 12.088 28.4328C12.088 30.0408 11.104 31.4088 9.496 32.0808C11.392 32.6568 12.568 34.1208 12.568 36.2328C12.568 37.6968 12.088 38.9688 11.2 39.8808C10.168 40.9368 8.584 41.5608 6.376 41.5608ZM19.3186 41.5608C17.7106 41.5608 16.3906 41.1288 15.5506 40.5288C15.2146 40.2888 15.2626 40.0488 15.5506 39.4968L15.8626 38.8968C16.2226 38.2008 16.3906 38.1528 16.5826 38.2728C17.2786 38.6568 18.1186 38.8968 19.0066 38.8968C20.3506 38.8968 21.2146 38.3208 21.7666 37.2888C22.2466 36.3768 22.5346 35.0808 22.6546 33.4968C21.7906 34.1448 20.6146 34.6248 19.4146 34.6248C16.4866 34.6248 14.5426 32.6328 14.5426 29.6808C14.5426 26.5128 16.6786 23.8008 20.1826 23.8008C24.6466 23.8008 26.1346 27.0168 26.1346 31.4568C26.1346 34.7688 25.4146 37.4568 24.0706 39.2328C22.9426 40.7208 21.3346 41.5608 19.3186 41.5608ZM20.3266 32.0088C21.0946 32.0088 22.0546 31.6968 22.7266 31.2168C22.7026 27.9288 21.8866 26.4888 20.2546 26.4888C18.9106 26.4888 17.9026 27.6408 17.9026 29.3928C17.9026 31.1208 18.8146 32.0088 20.3266 32.0088ZM36.1122 41.5608C30.5682 41.5608 27.9042 38.2008 27.9042 32.6808C27.9042 27.2328 31.0962 23.8008 36.4722 23.8008C38.5362 23.8008 40.3362 24.2568 41.9442 25.3608C42.3042 25.6008 42.2802 25.7208 41.7522 26.5848L41.3682 27.2088C40.9122 27.9528 40.7922 27.9768 40.4562 27.7848C39.2802 27.0888 38.1522 26.7288 36.7362 26.7288C33.3042 26.7288 31.5042 28.7688 31.5042 32.6568C31.5042 36.6168 33.1842 38.6568 36.5202 38.6568C37.2642 38.6568 38.2722 38.5128 38.9682 38.3448V34.4088H35.9922C35.6802 34.4088 35.5602 34.3128 35.5602 33.0888V32.8968C35.5602 31.6248 35.6562 31.6248 35.9922 31.6248H41.3922C42.3522 31.6248 42.4242 31.6728 42.4242 32.0328V39.9288C42.4242 40.2408 42.4002 40.3128 42.2082 40.4088C40.8162 41.1048 38.2722 41.5608 36.1122 41.5608ZM46.8627 41.3208C45.8547 41.3208 45.8307 41.2488 45.8307 40.9608V24.4008C45.8307 24.0888 45.8787 24.0408 46.8627 24.0408H50.9427C55.1187 24.0408 57.5667 25.3608 57.5667 28.3608C57.5667 30.1368 56.6067 31.3368 55.0947 32.1048C57.3027 32.7048 58.5267 34.0968 58.5267 36.3528C58.5267 39.9048 55.6227 41.3208 51.3027 41.3208H46.8627ZM49.3347 31.1208H50.9667C52.9827 31.1208 54.0627 30.4488 54.0627 28.8648C54.0627 27.3288 53.0307 26.8008 51.0147 26.8008H49.3347V31.1208ZM49.3347 38.5848H51.3987C53.8467 38.5848 54.9747 37.8888 54.9747 36.1368C54.9747 34.3128 53.7747 33.7608 51.3987 33.7608H49.3347V38.5848Z" fill="#00B7F8"/>
<path d="M122.568 31.4387C122.148 31.4387 122.106 31.4107 122.106 31.2707V21.5127C122.106 21.3867 122.19 21.3587 122.694 21.3587H122.834C123.338 21.3587 123.45 21.3727 123.45 21.5127V30.3607H127.832C127.958 30.3607 128 30.4027 128 30.8507V30.9207C128 31.3687 127.958 31.4387 127.832 31.4387H122.568ZM130.186 22.6607C129.696 22.6607 129.304 22.2687 129.304 21.7787C129.304 21.2887 129.696 20.8967 130.186 20.8967C130.676 20.8967 131.068 21.2887 131.068 21.7787C131.068 22.2687 130.676 22.6607 130.186 22.6607ZM130.158 31.4387C129.598 31.4387 129.556 31.3827 129.556 31.2707V24.2147C129.556 24.1027 129.598 24.0467 130.158 24.0467H130.242C130.802 24.0467 130.816 24.1167 130.816 24.2147V31.2707C130.816 31.3687 130.802 31.4387 130.242 31.4387H130.158ZM135.495 31.5787C134.417 31.5787 133.591 31.3827 132.947 31.0887C132.919 31.0747 132.905 31.0047 132.905 30.9487V20.9667C132.905 20.8547 132.947 20.7987 133.507 20.7987H133.591C134.151 20.7987 134.165 20.8687 134.165 20.9667V24.7327C134.571 24.2567 135.425 23.9067 136.251 23.9067C137.371 23.9067 138.211 24.4947 138.659 25.4467C138.925 26.0207 139.079 26.7487 139.079 27.5467C139.079 30.0247 137.861 31.5787 135.495 31.5787ZM135.383 30.4867C136.979 30.4867 137.763 29.3247 137.763 27.6447C137.763 25.9647 137.161 25.0967 135.971 25.0967C135.453 25.0967 134.907 25.2927 134.585 25.6147C134.417 25.7827 134.263 26.0207 134.207 26.6227C134.179 27.0147 134.165 27.7007 134.165 28.5127V30.2487C134.515 30.3887 134.977 30.4867 135.383 30.4867ZM143.763 31.5787C141.495 31.5787 140.333 30.1647 140.333 27.9107C140.333 25.5587 141.621 23.9067 143.693 23.9067C144.939 23.9067 145.793 24.5227 146.255 25.4467C146.577 26.0907 146.717 26.8607 146.717 27.6867C146.717 28.1067 146.689 28.1907 146.577 28.1907H141.649C141.691 28.9607 141.915 29.5627 142.349 29.9267C142.727 30.2627 143.273 30.4307 144.001 30.4307C144.589 30.4307 145.177 30.2907 145.849 29.9827C145.975 29.9267 146.059 29.8987 146.199 30.2487L146.269 30.4167C146.423 30.7807 146.409 30.8647 146.297 30.9347C145.583 31.3547 144.701 31.5787 143.763 31.5787ZM141.691 27.1547H145.429C145.415 26.1047 144.883 25.0547 143.707 25.0547C142.685 25.0547 141.887 25.7127 141.691 27.1547ZM148.998 31.4387C148.438 31.4387 148.396 31.3827 148.396 31.2707V26.4967C148.396 25.5447 148.368 24.5647 148.368 24.2147C148.368 24.1027 148.41 24.0467 148.942 24.0467H149.012C149.516 24.0467 149.586 24.0887 149.586 24.2147L149.614 25.6567C150.146 24.4807 150.916 23.9627 151.658 23.9627C151.784 23.9627 151.882 23.9767 151.952 23.9907C152.078 24.0187 152.092 24.0607 152.092 24.3827V24.5927C152.092 24.9987 152.078 25.1107 151.938 25.1107C150.944 25.1107 150.44 25.7267 150.034 26.3847C149.838 26.7067 149.726 27.0987 149.698 27.5887C149.67 27.9807 149.656 28.8487 149.656 29.6607V31.2707C149.656 31.3687 149.642 31.4387 149.082 31.4387H148.998ZM155.757 31.5787C153.909 31.5787 152.761 30.1927 152.761 27.8967C152.761 25.7967 153.853 23.9067 156.163 23.9067C156.737 23.9067 157.395 24.1307 157.745 24.3687V20.9807C157.745 20.8407 157.871 20.7987 158.347 20.7987H158.431C158.879 20.7987 159.005 20.8407 159.005 20.9807V29.6887C159.005 30.3887 159.117 30.4447 159.495 30.4447C159.579 30.4447 159.621 30.5287 159.621 30.8227V30.9207C159.621 31.2567 159.579 31.3547 159.495 31.3827C159.299 31.4527 159.117 31.4667 158.879 31.4667C158.459 31.4667 158.081 31.2007 157.913 30.6547H157.899C157.549 31.1307 156.765 31.5787 155.757 31.5787ZM156.009 30.4587C156.485 30.4587 157.017 30.3047 157.339 29.9827C157.661 29.6607 157.745 29.1987 157.745 28.0227V25.5727C157.395 25.2787 156.793 25.0547 156.233 25.0547C154.917 25.0547 154.077 26.1607 154.077 27.8547C154.077 29.5767 154.917 30.4587 156.009 30.4587ZM163.878 31.5787C161.834 31.5787 160.882 29.8847 160.882 27.8687C160.882 25.4747 162.254 23.9067 164.102 23.9067C164.942 23.9067 165.6 24.2987 165.992 24.8027L166.062 24.2147C166.076 24.0467 166.146 24.0467 166.566 24.0467H166.594C167.126 24.0467 167.14 24.1027 167.14 24.2147C167.14 24.5507 167.112 25.4467 167.112 26.3427V28.3027C167.112 29.5907 167.168 30.5007 167.21 31.2707C167.21 31.3827 167.14 31.4387 166.706 31.4387H166.65C166.216 31.4387 166.132 31.3967 166.118 31.2707L166.034 30.6267C165.586 31.1727 164.788 31.5787 163.878 31.5787ZM164.102 30.4587C164.564 30.4587 165.124 30.3187 165.502 29.9127C165.796 29.5907 165.852 29.1987 165.852 27.9807V25.9927C165.53 25.4887 164.9 25.0407 164.242 25.0407C162.954 25.0407 162.198 26.1187 162.198 27.7987C162.198 29.1147 162.66 30.4587 164.102 30.4587ZM171.821 31.5787C169.973 31.5787 168.825 30.1927 168.825 27.8967C168.825 25.7967 169.917 23.9067 172.227 23.9067C172.801 23.9067 173.459 24.1307 173.809 24.3687V20.9807C173.809 20.8407 173.935 20.7987 174.411 20.7987H174.495C174.943 20.7987 175.069 20.8407 175.069 20.9807V29.6887C175.069 30.3887 175.181 30.4447 175.559 30.4447C175.643 30.4447 175.685 30.5287 175.685 30.8227V30.9207C175.685 31.2567 175.643 31.3547 175.559 31.3827C175.363 31.4527 175.181 31.4667 174.943 31.4667C174.523 31.4667 174.145 31.2007 173.977 30.6547H173.963C173.613 31.1307 172.829 31.5787 171.821 31.5787ZM172.073 30.4587C172.549 30.4587 173.081 30.3047 173.403 29.9827C173.725 29.6607 173.809 29.1987 173.809 28.0227V25.5727C173.459 25.2787 172.857 25.0547 172.297 25.0547C170.981 25.0547 170.141 26.1607 170.141 27.8547C170.141 29.5767 170.981 30.4587 172.073 30.4587ZM180.376 31.5787C178.108 31.5787 176.946 30.1647 176.946 27.9107C176.946 25.5587 178.234 23.9067 180.306 23.9067C181.552 23.9067 182.406 24.5227 182.868 25.4467C183.19 26.0907 183.33 26.8607 183.33 27.6867C183.33 28.1067 183.302 28.1907 183.19 28.1907H178.262C178.304 28.9607 178.528 29.5627 178.962 29.9267C179.34 30.2627 179.886 30.4307 180.614 30.4307C181.202 30.4307 181.79 30.2907 182.462 29.9827C182.588 29.9267 182.672 29.8987 182.812 30.2487L182.882 30.4167C183.036 30.7807 183.022 30.8647 182.91 30.9347C182.196 31.3547 181.314 31.5787 180.376 31.5787ZM178.304 27.1547H182.042C182.028 26.1047 181.496 25.0547 180.32 25.0547C179.298 25.0547 178.5 25.7127 178.304 27.1547ZM191.73 23.9067C193.578 23.9067 194.712 25.2927 194.712 27.5887C194.712 29.6887 193.606 31.5647 191.296 31.5647C190.75 31.5647 190.12 31.3687 189.77 31.1307V34.5047C189.77 34.6447 189.644 34.6867 189.168 34.6867H189.084C188.636 34.6867 188.51 34.6447 188.51 34.5047V26.4967C188.51 25.5447 188.482 24.5647 188.482 24.2147C188.482 24.1027 188.524 24.0467 189.056 24.0467H189.112C189.616 24.0467 189.7 24.0887 189.7 24.2147L189.714 24.8307C190.148 24.2847 190.974 23.9067 191.73 23.9067ZM191.226 30.4307C192.542 30.4307 193.396 29.3247 193.396 27.6307C193.396 25.9367 192.612 25.0407 191.52 25.0407C190.96 25.0407 190.316 25.2927 190.036 25.6567C189.784 25.9787 189.77 26.3427 189.77 27.7287V29.8987C190.12 30.1927 190.666 30.4307 191.226 30.4307ZM198.974 31.5787C196.93 31.5787 195.978 29.8847 195.978 27.8687C195.978 25.4747 197.35 23.9067 199.198 23.9067C200.038 23.9067 200.696 24.2987 201.088 24.8027L201.158 24.2147C201.172 24.0467 201.242 24.0467 201.662 24.0467H201.69C202.222 24.0467 202.236 24.1027 202.236 24.2147C202.236 24.5507 202.208 25.4467 202.208 26.3427V28.3027C202.208 29.5907 202.264 30.5007 202.306 31.2707C202.306 31.3827 202.236 31.4387 201.802 31.4387H201.746C201.312 31.4387 201.228 31.3967 201.214 31.2707L201.13 30.6267C200.682 31.1727 199.884 31.5787 198.974 31.5787ZM199.198 30.4587C199.66 30.4587 200.22 30.3187 200.598 29.9127C200.892 29.5907 200.948 29.1987 200.948 27.9807V25.9927C200.626 25.4887 199.996 25.0407 199.338 25.0407C198.05 25.0407 197.294 26.1187 197.294 27.7987C197.294 29.1147 197.756 30.4587 199.198 30.4587ZM204.971 31.4387C204.411 31.4387 204.369 31.3827 204.369 31.2707V26.4967C204.369 25.5447 204.341 24.5647 204.341 24.2147C204.341 24.1027 204.383 24.0467 204.915 24.0467H204.985C205.489 24.0467 205.559 24.0887 205.559 24.2147L205.587 25.6567C206.119 24.4807 206.889 23.9627 207.631 23.9627C207.757 23.9627 207.855 23.9767 207.925 23.9907C208.051 24.0187 208.065 24.0607 208.065 24.3827V24.5927C208.065 24.9987 208.051 25.1107 207.911 25.1107C206.917 25.1107 206.413 25.7267 206.007 26.3847C205.811 26.7067 205.699 27.0987 205.671 27.5887C205.643 27.9807 205.629 28.8487 205.629 29.6607V31.2707C205.629 31.3687 205.615 31.4387 205.055 31.4387H204.971ZM211.73 31.5787C209.686 31.5787 208.734 29.8847 208.734 27.8687C208.734 25.4747 210.106 23.9067 211.954 23.9067C212.794 23.9067 213.452 24.2987 213.844 24.8027L213.914 24.2147C213.928 24.0467 213.998 24.0467 214.418 24.0467H214.446C214.978 24.0467 214.992 24.1027 214.992 24.2147C214.992 24.5507 214.964 25.4467 214.964 26.3427V28.3027C214.964 29.5907 215.02 30.5007 215.062 31.2707C215.062 31.3827 214.992 31.4387 214.558 31.4387H214.502C214.068 31.4387 213.984 31.3967 213.97 31.2707L213.886 30.6267C213.438 31.1727 212.64 31.5787 211.73 31.5787ZM211.954 30.4587C212.416 30.4587 212.976 30.3187 213.354 29.9127C213.648 29.5907 213.704 29.1987 213.704 27.9807V25.9927C213.382 25.4887 212.752 25.0407 212.094 25.0407C210.806 25.0407 210.05 26.1187 210.05 27.7987C210.05 29.1147 210.512 30.4587 211.954 30.4587ZM223.607 31.5787C221.339 31.5787 220.177 30.1647 220.177 27.9107C220.177 25.5587 221.465 23.9067 223.537 23.9067C224.783 23.9067 225.637 24.5227 226.099 25.4467C226.421 26.0907 226.561 26.8607 226.561 27.6867C226.561 28.1067 226.533 28.1907 226.421 28.1907H221.493C221.535 28.9607 221.759 29.5627 222.193 29.9267C222.571 30.2627 223.117 30.4307 223.845 30.4307C224.433 30.4307 225.021 30.2907 225.693 29.9827C225.819 29.9267 225.903 29.8987 226.043 30.2487L226.113 30.4167C226.267 30.7807 226.253 30.8647 226.141 30.9347C225.427 31.3547 224.545 31.5787 223.607 31.5787ZM221.535 27.1547H225.273C225.259 26.1047 224.727 25.0547 223.551 25.0547C222.529 25.0547 221.731 25.7127 221.535 27.1547ZM230.158 31.5787C229.262 31.5787 228.394 31.2567 227.862 30.8787C227.722 30.7807 227.764 30.6967 227.918 30.3747L227.988 30.2207C228.17 29.8287 228.226 29.8147 228.408 29.9267C228.94 30.2347 229.612 30.4867 230.228 30.4867C230.872 30.4867 231.768 30.1647 231.768 29.3527C231.768 28.5967 230.872 28.3447 230.158 28.1907C229.416 28.0227 228.87 27.8267 228.492 27.4767C228.142 27.1547 227.932 26.6647 227.932 26.1187C227.932 24.7467 229.122 23.9067 230.522 23.9067C231.404 23.9067 232.216 24.2147 232.734 24.6767C232.846 24.7747 232.874 24.9007 232.678 25.1807L232.58 25.3207C232.328 25.6847 232.258 25.6847 232.16 25.6007C231.642 25.2367 231.152 24.9847 230.536 24.9847C229.962 24.9847 229.136 25.2087 229.136 25.9787C229.136 26.7347 229.92 26.9307 230.592 27.0987C231.74 27.3927 232.958 27.8127 232.958 29.2687C232.958 30.7667 231.698 31.5787 230.158 31.5787ZM237.41 31.5787C235.268 31.5787 234.204 29.9407 234.204 27.8547C234.204 25.2927 235.702 23.9067 237.648 23.9067C238.53 23.9067 239.314 24.2147 239.902 24.6347C240.014 24.7187 240.014 24.8167 239.818 25.2787C239.608 25.7547 239.468 25.7127 239.37 25.6427C238.852 25.2927 238.278 25.0547 237.718 25.0547C236.416 25.0547 235.52 26.0347 235.52 27.7707C235.52 29.1147 236.066 30.4307 237.578 30.4307C238.166 30.4307 238.81 30.2627 239.356 29.9967C239.468 29.9407 239.608 29.9827 239.72 30.2767L239.79 30.4587C239.93 30.7947 239.888 30.8927 239.79 30.9487C239.09 31.3407 238.278 31.5787 237.41 31.5787ZM244.232 31.5787C243.378 31.5787 242.664 31.3547 242.132 30.8787C241.432 30.2627 241.026 29.2267 241.026 27.9107C241.026 25.2647 242.412 23.9067 244.512 23.9067C245.366 23.9067 246.08 24.1307 246.612 24.6067C247.312 25.2227 247.718 26.2587 247.718 27.5747C247.718 30.2207 246.332 31.5787 244.232 31.5787ZM244.288 30.4587C245.408 30.4587 246.402 29.6747 246.402 27.6727C246.402 26.4127 245.982 25.0267 244.456 25.0267C243.336 25.0267 242.342 25.8107 242.342 27.8127C242.342 29.0727 242.762 30.4587 244.288 30.4587ZM250.636 31.4527C250.244 31.4527 249.852 31.3547 249.6 30.9767C249.418 30.7107 249.362 30.2487 249.362 29.5067V24.8167C249.362 23.3467 249.348 21.5267 249.278 20.9807C249.264 20.8407 249.404 20.7987 249.88 20.7987H249.964C250.412 20.7987 250.51 20.8407 250.538 20.9807C250.608 21.3727 250.622 23.0527 250.622 25.1247V29.7727C250.622 30.2907 250.692 30.4727 251.154 30.4727H251.294C251.364 30.4727 251.378 30.5287 251.378 30.8507V30.8927C251.378 31.2567 251.378 31.3127 251.294 31.3407C251.098 31.4107 250.846 31.4527 250.636 31.4527ZM253.602 31.4387C253.042 31.4387 253 31.3827 253 31.2707V20.9667C253 20.8687 253.014 20.7987 253.574 20.7987H253.658C254.218 20.7987 254.26 20.8547 254.26 20.9667V24.8027C254.75 24.2567 255.66 23.9067 256.5 23.9067C257.27 23.9067 257.956 24.1727 258.418 24.6487C258.922 25.1667 259.132 25.8947 259.132 27.0287V31.2707C259.132 31.3687 259.118 31.4387 258.558 31.4387H258.474C257.914 31.4387 257.872 31.3827 257.872 31.2707V27.6167C257.872 26.4827 257.83 25.9507 257.494 25.5587C257.228 25.2367 256.78 25.0967 256.164 25.0967C255.646 25.0967 255.016 25.2787 254.68 25.6007C254.512 25.7547 254.358 25.9927 254.302 26.5947C254.274 26.9867 254.26 27.7007 254.26 28.5127V31.2707C254.26 31.3687 254.246 31.4387 253.686 31.4387H253.602ZM264.171 31.5787C261.903 31.5787 260.741 30.1647 260.741 27.9107C260.741 25.5587 262.029 23.9067 264.101 23.9067C265.347 23.9067 266.201 24.5227 266.663 25.4467C266.985 26.0907 267.125 26.8607 267.125 27.6867C267.125 28.1067 267.097 28.1907 266.985 28.1907H262.057C262.099 28.9607 262.323 29.5627 262.757 29.9267C263.135 30.2627 263.681 30.4307 264.409 30.4307C264.997 30.4307 265.585 30.2907 266.257 29.9827C266.383 29.9267 266.467 29.8987 266.607 30.2487L266.677 30.4167C266.831 30.7807 266.817 30.8647 266.705 30.9347C265.991 31.3547 265.109 31.5787 264.171 31.5787ZM262.099 27.1547H265.837C265.823 26.1047 265.291 25.0547 264.115 25.0547C263.093 25.0547 262.295 25.7127 262.099 27.1547ZM269.407 31.4387C268.847 31.4387 268.805 31.3827 268.805 31.2707V26.4967C268.805 25.5447 268.777 24.5647 268.777 24.2147C268.777 24.1027 268.819 24.0467 269.351 24.0467H269.421C269.925 24.0467 269.995 24.0887 269.995 24.2147L270.023 25.6567C270.555 24.4807 271.325 23.9627 272.067 23.9627C272.193 23.9627 272.291 23.9767 272.361 23.9907C272.487 24.0187 272.501 24.0607 272.501 24.3827V24.5927C272.501 24.9987 272.487 25.1107 272.347 25.1107C271.353 25.1107 270.849 25.7267 270.443 26.3847C270.247 26.7067 270.135 27.0987 270.107 27.5887C270.079 27.9807 270.065 28.8487 270.065 29.6607V31.2707C270.065 31.3687 270.051 31.4387 269.491 31.4387H269.407ZM274.494 26.3567C273.976 26.3567 273.556 25.9367 273.556 25.4187C273.556 24.9007 273.976 24.4807 274.494 24.4807C275.012 24.4807 275.432 24.9007 275.432 25.4187C275.432 25.9367 275.012 26.3567 274.494 26.3567ZM274.494 31.5787C273.976 31.5787 273.556 31.1587 273.556 30.6407C273.556 30.1227 273.976 29.7027 274.494 29.7027C275.012 29.7027 275.432 30.1227 275.432 30.6407C275.432 31.1587 275.012 31.5787 274.494 31.5787Z" fill="white"/>
<path d="M130.576 45.0569C130.833 45.0171 131.111 44.9817 131.195 44.9685C131.279 44.9596 131.859 44.9552 132.478 44.964C133.398 44.9729 133.703 44.9906 134.137 45.0702C134.429 45.1232 134.836 45.2073 135.043 45.2559C135.251 45.309 135.649 45.424 135.928 45.5168C136.207 45.6097 136.653 45.7866 136.923 45.906C137.193 46.021 137.627 46.2465 137.896 46.3968C138.166 46.5516 138.542 46.786 138.737 46.9231C138.931 47.0557 139.29 47.3299 139.533 47.5289C139.776 47.7279 140.205 48.1303 140.484 48.4178C140.763 48.7096 141.143 49.143 141.324 49.3862C141.506 49.6295 141.78 50.0275 141.935 50.2707C142.085 50.5139 142.337 50.9694 142.492 51.2878C142.651 51.6062 142.864 52.1103 142.974 52.4154C143.085 52.7206 143.235 53.2159 143.306 53.521C143.381 53.8261 143.478 54.2905 143.523 54.5602C143.585 54.9494 143.602 55.2943 143.602 56.2849C143.602 57.386 143.589 57.5894 143.496 58.098C143.443 58.4119 143.346 58.863 143.288 59.093C143.226 59.3229 143.111 59.7121 143.027 59.9553C142.943 60.1985 142.78 60.6142 142.66 60.8839C142.541 61.1537 142.32 61.5871 142.169 61.8568C142.014 62.1266 141.78 62.5025 141.643 62.697C141.51 62.8916 141.236 63.2498 141.037 63.493C140.838 63.7363 140.435 64.1652 140.148 64.4438C139.856 64.7224 139.422 65.1027 139.179 65.284C138.936 65.4653 138.538 65.7395 138.294 65.8943C138.051 66.0446 137.591 66.2967 137.277 66.4515C136.963 66.6107 136.454 66.823 136.149 66.9335C135.844 67.0441 135.349 67.1944 135.043 67.2652C134.738 67.3403 134.274 67.4376 134.004 67.4819C133.615 67.5438 133.27 67.5615 132.279 67.5615C131.178 67.5615 130.974 67.5482 130.466 67.4553C130.147 67.4023 129.7 67.305 129.47 67.2475C129.24 67.1856 128.851 67.0706 128.608 66.9866C128.365 66.9025 127.949 66.7389 127.679 66.6195C127.409 66.5001 126.976 66.279 126.706 66.1287C126.44 65.9739 126.06 65.7395 125.865 65.6024C125.671 65.4698 125.313 65.1956 125.069 64.9966C124.826 64.7976 124.397 64.3952 124.118 64.1077C123.84 63.8159 123.459 63.3825 123.278 63.1393C123.097 62.896 122.822 62.498 122.668 62.2548C122.517 62.0116 122.265 61.5517 122.11 61.2377C121.951 60.9237 121.739 60.4152 121.628 60.1101C121.518 59.8049 121.367 59.3096 121.296 59.0045C121.221 58.6994 121.124 58.2351 121.08 57.9653C121.018 57.5761 121 57.2312 121 56.2406C121 55.1395 121.013 54.9361 121.106 54.4275C121.159 54.1091 121.257 53.6625 121.314 53.4325C121.376 53.2026 121.491 52.8134 121.575 52.5702C121.659 52.327 121.823 51.9113 121.942 51.6416C122.062 51.3718 122.283 50.9384 122.433 50.6687C122.588 50.4033 122.822 50.023 122.959 49.8285C123.092 49.6339 123.366 49.2757 123.565 49.0325C123.764 48.7892 124.167 48.3603 124.454 48.0817C124.746 47.8031 125.18 47.4228 125.423 47.2415C125.666 47.0602 126.064 46.786 126.308 46.6312C126.551 46.4809 127.007 46.2288 127.325 46.074C127.644 45.9148 128.148 45.7026 128.453 45.592C128.758 45.4814 129.254 45.3311 129.559 45.2603C129.864 45.1852 130.32 45.0923 130.576 45.0569Z" fill="white"/>
<path d="M128.442 47.7513C128.488 47.6286 128.586 47.4567 128.658 47.3749C128.764 47.2481 128.819 47.2195 128.938 47.2195C129.035 47.2195 129.116 47.2522 129.188 47.3218C129.247 47.379 129.349 47.5386 129.417 47.6817C129.484 47.8208 129.586 48.1276 129.65 48.3649C129.709 48.6022 129.785 48.9703 129.819 49.1831C129.853 49.3958 129.879 49.5267 129.883 49.4694C129.883 49.4121 129.942 49.1544 130.006 48.8967C130.073 48.639 130.179 48.3281 130.243 48.2135C130.302 48.0949 130.391 47.9804 130.438 47.9558C130.485 47.9354 130.561 47.9231 130.607 47.9354C130.654 47.9476 130.735 48.0172 130.785 48.0908C130.836 48.1604 130.925 48.3526 130.98 48.5081C131.031 48.6676 131.124 49.044 131.184 49.3467C131.239 49.6494 131.311 50.1485 131.387 51.0035L131.519 50.6148C131.591 50.4021 131.705 50.1362 131.773 50.0217C131.841 49.9112 131.947 49.768 132.014 49.7067C132.091 49.633 132.18 49.5921 132.26 49.5921C132.332 49.5921 132.438 49.6167 132.502 49.6494C132.57 49.678 132.671 49.7762 132.735 49.8621C132.798 49.9521 132.892 50.1158 132.942 50.2262C132.998 50.3408 133.078 50.5698 133.222 51.0444L133.252 50.6353C133.269 50.4103 133.32 49.9767 133.366 49.674C133.417 49.3712 133.493 48.9826 133.536 48.8149C133.582 48.6472 133.676 48.3935 133.743 48.2545C133.815 48.1113 133.909 47.9804 133.955 47.9558C134.012 47.9286 134.075 47.9286 134.146 47.9558C134.21 47.9804 134.294 48.0785 134.354 48.1931C134.409 48.2994 134.489 48.4958 134.527 48.6308C134.57 48.7658 134.638 49.0317 134.68 49.224C134.722 49.4162 134.756 49.5185 134.756 49.449C134.761 49.3835 134.799 49.1176 134.845 48.8681C134.892 48.6144 134.981 48.2545 135.04 48.0704C135.104 47.8822 135.193 47.6572 135.239 47.5672C135.286 47.4772 135.371 47.3627 135.422 47.3136C135.485 47.2522 135.57 47.2195 135.672 47.2195C135.786 47.2195 135.845 47.2481 135.934 47.3545C135.994 47.424 136.087 47.5795 136.138 47.6899C136.189 47.8045 136.282 48.0785 136.341 48.3035C136.405 48.5285 136.456 48.7576 136.456 48.8149C136.46 48.8722 136.502 48.7781 136.553 48.6103C136.604 48.4426 136.689 48.2381 136.735 48.1604C136.795 48.0581 136.854 48.0131 136.935 48.009C137.019 48.0008 137.074 48.0295 137.138 48.1113C137.185 48.1726 137.261 48.3404 137.303 48.4876C137.35 48.6349 137.413 48.909 137.447 49.1012C137.481 49.2935 137.532 49.7639 137.562 50.1444C137.591 50.5535 137.6 51.1262 137.587 51.5353C137.57 51.9157 137.541 52.4148 137.515 52.6398C137.49 52.8648 137.43 53.2166 137.384 53.417C137.341 53.6175 137.257 53.8834 137.197 54.002C137.13 54.1411 137.057 54.2229 136.994 54.2393C136.93 54.2556 136.871 54.2311 136.803 54.1656C136.748 54.1125 136.685 54.002 136.655 53.9161C136.625 53.8343 136.591 53.777 136.579 53.7934C136.566 53.8138 136.528 53.9938 136.502 54.1943C136.473 54.3947 136.401 54.7383 136.346 54.9511C136.29 55.1638 136.184 55.4542 136.117 55.5974C136.045 55.7365 135.943 55.896 135.884 55.9533C135.824 56.0106 135.731 56.0556 135.663 56.0556C135.578 56.0597 135.502 56.0147 135.392 55.9042C135.311 55.8183 135.201 55.6383 135.146 55.5033C135.091 55.3683 135.015 55.127 134.896 54.6852L134.871 54.9306C134.854 55.0656 134.803 55.442 134.756 55.7692C134.71 56.0965 134.625 56.5342 134.57 56.7428C134.511 56.9474 134.43 57.1887 134.383 57.2746C134.341 57.3564 134.273 57.4587 134.235 57.4996C134.193 57.5364 134.104 57.5692 134.036 57.5692C133.938 57.5692 133.892 57.5364 133.811 57.4178C133.756 57.3319 133.659 57.111 133.599 56.9269C133.54 56.7387 133.489 56.5465 133.489 56.4974C133.489 56.4442 133.485 56.4115 133.472 56.4237C133.464 56.436 133.421 56.6283 133.383 56.8533C133.349 57.0783 133.269 57.4546 133.209 57.6919C133.15 57.9292 133.048 58.2482 132.981 58.4078C132.913 58.5673 132.798 58.7719 132.726 58.87C132.659 58.9641 132.536 59.0705 132.459 59.1073C132.387 59.1441 132.286 59.1646 132.239 59.1523C132.192 59.14 132.099 59.0868 132.031 59.0337C131.964 58.9805 131.866 58.8741 131.815 58.7964C131.764 58.7187 131.675 58.5346 131.612 58.3873C131.552 58.2401 131.463 57.9742 131.413 57.7942C131.366 57.6142 131.29 57.246 131.243 56.976C131.196 56.706 131.158 56.4687 131.154 56.4442C131.154 56.4197 131.116 56.5424 131.069 56.7101C131.027 56.8778 130.925 57.1355 130.849 57.2828C130.76 57.4587 130.684 57.5528 130.629 57.561C130.582 57.5692 130.506 57.5651 130.459 57.5569C130.412 57.5446 130.323 57.4464 130.26 57.336C130.196 57.2296 130.099 56.9637 130.04 56.751C129.976 56.5383 129.891 56.1128 129.849 55.8101C129.802 55.5074 129.751 55.127 129.709 54.6852L129.65 54.9102C129.616 55.0329 129.544 55.2661 129.484 55.4215C129.429 55.577 129.315 55.7856 129.23 55.8838C129.12 56.0106 129.052 56.0556 128.963 56.0556C128.9 56.0556 128.806 56.0269 128.751 55.9942C128.7 55.9615 128.603 55.8224 128.531 55.6874C128.459 55.5524 128.357 55.2824 128.298 55.0861C128.238 54.8856 128.154 54.5133 128.107 54.2556C128.06 53.9979 128.014 53.777 128.005 53.7647C127.993 53.7525 127.976 53.7975 127.963 53.867C127.946 53.9365 127.887 54.0511 127.819 54.1288C127.73 54.2352 127.683 54.2597 127.607 54.2393C127.556 54.227 127.476 54.1452 127.429 54.0511C127.382 53.9611 127.306 53.7525 127.259 53.5929C127.213 53.4293 127.149 53.0734 127.111 52.8034C127.073 52.5334 127.035 51.9648 127.018 51.5353C127.005 51.073 127.014 50.4921 127.043 50.1035C127.073 49.7435 127.124 49.2935 127.158 49.1012C127.192 48.909 127.255 48.6349 127.302 48.4876C127.344 48.3404 127.421 48.1726 127.467 48.1113C127.531 48.0295 127.586 48.0008 127.671 48.009C127.751 48.0131 127.81 48.0581 127.87 48.1604C127.916 48.2381 128.001 48.4426 128.052 48.6103C128.103 48.7781 128.145 48.8803 128.145 48.8353C128.149 48.7903 128.196 48.5776 128.251 48.3649C128.306 48.1522 128.391 47.874 128.442 47.7513Z" fill="#A238FF"/>
<path fill-rule="evenodd" clip-rule="evenodd" d="M125.522 60.3508H126.234C126.624 60.3508 127.009 60.3672 127.09 60.3917C127.171 60.4122 127.332 60.4899 127.446 60.5636C127.582 60.6495 127.696 60.7722 127.772 60.9031C127.84 61.0176 127.904 61.2058 127.921 61.3326C127.938 61.4881 127.929 61.6272 127.882 61.7826C127.84 61.9217 127.751 62.0771 127.649 62.1917C127.552 62.3021 127.395 62.4167 127.255 62.478C127.043 62.568 126.971 62.5803 125.522 62.6008V60.3508ZM126.454 61.9871C126.666 61.9912 126.772 61.9585 126.827 61.9176C126.887 61.8726 126.942 61.7662 126.967 61.6599C126.988 61.5576 126.997 61.394 126.98 61.2917C126.963 61.1894 126.912 61.0749 126.87 61.034C126.823 60.9931 126.73 60.9644 126.624 60.9644H126.454V61.9871ZM131.828 63.0098C131.9 63.0098 132.014 63.0303 132.082 63.0548C132.146 63.0753 132.252 63.1448 132.315 63.2062C132.383 63.2676 132.472 63.3821 132.514 63.4598C132.557 63.5376 132.616 63.7298 132.642 63.8894C132.68 64.1103 132.68 64.2371 132.642 64.4416C132.616 64.5889 132.561 64.7648 132.527 64.8302C132.493 64.8957 132.413 65.0061 132.349 65.0675C132.29 65.133 132.188 65.2107 132.125 65.2434C132.057 65.2761 131.917 65.3007 131.807 65.3007C131.654 65.2966 131.561 65.268 131.434 65.1861C131.324 65.1084 131.222 64.9898 131.137 64.8261C131.04 64.6421 131.01 64.5152 130.993 64.278C130.985 64.1103 130.997 63.8771 131.027 63.7666C131.052 63.6521 131.137 63.4721 131.209 63.3657C131.294 63.243 131.408 63.1407 131.519 63.0917C131.612 63.0467 131.752 63.0098 131.828 63.0098V63.0098ZM131.557 63.5948C131.493 63.7012 131.48 63.8116 131.48 64.1553C131.48 64.4825 131.497 64.6175 131.552 64.7198C131.591 64.7893 131.667 64.8711 131.722 64.8957C131.773 64.9202 131.858 64.9284 131.913 64.9161C131.968 64.8998 132.04 64.8221 132.091 64.7198C132.154 64.5848 132.175 64.4539 132.175 64.1634C132.175 63.8934 132.154 63.738 132.103 63.6194C132.061 63.5253 131.993 63.4312 131.955 63.4148C131.913 63.3944 131.853 63.378 131.828 63.378C131.798 63.378 131.743 63.3985 131.705 63.423C131.667 63.4435 131.603 63.5212 131.557 63.5948V63.5948ZM129.209 63.0507H129.654L130.29 64.2984L130.307 63.0507H130.735L130.713 65.2802L130.544 65.2925C130.442 65.3007 130.357 65.2843 130.328 65.2516C130.298 65.223 130.226 65.0798 130.162 64.9325C130.099 64.7852 129.968 64.503 129.874 64.3066C129.777 64.1103 129.684 63.9466 129.667 63.9507C129.645 63.9507 129.628 64.2493 129.612 65.2802H129.23L129.209 63.0507ZM133.214 63.0507L133.337 63.7953C133.404 64.2084 133.472 64.5725 133.493 64.6052C133.523 64.6584 133.532 64.6584 133.549 64.6052C133.561 64.5725 133.621 64.2575 133.68 63.9098C133.743 63.5621 133.799 63.2267 133.811 63.1612C133.828 63.0548 133.841 63.0507 134.316 63.0507L134.455 63.8362C134.532 64.2698 134.604 64.6339 134.616 64.6462C134.625 64.6584 134.642 64.6584 134.655 64.6462C134.663 64.6339 134.722 64.3312 134.782 63.9712C134.841 63.6112 134.9 63.2553 134.909 63.1817C134.93 63.0507 134.934 63.0507 135.396 63.0507L135.371 63.1857C135.358 63.2553 135.261 63.7298 135.159 64.2371C135.053 64.7443 134.951 65.1902 134.93 65.2311C134.9 65.2843 134.837 65.3007 134.667 65.3007C134.544 65.3007 134.422 65.2843 134.396 65.268C134.366 65.2516 134.294 64.953 134.231 64.6052C134.171 64.2575 134.112 63.9425 134.099 63.9098C134.091 63.8771 134.074 63.8566 134.066 63.8689C134.053 63.8812 133.994 64.1839 133.93 64.5439C133.871 64.9039 133.799 65.223 133.773 65.2516C133.743 65.2843 133.638 65.3048 133.51 65.3007C133.396 65.3007 133.277 65.2843 133.252 65.268C133.226 65.2516 133.146 64.9816 133.074 64.6666C133.002 64.3516 132.904 63.8812 132.858 63.6235C132.807 63.3657 132.769 63.1285 132.769 63.0998C132.769 63.0671 132.845 63.0507 133.214 63.0507V63.0507Z" fill="black"/>
<path d="M126.212 49.8377C126.255 49.6904 126.318 49.5309 126.352 49.4818C126.386 49.4286 126.441 49.3877 126.475 49.3877C126.509 49.3877 126.577 49.4368 126.623 49.5022C126.67 49.5636 126.742 49.7436 126.776 49.899C126.823 50.0913 126.844 50.3818 126.848 50.799C126.848 51.2285 126.827 51.4944 126.776 51.6908C126.738 51.8422 126.678 52.0181 126.645 52.0876C126.606 52.1612 126.547 52.2103 126.496 52.2103C126.45 52.2103 126.382 52.1694 126.348 52.1203C126.314 52.0672 126.25 51.9158 126.212 51.7808C126.157 51.5926 126.14 51.3676 126.14 50.8195C126.136 50.2549 126.153 50.0463 126.212 49.8377Z" fill="#A238FF"/>
<path d="M137.824 49.9195C137.862 49.7518 137.934 49.5595 137.985 49.4981C138.036 49.4368 138.108 49.3877 138.146 49.3959C138.184 49.4041 138.252 49.4818 138.295 49.5718C138.341 49.6618 138.4 49.8745 138.43 50.0422C138.46 50.2099 138.489 50.5413 138.489 50.7786C138.489 51.0158 138.46 51.3717 138.426 51.5763C138.388 51.7808 138.324 51.9976 138.282 52.0672C138.244 52.1367 138.167 52.194 138.117 52.2022C138.044 52.2062 138.002 52.1735 137.943 52.059C137.9 51.9731 137.837 51.7849 137.807 51.6376C137.782 51.4904 137.756 51.114 137.756 50.799C137.752 50.4104 137.777 50.1281 137.824 49.9195Z" fill="#A238FF"/>
<path fill-rule="evenodd" clip-rule="evenodd" d="M128.065 60.3508H129.972V60.9644H128.955V61.2099H129.93V61.7008H128.955V61.9871H129.972V62.6008H128.065V60.3508ZM130.184 60.3508H132.134L132.113 60.944L131.117 60.9644V61.2099H132.091V61.7008H131.117V61.9871H132.134V62.6008L130.206 62.5803L130.184 60.3508ZM132.346 60.3508H134.38V60.9644L134.143 61.1608C134.011 61.2672 133.791 61.4758 133.655 61.6272C133.52 61.7826 133.405 61.9217 133.405 61.9462C133.405 61.9708 133.596 61.9871 134.38 61.9871V62.6008H132.346V62.2817C132.346 61.9749 132.346 61.9626 132.528 61.7212C132.63 61.5862 132.837 61.3613 133.257 60.9644H132.346V60.3508ZM134.592 60.3508H136.499V60.9644H135.482V61.2099H136.456V61.7008H135.482V61.9871H136.499V62.6008H134.592V60.3508ZM136.711 60.3508H137.529C137.999 60.3508 138.414 60.3713 138.512 60.3958C138.609 60.4245 138.753 60.5104 138.851 60.6045C139.012 60.7599 139.02 60.7804 138.999 60.9644C138.986 61.1117 138.948 61.1935 138.851 61.2876C138.783 61.3572 138.686 61.4226 138.639 61.4349C138.563 61.4513 138.575 61.4922 138.821 61.9749C138.965 62.2612 139.088 62.523 139.084 62.5476C139.084 62.5885 138.957 62.6008 138.088 62.6049L138.008 62.4085C137.965 62.3021 137.868 62.1017 137.664 61.7212L137.622 62.5803L136.711 62.6008V60.3508ZM137.643 61.3326C137.961 61.3326 138.075 61.3081 138.101 61.2794C138.13 61.2549 138.156 61.1935 138.156 61.1485C138.156 61.1035 138.13 61.0422 138.101 61.0135C138.071 60.9849 137.957 60.9644 137.846 60.9644H137.643V61.3326Z" fill="black"/>
<g clip-path="url(#clip0_2773_1227)">
<path d="M158.902 66.7832C164.97 66.7832 169.889 61.8641 169.889 55.796C169.889 49.728 164.97 44.8088 158.902 44.8088C152.834 44.8088 147.915 49.728 147.915 55.796C147.915 61.8641 152.834 66.7832 158.902 66.7832Z" fill="black"/>
<path fill-rule="evenodd" clip-rule="evenodd" d="M156.105 50.2886C156.078 50.2773 155.82 50.1687 155.783 50.153C155.782 50.1526 155.779 50.1517 155.777 50.1505C155.773 50.1488 155.774 50.1495 155.772 50.1487C155.768 50.1468 155.766 50.1462 155.765 50.1455C155.765 50.2298 155.765 50.3546 155.765 50.4881C155.765 50.6588 155.765 50.8401 155.765 50.9301C155.765 51.1038 155.765 51.5507 155.765 51.7159C155.765 52.0346 155.765 54.4915 155.765 54.6633C155.765 54.8306 155.765 61.2603 155.765 61.4375C156.613 61.3316 157.037 61.2904 157.9 61.2496C157.9 61.0777 157.9 59.3729 157.9 59.1242C157.9 57.6889 157.9 56.6787 157.9 56.1219C157.9 55.8876 157.9 55.8008 157.9 55.5604C157.835 55.3685 157.558 54.5542 157.487 54.3492C157.355 53.9581 156.603 51.7506 156.543 51.574C156.489 51.4155 156.338 50.9751 156.291 50.8341C156.263 50.7526 156.19 50.5391 156.151 50.4253C156.121 50.3363 156.124 50.3436 156.105 50.2886Z" fill="url(#paint0_linear_2773_1227)"/>
<path fill-rule="evenodd" clip-rule="evenodd" d="M161.404 61.2943C161.431 61.3055 161.689 61.4143 161.726 61.43C161.727 61.4303 161.729 61.4312 161.732 61.4323C161.736 61.4341 161.735 61.4333 161.737 61.4342C161.741 61.4361 161.743 61.4367 161.744 61.4374C161.744 61.3531 161.744 61.2283 161.744 61.0948C161.744 60.924 161.744 60.7428 161.744 60.6528C161.744 60.4792 161.744 60.0321 161.744 59.867C161.744 59.5483 161.744 57.0915 161.744 56.9196C161.744 56.7524 161.744 50.3227 161.744 50.1455C161.577 50.1455 159.879 50.1455 159.609 50.1455C159.609 50.3175 159.609 52.2101 159.609 52.4587C159.609 53.894 159.609 54.9042 159.609 55.461C159.609 55.6953 159.609 55.7821 159.609 56.0225C159.674 56.2144 159.951 57.0287 160.022 57.2337C160.154 57.6249 160.906 59.8324 160.966 60.0089C161.02 60.1674 161.171 60.6079 161.218 60.7487C161.246 60.8304 161.319 61.0438 161.358 61.1576C161.388 61.2466 161.385 61.2393 161.404 61.2943Z" fill="url(#paint1_linear_2773_1227)"/>
<path fill-rule="evenodd" clip-rule="evenodd" d="M157.9 50.1455H155.765L159.546 61.2496C160.608 61.2775 161.745 61.4375 161.745 61.4375L157.9 50.1455Z" fill="#E50A15"/>
</g>
<circle cx="185.508" cy="55.7957" r="11.3011" fill="#0270FD"/>
<g clip-path="url(#clip1_2773_1227)">
<path d="M184.5 55.4422C184.455 55.4237 184.38 55.3415 184.504 55.1127L184.792 54.5213C184.801 54.5033 184.78 54.4812 184.767 54.4961L184.515 54.7449C184.396 54.8671 184.194 55.2106 184.154 55.2742L183.848 55.7711C183.881 55.7701 183.901 55.8038 183.886 55.8313L183.606 56.2928C183.538 56.4072 183.66 56.4871 183.677 56.4608C184.117 55.7653 184.372 55.8209 184.372 55.8209L184.519 55.487C184.528 55.4695 184.519 55.4496 184.5 55.4422H184.5Z" fill="white"/>
<path d="M185.498 49.6309C182.985 49.6309 180.947 51.6312 180.947 54.0986C180.947 55.092 181.278 56.0094 181.837 56.7513C182.028 56.6704 182.134 56.5494 182.21 56.4567L183.057 55.3928C183.075 55.3705 183.098 55.3528 183.125 55.3416L183.253 55.2878L184.646 53.5528L184.848 53.3975L185.263 52.8302C185.274 52.8154 185.287 52.8027 185.302 52.7919L185.483 52.6625C185.528 52.6307 185.588 52.6301 185.633 52.6614L185.853 52.8128C185.97 52.8932 186.064 53.0006 186.128 53.1256L187.008 54.6437C187.028 54.677 187.042 54.6914 187.078 54.7085C187.25 54.7928 187.356 54.808 187.582 55.0488C187.687 55.1612 188.149 55.6685 188.797 56.4569C188.886 56.5755 189.001 56.6754 189.162 56.7479C189.719 56.0066 190.049 55.0905 190.049 54.0986C190.05 51.6312 188.012 49.6309 185.498 49.6309ZM182.175 54.3449L181.88 54.2509L181.697 54.4972V54.1928L181.402 54.0988L181.697 54.0047V53.7003L181.88 53.9467L182.175 53.8526L181.992 54.099L182.175 54.3453V54.3449ZM182.105 55.3412L182.009 55.6309L181.913 55.3412H181.603L181.854 55.1622L181.758 54.8726L182.009 55.0516L182.26 54.8726L182.164 55.1622L182.415 55.3412H182.105H182.105ZM182.164 53.0351L182.26 53.3247L182.009 53.1457L181.758 53.3247L181.854 53.0351L181.603 52.8561H181.913L182.009 52.5665L182.104 52.8561H182.415L182.164 53.0351H182.164ZM182.662 52.3801L182.48 52.1337L182.185 52.2278L182.367 51.9814L182.185 51.735L182.48 51.8291L182.662 51.5828V51.8871L182.957 51.9812L182.662 52.0753V52.3797V52.3801ZM183.438 51.314L183.342 51.6037L183.246 51.314H182.936L183.187 51.135L183.091 50.8454L183.342 51.0244L183.593 50.8454L183.497 51.135L183.748 51.314H183.438H183.438ZM184.415 50.8253L184.233 51.0717V50.7673L183.938 50.6732L184.233 50.5791V50.2747L184.415 50.5211L184.71 50.427L184.528 50.6734L184.71 50.9198L184.415 50.8257V50.8253ZM185.653 50.5462L185.749 50.8358L185.498 50.6568L185.247 50.8358L185.343 50.5462L185.092 50.3672H185.402L185.498 50.0776L185.594 50.3672H185.904L185.653 50.5462H185.653ZM186.764 50.7671V51.0715L186.582 50.8251L186.287 50.9192L186.469 50.6728L186.287 50.4264L186.582 50.5205L186.764 50.2741V50.5785L187.059 50.6726L186.764 50.7667V50.7671ZM188.822 53.8522L189.117 53.9463L189.3 53.6999V54.0043L189.595 54.0984L189.3 54.1924V54.4968L189.117 54.2505L188.822 54.3445L189.005 54.0982L188.822 53.8518V53.8522ZM187.655 51.6037L187.559 51.314H187.249L187.5 51.135L187.404 50.8454L187.655 51.0244L187.906 50.8454L187.81 51.135L188.061 51.314H187.751L187.655 51.6037H187.655ZM188.335 52.3801V52.0757L188.04 51.9816L188.335 51.8875V51.5831L188.517 51.8295L188.812 51.7354L188.63 51.9818L188.812 52.2282L188.517 52.1341L188.335 52.3805V52.3801ZM188.892 52.8561L188.988 52.5665L189.084 52.8561H189.394L189.143 53.0351L189.239 53.3247L188.988 53.1457L188.737 53.3247L188.833 53.0351L188.582 52.8561H188.892H188.892ZM189.084 55.3412L188.988 55.6309L188.892 55.3412H188.582L188.833 55.1622L188.737 54.8726L188.988 55.0516L189.239 54.8726L189.143 55.1622L189.394 55.3412H189.084H189.084Z" fill="white"/>
<path d="M187.148 56.6809C187.17 56.6496 187.205 56.5641 187.139 56.4054L186.937 55.8738C186.91 55.806 186.97 55.7647 187.01 55.8094C187.01 55.8094 187.391 56.2404 187.489 56.4202L187.677 56.7259C187.838 56.7361 188.284 56.7481 188.713 56.7481C188.67 56.7066 188.63 56.6616 188.593 56.6127C187.861 55.7219 187.397 55.2261 187.393 55.2212C187.244 55.0629 187.176 55.0324 187.062 54.9818C187.046 54.9744 187.028 54.9666 187.01 54.958V55.0934C187.01 55.1111 186.989 55.1207 186.978 55.1018L185.901 53.2457L185.898 53.24C185.854 53.1528 185.787 53.0771 185.706 53.0211L185.601 52.9487L185.087 54.1115C185.167 54.1115 185.221 54.1918 185.189 54.2639L184.715 55.3412H185.15C185.319 55.3412 185.485 55.3734 185.641 55.436L185.756 55.4823C185.756 55.4823 185.409 56.1817 185.409 56.5501C185.409 56.6173 185.42 56.6851 185.438 56.7483H186.236L186.199 56.5274C186.199 56.5274 186.679 56.6362 187.148 56.6809H187.148Z" fill="white"/>
<path d="M180.99 57.8134C180.99 57.0938 180.213 56.7476 179.29 56.7476C178.303 56.7476 177.397 57.1773 177.064 57.8435C176.973 58.0201 176.925 58.2167 176.925 58.4166C176.922 58.5898 176.969 58.7598 177.064 58.903C177.207 59.1095 177.461 59.2394 177.834 59.2394C178.292 59.2394 178.656 58.9929 178.656 58.5631C178.656 58.5631 178.662 58.4433 178.52 58.4433C178.405 58.4433 178.374 58.5232 178.377 58.5631C178.394 58.8996 178.191 59.1695 177.828 59.1695C177.42 59.1695 177.251 58.8296 177.251 58.4666C177.251 57.7237 177.821 57.2307 178.415 57.0175C178.693 56.9142 178.985 56.8642 179.283 56.8676C179.955 56.8676 180.505 57.1207 180.505 57.8004C180.505 58.3668 180.02 58.8497 179.439 58.893L179.463 58.8165C179.582 58.4 179.728 57.9438 179.965 57.6073C179.979 57.5872 180.003 57.5539 180.03 57.5206L179.996 57.4805C179.945 57.5104 179.897 57.5439 179.85 57.5804C178.737 58.4331 178.703 60.8317 177.22 60.8317C177.169 60.8317 177.118 60.8284 177.067 60.8218C176.758 60.7717 176.596 60.5686 176.596 60.2856C176.596 60.2289 176.616 60.1522 176.616 60.1089C176.619 60.029 176.551 59.959 176.47 59.959H176.453C176.321 59.959 176.266 60.0621 176.263 60.2088C176.253 60.6318 176.572 60.8784 177.064 60.925C177.118 60.9284 177.172 60.9316 177.23 60.9316C178.387 60.9316 179.096 60.0721 179.399 59.0295C179.551 59.013 179.704 58.9795 179.85 58.9363C180.386 58.7895 180.99 58.4365 180.99 57.8136L180.99 57.8134Z" fill="white"/>
<path d="M192.012 58.0635H191.605L191.513 58.2734L191.354 58.6264H191.164L191.106 58.7464H191.303L191.065 59.2627C190.896 59.6257 190.631 59.9823 190.478 59.9823C190.444 59.9823 190.424 59.9689 190.424 59.9356C190.424 59.9023 190.434 59.8722 190.472 59.779C190.519 59.6691 190.597 59.5091 190.655 59.3926C190.74 59.2228 190.876 58.9597 190.876 58.8297C190.876 58.6998 190.791 58.5965 190.624 58.5965C190.438 58.5965 190.268 58.7065 190.112 58.8662L190.214 58.6264H189.83L189.518 59.3259C189.393 59.5724 189.138 59.9823 188.979 59.9823C188.945 59.9823 188.931 59.9621 188.931 59.9291C188.935 59.8992 188.941 59.8724 188.955 59.8423C188.969 59.8122 189.155 59.3827 189.155 59.3827L189.495 58.6198H189.08L188.751 59.3627C188.65 59.5926 188.392 59.9825 188.225 59.9825C188.198 59.9859 188.171 59.9657 188.168 59.9358V59.9225C188.168 59.8826 188.198 59.8093 188.222 59.7558L188.395 59.3827L188.751 58.6198H188.341L188.259 58.793C188.198 58.9097 188.096 59.0462 187.934 59.0462C187.855 59.0462 187.818 59.0163 187.801 58.9862C187.777 58.7297 187.611 58.5931 187.367 58.5931C187.028 58.5931 186.787 58.7897 186.627 59.0295C186.522 59.1959 186.44 59.3725 186.383 59.5591C186.237 59.7957 186.084 59.9789 185.962 59.9789C185.931 59.9789 185.911 59.9621 185.911 59.9223C185.911 59.8824 185.952 59.7925 185.965 59.759L186.233 59.1995C186.308 59.0263 186.359 58.913 186.359 58.7998C186.359 58.6798 186.274 58.5933 186.135 58.5933C185.941 58.5933 185.731 58.7033 185.565 58.8831C185.571 58.853 185.571 58.8265 185.571 58.7964C185.571 58.6633 185.504 58.5933 185.364 58.5933C185.188 58.5933 185.005 58.6968 184.838 58.8831L184.947 58.6232H184.574L184.258 59.3229C184.109 59.6528 183.868 59.9793 183.732 59.9793C183.702 59.9793 183.681 59.9625 183.681 59.9227C183.681 59.8595 183.752 59.7028 183.78 59.6396L184.197 58.7103C184.227 58.6404 184.027 58.5971 183.773 58.5971C183.518 58.5971 183.243 58.7237 183.047 58.8869C182.908 59.0002 182.806 59.0568 182.755 59.0568C182.728 59.0568 182.717 59.0434 182.717 59.0269C182.717 58.9703 182.856 58.8102 182.856 58.687C182.856 58.6304 182.826 58.5937 182.748 58.5937C182.599 58.5937 182.422 58.7336 182.293 58.8802L182.402 58.6236H182.035L181.72 59.3233C181.57 59.6532 181.323 59.9962 181.187 59.9962C181.156 59.9962 181.136 59.9797 181.136 59.9396C181.136 59.8764 181.204 59.7231 181.241 59.643L181.659 58.7103C181.689 58.6404 181.489 58.5971 181.234 58.5971C180.858 58.5971 180.491 58.8469 180.298 59.1034C180.084 59.3799 179.938 59.6731 179.935 59.9129C179.931 60.1061 180.033 60.2261 180.237 60.2261C180.464 60.2261 180.647 60.0495 180.752 59.9163C180.746 59.943 180.742 59.9697 180.739 59.9962C180.739 60.1294 180.793 60.2261 180.959 60.2261C181.105 60.2261 181.299 60.1061 181.455 59.9163L181.329 60.1996H181.726L182.116 59.3301C182.245 59.0468 182.391 58.9003 182.432 58.9003C182.446 58.9003 182.453 58.9071 182.453 58.9168C182.453 58.9469 182.391 59.0269 182.391 59.1C182.391 59.1732 182.432 59.23 182.541 59.23C182.626 59.23 182.721 59.1899 182.805 59.1367C182.605 59.4032 182.469 59.6831 182.469 59.9129C182.466 60.1061 182.568 60.2261 182.772 60.2261C182.985 60.2261 183.186 60.0261 183.294 59.893C183.291 59.9229 183.287 59.953 183.287 59.9863C183.287 60.1162 183.362 60.2261 183.515 60.2261C183.684 60.2261 183.82 60.1228 183.99 59.9197L183.864 60.1996H184.272L184.645 59.3699C184.808 59.0101 185.028 58.817 185.137 58.817C185.164 58.8136 185.188 58.8337 185.191 58.8604V58.8704C185.188 58.9103 185.174 58.9503 185.157 58.987L184.621 60.2029H185.038L185.419 59.3568C185.581 58.9938 185.761 58.8172 185.897 58.8172C185.938 58.8172 185.955 58.8373 185.955 58.8806C185.951 58.9272 185.938 58.9738 185.917 59.0139L185.551 59.78C185.517 59.8533 185.497 59.933 185.49 60.0132C185.49 60.1298 185.554 60.233 185.737 60.233C185.975 60.233 186.155 60.0564 186.358 59.7933V59.8499C186.375 60.0598 186.494 60.243 186.81 60.243C187.183 60.243 187.485 59.9899 187.668 59.5868C187.736 59.4435 187.784 59.2936 187.801 59.1369C187.841 59.157 187.889 59.167 187.933 59.1636C187.994 59.1636 188.055 59.1503 188.109 59.1202L188.045 59.2567C187.97 59.41 187.889 59.5798 187.824 59.7231C187.784 59.8063 187.76 59.8996 187.753 59.9928C187.753 60.136 187.835 60.2394 188.001 60.2394C188.167 60.2394 188.395 60.0861 188.557 59.8697H188.561C188.551 59.9129 188.544 59.9596 188.544 60.0062C188.544 60.1262 188.581 60.2394 188.751 60.2394C188.948 60.2394 189.1 60.0995 189.25 59.9229L189.124 60.2027H189.535L189.864 59.4698C190.05 59.0568 190.237 58.8068 190.41 58.8068C190.441 58.8068 190.465 58.8267 190.468 58.8568V58.8668C190.468 58.9368 190.366 59.1267 190.275 59.3165C190.19 59.4897 190.125 59.6229 190.081 59.7263C190.04 59.8128 190.017 59.9061 190.01 60.0028C190.01 60.1294 190.081 60.2261 190.241 60.2261C190.478 60.2261 190.719 59.9996 190.848 59.8296C190.818 59.9129 190.804 59.9962 190.801 60.0827C190.801 60.316 190.943 60.4326 191.143 60.4326C191.276 60.4326 191.404 60.3893 191.513 60.3128C191.669 60.2061 191.795 60.0463 191.9 59.8998L191.829 59.833C191.73 59.9697 191.622 60.0995 191.51 60.1794C191.449 60.2295 191.377 60.256 191.299 60.2594C191.215 60.2594 191.16 60.2159 191.16 60.1095C191.16 60.003 191.211 59.8595 191.289 59.6663C191.293 59.6631 191.405 59.4166 191.51 59.18C191.598 58.98 191.686 58.7869 191.703 58.7468H191.971L192.026 58.6268H191.761L192.012 58.0639L192.012 58.0635ZM180.437 59.9857C180.38 59.9857 180.339 59.9657 180.339 59.8924C180.342 59.6958 180.508 59.346 180.715 59.0661C180.861 58.873 181.051 58.7297 181.255 58.7297L180.997 59.296C180.804 59.7225 180.593 59.9855 180.437 59.9855V59.9857ZM182.975 59.9857C182.918 59.9857 182.877 59.9657 182.874 59.8924C182.877 59.6958 183.043 59.346 183.25 59.0661C183.396 58.873 183.586 58.7297 183.79 58.7297L183.532 59.296C183.335 59.7325 183.135 59.9855 182.975 59.9855V59.9857ZM187.482 58.8831C187.472 59.0996 187.278 59.6227 187.051 59.9358C186.96 60.0624 186.881 60.0991 186.814 60.0991C186.719 60.0991 186.691 60.0223 186.705 59.9091C186.725 59.7126 186.892 59.2529 187.122 58.9364C187.227 58.793 187.299 58.733 187.38 58.733C187.462 58.733 187.485 58.7996 187.482 58.8829V58.8831Z" fill="white"/>
<path d="M193.816 58.626L194.19 57.7788H193.747L193.374 58.626H192.434L192.277 58.9814H193.217L192.844 59.8286H193.286L193.659 58.9814H194.6L194.756 58.626H193.816Z" fill="white"/>
</g>
<path fill-rule="evenodd" clip-rule="evenodd" d="M260.775 47.2199C260.92 47.2141 261.053 47.2666 261.216 47.395C261.343 47.4942 261.471 47.5643 261.505 47.5526C261.534 47.5409 261.569 47.4592 261.575 47.3775C261.592 47.2374 261.616 47.2199 261.795 47.2199C261.981 47.2199 261.998 47.2316 261.998 47.395C261.998 47.5118 261.94 47.6285 261.83 47.7452C261.726 47.8503 261.598 47.9203 261.511 47.9203C261.43 47.9203 261.303 47.8911 261.227 47.8561C261.158 47.8211 261.042 47.7336 260.972 47.6635C260.885 47.5876 260.81 47.5584 260.752 47.5818C260.706 47.611 260.665 47.6927 260.665 47.7744C260.665 47.9028 260.642 47.9203 260.474 47.9087C260.294 47.8911 260.288 47.8853 260.306 47.6635C260.317 47.5176 260.37 47.3892 260.445 47.325C260.509 47.2666 260.654 47.2199 260.775 47.2199ZM247.278 47.9203H247.684V62.4538H247.278V47.9203ZM254.696 48.2705C254.881 48.2705 255.096 48.3114 255.212 48.3756C255.322 48.4281 255.461 48.539 255.519 48.6207C255.583 48.7025 255.652 48.8834 255.681 49.0293C255.71 49.1752 255.716 49.4029 255.652 49.7881H254.058V49.9632C254.058 50.0741 254.122 50.2083 254.227 50.3309C254.389 50.506 254.418 50.5177 254.794 50.5177C255.009 50.5177 255.299 50.5002 255.432 50.471C255.681 50.4301 255.681 50.4301 255.681 50.6052C255.681 50.7453 255.641 50.7978 255.49 50.8737C255.391 50.9263 255.136 50.9846 254.928 51.0021C254.696 51.0196 254.464 51.0021 254.319 50.9554C254.192 50.9146 254.018 50.8329 253.925 50.7745C253.838 50.7103 253.711 50.5527 253.647 50.4185C253.572 50.2667 253.508 50.0099 253.491 49.7881C253.479 49.578 253.496 49.3036 253.525 49.1752C253.56 49.0468 253.647 48.8484 253.722 48.7375C253.798 48.6266 253.972 48.4748 254.116 48.3989C254.296 48.3114 254.482 48.2705 254.696 48.2705ZM254.203 48.9184C254.122 49.0118 254.058 49.1519 254.058 49.2336V49.3795H255.218C255.165 49.041 255.107 48.8951 255.055 48.8425C255.003 48.7842 254.876 48.7316 254.783 48.7141C254.684 48.7025 254.551 48.7025 254.482 48.72C254.406 48.7316 254.284 48.825 254.203 48.9184ZM258.811 48.2764C258.984 48.2764 259.222 48.3056 259.332 48.3464C259.5 48.4048 259.535 48.4456 259.564 48.7958L259.141 48.7608C258.915 48.7375 258.654 48.7375 258.561 48.7608C258.474 48.7783 258.393 48.8425 258.376 48.9009C258.359 48.9534 258.359 49.0468 258.376 49.1052C258.393 49.1636 258.59 49.2803 258.88 49.397C259.135 49.4963 259.425 49.6538 259.518 49.7472C259.651 49.8815 259.68 49.9515 259.68 50.1967C259.68 50.4418 259.651 50.5177 259.489 50.6986C259.39 50.8095 259.21 50.9321 259.1 50.9613C258.99 50.9905 258.793 51.0138 258.666 51.0138C258.538 51.0138 258.295 50.973 258.127 50.9263C257.837 50.8445 257.825 50.8329 257.825 50.6344C257.825 50.4418 257.837 50.4301 257.982 50.4593C258.075 50.4768 258.312 50.506 258.521 50.5294C258.758 50.5527 258.944 50.541 259.025 50.4943C259.112 50.4535 259.158 50.3776 259.158 50.2725C259.164 50.1792 259.129 50.0799 259.089 50.0391C259.048 50.0041 258.857 49.9165 258.666 49.8465C258.474 49.7706 258.231 49.6538 258.127 49.578C258.022 49.4963 257.918 49.3503 257.883 49.2336C257.843 49.0994 257.843 48.9651 257.883 48.8367C257.912 48.7375 257.999 48.5916 258.069 48.5215C258.144 48.4515 258.266 48.3698 258.347 48.3347C258.428 48.3056 258.637 48.2764 258.811 48.2764ZM261.169 48.288C261.546 48.2997 261.674 48.3231 261.807 48.4223C261.894 48.4865 262.004 48.6441 262.044 48.7725C262.097 48.9301 262.114 49.292 262.085 50.9263L261.865 50.9438C261.691 50.9554 261.645 50.9321 261.621 50.8387C261.592 50.722 261.592 50.722 261.372 50.8387C261.256 50.9029 261.053 50.973 260.926 50.9963C260.752 51.0196 260.625 51.0021 260.433 50.9087C260.288 50.8445 260.132 50.7161 260.086 50.6286C260.039 50.541 259.999 50.3601 259.999 50.2258C259.999 50.0916 260.039 49.9107 260.086 49.8231C260.132 49.7356 260.265 49.6013 260.375 49.5371C260.538 49.432 260.665 49.4087 261.534 49.4087V49.1636C261.534 49.0001 261.5 48.8776 261.43 48.8192C261.349 48.7375 261.25 48.7258 260.868 48.755C260.613 48.7725 260.346 48.8017 260.271 48.8192C260.161 48.8484 260.144 48.8309 260.132 48.6499C260.126 48.4573 260.132 48.4456 260.41 48.3639C260.584 48.3056 260.874 48.2764 261.169 48.288ZM260.596 49.9924C260.572 50.0216 260.549 50.1208 260.549 50.2142C260.549 50.3017 260.59 50.4126 260.636 50.4593C260.682 50.506 260.816 50.5469 260.926 50.5469C261.036 50.5469 261.221 50.5002 261.332 50.4476C261.517 50.3543 261.534 50.3192 261.534 50.0974C261.534 49.8873 261.511 49.8406 261.401 49.8173C261.332 49.7998 261.181 49.7881 261.071 49.7881C260.961 49.7939 260.816 49.8231 260.752 49.864C260.688 49.899 260.619 49.9574 260.596 49.9924ZM263.864 48.2705C264.05 48.2705 264.27 48.2997 264.357 48.3347C264.449 48.3639 264.594 48.4631 264.681 48.5507C264.774 48.6382 264.901 48.8134 264.965 48.9418C265.052 49.1052 265.087 49.292 265.093 49.5838C265.099 49.8348 265.064 50.0916 265 50.255C264.948 50.4009 264.809 50.6052 264.699 50.7103C264.583 50.8095 264.392 50.9204 264.27 50.9554C264.154 50.9846 263.951 51.0138 263.824 51.0138C263.69 51.0138 263.47 50.9554 263.302 50.8679C263.14 50.792 262.954 50.6403 262.885 50.5352C262.809 50.4301 262.728 50.2492 262.693 50.1383C262.664 50.0274 262.636 49.8056 262.636 49.6422C262.636 49.4846 262.659 49.2569 262.693 49.146C262.722 49.0351 262.809 48.8484 262.879 48.7375C262.954 48.6266 263.128 48.4748 263.273 48.3989C263.453 48.3114 263.638 48.2705 263.864 48.2705ZM263.302 49.0877C263.256 49.1869 263.215 49.4204 263.215 49.613C263.215 49.8056 263.25 50.0507 263.29 50.1558C263.337 50.255 263.406 50.3776 263.453 50.4126C263.499 50.4535 263.627 50.506 263.737 50.5235C263.864 50.5527 264.015 50.5352 264.137 50.4827C264.241 50.436 264.368 50.3309 264.409 50.2434C264.455 50.15 264.507 49.969 264.525 49.8348C264.548 49.6889 264.531 49.4554 264.484 49.2686C264.432 49.0585 264.351 48.9126 264.258 48.8425C264.171 48.7783 264.021 48.7316 263.882 48.7375C263.754 48.7375 263.592 48.7783 263.516 48.825C263.447 48.8717 263.348 48.9885 263.302 49.0877ZM251.451 48.3289L252.117 50.3718L252.812 48.3231H253.044C253.172 48.3231 253.293 48.3464 253.317 48.3698C253.34 48.3989 253.311 48.5332 253.253 48.6791C253.195 48.825 252.975 49.397 252.378 50.9554L251.845 50.9263L251.358 49.6889C251.091 49.006 250.871 48.4165 250.871 48.3873C250.871 48.3581 250.999 48.3289 251.451 48.3289ZM256.145 48.3289H256.377C256.591 48.3289 256.608 48.3406 256.643 48.5215C256.661 48.6207 256.695 48.6791 256.713 48.6441C256.736 48.6091 256.846 48.5215 256.956 48.4515C257.078 48.3814 257.257 48.3289 257.652 48.3289V48.8542H257.315C257.113 48.8542 256.933 48.8834 256.852 48.9418C256.73 49.0235 256.724 49.0643 256.724 49.9048C256.724 50.3893 256.713 50.8212 256.695 50.8679C256.678 50.9263 256.585 50.9554 256.145 50.9554V48.3289ZM259.854 51.5975H260.781V54.4283C260.781 57.049 260.787 57.265 260.88 57.3525C260.949 57.4167 261.065 57.4401 261.447 57.4051V58.1055L261.129 58.158C260.955 58.1872 260.711 58.193 260.59 58.1697C260.474 58.1522 260.294 58.0646 260.19 57.9771C260.091 57.8837 259.975 57.7261 259.929 57.6269C259.871 57.4751 259.854 56.8155 259.854 54.5159V51.5975ZM267.324 51.5975H268.257V54.3991C268.257 57.1249 268.263 57.2066 268.373 57.3175C268.442 57.3875 268.558 57.4342 268.674 57.4284C268.779 57.4226 268.9 57.4226 268.935 57.4284C268.987 57.4342 269.01 57.5393 269.01 58.0763L268.761 58.1405C268.628 58.1755 268.373 58.193 268.199 58.1697C268.025 58.1522 267.817 58.088 267.735 58.0296C267.654 57.9654 267.538 57.8311 267.475 57.7202C267.365 57.5276 267.359 57.3992 267.341 54.5626L267.324 51.5975ZM209.637 51.831C209.771 51.831 209.933 51.8718 210.014 51.9243C210.095 51.9827 210.188 52.0703 210.228 52.117C210.263 52.1695 210.31 52.2921 210.327 52.3971C210.344 52.508 210.327 52.6714 210.275 52.794C210.223 52.9049 210.113 53.0333 210.014 53.0859C209.915 53.1326 209.736 53.1734 209.608 53.1734C209.481 53.1734 209.319 53.1384 209.243 53.1034C209.174 53.0683 209.069 52.9866 209.017 52.9166C208.953 52.8349 208.913 52.6831 208.913 52.5022C208.907 52.257 208.936 52.1812 209.069 52.0528C209.156 51.971 209.272 51.8893 209.319 51.8718C209.365 51.8543 209.51 51.8368 209.637 51.831ZM229.405 51.8368C229.654 51.8543 229.747 51.8893 229.892 52.0352C230.037 52.1753 230.072 52.257 230.077 52.473C230.077 52.6131 230.037 52.7999 229.99 52.8816C229.938 52.9574 229.834 53.0567 229.753 53.0975C229.666 53.1384 229.492 53.1676 229.353 53.1676C229.208 53.1676 229.028 53.1209 228.918 53.0508C228.791 52.975 228.716 52.8699 228.675 52.7181C228.646 52.5956 228.64 52.4205 228.663 52.3329C228.687 52.2395 228.791 52.0819 228.901 51.9885C229.075 51.8368 229.133 51.8193 229.405 51.8368ZM234.267 51.8893C234.76 51.8893 234.824 51.901 234.876 52.0061C234.911 52.0761 234.928 53.1851 234.917 55.0645C234.911 56.6813 234.882 58.0296 234.853 58.0529C234.83 58.0821 234.662 58.1113 234.476 58.123C234.296 58.1346 234.076 58.1288 233.989 58.1113C233.902 58.088 233.804 58.0121 233.705 57.8078L233.352 57.9829C233.045 58.1405 232.94 58.158 232.506 58.158C232.059 58.158 231.972 58.1405 231.694 57.9829C231.52 57.8895 231.312 57.7202 231.219 57.6035C231.132 57.4926 231.005 57.2825 230.941 57.1366C230.877 56.9965 230.79 56.6696 230.75 56.407C230.698 56.0393 230.698 55.8466 230.75 55.4731C230.79 55.2163 230.877 54.8894 230.941 54.7435C231.005 54.6034 231.15 54.3699 231.26 54.2357C231.381 54.0839 231.584 53.9263 231.787 53.8271C232.059 53.6987 232.198 53.6695 232.558 53.6695C232.894 53.6695 233.056 53.7046 233.595 53.9555V53.0333C233.589 52.4555 233.613 52.0703 233.653 52.0002C233.711 51.901 233.786 51.8835 234.267 51.8835V51.8893ZM232.152 55.117C232.065 55.3038 232.036 55.4906 232.036 55.8933C232.036 56.1793 232.071 56.5179 232.112 56.6404C232.146 56.763 232.256 56.9323 232.343 57.0198C232.471 57.1424 232.575 57.1774 232.836 57.1949C233.05 57.2066 233.242 57.1833 233.381 57.1249L233.601 57.0315V54.8135C233.352 54.7143 233.137 54.6676 232.963 54.6559C232.708 54.6326 232.604 54.6501 232.453 54.7493C232.349 54.8135 232.216 54.9828 232.152 55.117ZM253.392 53.5528C253.647 53.5645 253.977 53.617 254.406 53.7629L254.389 54.0956C254.383 54.2824 254.348 54.4283 254.319 54.4225C254.284 54.4166 254.064 54.3875 253.827 54.3524C253.548 54.3174 253.276 54.3116 253.073 54.3466C252.899 54.3816 252.673 54.4517 252.581 54.51C252.482 54.5742 252.343 54.7493 252.262 54.9069C252.129 55.1637 252.117 55.2571 252.117 55.8933C252.117 56.5237 252.129 56.6171 252.262 56.8739C252.343 57.0315 252.482 57.2066 252.581 57.2708C252.673 57.3292 252.899 57.3992 253.073 57.4284C253.247 57.4576 253.537 57.4634 253.711 57.4342C253.885 57.4109 254.128 57.3759 254.464 57.3233L254.435 57.9887L254.145 58.1055C253.919 58.193 253.717 58.2222 253.247 58.2222C252.691 58.2222 252.604 58.2047 252.268 58.0471C252.047 57.9479 251.804 57.7728 251.671 57.6269C251.549 57.4926 251.398 57.2533 251.329 57.1015C251.265 56.9498 251.184 56.6404 251.149 56.4186C251.114 56.191 251.103 55.835 251.12 55.6307C251.143 55.4206 251.196 55.117 251.242 54.9595C251.288 54.796 251.416 54.5334 251.52 54.3758C251.624 54.2182 251.839 54.0022 252.001 53.8972C252.158 53.7921 252.436 53.6637 252.61 53.617C252.822 53.5586 253.083 53.5372 253.392 53.5528ZM257.072 53.5294C257.362 53.5236 257.669 53.5586 257.825 53.6112C257.97 53.6637 258.185 53.7863 258.306 53.8913C258.434 53.9964 258.602 54.224 258.683 54.405C258.782 54.6209 258.84 54.8544 258.857 55.1287C258.874 55.3564 258.869 55.6657 258.811 56.0976L255.913 56.0918V56.226C255.913 56.2961 255.954 56.5004 256.006 56.6755C256.064 56.8797 256.168 57.0665 256.284 57.1716C256.382 57.2708 256.568 57.3817 256.695 57.4226C256.823 57.4634 257.147 57.4926 257.42 57.4926C257.692 57.4926 258.086 57.4459 258.306 57.3875C258.521 57.335 258.712 57.3058 258.729 57.3175C258.741 57.335 258.753 57.4868 258.753 57.9595L258.417 58.0938C258.133 58.2047 257.97 58.2222 257.275 58.2222C256.527 58.2222 256.435 58.2105 256.151 58.0763C255.959 57.9946 255.722 57.8078 255.554 57.6269C255.351 57.3992 255.246 57.2241 255.165 56.9556C255.107 56.7572 255.038 56.4186 255.015 56.2085C254.991 55.9926 255.003 55.6482 255.038 55.3914C255.078 55.1521 255.171 54.8135 255.246 54.6326C255.328 54.4575 255.501 54.2007 255.635 54.0664C255.78 53.9263 256.029 53.7571 256.232 53.6754C256.504 53.5586 256.684 53.5294 257.072 53.5294ZM256.272 54.5334C256.156 54.6443 256.046 54.8427 255.994 55.0178C255.948 55.1754 255.913 55.3388 255.913 55.3797C255.913 55.4381 256.162 55.4497 256.956 55.4497H257.999C257.999 55.0237 257.953 54.8077 257.895 54.6968C257.843 54.5859 257.721 54.4458 257.628 54.3758C257.518 54.2941 257.362 54.2532 257.136 54.2415C256.956 54.2357 256.73 54.259 256.637 54.2882C256.539 54.3174 256.377 54.4283 256.272 54.5334ZM271.456 53.5353C271.769 53.5294 272.134 53.5528 272.267 53.5878C272.406 53.617 272.621 53.7337 272.748 53.8388C272.876 53.9439 273.032 54.1481 273.09 54.2882C273.195 54.5217 273.206 54.7201 273.229 56.2144C273.241 57.1249 273.235 57.9362 273.218 58.0062C273.183 58.123 273.148 58.1405 272.43 58.1405L272.372 57.7319L272.093 57.907C271.943 58.0062 271.688 58.123 271.531 58.1697C271.369 58.2164 271.108 58.2572 270.952 58.2572C270.79 58.2514 270.558 58.2222 270.43 58.1872C270.285 58.1463 270.094 58.0238 269.932 57.8545C269.712 57.6385 269.648 57.5218 269.59 57.265C269.555 57.084 269.544 56.8331 269.567 56.7105C269.584 56.5821 269.648 56.3836 269.706 56.2727C269.758 56.156 269.903 55.9809 270.03 55.8758C270.152 55.7708 270.384 55.6424 270.546 55.5898C270.772 55.5139 270.981 55.5023 271.473 55.5256C271.821 55.5431 272.157 55.5723 272.209 55.5898C272.302 55.6248 272.314 55.584 272.314 55.2221C272.314 54.9478 272.279 54.7435 272.209 54.6034C272.146 54.4692 272.047 54.3758 271.937 54.3408C271.838 54.3116 271.555 54.2824 271.3 54.2824C271.045 54.2882 270.627 54.3349 270.372 54.3991C270.117 54.4575 269.885 54.4925 269.862 54.4692C269.839 54.4517 269.828 54.2999 269.851 53.8505L270.14 53.7396C270.297 53.6812 270.535 53.6112 270.662 53.5878C270.79 53.5586 271.149 53.5353 271.456 53.5353ZM270.616 56.4537C270.564 56.5295 270.506 56.6696 270.482 56.763C270.459 56.8739 270.482 57.0257 270.54 57.1599C270.604 57.3175 270.697 57.4051 270.847 57.4693C270.998 57.5335 271.149 57.551 271.329 57.5276C271.473 57.5101 271.752 57.4109 271.949 57.3175L272.314 57.1482V56.2435C271.885 56.1735 271.607 56.156 271.415 56.156C271.224 56.156 270.987 56.191 270.888 56.2377C270.79 56.2844 270.668 56.3778 270.616 56.4537ZM276.614 53.5878C276.736 53.5878 276.875 53.5995 276.921 53.617C276.985 53.6345 277.008 53.7396 277.008 54.4633H276.573C276.272 54.4633 276.04 54.4984 275.831 54.5801C275.663 54.6443 275.484 54.7435 275.426 54.796C275.333 54.8894 275.321 55.0412 275.327 58.1405L274.429 58.1113V53.6754L274.806 53.652C275.153 53.6345 275.182 53.6462 275.223 53.7688C275.246 53.8446 275.269 53.9789 275.269 54.0664C275.269 54.154 275.281 54.2299 275.298 54.2299C275.316 54.2299 275.449 54.119 275.6 53.9906C275.75 53.8621 275.994 53.7162 276.139 53.6754C276.284 53.6287 276.498 53.5937 276.614 53.5878ZM203.349 53.6695C203.523 53.687 203.767 53.7396 203.883 53.7863C204.004 53.8388 204.196 53.9614 204.311 54.0664C204.427 54.1715 204.584 54.3641 204.659 54.4925C204.734 54.6151 204.833 54.8661 204.885 55.047C204.932 55.2221 204.972 55.5898 204.972 55.8642C204.972 56.1326 204.932 56.512 204.879 56.7105C204.833 56.9031 204.729 57.1657 204.659 57.2942C204.584 57.4167 204.433 57.6152 204.329 57.7202C204.219 57.8311 204.027 57.9771 203.9 58.0413C203.714 58.1405 203.564 58.1638 203.176 58.1638C202.77 58.1638 202.631 58.1405 202.074 57.8778V58.7533C202.074 59.3604 202.051 59.658 202.005 59.7281C201.941 59.8215 201.854 59.8331 200.828 59.804L200.811 56.8564C200.799 54.0956 200.805 53.903 200.898 53.833C200.956 53.7921 201.153 53.7571 201.333 53.7571C201.588 53.7571 201.698 53.7863 201.785 53.8797C201.848 53.938 201.901 54.0372 201.901 54.0956C201.895 54.189 201.901 54.189 201.999 54.1015C202.057 54.0489 202.214 53.9497 202.347 53.8855C202.486 53.8155 202.695 53.7337 202.81 53.7046C202.932 53.6754 203.176 53.6579 203.349 53.6695ZM202.051 54.8135C202.074 57.0023 202.074 57.0315 202.202 57.1015C202.277 57.1424 202.532 57.1716 202.781 57.1716C203.176 57.1716 203.239 57.1599 203.378 57.0257C203.459 56.9498 203.564 56.7513 203.61 56.5879C203.657 56.4303 203.697 56.1151 203.697 55.8875C203.691 55.6657 203.645 55.3505 203.593 55.1929C203.541 55.0353 203.431 54.8602 203.349 54.796C203.268 54.7318 203.077 54.6735 202.915 54.6618C202.752 54.6501 202.497 54.6735 202.341 54.726L202.051 54.8135ZM213.804 53.6462C213.903 53.6462 214.111 53.6812 214.268 53.7279C214.43 53.7746 214.639 53.8913 214.905 54.1598L215.311 53.9614C215.537 53.8505 215.885 53.7279 216.093 53.6929C216.389 53.6403 216.54 53.6462 216.789 53.7046C217.009 53.7571 217.177 53.8446 217.328 53.9906C217.478 54.1306 217.577 54.2941 217.635 54.4867C217.699 54.7085 217.716 55.1579 217.716 56.3544C217.716 57.2475 217.693 57.9712 217.658 58.0179C217.623 58.0821 217.473 58.1113 217.154 58.1288C216.887 58.1405 216.65 58.123 216.574 58.088C216.441 58.0179 216.441 58.0179 216.441 56.5762C216.441 55.7591 216.418 55.047 216.383 54.9419C216.342 54.8077 216.273 54.7318 216.151 54.691C216.041 54.6559 215.861 54.6559 215.676 54.6851C215.508 54.7143 215.311 54.7668 215.241 54.8019C215.108 54.8661 215.108 54.8777 215.097 56.442C215.085 57.3058 215.056 58.0296 215.033 58.0588C215.004 58.088 214.784 58.1171 214.54 58.1288C214.279 58.1405 214.042 58.123 213.966 58.088C213.833 58.0179 213.833 58.0121 213.822 56.477C213.804 54.9536 213.804 54.9303 213.671 54.796C213.561 54.6851 213.485 54.6676 213.225 54.6793C213.051 54.6851 212.802 54.7318 212.442 54.8661V56.442C212.442 57.9595 212.436 58.0238 212.326 58.0763C212.263 58.1113 212.013 58.1346 211.776 58.1346C211.469 58.1346 211.318 58.1113 211.254 58.0471C211.179 57.9771 211.167 57.6619 211.167 55.9634C211.167 54.8602 211.19 53.9263 211.214 53.8855C211.237 53.8446 211.37 53.7979 211.515 53.7804C211.66 53.7571 211.874 53.7629 211.996 53.7804C212.17 53.8096 212.222 53.8505 212.326 54.1657L212.72 53.9614C212.935 53.8505 213.225 53.7337 213.369 53.7104C213.514 53.6812 213.711 53.652 213.804 53.6462ZM242.219 53.6754C242.445 53.687 242.787 53.7571 242.972 53.8271C243.181 53.9088 243.395 54.0489 243.563 54.224C243.708 54.3699 243.882 54.6092 243.951 54.7493C244.015 54.8953 244.102 55.1521 244.137 55.3213C244.172 55.4906 244.201 55.7708 244.201 55.9459C244.201 56.1268 244.172 56.407 244.137 56.5762C244.102 56.7455 244.015 57.0023 243.951 57.1424C243.882 57.2883 243.708 57.5276 243.563 57.6735C243.401 57.8428 243.181 57.9887 242.984 58.0646C242.81 58.1288 242.508 58.2047 242.317 58.2222C242.12 58.2455 241.819 58.2397 241.622 58.1989C241.43 58.1638 241.17 58.0821 241.042 58.0238C240.915 57.9595 240.7 57.7961 240.561 57.6619C240.422 57.5218 240.248 57.2766 240.173 57.1132C240.098 56.9556 240.011 56.6288 239.982 56.3836C239.953 56.1326 239.953 55.7591 239.976 55.5081C240.005 55.2513 240.086 54.9536 240.167 54.7785C240.248 54.6209 240.422 54.3758 240.561 54.2357C240.7 54.0956 240.915 53.9322 241.042 53.8738C241.17 53.8096 241.39 53.7337 241.535 53.7046C241.68 53.6754 241.987 53.6579 242.219 53.6754ZM241.529 54.8719C241.419 54.9828 241.338 55.1521 241.297 55.3505C241.262 55.5198 241.245 55.8642 241.257 56.121C241.274 56.4186 241.326 56.6755 241.396 56.8155C241.454 56.944 241.587 57.084 241.68 57.1307C241.778 57.1833 241.958 57.2241 242.085 57.2241C242.213 57.2241 242.387 57.1833 242.479 57.1249C242.566 57.0724 242.694 56.9031 242.763 56.7513C242.862 56.5295 242.891 56.3603 242.891 55.9459C242.891 55.5315 242.862 55.3622 242.763 55.1462C242.694 54.9945 242.578 54.831 242.508 54.7844C242.433 54.7435 242.3 54.691 242.201 54.6793C242.108 54.6618 241.952 54.6618 241.859 54.6735C241.772 54.691 241.622 54.7785 241.529 54.8719ZM262.276 53.6403H263.209V55.2338C263.209 56.1093 263.238 56.9206 263.267 57.0432C263.302 57.1657 263.395 57.3175 263.487 57.3817C263.621 57.4868 263.708 57.5043 264.05 57.4809C264.345 57.4693 264.554 57.4109 265.185 57.1132L265.18 53.6403H266.107V58.1346L265.719 58.123C265.377 58.1113 265.325 58.0938 265.307 57.9887C265.296 57.9245 265.278 57.8428 265.267 57.802C265.243 57.7494 265.168 57.7669 264.994 57.872C264.855 57.9479 264.589 58.0704 264.397 58.1346C264.171 58.2164 263.905 58.2572 263.615 58.2572C263.273 58.2572 263.128 58.228 262.919 58.1171C262.746 58.0296 262.601 57.8895 262.311 57.4167L262.276 53.6403ZM220.585 53.7162C221.031 53.7337 221.153 53.7629 221.425 53.9088C221.622 54.0139 221.807 54.1715 221.918 54.3291C222.062 54.545 222.097 54.6501 222.115 55.0003C222.138 55.3622 222.12 55.4556 221.999 55.6715C221.923 55.8116 221.773 55.9809 221.657 56.0568C221.547 56.1326 221.35 56.226 221.222 56.2727C221.071 56.3253 220.741 56.3544 219.513 56.3544L219.547 56.5295C219.565 56.6229 219.628 56.7688 219.686 56.8506C219.744 56.9323 219.854 57.0432 219.93 57.1015C220.023 57.1774 220.208 57.2183 220.498 57.2416C220.793 57.265 221.083 57.2416 221.384 57.1774C221.634 57.1249 221.86 57.0957 221.889 57.1132C221.923 57.1307 221.952 57.3058 221.952 57.5043C221.952 57.7378 221.923 57.8953 221.877 57.9362C221.836 57.9771 221.663 58.0471 221.483 58.0996C221.309 58.1522 220.985 58.2105 220.759 58.2339C220.521 58.2514 220.202 58.2397 219.976 58.1989C219.773 58.158 219.472 58.0529 219.315 57.9712C219.165 57.8837 218.945 57.7086 218.84 57.5802C218.73 57.4517 218.585 57.2008 218.516 57.0257C218.411 56.763 218.388 56.5821 218.388 56.0042C218.388 55.4206 218.406 55.2513 218.516 54.9828C218.585 54.8077 218.742 54.545 218.863 54.3991C218.985 54.2532 219.188 54.0723 219.315 53.9906C219.443 53.9147 219.663 53.8155 219.802 53.7746C219.959 53.7279 220.283 53.7046 220.585 53.7162ZM219.843 54.796C219.785 54.8486 219.71 54.9478 219.675 55.012C219.64 55.0762 219.588 55.2163 219.565 55.3155C219.518 55.5023 219.518 55.5081 219.733 55.5431C219.854 55.5665 220.127 55.5723 220.347 55.5606C220.683 55.5431 220.759 55.5139 220.857 55.3914C220.915 55.3097 220.967 55.1754 220.967 55.082C220.967 54.9945 220.938 54.8719 220.903 54.8077C220.874 54.7435 220.753 54.6676 220.631 54.6326C220.509 54.6034 220.388 54.5742 220.353 54.5801C220.324 54.5801 220.22 54.6092 220.121 54.6384C220.028 54.6676 219.901 54.7377 219.843 54.796ZM237.739 53.6987C237.965 53.6987 238.289 53.7396 238.463 53.7921C238.701 53.8621 238.852 53.9555 239.049 54.154C239.234 54.3466 239.333 54.51 239.379 54.7026C239.419 54.8602 239.448 55.0412 239.448 55.1112C239.448 55.1871 239.419 55.3505 239.385 55.4789C239.35 55.6132 239.228 55.7999 239.112 55.9167C238.996 56.0334 238.759 56.1793 238.579 56.2377C238.33 56.3311 238.11 56.3544 236.8 56.3544L236.875 56.6171C236.922 56.763 237.02 56.9381 237.101 57.0082C237.182 57.084 237.345 57.1657 237.466 57.2008C237.588 57.23 237.82 57.2591 237.988 57.2591C238.156 57.2591 238.481 57.2183 238.712 57.1716C239.049 57.1015 239.147 57.1015 239.205 57.1599C239.251 57.2008 239.28 57.3584 239.28 57.5218C239.28 57.7261 239.251 57.8428 239.176 57.9129C239.118 57.9654 238.915 58.0529 238.724 58.1113C238.481 58.1872 238.202 58.2164 237.768 58.2164C237.345 58.2105 237.084 58.1813 236.899 58.1113C236.759 58.0529 236.516 57.9129 236.36 57.7961C236.157 57.6444 236.029 57.4809 235.913 57.23C235.821 57.0373 235.716 56.693 235.681 56.4712C235.647 56.2435 235.635 55.8933 235.658 55.6832C235.676 55.4731 235.745 55.1696 235.803 55.012C235.861 54.8486 235.989 54.6092 236.087 54.4692C236.186 54.3349 236.371 54.154 236.504 54.0606C236.644 53.973 236.881 53.8563 237.043 53.8038C237.206 53.7454 237.519 53.6987 237.739 53.6987ZM237.13 54.796C237.043 54.8836 236.939 55.0645 236.893 55.1988C236.852 55.333 236.835 55.4673 236.864 55.4906C236.887 55.5139 237.153 55.5373 237.455 55.5373C237.942 55.5373 238.011 55.5256 238.133 55.403C238.214 55.3155 238.26 55.1988 238.26 55.0704C238.26 54.9478 238.22 54.8252 238.144 54.7552C238.081 54.6968 237.942 54.6326 237.826 54.6209C237.716 54.6034 237.548 54.6034 237.455 54.6151C237.362 54.6268 237.217 54.7085 237.13 54.796ZM206.241 53.7571C206.432 53.7571 206.612 53.7921 206.693 53.8446C206.78 53.903 206.832 54.0081 206.879 54.3991L207.128 54.1773C207.261 54.0548 207.493 53.9088 207.632 53.8505C207.794 53.7921 208.009 53.7571 208.472 53.7863L208.49 54.2824C208.496 54.6151 208.478 54.8019 208.432 54.8544C208.386 54.9011 208.217 54.9303 207.968 54.9244C207.754 54.9244 207.447 54.9595 206.995 55.0704V56.512C206.995 57.7553 206.983 57.9712 206.908 58.0471C206.844 58.1113 206.687 58.1346 206.386 58.1346C206.149 58.1346 205.899 58.1055 205.836 58.0763C205.725 58.0179 205.72 57.9537 205.714 55.9459C205.702 53.9614 205.708 53.8797 205.812 53.8213C205.876 53.7863 206.067 53.7571 206.241 53.7571ZM209.591 53.7571C209.823 53.7571 210.06 53.7804 210.124 53.8155C210.24 53.8738 210.24 53.9322 210.24 55.9459C210.24 57.9595 210.24 58.0179 210.124 58.0763C210.06 58.1055 209.829 58.1346 209.603 58.1346C209.382 58.1346 209.145 58.1055 209.081 58.0763C208.971 58.0179 208.965 57.9537 208.959 55.9459C208.948 53.9614 208.953 53.8797 209.058 53.8213C209.122 53.7863 209.359 53.7571 209.591 53.7571ZM224.624 53.7746C224.954 53.7804 225.157 53.8155 225.204 53.8621C225.25 53.9088 225.464 54.5917 225.69 55.3797C225.916 56.1735 226.119 56.7922 226.137 56.763C226.154 56.728 226.351 56.0743 226.583 55.3038C226.809 54.5334 227.017 53.8738 227.052 53.8446C227.087 53.8096 227.301 53.7746 227.527 53.7629C227.759 53.7512 228.02 53.7571 228.107 53.7804C228.217 53.8038 228.263 53.8505 228.263 53.9322C228.263 53.9964 227.927 54.9361 227.51 56.0159C227.099 57.1015 226.728 58.0121 226.699 58.0471C226.664 58.0763 226.438 58.1113 226.189 58.123C225.905 58.1346 225.696 58.1113 225.609 58.0646C225.493 58.0004 225.325 57.6093 224.723 56.0334C224.311 54.9595 223.969 54.0197 223.963 53.9497C223.958 53.8797 223.992 53.8096 224.039 53.7921C224.085 53.7746 224.352 53.7688 224.624 53.7746ZM229.353 53.7571C229.585 53.7571 229.822 53.7804 229.886 53.8155C230.002 53.8738 230.002 53.9322 230.002 55.9459C230.002 57.9595 230.002 58.0179 229.886 58.0763C229.822 58.1055 229.591 58.1346 229.365 58.1346C229.144 58.1346 228.907 58.1055 228.843 58.0763C228.733 58.0179 228.727 57.9537 228.721 55.9459C228.71 53.9614 228.716 53.8797 228.82 53.8213C228.884 53.7863 229.121 53.7571 229.353 53.7571ZM232.349 59.9674C232.824 59.9849 233.253 60.0258 233.387 60.0725C233.508 60.1133 233.659 60.195 233.717 60.2476C233.81 60.3351 233.827 60.4343 233.827 60.8196C233.827 61.0764 233.792 61.4616 233.746 61.6776C233.699 61.8994 233.601 62.2554 233.52 62.483C233.444 62.7048 233.282 63.0901 233.161 63.3294C233.033 63.5687 232.772 63.9305 232.581 64.1348C232.39 64.3333 232.193 64.5026 232.135 64.4967C232.077 64.4967 232.019 64.4617 231.996 64.4208C231.978 64.3858 232.071 64.0356 232.204 63.6504C232.338 63.2652 232.511 62.6873 232.587 62.3663C232.662 62.0453 232.726 61.6834 232.726 61.5608C232.726 61.4441 232.708 61.304 232.685 61.2515C232.662 61.1989 232.564 61.1172 232.465 61.0647C232.372 61.018 232.071 60.9713 231.799 60.9538C231.532 60.9363 230.941 60.9655 230.495 61.018C229.782 61.0939 229.678 61.0939 229.596 61.018C229.533 60.9538 229.527 60.9071 229.573 60.8312C229.608 60.7787 229.764 60.6445 229.921 60.5394C230.077 60.4343 230.35 60.2942 230.524 60.23C230.703 60.1658 230.999 60.0725 231.19 60.0316C231.428 59.9732 231.799 59.9557 232.349 59.9674ZM211.521 60.1775C211.55 60.1775 211.816 60.3234 212.112 60.5044C212.407 60.6853 213.039 61.0238 213.514 61.2573C213.995 61.4966 214.592 61.7709 214.847 61.876C215.102 61.9752 215.653 62.1795 216.064 62.3196C216.482 62.4597 217.16 62.664 217.571 62.7749C217.988 62.8799 218.614 63.0259 218.962 63.0901C219.315 63.1543 219.901 63.2535 220.266 63.3002C220.637 63.3527 221.558 63.4111 222.323 63.4286C223.227 63.4519 223.992 63.4344 224.497 63.3936C224.931 63.3527 225.661 63.2535 226.119 63.1776C226.583 63.1017 227.272 62.9616 227.655 62.8683C228.037 62.7749 228.692 62.5881 229.104 62.4538C229.521 62.3196 230.251 62.0511 230.726 61.8585C231.312 61.6192 231.642 61.52 231.729 61.5433C231.799 61.5608 231.886 61.6367 231.926 61.7067C231.961 61.7826 231.972 61.911 231.955 61.9986C231.926 62.1153 231.775 62.2671 231.422 62.5239C231.15 62.7282 230.657 63.0492 230.332 63.236C230.008 63.4286 229.457 63.7087 229.104 63.8722C228.756 64.0298 228.09 64.2866 227.626 64.4442C227.168 64.6018 226.438 64.8061 226.003 64.8994C225.574 64.9987 224.925 65.1154 224.554 65.1621C224.189 65.2088 223.552 65.2672 223.135 65.2905C222.7 65.3139 222.022 65.2963 221.512 65.2613C221.037 65.2205 220.347 65.1388 219.976 65.0746C219.611 65.0103 219.008 64.8819 218.632 64.7885C218.255 64.6893 217.617 64.4909 217.212 64.345C216.806 64.199 216.082 63.8839 215.601 63.6504C215.125 63.4111 214.384 62.985 213.949 62.699C213.52 62.4188 212.906 61.9694 212.587 61.7126C212.268 61.4499 211.845 61.0822 211.648 60.8954C211.451 60.7087 211.283 60.5102 211.283 60.4577C211.277 60.4051 211.318 60.3176 211.37 60.2709C211.422 60.2184 211.492 60.1775 211.521 60.1775Z" fill="#F5F5F5"/>
<path d="M14.016 66.9606C14.184 67.2246 13.944 67.3206 13.272 67.3206H12.624C11.784 67.3206 11.616 67.2966 11.448 67.0326L8.448 62.1126C7.392 60.3846 7.032 60.2646 5.328 60.2646H4.2V67.0566C4.2 67.2966 4.032 67.3206 3.144 67.3206H2.904C2.016 67.3206 1.896 67.2726 1.896 67.0566V50.0406H6.288C10.8 50.0406 13.344 51.3606 13.344 54.8646C13.344 57.5286 11.832 59.1366 9.288 59.9046C9.72 60.2406 10.104 60.7686 10.704 61.7046L14.016 66.9606ZM6.624 58.4406C9.336 58.4406 10.968 57.4086 10.968 55.0086C10.968 52.6086 9.384 51.8886 6.504 51.8886H4.2V58.4406H6.624ZM27.2691 62.6886C27.2691 65.1846 25.5171 67.0326 22.5891 67.4646V69.6246C22.5891 69.8166 22.3731 69.8886 21.8211 69.8886H21.3651C20.7651 69.8886 20.5731 69.8166 20.5731 69.6246V67.5366C18.7251 67.4166 16.9011 66.8166 15.9651 66.0966C15.7491 65.9286 15.7011 65.7846 16.0611 65.1366L16.2051 64.8726C16.4931 64.3446 16.6371 64.2726 16.8531 64.3926C18.1251 65.1606 19.6131 65.6646 21.1011 65.6646C23.5011 65.6646 24.9891 64.4646 24.9891 62.6886C24.9891 61.1766 24.0051 60.5526 21.0291 59.2086C17.8611 57.7686 16.5891 56.5206 16.5891 54.3366C16.5891 51.8886 18.5331 50.2326 21.1011 49.8726V47.9046C21.1011 47.7126 21.3171 47.6406 21.8691 47.6406H22.3251C22.9251 47.6406 23.1171 47.7126 23.1171 47.9046V49.8486C24.4371 49.9686 25.5891 50.3526 26.5731 51.0006C26.8371 51.1686 26.8371 51.2646 26.5251 51.8886L26.4051 52.1286C26.0931 52.7526 25.9971 52.7766 25.7331 52.6326C24.5331 52.0086 23.4291 51.6726 22.2531 51.6726C20.3091 51.6726 18.8691 52.7046 18.8691 54.2166C18.8691 55.6326 19.8771 56.3046 22.4451 57.5046C25.6131 58.9926 27.2691 60.1446 27.2691 62.6886ZM37.5508 67.3206C36.8788 67.3206 36.5188 67.2486 36.5188 67.0566V62.9286H30.1348C29.5108 62.9286 29.2948 62.8566 29.2948 62.5926V61.5366C29.2948 61.1046 29.4148 60.6246 29.5828 60.2406L34.3828 50.3286C34.4788 50.1126 34.8868 50.0406 35.4628 50.0406H35.8468C36.4468 50.0406 36.8548 50.1606 36.7588 50.3766L31.6468 61.0086H36.5188V57.1926C36.5188 57.0006 36.8788 56.9286 37.5028 56.9286H37.7668C38.4388 56.9286 38.7988 57.0006 38.7988 57.1926V61.0086H40.7428C40.9108 61.0086 40.9588 61.2726 40.9588 61.8006V62.1126C40.9588 62.6646 40.9108 62.9286 40.7428 62.9286H38.7988V67.0566C38.7988 67.2486 38.4388 67.3206 37.8148 67.3206H37.5508ZM48.8154 67.5606C44.2554 67.5606 43.1514 64.0326 43.1514 60.0726C43.1514 55.1286 44.9274 49.8006 50.1834 49.8006C51.4314 49.8006 52.3434 50.0646 53.2074 50.4966C53.3754 50.5926 53.3754 50.7846 53.2074 51.3126L53.1354 51.5286C52.9674 52.0086 52.8234 52.3446 52.6794 52.2726C51.9354 51.8886 50.9754 51.6966 50.1834 51.6966C47.0874 51.6966 45.9354 54.7446 45.5994 57.6246C46.5354 56.9046 47.7594 56.5446 49.0554 56.5446C52.4874 56.5446 54.1434 58.7046 54.1434 61.8486C54.1434 65.1126 52.2474 67.5606 48.8154 67.5606ZM48.8874 65.6646C51.1434 65.6646 51.8394 63.7446 51.8394 62.0646C51.8394 60.2166 51.2394 58.4166 48.8394 58.4166C47.5674 58.4166 46.3194 58.8726 45.4554 59.4486V60.0726C45.4554 62.5446 45.8154 65.6646 48.8874 65.6646Z" fill="white"/>
<path d="M58.008 56.2883C57.912 56.3723 57.78 56.3843 57.66 56.2643L57.528 56.1203C57.456 56.0483 57.384 55.9163 57.504 55.7963C57.852 55.4603 58.2 55.0163 58.2 54.5963C58.2 54.1043 57.672 54.2003 57.672 53.5163C57.672 53.0963 58.02 52.8203 58.428 52.8203C58.98 52.8203 59.304 53.2403 59.304 53.7563C59.304 54.7043 58.776 55.6763 58.008 56.2883ZM62.4865 54.4403C61.7785 54.4403 61.2265 54.2843 60.7345 54.0323C60.6505 53.9843 60.6625 53.7683 60.7465 53.5763L60.7945 53.4683C60.8785 53.2763 61.0225 53.1203 61.1065 53.1683C61.4785 53.3723 62.0425 53.4923 62.4865 53.4923C64.2745 53.4923 64.7305 51.6563 64.8265 50.0843C64.3465 50.4923 63.6145 50.7563 62.9425 50.7563C61.2625 50.7563 60.5065 49.7123 60.5065 48.2483C60.5065 46.7003 61.4665 45.5603 63.2425 45.5603C65.4625 45.5603 66.0025 47.3243 66.0025 49.3043C66.0025 51.8483 65.2225 54.4403 62.4865 54.4403ZM63.0985 49.8083C63.8185 49.8083 64.4305 49.4963 64.8745 49.2203V49.0763C64.8745 47.9243 64.6825 46.4963 63.2065 46.4963C62.0305 46.4963 61.6465 47.3843 61.6465 48.1403C61.6465 48.9803 61.9345 49.8083 63.0985 49.8083ZM69.1545 54.4403C68.4465 54.4403 67.8945 54.2843 67.4025 54.0323C67.3185 53.9843 67.3305 53.7683 67.4145 53.5763L67.4625 53.4683C67.5465 53.2763 67.6905 53.1203 67.7745 53.1683C68.1465 53.3723 68.7105 53.4923 69.1545 53.4923C70.9425 53.4923 71.3985 51.6563 71.4945 50.0843C71.0145 50.4923 70.2825 50.7563 69.6105 50.7563C67.9305 50.7563 67.1745 49.7123 67.1745 48.2483C67.1745 46.7003 68.1345 45.5603 69.9105 45.5603C72.1305 45.5603 72.6705 47.3243 72.6705 49.3043C72.6705 51.8483 71.8905 54.4403 69.1545 54.4403ZM69.7665 49.8083C70.4865 49.8083 71.0985 49.4963 71.5425 49.2203V49.0763C71.5425 47.9243 71.3505 46.4963 69.8745 46.4963C68.6985 46.4963 68.3145 47.3843 68.3145 48.1403C68.3145 48.9803 68.6025 49.8083 69.7665 49.8083Z" fill="white"/>
<path d="M57.516 67.5246C57.228 67.5246 57.12 67.4766 57.144 67.3806L59.784 58.5846C59.82 58.4766 59.928 58.4646 60.204 58.4646H60.432C60.72 58.4646 60.84 58.5126 60.816 58.6086L58.188 67.4046C58.164 67.4886 58.032 67.5246 57.756 67.5246H57.516ZM62.3649 67.3206C61.8849 67.3206 61.8489 67.2726 61.8489 67.1766V63.0846C61.8489 62.2686 61.8249 61.4286 61.8249 61.1286C61.8249 61.0326 61.8609 60.9846 62.3169 60.9846H62.3769C62.8089 60.9846 62.8689 61.0206 62.8689 61.1286L62.8809 61.6686H62.8929C63.3129 61.1766 64.0089 60.8646 64.7529 60.8646C65.4129 60.8646 65.9769 61.0926 66.3729 61.5006C66.4809 61.6206 66.5769 61.7406 66.6489 61.8846C67.1289 61.2246 67.9569 60.8646 68.8089 60.8646C69.4689 60.8646 70.0329 61.0926 70.4289 61.5006C70.8609 61.9446 71.0409 62.5686 71.0409 63.5406V67.1766C71.0409 67.2606 71.0289 67.3206 70.5489 67.3206H70.4769C69.9969 67.3206 69.9609 67.2726 69.9609 67.1766V64.0446C69.9609 63.0726 69.9249 62.6166 69.6369 62.2806C69.4089 62.0046 69.0009 61.8846 68.5449 61.8846C68.1249 61.8846 67.6209 62.0406 67.3449 62.3046C67.2009 62.4366 67.0689 62.6406 67.0209 63.1566C66.9969 63.4926 66.9849 64.1046 66.9849 64.8006V67.1766C66.9849 67.2606 66.9729 67.3206 66.4929 67.3206H66.4209C65.9409 67.3206 65.9049 67.2726 65.9049 67.1766V64.0446C65.9049 63.0726 65.8689 62.6166 65.5809 62.2806C65.3529 62.0046 64.9449 61.8846 64.4889 61.8846C64.0689 61.8846 63.5649 62.0406 63.2889 62.3046C63.1449 62.4366 63.0129 62.6406 62.9649 63.1566C62.9409 63.4926 62.9289 64.1046 62.9289 64.8006V67.1766C62.9289 67.2606 62.9169 67.3206 62.4369 67.3206H62.3649ZM76.5748 60.1926L75.2548 59.0406L73.9108 60.1806C73.8628 60.2286 73.7428 60.1806 73.6228 60.0486L73.5388 59.9526C73.3948 59.7966 73.3588 59.7006 73.4188 59.6286L74.5108 58.4646C74.5948 58.3686 74.7268 58.3086 75.0388 58.3086H75.4948C75.8308 58.3086 75.9628 58.3926 76.0348 58.4766L77.1028 59.6046C77.1748 59.6766 77.1268 59.7966 76.9828 59.9526L76.8868 60.0606C76.7788 60.1926 76.6348 60.2526 76.5748 60.1926ZM75.3628 67.4406C73.4188 67.4406 72.4228 66.2286 72.4228 64.2966C72.4228 62.2806 73.5268 60.8646 75.3028 60.8646C76.3708 60.8646 77.1028 61.3926 77.4988 62.1846C77.7748 62.7366 77.8948 63.3966 77.8948 64.1046C77.8948 64.4646 77.8708 64.5366 77.7748 64.5366H73.5508C73.5868 65.1966 73.7788 65.7126 74.1508 66.0246C74.4748 66.3126 74.9428 66.4566 75.5668 66.4566C76.0708 66.4566 76.5748 66.3366 77.1508 66.0726C77.2588 66.0246 77.3308 66.0006 77.4508 66.3006L77.5108 66.4446C77.6428 66.7566 77.6308 66.8286 77.5348 66.8886C76.9228 67.2486 76.1668 67.4406 75.3628 67.4406ZM73.5868 63.6486H76.7908C76.7788 62.7486 76.3228 61.8486 75.3148 61.8486C74.4388 61.8486 73.7548 62.4126 73.5868 63.6486ZM80.9782 67.4406C80.2102 67.4406 79.4662 67.1646 79.0102 66.8406C78.8902 66.7566 78.9262 66.6846 79.0582 66.4086L79.1182 66.2766C79.2742 65.9406 79.3222 65.9286 79.4782 66.0246C79.9342 66.2886 80.5102 66.5046 81.0382 66.5046C81.5902 66.5046 82.3582 66.2286 82.3582 65.5326C82.3582 64.8846 81.5902 64.6686 80.9782 64.5366C80.3422 64.3926 79.8742 64.2246 79.5502 63.9246C79.2502 63.6486 79.0702 63.2286 79.0702 62.7606C79.0702 61.5846 80.0902 60.8646 81.2902 60.8646C82.0462 60.8646 82.7422 61.1286 83.1862 61.5246C83.2822 61.6086 83.3062 61.7166 83.1382 61.9566L83.0542 62.0766C82.8382 62.3886 82.7782 62.3886 82.6942 62.3166C82.2502 62.0046 81.8302 61.7886 81.3022 61.7886C80.8102 61.7886 80.1022 61.9806 80.1022 62.6406C80.1022 63.2886 80.7742 63.4566 81.3502 63.6006C82.3342 63.8526 83.3782 64.2126 83.3782 65.4606C83.3782 66.7446 82.2982 67.4406 80.9782 67.4406Z" fill="white"/>
<path d="M0.854 14.3206C0.308 14.3206 0.252 14.2926 0.308 14.1386L4.046 4.43656C4.102 4.26856 4.172 4.24056 4.76 4.24056H4.83C5.432 4.24056 5.502 4.25456 5.586 4.43656L9.38 14.1386C9.436 14.2786 9.324 14.3206 8.792 14.3206H8.652C8.092 14.3206 7.994 14.2926 7.924 14.1526L7.014 11.6606H2.59L1.666 14.1526C1.61 14.2926 1.512 14.3206 0.98 14.3206H0.854ZM2.954 10.6106H6.636L6.202 9.42056C5.67 7.99256 5.194 6.66256 4.816 5.50056C4.41 6.63456 3.906 8.02056 3.402 9.37856L2.954 10.6106ZM12.874 14.4606C12.244 14.4606 11.782 14.2926 11.474 13.9986C11.068 13.6206 10.942 13.0886 10.942 12.1506V7.92256H9.72399C9.63999 7.92256 9.61199 7.85256 9.61199 7.60056V7.51656C9.61199 7.29256 9.63999 7.20856 9.73799 7.18056C10.956 6.83056 11.18 6.27056 11.32 4.96856C11.334 4.88456 11.404 4.85656 11.712 4.85656H11.81C12.132 4.85656 12.202 4.89856 12.202 4.98256V6.92856H13.966C14.064 6.92856 14.092 6.99856 14.092 7.36256V7.47456C14.092 7.85256 14.064 7.92256 13.966 7.92256H12.202V12.0526C12.202 12.5846 12.244 12.9346 12.426 13.1306C12.58 13.2986 12.818 13.3826 13.14 13.3826C13.462 13.3826 13.812 13.2846 14.092 13.2006C14.232 13.1586 14.274 13.2146 14.344 13.4806L14.386 13.6626C14.456 13.9566 14.456 14.0406 14.344 14.1106C13.994 14.3346 13.392 14.4606 12.874 14.4606ZM18.2956 6.04656C17.8476 6.04656 17.8196 5.96256 17.8756 5.87856L18.8976 4.08656C18.9536 3.98856 19.1216 3.93256 19.5136 3.93256H19.6816C20.1996 3.93256 20.2976 4.03056 20.2276 4.12856L18.9116 5.92056C18.8696 5.99056 18.7436 6.04656 18.4076 6.04656H18.2956ZM18.7436 14.4606C16.4756 14.4606 15.3136 13.0466 15.3136 10.7926C15.3136 8.44056 16.6016 6.78856 18.6736 6.78856C19.9196 6.78856 20.7736 7.40456 21.2356 8.32856C21.5576 8.97256 21.6976 9.74256 21.6976 10.5686C21.6976 10.9886 21.6696 11.0726 21.5576 11.0726H16.6296C16.6716 11.8426 16.8956 12.4446 17.3296 12.8086C17.7076 13.1446 18.2536 13.3126 18.9816 13.3126C19.5696 13.3126 20.1576 13.1726 20.8296 12.8646C20.9556 12.8086 21.0396 12.7806 21.1796 13.1306L21.2496 13.2986C21.4036 13.6626 21.3896 13.7466 21.2776 13.8166C20.5636 14.2366 19.6816 14.4606 18.7436 14.4606ZM16.6716 10.0366H20.4096C20.3956 8.98656 19.8636 7.93656 18.6876 7.93656C17.6656 7.93656 16.8676 8.59456 16.6716 10.0366Z" fill="white"/>
<defs>
<linearGradient id="paint0_linear_2773_1227" x1="157.507" y1="53.6033" x2="156.971" y2="53.6088" gradientUnits="userSpaceOnUse">
<stop stop-color="#80020E"/>
<stop offset="1" stop-color="#B10610"/>
</linearGradient>
<linearGradient id="paint1_linear_2773_1227" x1="160.454" y1="53.2583" x2="159.584" y2="53.2668" gradientUnits="userSpaceOnUse">
<stop stop-color="#B10610"/>
<stop offset="1" stop-color="#80020E"/>
</linearGradient>
<clipPath id="clip0_2773_1227">
<rect width="22.6022" height="22.6022" fill="white" transform="translate(147.603 44.959)"/>
</clipPath>
<clipPath id="clip1_2773_1227">
<rect width="18.4927" height="11.3011" fill="white" transform="translate(176.261 49.6311)"/>
</clipPath>
</defs>
</svg>
