<svg width="279" height="48" viewBox="0 0 279 48" fill="none" xmlns="http://www.w3.org/2000/svg">
<path d="M2.608 19.321C2.392 19.321 2.32 19.201 2.32 18.145V17.905C2.32 16.849 2.392 16.729 2.608 16.729H5.728V5.64104L2.776 6.91304C2.488 7.03304 2.32 6.91304 1.912 5.97704L1.768 5.64104C1.408 4.80104 1.408 4.56104 1.672 4.44104L5.848 2.49704C6.664 2.13704 7.048 2.04104 7.6 2.04104H8.2C8.968 2.04104 9.064 2.13704 9.064 2.40104V16.729H11.872C12.088 16.729 12.16 16.849 12.16 17.905V18.145C12.16 19.201 12.088 19.321 11.872 19.321H2.608ZM19.3656 19.561C15.3336 19.561 13.6296 16.465 13.6296 11.905C13.6296 5.78504 16.1976 1.80104 20.4216 1.80104C21.8136 1.80104 23.0376 2.25704 23.7816 2.78504C24.1176 3.02504 24.0696 3.26504 23.7816 3.81704L23.4696 4.41704C23.1096 5.11304 22.9656 5.13704 22.7496 5.04104C22.0056 4.68104 21.3096 4.46504 20.5896 4.46504C19.6296 4.46504 18.9576 4.80104 18.4296 5.47304C17.7816 6.31304 17.3496 7.63304 17.1576 9.36104C18.0216 8.71304 19.1976 8.25704 20.3496 8.25704C23.3256 8.25704 25.1976 10.345 25.1976 13.441C25.1976 16.681 22.9416 19.561 19.3656 19.561ZM19.4856 16.873C20.8536 16.873 21.8856 15.529 21.8856 13.609C21.8856 11.809 21.0456 10.897 19.4856 10.897C18.7176 10.897 17.7096 11.233 17.0376 11.713V12.025C17.0376 15.265 17.9496 16.873 19.4856 16.873ZM35.1278 19.561C29.5838 19.561 26.9198 16.201 26.9198 10.681C26.9198 5.23304 30.1118 1.80104 35.4878 1.80104C37.5518 1.80104 39.3518 2.25704 40.9598 3.36104C41.3198 3.60104 41.2958 3.72104 40.7678 4.58504L40.3838 5.20904C39.9278 5.95304 39.8078 5.97704 39.4718 5.78504C38.2958 5.08904 37.1678 4.72904 35.7518 4.72904C32.3198 4.72904 30.5198 6.76904 30.5198 10.657C30.5198 14.617 32.1998 16.657 35.5358 16.657C36.2798 16.657 37.2878 16.513 37.9838 16.345V12.409H35.0078C34.6958 12.409 34.5758 12.313 34.5758 11.089V10.897C34.5758 9.62504 34.6718 9.62504 35.0078 9.62504H40.4078C41.3678 9.62504 41.4398 9.67304 41.4398 10.033V17.929C41.4398 18.241 41.4158 18.313 41.2238 18.409C39.8318 19.105 37.2878 19.561 35.1278 19.561ZM45.8783 19.321C44.8703 19.321 44.8463 19.249 44.8463 18.961V2.40104C44.8463 2.08904 44.8943 2.04104 45.8783 2.04104H49.9583C54.1343 2.04104 56.5823 3.36104 56.5823 6.36104C56.5823 8.13704 55.6223 9.33704 54.1103 10.105C56.3183 10.705 57.5423 12.097 57.5423 14.353C57.5423 17.905 54.6383 19.321 50.3183 19.321H45.8783ZM48.3503 9.12104H49.9823C51.9983 9.12104 53.0783 8.44904 53.0783 6.86504C53.0783 5.32904 52.0463 4.80104 50.0303 4.80104H48.3503V9.12104ZM48.3503 16.585H50.4143C52.8623 16.585 53.9903 15.889 53.9903 14.137C53.9903 12.313 52.7903 11.761 50.4143 11.761H48.3503V16.585Z" fill="#FAB932"/>
<path d="M14.016 44.9608C14.184 45.2248 13.944 45.3208 13.272 45.3208H12.624C11.784 45.3208 11.616 45.2968 11.448 45.0328L8.448 40.1128C7.392 38.3848 7.032 38.2648 5.328 38.2648H4.2V45.0568C4.2 45.2968 4.032 45.3208 3.144 45.3208H2.904C2.016 45.3208 1.896 45.2728 1.896 45.0568V28.0408H6.288C10.8 28.0408 13.344 29.3608 13.344 32.8648C13.344 35.5288 11.832 37.1368 9.288 37.9048C9.72 38.2408 10.104 38.7688 10.704 39.7048L14.016 44.9608ZM6.624 36.4408C9.336 36.4408 10.968 35.4088 10.968 33.0088C10.968 30.6088 9.384 29.8888 6.504 29.8888H4.2V36.4408H6.624ZM27.2691 40.6888C27.2691 43.1848 25.5171 45.0328 22.5891 45.4648V47.6248C22.5891 47.8168 22.3731 47.8888 21.8211 47.8888H21.3651C20.7651 47.8888 20.5731 47.8168 20.5731 47.6248V45.5368C18.7251 45.4168 16.9011 44.8168 15.9651 44.0968C15.7491 43.9288 15.7011 43.7848 16.0611 43.1368L16.2051 42.8728C16.4931 42.3448 16.6371 42.2728 16.8531 42.3928C18.1251 43.1608 19.6131 43.6648 21.1011 43.6648C23.5011 43.6648 24.9891 42.4648 24.9891 40.6888C24.9891 39.1768 24.0051 38.5528 21.0291 37.2088C17.8611 35.7688 16.5891 34.5208 16.5891 32.3368C16.5891 29.8888 18.5331 28.2328 21.1011 27.8728V25.9048C21.1011 25.7128 21.3171 25.6408 21.8691 25.6408H22.3251C22.9251 25.6408 23.1171 25.7128 23.1171 25.9048V27.8488C24.4371 27.9688 25.5891 28.3528 26.5731 29.0008C26.8371 29.1688 26.8371 29.2648 26.5251 29.8888L26.4051 30.1288C26.0931 30.7528 25.9971 30.7768 25.7331 30.6328C24.5331 30.0088 23.4291 29.6728 22.2531 29.6728C20.3091 29.6728 18.8691 30.7048 18.8691 32.2168C18.8691 33.6328 19.8771 34.3048 22.4451 35.5048C25.6131 36.9928 27.2691 38.1448 27.2691 40.6888ZM33.3748 45.5608C32.0308 45.5608 30.5668 45.2488 29.3668 44.6968C29.2468 44.6488 29.1988 44.4568 29.4148 43.8808L29.5828 43.4728C29.7748 42.9928 29.9428 42.8728 30.0628 42.9208C31.0228 43.4008 32.3188 43.6648 33.3268 43.6648C35.3668 43.6648 36.9988 42.5608 36.9988 40.4248C36.9988 38.1208 34.9108 37.1368 32.6788 37.1368H31.7428C31.5988 37.1368 31.5508 37.0408 31.5508 36.4408V36.0328C31.5508 35.4328 31.5988 35.3368 31.7428 35.3368H32.6548C34.6948 35.3368 36.3988 34.4728 36.3988 32.3608C36.3988 30.3928 34.9588 29.6248 33.3508 29.6248C32.4388 29.6248 31.3108 29.8648 30.3988 30.3688C30.2788 30.4408 30.1348 30.3448 29.9188 29.8648L29.7508 29.5048C29.5348 29.0488 29.5828 28.8328 29.7028 28.7608C30.7828 28.1848 32.1268 27.8008 33.5188 27.8008C36.1588 27.8008 38.6548 29.2168 38.6548 32.1928C38.6548 34.1128 37.5748 35.6488 36.0868 36.1288C37.6228 36.4168 39.3028 37.7848 39.3028 40.3528C39.3028 43.8328 36.4228 45.5608 33.3748 45.5608ZM47.6659 45.5608C44.1859 45.5608 42.0499 42.8008 42.0499 37.0408C42.0499 31.0408 44.2819 27.8008 48.0739 27.8008C51.5299 27.8008 53.6899 30.4648 53.6899 36.2968C53.6899 42.2248 51.5059 45.5608 47.6659 45.5608ZM47.7619 43.6648C50.1139 43.6648 51.4099 41.0728 51.4099 36.4168C51.4099 32.0008 50.2099 29.6968 47.9779 29.6968C45.6979 29.6968 44.3539 32.1688 44.3539 36.8728C44.3539 41.2888 45.5059 43.6648 47.7619 43.6648Z" fill="white"/>
<path d="M58.516 45.5248C58.228 45.5248 58.12 45.4768 58.144 45.3808L60.784 36.5848C60.82 36.4768 60.928 36.4648 61.204 36.4648H61.432C61.72 36.4648 61.84 36.5128 61.816 36.6088L59.188 45.4048C59.164 45.4888 59.032 45.5248 58.756 45.5248H58.516ZM64.4569 45.4408C63.7849 45.4408 63.0529 45.2848 62.4529 45.0088C62.3929 44.9848 62.3689 44.8888 62.4769 44.6008L62.5609 44.3968C62.6569 44.1568 62.7409 44.0968 62.8009 44.1208C63.2809 44.3608 63.9289 44.4928 64.4329 44.4928C65.4529 44.4928 66.2689 43.9408 66.2689 42.8728C66.2689 41.7208 65.2249 41.2288 64.1089 41.2288H63.6409C63.5689 41.2288 63.5449 41.1808 63.5449 40.8808V40.6768C63.5449 40.3768 63.5689 40.3288 63.6409 40.3288H64.0969C65.1169 40.3288 65.9689 39.8968 65.9689 38.8408C65.9689 37.8568 65.2489 37.4728 64.4449 37.4728C63.9889 37.4728 63.4249 37.5928 62.9689 37.8448C62.9089 37.8808 62.8369 37.8328 62.7289 37.5928L62.6449 37.4128C62.5369 37.1848 62.5609 37.0768 62.6209 37.0408C63.1609 36.7528 63.8329 36.5608 64.5289 36.5608C65.8489 36.5608 67.0969 37.2688 67.0969 38.7568C67.0969 39.7168 66.5569 40.4848 65.8129 40.7248C66.5809 40.8688 67.4209 41.5528 67.4209 42.8368C67.4209 44.5768 65.9809 45.4408 64.4569 45.4408ZM71.6025 45.4408C69.8625 45.4408 68.7945 44.0608 68.7945 41.1808C68.7945 38.1808 69.9105 36.5608 71.8065 36.5608C73.5345 36.5608 74.6145 37.8928 74.6145 40.8088C74.6145 43.7728 73.5225 45.4408 71.6025 45.4408ZM71.6505 44.4928C72.8265 44.4928 73.4745 43.1968 73.4745 40.8688C73.4745 38.6608 72.8745 37.5088 71.7585 37.5088C70.6185 37.5088 69.9465 38.7448 69.9465 41.0968C69.9465 43.3048 70.5225 44.4928 71.6505 44.4928ZM81.2877 45.4408C79.7037 45.4408 78.7197 44.2528 78.7197 42.2848C78.7197 40.4848 79.6557 38.8648 81.6357 38.8648C82.1277 38.8648 82.6917 39.0568 82.9917 39.2608V36.3568C82.9917 36.2368 83.0997 36.2008 83.5077 36.2008H83.5797C83.9637 36.2008 84.0717 36.2368 84.0717 36.3568V43.8208C84.0717 44.4208 84.1677 44.4688 84.4917 44.4688C84.5637 44.4688 84.5997 44.5408 84.5997 44.7928V44.8768C84.5997 45.1648 84.5637 45.2488 84.4917 45.2728C84.3237 45.3328 84.1677 45.3448 83.9637 45.3448C83.6037 45.3448 83.2797 45.1168 83.1357 44.6488H83.1237C82.8237 45.0568 82.1517 45.4408 81.2877 45.4408ZM81.5037 44.4808C81.9117 44.4808 82.3677 44.3488 82.6437 44.0728C82.9197 43.7968 82.9917 43.4008 82.9917 42.3928V40.2928C82.6917 40.0408 82.1757 39.8488 81.6957 39.8488C80.5677 39.8488 79.8477 40.7968 79.8477 42.2488C79.8477 43.7248 80.5677 44.4808 81.5037 44.4808ZM86.5806 37.7968C86.1606 37.7968 85.8246 37.4608 85.8246 37.0408C85.8246 36.6208 86.1606 36.2848 86.5806 36.2848C87.0006 36.2848 87.3366 36.6208 87.3366 37.0408C87.3366 37.4608 87.0006 37.7968 86.5806 37.7968ZM86.5566 45.3208C86.0766 45.3208 86.0406 45.2728 86.0406 45.1768V39.1288C86.0406 39.0328 86.0766 38.9848 86.5566 38.9848H86.6286C87.1086 38.9848 87.1206 39.0448 87.1206 39.1288V45.1768C87.1206 45.2608 87.1086 45.3208 86.6286 45.3208H86.5566ZM91.1314 45.4408C89.3794 45.4408 88.5634 43.9888 88.5634 42.2608C88.5634 40.2088 89.7394 38.8648 91.3234 38.8648C92.0434 38.8648 92.6074 39.2008 92.9434 39.6328L93.0034 39.1288C93.0154 38.9848 93.0754 38.9848 93.4354 38.9848H93.4594C93.9154 38.9848 93.9274 39.0328 93.9274 39.1288C93.9274 39.4168 93.9034 40.1848 93.9034 40.9528V42.6328C93.9034 43.7368 93.9514 44.5168 93.9874 45.1768C93.9874 45.2728 93.9274 45.3208 93.5554 45.3208H93.5074C93.1354 45.3208 93.0634 45.2848 93.0514 45.1768L92.9794 44.6248C92.5954 45.0928 91.9114 45.4408 91.1314 45.4408ZM91.3234 44.4808C91.7194 44.4808 92.1994 44.3608 92.5234 44.0128C92.7754 43.7368 92.8234 43.4008 92.8234 42.3568V40.6528C92.5474 40.2208 92.0074 39.8368 91.4434 39.8368C90.3394 39.8368 89.6914 40.7608 89.6914 42.2008C89.6914 43.3288 90.0874 44.4808 91.3234 44.4808ZM97.4 45.4408C96.632 45.4408 95.888 45.1648 95.432 44.8408C95.312 44.7568 95.348 44.6848 95.48 44.4088L95.54 44.2768C95.696 43.9408 95.744 43.9288 95.9 44.0248C96.356 44.2888 96.932 44.5048 97.46 44.5048C98.012 44.5048 98.78 44.2288 98.78 43.5328C98.78 42.8848 98.012 42.6688 97.4 42.5368C96.764 42.3928 96.296 42.2248 95.972 41.9248C95.672 41.6488 95.492 41.2288 95.492 40.7608C95.492 39.5848 96.512 38.8648 97.712 38.8648C98.468 38.8648 99.164 39.1288 99.608 39.5248C99.704 39.6088 99.728 39.7168 99.56 39.9568L99.476 40.0768C99.26 40.3888 99.2 40.3888 99.116 40.3168C98.672 40.0048 98.252 39.7888 97.724 39.7888C97.232 39.7888 96.524 39.9808 96.524 40.6408C96.524 41.2888 97.196 41.4568 97.772 41.6008C98.756 41.8528 99.8 42.2128 99.8 43.4608C99.8 44.7448 98.72 45.4408 97.4 45.4408Z" fill="white"/>
<path d="M177.892 16.9489C177.57 16.9489 177.458 16.9069 177.458 16.8089V13.7009H174.532C174.434 13.7009 174.406 13.5889 174.406 13.2809V13.1549C174.406 12.8609 174.434 12.7489 174.532 12.7489H177.458V9.66892C177.458 9.57092 177.57 9.52892 177.892 9.52892H178.102C178.41 9.52892 178.522 9.57092 178.522 9.66892V12.7489H181.448C181.546 12.7489 181.574 12.8609 181.574 13.1549V13.2809C181.574 13.5889 181.546 13.7009 181.448 13.7009H178.522V16.8089C178.522 16.9069 178.41 16.9489 178.102 16.9489H177.892ZM187.332 18.3209C186.94 18.3209 186.73 18.2789 186.73 18.1669V15.7589H183.006C182.642 15.7589 182.516 15.7169 182.516 15.5629V14.9469C182.516 14.6949 182.586 14.4149 182.684 14.1909L185.484 8.40892C185.54 8.28292 185.778 8.24092 186.114 8.24092H186.338C186.688 8.24092 186.926 8.31092 186.87 8.43692L183.888 14.6389H186.73V12.4129C186.73 12.3009 186.94 12.2589 187.304 12.2589H187.458C187.85 12.2589 188.06 12.3009 188.06 12.4129V14.6389H189.194C189.292 14.6389 189.32 14.7929 189.32 15.1009V15.2829C189.32 15.6049 189.292 15.7589 189.194 15.7589H188.06V18.1669C188.06 18.2789 187.85 18.3209 187.486 18.3209H187.332ZM195.345 18.4609C192.125 18.4609 190.557 16.4169 190.557 13.3369C190.557 10.2009 192.335 8.10092 195.387 8.10092C196.549 8.10092 197.557 8.36692 198.411 8.92692C198.551 9.01092 198.537 9.09492 198.369 9.40292L198.243 9.62692C198.089 9.89292 198.033 9.93492 197.893 9.86492C197.109 9.44492 196.339 9.23492 195.443 9.23492C193.217 9.23492 191.957 10.6909 191.957 13.2809C191.957 15.9269 193.175 17.3409 195.471 17.3409C196.129 17.3409 196.885 17.2009 197.403 17.0329V14.0089H195.149C195.023 14.0089 194.981 13.9529 194.981 13.5049V13.4349C194.981 12.9729 195.009 12.9309 195.149 12.9309H198.719V17.7749C197.711 18.2089 196.465 18.4609 195.345 18.4609ZM200.741 18.3209V8.24092H203.653C205.851 8.24092 207.209 8.94092 207.209 10.7609C207.209 11.9229 206.453 12.6369 205.599 12.9729C206.915 13.2249 207.783 14.0509 207.783 15.4649C207.783 17.5089 206.159 18.3209 203.877 18.3209H200.741ZM202.085 12.6229H203.569C204.955 12.6229 205.865 12.1189 205.865 10.9289C205.865 9.62692 205.011 9.30492 203.653 9.30492H202.085V12.6229ZM202.085 17.2569H203.821C205.403 17.2569 206.411 16.7949 206.411 15.4369C206.411 14.7929 206.187 14.3449 205.781 14.0649C205.333 13.7429 204.647 13.6309 203.779 13.6309H202.085V17.2569ZM216.224 10.7889C218.072 10.7889 219.206 12.1749 219.206 14.4709C219.206 16.5709 218.1 18.4469 215.79 18.4469C215.244 18.4469 214.614 18.2509 214.264 18.0129V21.3869C214.264 21.5269 214.138 21.5689 213.662 21.5689H213.578C213.13 21.5689 213.004 21.5269 213.004 21.3869V13.3789C213.004 12.4269 212.976 11.4469 212.976 11.0969C212.976 10.9849 213.018 10.9289 213.55 10.9289H213.606C214.11 10.9289 214.194 10.9709 214.194 11.0969L214.208 11.7129C214.642 11.1669 215.468 10.7889 216.224 10.7889ZM215.72 17.3129C217.036 17.3129 217.89 16.2069 217.89 14.5129C217.89 12.8189 217.106 11.9229 216.014 11.9229C215.454 11.9229 214.81 12.1749 214.53 12.5389C214.278 12.8609 214.264 13.2249 214.264 14.6109V16.7809C214.614 17.0749 215.16 17.3129 215.72 17.3129ZM223.468 18.4609C221.424 18.4609 220.472 16.7669 220.472 14.7509C220.472 12.3569 221.844 10.7889 223.692 10.7889C224.532 10.7889 225.19 11.1809 225.582 11.6849L225.652 11.0969C225.666 10.9289 225.736 10.9289 226.156 10.9289H226.184C226.716 10.9289 226.73 10.9849 226.73 11.0969C226.73 11.4329 226.702 12.3289 226.702 13.2249V15.1849C226.702 16.4729 226.758 17.3829 226.8 18.1529C226.8 18.2649 226.73 18.3209 226.296 18.3209H226.24C225.806 18.3209 225.722 18.2789 225.708 18.1529L225.624 17.5089C225.176 18.0549 224.378 18.4609 223.468 18.4609ZM223.692 17.3409C224.154 17.3409 224.714 17.2009 225.092 16.7949C225.386 16.4729 225.442 16.0809 225.442 14.8629V12.8749C225.12 12.3709 224.49 11.9229 223.832 11.9229C222.544 11.9229 221.788 13.0009 221.788 14.6809C221.788 15.9969 222.25 17.3409 223.692 17.3409ZM229.465 18.3209C228.905 18.3209 228.863 18.2649 228.863 18.1529V13.3789C228.863 12.4269 228.835 11.4469 228.835 11.0969C228.835 10.9849 228.877 10.9289 229.409 10.9289H229.479C229.983 10.9289 230.053 10.9709 230.053 11.0969L230.081 12.5389C230.613 11.3629 231.383 10.8449 232.125 10.8449C232.251 10.8449 232.349 10.8589 232.419 10.8729C232.545 10.9009 232.559 10.9429 232.559 11.2649V11.4749C232.559 11.8809 232.545 11.9929 232.405 11.9929C231.411 11.9929 230.907 12.6089 230.501 13.2669C230.305 13.5889 230.193 13.9809 230.165 14.4709C230.137 14.8629 230.123 15.7309 230.123 16.5429V18.1529C230.123 18.2509 230.109 18.3209 229.549 18.3209H229.465ZM236.224 18.4609C234.18 18.4609 233.228 16.7669 233.228 14.7509C233.228 12.3569 234.6 10.7889 236.448 10.7889C237.288 10.7889 237.946 11.1809 238.338 11.6849L238.408 11.0969C238.422 10.9289 238.492 10.9289 238.912 10.9289H238.94C239.472 10.9289 239.486 10.9849 239.486 11.0969C239.486 11.4329 239.458 12.3289 239.458 13.2249V15.1849C239.458 16.4729 239.514 17.3829 239.556 18.1529C239.556 18.2649 239.486 18.3209 239.052 18.3209H238.996C238.562 18.3209 238.478 18.2789 238.464 18.1529L238.38 17.5089C237.932 18.0549 237.134 18.4609 236.224 18.4609ZM236.448 17.3409C236.91 17.3409 237.47 17.2009 237.848 16.7949C238.142 16.4729 238.198 16.0809 238.198 14.8629V12.8749C237.876 12.3709 237.246 11.9229 236.588 11.9229C235.3 11.9229 234.544 13.0009 234.544 14.6809C234.544 15.9969 235.006 17.3409 236.448 17.3409ZM247.555 18.4609C246.799 18.4609 246.155 18.2089 245.693 17.7189C245.203 17.2009 245.007 16.4729 245.007 15.3389V11.0969C245.007 10.9989 245.035 10.9289 245.567 10.9289H245.679C246.211 10.9289 246.267 10.9849 246.267 11.0969V14.7649C246.267 15.8709 246.309 16.4449 246.617 16.8229C246.869 17.1309 247.289 17.2989 247.863 17.2989C248.409 17.2989 249.053 17.1169 249.389 16.7949C249.683 16.5149 249.837 16.0949 249.837 14.5549V11.0969C249.837 10.9989 249.921 10.9289 250.397 10.9289H250.523C250.999 10.9289 251.097 10.9849 251.097 11.0969V15.8709C251.097 16.8229 251.125 17.8029 251.125 18.1529C251.125 18.2649 251.083 18.3209 250.551 18.3209H250.495C250.005 18.3209 249.921 18.2649 249.921 18.1529L249.893 17.5509H249.879C249.361 18.1249 248.591 18.4609 247.555 18.4609ZM255.172 18.4609C254.276 18.4609 253.408 18.1389 252.876 17.7609C252.736 17.6629 252.778 17.5789 252.932 17.2569L253.002 17.1029C253.184 16.7109 253.24 16.6969 253.422 16.8089C253.954 17.1169 254.626 17.3689 255.242 17.3689C255.886 17.3689 256.782 17.0469 256.782 16.2349C256.782 15.4789 255.886 15.2269 255.172 15.0729C254.43 14.9049 253.884 14.7089 253.506 14.3589C253.156 14.0369 252.946 13.5469 252.946 13.0009C252.946 11.6289 254.136 10.7889 255.536 10.7889C256.418 10.7889 257.23 11.0969 257.748 11.5589C257.86 11.6569 257.888 11.7829 257.692 12.0629L257.594 12.2029C257.342 12.5669 257.272 12.5669 257.174 12.4829C256.656 12.1189 256.166 11.8669 255.55 11.8669C254.976 11.8669 254.15 12.0909 254.15 12.8609C254.15 13.6169 254.934 13.8129 255.606 13.9809C256.754 14.2749 257.972 14.6949 257.972 16.1509C257.972 17.6489 256.712 18.4609 255.172 18.4609ZM262.214 18.4609C260.17 18.4609 259.218 16.7669 259.218 14.7509C259.218 12.3569 260.59 10.7889 262.438 10.7889C263.278 10.7889 263.936 11.1809 264.328 11.6849L264.398 11.0969C264.412 10.9289 264.482 10.9289 264.902 10.9289H264.93C265.462 10.9289 265.476 10.9849 265.476 11.0969C265.476 11.4329 265.448 12.3289 265.448 13.2249V15.1849C265.448 16.4729 265.504 17.3829 265.546 18.1529C265.546 18.2649 265.476 18.3209 265.042 18.3209H264.986C264.552 18.3209 264.468 18.2789 264.454 18.1529L264.37 17.5089C263.922 18.0549 263.124 18.4609 262.214 18.4609ZM262.438 17.3409C262.9 17.3409 263.46 17.2009 263.838 16.7949C264.132 16.4729 264.188 16.0809 264.188 14.8629V12.8749C263.866 12.3709 263.236 11.9229 262.578 11.9229C261.29 11.9229 260.534 13.0009 260.534 14.6809C260.534 15.9969 260.996 17.3409 262.438 17.3409ZM268.211 18.3209C267.651 18.3209 267.609 18.2649 267.609 18.1529V13.3789C267.609 12.4269 267.581 11.4469 267.581 11.0969C267.581 10.9849 267.623 10.9289 268.155 10.9289H268.225C268.729 10.9289 268.799 10.9709 268.799 11.0969L268.827 12.5389C269.359 11.3629 270.129 10.8449 270.871 10.8449C270.997 10.8449 271.095 10.8589 271.165 10.8729C271.291 10.9009 271.305 10.9429 271.305 11.2649V11.4749C271.305 11.8809 271.291 11.9929 271.151 11.9929C270.157 11.9929 269.653 12.6089 269.247 13.2669C269.051 13.5889 268.939 13.9809 268.911 14.4709C268.883 14.8629 268.869 15.7309 268.869 16.5429V18.1529C268.869 18.2509 268.855 18.3209 268.295 18.3209H268.211ZM273.299 13.2389C272.781 13.2389 272.361 12.8189 272.361 12.3009C272.361 11.7829 272.781 11.3629 273.299 11.3629C273.817 11.3629 274.237 11.7829 274.237 12.3009C274.237 12.8189 273.817 13.2389 273.299 13.2389ZM273.299 18.4609C272.781 18.4609 272.361 18.0409 272.361 17.5229C272.361 17.0049 272.781 16.5849 273.299 16.5849C273.817 16.5849 274.237 17.0049 274.237 17.5229C274.237 18.0409 273.817 18.4609 273.299 18.4609Z" fill="white"/>
<rect x="174" y="28.1273" width="17.4194" height="17.4194" rx="8.70968" fill="#1877F2"/>
<path d="M188.516 36.6938C188.516 33.5661 185.92 31.0305 182.71 31.0305C179.499 31.0305 176.903 33.5661 176.903 36.6938C176.903 39.515 179.027 41.8556 181.802 42.2805V38.3239H180.329V36.6938H181.802V35.4468C181.802 34.0258 182.667 33.2457 183.997 33.2457C184.633 33.2457 185.298 33.357 185.298 33.357V34.7433H184.562C183.84 34.7433 183.618 35.1821 183.618 35.628V36.6938H185.227L184.969 38.3239H183.618V42.2805C186.392 41.8556 188.516 39.515 188.516 36.6938Z" fill="white"/>
<rect x="195.291" y="28.1273" width="17.4194" height="17.4194" rx="8.70968" fill="url(#paint0_linear_2773_1113)"/>
<path d="M204 32.9684C205.262 32.9684 205.409 32.9743 205.905 32.9979C206.365 33.0215 206.618 33.0982 206.783 33.1631C206.99 33.2338 207.173 33.3577 207.326 33.5111C207.479 33.6644 207.603 33.8531 207.68 34.0595C207.745 34.2246 207.821 34.4722 207.839 34.9322C207.863 35.4276 207.869 35.5809 207.869 36.837C207.869 38.099 207.863 38.2464 207.839 38.7477C207.821 39.2018 207.745 39.4553 207.68 39.6205C207.597 39.8269 207.479 40.0096 207.326 40.1629C207.173 40.3163 206.984 40.4402 206.783 40.5168C206.618 40.5817 206.365 40.6584 205.905 40.6761C205.409 40.6997 205.262 40.7056 204 40.7056C202.744 40.7056 202.591 40.6997 202.095 40.6761C201.635 40.6584 201.388 40.5817 201.217 40.5168C201.016 40.4402 200.827 40.3222 200.674 40.1629C200.521 40.0096 200.397 39.8269 200.32 39.6205C200.255 39.4553 200.179 39.2018 200.161 38.7418C200.137 38.2464 200.131 38.099 200.131 36.837C200.131 35.5809 200.137 35.4276 200.161 34.9322C200.179 34.4722 200.255 34.2246 200.32 34.0536C200.397 33.853 200.521 33.6644 200.674 33.5111C200.827 33.3577 201.016 33.2338 201.217 33.1631C201.388 33.0982 201.635 33.0215 202.095 32.9979C202.591 32.9743 202.744 32.9684 204 32.9684ZM204 32.1193C202.72 32.1193 202.561 32.1252 202.054 32.1488C201.553 32.1724 201.211 32.2549 200.91 32.3669C200.597 32.4848 200.308 32.6737 200.072 32.9154C199.837 33.1513 199.648 33.4343 199.53 33.7469C199.412 34.0476 199.335 34.3896 199.312 34.8909C199.288 35.3981 199.282 35.5573 199.282 36.837C199.282 38.1167 199.288 38.2818 199.312 38.7831C199.335 39.2844 199.412 39.6264 199.53 39.9271C199.648 40.2397 199.837 40.5286 200.072 40.7645C200.308 41.0004 200.597 41.1892 200.91 41.3071C201.211 41.4251 201.553 41.5016 202.054 41.5252C202.555 41.5488 202.72 41.5547 204 41.5547C205.28 41.5547 205.439 41.5488 205.946 41.5252C206.447 41.5016 206.789 41.4251 207.09 41.3071C207.403 41.1833 207.686 41.0004 207.928 40.7645C208.163 40.5286 208.346 40.2397 208.47 39.9271C208.588 39.6264 208.665 39.2844 208.688 38.7831C208.712 38.2818 208.718 38.1167 208.718 36.837C208.718 35.5573 208.712 35.3981 208.688 34.8909C208.665 34.3896 208.588 34.0476 208.47 33.7469C208.352 33.4343 208.163 33.1513 207.928 32.9154C207.692 32.6737 207.403 32.4907 207.09 32.3669C206.789 32.2549 206.447 32.1724 205.946 32.1488C205.445 32.1252 205.28 32.1193 204 32.1193Z" fill="white"/>
<path d="M204.001 34.4191C203.523 34.4191 203.058 34.5607 202.657 34.8261C202.256 35.0915 201.949 35.4688 201.766 35.9111C201.583 36.3534 201.53 36.8429 201.625 37.3088C201.719 37.7805 201.949 38.211 202.291 38.553C202.627 38.8891 203.058 39.1192 203.529 39.2135C204.001 39.3079 204.485 39.2607 204.927 39.0779C205.369 38.8951 205.753 38.5825 206.018 38.1815C206.283 37.7864 206.425 37.3205 206.425 36.837C206.425 36.5185 206.36 36.2059 206.242 35.9111C206.118 35.6162 205.941 35.3509 205.717 35.1268C205.493 34.9028 205.222 34.7199 204.927 34.6019C204.638 34.4781 204.32 34.4191 204.001 34.4191ZM204.001 38.4115C203.689 38.4115 203.388 38.3171 203.128 38.1461C202.869 37.9751 202.668 37.7275 202.55 37.4385C202.432 37.1554 202.397 36.837 202.462 36.5303C202.521 36.2236 202.668 35.9466 202.892 35.7284C203.111 35.5043 203.388 35.3567 203.694 35.2977C204.001 35.2329 204.32 35.2683 204.603 35.3863C204.892 35.5042 205.139 35.7047 205.31 35.9642C205.481 36.2237 205.576 36.5244 205.576 36.837C205.576 37.2557 205.411 37.6566 205.116 37.9515C204.821 38.2463 204.42 38.4115 204.001 38.4115Z" fill="white"/>
<path d="M206.518 34.8851C206.831 34.8851 207.084 34.6316 207.084 34.319C207.084 34.0065 206.831 33.7529 206.518 33.7529C206.206 33.7529 205.952 34.0065 205.952 34.319C205.952 34.6316 206.206 34.8851 206.518 34.8851Z" fill="white"/>
<rect x="216.581" y="28.1273" width="17.4194" height="17.4194" rx="8.70968" fill="white"/>
<g clip-path="url(#clip0_2773_1113)">
<path d="M220.958 32.4822L224.46 37.2871L220.936 41.192H221.729L224.815 37.7726L227.309 41.1922H230.008L226.308 36.1179L229.589 32.4822H228.796L225.954 35.6309L223.657 32.4822H220.958ZM222.124 33.0817H223.365L228.841 40.5926H227.601L222.124 33.0817Z" fill="black"/>
</g>
<defs>
<linearGradient id="paint0_linear_2773_1113" x1="197.649" y1="29.3975" x2="210.17" y2="44.0951" gradientUnits="userSpaceOnUse">
<stop stop-color="#C13CAE"/>
<stop offset="1" stop-color="#FF7000"/>
</linearGradient>
<clipPath id="clip0_2773_1113">
<rect width="9.07258" height="8.70968" fill="white" transform="translate(220.936 32.4822)"/>
</clipPath>
</defs>
</svg>
