<svg width="280" height="59" viewBox="0 0 280 59" fill="none" xmlns="http://www.w3.org/2000/svg">
<path d="M141.68 54.3208C141.148 54.3208 141.106 54.3068 141.106 54.1668V44.3948C141.106 44.2548 141.148 44.2408 141.638 44.2408H141.75C142.352 44.2408 142.408 44.2548 142.52 44.4088L145.978 49.4628C146.79 50.6388 147.476 51.6748 147.98 52.4868C147.966 51.5208 147.952 50.2608 147.952 49.3088V44.3948C147.952 44.2548 148.008 44.2408 148.498 44.2408H148.61C149.1 44.2408 149.184 44.2548 149.184 44.3948V54.1668C149.184 54.3068 149.142 54.3208 148.638 54.3208H148.54C147.952 54.3208 147.882 54.3068 147.784 54.1528L144.326 49.0988C143.584 48.0348 142.898 47.0128 142.31 46.1028C142.324 47.1388 142.338 48.5948 142.338 49.5188V54.1668C142.338 54.3068 142.282 54.3208 141.778 54.3208H141.68ZM154.131 54.4608C153.277 54.4608 152.563 54.2368 152.031 53.7608C151.331 53.1448 150.925 52.1088 150.925 50.7928C150.925 48.1468 152.311 46.7888 154.411 46.7888C155.265 46.7888 155.979 47.0128 156.511 47.4888C157.211 48.1048 157.617 49.1408 157.617 50.4568C157.617 53.1028 156.231 54.4608 154.131 54.4608ZM154.187 53.3408C155.307 53.3408 156.301 52.5568 156.301 50.5548C156.301 49.2948 155.881 47.9088 154.355 47.9088C153.235 47.9088 152.241 48.6928 152.241 50.6948C152.241 51.9548 152.661 53.3408 154.187 53.3408ZM165.378 54.4608C163.53 54.4608 162.382 53.0748 162.382 50.7788C162.382 48.6788 163.474 46.7888 165.784 46.7888C166.358 46.7888 167.016 47.0128 167.366 47.2508V43.8628C167.366 43.7228 167.492 43.6808 167.968 43.6808H168.052C168.5 43.6808 168.626 43.7228 168.626 43.8628V52.5708C168.626 53.2708 168.738 53.3268 169.116 53.3268C169.2 53.3268 169.242 53.4108 169.242 53.7048V53.8028C169.242 54.1388 169.2 54.2368 169.116 54.2648C168.92 54.3348 168.738 54.3488 168.5 54.3488C168.08 54.3488 167.702 54.0828 167.534 53.5368H167.52C167.17 54.0128 166.386 54.4608 165.378 54.4608ZM165.63 53.3408C166.106 53.3408 166.638 53.1868 166.96 52.8648C167.282 52.5428 167.366 52.0808 167.366 50.9048V48.4548C167.016 48.1608 166.414 47.9368 165.854 47.9368C164.538 47.9368 163.698 49.0428 163.698 50.7368C163.698 52.4588 164.538 53.3408 165.63 53.3408ZM173.485 46.0468C173.037 46.0468 173.009 45.9628 173.065 45.8788L174.087 44.0868C174.143 43.9888 174.311 43.9328 174.703 43.9328H174.871C175.389 43.9328 175.487 44.0308 175.417 44.1288L174.101 45.9208C174.059 45.9908 173.933 46.0468 173.597 46.0468H173.485ZM173.933 54.4608C171.665 54.4608 170.503 53.0468 170.503 50.7928C170.503 48.4408 171.791 46.7888 173.863 46.7888C175.109 46.7888 175.963 47.4048 176.425 48.3288C176.747 48.9728 176.887 49.7428 176.887 50.5688C176.887 50.9888 176.859 51.0728 176.747 51.0728H171.819C171.861 51.8428 172.085 52.4448 172.519 52.8088C172.897 53.1448 173.443 53.3128 174.171 53.3128C174.759 53.3128 175.347 53.1728 176.019 52.8648C176.145 52.8088 176.229 52.7808 176.369 53.1308L176.439 53.2988C176.593 53.6628 176.579 53.7468 176.467 53.8168C175.753 54.2368 174.871 54.4608 173.933 54.4608ZM171.861 50.0368H175.599C175.585 48.9868 175.053 47.9368 173.877 47.9368C172.855 47.9368 172.057 48.5948 171.861 50.0368ZM181.114 54.4608C180.036 54.4608 179.21 54.2648 178.566 53.9708C178.538 53.9568 178.524 53.8868 178.524 53.8308V43.8488C178.524 43.7368 178.566 43.6808 179.126 43.6808H179.21C179.77 43.6808 179.784 43.7508 179.784 43.8488V47.6148C180.19 47.1388 181.044 46.7888 181.87 46.7888C182.99 46.7888 183.83 47.3768 184.278 48.3288C184.544 48.9028 184.698 49.6308 184.698 50.4288C184.698 52.9068 183.48 54.4608 181.114 54.4608ZM181.002 53.3688C182.598 53.3688 183.382 52.2068 183.382 50.5268C183.382 48.8468 182.78 47.9788 181.59 47.9788C181.072 47.9788 180.526 48.1748 180.204 48.4968C180.036 48.6648 179.882 48.9028 179.826 49.5048C179.798 49.8968 179.784 50.5828 179.784 51.3948V53.1308C180.134 53.2708 180.596 53.3688 181.002 53.3688ZM187.002 45.5428C186.512 45.5428 186.12 45.1508 186.12 44.6608C186.12 44.1708 186.512 43.7788 187.002 43.7788C187.492 43.7788 187.884 44.1708 187.884 44.6608C187.884 45.1508 187.492 45.5428 187.002 45.5428ZM186.974 54.3208C186.414 54.3208 186.372 54.2648 186.372 54.1528V47.0968C186.372 46.9848 186.414 46.9288 186.974 46.9288H187.058C187.618 46.9288 187.632 46.9988 187.632 47.0968V54.1528C187.632 54.2508 187.618 54.3208 187.058 54.3208H186.974ZM191.976 54.4608C191.346 54.4608 190.884 54.2928 190.576 53.9988C190.17 53.6208 190.044 53.0888 190.044 52.1508V47.9228H188.826C188.742 47.9228 188.714 47.8528 188.714 47.6008V47.5168C188.714 47.2928 188.742 47.2088 188.84 47.1808C190.058 46.8308 190.282 46.2708 190.422 44.9688C190.436 44.8848 190.506 44.8568 190.814 44.8568H190.912C191.234 44.8568 191.304 44.8988 191.304 44.9828V46.9288H193.068C193.166 46.9288 193.194 46.9988 193.194 47.3628V47.4748C193.194 47.8528 193.166 47.9228 193.068 47.9228H191.304V52.0528C191.304 52.5848 191.346 52.9348 191.528 53.1308C191.682 53.2988 191.92 53.3828 192.242 53.3828C192.564 53.3828 192.914 53.2848 193.194 53.2008C193.334 53.1588 193.376 53.2148 193.446 53.4808L193.488 53.6628C193.558 53.9568 193.558 54.0408 193.446 54.1108C193.096 54.3348 192.494 54.4608 191.976 54.4608ZM197.676 54.4608C196.822 54.4608 196.108 54.2368 195.576 53.7608C194.876 53.1448 194.47 52.1088 194.47 50.7928C194.47 48.1468 195.856 46.7888 197.956 46.7888C198.81 46.7888 199.524 47.0128 200.056 47.4888C200.756 48.1048 201.162 49.1408 201.162 50.4568C201.162 53.1028 199.776 54.4608 197.676 54.4608ZM197.732 53.3408C198.852 53.3408 199.846 52.5568 199.846 50.5548C199.846 49.2948 199.426 47.9088 197.9 47.9088C196.78 47.9088 195.786 48.6928 195.786 50.6948C195.786 51.9548 196.206 53.3408 197.732 53.3408ZM208.923 54.4608C206.879 54.4608 205.927 52.7668 205.927 50.7508C205.927 48.3568 207.299 46.7888 209.147 46.7888C209.987 46.7888 210.645 47.1808 211.037 47.6848L211.107 47.0968C211.121 46.9288 211.191 46.9288 211.611 46.9288H211.639C212.171 46.9288 212.185 46.9848 212.185 47.0968C212.185 47.4328 212.157 48.3288 212.157 49.2248V51.1848C212.157 52.4728 212.213 53.3828 212.255 54.1528C212.255 54.2648 212.185 54.3208 211.751 54.3208H211.695C211.261 54.3208 211.177 54.2788 211.163 54.1528L211.079 53.5088C210.631 54.0548 209.833 54.4608 208.923 54.4608ZM209.147 53.3408C209.609 53.3408 210.169 53.2008 210.547 52.7948C210.841 52.4728 210.897 52.0808 210.897 50.8628V48.8748C210.575 48.3708 209.945 47.9228 209.287 47.9228C207.999 47.9228 207.243 49.0008 207.243 50.6808C207.243 51.9968 207.705 53.3408 209.147 53.3408ZM216.754 54.4608C215.998 54.4608 215.354 54.2088 214.892 53.7188C214.402 53.2008 214.206 52.4728 214.206 51.3388V47.0968C214.206 46.9988 214.234 46.9288 214.766 46.9288H214.878C215.41 46.9288 215.466 46.9848 215.466 47.0968V50.7648C215.466 51.8708 215.508 52.4448 215.816 52.8228C216.068 53.1308 216.488 53.2988 217.062 53.2988C217.608 53.2988 218.252 53.1168 218.588 52.7948C218.882 52.5148 219.036 52.0948 219.036 50.5548V47.0968C219.036 46.9988 219.12 46.9288 219.596 46.9288H219.722C220.198 46.9288 220.296 46.9848 220.296 47.0968V51.8708C220.296 52.8228 220.324 53.8028 220.324 54.1528C220.324 54.2648 220.282 54.3208 219.75 54.3208H219.694C219.204 54.3208 219.12 54.2648 219.12 54.1528L219.092 53.5508H219.078C218.56 54.1248 217.79 54.4608 216.754 54.4608ZM224.665 54.4608C224.035 54.4608 223.573 54.2928 223.265 53.9988C222.859 53.6208 222.733 53.0888 222.733 52.1508V47.9228H221.515C221.431 47.9228 221.403 47.8528 221.403 47.6008V47.5168C221.403 47.2928 221.431 47.2088 221.529 47.1808C222.747 46.8308 222.971 46.2708 223.111 44.9688C223.125 44.8848 223.195 44.8568 223.503 44.8568H223.601C223.923 44.8568 223.993 44.8988 223.993 44.9828V46.9288H225.757C225.855 46.9288 225.883 46.9988 225.883 47.3628V47.4748C225.883 47.8528 225.855 47.9228 225.757 47.9228H223.993V52.0528C223.993 52.5848 224.035 52.9348 224.217 53.1308C224.371 53.2988 224.609 53.3828 224.931 53.3828C225.253 53.3828 225.603 53.2848 225.883 53.2008C226.023 53.1588 226.065 53.2148 226.135 53.4808L226.177 53.6628C226.247 53.9568 226.247 54.0408 226.135 54.1108C225.785 54.3348 225.183 54.4608 224.665 54.4608ZM230.365 54.4608C229.511 54.4608 228.797 54.2368 228.265 53.7608C227.565 53.1448 227.159 52.1088 227.159 50.7928C227.159 48.1468 228.545 46.7888 230.645 46.7888C231.499 46.7888 232.213 47.0128 232.745 47.4888C233.445 48.1048 233.851 49.1408 233.851 50.4568C233.851 53.1028 232.465 54.4608 230.365 54.4608ZM230.421 53.3408C231.541 53.3408 232.535 52.5568 232.535 50.5548C232.535 49.2948 232.115 47.9088 230.589 47.9088C229.469 47.9088 228.475 48.6928 228.475 50.6948C228.475 51.9548 228.895 53.3408 230.421 53.3408ZM236.124 54.3208C235.564 54.3208 235.522 54.2648 235.522 54.1528V49.3788C235.522 48.4268 235.494 47.4468 235.494 47.0968C235.494 46.9848 235.536 46.9288 236.068 46.9288H236.138C236.642 46.9288 236.712 46.9708 236.712 47.0968L236.726 47.7268H236.74C237.23 47.1528 238.042 46.7888 238.91 46.7888C239.68 46.7888 240.338 47.0548 240.8 47.5308C240.926 47.6708 241.038 47.8108 241.122 47.9788C241.682 47.2088 242.648 46.7888 243.642 46.7888C244.412 46.7888 245.07 47.0548 245.532 47.5308C246.036 48.0488 246.246 48.7768 246.246 49.9108V54.1528C246.246 54.2508 246.232 54.3208 245.672 54.3208H245.588C245.028 54.3208 244.986 54.2648 244.986 54.1528V50.4988C244.986 49.3648 244.944 48.8328 244.608 48.4408C244.342 48.1188 243.866 47.9788 243.334 47.9788C242.844 47.9788 242.256 48.1608 241.934 48.4688C241.766 48.6228 241.612 48.8608 241.556 49.4628C241.528 49.8548 241.514 50.5688 241.514 51.3808V54.1528C241.514 54.2508 241.5 54.3208 240.94 54.3208H240.856C240.296 54.3208 240.254 54.2648 240.254 54.1528V50.4988C240.254 49.3648 240.212 48.8328 239.876 48.4408C239.61 48.1188 239.134 47.9788 238.602 47.9788C238.112 47.9788 237.524 48.1608 237.202 48.4688C237.034 48.6228 236.88 48.8608 236.824 49.4628C236.796 49.8548 236.782 50.5688 236.782 51.3808V54.1528C236.782 54.2508 236.768 54.3208 236.208 54.3208H236.124ZM250.813 46.0468C250.365 46.0468 250.337 45.9628 250.393 45.8788L251.415 44.0868C251.471 43.9888 251.639 43.9328 252.031 43.9328H252.199C252.717 43.9328 252.815 44.0308 252.745 44.1288L251.429 45.9208C251.387 45.9908 251.261 46.0468 250.925 46.0468H250.813ZM250.855 54.4608C248.811 54.4608 247.859 52.7668 247.859 50.7508C247.859 48.3568 249.231 46.7888 251.079 46.7888C251.919 46.7888 252.577 47.1808 252.969 47.6848L253.039 47.0968C253.053 46.9288 253.123 46.9288 253.543 46.9288H253.571C254.103 46.9288 254.117 46.9848 254.117 47.0968C254.117 47.4328 254.089 48.3288 254.089 49.2248V51.1848C254.089 52.4728 254.145 53.3828 254.187 54.1528C254.187 54.2648 254.117 54.3208 253.683 54.3208H253.627C253.193 54.3208 253.109 54.2788 253.095 54.1528L253.011 53.5088C252.563 54.0548 251.765 54.4608 250.855 54.4608ZM251.079 53.3408C251.541 53.3408 252.101 53.2008 252.479 52.7948C252.773 52.4728 252.829 52.0808 252.829 50.8628V48.8748C252.507 48.3708 251.877 47.9228 251.219 47.9228C249.931 47.9228 249.175 49.0008 249.175 50.6808C249.175 51.9968 249.637 53.3408 251.079 53.3408ZM258.462 54.4608C257.832 54.4608 257.37 54.2928 257.062 53.9988C256.656 53.6208 256.53 53.0888 256.53 52.1508V47.9228H255.312C255.228 47.9228 255.2 47.8528 255.2 47.6008V47.5168C255.2 47.2928 255.228 47.2088 255.326 47.1808C256.544 46.8308 256.768 46.2708 256.908 44.9688C256.922 44.8848 256.992 44.8568 257.3 44.8568H257.398C257.72 44.8568 257.79 44.8988 257.79 44.9828V46.9288H259.554C259.652 46.9288 259.68 46.9988 259.68 47.3628V47.4748C259.68 47.8528 259.652 47.9228 259.554 47.9228H257.79V52.0528C257.79 52.5848 257.832 52.9348 258.014 53.1308C258.168 53.2988 258.406 53.3828 258.728 53.3828C259.05 53.3828 259.4 53.2848 259.68 53.2008C259.82 53.1588 259.862 53.2148 259.932 53.4808L259.974 53.6628C260.044 53.9568 260.044 54.0408 259.932 54.1108C259.582 54.3348 258.98 54.4608 258.462 54.4608ZM262.006 45.5428C261.516 45.5428 261.124 45.1508 261.124 44.6608C261.124 44.1708 261.516 43.7788 262.006 43.7788C262.496 43.7788 262.888 44.1708 262.888 44.6608C262.888 45.1508 262.496 45.5428 262.006 45.5428ZM261.978 54.3208C261.418 54.3208 261.376 54.2648 261.376 54.1528V47.0968C261.376 46.9848 261.418 46.9288 261.978 46.9288H262.062C262.622 46.9288 262.636 46.9988 262.636 47.0968V54.1528C262.636 54.2508 262.622 54.3208 262.062 54.3208H261.978ZM267.525 54.4608C265.383 54.4608 264.319 52.8228 264.319 50.7368C264.319 48.1748 265.817 46.7888 267.763 46.7888C268.645 46.7888 269.429 47.0968 270.017 47.5168C270.129 47.6008 270.129 47.6988 269.933 48.1608C269.723 48.6368 269.583 48.5948 269.485 48.5248C268.967 48.1748 268.393 47.9368 267.833 47.9368C266.531 47.9368 265.635 48.9168 265.635 50.6528C265.635 51.9968 266.181 53.3128 267.693 53.3128C268.281 53.3128 268.925 53.1448 269.471 52.8788C269.583 52.8228 269.723 52.8648 269.835 53.1588L269.905 53.3408C270.045 53.6768 270.003 53.7748 269.905 53.8308C269.205 54.2228 268.393 54.4608 267.525 54.4608ZM274.348 54.4608C273.494 54.4608 272.78 54.2368 272.248 53.7608C271.548 53.1448 271.142 52.1088 271.142 50.7928C271.142 48.1468 272.528 46.7888 274.628 46.7888C275.482 46.7888 276.196 47.0128 276.728 47.4888C277.428 48.1048 277.834 49.1408 277.834 50.4568C277.834 53.1028 276.448 54.4608 274.348 54.4608ZM274.404 53.3408C275.524 53.3408 276.518 52.5568 276.518 50.5548C276.518 49.2948 276.098 47.9088 274.572 47.9088C273.452 47.9088 272.458 48.6928 272.458 50.6948C272.458 51.9548 272.878 53.3408 274.404 53.3408Z" fill="white"/>
<path d="M251.749 31.343C251.461 31.343 251.353 31.295 251.377 31.199L254.017 22.403C254.053 22.295 254.161 22.283 254.437 22.283H254.665C254.953 22.283 255.073 22.331 255.049 22.427L252.421 31.223C252.397 31.307 252.265 31.343 251.989 31.343H251.749ZM256.682 31.139C256.202 31.139 256.142 31.127 256.142 31.019V22.643C256.142 22.523 256.214 22.499 256.706 22.499H256.922C257.378 22.499 257.474 22.535 257.522 22.643L259.214 26.051C259.622 26.879 259.994 27.659 260.27 28.319C260.57 27.599 260.942 26.747 261.278 26.051L262.946 22.643C262.994 22.535 263.078 22.499 263.57 22.499H263.726C264.194 22.499 264.266 22.523 264.266 22.643V31.019C264.266 31.127 264.206 31.139 263.762 31.139H263.678C263.21 31.139 263.162 31.127 263.162 31.019V27.035C263.162 26.351 263.174 24.971 263.186 24.347C262.886 25.091 262.466 25.979 262.094 26.735L260.738 29.495C260.69 29.591 260.654 29.615 260.258 29.615H260.222C259.778 29.615 259.754 29.591 259.706 29.495L258.29 26.675C257.906 25.907 257.57 25.187 257.222 24.347C257.246 25.019 257.246 26.279 257.246 27.047V31.019C257.246 31.127 257.198 31.139 256.742 31.139H256.682ZM270.193 21.755L268.873 20.603L267.529 21.743C267.481 21.791 267.361 21.743 267.241 21.611L267.157 21.515C267.013 21.359 266.977 21.263 267.037 21.191L268.129 20.027C268.213 19.931 268.345 19.871 268.657 19.871H269.113C269.449 19.871 269.581 19.955 269.653 20.039L270.721 21.167C270.793 21.239 270.745 21.359 270.601 21.515L270.505 21.623C270.397 21.755 270.253 21.815 270.193 21.755ZM266.161 31.139V22.499H271.321C271.441 22.499 271.465 22.547 271.465 22.919V22.991C271.465 23.363 271.441 23.423 271.321 23.423H267.313V26.303H270.721C270.829 26.303 270.865 26.351 270.865 26.723V26.795C270.865 27.167 270.829 27.227 270.721 27.227H267.313V30.215H271.369C271.489 30.215 271.513 30.251 271.513 30.635V30.695C271.513 31.067 271.489 31.139 271.369 31.139H266.161ZM275.379 31.259C274.347 31.259 273.279 30.935 272.751 30.527C272.643 30.443 272.619 30.371 272.799 30.047L272.871 29.915C273.015 29.651 273.087 29.615 273.195 29.675C273.831 30.059 274.575 30.311 275.319 30.311C276.519 30.311 277.263 29.711 277.263 28.823C277.263 28.067 276.771 27.755 275.283 27.083C273.699 26.363 273.063 25.739 273.063 24.647C273.063 23.255 274.323 22.379 275.859 22.379C276.711 22.379 277.443 22.583 278.055 22.979C278.187 23.063 278.187 23.111 278.031 23.423L277.971 23.543C277.815 23.855 277.767 23.867 277.635 23.795C277.035 23.483 276.483 23.315 275.895 23.315C274.923 23.315 274.203 23.831 274.203 24.587C274.203 25.295 274.707 25.631 275.991 26.231C277.575 26.975 278.403 27.551 278.403 28.823C278.403 30.251 277.251 31.259 275.379 31.259Z" fill="white"/>
<path d="M254.753 20.2149C254.641 20.3129 254.557 20.3269 254.403 20.1869L254.207 20.0049C254.067 19.8789 254.053 19.8089 254.165 19.6829C254.739 18.9829 254.963 18.4089 254.963 18.0309C254.963 17.3729 254.333 17.3169 254.333 16.6449C254.333 16.1689 254.739 15.7489 255.299 15.7489C255.971 15.7489 256.433 16.2669 256.433 16.9949C256.433 18.1289 255.789 19.3049 254.753 20.2149ZM260.357 17.8349C259.503 17.8349 258.705 17.5829 258.243 17.2749C258.089 17.1769 258.075 17.0929 258.243 16.7569L258.383 16.4629C258.551 16.1269 258.593 16.0849 258.775 16.1689C259.307 16.3929 259.783 16.5189 260.217 16.5189C261.001 16.5189 261.505 16.2249 261.855 15.6649C262.261 15.0909 262.471 14.2369 262.569 13.1169C262.037 13.5089 261.309 13.8029 260.553 13.8029C258.775 13.8029 257.683 12.5989 257.683 10.8489C257.683 9.01495 258.887 7.47495 260.889 7.47495C263.381 7.47495 264.305 9.30895 264.305 11.9129C264.305 13.9429 263.857 15.5949 262.989 16.6169C262.359 17.4009 261.491 17.8349 260.357 17.8349ZM260.959 12.5149C261.519 12.5149 262.163 12.2769 262.625 11.9549C262.611 9.82695 262.079 8.80495 260.917 8.80495C259.965 8.80495 259.335 9.56095 259.335 10.7089C259.335 11.7729 259.839 12.5149 260.959 12.5149ZM268.081 17.8349C267.227 17.8349 266.429 17.5829 265.967 17.2749C265.813 17.1769 265.799 17.0929 265.967 16.7569L266.107 16.4629C266.275 16.1269 266.317 16.0849 266.499 16.1689C267.031 16.3929 267.507 16.5189 267.941 16.5189C268.725 16.5189 269.229 16.2249 269.579 15.6649C269.985 15.0909 270.195 14.2369 270.293 13.1169C269.761 13.5089 269.033 13.8029 268.277 13.8029C266.499 13.8029 265.407 12.5989 265.407 10.8489C265.407 9.01495 266.611 7.47495 268.613 7.47495C271.105 7.47495 272.029 9.30895 272.029 11.9129C272.029 13.9429 271.581 15.5949 270.713 16.6169C270.083 17.4009 269.215 17.8349 268.081 17.8349ZM268.683 12.5149C269.243 12.5149 269.887 12.2769 270.349 11.9549C270.335 9.82695 269.803 8.80495 268.641 8.80495C267.689 8.80495 267.059 9.56095 267.059 10.7089C267.059 11.7729 267.563 12.5149 268.683 12.5149Z" fill="white"/>
<path d="M167.452 17.7289C167.008 17.7289 166.948 17.7049 166.948 17.5969V9.08888H168.964C171.172 9.08888 172.612 9.71288 172.612 11.7169C172.612 13.5529 171.34 14.4889 169.36 14.4889C168.988 14.4889 168.544 14.4649 168.1 14.4049V17.5969C168.1 17.7169 168.016 17.7289 167.572 17.7289H167.452ZM169.228 13.5649C170.68 13.5649 171.448 12.9649 171.448 11.7529C171.448 10.3729 170.464 10.0129 169.024 10.0129H168.1V13.4929C168.508 13.5529 168.964 13.5649 169.228 13.5649ZM177.317 17.8489C174.893 17.8489 173.489 16.2769 173.489 13.5289C173.489 10.7329 175.001 8.96888 177.581 8.96888C180.005 8.96888 181.409 10.5409 181.409 13.2769C181.409 16.0729 179.897 17.8489 177.317 17.8489ZM177.341 16.8769C179.141 16.8769 180.209 15.5689 180.209 13.3249C180.209 11.1289 179.261 9.94088 177.521 9.94088C175.721 9.94088 174.689 11.2249 174.689 13.4809C174.689 15.6889 175.625 16.8769 177.341 16.8769ZM188.945 17.5489C189.029 17.6809 188.909 17.7289 188.573 17.7289H188.249C187.829 17.7289 187.745 17.7169 187.661 17.5849L186.161 15.1249C185.633 14.2609 185.453 14.2009 184.601 14.2009H184.037V17.5969C184.037 17.7169 183.953 17.7289 183.509 17.7289H183.389C182.945 17.7289 182.885 17.7049 182.885 17.5969V9.08888H185.081C187.337 9.08888 188.609 9.74888 188.609 11.5009C188.609 12.8329 187.853 13.6369 186.581 14.0209C186.797 14.1889 186.989 14.4529 187.289 14.9209L188.945 17.5489ZM185.249 13.2889C186.605 13.2889 187.421 12.7729 187.421 11.5729C187.421 10.3729 186.629 10.0129 185.189 10.0129H184.037V13.2889H185.249Z" fill="white"/>
<path d="M184.554 35.0025C184.68 35.1985 184.526 35.2545 184.064 35.2545H183.42C182.874 35.2545 182.734 35.2265 182.622 35.0585L180.802 32.2025C180.298 31.4185 180.116 31.2645 179.248 31.2645H178.786V35.0725C178.786 35.2405 178.674 35.2545 177.988 35.2545H177.834C177.134 35.2545 177.064 35.2405 177.064 35.0725V25.3145C177.064 25.1885 177.19 25.1745 177.666 25.1745H179.738C182.51 25.1745 183.924 26.0005 183.924 28.0445C183.924 29.5285 183.154 30.5085 181.754 31.0125C181.992 31.2085 182.216 31.4885 182.496 31.9085L184.554 35.0025ZM179.948 29.9205C181.348 29.9205 182.188 29.3885 182.188 28.1425C182.188 26.8825 181.334 26.5325 179.92 26.5325H178.786V29.9205H179.948ZM192.39 32.4685C192.39 33.9385 191.424 35.0165 189.758 35.3105V36.6125C189.758 36.7385 189.716 36.7945 189.072 36.7945H188.904C188.232 36.7945 188.204 36.7385 188.204 36.6125V35.3665C187.21 35.2685 186.244 34.9325 185.642 34.4845C185.432 34.3305 185.418 34.2605 185.67 33.8125L185.81 33.5605C186.02 33.1685 186.09 33.1125 186.286 33.2105C187.042 33.6165 187.84 33.9805 188.848 33.9805C189.94 33.9805 190.696 33.4065 190.696 32.5665C190.696 31.6845 189.828 31.2785 188.624 30.7325C186.776 29.8925 186.006 29.2205 186.006 27.8625C186.006 26.4205 186.986 25.3845 188.512 25.1045V23.8025C188.512 23.6765 188.54 23.6205 189.212 23.6205H189.38C190.024 23.6205 190.066 23.6765 190.066 23.8025V25.0765C190.836 25.1745 191.522 25.4265 192.012 25.7625C192.208 25.9025 192.194 25.9865 191.97 26.4205L191.858 26.6305C191.634 27.0645 191.564 27.0785 191.41 26.9945C190.794 26.6305 190.094 26.4205 189.464 26.4205C188.302 26.4205 187.7 26.9665 187.7 27.7225C187.7 28.5345 188.61 28.9405 189.618 29.4165C191.41 30.2425 192.39 30.9425 192.39 32.4685Z" fill="white"/>
<path d="M200.391 34.321C200.054 34.321 199.942 34.1339 199.942 32.4868V32.1125C199.942 30.4654 200.054 30.2782 200.391 30.2782H205.257V12.9839L200.653 14.9679C200.204 15.1551 199.942 14.9679 199.305 13.508L199.081 12.9839C198.519 11.6737 198.519 11.2994 198.931 11.1122L205.444 8.08011C206.717 7.51861 207.316 7.36888 208.177 7.36888H209.113C210.311 7.36888 210.46 7.51861 210.46 7.93038V30.2782H214.84C215.177 30.2782 215.289 30.4654 215.289 32.1125V32.4868C215.289 34.1339 215.177 34.321 214.84 34.321H200.391ZM217.338 34.321C217.001 34.321 216.889 34.1339 216.889 32.4868V32.1125C216.889 30.4654 217.001 30.2782 217.338 30.2782H222.204V12.9839L217.6 14.9679C217.151 15.1551 216.889 14.9679 216.252 13.508L216.028 12.9839C215.466 11.6737 215.466 11.2994 215.878 11.1122L222.392 8.08011C223.664 7.51861 224.263 7.36888 225.124 7.36888H226.06C227.258 7.36888 227.408 7.51861 227.408 7.93038V30.2782H231.787C232.124 30.2782 232.237 30.4654 232.237 32.1125V32.4868C232.237 34.1339 232.124 34.321 231.787 34.321H217.338ZM239.951 34.6954C237.443 34.6954 235.384 34.0216 234.074 33.0857C233.55 32.7114 233.625 32.3371 234.074 31.4761L234.56 30.5403C235.122 29.4547 235.384 29.3798 235.683 29.567C236.769 30.1659 238.079 30.5403 239.464 30.5403C241.561 30.5403 242.908 29.6418 243.769 28.0322C244.518 26.6097 244.967 24.5883 245.154 22.1177C243.807 23.1284 241.972 23.8771 240.101 23.8771C235.534 23.8771 232.502 20.7701 232.502 16.1658C232.502 11.2245 235.833 6.99454 241.298 6.99454C248.261 6.99454 250.582 12.0106 250.582 18.9358C250.582 24.1017 249.459 28.2942 247.363 31.0643C245.603 33.3852 243.095 34.6954 239.951 34.6954ZM241.523 19.7968C242.721 19.7968 244.218 19.3102 245.266 18.5615C245.229 13.4331 243.956 11.1871 241.411 11.1871C239.315 11.1871 237.742 12.9839 237.742 15.7166C237.742 18.4118 239.165 19.7968 241.523 19.7968Z" fill="white"/>
<path d="M7.16254 24.5741C2.75872 24.5741 0.911135 21.3345 0.911135 16.5258C0.911135 10.1478 3.69516 5.84525 8.35207 5.84525C9.84532 5.84525 11.2626 6.30081 12.0979 6.93355C12.4269 7.18664 12.3003 7.46504 11.9207 8.1737L11.5917 8.78113C11.1108 9.66695 10.9589 9.71757 10.6299 9.5404C9.89594 9.13546 9.18728 8.95829 8.47862 8.95829C7.56749 8.95829 7.01068 9.28731 6.47918 9.92005C5.94769 10.6034 5.49212 11.9195 5.31496 13.4887C6.12485 12.9825 7.23846 12.6028 8.25084 12.6028C11.5157 12.6028 13.4899 14.8047 13.4899 18.095C13.4899 21.5117 11.0349 24.5741 7.16254 24.5741ZM7.28908 21.4105C8.57986 21.4105 9.36445 20.1197 9.36445 18.2721C9.36445 16.5511 8.63048 15.6906 7.28908 15.6906C6.63104 15.6906 5.79583 15.9943 5.13779 16.3992V16.6523C5.13779 19.8413 5.92238 21.4105 7.28908 21.4105ZM21.7522 24.5741C17.6521 24.5741 15.1971 21.537 15.1971 15.5134C15.1971 9.262 17.728 5.84525 22.1571 5.84525C26.2825 5.84525 28.7628 8.85705 28.7628 14.8807C28.7628 21.1574 26.2066 24.5741 21.7522 24.5741ZM21.8534 21.3345C23.6504 21.3345 24.4603 19.0061 24.4603 15.0578C24.4603 10.983 23.6504 9.08484 22.0812 9.08484C20.2842 9.08484 19.4996 11.388 19.4996 15.3615C19.4996 19.4363 20.2842 21.3345 21.8534 21.3345ZM37.1503 24.5741C33.0502 24.5741 30.5952 21.537 30.5952 15.5134C30.5952 9.262 33.1261 5.84525 37.5553 5.84525C41.6807 5.84525 44.161 8.85705 44.161 14.8807C44.161 21.1574 41.6048 24.5741 37.1503 24.5741ZM37.2516 21.3345C39.0485 21.3345 39.8584 19.0061 39.8584 15.0578C39.8584 10.983 39.0485 9.08484 37.4793 9.08484C35.6824 9.08484 34.8978 11.388 34.8978 15.3615C34.8978 19.4363 35.6824 21.3345 37.2516 21.3345ZM55.0565 24.321C53.2342 24.321 53.1076 24.2957 53.1076 23.8655V6.55391C53.1076 6.17427 53.4113 6.09834 54.9046 6.09834H56.4232C58.0683 6.09834 58.372 6.19958 58.5491 6.57922L60.2196 10.1984C61.156 12.1979 61.9406 14.0708 62.7252 16.0449C63.5857 14.0708 64.4462 12.0966 65.3573 10.1984L67.0784 6.57922C67.2555 6.22489 67.5846 6.09834 69.2044 6.09834H70.2927C71.7859 6.09834 72.1149 6.17427 72.1149 6.55391V23.8655C72.1149 24.2957 71.8618 24.321 70.0902 24.321H69.8624C68.0401 24.321 67.8883 24.2957 67.8883 23.8655L67.9389 18.1203C67.9389 16.956 67.9389 14.2986 67.9642 13.4633C67.4833 14.8047 66.5975 16.8548 65.6611 18.8542L64.7246 20.8537C64.5474 21.1827 64.4462 21.2586 62.877 21.2586H62.3962C60.8017 21.2586 60.6498 21.1827 60.498 20.8537L59.5615 18.8542C58.4732 16.5005 57.8911 15.1338 57.2837 13.3874C57.309 14.1973 57.3343 16.298 57.3343 17.7153V23.8655C57.3343 24.2957 57.0812 24.321 55.2842 24.321H55.0565ZM76.7105 24.321C75.85 24.321 75.6982 24.2198 75.6982 23.8149V6.60452C75.6982 6.19958 75.9007 6.09834 76.7612 6.09834H87.467C87.872 6.09834 87.9732 6.12365 87.9732 7.66752V7.92061C87.9732 9.38855 87.8466 9.5404 87.467 9.5404H80.0514V13.3874H86.3534C86.7837 13.3874 86.8596 13.4127 86.8596 14.9566V15.2097C86.8596 16.6776 86.733 16.8295 86.3534 16.8295H80.0514V20.879H87.5682C87.9732 20.879 88.0744 20.879 88.0744 22.4482V22.6759C88.0744 24.0933 87.9732 24.321 87.5682 24.321H76.7105ZM99.2176 24.5741C96.054 24.5741 93.8521 23.6883 92.4094 22.0432C91.0174 20.4487 90.3088 18.095 90.3088 15.1591C90.3088 9.36324 93.8268 5.84525 99.4961 5.84525C101.723 5.84525 103.647 6.35143 105.444 7.56628C105.823 7.81937 105.773 8.04716 105.165 9.08484L104.684 9.89474C104.178 10.7553 103.95 10.8059 103.546 10.5781C102.457 9.94535 101.116 9.48979 99.6479 9.48979C96.4842 9.48979 94.7632 11.3627 94.7632 15.1591C94.7632 19.0061 96.3071 20.9549 99.4961 20.9549C100.078 20.9549 100.989 20.8537 101.597 20.7524V17.2851H98.9646C98.5849 17.2851 98.4331 17.2091 98.4331 15.64V15.4122C98.4331 13.9189 98.5343 13.843 98.9646 13.843H104.76C105.798 13.843 105.925 13.9695 105.925 14.4504V22.6253C105.925 23.1062 105.849 23.2834 105.317 23.5111C104.052 24.0426 101.647 24.5741 99.2176 24.5741ZM109.613 24.321C107.816 24.321 107.715 24.2451 107.867 23.8402L114.624 6.5286C114.751 6.19958 114.852 6.09834 116.497 6.09834H116.826C118.496 6.09834 118.623 6.17427 118.775 6.5286L125.735 23.8149C125.912 24.2451 125.634 24.321 123.887 24.321H123.508C121.685 24.321 121.382 24.2198 121.23 23.8402L119.686 19.7907H113.637L112.169 23.8402C111.967 24.2704 111.764 24.321 109.942 24.321H109.613ZM114.852 16.5258H118.446L117.99 15.1591C117.282 13.0078 116.877 11.7676 116.649 10.9071C116.421 11.7676 115.94 13.2609 115.333 15.0831L114.852 16.5258Z" fill="white"/>
<path d="M1.652 38.6606C1.19 38.6606 1.064 38.6466 1.064 38.5206V28.7206C1.064 28.5946 1.176 28.5806 1.638 28.5806H3.85C5.768 28.5806 7.084 28.9446 8.008 29.8406C8.876 30.6946 9.366 31.9826 9.366 33.5926C9.366 35.3566 8.778 36.7286 7.826 37.5546C6.958 38.3246 5.74 38.6606 3.906 38.6606H1.652ZM2.786 37.2886H3.836C5.11 37.2886 5.964 37.0366 6.552 36.5466C7.224 35.9726 7.602 34.9926 7.602 33.6066C7.602 32.4306 7.336 31.5066 6.706 30.8626C6.048 30.1906 5.166 29.9526 3.836 29.9526H2.786V37.2886ZM11.6475 38.6606C11.1295 38.6606 11.0035 38.6326 11.0035 38.5206V28.7206C11.0035 28.5946 11.1435 28.5806 11.6195 28.5806H17.1775C17.3455 28.5806 17.3735 28.6226 17.3735 29.2106V29.3086C17.3735 29.8686 17.3315 29.9526 17.1775 29.9526H12.7255V32.8786H16.5055C16.6735 32.8786 16.7015 32.9206 16.7015 33.5086V33.5926C16.7015 34.1666 16.6595 34.2506 16.5055 34.2506H12.7255V37.2886H17.2335C17.4015 37.2886 17.4295 37.3306 17.4295 37.9186V38.0166C17.4295 38.5626 17.4015 38.6606 17.2335 38.6606H11.6475ZM26.5543 38.6606C25.6583 38.6606 25.5743 38.6046 25.5043 38.4226L22.0463 28.8046C21.9763 28.6226 22.0743 28.5806 22.7463 28.5806H22.9563C23.6843 28.5806 23.7683 28.6086 23.8383 28.7906L25.4763 33.7046C25.8403 34.8106 26.2743 36.0846 26.5963 37.1486C26.9043 36.0286 27.2823 34.7266 27.6463 33.6486L29.2703 28.7906C29.3403 28.6086 29.4103 28.5806 30.0823 28.5806H30.1663C30.9083 28.5806 30.9923 28.6086 30.9363 28.7906L27.6463 38.3946C27.5623 38.6466 27.4223 38.6606 26.6383 38.6606H26.5543ZM32.9346 38.6606C32.4166 38.6606 32.2906 38.6326 32.2906 38.5206V28.7206C32.2906 28.5946 32.4306 28.5806 32.9066 28.5806H38.4646C38.6326 28.5806 38.6606 28.6226 38.6606 29.2106V29.3086C38.6606 29.8686 38.6186 29.9526 38.4646 29.9526H34.0126V32.8786H37.7926C37.9606 32.8786 37.9886 32.9206 37.9886 33.5086V33.5926C37.9886 34.1666 37.9466 34.2506 37.7926 34.2506H34.0126V37.2886H38.5206C38.6886 37.2886 38.7166 37.3306 38.7166 37.9186V38.0166C38.7166 38.5626 38.6886 38.6606 38.5206 38.6606H32.9346ZM41.0804 38.6606C40.5904 38.6606 40.5484 38.6326 40.5484 38.4646V28.7626C40.5484 28.6086 40.6324 28.5806 41.3184 28.5806H41.4724C42.1444 28.5806 42.2704 28.6086 42.2704 28.7626V37.2886H46.4284C46.5824 37.2886 46.6244 37.3306 46.6244 37.9186V38.0166C46.6244 38.5766 46.5824 38.6606 46.4284 38.6606H41.0804ZM51.8398 38.8006C48.9558 38.8006 47.3318 37.0086 47.3318 33.7606C47.3318 30.5126 49.0398 28.4406 52.1618 28.4406C55.0598 28.4406 56.6698 30.2326 56.6698 33.4806C56.6698 36.7286 54.9618 38.8006 51.8398 38.8006ZM51.8958 37.3726C53.8138 37.3726 54.8918 35.9866 54.8918 33.5366C54.8918 31.1146 53.9538 29.8686 52.1198 29.8686C50.1738 29.8686 49.1098 31.2266 49.1098 33.7046C49.1098 36.1266 50.0478 37.3726 51.8958 37.3726ZM62.3541 38.8006C59.4981 38.8006 57.8041 36.8826 57.8041 33.7326C57.8041 30.4006 59.7221 28.4406 62.5221 28.4406C63.7121 28.4406 64.6781 28.7906 65.3081 29.2246C65.5321 29.3646 65.5321 29.4346 65.2661 29.8546L65.0981 30.1206C64.8601 30.5126 64.8181 30.5266 64.6641 30.4426C63.9921 30.0786 63.4181 29.8826 62.6621 29.8826C60.6881 29.8826 59.5821 31.2406 59.5821 33.6626C59.5821 36.0986 60.6461 37.3586 62.6621 37.3586C63.3901 37.3586 64.1181 37.1486 64.7621 36.8966C64.9441 36.8126 65.0001 36.8406 65.1681 37.2046L65.3081 37.4986C65.5041 37.9046 65.5041 38.0026 65.3221 38.0866C64.5101 38.5206 63.4181 38.8006 62.3541 38.8006ZM67.8705 38.6606C67.1705 38.6606 67.1005 38.6466 67.1005 38.4786V28.7626C67.1005 28.5946 67.1705 28.5806 67.8705 28.5806H68.0245C68.7105 28.5806 68.8225 28.5946 68.8225 28.7626V38.4786C68.8225 38.6466 68.7105 38.6606 68.0245 38.6606H67.8705ZM71.5973 38.6606C71.1353 38.6606 71.0093 38.6466 71.0093 38.5206V28.7206C71.0093 28.5946 71.1213 28.5806 71.5833 28.5806H73.7953C75.7133 28.5806 77.0293 28.9446 77.9533 29.8406C78.8213 30.6946 79.3113 31.9826 79.3113 33.5926C79.3113 35.3566 78.7233 36.7286 77.7713 37.5546C76.9033 38.3246 75.6853 38.6606 73.8513 38.6606H71.5973ZM72.7313 37.2886H73.7813C75.0553 37.2886 75.9093 37.0366 76.4973 36.5466C77.1693 35.9726 77.5473 34.9926 77.5473 33.6066C77.5473 32.4306 77.2813 31.5066 76.6513 30.8626C75.9933 30.1906 75.1113 29.9526 73.7813 29.9526H72.7313V37.2886ZM80.3579 38.6606C79.6299 38.6606 79.6019 38.6046 79.6579 38.4506L83.3959 28.7906C83.4659 28.6086 83.5219 28.5806 84.2219 28.5806H84.3339C85.0619 28.5806 85.1179 28.5946 85.2019 28.7906L89.0099 38.4366C89.0799 38.6186 88.9819 38.6606 88.2819 38.6606H88.0999C87.3859 38.6606 87.2599 38.6046 87.2039 38.4506L86.3079 36.0566H82.2479L81.3799 38.4506C81.2959 38.6326 81.2119 38.6606 80.4979 38.6606H80.3579ZM82.7379 34.7406H85.8319L85.4539 33.7046C84.9359 32.2766 84.5859 31.2686 84.2919 30.3446C83.9839 31.2406 83.6199 32.3466 83.1299 33.6626L82.7379 34.7406ZM90.9293 38.6606C90.4673 38.6606 90.3413 38.6466 90.3413 38.5206V28.7206C90.3413 28.5946 90.4533 28.5806 90.9153 28.5806H93.1273C95.0453 28.5806 96.3613 28.9446 97.2853 29.8406C98.1533 30.6946 98.6433 31.9826 98.6433 33.5926C98.6433 35.3566 98.0553 36.7286 97.1033 37.5546C96.2353 38.3246 95.0173 38.6606 93.1833 38.6606H90.9293ZM92.0633 37.2886H93.1133C94.3873 37.2886 95.2413 37.0366 95.8293 36.5466C96.5013 35.9726 96.8793 34.9926 96.8793 33.6066C96.8793 32.4306 96.6133 31.5066 95.9833 30.8626C95.3253 30.1906 94.4433 29.9526 93.1133 29.9526H92.0633V37.2886ZM100.925 38.6606C100.407 38.6606 100.281 38.6326 100.281 38.5206V28.7206C100.281 28.5946 100.421 28.5806 100.897 28.5806H106.455C106.623 28.5806 106.651 28.6226 106.651 29.2106V29.3086C106.651 29.8686 106.609 29.9526 106.455 29.9526H102.003V32.8786H105.783C105.951 32.8786 105.979 32.9206 105.979 33.5086V33.5926C105.979 34.1666 105.937 34.2506 105.783 34.2506H102.003V37.2886H106.511C106.679 37.2886 106.707 37.3306 106.707 37.9186V38.0166C106.707 38.5626 106.679 38.6606 106.511 38.6606H100.925Z" fill="white"/>
</svg>
