<svg width="143" height="30" viewBox="0 0 143 30" fill="none" xmlns="http://www.w3.org/2000/svg">
<path d="M24.6697 15.0919C24.6697 9.79311 20.3742 5.49756 15.0753 5.49756C9.7765 5.49756 5.48096 9.79311 5.48096 15.0919C5.48096 19.8807 8.98947 23.85 13.5762 24.5698V17.8653H11.1401V15.0919H13.5762V12.9782C13.5762 10.5736 15.0086 9.24536 17.2002 9.24536C18.2495 9.24536 19.3478 9.43275 19.3478 9.43275V11.7939H18.138C16.9462 11.7939 16.5745 12.5335 16.5745 13.293V15.0919H19.2354L18.81 17.8653H16.5745V24.5698C21.1612 23.85 24.6697 19.8807 24.6697 15.0919Z" fill="white"/>
<path d="M68.2694 23.3871C75.4015 23.3871 79.3024 17.0241 79.3024 11.5061C79.3024 11.3254 79.3024 11.1455 79.2911 10.9664C80.05 10.3752 80.7051 9.64335 81.2257 8.80492C80.518 9.14261 79.7672 9.36407 78.9985 9.4619C79.808 8.94005 80.4138 8.11926 80.7033 7.15229C79.9421 7.63868 79.1094 7.98147 78.241 8.16585C77.6563 7.4964 76.8831 7.05311 76.0409 6.90457C75.1988 6.75604 74.3346 6.91053 73.5822 7.34416C72.8298 7.77779 72.231 8.46637 71.8786 9.30334C71.5263 10.1403 71.4398 11.079 71.6328 11.9742C70.0911 11.891 68.5829 11.4596 67.2061 10.708C65.8294 9.95634 64.6147 8.90134 63.6411 7.61145C63.1453 8.5307 62.9934 9.61891 63.2164 10.6545C63.4395 11.6901 64.0207 12.5952 64.8417 13.1856C64.2246 13.1659 63.6209 12.9866 63.0817 12.6629C63.0817 12.68 63.0817 12.698 63.0817 12.7159C63.0819 13.6799 63.3918 14.6142 63.9589 15.3603C64.5259 16.1064 65.3151 16.6183 66.1926 16.8092C65.6217 16.9768 65.0228 17.0013 64.4417 16.8808C64.6895 17.7105 65.1719 18.4361 65.8215 18.956C66.471 19.476 67.2553 19.7643 68.0645 19.7806C66.6914 20.9427 64.9952 21.5736 63.2488 21.5717C62.9402 21.571 62.632 21.5509 62.3257 21.5114C64.099 22.7369 66.1623 23.3869 68.2694 23.3839" fill="white"/>
<path d="M128.475 7.37475C130.998 7.37475 131.297 7.3845 132.293 7.42988C133.214 7.47189 133.715 7.62566 134.048 7.75505C134.459 7.90634 134.83 8.14793 135.135 8.46201C135.449 8.76709 135.691 9.13877 135.842 9.54966C135.972 9.8827 136.126 10.383 136.168 11.3041C136.213 12.3006 136.223 12.5992 136.223 15.1221C136.223 17.6451 136.213 17.9436 136.168 18.9401C136.126 19.8613 135.972 20.3616 135.842 20.6946C135.685 21.102 135.444 21.472 135.135 21.7808C134.827 22.0896 134.457 22.3304 134.049 22.4877C133.716 22.6171 133.216 22.7709 132.295 22.8129C131.299 22.8583 131 22.868 128.477 22.868C125.954 22.868 125.655 22.8583 124.659 22.8129C123.738 22.7709 123.237 22.6171 122.904 22.4877C122.493 22.3364 122.122 22.0948 121.816 21.7808C121.502 21.4757 121.261 21.104 121.11 20.6931C120.98 20.3601 120.826 19.8598 120.784 18.9386C120.739 17.9421 120.729 17.6436 120.729 15.1206C120.729 12.5977 120.739 12.2991 120.784 11.3026C120.826 10.3815 120.98 9.8812 121.11 9.54816C121.261 9.13727 121.502 8.76559 121.816 8.46051C122.122 8.14643 122.493 7.90484 122.904 7.75355C123.237 7.62416 123.738 7.47038 124.659 7.42838C125.655 7.383 125.954 7.37325 128.477 7.37325L128.475 7.37475ZM128.477 5.6709C125.911 5.6709 125.589 5.68177 124.581 5.72791C123.573 5.77404 122.887 5.93493 122.286 6.16859C121.656 6.40579 121.085 6.7776 120.613 7.25811C120.133 7.73028 119.762 8.30135 119.525 8.93158C119.289 9.53278 119.13 10.2195 119.084 11.225C119.038 12.2305 119.027 12.5546 119.027 15.1206C119.027 17.6867 119.038 18.0085 119.084 19.0163C119.13 20.024 119.289 20.7085 119.523 21.3097C119.76 21.9401 120.132 22.5112 120.613 22.9832C121.085 23.4637 121.656 23.8356 122.286 24.0731C122.886 24.3063 123.574 24.4661 124.58 24.5122C125.585 24.5584 125.909 24.5689 128.475 24.5689C131.041 24.5689 131.363 24.558 132.371 24.5122C133.379 24.4665 134.063 24.3063 134.664 24.0731C135.292 23.8303 135.862 23.459 136.338 22.9832C136.814 22.5073 137.185 21.9373 137.428 21.3097C137.661 20.7096 137.821 20.0218 137.867 19.0163C137.913 18.0108 137.924 17.6867 137.924 15.1206C137.924 12.5546 137.913 12.2328 137.867 11.225C137.821 10.2172 137.661 9.53278 137.428 8.93158C137.19 8.30124 136.818 7.73018 136.338 7.25811C135.866 6.77828 135.295 6.40711 134.664 6.17046C134.063 5.93493 133.376 5.77516 132.371 5.72941C131.365 5.68365 131.041 5.6724 128.475 5.6724L128.477 5.6709Z" fill="white"/>
<path d="M128.478 10.27C127.518 10.27 126.58 10.5546 125.782 11.0878C124.984 11.6209 124.362 12.3787 123.995 13.2653C123.628 14.1519 123.532 15.1275 123.719 16.0688C123.906 17.01 124.368 17.8745 125.047 18.5531C125.725 19.2316 126.59 19.6937 127.531 19.8809C128.472 20.068 129.448 19.9719 130.335 19.6046C131.221 19.2373 131.979 18.6154 132.512 17.8174C133.045 17.0194 133.33 16.0813 133.33 15.1217C133.33 14.4845 133.204 13.8535 132.96 13.2649C132.717 12.6762 132.359 12.1413 131.909 11.6908C131.458 11.2403 130.923 10.8829 130.334 10.6391C129.746 10.3953 129.115 10.2699 128.478 10.27ZM128.478 18.2709C127.854 18.2709 127.245 18.0862 126.727 17.74C126.209 17.3938 125.805 16.9018 125.567 16.3261C125.328 15.7505 125.266 15.117 125.388 14.5059C125.509 13.8948 125.809 13.3334 126.25 12.8929C126.69 12.4523 127.252 12.1522 127.863 12.0307C128.474 11.9091 129.108 11.9715 129.683 12.2099C130.259 12.4484 130.751 12.8522 131.097 13.3703C131.443 13.8883 131.628 14.4974 131.628 15.1205C131.628 15.9561 131.296 16.7574 130.705 17.3482C130.114 17.939 129.313 18.2709 128.478 18.2709Z" fill="white"/>
<path d="M133.519 11.2141C134.145 11.2141 134.653 10.7063 134.653 10.08C134.653 9.45358 134.145 8.9458 133.519 8.9458C132.893 8.9458 132.385 9.45358 132.385 10.08C132.385 10.7063 132.893 11.2141 133.519 11.2141Z" fill="white"/>
</svg>
