<svg width="45" height="45" viewBox="0 0 45 45" fill="none" xmlns="http://www.w3.org/2000/svg">
<path fill-rule="evenodd" clip-rule="evenodd" d="M20.9536 16.2216C20.6398 16.5006 20.3957 16.9391 20.3957 17.6146C20.3957 18.6714 20.6105 19.3757 20.9137 19.7926C21.1835 20.1636 21.5851 20.3958 22.2498 20.3958C22.9146 20.3958 23.3162 20.1636 23.586 19.7926C23.8892 19.3757 24.104 18.6714 24.104 17.6146C24.104 16.9391 23.8599 16.5006 23.546 16.2216C23.2151 15.9274 22.7476 15.7604 22.2498 15.7604C21.7521 15.7604 21.2846 15.9274 20.9536 16.2216ZM19.7218 14.8357C20.4338 14.2028 21.357 13.9062 22.2498 13.9062C23.1427 13.9062 24.0658 14.2028 24.7779 14.8357C25.507 15.4838 25.9582 16.4359 25.9582 17.6146C25.9582 18.8754 25.7094 20.0253 25.0855 20.8832C24.4283 21.7869 23.4392 22.25 22.2498 22.25C21.0604 22.25 20.0714 21.7869 19.4141 20.8832C18.7902 20.0253 18.5415 18.8754 18.5415 17.6146C18.5415 16.4359 18.9927 15.4838 19.7218 14.8357Z" fill="white"/>
<path fill-rule="evenodd" clip-rule="evenodd" d="M17.0812 23.018C18.3521 22.4828 20.1212 22.25 22.2502 22.25C24.3791 22.25 26.1483 22.4828 27.4192 23.018C28.723 23.567 29.6668 24.5261 29.6668 25.9583V28.74C29.6668 29.7647 28.8361 30.5938 27.8127 30.5938H16.6877C15.6636 30.5938 14.8335 29.7636 14.8335 28.7396V25.9583C14.8335 24.5261 15.7773 23.567 17.0812 23.018ZM17.8007 24.7268C16.9027 25.1049 16.6877 25.5364 16.6877 25.9583V28.7396H27.8127V25.9583C27.8127 25.5364 27.5976 25.1049 26.6996 24.7268C25.7687 24.3349 24.2931 24.1042 22.2502 24.1042C20.2073 24.1042 18.7316 24.3349 17.8007 24.7268Z" fill="white"/>
</svg>
